<svg id="Layer_1" data-name="Layer 1" xmlns="http://www.w3.org/2000/svg" viewBox="0 0 357.69 491.66">
  <defs>
    <style>
      .cls-1 {
        fill: #fbfcfd;
      }

      .cls-2 {
        fill: #0a1f2e;
      }

      .cls-3 {
        fill: #99b2ce;
      }

      .cls-4 {
        fill: #b0c6d9;
      }

      .cls-5 {
        fill: #778fa6;
      }

      .cls-6 {
        fill: #afc4da;
      }

      .cls-7 {
        fill: #7890a5;
      }

      .cls-8 {
        fill: #7991a6;
      }

      .cls-9 {
        fill: #788fa7;
      }

      .cls-10 {
        fill: #768fa9;
      }

      .cls-11 {
        fill: #fcfcfe;
      }

      .cls-12 {
        fill: #fbfdfc;
      }

      .cls-13 {
        fill: #bebdbf;
      }

      .cls-14 {
        fill: #bfbdbe;
      }

      .cls-15 {
        fill: #bfbabc;
      }

      .cls-16 {
        fill: #b93f26;
      }

      .cls-17 {
        fill: #ee4a22;
      }

      .cls-18 {
        fill: #b64027;
      }

      .cls-19 {
        fill: #091f2d;
      }

      .cls-20 {
        fill: #b34227;
      }

      .cls-21 {
        fill: #0f1e2b;
      }

      .cls-22 {
        fill: #f7efed;
      }

      .cls-23 {
        fill: #ba4026;
      }

      .cls-24 {
        fill: #c0bdbd;
      }

      .cls-25 {
        fill: #c1c0c5;
      }

      .cls-26 {
        fill: #c0bcbf;
      }

      .cls-27 {
        fill: #f7eeec;
      }

      .cls-28 {
        fill: #f7edee;
      }

      .cls-29 {
        fill: #b4412a;
      }

      .cls-30 {
        fill: #ec4b23;
      }

      .cls-31 {
        fill: #b7402a;
      }

      .cls-32 {
        fill: #f9eded;
      }

      .cls-33 {
        fill: #f9eeeb;
      }

      .cls-34 {
        fill: #c2bcbf;
      }

      .cls-35 {
        fill: #ee4a23;
      }

      .cls-36 {
        fill: #b94024;
      }

      .cls-37 {
        fill: #c2bcbe;
      }

      .cls-38 {
        fill: #ba3f25;
      }

      .cls-39 {
        fill: #c1bcbd;
      }

      .cls-40 {
        fill: #b93f24;
      }

      .cls-41 {
        fill: #c0bdbc;
      }
    </style>
  </defs>
  <path class="cls-1" d="M211,22c9-8.67,21.91-11.18,34-12.11,17-.14,35,5.44,46.53,18.57,2.85,2.59,4.32,6.64,7.52,8.73,4.8-1.45,9.6-3.6,14.75-3a41.72,41.72,0,0,1,30.48,17.65c2,2.79,2.71,6.34,4.88,9,9.85,2.4,20.39,4.81,28,12a26.06,26.06,0,0,1,8.35,25c-1.79,8.39-5.76,16.69-12.67,22-7.6,6.25-17.6,8.38-27.2,8.84-1.12,6-1,12.14-1.61,18.2-.32,3.84-3.4,6.37-5.89,8.95,1.85,2.41,4.1,4.9,4.2,8.13.18,3.5,0,7,.19,10.53,6.42,4.54,13.06,8.8,19,14,3.38,3.2,8.17,3.69,12.47,4.83a144.17,144.17,0,0,0,19,3.56c6.73.78,13.41,3.07,18.68,7.44,6.74,5.76,10.46,15.78,6.68,24.23-5.88,14-18.28,23.74-29.91,32.87-.33,7.21.25,14.44-.46,21.64-.28,3.91-1.16,7.95.08,11.79,3.8,12.3,5.73,25.41,3.88,38.24a23.49,23.49,0,0,1-4.79,11,75.32,75.32,0,0,1-26.9,22.55c.35,4,1.86,7.69,2.82,11.53A106.67,106.67,0,0,1,366.23,406c-.22,2.9,2.06,5,3.54,7.2,4.42,6.19,8,13.77,6.81,21.57-1.06,6.37-3.81,12.8-9,16.86-3.07,2.61-7,3.69-10.68,5.19-3.63,9.54-11.52,16.73-20.19,21.76-16.72,9.69-35.59,15.26-54.63,18.06-24.83,3.67-51,1.66-74-8.87-1.53-.56-3.18-1.73-4.76-.64-19.53,9.68-41.39,15-63.24,14.35a93.07,93.07,0,0,1-53.77-18.79C78.2,476,70.65,468.06,66.8,458.09c-2.5-7.1-5.49-14.43-4.42-22.13,2.13-11.74,6.56-23.77,15.83-31.77,14.2-10.92,33.39-15.68,50.84-10.75,2.49-7.77,5.37-15.54,10.2-22.2,3.82-5.9,9.17-10.53,14.22-15.34-.82-4.42-1.28-8.93-2.3-13.31-2.9-4-6.49-7.61-8.6-12.19-2.23-5-6.63-9.47-6.2-15.34.09-32.27,5-65.58,20.9-94.1-3.76-7.59-8.46-14.9-10.13-23.33-2.07-10-1.25-21.66,6.18-29.32,4.51-4.72,11.55-5.31,17.68-4.45a70.43,70.43,0,0,0,15.56.68,38,38,0,0,0,2.2-6.64c-.41-2.7-2.27-5-2.22-7.85-.23-8.9,2-17.7,1.31-26.62-11.39.43-23.78,0-33.46-6.82A26.36,26.36,0,0,1,143.3,99.49c-1.92-6.88,0-14.93,5.64-19.54,3.15-3.15,7.6-4.15,11.71-5.42.82-5,.6-10.35,2.95-15A23.43,23.43,0,0,1,178.93,47.6c6.51-2.1,13.38-1,20-.3C199.91,37.81,203.84,28.48,211,22Zm1.22,5.21c-6.72,6.92-8.59,16.73-9.29,26-6.53-1.37-13.2-3.16-19.91-1.92-6.63.77-13,4.82-15.73,11-2.29,5.19-1.43,11-1.36,16.49-5.29.37-11.11,1.06-14.89,5.23-5.28,5.13-4.4,13.44-1.78,19.66,3.77,8.41,12.76,13.11,21.53,14.46,7.2,1.6,14.57.23,21.84.73.62,8.71-.66,17.35-1.41,26,0,3.22-.81,7.47,2.34,9.56,3,2.33,8.09.32,8.41-3.53.9-7.63,1.28-15.31,2.18-22.93a51.54,51.54,0,0,1,8,3.2,33,33,0,0,1,.28,8.71c-.76,7.22-1.31,14.46-2,21.68a32.37,32.37,0,0,1-7.15,2.6c-1.79-2.31-3.57-5.85-7.1-5.07-4.74.48-4.77,6.05-5.5,9.62-6.54,1.07-13.19.49-19.73-.31-4.68-.42-10.2-1-13.91,2.57-5.83,5.59-7,14.31-6.06,22,1.19,10.26,6.67,19.23,12,27.85-2.72,4.68-5.66,9.27-7.72,14.3-9.76,23-13.39,48.06-14.08,72.85.15,4.4-.92,9.28,1.67,13.2,2.93,5,5.12,10.55,9.12,14.86,1.67,2.13,4.23,4,4.25,7,.26,5,1.55,9.83,2.78,14.66-5.93,4.78-11.75,9.87-16,16.26a61.63,61.63,0,0,0-10.24,26c-16.51-7.66-36.41-3.48-50.63,7.1-9.65,8-14.57,20.62-14.71,32.95.4,12.59,6.37,24.63,15.29,33.39C95.3,486,112.41,493.6,130,496.05c22.56,2.71,45.64-1.56,66.34-10.71,2.88-1.21,5.44-3.25,8.51-3.92,5,1.72,9.54,4.69,14.69,6.11,17.13,5.89,35.52,6.79,53.46,5.55,19.24-1.92,38.38-6.66,55.72-15.33,8.69-4.69,18.1-10.15,22.35-19.53.87-1.8,1.45-3.77,2.67-5.37,4.4-1.73,9.42-2.68,12.75-6.34A23.33,23.33,0,0,0,372.27,431c-.53-7.28-4.8-13.52-9.17-19.09-2.52-2.69-1.6-6.57-1.74-9.89.32-12.85-3-25.39-7.07-37.47,12-5.6,23-13.78,30.37-24.9a18.48,18.48,0,0,0,2.88-9,87,87,0,0,0-3.61-33.48c-.8-2.63-1.61-5.35-1.13-8.12,1.07-8.65.92-17.39.75-26.08.05-1.7-.21-3.82,1.53-4.8,7.46-5.81,15.08-11.57,21.21-18.85,4.41-5.21,8.32-11.32,9-18.27a19,19,0,0,0-10.5-15.83c-6.86-3.81-14.88-3.8-22.38-5.37-5.76-1.19-11.51-2.46-17.17-4-4.07-1.07-7-4.27-10.22-6.76-5.39-4.46-11.43-8-17.07-12.15-.34-4.56.2-9.14-.32-13.67-.57-4.17-6.37-5.73-9.17-2.75-2.56,2.79-1.52,6.94-1.86,10.38-2.37-1-4.69-2.18-7-3.39-.35-6.82,1-13.61.78-20.41-.88-5.26-9.14-5.31-10.62-.39-1.23,5.32-.82,10.87-1.65,16.26-2.16-.58-4.31-1.23-6.43-1.92-.07-8.3-.11-16.61.12-24.92a76.79,76.79,0,0,1,7.7-2.64c.29,2,.24,4.07,1.14,5.9,2.09,3,7.57,3.05,9.35-.31,1.33-3.4.93-7.2,2.11-10.65,2.16-2.26,5-3.66,7.66-5.31-.27,6.37-.77,12.72-1.35,19.07-.21,2.85-.52,6.45,2.26,8.23,3.14,2.56,8.32.25,8.73-3.71.81-7.48,1-15,1.6-22.53,5.23-.15,10.54-.07,15.63-1.48A31.57,31.57,0,0,0,377,108c3.55-6.53,5.62-14.32,3.64-21.67-1.63-6.19-6.53-11-11.92-14.08-7.19-4.31-15.46-6-23.63-7.25-1.83-5.15-3.68-10.52-7.59-14.51A38,38,0,0,0,313,38.65c-5.93-.39-11.32,2.45-16.23,5.42-2.9-4.36-5.18-9.19-8.91-13C277.54,19.86,262,14.72,247,14.61,234.59,15.14,220.9,17.46,212.24,27.23Z" transform="translate(-62.16 -9.91)"/>
  <path class="cls-2" d="M212.24,27.23c8.66-9.77,22.35-12.09,34.75-12.62,15,.11,30.55,5.25,40.88,16.5,3.73,3.77,6,8.6,8.91,13,4.91-3,10.3-5.81,16.23-5.42a38,38,0,0,1,24.48,11.84c3.91,4,5.76,9.36,7.59,14.51,8.17,1.27,16.44,2.94,23.63,7.25,5.39,3.13,10.29,7.89,11.92,14.08,2,7.35-.09,15.14-3.64,21.67a31.57,31.57,0,0,1-20.37,14.62C351.53,124,346.22,124,341,124.1c-.56,7.51-.79,15.05-1.6,22.53-.41,4-5.59,6.27-8.73,3.71-2.78-1.78-2.47-5.38-2.26-8.23.58-6.35,1.08-12.7,1.35-19.07-2.63,1.65-5.5,3-7.66,5.31-1.18,3.45-.78,7.25-2.11,10.65-1.78,3.36-7.26,3.35-9.35.31-.9-1.83-.85-3.93-1.14-5.9a76.79,76.79,0,0,0-7.7,2.64c-.23,8.31-.19,16.62-.12,24.92,2.12.69,4.27,1.34,6.43,1.92.83-5.39.42-10.94,1.65-16.26,1.48-4.92,9.74-4.87,10.62.39.19,6.8-1.13,13.59-.78,20.41,2.28,1.21,4.6,2.35,7,3.39.34-3.44-.7-7.59,1.86-10.38,2.8-3,8.6-1.42,9.17,2.75.52,4.53,0,9.11.32,13.67C343.55,181,349.59,184.55,355,189c3.22,2.49,6.15,5.69,10.22,6.76,5.66,1.58,11.41,2.85,17.17,4,7.5,1.57,15.52,1.56,22.38,5.37A19,19,0,0,1,415.25,221c-.64,7-4.55,13.06-9,18.27-6.13,7.28-13.75,13-21.21,18.85-1.74,1-1.48,3.1-1.53,4.8.17,8.69.32,17.43-.75,26.08-.48,2.77.33,5.49,1.13,8.12a87,87,0,0,1,3.61,33.48,18.48,18.48,0,0,1-2.88,9c-7.35,11.12-18.41,19.3-30.37,24.9,4,12.08,7.39,24.62,7.07,37.47.14,3.32-.78,7.2,1.74,9.89,4.37,5.57,8.64,11.81,9.17,19.09a23.33,23.33,0,0,1-5.77,15.53c-3.33,3.66-8.35,4.61-12.75,6.34-1.22,1.6-1.8,3.57-2.67,5.37-4.25,9.38-13.66,14.84-22.35,19.53-17.34,8.67-36.48,13.41-55.72,15.33-17.94,1.24-36.33.34-53.46-5.55-5.15-1.42-9.67-4.39-14.69-6.11-3.07.67-5.63,2.71-8.51,3.92-20.7,9.15-43.78,13.42-66.34,10.71C112.41,493.6,95.3,486,82.62,473.38c-8.92-8.76-14.89-20.8-15.29-33.39C67.47,427.66,72.39,415,82,407c14.22-10.58,34.12-14.76,50.63-7.1a61.63,61.63,0,0,1,10.24-26c4.26-6.39,10.08-11.48,16-16.26-1.23-4.83-2.52-9.66-2.78-14.66,0-3-2.58-4.84-4.25-7-4-4.31-6.19-9.85-9.12-14.86-2.59-3.92-1.52-8.8-1.67-13.2.69-24.79,4.32-49.89,14.08-72.85,2.06-5,5-9.62,7.72-14.3-5.28-8.62-10.76-17.59-12-27.85-.95-7.67.23-16.39,6.06-22,3.71-3.53,9.23-3,13.91-2.57,6.54.8,13.19,1.38,19.73.31.73-3.57.76-9.14,5.5-9.62,3.53-.78,5.31,2.76,7.1,5.07a32.37,32.37,0,0,0,7.15-2.6c.74-7.22,1.29-14.46,2-21.68a33,33,0,0,0-.28-8.71,51.54,51.54,0,0,0-8-3.2c-.9,7.62-1.28,15.3-2.18,22.93-.32,3.85-5.43,5.86-8.41,3.53-3.15-2.09-2.36-6.34-2.34-9.56.75-8.65,2-17.29,1.41-26-7.27-.5-14.64.87-21.84-.73-8.77-1.35-17.76-6-21.53-14.46-2.62-6.22-3.5-14.53,1.78-19.66,3.78-4.17,9.6-4.86,14.89-5.23-.07-5.49-.93-11.3,1.36-16.49,2.72-6.22,9.1-10.27,15.73-11,6.71-1.24,13.38.55,19.91,1.92C203.65,44,205.52,34.15,212.24,27.23ZM236,25.92c-9.43.44-18.26,6.71-21.33,15.69-3,7.59-.26,15.9-2.44,23.64a11.92,11.92,0,0,1-7.83-.66c-5.22-2.1-10.63-4.3-16.37-4-4.35.47-9.84,1-11.84,5.61-2.58,6.54.72,13.42,1.29,20-1.1.93-2,2.2-3.47,2.61-4.79.13-9.82-.9-14.42.83-3.12,1.24-2.55,5.26-2.15,7.91,1.61,7,9,10.36,15.52,11.19,7,1.29,14-.14,21-.11,2.5-.12,3.91,2.25,5.5,3.78,4.16,5,10.39,7.44,16.33,9.6,12.77,4.28,26.22,6,39.57,7.32,7.52.56,15.08.26,22.62.28a108.85,108.85,0,0,0,27.52-5.09,28.89,28.89,0,0,0,7.5-3.58c5.29-1.65,10.49-4.58,13.73-9.21,11.1,2.39,24,5.06,34.2-1.53,5.12-2.65,9.46-8,9.73-13.85,1.37-4.29.94-9.45-2.55-12.61-6.44-6.14-15.67-8-24.22-8.9-2.86-.39-6.8-.36-8.12-3.5-1-4.21-.91-8.92-3.78-12.46-4.19-5.37-10.66-9.77-17.67-9.75-2.28-1.57-5.24-.11-7.65.48-4.17,1.65-6.6,5.45-9.39,8.69-1.57,2.06-4.41,1-6.58,1.09-2-6-2.88-12.42-6.66-17.62a39.72,39.72,0,0,0-34.59-16.68C245.18,23.81,240.35,24.75,236,25.92ZM224.18,134.78c-.73,8-1.4,15.92-2.16,23.88a56.42,56.42,0,0,0,9.36-2c.51-2.2.68-4.55,1.78-6.56a5.48,5.48,0,0,1,8.26-.55c1.15,1.6,1.42,3.62,2,5.46A35.11,35.11,0,0,0,251,155c.52-3.78-.16-8.27,2.66-11.29,2.48-2.79,7.48-1.68,8.82,1.73.56,3.11.21,6.3.37,9.44a45.89,45.89,0,0,0,8.77.1,91.87,91.87,0,0,0,.56-15.11q-13.87-.56-27.71-1.74a21.07,21.07,0,0,1-2.19,5.22,5.37,5.37,0,0,1-8.42-1.09,30.89,30.89,0,0,1-1.41-6A40.79,40.79,0,0,0,224.18,134.78ZM284,139c-.53,5.92-1,11.86-.94,17.81,2.35.39,4.71.74,7.08,1a184.17,184.17,0,0,0-.08-19.8C288,138.32,286,138.65,284,139Zm-42.3,26.62c-.81,10.19-2.51,20.33-2.46,30.57-.76,2.72-.44,6.26-2.95,8.12-2.27,2-5.82.68-7.48-1.43-.44-12,2.23-23.83,2.35-35.78a33.62,33.62,0,0,0-10.57,2.38c-.5,4-.57,8-1.28,11.93-.57,4.17-7.33,5-8.83,1-1.13-3.31-.54-6.9-.69-10.33-2.06.8-4.09,1.65-6.13,2.5-2.77,1.39-3.36,4.86-5.77,6.58-2,.23-3.84-.64-5.72-1l-1-1.5c-5.69-.76-11.46.16-17.18-.35-3.23,0-6.55-.92-9.72-.12-4.05,2.41-4.22,7.66-4.06,11.83-.17,6.16,3.31,11.46,5.76,16.86,1.81,4,4.78,7.41,6.91,11.27,1.83,3-.68,6.09-1.81,8.83-7.21,9.08-10.53,20.58-13.65,31.58-4,13.43-5.6,27.45-6.17,41.41-.44,5.16-1.12,10.49.22,15.57a41.08,41.08,0,0,0,8.61,15.35c11.42,13,27.95,20.06,44.23,24.84,6.63,1.5,13.16,4.17,20.08,3.78,2.78,1.14,6.7,1.24,7.85,4.59.32,1.8.09,4.46-2,5.14-3.52,1-7.22.07-10.74-.51-7.78-1.3-15.32-3.61-22.9-5.73-6.14-1.8-11.86-4.75-17.81-7-3.85-2.52-8-4.58-12-6.73a17.14,17.14,0,0,0,14.9,13.88c2.47.45,5.05.69,7.36,1.77,2.42,1.81.71,4.89.19,7.2-4,.28-8,0-12,.15a82.83,82.83,0,0,1-8.61-4.75c-1.18-.69-2.36-1.36-3.55-2a53.19,53.19,0,0,0-20.71,26.81c-3.54,11.12-3.49,23.13-1.12,34.48.63,2.63,1.21,5.6,3.63,7.22,7.19-1.43,14.71-2.35,21.24-5.92,2.84-.77,5.65-2.53,8.69-2,2.56.5,2.56,3.61,3.38,5.56a39.83,39.83,0,0,0-4.62,3.7c-5.88,2.25-11.87,4.19-17.77,6.35A135.93,135.93,0,0,1,140,442.82a98.09,98.09,0,0,1-9.2-3.77c-2.93-1.69-5.33-4.14-7.83-6.38a19.38,19.38,0,0,0-2.26-3.83c.18-2,.11-4.18.94-6.1s3.47-2.4,5.34-3.25c2.41,2.22,2.7,5.66,4.27,8.38a20.07,20.07,0,0,0,3.58,3c-1-5.6-2.15-11.17-2.31-16.87.23-3.23-3.21-4.65-5.55-6-8.32-3.64-18.2-3.07-26.54.15C88.07,411,78.65,422.42,77.68,435c-.32,6.44-.58,13.43,3,19.09,3.35,8.59,10.6,15.06,18.12,20.07,8.6,6.29,19,9.9,29.41,11.69,10.86,2.18,22.06,1.63,33,.12,10-2.34,20.38-4,29.44-9,7.09-2.86,15.35-6.63,17.52-14.72,2.19-6.12-1.86-12.95,1.67-18.79,2.43.83,6,.68,7,3.6,1.91,5.53.9,11.54.61,17.26a99.32,99.32,0,0,0-5.23,10.35c11.48,4.15,23.27,8.23,35.62,8.3l.63.49c18.38,1.31,37.21-.43,54.74-6.3,6.61-1.32,12.77-4.28,18.89-7,7.05-3.51,14.51-7.29,19.2-13.86,2.63-3.74,3.89-9.43.65-13.19-3-4.13-8.37-5.42-11.91-8.93-1.51-4.4-1.52-9.25-3.67-13.46C321.93,410.33,310.93,404,300,403.21c-2.6-.48-6.1,0-7.52-2.8-2.3-3,1.11-7,4.45-6.68,10.34.2,20.84,3.72,28.55,10.78a37.63,37.63,0,0,1,11.88,21.42c.31,3.43,4,4.56,6.31,6.43,3.83,2.41,6.32,6.29,8.55,10.13,7.42.79,11.82-8,9.54-14.28-1.73-5.1-5.43-9.12-8.56-13.37-2.61-3.39-1.36-7.9-1.56-11.83.47-10-1.93-19.8-4.51-29.38a41.35,41.35,0,0,0-2.26-5.61c-6.07.55-11.76,3.3-17.87,3.34-4.45-.09-5.34-7-1.22-8.4,4.78-1.48,9.85-1.87,14.57-3.6,14.65-4.82,29.31-13,37.23-26.72,1.14-11.06.74-22.55-3.08-33.09-1.17-3.35-2.18-6.89-1.49-10.46,1.58-10.65.67-21.42,1-32.12-.25-5.17,5.34-6.85,8.82-9.24,6.07-4.08,10.94-9.68,16.15-14.77,3.53-4.14,7.63-9.79,5.53-15.47-3.54-4.48-9.47-5.78-14.86-6.39-8.92-1.22-17.65-3.47-26.41-5.49-4.38-.91-7.93-3.74-11.22-6.6a156.38,156.38,0,0,0-14-10.48c-2.76-1.51-5.75.13-8.65.11-2.93-1.62-3.09-5.48-4.35-8.27l-.62.24c-1.78-.8-3.46-2.15-5.46-2.24-2,.53-3.91,1.51-5.94,2-3.68-.26-3.71-4.67-5.49-7-2.07-1.5-4.69-1.79-7.14-2.2a155,155,0,0,0-1.6,15.81c-.74,7.1-1.8,14.16-2.44,21.27-2.09,3.17-7.91,3.66-9.08-.56-.42-3.86.35-7.73.63-11.58.8-9.32,2.31-18.63,2.19-28a28.1,28.1,0,0,0-8.17-1.42,55.2,55.2,0,0,1-.8,7.58c-1.4,2.77-5.78,4.48-8,1.71-2.43-3-1.15-7.25-1.49-10.8a23.86,23.86,0,0,0-10.13-.09c-.28,9.32-1.43,18.59-1.75,27.91.18,3-3.66,4.29-6.1,3.5-2.67-.86-3.57-3.93-3.77-6.44-.52-8.47,1.73-16.83,1.48-25.3A31,31,0,0,0,241.71,165.62Z" transform="translate(-62.16 -9.91)"/>
  <path class="cls-3" d="M236,25.92c4.31-1.17,9.14-2.11,13.49-.76a111.22,111.22,0,0,0,11.66,5.57c7.27,3.09,12.19,9.82,15.35,16.83,3.06,6.38,7.13,13.37,14.34,15.56,2.21.88,4.32-.57,6.22-1.52,5-2.23,7.56-7.18,9.65-11.92,2.41-.59,5.37-2,7.65-.48,2.93,2.88,6.37,5.21,9.17,8.22,3.88,4.62,3.63,11,5.85,16.32,2.62,3.82,7.52,5,11.85,5.75,7.37,1,14.77,2.53,21.58,5.64,4.51,2,5.81,7.25,7.89,11.29-.27,5.87-4.61,11.2-9.73,13.85-8.77.86-17.42-1.07-26-2.3a7.45,7.45,0,0,0-8.16,3.83c-3.24,4.63-8.44,7.56-13.73,9.21-6.65,1.5-13.21,3.6-20.05,4-8,.51-16,1-24.06.28-14.49-1.32-29.25-1.66-43.26-6-6.29-2-13.19-3.26-18.26-7.79-2.2-1.81-4.14-4.05-6.83-5.14C191,103,180,105.8,170.69,101.26c-3.28-1.72-7.22-4.66-6.56-8.87,2.69-2.47,6.6-2.44,9.92-3.51,1.44-.41,2.37-1.68,3.47-2.61.31-6.52-.15-13.54,3.43-19.32a14.4,14.4,0,0,1,7.12-6.32c5.74-.34,11.15,1.86,16.37,4a11.92,11.92,0,0,0,7.83.66c2.19-.93,4.8-2,5.34-4.66,1.64-6.15,1.41-12.77,4.27-18.59C224.52,35.14,229.79,29.66,236,25.92Z" transform="translate(-62.16 -9.91)"/>
  <path class="cls-4" d="M249.53,25.16a39.72,39.72,0,0,1,34.59,16.68c3.78,5.2,4.67,11.66,6.66,17.62,2.11.7,4.21,1.43,6.32,2.14-1.9.95-4,2.4-6.22,1.52-7.21-2.19-11.28-9.18-14.34-15.56-3.16-7-8.08-13.74-15.35-16.83A111.22,111.22,0,0,1,249.53,25.16Z" transform="translate(-62.16 -9.91)"/>
  <path class="cls-5" d="M214.71,41.61c3.07-9,11.9-15.25,21.33-15.69-6.25,3.74-11.52,9.22-14.16,16.08-2.86,5.82-2.63,12.44-4.27,18.59-.54,2.61-3.15,3.73-5.34,4.66C214.45,57.51,211.7,49.2,214.71,41.61Z" transform="translate(-62.16 -9.91)"/>
  <path class="cls-6" d="M314.4,49.2c7,0,13.48,4.38,17.67,9.75,2.87,3.54,2.76,8.25,3.78,12.46,1.32,3.14,5.26,3.11,8.12,3.5,8.55.93,17.78,2.76,24.22,8.9,3.49,3.16,3.92,8.32,2.55,12.61-2.08-4-3.38-9.3-7.89-11.29C356,82,348.64,80.51,341.27,79.49c-4.33-.71-9.23-1.93-11.85-5.75-2.22-5.33-2-11.7-5.85-16.32C320.77,54.41,317.33,52.08,314.4,49.2Z" transform="translate(-62.16 -9.91)"/>
  <path class="cls-7" d="M297.36,58.37c2.79-3.24,5.22-7,9.39-8.69-2.09,4.74-4.65,9.69-9.65,11.92-2.11-.71-4.21-1.44-6.32-2.14C293,59.33,295.79,60.43,297.36,58.37Z" transform="translate(-62.16 -9.91)"/>
  <path class="cls-8" d="M176.23,66.24c2-4.61,7.49-5.14,11.84-5.61A14.4,14.4,0,0,0,181,67c-3.58,5.78-3.12,12.8-3.43,19.32C177,79.66,173.65,72.78,176.23,66.24Z" transform="translate(-62.16 -9.91)"/>
  <path class="cls-9" d="M159.63,89.71c4.6-1.73,9.63-.7,14.42-.83-3.32,1.07-7.23,1-9.92,3.51-.66,4.21,3.28,7.15,6.56,8.87C180,105.8,191,103,200.62,106.37c2.69,1.09,4.63,3.33,6.83,5.14,5.07,4.53,12,5.81,18.26,7.79,14,4.31,28.77,4.65,43.26,6,8,.74,16,.23,24.06-.28,6.84-.38,13.4-2.48,20.05-4a28.89,28.89,0,0,1-7.5,3.58,108.85,108.85,0,0,1-27.52,5.09c-7.54,0-15.1.28-22.62-.28-13.35-1.33-26.8-3-39.57-7.32-5.94-2.16-12.17-4.61-16.33-9.6-1.59-1.53-3-3.9-5.5-3.78-7,0-14,1.4-21,.11-6.49-.83-13.91-4.23-15.52-11.19C157.08,95,156.51,91,159.63,89.71Z" transform="translate(-62.16 -9.91)"/>
  <path class="cls-10" d="M326.81,111.8A7.45,7.45,0,0,1,335,108c8.62,1.23,17.27,3.16,26,2.3C350.84,116.86,337.91,114.19,326.81,111.8Z" transform="translate(-62.16 -9.91)"/>
  <path class="cls-11" d="M224.18,134.78a40.79,40.79,0,0,1,8.28,1.44,30.89,30.89,0,0,0,1.41,6,5.37,5.37,0,0,0,8.42,1.09,21.07,21.07,0,0,0,2.19-5.22q13.83,1.18,27.71,1.74a91.87,91.87,0,0,1-.56,15.11,45.89,45.89,0,0,1-8.77-.1c-.16-3.14.19-6.33-.37-9.44-1.34-3.41-6.34-4.52-8.82-1.73-2.82,3-2.14,7.51-2.66,11.29a35.11,35.11,0,0,1-7.6.08c-.57-1.84-.84-3.86-2-5.46a5.48,5.48,0,0,0-8.26.55c-1.1,2-1.27,4.36-1.78,6.56a56.42,56.42,0,0,1-9.36,2C222.78,150.7,223.45,142.74,224.18,134.78Z" transform="translate(-62.16 -9.91)"/>
  <path class="cls-12" d="M284,139c2-.35,4-.68,6.06-1a184.17,184.17,0,0,1,.08,19.8c-2.37-.28-4.73-.63-7.08-1C283,150.86,283.48,144.92,284,139Z" transform="translate(-62.16 -9.91)"/>
  <path class="cls-13" d="M241.71,165.62a31,31,0,0,1,9.6-.89c.25,8.47-2,16.83-1.48,25.3.2,2.51,1.1,5.58,3.77,6.44,2.44.79,6.28-.48,6.1-3.5.32-9.32,1.47-18.59,1.75-27.91a23.86,23.86,0,0,1,10.13.09c.34,3.55-.94,7.81,1.49,10.8,2.26,2.77,6.64,1.06,8-1.71a55.2,55.2,0,0,0,.8-7.58,28.1,28.1,0,0,1,8.17,1.42c.12,9.37-1.39,18.68-2.19,28-.9.84-1.79,1.68-2.71,2.5-2.1-.32-4.19-.63-6.29-.93.21-4.31,1-8.85-.5-13-1.42-3.5-7.11-3.14-8.31.33-1.81,5.08-1.66,10.64-1.05,15.93-1.16-1.73-2.68-3.35-5-3.11-8.29-.31-16.58-.57-24.82-1.61C239.2,186,240.9,175.81,241.71,165.62Z" transform="translate(-62.16 -9.91)"/>
  <path class="cls-14" d="M220.6,169.48a33.62,33.62,0,0,1,10.57-2.38c-.12,12-2.79,23.79-2.35,35.78-.52-2.77-.7-5.58-1.12-8.36-5.37-1.69-10.88-2.87-16.39-4a115.87,115.87,0,0,0-7.64-15.88c2-.85,4.07-1.7,6.13-2.5.15,3.43-.44,7,.69,10.33,1.5,3.91,8.26,3.13,8.83-1C220,177.47,220.1,173.45,220.6,169.48Z" transform="translate(-62.16 -9.91)"/>
  <path class="cls-15" d="M300.38,171.14c2.45.41,5.07.7,7.14,2.2,1.78,2.35,1.81,6.76,5.49,7,2-.48,3.91-1.46,5.94-2,2,.09,3.68,1.44,5.46,2.24a95.57,95.57,0,0,1-11.53,3.95l-.83.32c-4.32,1.71-8.58,3.6-13,5l-.24-2.9A155,155,0,0,1,300.38,171.14Z" transform="translate(-62.16 -9.91)"/>
  <path class="cls-16" d="M197.9,181.2c2.41-1.72,3-5.19,5.77-6.58a115.87,115.87,0,0,1,7.64,15.88,127.63,127.63,0,0,1-15.95-7,8.63,8.63,0,0,1-3.18-3.36C194.06,180.56,195.94,181.43,197.9,181.2Z" transform="translate(-62.16 -9.91)"/>
  <g>
    <path class="cls-17" d="M164.3,178.21c3.17-.8,6.49.09,9.72.12,5.72.51,11.49-.41,17.18.35l1,1.5a8.63,8.63,0,0,0,3.18,3.36,127.63,127.63,0,0,0,15.95,7,75.21,75.21,0,0,1,.75,52.45c-5.77,14.88-16.77,27.07-28.89,37.15-6.77,5.1-13.38,10.57-21.11,14.17a268.24,268.24,0,0,1,2.41-42c1.36-8.61,2.76-17.37,6.63-25.27,1.13-2.74,3.64-5.82,1.81-8.83-2.13-3.86-5.1-7.22-6.91-11.27-2.45-5.4-5.93-10.7-5.76-16.86C160.08,185.87,160.25,180.62,164.3,178.21Z" transform="translate(-62.16 -9.91)"/>
    <path class="cls-17" d="M319.14,194.86A67.42,67.42,0,0,1,338,188.53,156.38,156.38,0,0,1,352,199c3.29,2.86,6.84,5.69,11.22,6.6,8.76,2,17.49,4.27,26.41,5.49,5.39.61,11.32,1.91,14.86,6.39,2.1,5.68-2,11.33-5.53,15.47-5.21,5.09-10.08,10.69-16.15,14.77-3.48,2.39-9.07,4.07-8.82,9.24-.29,10.7.62,21.47-1,32.12-.69,3.57.32,7.11,1.49,10.46,3.82,10.54,4.22,22,3.08,33.09-7.89-.68-15.7,1.2-23.6.85-18.15.43-36.71-2.25-53.09-10.42a96.64,96.64,0,0,1-20.44-14.53,77.14,77.14,0,0,1-21.18-46.06c-2.15-17.18.73-35.71,11.5-49.7,3.88-5.59,9.18-9.93,14.4-14.2.92-.82,1.81-1.66,2.71-2.5-.28,3.85-1.05,7.72-.63,11.58,1.17,4.22,7,3.73,9.08.56a54.22,54.22,0,0,0,2.59-10.44c2.43-.66,5.05-2,7.57-1,3.06,1.19,5.94,3.17,9.38,3Q317.47,197.3,319.14,194.86Z" transform="translate(-62.16 -9.91)"/>
    <path class="cls-17" d="M177.24,372.28c4-.12,8,.13,12-.15,11.46-.6,22.84,1.75,33.86,4.71s20.74,9.38,29.4,16.64c9.36,8.75,14.49,22.94,10.33,35.43-1.65,5.34-2.95,11-6.42,15.52-3.28,4.45-7.51,8.48-9.06,13.95-1.25,4.84-.35,9.88-.12,14.79a68.76,68.76,0,0,1-25.16-5.32,20.8,20.8,0,0,1-4.69-3.54c.29-5.72,1.3-11.73-.61-17.26-1-2.92-4.55-2.77-7-3.6-3.35-4.85-6.78-10.46-12.72-12.35a28.73,28.73,0,0,0-16.92.58c-.82-1.95-.82-5.06-3.38-5.56-3-.55-5.85,1.21-8.69,2-2.18.41-4.49,1.12-6.68.48-2.66-2-3.8-5.4-4.94-8.43l-.2-.67c1.88-1.52,4.4-2.91,4.73-5.55,1.32-8.55-.89-17.35,1.15-25.82C164.54,381,170.59,375.49,177.24,372.28Z" transform="translate(-62.16 -9.91)"/>
    <path class="cls-17" d="M157.8,441.73c5.9-2.16,11.89-4.1,17.77-6.35,4.55,4.53,9.78,8.75,12.3,14.85,2.85,5.54,2.93,11.87,2.94,17.94a120.2,120.2,0,0,1-26.4,2.92c0-4.91.28-9.89-.76-14.72C162.55,451.2,160.15,446.43,157.8,441.73Z" transform="translate(-62.16 -9.91)"/>
  </g>
  <path class="cls-18" d="M324.41,180.61l.62-.24c1.26,2.79,1.42,6.65,4.35,8.27,2.9,0,5.89-1.62,8.65-.11a67.42,67.42,0,0,0-18.89,6.33c-.35-2.55-.32-5.24-1.41-7.61a22.74,22.74,0,0,0-4.85-2.69A95.57,95.57,0,0,0,324.41,180.61Z" transform="translate(-62.16 -9.91)"/>
  <path class="cls-19" d="M270.08,185c1.2-3.47,6.89-3.83,8.31-.33,1.47,4.15.71,8.69.5,13a50.53,50.53,0,0,1-2.24,6.17c-2.9.2-6.25.18-7.62-2.91C268.42,195.62,268.27,190.06,270.08,185Z" transform="translate(-62.16 -9.91)"/>
  <path class="cls-20" d="M299,189.85c4.45-1.37,8.71-3.26,13-5-2.5,2.6-4.4,6.31-3.18,10,.72,3.26,4.46,3.71,7,4.91-3.44.22-6.32-1.76-9.38-3-2.52-1-5.14.3-7.57,1a54.22,54.22,0,0,1-2.59,10.44c.64-7.11,1.7-14.17,2.44-21.27Z" transform="translate(-62.16 -9.91)"/>
  <path class="cls-21" d="M312.05,184.88l.83-.32a22.74,22.74,0,0,1,4.85,2.69c1.09,2.37,1.06,5.06,1.41,7.61q-1.67,2.43-3.26,4.91c-2.55-1.2-6.29-1.65-7-4.91C307.65,191.19,309.55,187.48,312.05,184.88Z" transform="translate(-62.16 -9.91)"/>
  <g>
    <path class="cls-22" d="M211.31,190.5c5.51,1.15,11,2.33,16.39,4,.42,2.78.6,5.59,1.12,8.36,1.66,2.11,5.21,3.46,7.48,1.43,2.51-1.86,2.19-5.4,2.95-8.12,8.24,1,16.53,1.3,24.82,1.61,2.28-.24,3.8,1.38,5,3.11,1.37,3.09,4.72,3.11,7.62,2.91a50.53,50.53,0,0,0,2.24-6.17c2.1.3,4.19.61,6.29.93-5.22,4.27-10.52,8.61-14.4,14.2-10.77,14-13.65,32.52-11.5,49.7a77.14,77.14,0,0,0,21.18,46.06,96.64,96.64,0,0,0,20.44,14.53c16.38,8.17,34.94,10.85,53.09,10.42,7.9.35,15.71-1.53,23.6-.85-7.92,13.73-22.58,21.9-37.23,26.72-4.72,1.73-9.79,2.12-14.57,3.6-4.12,1.38-3.23,8.31,1.22,8.4,6.11,0,11.8-2.79,17.87-3.34a41.35,41.35,0,0,1,2.26,5.61c2.58,9.58,5,19.37,4.51,29.38.2,3.93-1,8.44,1.56,11.83,3.13,4.25,6.83,8.27,8.56,13.37,2.28,6.25-2.12,15.07-9.54,14.28-2.23-3.84-4.72-7.72-8.55-10.13-2.33-1.87-6-3-6.31-6.43a37.63,37.63,0,0,0-11.88-21.42c-7.71-7.06-18.21-10.58-28.55-10.78-3.34-.31-6.75,3.69-4.45,6.68,1.42,2.78,4.92,2.32,7.52,2.8,10.92.8,21.92,7.12,26.33,17.47,2.15,4.21,2.16,9.06,3.67,13.46,3.54,3.51,8.87,4.8,11.91,8.93,3.24,3.76,2,9.45-.65,13.19-4.69,6.57-12.15,10.35-19.2,13.86-6.12,2.75-12.28,5.71-18.89,7-8.72.58-17.45-.19-26.18-.13-10-.09-20.4.21-29.73-3.85-.23-4.91-1.13-9.95.12-14.79,1.55-5.47,5.78-9.5,9.06-13.95,3.47-4.52,4.77-10.18,6.42-15.52,4.16-12.49-1-26.68-10.33-35.43-8.66-7.26-18.37-13.72-29.4-16.64s-22.4-5.31-33.86-4.71c.52-2.31,2.23-5.39-.19-7.2-2.31-1.08-4.89-1.32-7.36-1.77-1.6-2.36-3.15-4.75-4.54-7.23l1.67.08c5.95,2.26,11.67,5.21,17.81,7,7.58,2.12,15.12,4.43,22.9,5.73,3.52.58,7.22,1.51,10.74.51,2.05-.68,2.28-3.34,2-5.14-1.15-3.35-5.07-3.45-7.85-4.59A147.22,147.22,0,0,0,206,353c-12.32-4-24.36-10.12-33.14-19.84-4.05-4.46-8.63-9.07-9.77-15.24A89.6,89.6,0,0,1,162,295.15l0-.88c7.73-3.6,14.34-9.07,21.11-14.17C195.29,270,206.29,257.83,212.06,243A75.21,75.21,0,0,0,211.31,190.5Z" transform="translate(-62.16 -9.91)"/>
    <path class="cls-22" d="M140,442.82a135.93,135.93,0,0,0,17.81-1.09c2.35,4.7,4.75,9.47,5.85,14.64,1,4.83.74,9.81.76,14.72a256.79,256.79,0,0,1-35.58-2.86C131.55,459.35,134.85,450.61,140,442.82Z" transform="translate(-62.16 -9.91)"/>
  </g>
  <path class="cls-23" d="M157.45,258.58c3.12-11,6.44-22.5,13.65-31.58-3.87,7.9-5.27,16.66-6.63,25.27a268.24,268.24,0,0,0-2.41,42l0,.88c-3.57,1.65-7.13,3.29-10.74,4.84C151.85,286,153.42,272,157.45,258.58Z" transform="translate(-62.16 -9.91)"/>
  <path class="cls-24" d="M151.28,300c3.61-1.55,7.17-3.19,10.74-4.84a89.6,89.6,0,0,0,1.08,22.72c1.14,6.17,5.72,10.78,9.77,15.24C181.65,342.83,193.69,349,206,353a147.22,147.22,0,0,1,18.41,6.58c-6.92.39-13.45-2.28-20.08-3.78-16.28-4.78-32.81-11.83-44.23-24.84a41.08,41.08,0,0,1-8.61-15.35C150.16,310.48,150.84,305.15,151.28,300Z" transform="translate(-62.16 -9.91)"/>
  <path class="cls-25" d="M166.83,349.28c4,2.15,8.18,4.21,12,6.73l-1.67-.08c1.39,2.48,2.94,4.87,4.54,7.23A17.14,17.14,0,0,1,166.83,349.28Z" transform="translate(-62.16 -9.91)"/>
  <path class="cls-26" d="M144.37,392.32a53.19,53.19,0,0,1,20.71-26.81c1.19.66,2.37,1.33,3.55,2a14.56,14.56,0,0,0-5.68,4.41c-3.55,4.85-7,10.1-7.89,16.17-1.56,10.4-2.06,21.24,1.24,31.37l.2.67A54.33,54.33,0,0,0,146.88,434c-2.42-1.62-3-4.59-3.63-7.22C140.88,415.45,140.83,403.44,144.37,392.32Z" transform="translate(-62.16 -9.91)"/>
  <path class="cls-27" d="M163,371.94a14.56,14.56,0,0,1,5.68-4.41,82.83,82.83,0,0,0,8.61,4.75c-6.65,3.21-12.7,8.68-15.06,15.83-2,8.47.17,17.27-1.15,25.82-.33,2.64-2.85,4-4.73,5.55-3.3-10.13-2.8-21-1.24-31.37C156,382,159.4,376.79,163,371.94Z" transform="translate(-62.16 -9.91)"/>
  <path class="cls-28" d="M100.43,408.21c8.34-3.22,18.22-3.79,26.54-.15,2.34,1.33,5.78,2.75,5.55,6,.16,5.7,1.35,11.27,2.31,16.87a20.07,20.07,0,0,1-3.58-3c-1.57-2.72-1.86-6.16-4.27-8.38a39.5,39.5,0,0,0-12.68-8.84c-4.6-1.87-9.65-1.86-14.53-2Z" transform="translate(-62.16 -9.91)"/>
  <path class="cls-29" d="M77.68,435c1-12.56,10.39-24,22.75-26.77l-.66.41c-4.13,2.81-8.46,5.78-10.86,10.31-2,3.31-2.44,7.19-3.23,10.9L84.59,432c-4.11,6.61-3.94,14.61-3.89,22.11C77.1,448.41,77.36,441.42,77.68,435Z" transform="translate(-62.16 -9.91)"/>
  <path class="cls-30" d="M88.91,418.93c2.4-4.53,6.73-7.5,10.86-10.31,4.88.17,9.93.16,14.53,2A39.5,39.5,0,0,1,127,419.49c-1.87.85-4.37,1.19-5.34,3.25s-.76,4.06-.94,6.1c-5.48-5.22-13.59-5.68-20.75-5.2-5.35.29-10,3.2-14.27,6.19C86.47,426.12,86.93,422.24,88.91,418.93Z" transform="translate(-62.16 -9.91)"/>
  <path class="cls-31" d="M156.5,420.15c1.14,3,2.28,6.39,4.94,8.43,2.19.64,4.5-.07,6.68-.48-6.53,3.57-14.05,4.49-21.24,5.92A54.33,54.33,0,0,1,156.5,420.15Z" transform="translate(-62.16 -9.91)"/>
  <path class="cls-32" d="M85.68,429.83c4.26-3,8.92-5.9,14.27-6.19,7.16-.48,15.27,0,20.75,5.2a19.38,19.38,0,0,1,2.26,3.83c-10.78,4.32-20.47,12.45-24.5,23.6C91.33,450,86.1,441.45,84.59,432Z" transform="translate(-62.16 -9.91)"/>
  <path class="cls-33" d="M180.19,431.68a28.73,28.73,0,0,1,16.92-.58c5.94,1.89,9.37,7.5,12.72,12.35-3.53,5.84.52,12.67-1.67,18.79a44.07,44.07,0,0,1-17.35,5.93c0-6.07-.09-12.4-2.94-17.94-2.52-6.1-7.75-10.32-12.3-14.85A39.83,39.83,0,0,1,180.19,431.68Z" transform="translate(-62.16 -9.91)"/>
  <path class="cls-34" d="M80.7,454.07c0-7.5-.22-15.5,3.89-22.11,1.51,9.49,6.74,18,13.87,24.31l.56.46a44.18,44.18,0,0,0-.2,17.41C91.3,469.13,84.05,462.66,80.7,454.07Z" transform="translate(-62.16 -9.91)"/>
  <path class="cls-35" d="M98.46,456.27c4-11.15,13.72-19.28,24.5-23.6,2.5,2.24,4.9,4.69,7.83,6.38a98.09,98.09,0,0,0,9.2,3.77c-5.14,7.79-8.44,16.53-11.16,25.41A88.61,88.61,0,0,1,99,456.73Z" transform="translate(-62.16 -9.91)"/>
  <path class="cls-36" d="M99,456.73a88.61,88.61,0,0,0,29.81,11.5c-.41,5.86-.54,11.73-.6,17.6-10.44-1.79-20.81-5.4-29.41-11.69A44.18,44.18,0,0,1,99,456.73Z" transform="translate(-62.16 -9.91)"/>
  <path class="cls-37" d="M190.81,468.17a44.07,44.07,0,0,0,17.35-5.93C206,470.33,197.73,474.1,190.64,477Q190.64,472.56,190.81,468.17Z" transform="translate(-62.16 -9.91)"/>
  <path class="cls-38" d="M212.19,474.66a99.32,99.32,0,0,1,5.23-10.35,20.8,20.8,0,0,0,4.69,3.54,68.76,68.76,0,0,0,25.16,5.32c.22,3.26.31,6.52.54,9.79C235.46,482.89,223.67,478.81,212.19,474.66Z" transform="translate(-62.16 -9.91)"/>
  <path class="cls-39" d="M128.83,468.23a256.79,256.79,0,0,0,35.58,2.86A35.57,35.57,0,0,1,161.2,486c-10.91,1.51-22.11,2.06-33-.12C128.29,480,128.42,474.09,128.83,468.23Z" transform="translate(-62.16 -9.91)"/>
  <path class="cls-40" d="M164.41,471.09a120.2,120.2,0,0,0,26.4-2.92q-.17,4.4-.17,8.79c-9.06,5-19.48,6.65-29.44,9A35.57,35.57,0,0,0,164.41,471.09Z" transform="translate(-62.16 -9.91)"/>
  <path class="cls-41" d="M247.27,473.17C256.6,477.23,267,476.93,277,477c8.73-.06,17.46.71,26.18.13-17.53,5.87-36.36,7.61-54.74,6.3l-.63-.49C247.58,479.69,247.49,476.43,247.27,473.17Z" transform="translate(-62.16 -9.91)"/>
</svg>
