<svg id="Layer_1" data-name="Layer 1" xmlns="http://www.w3.org/2000/svg" viewBox="0 0 471.64 506.66">
  <defs>
    <style>
      .cls-1 {
        fill: #091f2e;
      }

      .cls-2 {
        fill: #f7efed;
      }

      .cls-3 {
        fill: #ee4a22;
      }

      .cls-4 {
        fill: #ba3e24;
      }

      .cls-5 {
        fill: #c0bdbd;
      }
    </style>
  </defs>
  <g>
    <path class="cls-1" d="M0,0H.11L0,.1Z"/>
    <path class="cls-1" d="M216,10c13.44-1.42,27-.82,40.49-.77,28.72,1.28,57.42,9.15,81.91,24.42,9.88,5.76,18.5,13.39,26.49,21.52,7.23,9,17.59,14.71,27.32,20.66,10.31,6.27,22.14,10.53,30.68,19.35,5.68,5.67,6.68,14.64,4.09,22-2.49,6-7.85,10.31-13.51,13.16-4.72,2.57-10.07,3.5-15.06,5.35,6.81,14.29,10.07,30,13.44,45.34,4.38,21.78,7.53,43.79,10,65.87a141.5,141.5,0,0,1,1.12,21.19c-.1,2,0,4.07-.95,5.85-8.51,16.15-23.32,27.78-38.63,37.1,3.22,5.85,3.26,13.1,1.07,19.3-.86,1.8.78,3.28,1.64,4.7,6.47,8.86,10.8,19,14.49,29.31a118.38,118.38,0,0,1,5.78,30.47c11.51-3.64,24.57-3.89,35.67,1.27a40.52,40.52,0,0,1,23.47,28.25c2.71,11.17.64,23.56-6.18,32.9-7.86,11.53-20.19,18.8-32.53,24.67-19.61,8.44-40.64,13.21-61.82,15.57-11.31.59-22.61,1.43-34,1.16-21,.1-42.61-1-62-9.71-7.43,3.47-15.88,3.54-24,3.88-14.34.36-28.7.25-43-.46-1.57,0-3.36-.39-4.71.65-4.18,2.85-8.68,5.43-13.69,6.46-11.93,2-24.18,1.42-36.13-.09-5.77-.83-9.57-6.44-15.49-6.66-10.19-.86-21.07-4.83-26.79-13.81-3.47-5-3.61-11.4-2.37-17.11,2.92-8.78,9.77-15.56,17-21,1.28-1.09,3-2,3.23-3.87,2-19.29,6.78-38.17,12.23-56.74.39-2.07,2.33-4.72.11-6.36-5.38-5.66-10-12.71-10.39-20.72-.43-3.75.34-7.47.75-11.17-32.4-11.48-58.27-36.65-76.18-65.43-2.48-4.43-6-9-5.16-14.38A140.68,140.68,0,0,1,54,228c1.79-4.47.93-9.35,1.07-14,.11-9-.24-18,.86-27a226.19,226.19,0,0,1,13.79-57.25c-9.12-1.64-19.07-5-24-13.5a20,20,0,0,1-.26-9.94c1.41-4.1,4.89-7,8.1-9.73C67.91,86,84.85,79.71,99.18,69.15c5.45-3.94,8.33-10.27,12.87-15.09,12.37-13.71,28.3-23.71,45.21-30.83A196.93,196.93,0,0,1,216,10ZM136.18,48.12c-6.61,4.4-11.88,10.38-17.5,15.88-4.24,4.08-6.66,9.68-11.22,13.47-4.5,4.14-10.39,6.19-15.31,9.72A41.53,41.53,0,0,1,85,91.09c-7,2.84-12.67,8-19.45,11.28-3.68,2.09-8.37,4.13-9.63,8.55a8.53,8.53,0,0,0,6.93,4.88A21.8,21.8,0,0,0,74,118.57c3.29.12,7.68-.34,9.34,3.27,2.75,4-1.39,7.92-2.76,11.63a195.6,195.6,0,0,0-13.16,52.71c-1.92,12.19-1.58,24.56-1.47,36.85A30.22,30.22,0,0,1,64.27,234c-3.79,9.34-7,19-8.47,29,.71,3.23,2.79,6,4.45,8.78,7.33,11.05,15.36,21.77,25.13,30.82,6.07,6.75,13.6,11.92,21.1,16.94A105.53,105.53,0,0,0,122,328c4.72,2,9.4,4.32,14.58,4.81,2.51.79,5.6.94,7.16,3.42,4,5.38,9.25,9.49,14.34,13.73,2.16,1.45,1.87,4.3,1.47,6.54-2.07,3.86-7.31,2.56-10.43.8a74.66,74.66,0,0,0-12.38-11c-.33,3.66-.56,7.53,1.09,10.95,3.22,7.37,9.87,12.56,16.41,16.9l.38.71c-.16,2.16-.11,4.53-1.48,6.35-1.73,2.45-6.21.5-7.3,3.6-1.63,5.46-2.58,11.11-4.34,16.55a242,242,0,0,0-7.12,39.44c-.26,3.21-2.74,5.56-5.14,7.41-5.23,4-10.75,8.13-14,14-1.88,3.23-2.66,7.69-.1,10.79,3.47,5,9.49,6.84,15.08,8.25,0-4.77-.42-9.66,1-14.29,3.31-7.15,9.68-12.5,16.67-15.87,2.3-1.25,5.46-2.16,5.81-5.21a192.77,192.77,0,0,1,11.78-34.28c3.51-5-3.3-11.39,1.1-16a12.42,12.42,0,0,1,6.89.12,18.15,18.15,0,0,1,3.76,5,67.76,67.76,0,0,1-.73,12.73c-3.68,8.57-7.28,17.21-9.68,26.24-1.62,5.51-2.9,11.13-4.89,16.52a19.36,19.36,0,0,0-3,2.32c-7.33,2.5-15.79,6.48-18,14.6-1.49,7.65,5.11,15.27,12.84,15.32-1.2-5.8-2.37-11.9-1.11-17.78,1.14-2.61,4.26-2.18,6.58-2.46a23,23,0,0,1,3.21,2.35,40.43,40.43,0,0,0,1.64,13.4c1.09,3.7,5.28,5.84,9,5.34,5.62-.74,11.53-1.82,16.17-5.3,4.65-1.54,5.17-7.18,8.49-10.11,5-2.9,10.48-4.75,15.47-7.61A98.23,98.23,0,0,0,242,443.7c1.27-13.8,6.4-28.18,17.51-37.1,1.6-1.55,3.9-2.55,4.85-4.64.79-4.08-.33-8.16-1.89-11.9-1.28-2.24.38-4.5,1-6.67,2.5-.43,5.46-1.4,7.64.46,3.22,3.71,4.14,8.83,4.51,13.59,5.64-1.72,11.41-3.35,17.36-3.27,12.31-.1,24.81-.76,36.9,2.07,15.76,3.1,31,8.28,45.84,14.41l-.17.7c5.66,1.4,11.37,3.8,17.31,2.76,2.19-2.44,1.29-6.11,1.6-9.11-.1-7.32.26-14.67-.54-22-2.3-9.46-4.86-19-9.24-27.72-3.09-4.89-5.24-10.48-9.6-14.45-2.26,2.89-5.58,4.56-8.55,6.58-4,2.36-8.22,4.82-13,5.39a12.55,12.55,0,0,1-3.9-2.45c-.66-2.64-1-6.34,2-7.71,8.11-4.33,17.63-8.36,21.84-17.14,1.63-2.76.84-6,0-8.85-3.74,1.23-7.12,3.3-10.63,5.06a361.3,361.3,0,0,1-34.35,14.43c-3.23,1.12-6.71.74-10,.33-.23-2.57-.94-5.38.19-7.82,2.61-2.46,6.32-3.05,9.57-4.27,21.38-8.12,42.44-17.71,61-31.21,8.57-6.84,17.21-14.28,22.13-24.29.86-3.18.11-6.54,0-9.77-1.33-8-1.26-16.13-2.45-24.13-.76-4.73-.34-9.62-1.73-14.26-1.07-3.44-.79-7.09-1.41-10.6-2.35-8.46-3.13-17.26-4.95-25.83-1.15-6.86-3.75-13.37-4.77-20.26-1.29-8.18-5-15.64-7.55-23.44-.54-2.08-2-4.28-4.47-4-7.92,0-15.84.53-23.76,0-1-2.92-2.43-7.61.93-9.47a10,10,0,0,1,5.76-1.45c7.36,0,14.74.15,22.09-.43a120.16,120.16,0,0,0,13.86-3.26c4.5-1.31,9.38-3,12.26-6.91,2.49-4.46,1.82-10.72-2.24-14.06-5.43-5.61-13.35-7.21-19.75-11.32C388.8,87,384,85,379.78,82.1c-5.95-4.32-12.68-7.69-17.54-13.35-7.63-6.89-14.24-15.2-23.44-20.11l.46-.53C317.8,32.82,292,24.48,266,21.55c-14.24-1.75-28.64-1-42.95-.87C192.68,23.45,161.31,29.93,136.18,48.12Zm269.61,360a58.53,58.53,0,0,0-.42,10.34c5,.11,10.79.43,14.59-3.56,2.6.24,5.28.26,7.78,1.15a52.23,52.23,0,0,0,.58,6.71c-3.25,3.21-7.54,5-11.82,6.36-2.44-.68-5-.28-7.49-.31-5.43.24-10.87-.72-16.29-.05-2.29-2.09-5.68-2.32-8.53-3.26-8.24-1.78-15.41-6.74-23.68-8.37a17.92,17.92,0,0,0-5.73-2.86c-8.72-3-17.71-5.23-26.66-7.44-3.35-1.32-7-1.25-10.56-1.08-8.13-1.09-16.39-.64-24.57-.51-15.6.41-31.59,9.68-36.74,24.95l-.23-.84A68.1,68.1,0,0,0,253.68,457c2.12,10.71,11.68,17.88,21.15,22A140,140,0,0,0,313,487.2a59.63,59.63,0,0,0,9.43-1.21c7.45,3.17,15.74.84,23.53.63,9.66.09,19.24-1.31,28.82-2.33,7.41-1.28,14.88-2.42,22.13-4.4,4.61-.87,8.85-3,13.25-4.5,8.33-3.13,17.51-5,24.44-10.89,7.76-4.54,14.7-11.08,18.17-19.51,1-3.36,2.62-7.46.22-10.6l-.07-.25c2-2.88,1.81-6.72.86-9.94-2.85-7.12-8.43-12.8-14.73-17l-.7.07A23.44,23.44,0,0,0,426,404.21C419.23,404.26,411.36,403.63,405.79,408.12Zm-177.69,62c-6,4.14-12.95,6.86-18.92,11.08,13.59.61,27.21.43,40.82.12,2.2,0,4.31-.73,6.48-1C251,475.72,246,470,244.06,463c-.5-1.36-.65-2.94-1.79-3.93A115.09,115.09,0,0,1,228.1,470.09Z"/>
    <path class="cls-1" d="M301.17,188.21c2.7-.07,5.49-.43,8.13.32,2.08,2.34,1.73,6,3.88,8.3,2.6,2.84,6.81,3,9.79,5.21,1.34,1.77,1,4.34.59,6.4-1.88,3.39-6.58,2.57-9.64,1.6a34.61,34.61,0,0,1-12.38-12.68C299.82,194.58,300.13,191.16,301.17,188.21Z"/>
    <path class="cls-1" d="M90.55,192.62c2.87-1,6-.38,8.89,0,1.38,6.56-1.39,13.17-6.15,17.66-2.23,2.77-6.26,1.6-9.11.59,0-3-.16-6.27,2.12-8.54C89.12,199.71,87.5,194.93,90.55,192.62Z"/>
    <path class="cls-1" d="M280.4,234.52a98.19,98.19,0,0,1,17.06-.18c8.86,1.21,17.14,7.15,20.55,15.51,2.12,5.26,2.5,11.7-.66,16.64-2.18,4.1-6.14,6.88-10.28,8.74-14,6.49-29.75,9.57-45.13,7.81-4.95-.13-8.49-4-11.49-7.49-4.24-5.08-3.5-12.16-2.94-18.29,2.36-7.15,8.21-12.72,14.76-16.17A64,64,0,0,1,280.4,234.52Zm19.16,9.89c-3.07,3.4-1.45,8.83.37,12.59,1.23,3.27,6.48,5,8.25,1.24,1.6-4.51-.3-9.61-3.39-13A3.69,3.69,0,0,0,299.56,244.41ZM259.8,270.69a41.37,41.37,0,0,0-.14,5.68c2.19.36,5.39.51,5.77-2.41C265.75,270.85,262.11,270.26,259.8,270.69Z"/>
    <path class="cls-1" d="M105.36,235.23c10.13-1.46,21.76-1.46,30.16,5.22a25.63,25.63,0,0,1,10,19.53c.11,5.34.23,11.63-3.93,15.62-6.18,7-16.74,5-25,3.95A94.62,94.62,0,0,1,95,270c-4.65-2.51-6.56-8.07-6.77-13.06C87.08,246.76,95.09,236.43,105.36,235.23ZM127.29,249a4.27,4.27,0,0,0-2.28,4.95c.61,3.38,1.8,7.42,5.35,8.75,2,.85,5.42-.08,5.21-2.68a11,11,0,0,0-3-9.53C131.33,249,129.13,247.9,127.29,249Zm-31.78,9.57c-2.91,2.47,2.16,8.13,4.51,4.55,1.48-1.54.52-3.76-.11-5.45C98.44,257.6,96.57,257.2,95.51,258.53Z"/>
    <path class="cls-1" d="M178.78,286.41a113,113,0,0,1,16.86-.14c4.18.27,7.94,2.45,11,5.23,0,2.24.55,5-1.53,6.6-3.35,2.89-7.66,4.3-11.58,6.24-3.13,1.6-7.07,2.06-10.27.39a35.4,35.4,0,0,1-10.87-8.16c-1.81-1.92-1-4.79-1-7.16C173.56,287.87,176,286.49,178.78,286.41Z"/>
    <path class="cls-1" d="M187.51,313.65a15.78,15.78,0,0,1,10.76.79c4.28,1.72,9,2.72,12.69,5.59s1.17,10.41-3.86,9.51c-5.36-1.16-10.09-5.09-15.72-5.09-2.51,1.34-4.39,3.57-6.84,5-2.71.82-6.59,1-8-2-.33-2-.77-4.51.93-6A46.41,46.41,0,0,1,187.51,313.65Z"/>
    <path class="cls-1" d="M189.36,344.71c-.38-2.55-1.05-7.49,2.73-7.47a51.37,51.37,0,0,1,12.33.33c2.7,1.38,2.27,4.6,2.36,7.14-3.28,3.44-8.57,3-12.88,2.48C192.31,346.63,189.59,346.94,189.36,344.71Z"/>
  </g>
  <g>
    <path class="cls-2" d="M214.1,5.19c5.59-1,11.32-.42,16.93-1.39,23.85-.63,48,1.25,70.91,8.22,9.3,2.24,17.93,6.47,26.52,10.57a140.24,140.24,0,0,1,40.89,30.07c7.5,9.23,18.28,14.8,28.4,20.65,6.3,2.79,12,6.7,18,10A59.66,59.66,0,0,1,430.87,97.2c2.45,6.06,3.84,13.09,1.5,19.43-3.69,11.78-15.41,19-26.81,21.84,9.67,27.74,14.23,56.94,18.4,85.94q1.94,15,3.54,30c.43,5.64,1.53,11.39.13,17-.57,4.13-3.08,7.57-5.15,11.06-8.06,12.58-20.09,21.9-32.44,30,0,3.53,1.33,7,1.14,10.5-.46,3.77-2.34,8.13.42,11.48,6,8.35,9.45,18.15,13.43,27.56,2.51,8.44,5.3,17,5.53,25.87,6.8-.33,13.63-1.09,20.43-.26,10.66,2.07,21,6.83,28.43,15,7.76,8.83,12.93,20.48,12.14,32.39a37.43,37.43,0,0,1-4.51,18.92A63.82,63.82,0,0,1,443.94,478c-6.59,4.34-13.5,8.31-21,10.8-25.13,9.87-52.15,13.81-79,15.2-24.55.86-49.75-.53-73.08-8.8-4.06-.44-8,1.2-12,1.48C241.06,499.22,223,498.28,205,498c-2.92.14-6.22-.65-8.71,1.32-6.14,3.92-13.35,5.35-20.31,7-8.23.05-16.77,1.19-24.69-1.54a28.86,28.86,0,0,1-11.67-3.41c-2.6-1.37-4.91-3.61-8-3.81-7.72-.79-15.54-2.86-22-7.24-4.77-3.91-9.53-8.47-11.19-14.63-3.64-9.56.16-20.27,6.58-27.7,3.67-5,8.66-8.67,13.44-12.48,1.74-19.91,7.25-39.32,12.37-58.57-.21-1.51-1.5-2.49-2.28-3.69a38.43,38.43,0,0,1-8.8-28c-3.61-2.79-8.35-3.52-12.22-5.9C98.3,333.9,89.06,328.2,80.94,321c-6.58-6.42-13.37-12.65-19.39-19.62q-7.17-8.91-13.76-18.27c-3.67-6.5-8.78-13.14-8.29-21a156.38,156.38,0,0,1,9.18-34.39c1.68-3.37.58-7.23,1-10.83.75-5-.52-9.93-.15-14.92,1.31-15,2.84-30.07,6.59-44.7,1.78-8.26,4.64-16.21,6.75-24.37-8.51-.92-15.64-6.6-20.78-13.12a17.7,17.7,0,0,1-1-15.57c1.55-4.43,5.12-7.62,8.49-10.69,10-7.45,21-13.24,32-19,6.56-4.28,14.18-7.47,19.15-13.76,6.89-10.26,16-18.77,25.8-26.27a191.3,191.3,0,0,1,32-17.26A216.51,216.51,0,0,1,214.1,5.19ZM216,10a196.93,196.93,0,0,0-58.71,13.24c-16.91,7.12-32.84,17.12-45.21,30.83-4.54,4.82-7.42,11.15-12.87,15.09C84.85,79.71,67.91,86,53.6,96.61c-3.21,2.71-6.69,5.63-8.1,9.73a20,20,0,0,0,.26,9.94c4.89,8.53,14.84,11.86,24,13.5A226.19,226.19,0,0,0,55.93,187c-1.1,8.94-.75,18-.86,27-.14,4.66.72,9.54-1.07,14a140.68,140.68,0,0,0-9.61,34.06c-.8,5.39,2.68,9.95,5.16,14.38,17.91,28.78,43.78,54,76.18,65.43-.41,3.7-1.18,7.42-.75,11.17.4,8,5,15.06,10.39,20.72,2.22,1.64.28,4.29-.11,6.36C129.81,398.71,125,417.59,123,436.88c-.23,1.83-2,2.78-3.23,3.87-7.23,5.45-14.08,12.23-17,21-1.24,5.71-1.1,12.15,2.37,17.11,5.72,9,16.6,12.95,26.79,13.81,5.92.22,9.72,5.83,15.49,6.66,12,1.51,24.2,2.11,36.13.09,5-1,9.51-3.61,13.69-6.46,1.35-1,3.14-.61,4.71-.65,14.33.71,28.69.82,43,.46,8.09-.34,16.54-.41,24-3.88,19.4,8.73,41,9.81,62,9.71,11.35.27,22.65-.57,34-1.16,21.18-2.36,42.21-7.13,61.82-15.57,12.34-5.87,24.67-13.14,32.53-24.67,6.82-9.34,8.89-21.73,6.18-32.9A40.52,40.52,0,0,0,442,396.06c-11.1-5.16-24.16-4.91-35.67-1.27a118.38,118.38,0,0,0-5.78-30.47c-3.69-10.27-8-20.45-14.49-29.31-.86-1.42-2.5-2.9-1.64-4.7,2.19-6.2,2.15-13.45-1.07-19.3,15.31-9.32,30.12-20.95,38.63-37.1,1-1.78.85-3.89.95-5.85a141.5,141.5,0,0,0-1.12-21.19c-2.47-22.08-5.62-44.09-10-65.87-3.37-15.38-6.63-31.05-13.44-45.34,5-1.85,10.34-2.78,15.06-5.35,5.66-2.85,11-7.18,13.51-13.16,2.59-7.34,1.59-16.31-4.09-22-8.54-8.82-20.37-13.08-30.68-19.35-9.73-5.95-20.09-11.61-27.32-20.66-8-8.13-16.61-15.76-26.49-21.52C313.88,18.37,285.18,10.5,256.46,9.22,243,9.17,229.41,8.57,216,10Z"/>
    <path class="cls-2" d="M136.18,48.12c25.13-18.19,56.5-24.67,86.83-27.44,14.31-.1,28.71-.88,42.95.87,26,2.93,51.84,11.27,73.3,26.56l-.46.53C332.28,56.52,325,64.08,315.92,69c-7.3,4.5-15.49,7.17-23.19,10.84-6.93,3.35-14.52,5.45-20.74,10.14-7.3,5.5-15.88,9.16-22.6,15.44-3.18,2.84-6.49,5.53-9.71,8.32-3.67,3.14-6.11,7.37-8.69,11.38-2.35,3.92-4.74,8.15-4.81,12.85-.07,7.89-.3,16,2.35,23.53,3.46,9.91,9.55,18.74,16.62,26.43a89,89,0,0,0,22,15.15c8.16,4.33,16.29,8.76,24.93,12.05,16.5,6.8,33,13.62,48.91,21.79,3.58,1.74,7.35,3.23,10.52,5.7,4.28,3.33,6.83,8.45,11.52,11.31,5.54,3.45,11.12,8,18,8,6,.1,12.08.24,18.11-.14,4.22-.22,8.18-1.78,12.29-2.62.13,3.23.88,6.59,0,9.77-4.92,10-13.56,17.45-22.13,24.29-18.56,13.5-39.62,23.09-61,31.21-3.25,1.22-7,1.81-9.57,4.27-1.13,2.44-.42,5.25-.19,7.82,3.31.41,6.79.79,10-.33a361.3,361.3,0,0,0,34.35-14.43c3.51-1.76,6.89-3.83,10.63-5.06.84,2.86,1.63,6.09,0,8.85-4.21,8.78-13.73,12.81-21.84,17.14-2.94,1.37-2.64,5.07-2,7.71a12.55,12.55,0,0,0,3.9,2.45c.9,4.36.6,9,2.51,13.11,3.51,6.4,11.53,8.59,14.8,15.16,4.67,8.94,6.9,19.58,4.85,29.54-14.82-6.13-30.08-11.31-45.84-14.41-12.09-2.83-24.59-2.17-36.9-2.07-6-.08-11.72,1.55-17.36,3.27-.37-4.76-1.29-9.88-4.51-13.59-2.18-1.86-5.14-.89-7.64-.46-.58,2.17-2.24,4.43-1,6.67,1.56,3.74,2.68,7.82,1.89,11.9-.95,2.09-3.25,3.09-4.85,4.64-11.11,8.92-16.24,23.3-17.51,37.1a98.23,98.23,0,0,1-28.92,22.49c-5,2.86-10.5,4.71-15.47,7.61-3.32,2.93-3.84,8.57-8.49,10.11-7.79-.41-16.24,1-23.47-2.5-2.15-3.2-1.7-7.46-3.3-10.94a23,23,0,0,0-3.21-2.35c-1.32-1.14-4-1.92-3.42-4.11a16.36,16.36,0,0,1,3.14-5.57,19.36,19.36,0,0,1,3-2.32A34.4,34.4,0,0,1,172,450.89c2.88-10.21,3.5-20.85,4.5-31.37.67-6.25,3.46-12.77.66-18.89a18.15,18.15,0,0,0-3.76-5,12.42,12.42,0,0,0-6.89-.12c-4.4,4.63,2.41,11-1.1,16a192.77,192.77,0,0,0-11.78,34.28c-.35,3-3.51,4-5.81,5.21-7,3.37-13.36,8.72-16.67,15.87-1.14,1.88-1.7,4.88-4.31,5.15-2.16-7.76,2.83-14.94,7.6-20.56,3.5-4.45,8.79-8.1,9.74-14,.79-5.79.56-11.67,1.48-17.45,1.82-11.48,2.69-23.08,4.4-34.57,2-1.54,4.44-2.95,5.14-5.54.36-1.71-.24-3.43-.65-5.07l-.38-.71c-3.4-6.47-10.69-11.18-10.59-19.15l5.47,2.35c3.12,1.76,8.36,3.06,10.43-.8.4-2.24.69-5.09-1.47-6.54-5.09-4.24-10.37-8.35-14.34-13.73-1.56-2.48-4.65-2.63-7.16-3.42-7.18-4.86-14.05-10.17-21.26-15-13-9.07-24-20.79-34.33-32.73a190.13,190.13,0,0,1-14.88-17.22c-1.41-1.72-.82-4-.52-6,.76-3.93,1.62-7.84,2.4-11.77,1.26-6.55,3.82-12.78,4.85-19.38,1.46-.76,2.89-1.59,4.31-2.42a198.69,198.69,0,0,0,34.16-25c8-7.66,16.48-14.91,23.6-23.48C140,173.76,145.28,167.58,148,160c2-6.5.95-13.35.94-20,.29-13.89-6.88-26.46-14.13-37.81-5.11-6.76-8.22-14.69-11.41-22.47-2.06-5.06-4.77-10.1-4.75-15.72C124.3,58.5,129.57,52.52,136.18,48.12ZM280.4,234.52a64,64,0,0,0-18.13,6.57c-6.55,3.45-12.4,9-14.76,16.17-.56,6.13-1.3,13.21,2.94,18.29,3,3.48,6.54,7.36,11.49,7.49,15.38,1.76,31.12-1.32,45.13-7.81,4.14-1.86,8.1-4.64,10.28-8.74,3.16-4.94,2.78-11.38.66-16.64-3.41-8.36-11.69-14.3-20.55-15.51A98.19,98.19,0,0,0,280.4,234.52Zm-175,.71c-10.27,1.2-18.28,11.53-17.12,21.75.21,5,2.12,10.55,6.77,13.06a94.62,94.62,0,0,0,21.64,9.51c8.22,1.09,18.78,3.1,25-3.95,4.16-4,4-10.28,3.93-15.62a25.63,25.63,0,0,0-10-19.53C127.12,233.77,115.49,233.77,105.36,235.23Zm83.15,3.39c-6.51,1-13.48,2.73-18.11,7.79-4.83,5-6.13,12.53-4.79,19.18.53,2.47,3.08,3.59,5.16,4.5A55.22,55.22,0,0,0,191,273.71c7.77-.19,16,.9,23.22-2.71a7.13,7.13,0,0,0,4.49-7.84c-1.52-8.94-7.17-17.33-15.45-21.3C198.68,239.74,193.63,237.85,188.51,238.62Zm-9.73,47.79c-2.75.08-5.22,1.46-7.41,3,0,2.37-.83,5.24,1,7.16a35.4,35.4,0,0,0,10.87,8.16c3.2,1.67,7.14,1.21,10.27-.39,3.92-1.94,8.23-3.35,11.58-6.24,2.08-1.57,1.5-4.36,1.53-6.6-3-2.78-6.78-5-11-5.23A113,113,0,0,0,178.78,286.41Zm8.73,27.24a46.41,46.41,0,0,0-10.06,7.79c-1.7,1.51-1.26,4-.93,6,1.43,3,5.31,2.82,8,2,2.45-1.44,4.33-3.67,6.84-5,5.63,0,10.36,3.93,15.72,5.09,5,.9,7.71-6.59,3.86-9.51s-8.41-3.87-12.69-5.59A15.78,15.78,0,0,0,187.51,313.65Zm1.85,31.06c.23,2.23,2.95,1.92,4.54,2.48,4.31.47,9.6,1,12.88-2.48-.09-2.54.34-5.76-2.36-7.14a51.37,51.37,0,0,0-12.33-.33C188.31,337.22,189,342.16,189.36,344.71Z"/>
    <path class="cls-2" d="M299.56,244.41a3.69,3.69,0,0,1,5.23.81c3.09,3.41,5,8.51,3.39,13-1.77,3.75-7,2-8.25-1.24C298.11,253.24,296.49,247.81,299.56,244.41Z"/>
    <path class="cls-2" d="M127.29,249c1.84-1.06,4,0,5.31,1.49a11,11,0,0,1,3,9.53c.21,2.6-3.24,3.53-5.21,2.68-3.55-1.33-4.74-5.37-5.35-8.75A4.27,4.27,0,0,1,127.29,249Z"/>
    <path class="cls-2" d="M95.51,258.53c1.06-1.33,2.93-.93,4.4-.9.63,1.69,1.59,3.91.11,5.45C97.67,266.66,92.6,261,95.51,258.53Z"/>
    <path class="cls-2" d="M259.8,270.69c2.31-.43,5.95.16,5.63,3.27-.38,2.92-3.58,2.77-5.77,2.41A41.37,41.37,0,0,1,259.8,270.69Z"/>
    <path class="cls-2" d="M405.79,408.12c5.57-4.49,13.44-3.86,20.2-3.91a23.44,23.44,0,0,1,12.38,3.06A28.31,28.31,0,0,0,420,414.9c-3.8,4-9.55,3.67-14.59,3.56A58.53,58.53,0,0,1,405.79,408.12Z"/>
    <path class="cls-2" d="M256.25,430.19c5.15-15.27,21.14-24.54,36.74-24.95,8.18-.13,16.44-.58,24.57.51,5,6.18,12.38,10.07,16.72,16.88,6.08,8.85,13.54,18.07,13.53,29.35a62.73,62.73,0,0,1-.54,12c-.23.55-.7,1.66-.94,2.21-6.78,0-13.55.27-20.33.15-9-.13-18.07.65-26.94-1.16-7.41-1.43-14.25-4.79-20.88-8.29-7.43-4-13-10.52-18.08-17.09C257.82,437.08,257,433.58,256.25,430.19Z"/>
    <path class="cls-2" d="M360.51,417.13c8.27,1.63,15.44,6.59,23.68,8.37,2.85.94,6.24,1.17,8.53,3.26,3,4.16,6.36,8.08,9.29,12.3,2.72,3.88,3.7,8.58,5.08,13a159.49,159.49,0,0,1-24.9,6.08l-.8.2c.28-6.44-.6-13.16-3.81-18.85C372.93,432.75,367.64,424.14,360.51,417.13Z"/>
    <path class="cls-2" d="M416.5,429.12c4.28-1.37,8.57-3.15,11.82-6.36,5.66.16,11.54.74,16.63,3.43,3.58,1.78,5.12,5.72,7.22,8.88-5,6.11-13.13,7.56-20,10.56C428.41,438.94,423.89,432.14,416.5,429.12Z"/>
  </g>
  <g>
    <path class="cls-3" d="M315.92,69c9.11-4.87,16.36-12.43,22.88-20.31,9.2,4.91,15.81,13.22,23.44,20.11,4.86,5.66,11.59,9,17.54,13.35,4.24,2.93,9,4.94,13.39,7.67,6.4,4.11,14.32,5.71,19.75,11.32,4.06,3.34,4.73,9.6,2.24,14.06-2.88,4-7.76,5.6-12.26,6.91A120.16,120.16,0,0,1,389,125.32c-7.35.58-14.73.41-22.09.43a10,10,0,0,0-5.76,1.45c-3.36,1.86-1.92,6.55-.93,9.47,7.92.52,15.84,0,23.76,0,2.44-.31,3.93,1.89,4.47,4,2.56,7.8,6.26,15.26,7.55,23.44,1,6.89,3.62,13.4,4.77,20.26,1.82,8.57,2.6,17.37,4.95,25.83.62,3.51.34,7.16,1.41,10.6,1.39,4.64,1,9.53,1.73,14.26,1.19,8,1.12,16.16,2.45,24.13-4.11.84-8.07,2.4-12.29,2.62-6,.38-12.08.24-18.11.14-6.84-.07-12.42-4.58-18-8-4.69-2.86-7.24-8-11.52-11.31-3.17-2.47-6.94-4-10.52-5.7-15.88-8.17-32.41-15-48.91-21.79-8.64-3.29-16.77-7.72-24.93-12.05a89,89,0,0,1-22-15.15c-7.07-7.69-13.16-16.52-16.62-26.43-2.65-7.56-2.42-15.64-2.35-23.53.07-4.7,2.46-8.93,4.81-12.85,2.58-4,5-8.24,8.69-11.38,3.22-2.79,6.53-5.48,9.71-8.32,6.72-6.28,15.3-9.94,22.6-15.44,6.22-4.69,13.81-6.79,20.74-10.14C300.43,76.12,308.62,73.45,315.92,69ZM301.17,188.21c-1,2.95-1.35,6.37.37,9.15A34.61,34.61,0,0,0,313.92,210c3.06,1,7.76,1.79,9.64-1.6.41-2.06.75-4.63-.59-6.4-3-2.24-7.19-2.37-9.79-5.21-2.15-2.32-1.8-6-3.88-8.3C306.66,187.78,303.87,188.14,301.17,188.21Z"/>
    <path class="cls-3" d="M107.46,77.47c4.56-3.79,7-9.39,11.22-13.47,0,5.62,2.69,10.66,4.75,15.72,3.19,7.78,6.3,15.71,11.41,22.47,7.25,11.35,14.42,23.92,14.13,37.81,0,6.67,1,13.52-.94,20-2.75,7.56-8.06,13.74-13.15,19.81-7.12,8.57-15.57,15.82-23.6,23.48a198.69,198.69,0,0,1-34.16,25A204.33,204.33,0,0,1,75.93,180c.31-5.61-.05-11.29,1.21-16.81,1.66-7.52,2.89-15.12,4.24-22.69.89-5.29,3.71-10.1,4.05-15.48-.07-2.79-1.23-6.77-4.56-7-6-.81-12.07-1.19-18.05-2.23a8.53,8.53,0,0,1-6.93-4.88c1.26-4.42,6-6.46,9.63-8.55C72.3,99.11,78,93.93,85,91.09a41.53,41.53,0,0,0,7.18-3.9C97.07,83.66,103,81.61,107.46,77.47ZM90.55,192.62c-3,2.31-1.43,7.09-4.25,9.69-2.28,2.27-2.14,5.56-2.12,8.54,2.85,1,6.88,2.18,9.11-.59,4.76-4.49,7.53-11.1,6.15-17.66C96.51,192.24,93.42,191.67,90.55,192.62Z"/>
    <path class="cls-3" d="M366.53,347.45c3-2,6.29-3.69,8.55-6.58,4.36,4,6.51,9.56,9.6,14.45,4.38,8.75,6.94,18.26,9.24,27.72.8,7.29.44,14.64.54,22-.31,3,.59,6.67-1.6,9.11-5.94,1-11.65-1.36-17.31-2.76l.17-.7c2-10-.18-20.6-4.85-29.54-3.27-6.57-11.29-8.76-14.8-15.16-1.91-4.1-1.61-8.75-2.51-13.11C358.31,352.27,362.48,349.81,366.53,347.45Z"/>
    <path class="cls-3" d="M317.56,405.75c3.54-.17,7.21-.24,10.56,1.08,8.95,2.21,17.94,4.41,26.66,7.44a17.92,17.92,0,0,1,5.73,2.86c7.13,7,12.42,15.62,17.07,24.4,3.21,5.69,4.09,12.41,3.81,18.85-8.15,2.09-16.52,3-24.82,4.22a27.47,27.47,0,0,1-9.3-.6,62.73,62.73,0,0,0,.54-12c0-11.28-7.45-20.5-13.53-29.35C329.94,415.82,322.59,411.93,317.56,405.75Z"/>
    <path class="cls-3" d="M438.37,407.27l.7-.07c6.3,4.2,11.88,9.88,14.73,17,.95,3.22,1.16,7.06-.86,9.94l-.29.44-.48.49c-2.1-3.16-3.64-7.1-7.22-8.88-5.09-2.69-11-3.27-16.63-3.43a52.23,52.23,0,0,1-.58-6.71c-2.5-.89-5.18-.91-7.78-1.15A28.31,28.31,0,0,1,438.37,407.27Z"/>
    <path class="cls-3" d="M392.72,428.76c5.42-.67,10.86.29,16.29.05,2.48,0,5.05-.37,7.49.31,7.39,3,11.91,9.82,15.65,16.51l-.6.22a180.33,180.33,0,0,1-24.46,8.25c-1.38-4.46-2.36-9.16-5.08-13C399.08,436.84,395.74,432.92,392.72,428.76Z"/>
  </g>
  <g>
    <path class="cls-4" d="M62.82,115.8c6,1,12,1.42,18.05,2.23,3.33.2,4.49,4.18,4.56,7-.34,5.38-3.16,10.19-4.05,15.48-1.35,7.57-2.58,15.17-4.24,22.69-1.26,5.52-.9,11.2-1.21,16.81a204.33,204.33,0,0,0,1.19,48.3c-1.42.83-2.85,1.66-4.31,2.42-2.79,1.23-5.68,2.22-8.54,3.28A30.22,30.22,0,0,0,65.94,223c-.11-12.29-.45-24.66,1.47-36.85a195.6,195.6,0,0,1,13.16-52.71c1.37-3.71,5.51-7.58,2.76-11.63-1.66-3.61-6-3.15-9.34-3.27A21.8,21.8,0,0,1,62.82,115.8Z"/>
    <path class="cls-4" d="M452.65,434.58l.29-.44.07.25Z"/>
    <path class="cls-4" d="M407.09,454.1a180.33,180.33,0,0,0,24.46-8.25c2.45,5.91,2.38,12.39,3.07,18.65-6.93,5.92-16.11,7.76-24.44,10.89-4.4,1.54-8.64,3.63-13.25,4.5C404.83,474,408.57,463.77,407.09,454.1Z"/>
    <path class="cls-4" d="M356.57,464.6c8.3-1.24,16.67-2.13,24.82-4.22l.8-.2c-.07,4.62.62,9.47-1.2,13.86-1.64,3.65-4.06,6.87-6.19,10.25-9.58,1-19.16,2.42-28.82,2.33-7.79.21-16.08,2.54-23.53-.63,9.37-4.46,19.46-9.79,23.88-19.78.24-.55.71-1.66.94-2.21A27.47,27.47,0,0,0,356.57,464.6Z"/>
  </g>
  <g>
    <path class="cls-5" d="M64.27,234c2.86-1.06,5.75-2,8.54-3.28-1,6.6-3.59,12.83-4.85,19.38-.78,3.93-1.64,7.84-2.4,11.77-.3,2-.89,4.27.52,6A190.13,190.13,0,0,0,81,285.06c10.36,11.94,21.29,23.66,34.33,32.73,7.21,4.82,14.08,10.13,21.26,15-5.18-.49-9.86-2.85-14.58-4.81a105.53,105.53,0,0,1-15.49-8.43c-7.5-5-15-10.19-21.1-16.94-9.77-9.05-17.8-19.77-25.13-30.82-1.66-2.81-3.74-5.55-4.45-8.78C57.28,253,60.48,243.32,64.27,234Z"/>
    <path class="cls-5" d="M188.51,238.62c5.12-.77,10.17,1.12,14.74,3.24,8.28,4,13.93,12.36,15.45,21.3a7.13,7.13,0,0,1-4.49,7.84c-7.23,3.61-15.45,2.52-23.22,2.71a55.22,55.22,0,0,1-20.22-3.62c-2.08-.91-4.63-2-5.16-4.5-1.34-6.65,0-14.18,4.79-19.18C175,241.35,182,239.66,188.51,238.62Z"/>
    <path class="cls-5" d="M136.71,346.22a74.66,74.66,0,0,1,12.38,11l-5.47-2.35c-.1,8,7.19,12.68,10.59,19.15-6.54-4.34-13.19-9.53-16.41-16.9C136.15,353.75,136.38,349.88,136.71,346.22Z"/>
    <path class="cls-5" d="M154.59,374.78c.41,1.64,1,3.36.65,5.07-.7,2.59-3.16,4-5.14,5.54-1.71,11.49-2.58,23.09-4.4,34.57-.92,5.78-.69,11.66-1.48,17.45-.95,5.95-6.24,9.6-9.74,14-4.77,5.62-9.76,12.8-7.6,20.56,2.61-.27,3.17-3.27,4.31-5.15-1.42,4.63-1,9.52-1,14.29-5.59-1.41-11.61-3.26-15.08-8.25-2.56-3.1-1.78-7.56.1-10.79,3.25-5.86,8.77-10,14-14,2.4-1.85,4.88-4.2,5.14-7.41a242,242,0,0,1,7.12-39.44c1.76-5.44,2.71-11.09,4.34-16.55,1.09-3.1,5.57-1.15,7.3-3.6C154.48,379.31,154.43,376.94,154.59,374.78Z"/>
    <path class="cls-5" d="M177.2,400.63c2.8,6.12,0,12.64-.66,18.89-1,10.52-1.62,21.16-4.5,31.37a34.4,34.4,0,0,0-10.14,5.23c2-5.39,3.27-11,4.89-16.52,2.4-9,6-17.67,9.68-26.24A67.76,67.76,0,0,0,177.2,400.63Z"/>
    <path class="cls-5" d="M253.68,457A68.1,68.1,0,0,1,256,429.35l.23.84c.73,3.39,1.57,6.89,3.85,9.63,5.07,6.57,10.65,13.12,18.08,17.09,6.63,3.5,13.47,6.86,20.88,8.29,8.87,1.81,18,1,26.94,1.16,6.78.12,13.55-.13,20.33-.15-4.42,10-14.51,15.32-23.88,19.78A59.63,59.63,0,0,1,313,487.2,140,140,0,0,1,274.83,479C265.36,474.9,255.8,467.73,253.68,457Z"/>
    <path class="cls-5" d="M452.17,435.07l.48-.49.36-.19c2.4,3.14.8,7.24-.22,10.6-3.47,8.43-10.41,15-18.17,19.51-.69-6.26-.62-12.74-3.07-18.65l.6-.22C439,442.63,447.17,441.18,452.17,435.07Z"/>
    <path class="cls-5" d="M382.19,460.18a159.49,159.49,0,0,0,24.9-6.08c1.48,9.67-2.26,19.9-10.16,25.79-7.25,2-14.72,3.12-22.13,4.4,2.13-3.38,4.55-6.6,6.19-10.25C382.81,469.65,382.12,464.8,382.19,460.18Z"/>
    <path class="cls-5" d="M140.87,473c2.24-8.12,10.7-12.1,18-14.6a16.36,16.36,0,0,0-3.14,5.57c-.53,2.19,2.1,3,3.42,4.11-2.32.28-5.44-.15-6.58,2.46-1.26,5.88-.09,12,1.11,17.78C146,488.31,139.38,480.69,140.87,473Z"/>
    <path class="cls-5" d="M228.1,470.09a115.09,115.09,0,0,0,14.17-11c1.14,1,1.29,2.57,1.79,3.93,1.9,7,6.94,12.71,12.42,17.26-2.17.29-4.28,1-6.48,1-13.61.31-27.23.49-40.82-.12C215.15,477,222.06,474.23,228.1,470.09Z"/>
    <path class="cls-5" d="M162.39,470.47c1.6,3.48,1.15,7.74,3.3,10.94,7.23,3.55,15.68,2.09,23.47,2.5-4.64,3.48-10.55,4.56-16.17,5.3-3.68.5-7.87-1.64-9-5.34A40.43,40.43,0,0,1,162.39,470.47Z"/>
  </g>
</svg>
