<svg id="Layer_1" data-name="Layer 1" xmlns="http://www.w3.org/2000/svg" viewBox="0 0 486.29 504.2">
  <defs>
    <style>
      .cls-1 {
        fill: #b94127;
      }

      .cls-2 {
        fill: #f7efed;
      }

      .cls-3 {
        fill: #091f2e;
      }

      .cls-4 {
        fill: #ee4c24;
      }

      .cls-5 {
        fill: #fbc4bf;
      }

      .cls-6 {
        fill: #bfbcbd;
      }

      .cls-7 {
        fill: #de2830;
      }
    </style>
  </defs>
  <g>
    <path class="cls-1" d="M0,0H.25L0,.25Z"/>
    <path class="cls-1" d="M112.46,117.18c1.48-4.61,2.74-9.37,5.31-13.52-.67,11.93-3.52,23.57-6.23,35.16s-3.61,23.23-6.39,34.66c-1.52,6.55-1.63,13.31-2.84,19.91-2.24,13.15-2.64,26.52-4.55,39.7-3.36-1.36-6.75-2.61-10.05-4.1.14-12,3.08-23.58,5.13-35.3,2-8.47,3.19-17.12,5.45-25.54,2.35-8.83,4.06-17.82,6.5-26.62C107.26,133.38,110.18,125.38,112.46,117.18Z"/>
    <path class="cls-1" d="M102.6,372.65c2.48-9.08,5.46-18.46,11.44-25.88-2.44,5.62-5,11.27-6.2,17.31C106.39,371,106.55,378,106.61,385a51.51,51.51,0,0,0,3.61,19.53,9.76,9.76,0,0,0,4.17,5l.8.45c-5,.65-9.44,3.31-13.76,5.77-3-9.34-1.84-19.22-2.06-28.85C99.22,382,101.58,377.43,102.6,372.65Z"/>
    <path class="cls-1" d="M41.82,415.83a14.94,14.94,0,0,1,4.78-4.48l-.87,1.71c-1.53,3.21-3.67,6.28-4,9.93-.49,4.7.12,9.42.13,14.13l-.37.72c-4.33,5.91-4,13.43-3.88,20.39-5-6.73-3.26-15.45-3.46-23.24C33.72,427.76,37.79,421.45,41.82,415.83Z"/>
    <path class="cls-1" d="M59.41,463c10.5,4.14,20.89,9.29,32.28,10.36a20.21,20.21,0,0,0,12.38,11.51c-13.92-1.41-28.17-2.45-41.42-7.27A60.26,60.26,0,0,1,59.41,463Z"/>
    <path class="cls-1" d="M122.1,474.19a156.42,156.42,0,0,0,38.34-8.32c8.58,6,19,10.24,29.61,8.46-7.1,2.17-13.44,6.31-20.74,7.87-9.93,2.79-20.28,5-30.64,4.2C133,482.58,127.55,478.35,122.1,474.19Z"/>
  </g>
  <g>
    <path class="cls-2" d="M119.55,4.65c12-1.69,23.54,3.2,33.63,9.17,6.72,3.57,13.13,7.73,20.06,10.92,1.07.39,2.22,1.18,3.4.77,24.69-10.85,51.54-16.33,78.41-17.59,31.09-1.35,62.24,3.24,92.09,11.83,3.68,1,7.23,2.6,11,3.09,9.9.38,19.7-2.63,28.25-7.49,5.67-3,12.33-5.86,18.79-3.79,9,1.74,15.68,9.32,18.57,17.7,5.43,16,4.43,33.23,2.2,49.7-.42,3.85-1.44,7.81-.46,11.64A434.36,434.36,0,0,1,446.77,183c5.53,13.18,10.21,26.86,11.77,41.13.42,3.67-.82,7.18-1.52,10.72,5.3.4,10.92.53,15.56,3.51,6.46,4,11.59,10.71,12.93,18.31,2.24,8-.71,16.35-4.3,23.51-2.82,6-9,9.12-13.35,13.76-4.42,3.9-8.9,7.72-13.36,11.56-2.15,1.89-4,4.31-6.72,5.36a11.35,11.35,0,0,1-12.17-2.43c-4-4-7.68-8.18-11.57-12.21C419.17,302.69,412.2,307,406,312.07c-1.24.71-.68,2.28-.59,3.4,1.5,7.36,2.35,15.38-.72,22.47-.9,2.83-2.7,5.28-3.58,8.11-.07,3.32,1.31,6.42,2.22,9.56a192.23,192.23,0,0,1,7.8,65.37c.24,7.53-1.56,15.1-.78,22.59,7.19,6.33,11.66,15.37,13.19,24.75.93,9-3.36,18.21-10.43,23.8-6.35,5.56-15,7.08-23.08,8.11-9,0-18,.66-26.9-1.14-3.9-.34-7.69-2.5-11.62-1.73-8.61,3.73-18.1,5-27.42,5.07-9.55,1.68-19.32,1.28-29,1.08-10.64-1.74-21.66-2.58-31.75-6.76-2.79-1.08-5.22-3.39-8.37-3.3-16.64-.6-33.31-.25-50-.33-7.69,0-15.72-.06-22.88,3.13a144.4,144.4,0,0,1-29.7,6.37c-4.37,1.34-9,.73-13.47,1.24-7.73,1-15.46-.51-23.21-.34C91.9,500,66.49,500,44.68,488.32c-20.09-10.06-32.63-33.85-28.24-56.08a83,83,0,0,1,8.47-22.36c8.27-13.2,22.82-22,38.16-24.07a77.4,77.4,0,0,1,19.23.86c1.39-17.48,7.15-34.72,17.36-49.05,2.71-4.19,6.29-7.72,9.14-11.8-1.27-6.11-4-12.35-2.48-18.69a79.47,79.47,0,0,1,3.17-15.49c.14-1.27,1-2.89,0-4-13.66-9.83-27-20.24-38.55-32.59-3.39-3.72-2.49-9.05-2.34-13.63A702.26,702.26,0,0,1,97.93,110c1.16-3.38,2.43-6.73,3.34-10.19-3.44-12.76-7-25.61-8-38.87a77.13,77.13,0,0,1,3-33.78C100,16.62,108.52,7.45,119.55,4.65Zm-5,7c-9.78,5.49-15,16.5-16.29,27.28-2.64,20.32,2,40.67,7.71,60.07-.25,4.35-2.38,8.37-3.61,12.51a689.81,689.81,0,0,0-29,129.55c-.19,3.12-.58,6.34.17,9.42,1,2.12,2.91,3.66,4.58,5.28a264.54,264.54,0,0,0,37.9,30.57c-2.68,8.33-5.38,16.83-5.42,25.68.13,5.22,2,10.16,4.3,14.77a95.08,95.08,0,0,0-19.93,28.32,105.17,105.17,0,0,0-8.49,37.61A50.78,50.78,0,0,0,70,390.4c-11.68-.67-23.16,4.24-32,11.62-9.35,7.78-14.62,19.41-16.6,31.23-2.19,7.91-.58,16.17,1.8,23.83a48.35,48.35,0,0,0,25,27.64,92.65,92.65,0,0,0,26.94,8.74C89,495.77,103,497.35,117,498.65c9.69.2,19.38.26,29.07,0,13.53-1.27,27.05-3.77,39.72-8.8,13.23-2.58,26.8-2,40.22-2.08,9.7-.28,19.35.83,29.05.77,3.72-.34,6.62,2.31,9.84,3.69,9.51,4.16,20,5,30.13,6.36,9.65.14,19.37.5,29-.86,9.6-.33,19.88-.93,28.13-6.42,12.35,4.91,25.87,4.46,38.91,4.07,6.8-.91,14-2.44,19.29-7.05a22.52,22.52,0,0,0,7.86-22.77c-2.29-7.66-6.09-15.58-13.37-19.62,1.32-18.15,2.49-36.4.92-54.58-1.63-15.47-5.5-30.59-10.2-45.39,2.48-5.44,6.25-10.66,6.48-16.9.07-5.93-.41-12.15-3.36-17.43,4.11-2.85,7.86-6.16,11.92-9.08,5.14-3.74,9.25-8.64,13.41-13.39,5,5.26,10,10.61,15,15.85,2.07,2.31,6.22,2.4,8.56.48,8.87-8.13,18.11-15.85,27-24a34.35,34.35,0,0,0,6.86-16.49c1.25-10-5-20.3-14.25-24.11-6.12-2.18-12.6-.13-18,2.89,1.79-6.51,5.09-12.88,4.55-19.8-1.2-11.62-4.77-22.83-9-33.68a42.82,42.82,0,0,1-2.86-8,416.31,416.31,0,0,0-21.22-91.46c-1.14-7,1.28-13.91,1.64-20.87.73-13.1,1.53-26.71-3-39.27-2.58-7.1-8.35-13.72-16.15-14.85-5.16-1.13-10.14,1.37-14.56,3.74A62,62,0,0,1,361,27.77c-4.44.41-8.59-1.41-12.73-2.72A288.75,288.75,0,0,0,270,12.57c-31.58-.48-63.66,4.65-92.5,17.88-1.49.65-3.07,0-4.47-.54-13.91-6-25.95-16.15-40.76-20.06C126.41,8.89,119.81,8.24,114.6,11.69Z"/>
    <path class="cls-2" d="M202,33.56c31.82-10.27,66-11.22,99-7a317.07,317.07,0,0,1,44.74,9.81A3.27,3.27,0,0,1,348,37.77c4.2,6.71,4.63,15,3.15,22.55-1.67,6-6,10.69-8.57,16.28-4.41,13.13-1.29,29.23,9.43,38.47,7.48,7.56,15,15.37,24.39,20.58,6,3.26,11.28,7.62,17.54,10.38a85.16,85.16,0,0,1,25.14,18c7.12,6.11,8.55,15.91,12,24.17,4.77,10.83,9.14,22.06,10.61,33.87,1,6.11-1.57,11.84-3.13,17.6l-2.54-.08c0-4.47,1.24-9.39-1-13.52-3.08-3.77-8.5-4.29-13.05-4.44-7.21-.24-13,5.08-16.71,10.74-3.94,5.66-4.37,13-3.39,19.59.41,3.41,3.88,4.86,6.35,6.62a47.13,47.13,0,0,0,1.68,7.87,59.6,59.6,0,0,0,6.58,13.7c-6.24,7.17-12.85,14.21-20.87,19.41a77.71,77.71,0,0,1-27.31,11.41c-2.3.62-5.09,1-6.43,3.25a5.59,5.59,0,0,0,2.11,7.37c8,1,15.56-2.68,23.1-4.82,2,5.92,4.42,13.2.21,18.73-2.51,3.5-6.51,7.23-4.43,12,9.66,25.92,13.71,54,10.73,81.55.34,7.71-1.83,15.33-.93,23,1.44,3.76,5.84,4.35,8.68,6.61,1.71,1.91,2.78,4.27,4.15,6.41-.68,3.53-3.14,6-6.21,7.68-1.34-3.43-3.27-7.45-7.32-8.14a5.44,5.44,0,0,0-5.52,7c.17,1.95.39,3.9.6,5.86-1.79-.35-4,.18-5.47-1-1.42-2.67-1.93-5.7-3-8.52a13.85,13.85,0,0,0-2.19-3.68c-1.68-1-3.82-1.76-5.56-.44-4,2.63-3.65,8.14-4.13,12.36-3.2.09-6.7-.52-8.85-3.13-4.64-5.18-4.64-12.73-3.16-19.14,1.57-6.9,1-14,.27-20.94-.85-8.11,2.13-16.39-.43-24.33-1.21-1.44-2.49-3.55-4.65-3.29a4.88,4.88,0,0,0-5.47,4.67,123.64,123.64,0,0,1-1.6,19.69c-.55,1.79-1.16,3.56-1.76,5.34-7.16-3.53-14.92-6.68-20.1-13-5.35-9-10.48-18.14-14.27-27.89-1.46-3.18-.74-7.69-4.17-9.67-2.59-.58-6.2-.6-7.14,2.48a20.28,20.28,0,0,0,.74,10c2.71,8.11,7.22,15.44,11,23,6.47,11.43,11.89,23.52,19.94,34,4.3,6.65,10.79,11.52,14.81,18.38-1.93,1.93-4.38,2-6.81,1.08-1.3-3-1.91-6.71-4.77-8.68-2.66-.77-6.35-.94-7.8,1.94-.87,2.38-.13,4.91.29,7.3.2,1.7.3,3.41.41,5.13-4.93,1.16-10.84,2.35-15.14-1.09-1.23-2.25-1.65-4.81-2.32-7.24-.44-2.11-1.12-4.52-3.29-5.46-2.54-1.71-6.08.09-7.21,2.65-1.52,3-.37,8.44-4.49,9.24-4.07.39-9.27-1.88-9.94-6.34-.15-4.31,2.57-8.15,2.56-12.44-.49-1.59-1.84-2.67-3-3.72-7.58-6.12-16.44-10.76-22.87-18.21-5-5.37-8.15-12-11.35-18.51-.09,4.69-.24,9.38-.27,14.07-1.13-11.63,1.07-24.62-5.95-34.85C234.87,390,228.52,383,220.1,379.76c-5.73-2.53-11.76-4.64-18-5.17-4.36-.1-8.74-.11-13.1.07-9.47.79-18.27,4.65-27.33,7.25-3.85,1.08-7.27,3.23-10.76,5.11-7.39,4.26-14.74,8.59-21.9,13.22-2.27-1.33-4.85-2.47-6.26-4.81a37.36,37.36,0,0,1-5-26.85c2.26-3.83,7.2-4.38,11.24-4.22,8.81.47,17-4.24,23.06-10.31,3-2.76,3.15-7.07,3.39-10.86.12-2.57.7-5.17.09-7.72-2.43-2.78-6.31-3.42-9.39-5.24-5.28-4.08-10.79-8.41-14-14.39-2.69-6.17-2.88-14.08,1.44-19.58,21.37,12.28,45,21.33,69.56,24.15,5.15-.48,6.62-8.25,2.29-10.68-4.43-1.7-9.3-1.61-13.85-2.84l1.45-.18c-12.51-5-25-10.25-36.82-16.68-10.27-4-18.68-11.28-27.74-17.36-9.56-6.63-17.75-15-26-23.12-2-2.08-4.24-4.08-5.46-6.75-.89-2.9.11-5.94.6-8.82a66.47,66.47,0,0,0,22.24.78c5.66-.74,10.79-3.44,15.82-6,6.21-3.16,12.24-7.13,16.31-12.9,3.5-5.06,5.76-10.83,8.94-16.07,6.49-10.45,14.21-20.33,24-27.9,6.42-4.93,12.79-9.95,19.55-14.42,5.22-3.45,11.11-5.65,16.87-8,14.43-6.33,30-10.28,43.51-18.53,4.13-2.38,8.4-4.86,11.2-8.86,3.2-4.47,7.25-8.46,9.38-13.61,1.29-3.73,2.43-7.93.82-11.75C283.59,90.13,281.18,83.09,276,78c-5.29-5.38-10.6-10.8-16.59-15.43-4.52-3.59-10.13-5.25-15.25-7.74-4.46-2.08-8.5-4.92-12.84-7.21C221.56,42.88,212.33,37,202,33.56Zm21.57,141.21c-5.48,1.11-10.93,3-15.44,6.34a36.16,36.16,0,0,0-12.58,22c-.4,4.61-.87,10,2.94,13.44,4.89,4.92,12.22,4.23,18.56,4,9.21-.67,17.17,4.85,25.89,6.73,5.32,1.21,10.17-2.08,14.05-5.31,4.07-5,4.88-11.79,4.61-18,0-11.15-7.09-21.47-16.68-26.77C238.43,173.58,230.66,174,223.56,174.77ZM388,195.08A27.46,27.46,0,0,0,380.55,208c-1.07,4.41,3.53,10.24,8.15,7.94,7-5.06,14.49-10.23,23.32-11.12,3-.05,6.07-2.59,5.55-5.78.32-3.29-2.83-5.48-5.58-6.41-4.76-.35-9.24,1.76-13.78,2.84C395.66,192.58,390.69,192.24,388,195.08Zm-51.67,27.27c-3.93.67-8.64,1.34-10.74,5.21-.55,2.51-.92,5.72,1.29,7.56,3.59,3.73,7.81,6.8,11.71,10.19,3.73.83,8.37.48,10.81-2.86,3.72-4.59,7-10.44,5.88-16.55-.74-2.28-2.64-4.57-5.22-4.56A60.76,60.76,0,0,0,336.36,222.35Zm-156.1,8.7c-8.45,1.12-17.41,8.74-15.57,18,1.14,6.29,6.5,10.54,11.69,13.64,5.52,4,12.16,5.94,18.74,7.31,7.08.78,14.76,1.11,21.16-2.56a14.19,14.19,0,0,0,8-10.42c.76-4.05.92-8.89-2.24-12-5.68-5.49-12.83-9.15-20.13-12C195.14,229.93,187.46,230.27,180.26,231.05Zm151.25,32.64c.81,3.87,5.17,4.91,8.38,6,0,4.33-6.1,5-6.34,9.26-.69,3.37,3.44,6,1.79,9.36-1.09,2.63-1.68,6.29,1.19,8,2.73.66,6.18.77,8-1.8,3.86-3.73,1.52-9.4,2.18-14,1.21-1.9,2.78-3.56,3.73-5.62.55-3.94.95-8.45-1.47-11.88a12.77,12.77,0,0,0-12-5.8A5.23,5.23,0,0,0,331.51,263.69Zm-72.07,52.88c-4.31.36-9.64,3.19-9.12,8.2,1.62,4.86,6.32,7.79,10.49,10.31,5,2.72,9.84,6.08,15.47,7.36,5.76.77,12,.81,17.28-1.91,4.67-2.33,9.51-4.94,12.71-9.21,1.89-2.38,2.28-6.29-.14-8.47-2.88-3.57-7.79-3.52-11.94-4-8.63-.6-17.26-1.16-25.86-2.06A34.38,34.38,0,0,0,259.44,316.57Z"/>
    <path class="cls-2" d="M207.21,194.92c3.29-1.77,8.27.13,8.58,4.15,1.4,4.93-1.44,12.82-7.74,11.45C201.21,208.49,202.71,198.6,207.21,194.92Z"/>
    <path class="cls-2" d="M247.59,206.29c-.11-2.24-1.07-5.43,1.59-6.57,3.54-1.28,5.53,3.76,4,6.42C251.48,207.58,249.47,206.87,247.59,206.29Z"/>
    <path class="cls-2" d="M180.41,387.3a32.52,32.52,0,0,1,11.6-1.84c5.24.12,10.65-.62,15.7,1.16,6,2,12.38,4.09,16.8,8.87,4,4,8.06,8.52,9.05,14.22-.21,4.48.62,9.64-2.5,13.35-3.25,4.05-6.37,8.28-10.24,11.78a221.75,221.75,0,0,1-34.35,22.71,121.9,121.9,0,0,1-26.64,7.87c-8-5.72-12.71-14.84-15.22-24.12a73.88,73.88,0,0,1-.19-17.77c2.05-11.41,10.11-20.27,17.75-28.44C167.28,390.59,174.17,389.42,180.41,387.3Z"/>
    <path class="cls-2" d="M46.6,411.35a32,32,0,0,1,14.66-7.93c1.4-.12,3.06-1.14,4.35-.18,2.06,1.32,4,2.78,6,4.19.08,1.4.17,2.8.2,4.21-.15,1.48-1.08,2.7-1.8,4-7.27-4.92-16.19-2.22-24.3-2.55Z"/>
    <path class="cls-2" d="M111.27,423c4-1.52,7.64-4.13,11.93-4.93a42.31,42.31,0,0,0-7.53,27c.4,4.33-.1,8.67-.18,13-.07,6.06,3.26,11.39,6.61,16.18-10.14.26-20.33.54-30.41-.84a52.3,52.3,0,0,1,1.11-29.56c1.4-5.88,5.44-10.54,8.59-15.53C104,425.56,107.94,424.58,111.27,423Z"/>
    <path class="cls-2" d="M41.88,437.12c4.07-3.34,8.66-6.65,14.13-6.84,6.66-.27,13.32-.6,20-.88a17.19,17.19,0,0,1,4.76.79c-4.33,3.86-9.17,7.24-12.62,12-4.8,6-7.09,13.45-8.72,20.82-8.51-6.12-16-14.52-17.9-25.15Z"/>
  </g>
  <g>
    <path class="cls-3" d="M114.6,11.69c5.21-3.45,11.81-2.8,17.67-1.84C147.08,13.76,159.12,23.9,173,29.91c1.4.55,3,1.19,4.47.54,28.84-13.23,60.92-18.36,92.5-17.88a288.75,288.75,0,0,1,78.28,12.48c4.14,1.31,8.29,3.13,12.73,2.72a62,62,0,0,0,27.53-8.15c4.42-2.37,9.4-4.87,14.56-3.74,7.8,1.13,13.57,7.75,16.15,14.85,4.54,12.56,3.74,26.17,3,39.27-.36,7-2.78,13.91-1.64,20.87a416.31,416.31,0,0,1,21.22,91.46,42.82,42.82,0,0,0,2.86,8c4.2,10.85,7.77,22.06,9,33.68.54,6.92-2.76,13.29-4.55,19.8,5.43-3,11.91-5.07,18-2.89,9.28,3.81,15.5,14.08,14.25,24.11a34.35,34.35,0,0,1-6.86,16.49c-8.88,8.11-18.12,15.83-27,24-2.34,1.92-6.49,1.83-8.56-.48-5.05-5.24-10-10.59-15-15.85-4.16,4.75-8.27,9.65-13.41,13.39-4.06,2.92-7.81,6.23-11.92,9.08,2.95,5.28,3.43,11.5,3.36,17.43-.23,6.24-4,11.46-6.48,16.9,4.7,14.8,8.57,29.92,10.2,45.39,1.57,18.18.4,36.43-.92,54.58,7.28,4,11.08,12,13.37,19.62a22.52,22.52,0,0,1-7.86,22.77c-5.34,4.61-12.49,6.14-19.29,7.05-13,.39-26.56.84-38.91-4.07-8.25,5.49-18.53,6.09-28.13,6.42-9.59,1.36-19.31,1-29,.86-10.16-1.37-20.62-2.2-30.13-6.36-3.22-1.38-6.12-4-9.84-3.69-9.7.06-19.35-1.05-29.05-.77-13.42.05-27-.5-40.22,2.08-12.67,5-26.19,7.53-39.72,8.8-9.69.26-19.38.2-29.07,0-14-1.3-28-2.88-41.89-5.19a92.65,92.65,0,0,1-26.94-8.74,48.35,48.35,0,0,1-25-27.64c-2.38-7.66-4-15.92-1.8-23.83,2-11.82,7.25-23.45,16.6-31.23,8.86-7.38,20.34-12.29,32-11.62a50.78,50.78,0,0,1,16.55,2.35,105.17,105.17,0,0,1,8.49-37.61A95.08,95.08,0,0,1,115,326.82c-2.29-4.61-4.17-9.55-4.3-14.77,0-8.85,2.74-17.35,5.42-25.68A264.54,264.54,0,0,1,78.2,255.8c-1.67-1.62-3.53-3.16-4.58-5.28-.75-3.08-.36-6.3-.17-9.42a689.81,689.81,0,0,1,29-129.55c1.23-4.14,3.36-8.16,3.61-12.51C100.36,79.64,95.67,59.29,98.31,39,99.63,28.19,104.82,17.18,114.6,11.69Zm9.26,8.86c3.48,2.07,7.54,3.25,10.52,6.09,3.77,3.55,6.65,8,10.6,11.34,5.17,4.23,10.13,8.8,16.12,11.89C165.52,52.8,171,51.25,176,52a6.85,6.85,0,0,1,5.32,5c0,3.3-3,5.87-6.06,6.42-6.41-.1-13-1-18.73-4C145.3,53.94,136.38,45,128,36c-3.6-4.35-10.57-7.37-15.52-3.42-3.6,4.63-2.82,11-3.72,16.47.39,17.44,4.38,34.58,9.7,51.13a22.34,22.34,0,0,0-.73,3.53c-2.57,4.15-3.83,8.91-5.31,13.52-2.28,8.2-5.2,16.2-7.67,24.35-2.44,8.8-4.15,17.79-6.5,26.62-2.26,8.42-3.43,17.07-5.45,25.54-2,11.72-5,23.34-5.13,35.3l-.88-.4c-.55,4.16-1.45,8.26-1.88,12.43-1.26,5.29,4.06,8.55,7.33,11.71a265.56,265.56,0,0,0,52.07,36.89c9.34,5.09,19,9.76,29.24,12.74,5.87,1.84,11.7,4.37,17.94,4.53,4.55,1.23,9.42,1.14,13.85,2.84,4.33,2.43,2.86,10.2-2.29,10.68-24.59-2.82-48.19-11.87-69.56-24.15-2-1-3.91-2.11-5.84-3.2-3.1,5.47-4.41,11.75-4.81,18a13.27,13.27,0,0,0,5.79,11.27,56.22,56.22,0,0,0,17.42,7.93c3.08,1.82,7,2.46,9.39,5.24.61,2.55,0,5.15-.09,7.72-2.34.27-4.77,1.34-7.08.45-7.68-2.73-14.58-7.26-22.19-10.14A42.48,42.48,0,0,0,114,346.77c-6,7.42-9,16.8-11.44,25.88-1,4.78-3.38,9.32-3.23,14.31.22,9.63-1,19.51,2.06,28.85,4.32-2.46,8.73-5.12,13.76-5.77l-.8-.45c4.72-3.35,10.69-4.85,14.58-9.35,7.16-4.63,14.51-9,21.9-13.22,3.49-1.88,6.91-4,10.76-5.11,9.06-2.6,17.86-6.46,27.33-7.25,4.36-.18,8.74-.17,13.1-.07,6.28.53,12.31,2.64,18,5.17C228.52,383,234.87,390,240,397.18c7,10.23,4.82,23.22,5.95,34.85a28.88,28.88,0,0,0,7.23,13.89,122.92,122.92,0,0,0,15.07,13.87c1.59,1.35,3.73,2.9,3.38,5.29-.46,4.28-2.86,8.48-1.49,12.87.26,2.9,3.1,4.46,5.63,5.16a69.65,69.65,0,0,0,18,2.55c2-5.71,1.67-11.78,1.58-17.72,1.13-2.56,4.67-4.36,7.21-2.65,2.17.94,2.85,3.35,3.29,5.46,0,4.37-.36,8.77,0,13.14.4,1.89,2.43,2.58,4.17,2.45,4.44,0,9,.35,13.33-1,3.66-2.92,2.34-8.32-.44-11.36-.42-2.39-1.16-4.92-.29-7.3,1.45-2.88,5.14-2.71,7.8-1.94,2.86,2,3.47,5.68,4.77,8.68a37.8,37.8,0,0,1,1.31,10.84,29.06,29.06,0,0,0,8.21-2.47,12.7,12.7,0,0,0-2.71-9.45c-4-6.86-10.51-11.73-14.81-18.38-8.05-10.45-13.47-22.54-19.94-34-3.82-7.6-8.33-14.93-11-23a20.28,20.28,0,0,1-.74-10c.94-3.08,4.55-3.06,7.14-2.48,3.43,2,2.71,6.49,4.17,9.67,3.79,9.75,8.92,18.93,14.27,27.89,4.63,9.9,9.85,19.76,17.19,27.95,2.15-6.58,4.13-13.32,4.67-20.24a123.64,123.64,0,0,0,1.6-19.69,4.88,4.88,0,0,1,5.47-4.67c2.16-.26,3.44,1.85,4.65,3.29a129.67,129.67,0,0,1-6.17,45.52c-.59,2.11-1.34,4.29-1,6.51,1.72,3.48,4.38,6.41,6.08,9.91,1.6,2.88,2.31,6.17,4,9,2.85,2.12,6.55,2.5,9.94,3.16a99.55,99.55,0,0,1,1.5-15.43c1.06-3.35,4.66-3.09,7.52-3a13.85,13.85,0,0,1,2.19,3.68c.09,4-.31,8,0,12,.83,3.9,6.16,4.3,9.05,2.7,1.3-3.6,1.19-7.91-1.18-11.05a5.44,5.44,0,0,1,5.52-7c4,.69,6,4.71,7.32,8.14-1.65,2-.25,5.53-.57,8.11,3.26-1.18,6.27-3.53,7.47-6.86.77-3,0-6-.69-8.93-1.37-2.14-2.44-4.5-4.15-6.41-2.84-2.26-7.24-2.85-8.68-6.61-.9-7.7,1.27-15.32.93-23,3-27.55-1.07-55.63-10.73-81.55-2.08-4.75,1.92-8.48,4.43-12,4.21-5.53,1.76-12.81-.21-18.73-7.54,2.14-15.08,5.82-23.1,4.82a5.59,5.59,0,0,1-2.11-7.37c1.34-2.24,4.13-2.63,6.43-3.25a77.71,77.71,0,0,0,27.31-11.41c8-5.2,14.63-12.24,20.87-19.41a59.6,59.6,0,0,1-6.58-13.7,51.37,51.37,0,0,1-.19-8.5,24,24,0,0,1,11.55-17.56c4.42-2.62,10-2.48,14.72-.8l2.54.08c1.56-5.76,4.1-11.49,3.13-17.6-1.47-11.81-5.84-23-10.61-33.87-1.32-6.79-2.27-13.64-2.93-20.51-3.17-16.1-6-32.33-10.84-48-1-3.64-1.42-7.46-2.84-11-2.11-4.57-3-9.58-4.91-14.23-1.48-3.4-1-7.15-.94-10.74,2.53-13.4,3.85-27.38,1.79-41,0-4.58-5.33-6.94-9.31-6.07-4.76,1-7.69,5.27-11,8.45a52.94,52.94,0,0,1-15.18,11.7,35.37,35.37,0,0,1-4.78-1c-3.18-2-3.24-7.61.5-9.07a30.49,30.49,0,0,0,12.61-10.5c-7.84.44-15.33,3.46-23.23,3.41-4.08.14-8-1-12-1.81a3.27,3.27,0,0,0-2.28-1.42A317.07,317.07,0,0,0,301,26.54c-33-4.2-67.17-3.25-99,7-6.32,2.34-12.64,4.67-18.75,7.51-5.61,2.69-12.29,1.62-17.39-1.7-12-5.85-23.18-13.33-35.65-18.23C128.18,20.4,126,20.64,123.86,20.55Zm301.89,229.3a14.2,14.2,0,0,0-5.19,13.21c1.09,6.76,5.69,12.29,10.48,16.9,4.39,4.13,8.29,8.76,12.87,12.69,8.18-6.32,16.22-12.88,23-20.71A16.5,16.5,0,0,0,469.28,258c-1.06-1.58-2.25-3.07-3.34-4.61-2.2-.76-4.47-2.22-6.86-1.53-4.44,1.35-7,5.76-11.13,7.56-4.4.47-6.95-3.92-10-6.28C434.75,250,430.1,248.39,425.75,249.85ZM180.41,387.3c-6.24,2.12-13.13,3.29-18.24,7.79-5.26,2.36-10,5.64-15.32,8-4,1.7-7.33,4.43-10.82,6.91-4.08,3-8.92,4.86-12.83,8.08-4.29.8-7.9,3.41-11.93,4.93-3.33,1.61-7.23,2.59-9.88,5.29-7-.18-13.61,3.05-20.64,1.93A17.19,17.19,0,0,0,76,429.4a11.78,11.78,0,0,1-6-13.79c.72-1.27,1.65-2.49,1.8-4,2.17.11,4.55-.24,6.46,1s2,3.89,2.46,6c3.33.1,6.66.06,10,.09-.57-4.35-1.56-8.64-2.47-12.92-7.28-2.12-15.09-3.92-22.66-2.56-1.29-1-3,.06-4.35.18a32,32,0,0,0-14.66,7.93,14.94,14.94,0,0,0-4.78,4.48c-4,5.62-8.1,11.93-7.65,19.16.2,7.79-1.56,16.51,3.46,23.24.41,2.47,2.3,4.38,3.8,6.3a41.73,41.73,0,0,0,21.22,13.06c13.25,4.82,27.5,5.86,41.42,7.27a157.13,157.13,0,0,0,34.6,1.54c10.36.77,20.71-1.41,30.64-4.2,7.3-1.56,13.64-5.7,20.74-7.87a172,172,0,0,0,26.78-15.5A49.11,49.11,0,0,0,234.4,424c0-4.77.73-9.71-.84-14.33-1-5.7-5.08-10.26-9.05-14.22-4.42-4.78-10.81-6.85-16.8-8.87-5.05-1.78-10.46-1-15.7-1.16A32.52,32.52,0,0,0,180.41,387.3Zm52.81,70.86c-5.53,7-12.76,12.54-20.23,17.41,15.46-.3,30.85,1.23,46.31.78-.37-3.91,1.86-9.06-2-11.73-6.42-5.55-12.83-11.33-17.37-18.59A136.25,136.25,0,0,1,233.22,458.16Z"/>
    <path class="cls-3" d="M189.62,112.63c4-3,10.11,1.55,8.53,6.27-1.86,4.53-6.82,6.65-9.19,10.84-1.43,2-2.32,4.94-5,5.51-4.05,1-7.51-4.21-5.7-7.73C180.27,121.48,184.68,116.51,189.62,112.63Z"/>
    <path class="cls-3" d="M396,118.09c1.32-2.55,4.69-1.29,7-1.53,2.71,3.83,5.5,7.8,6.57,12.45.6,3-1.13,7.4-4.62,7.35-4.2.6-5.63-4.22-7.27-7.12C396.35,125.78,393.14,121.6,396,118.09Z"/>
    <path class="cls-3" d="M223.56,174.77c7.1-.79,14.87-1.19,21.35,2.41,9.59,5.3,16.71,15.62,16.68,26.77.27,6.23-.54,13-4.61,18-3.88,3.23-8.73,6.52-14.05,5.31-8.72-1.88-16.68-7.4-25.89-6.73-6.34.21-13.67.9-18.56-4-3.81-3.42-3.34-8.83-2.94-13.44a36.16,36.16,0,0,1,12.58-22C212.63,177.74,218.08,175.88,223.56,174.77Zm-16.35,20.15c-4.5,3.68-6,13.57.84,15.6,6.3,1.37,9.14-6.52,7.74-11.45C215.48,195.05,210.5,193.15,207.21,194.92Zm40.38,11.37c1.88.58,3.89,1.29,5.59-.15,1.53-2.66-.46-7.7-4-6.42C246.52,200.86,247.48,204.05,247.59,206.29Z"/>
    <path class="cls-3" d="M388,195.08c2.66-2.84,7.63-2.5,10.18.34,4.54-1.08,9-3.19,13.78-2.84,2.75.93,5.9,3.12,5.58,6.41.52,3.19-2.57,5.73-5.55,5.78-8.83.89-16.35,6.06-23.32,11.12-4.62,2.3-9.22-3.53-8.15-7.94A27.46,27.46,0,0,1,388,195.08Z"/>
    <path class="cls-3" d="M336.36,222.35a60.76,60.76,0,0,1,13.73-1c2.58,0,4.48,2.28,5.22,4.56,1.08,6.11-2.16,12-5.88,16.55-2.44,3.34-7.08,3.69-10.81,2.86-3.9-3.39-8.12-6.46-11.71-10.19-2.21-1.84-1.84-5.05-1.29-7.56C327.72,223.69,332.43,223,336.36,222.35Z"/>
    <path class="cls-3" d="M331.51,263.69a5.23,5.23,0,0,1,5.44-6.42,12.77,12.77,0,0,1,12,5.8c2.42,3.43,2,7.94,1.47,11.88-1,2.06-2.52,3.72-3.73,5.62-.66,4.61,1.68,10.28-2.18,14-1.79,2.57-5.24,2.46-8,1.8-2.87-1.75-2.28-5.41-1.19-8,1.65-3.35-2.48-6-1.79-9.36.24-4.25,6.32-4.93,6.34-9.26C336.68,268.6,332.32,267.56,331.51,263.69Z"/>
  </g>
  <g>
    <path class="cls-4" d="M123.86,20.55c2.11.09,4.32-.15,6.34.59,12.47,4.9,23.64,12.38,35.65,18.23,5.1,3.32,11.78,4.39,17.39,1.7,6.11-2.84,12.43-5.17,18.75-7.51,10.34,3.47,19.57,9.32,29.33,14,4.34,2.29,8.38,5.13,12.84,7.21,5.12,2.49,10.73,4.15,15.25,7.74,6,4.63,11.3,10,16.59,15.43,5.18,5.1,7.59,12.14,10.23,18.73,1.61,3.82.47,8-.82,11.75-2.13,5.15-6.18,9.14-9.38,13.61-2.8,4-7.07,6.48-11.2,8.86-13.56,8.25-29.08,12.2-43.51,18.53-5.76,2.37-11.65,4.57-16.87,8-6.76,4.47-13.13,9.49-19.55,14.42-9.8,7.57-17.52,17.45-24,27.9-3.18,5.24-5.44,11-8.94,16.07-4.07,5.77-10.1,9.74-16.31,12.9-5,2.54-10.16,5.24-15.82,6A66.47,66.47,0,0,1,97.58,234l.18-.89c1.91-13.18,2.31-26.55,4.55-39.7,1.21-6.6,1.32-13.36,2.84-19.91,2.78-11.43,3.74-23.2,6.39-34.66s5.56-23.23,6.23-35.16a22.34,22.34,0,0,1,.73-3.53c1.57-5.35,4-10.67,8.13-14.5,5.47-5.07,11.85-9,18.12-13,9.18-5.65,19.93-7.69,30.46-9.15,3.08-.55,6.09-3.12,6.06-6.42A6.85,6.85,0,0,0,176,52c-4.93-.77-10.43.78-14.85-2.15-6-3.09-10.95-7.66-16.12-11.89-3.95-3.38-6.83-7.79-10.6-11.34C131.4,23.8,127.34,22.62,123.86,20.55Zm65.76,92.08c-4.94,3.88-9.35,8.85-11.39,14.89-1.81,3.52,1.65,8.75,5.7,7.73,2.71-.57,3.6-3.52,5-5.51,2.37-4.19,7.33-6.31,9.19-10.84C199.73,114.18,193.61,109.67,189.62,112.63Z"/>
    <path class="cls-4" d="M360,39.58c7.9.05,15.39-3,23.23-3.41a30.49,30.49,0,0,1-12.61,10.5c-3.74,1.46-3.68,7.09-.5,9.07a35.37,35.37,0,0,0,4.78,1c5.64,1.11,10.78,3.77,15.87,6.32,9.16,4.57,14,14.54,16.46,24,.46-1.14.94-2.29,1.38-3.44-.09,3.59-.54,7.34.94,10.74,1.93,4.65,2.8,9.66,4.91,14.23,1.42,3.53,1.8,7.35,2.84,11,4.84,15.7,7.67,31.93,10.84,48,.66,6.87,1.61,13.72,2.93,20.51-3.43-8.26-4.86-18.06-12-24.17a85.16,85.16,0,0,0-25.14-18c-6.26-2.76-11.58-7.12-17.54-10.38-9.4-5.21-16.91-13-24.39-20.58-10.72-9.24-13.84-25.34-9.43-38.47,2.53-5.59,6.9-10.28,8.57-16.28,1.48-7.59,1.05-15.84-3.15-22.55C352,38.57,355.91,39.72,360,39.58Zm36,78.51c-2.88,3.51.33,7.69,1.68,11.15,1.64,2.9,3.07,7.72,7.27,7.12,3.49,0,5.22-4.34,4.62-7.35-1.07-4.65-3.86-8.62-6.57-12.45C400.71,116.8,397.34,115.54,396,118.09Z"/>
    <path class="cls-4" d="M114,346.77a42.48,42.48,0,0,1,12.08-13.27c7.61,2.88,14.51,7.41,22.19,10.14,2.31.89,4.74-.18,7.08-.45-.24,3.79-.38,8.1-3.39,10.86-6,6.07-14.25,10.78-23.06,10.31-4-.16-9,.39-11.24,4.22a37.36,37.36,0,0,0,5,26.85c1.41,2.34,4,3.48,6.26,4.81-3.89,4.5-9.86,6-14.58,9.35a9.76,9.76,0,0,1-4.17-5A51.51,51.51,0,0,1,106.61,385c-.06-7-.22-14.06,1.23-20.94C109.06,358,111.6,352.39,114,346.77Z"/>
    <path class="cls-4" d="M146.85,403.05c5.28-2.32,10.06-5.6,15.32-8-7.64,8.17-15.7,17-17.75,28.44a73.88,73.88,0,0,0,.19,17.77c2.51,9.28,7.26,18.4,15.22,24.12l.61.45a156.42,156.42,0,0,1-38.34,8.32c-3.35-4.79-6.68-10.12-6.61-16.18.08-4.33.58-8.67.18-13a42.31,42.31,0,0,1,7.53-27C127.11,414.82,132,413,136,410,139.52,407.48,142.89,404.75,146.85,403.05Z"/>
    <path class="cls-4" d="M65.61,403.24c7.57-1.36,15.38.44,22.66,2.56.91,4.28,1.9,8.57,2.47,12.92-3.33,0-6.66,0-10-.09-.5-2.07-.58-4.6-2.46-6s-4.29-.92-6.46-1c0-1.41-.12-2.81-.2-4.21C69.64,406,67.67,404.56,65.61,403.24Z"/>
    <path class="cls-4" d="M45.73,413.06c8.11.33,17-2.37,24.3,2.55a11.78,11.78,0,0,0,6,13.79c-6.66.28-13.32.61-20,.88-5.47.19-10.06,3.5-14.13,6.84,0-4.71-.62-9.43-.13-14.13C42.06,419.34,44.2,416.27,45.73,413.06Z"/>
    <path class="cls-4" d="M80.75,430.19c7,1.12,13.68-2.11,20.64-1.93-3.15,5-7.19,9.65-8.59,15.53a52.3,52.3,0,0,0-1.11,29.56C80.3,472.28,69.91,467.13,59.41,463c1.63-7.37,3.92-14.84,8.72-20.82C71.58,437.43,76.42,434.05,80.75,430.19Z"/>
  </g>
  <g>
    <path class="cls-5" d="M112.52,32.53c5-4,11.92-.93,15.52,3.42,8.34,9.08,17.26,18,28.44,23.54,5.74,3,12.32,3.89,18.73,4-10.53,1.46-21.28,3.5-30.46,9.15-6.27,4-12.65,7.93-18.12,13-4.18,3.83-6.56,9.15-8.13,14.5-5.32-16.55-9.31-33.69-9.7-51.13C109.7,43.51,108.92,37.16,112.52,32.53Z"/>
    <path class="cls-5" d="M390.07,45.07c3.32-3.18,6.25-7.41,11-8.45,4-.87,9.3,1.49,9.31,6.07,2.06,13.59.74,27.57-1.79,41-.44,1.15-.92,2.3-1.38,3.44-2.49-9.47-7.3-19.44-16.46-24-5.09-2.55-10.23-5.21-15.87-6.32A52.94,52.94,0,0,0,390.07,45.07Z"/>
    <path class="cls-5" d="M405.28,232.33c3.71-5.66,9.5-11,16.71-10.74,4.55.15,10,.67,13.05,4.44,2.2,4.13,1,9.05,1,13.52-4.73-1.68-10.3-1.82-14.72.8a24,24,0,0,0-11.55,17.56,51.37,51.37,0,0,0,.19,8.5,47.13,47.13,0,0,1-1.68-7.87c-2.47-1.76-5.94-3.21-6.35-6.62C400.91,245.3,401.34,238,405.28,232.33Z"/>
    <path class="cls-5" d="M180.26,231.05c7.2-.78,14.88-1.12,21.64,1.95,7.3,2.84,14.45,6.5,20.13,12,3.16,3.12,3,8,2.24,12a14.19,14.19,0,0,1-8,10.42c-6.4,3.67-14.08,3.34-21.16,2.56-6.58-1.37-13.22-3.34-18.74-7.31-5.19-3.1-10.55-7.35-11.69-13.64C162.85,239.79,171.81,232.17,180.26,231.05Z"/>
    <path class="cls-5" d="M458.19,256.43c1.36-3,5-2.79,7.75-3,1.09,1.54,2.28,3,3.34,4.61.47,3.34.78,8.42-3.41,9.43C460,268.69,455.4,261.46,458.19,256.43Z"/>
  </g>
  <g>
    <path class="cls-6" d="M86.83,228.59l.88.4c3.3,1.49,6.69,2.74,10.05,4.1l-.18.89c-.49,2.88-1.49,5.92-.6,8.82,1.22,2.67,3.45,4.67,5.46,6.75,8.23,8.16,16.42,16.49,26,23.12,9.06,6.08,17.47,13.32,27.74,17.36C168,296.46,180.47,301.7,193,306.71l-1.45.18c-6.24-.16-12.07-2.69-17.94-4.53-10.24-3-19.9-7.65-29.24-12.74a265.56,265.56,0,0,1-52.07-36.89C89,249.57,83.69,246.31,85,241,85.38,236.85,86.28,232.75,86.83,228.59Z"/>
    <path class="cls-6" d="M122.88,311c.4-6.22,1.71-12.5,4.81-18,1.93,1.09,3.88,2.17,5.84,3.2-4.32,5.5-4.13,13.41-1.44,19.58,3.21,6,8.72,10.31,14,14.39a56.22,56.22,0,0,1-17.42-7.93A13.27,13.27,0,0,1,122.88,311Z"/>
    <path class="cls-6" d="M259.44,316.57a34.38,34.38,0,0,1,8.89.18c8.6.9,17.23,1.46,25.86,2.06,4.15.52,9.06.47,11.94,4,2.42,2.18,2,6.09.14,8.47-3.2,4.27-8,6.88-12.71,9.21-5.31,2.72-11.52,2.68-17.28,1.91-5.63-1.28-10.46-4.64-15.47-7.36-4.17-2.52-8.87-5.45-10.49-10.31C249.8,319.76,255.13,316.93,259.44,316.57Z"/>
    <path class="cls-6" d="M354.57,408.68c2.56,7.94-.42,16.22.43,24.33.7,7,1.3,14-.27,20.94-1.48,6.41-1.48,14,3.16,19.14,2.15,2.61,5.65,3.22,8.85,3.13.48-4.22.09-9.73,4.13-12.36,1.74-1.32,3.88-.56,5.56.44-2.86-.05-6.46-.31-7.52,3a99.55,99.55,0,0,0-1.5,15.43c-3.39-.66-7.09-1-9.94-3.16-1.71-2.82-2.42-6.11-4-9-1.7-3.5-4.36-6.43-6.08-9.91-.31-2.22.44-4.4,1-6.51A129.67,129.67,0,0,0,354.57,408.68Z"/>
    <path class="cls-6" d="M233.56,409.71c1.57,4.62.85,9.56.84,14.33a49.11,49.11,0,0,1-17.57,34.79,172,172,0,0,1-26.78,15.5c-10.63,1.78-21-2.5-29.61-8.46l-.61-.45a121.9,121.9,0,0,0,26.64-7.87,221.75,221.75,0,0,0,34.35-22.71c3.87-3.5,7-7.73,10.24-11.78C234.18,419.35,233.35,414.19,233.56,409.71Z"/>
    <path class="cls-6" d="M246.18,418c3.2,6.49,6.39,13.14,11.35,18.51,6.43,7.45,15.29,12.09,22.87,18.21,1.19,1.05,2.54,2.13,3,3.72,0,4.29-2.71,8.13-2.56,12.44.67,4.46,5.87,6.73,9.94,6.34,4.12-.8,3-6.24,4.49-9.24.09,5.94.43,12-1.58,17.72a69.65,69.65,0,0,1-18-2.55c-2.53-.7-5.37-2.26-5.63-5.16-1.37-4.39,1-8.59,1.49-12.87.35-2.39-1.79-3.94-3.38-5.29a122.92,122.92,0,0,1-15.07-13.87A28.88,28.88,0,0,1,245.91,432C245.94,427.34,246.09,422.65,246.18,418Z"/>
    <path class="cls-6" d="M321,422c5.18,6.37,12.94,9.52,20.1,13,.6-1.78,1.21-3.55,1.76-5.34-.54,6.92-2.52,13.66-4.67,20.24C330.84,441.8,325.62,431.94,321,422Z"/>
    <path class="cls-6" d="M37.63,458.23c-.11-7-.45-14.48,3.88-20.39,1.91,10.63,9.39,19,17.9,25.15a60.26,60.26,0,0,0,3.24,14.6,41.73,41.73,0,0,1-21.22-13.06C39.93,462.61,38,460.7,37.63,458.23Z"/>
    <path class="cls-6" d="M233.22,458.16a136.25,136.25,0,0,0,6.7-12.13c4.54,7.26,11,13,17.37,18.59,3.87,2.67,1.64,7.82,2,11.73-15.46.45-30.85-1.08-46.31-.78C220.46,470.7,227.69,465.21,233.22,458.16Z"/>
    <path class="cls-6" d="M405.51,465c.65,2.91,1.46,5.95.69,8.93-1.2,3.33-4.21,5.68-7.47,6.86.32-2.58-1.08-6.07.57-8.11C402.37,471.07,404.83,468.57,405.51,465Z"/>
    <path class="cls-6" d="M378.62,468c1,2.82,1.55,5.85,3,8.52,1.5,1.16,3.68.63,5.47,1-.21-2-.43-3.91-.6-5.86,2.37,3.14,2.48,7.45,1.18,11.05-2.89,1.6-8.22,1.2-9.05-2.7C378.31,476,378.71,472,378.62,468Z"/>
    <path class="cls-6" d="M305.8,470.75c.67,2.43,1.09,5,2.32,7.24,4.3,3.44,10.21,2.25,15.14,1.09-.11-1.72-.21-3.43-.41-5.13,2.78,3,4.1,8.44.44,11.36-4.29,1.38-8.89,1-13.33,1-1.74.13-3.77-.56-4.17-2.45C305.44,479.52,305.83,475.12,305.8,470.75Z"/>
    <path class="cls-6" d="M341.94,472.31a12.7,12.7,0,0,1,2.71,9.45,29.06,29.06,0,0,1-8.21,2.47,37.8,37.8,0,0,0-1.31-10.84C337.56,474.35,340,474.24,341.94,472.31Z"/>
    <path class="cls-6" d="M91.69,473.35c10.08,1.38,20.27,1.1,30.41.84,5.45,4.16,10.86,8.39,16.57,12.21a157.13,157.13,0,0,1-34.6-1.54A20.21,20.21,0,0,1,91.69,473.35Z"/>
  </g>
  <path class="cls-7" d="M425.75,249.85c4.35-1.46,9,.16,12.17,3.3,3.08,2.36,5.63,6.75,10,6.28,4.17-1.8,6.69-6.21,11.13-7.56,2.39-.69,4.66.77,6.86,1.53-2.75.24-6.39.06-7.75,3-2.79,5,1.81,12.26,7.68,11,4.19-1,3.88-6.09,3.41-9.43a16.5,16.5,0,0,1-2.34,13.93c-6.81,7.83-14.85,14.39-23,20.71-4.58-3.93-8.48-8.56-12.87-12.69-4.79-4.61-9.39-10.14-10.48-16.9A14.2,14.2,0,0,1,425.75,249.85Z"/>
</svg>
