<svg id="Layer_1" data-name="Layer 1" xmlns="http://www.w3.org/2000/svg" viewBox="0 0 505.69 467.62">
  <defs>
    <style>
      .cls-1 {
        fill: #b93f26;
      }

      .cls-2 {
        fill: #fbfcfd;
      }

      .cls-3 {
        fill: #0a1f2e;
      }

      .cls-4 {
        fill: #fcc1bc;
      }

      .cls-5 {
        fill: #ee4a22;
      }

      .cls-6 {
        fill: #f7efed;
      }

      .cls-7 {
        fill: #8ac2fe;
      }

      .cls-8 {
        fill: #0d1e2b;
      }

      .cls-9 {
        fill: #89c2fd;
      }

      .cls-10 {
        fill: #fbc2be;
      }

      .cls-11 {
        fill: #b94128;
      }

      .cls-12 {
        fill: #c0bdbe;
      }

      .cls-13 {
        fill: #0a1f2d;
      }

      .cls-14 {
        fill: #0e1e2c;
      }

      .cls-15 {
        fill: #c1bcbd;
      }

      .cls-16 {
        fill: #bebebf;
      }

      .cls-17 {
        fill: #f8eeec;
      }

      .cls-18 {
        fill: #ed4a23;
      }

      .cls-19 {
        fill: #091f2e;
      }

      .cls-20 {
        fill: #b84027;
      }

      .cls-21 {
        fill: #08202b;
      }

      .cls-22 {
        fill: #c2bcbd;
      }

      .cls-23 {
        fill: #e84d29;
      }

      .cls-24 {
        fill: #f7efea;
      }

      .cls-25 {
        fill: #c2bebd;
      }

      .cls-26 {
        fill: #ea4a24;
      }

      .cls-27 {
        fill: #b34229;
      }

      .cls-28 {
        fill: #bfbcc3;
      }

      .cls-29 {
        fill: #c0bcbd;
      }

      .cls-30 {
        fill: #f8eeed;
      }

      .cls-31 {
        fill: #bfbdbd;
      }

      .cls-32 {
        fill: #c0bdc0;
      }

      .cls-33 {
        fill: #bdbcc0;
      }

      .cls-34 {
        fill: #c0bcbe;
      }

      .cls-35 {
        fill: #b93f24;
      }

      .cls-36 {
        fill: #bfbdbe;
      }

      .cls-37 {
        fill: #c1bfc0;
      }

      .cls-38 {
        fill: #c1bdbe;
      }
    </style>
  </defs>
  <g>
    <path class="cls-1" d="M0,0H.26A3.19,3.19,0,0,0,0,.26Z"/>
    <path class="cls-1" d="M46,418.36c9.44,2.82,19.27,3.69,28.92,5.41l.86.13a40.6,40.6,0,0,0,14.63,22.54c-7-.4-13.71-2.4-20.38-4.38s-13.82-3.52-19.86-7.22A81.44,81.44,0,0,1,46,418.36Z"/>
  </g>
  <path class="cls-2" d="M203.57,41.51c5.58-2.94,12.34-5.26,18.53-2.81,7.41,2.11,12.9,7.77,18,13.17,7.19,7.26,14.13,15.55,23.92,19.3,11.82.72,23.76-.5,35.56,1a244.09,244.09,0,0,1,81.49,21.62,187.42,187.42,0,0,1,31.49,19.6c14.87,11,27.17,25.17,37.51,40.44,2.54,4.59,8.12,5.46,12.56,7.32,9,3.32,18.67,4.72,27.48,8.61,8.94,4.08,15.75,13.16,15.54,23.21-.24,10.84-5.1,20.93-10.71,30-5.45,9-12.42,16.86-18.93,25a10.06,10.06,0,0,0-2.12,5.93c-2.1,21.52-4.54,43-8.34,64.32-.74,8.89,0,17.83-.23,26.74-.24,6.8,1,14.35-3,20.34C455.61,375.43,447,384.15,437.82,392c4.54,6.8,7.93,14.7,7.49,23-1.31,14-7.81,28.51-20.44,35.77-10.78,5.88-23.6,7.38-35.67,5.93a182.2,182.2,0,0,1-29.08-5.56c-8.28,6.56-18.68,9.72-29.13,10.3-9.95,1.31-20,.89-30,.79-9.29-.94-18.82-1.89-27.42-5.8-3.37-1.43-6.66-3.63-10.5-3.19-8.05.35-16.05-.8-24.09-.81-6.69,0-13.3-1.14-20-1.2-5.49-.37-10.49,2.3-15.64,3.74-9.87,2.88-19.75,5.77-29.87,7.62-10.81,2.23-21.81,3.33-32.75,4.67a94.29,94.29,0,0,1-20.7-.63,245.87,245.87,0,0,1-75.39-16.22A78.61,78.61,0,0,1,11.3,425.69c-7-11.48-9.78-25.37-8.93-38.71,1.65-11.39,6.05-23,15-30.57,8.61-7,19.41-10.82,30.27-12.6,3-10.06,7.28-19.93,14.08-28.05a95.35,95.35,0,0,1,33.43-25.69c2.75-1.24,5.72-2,8.32-3.58,2-3.72,3-7.94,5.68-11.28,1-1.74,3.22-3.47,2.22-5.65-3.56-9.39-9.9-18.24-10-28.6,1.38-11.89,9.23-21.55,13.11-32.6.92-2.28-.67-4.45-1.33-6.56-1.34-3-.61-6.41-1.45-9.53-1-2-2.5-3.63-3.65-5.5-2.29-3.43-2.87-7.61-3.84-11.52-6,2-11.84,5.06-18.32,4.51a18.94,18.94,0,0,1-15.16-6.59c-3.65-3.61-4.87-8.82-5.49-13.74-.7-5.41,2.38-10.25,4.53-15-4.59-3.13-9.13-7-10.79-12.55a24,24,0,0,1,8.06-24.77,78.73,78.73,0,0,1,18.34-10.7c12.67-3.72,25.12-8.78,38.41-9.84,6.67-.47,13.32-1.73,20-1.17,8.55,1.08,17.22,5.38,21.41,13.22,4.6,8,1.05,17.93-4.09,24.76a51,51,0,0,0,6.63,5.07c2.14-2.41,4.58-4.69,6-7.67,1-3.16.69-6.55,1.13-9.81,1.74-16.35,4.42-32.85,10.95-48.06C189.59,54.35,195.16,46.08,203.57,41.51Zm-9.68,16.43c-8.94,15.38-11.89,33.28-14,50.69-.64,4.89-.06,10-1.61,14.71-3.16,4.9-7.47,8.95-11.05,13.55-1.68-2.58-3.16-5.47-5.8-7.21a67.1,67.1,0,0,0-8.75-4.43c3.08-3.18,6.55-6.23,8.29-10.41,2-5,2.56-11.29-.95-15.83-5.45-7.49-15.68-9.48-24.41-8.6-16.71.46-32.91,5.11-48.58,10.6-6.39,2.94-12.91,6.06-18.14,10.86A18.78,18.78,0,0,0,64.14,132c2.46,5.56,8,8.88,13.82,9.87-3.21,4.76-7.24,9.36-8.11,15.23,0,5.24,1.52,10.91,5.75,14.34,4.78,4.23,11.83,4.77,17.68,2.69a150.9,150.9,0,0,1,17.66-5.35c-.47,3.69-1.64,7.45-.66,11.16.74,4.24,4,7.3,6.92,10.2A19.81,19.81,0,0,0,121,206.23c-4.23,10.17-10,19.65-13.68,30a17.6,17.6,0,0,0,.3,12.32c3,8,6.71,15.68,10.4,23.37a34.24,34.24,0,0,0-9.8,18.33c-17.4,5.41-33.34,15.93-44.34,30.55a76.85,76.85,0,0,0-12.35,27.49c-12.51,1.2-25.55,5.41-34.15,15C9.94,371.28,7.11,382.42,6.94,393c.76,9.11,1.91,18.53,6.39,26.66C16.67,426,22,431,27.6,435.37A96.67,96.67,0,0,0,57.28,450c16.07,5.63,32.9,8.56,49.76,10.6,12.26,1.21,24.66,2.74,37,1.29a270.79,270.79,0,0,0,66.56-14.22c4-1.5,8.27-1.44,12.44-1.09,10.3,1.15,20.67,1,31,1.82,5.65.61,11.87-1.59,17,1.61a48.56,48.56,0,0,0,15.69,5.52c15,2.61,30.33,2.22,45.43,1,8-.64,16.47-2.28,22.66-7.75,1.41-1,2.57-2.57,4.25-3.17a138,138,0,0,0,38,6.87c12.44.19,26.14-3.05,34.24-13.21,7.07-9.18,11.13-21.53,8.33-33-1.33-5.82-5.26-10.47-8.68-15.18a112.62,112.62,0,0,0,27.26-27.87,13.9,13.9,0,0,0,2.28-8.15c.1-10,0-20-.08-30-.17-6.69,1.83-13.14,2.64-19.73,2.39-17.71,4.63-35.45,6.21-53.24.19-4.66,4-7.78,6.61-11.2,9.1-11.36,18.4-23.06,23.26-37,2.48-7.17,2.94-15.84-1.65-22.28-4.25-6-11.41-8.85-18.29-10.58a158.21,158.21,0,0,1-27.83-9.31c-3.41-1.48-5.07-5-7.09-7.86-19.68-29.5-49.82-51.25-83-63.1-21.59-8.13-44.47-12.46-67.43-14.19-9.26-.45-18.53-.22-27.79-.22-4.59.06-8.41-2.81-12.06-5.21-8.45-5.75-14.9-13.76-22.08-20.9-4.69-4.61-11-8.63-17.87-7.57C205.26,44,198.05,50.42,193.89,57.94Z"/>
  <g>
    <path class="cls-3" d="M193.89,57.94c4.16-7.52,11.37-13.94,20.05-15.32,6.87-1.06,13.18,3,17.87,7.57,7.18,7.14,13.63,15.15,22.08,20.9,3.65,2.4,7.47,5.27,12.06,5.21,9.26,0,18.53-.23,27.79.22,23,1.73,45.84,6.06,67.43,14.19,33.22,11.85,63.36,33.6,83,63.1,2,2.87,3.68,6.38,7.09,7.86A158.21,158.21,0,0,0,479.13,171c6.88,1.73,14,4.58,18.29,10.58,4.59,6.44,4.13,15.11,1.65,22.28-4.86,13.91-14.16,25.61-23.26,37-2.65,3.42-6.42,6.54-6.61,11.2-1.58,17.79-3.82,35.53-6.21,53.24-.81,6.59-2.81,13-2.64,19.73.09,10,.18,20,.08,30a13.9,13.9,0,0,1-2.28,8.15,112.62,112.62,0,0,1-27.26,27.87c3.42,4.71,7.35,9.36,8.68,15.18,2.8,11.5-1.26,23.85-8.33,33-8.1,10.16-21.8,13.4-34.24,13.21a138,138,0,0,1-38-6.87c-1.68.6-2.84,2.12-4.25,3.17-6.19,5.47-14.67,7.11-22.66,7.75-15.1,1.25-30.44,1.64-45.43-1A48.56,48.56,0,0,1,271,450c-5.12-3.2-11.34-1-17-1.61-10.32-.8-20.69-.67-31-1.82-4.17-.35-8.47-.41-12.44,1.09A270.79,270.79,0,0,1,144,461.91c-12.31,1.45-24.71-.08-37-1.29-16.86-2-33.69-5-49.76-10.6A96.67,96.67,0,0,1,27.6,435.37C22,431,16.67,426,13.33,419.68,8.85,411.55,7.7,402.13,6.94,393c.17-10.6,3-21.74,10.39-29.67,8.6-9.61,21.64-13.82,34.15-15a76.85,76.85,0,0,1,12.35-27.49c11-14.62,26.94-25.14,44.34-30.55A34.24,34.24,0,0,1,118,272c-3.69-7.69-7.41-15.38-10.4-23.37a17.6,17.6,0,0,1-.3-12.32c3.71-10.39,9.45-19.87,13.68-30a19.81,19.81,0,0,1-3.75-16.12c-2.91-2.9-6.18-6-6.92-10.2-1-3.71.19-7.47.66-11.16a150.9,150.9,0,0,0-17.66,5.35c-5.85,2.08-12.9,1.54-17.68-2.69-4.23-3.43-5.76-9.1-5.75-14.34.87-5.87,4.9-10.47,8.11-15.23-5.84-1-11.36-4.31-13.82-9.87a18.78,18.78,0,0,1,4.72-20.1C74.09,107.07,80.61,104,87,101c15.67-5.49,31.87-10.14,48.58-10.6,8.73-.88,19,1.11,24.41,8.6,3.51,4.54,3,10.79.95,15.83-1.74,4.18-5.21,7.23-8.29,10.41a67.1,67.1,0,0,1,8.75,4.43c2.64,1.74,4.12,4.63,5.8,7.21,3.58-4.6,7.89-8.65,11.05-13.55,1.55-4.73,1-9.82,1.61-14.71C182,91.22,185,73.32,193.89,57.94Zm8.38,8.36c-7.15,14.13-9.78,30-11.4,45.6-1.05,5.53.56,11.69-2.29,16.78-6.69,9.48-15.29,17.51-21.59,27.27-1.65,2.27.28,4.79.95,7.05,1.84,3.91,1.15,8.31,1.85,12.44,2,3.7,6.37,6.16,6.78,10.65.3,4.17.48,8.85-2.12,12.4a17.48,17.48,0,0,1-10.55,7.07c-6.61,1.4-13.26,2.61-19.76,4.49-3.95.16-7.89.3-11.84.39A49,49,0,0,0,125.73,223a88.92,88.92,0,0,0-7.08,15.66c-1.69,4,.52,8.08,1.87,11.82A132.77,132.77,0,0,0,145,290c6.09,7.24,13.5,13.19,20.68,19.3,4.24,3.24,8.39,6.83,13.39,8.85,3.32.73,6.65-.66,9.87-1.39,13.25-2.13,27.36-2.31,39.86,3.24,14.15,5.48,25.06,17.18,31.58,30.66,2.67,4.93,4.11,10.39,6.4,15.48.68,3.16.94,6.57,2.68,9.37,5.26,2.85,11.38,3.43,17.11,4.9,5,.82,9.81,2.69,14.86,2.73,11.34,1.39,22.9-1.06,34.2,1.05,6.93,1.31,13.29,4.5,19.35,8,4.61-3.71,9.54-7.13,15.15-9.15,8.49-3.46,17.85-2.74,26.81-2.62,6.56,0,12.79,2.22,19.2,3.27,4.5.76,8.44-2.12,11.83-4.67a106.68,106.68,0,0,0,18.75-19.23c2.42-3,2.57-7.05,2.59-10.74,0-10.75-.13-21.53-1-32.22a19.16,19.16,0,0,0,2.87-8.51c1.29-11.78,3.12-23.5,4.15-35.31.79-9.66,2.77-19.21,3.16-28.91,5.17-5.74,9.69-12,14.46-18.09a116.82,116.82,0,0,0,13.59-21.4c1.41-3,2.8-6.5,1.78-9.88-1.65-1.74-4.16-2.15-6.43-2.3-9.85-.64-19.75.63-29.56-.71-5.68-.57-11.14-2.37-16.77-3.24-2-2-5.44-3.25-5.7-6.5a4.89,4.89,0,0,1,5.1-5.44c4.16.52,7.87,2.77,12,3.46,7.35,1.25,15,2.16,22.36.6-4.56-2.34-9.83-2.58-14.52-4.61-4.32-1.81-8.79-3.48-12.59-6.26-3.24-2.93-5.3-6.89-8.1-10.21-8.52-13.93-20.84-25-33.46-35.14a183.93,183.93,0,0,0-47.18-24.49c-9.8-2.77-19.44-6.25-29.53-7.78-13.69-2.35-27.56-4.81-41.49-4.13-7.33-1.23-14.82.48-22.17-.61-5-1.29-9-4.65-13.33-7.31-4.67-2.91-8.7-6.68-12.84-10.27a35.06,35.06,0,0,0,6.06,21.07c3.14,4.52,7.82,7.58,11.69,11.39a4.91,4.91,0,0,1,.82,6.44c-1.61,2.56-5,1.81-7.56,2-7.18-5.09-13.89-11.31-17.3-19.61-4.15-7.82-3.47-17-6.87-25.1-1.52-3.62-3.35-7.61-7-9.49C208.34,56.64,204.72,61.83,202.27,66.3Zm-97.7,41.05c-9.34,2.78-19.29,5-27.13,11.08-3.86,2.75-3.8,9.36.38,11.76,2.66,1.34,5.5-.27,7.88-1.46C96,123,107.41,120,118.57,116.53a62.73,62.73,0,0,1,9.56-2.19c-4,4.43-9.61,6.84-14,10.85-8.68,7.66-17.77,14.84-26.29,22.68-2.61,2.57-5.78,5.25-6.18,9.14-.36,2.79,2,5.11,4.51,5.84,3.49,1.21,7.2.16,10.51-1.11,8.6-3.41,17.1-7.3,26.24-9,7-1.36,13.91-3,21-3.23,3.49-.31,7.28-.23,10.36-2.15,2-1.38,4.08-4,2.84-6.57a6,6,0,0,0-6.16-3.44c-13.18.12-26.1,3-39,5.56,5.15-5.58,11.63-9.61,17.37-14.51,5.4-4.61,11.16-8.79,16.45-13.52,2.67-2.65,5.75-5.81,5.65-9.84,0-3.78-4.56-4.57-7.5-4.34A255.66,255.66,0,0,0,104.57,107.35Zm36,60c-5.29,1.39-10.78,1.93-16,3.5-4.41,1.05-4.81,9.09,0,9.82s9.71-.87,14.55-1.35c-3.47,4.73-8.28,8.41-11.16,13.55-1.41,2.73-.62,7.81,3.14,7.88,6.81.46,13.34-1.95,20-2.83,4.95-1.06,11-1.21,14.37-5.5,2-2.53.41-6.17-2-7.8-5.74-.52-11.06,2.54-16.75,3,3.17-5.33,8.45-8.79,12.47-13.38,2.82-2.72,2.2-8.75-2.17-9.47C151.41,164.14,146,166.16,140.56,167.32ZM123.71,281.81c-2.25,4-4.65,8.41-4.07,13.21.76,6.67,3.44,13.42,8.49,18,.73,2.33,2,4.51,2.28,7-.4,3.21-4,4-6.14,5.73-7.18-6.25-11.3-15.08-14.6-23.82-1.55.65-3.1,1.31-4.59,2.08a42.67,42.67,0,0,0-13.56,6.5c-13.45,8.4-24,21.78-28.08,37.22-2.6,8.56-1.93,17.65-1.64,26.48,4.62.27,9.25.29,13.88.2a114.89,114.89,0,0,0,14.1-2.8,98.05,98.05,0,0,0,26-14.75c7-5.38,13.44-11.41,20.83-16.24,6.61-4.9,13.9-8.74,20.9-13a46.6,46.6,0,0,1,9.38-3.88c-9.31-7.08-19-13.93-26.68-22.82-2.73-3-5-6.36-8.07-9C129.76,288.16,127.56,284.11,123.71,281.81Zm47.75,51.68c-3.19,1.31-6.52,2.52-9.22,4.72a35.21,35.21,0,0,0-8.84,4.16c-5.8,3.82-11.61,7.66-17.14,11.88-8.38,6.46-16,14-25.27,19.22-4.6,2.24-9,4.87-13.87,6.58-3.29,1.28-6.8,2.14-9.75,4.15-8.74.45-17.45,1.73-26.22,1.11-3.67-.77-7.29-1.87-11-2.2-4.29-1.63-8.8-2.94-12.57-5.65-2.1-1.34-2.42-4-3.27-6.15,1.3-1.19,2.59-2.39,4-3.47,4,.61,8,1.7,11.93,2.7A80.43,80.43,0,0,0,50.12,360a91.69,91.69,0,0,0-9.85,1.81c-5.62,2-11,4.93-14.74,9.7h-.81c-.69,1.39-1.41,2.77-2,4.22-3.4,5.42-4.27,12-4.06,18.3.62,7.59,1.22,15.71,6.07,22,1.79,4,5.14,7,8.58,9.62,5.17,3.76,10.68,7.2,16.79,9.21,6,3.7,13.14,5.2,19.86,7.22s13.39,4,20.38,4.38a42.38,42.38,0,0,0,9.08,1.82c11.84,1.29,23.73,3.23,35.67,2.22,15.45.51,30.64-2.77,45.7-5.77,10.07-2.23,20.36-4.58,29.35-9.86,5.39-.49,10.07-3.54,14.88-5.76a76,76,0,0,0,26.39-20.63c3.66-4.54,5.72-10.1,7.21-15.68a45.79,45.79,0,0,0-.09-13.68c-2.25-12-6.42-23.94-13.94-33.7a47.85,47.85,0,0,0-26.07-17.75c-6.38-1.73-13-1.43-19.59-1.27C189.37,326.63,180.32,330.16,171.46,333.49Zm98.71,54.22q-.9,6.1-2,12.18c4.53-3.31,9.5-5.93,14-9.26A93.42,93.42,0,0,0,270.17,387.71Zm95.13,9.94c-1,1.17-2.41,2.11-2.82,3.62.35,3.69,2,7.13,2.5,10.82,1.39,7.87-1.21,15.63-1.84,23.44,5.78,1,11.49,3.49,17.44,3,2.63-4,2-9.1,2.45-13.67q1.25-1.81,2.5-3.62c2.89-.19,6.19-.21,7.64,2.83,1,5.4-1.47,11.07.44,16.27a18.16,18.16,0,0,0,12.44-.28,34.81,34.81,0,0,0,4.54-20.33c2.65-2.8,6.48-2.42,9.77-1.15a55,55,0,0,1,1,14.54c3.69-4.72,6.63-10.14,7.5-16.12,1.27-6-1.19-12.22-5.29-16.58-5.33-6.31-14.16-6.93-21.68-8.62C389.52,389.3,376,390.52,365.3,397.65Zm-86.68,8c-3.61,2.69-6.95,5.91-8.95,10-3.82,7.28-2.56,17.37,4,22.69,5.31,4.25,12.16,5.88,18.8,6.49.59-2.7,1.18-5.41,1.81-8.1.53-4.08-.53-9.44,3.31-12.17a6,6,0,0,1,8.16,4.35c.15,5.65-1.08,11.19-1.88,16.75,8.8.15,17.59,0,26.38-.25.65-2.57,1.34-5.13,2.15-7.66.32-3.59.18-7.19.42-10.77.06-2.81,2.59-4.87,5.2-5.32,2.44.31,4.95,1.85,5.64,4.34a103.75,103.75,0,0,1-.79,16.62c5.76-1.7,9.23-7.12,10.16-12.81,1.92-8.34,2.92-18.17-2.26-25.59-5.24-7-14.33-9.87-22.77-9.87C311,393.68,292.88,395.71,278.62,405.64Zm-33.79,24.21c-3.05,2-6.15,4-9,6.23,7.63.87,15.33.62,23,.67a61.14,61.14,0,0,1-2.28-17C252.63,423.12,249.14,427,244.83,429.85Z"/>
    <path class="cls-3" d="M382.44,307.43c3.41-2.69,7.08-5.86,11.58-6.22,2.84-.46,4.27,2.32,5.86,4.11,7.05.26,14.14-.51,21.15.42,2.7.39,6.27,1.93,5.75,5.26.59,3.22-2.71,5.74-5.71,5.22a88,88,0,0,0-25.92.37c-4.12.5-8.71,2-12.58-.22C379.32,314.64,379.51,309.39,382.44,307.43Z"/>
  </g>
  <path class="cls-4" d="M202.27,66.3c2.45-4.47,6.07-9.66,11.7-9.82,3.67,1.88,5.5,5.87,7,9.49,3.4,8.06,2.72,17.28,6.87,25.1,3.41,8.3,10.12,14.52,17.3,19.61-9.14.07-18.5-.86-27.38,1.84-9.68,2.57-18.35,7.71-27.06,12.48-.11-4.37-.17-8.74.15-13.1C192.49,96.29,195.12,80.43,202.27,66.3Z"/>
  <g>
    <path class="cls-5" d="M234.15,69.75c4.14,3.59,8.17,7.36,12.84,10.27,4.3,2.66,8.36,6,13.33,7.31,7.35,1.09,14.84-.62,22.17.61a185.14,185.14,0,0,0,22,14.57,51.06,51.06,0,0,1,17.91,18.18c7.54,12.31,12.61,26.76,11,41.36-.62,12-9.1,22.73-20,27.31-7.64,3.3-16.14,3.46-24.32,3.12-7.39-.28-14.6-2.16-22-2.66a146,146,0,0,0-28.34,1.08c-7.47,1-14.53,3.7-21.55,6.29-14.85,5.68-27.54,15.73-42.33,21.53-11.77,4.57-24.46,8.77-37.24,7l-1.71-.31,2.55-1a147.16,147.16,0,0,1,5.72-14.37c6.5-1.88,13.15-3.09,19.76-4.49a17.48,17.48,0,0,0,10.55-7.07c2.6-3.55,2.42-8.23,2.12-12.4-.41-4.49-4.77-7-6.78-10.65-.7-4.13,0-8.53-1.85-12.44-.67-2.26-2.6-4.78-.95-7.05,6.3-9.76,14.9-17.79,21.59-27.27,2.85-5.09,1.24-11.25,2.29-16.78-.32,4.36-.26,8.73-.15,13.1,8.71-4.77,17.38-9.91,27.06-12.48,8.88-2.7,18.24-1.77,27.38-1.84,2.55-.22,6,.53,7.56-2a4.91,4.91,0,0,0-.82-6.44c-3.87-3.81-8.55-6.87-11.69-11.39A35.06,35.06,0,0,1,234.15,69.75Zm12.22,92.5c-6.08,2.22-13.87,2.6-17.8,8.41-2.6,3.23,1.58,8.45,5.27,7.29,4.16-1,8.08-2.74,12.18-3.91,2.39-.84,5-1.34,7-3a7.34,7.34,0,0,0,.81-7.69C252.22,160.77,248.82,161.65,246.37,162.25Z"/>
    <path class="cls-5" d="M417.27,169c6.22-2,11.57-5.85,16.88-9.55,2.8,3.32,4.86,7.28,8.1,10.21,3.8,2.78,8.27,4.45,12.59,6.26,4.69,2,10,2.27,14.52,4.61-7.39,1.56-15,.65-22.36-.6-4.14-.69-7.85-2.94-12-3.46a4.89,4.89,0,0,0-5.1,5.44c.26,3.25,3.68,4.48,5.7,6.5,4.08,4,7.23,8.83,10.48,13.5,4,5.85,7.65,12.13,9.06,19.16,1.5,7.59,3.21,15.2,3.39,23-.39,9.7-2.37,19.25-3.16,28.91-1,11.81-2.86,23.53-4.15,35.31a19.16,19.16,0,0,1-2.87,8.51c-2.32-6-2.92-12.31-2.88-18.65.06-6.78-4.2-12.35-8-17.57-4.64-6.59-10.64-12-16.5-17.52-8.25-7.25-17.57-13.14-26.31-19.76-11.05-8.93-19.83-22.6-18.19-37.34.36-8.93,6.94-15.67,13-21.51C397.14,176.88,407.19,172.44,417.27,169Zm15.32,66.55c-1.91,1.31-3.57,3.84-2.67,6.2,1.31,3.88,3.35,7.46,4.75,11.31,1,2.38,2.06,5.84,5.31,5.51,2.76.51,5.86-1.6,5.44-4.6a39.17,39.17,0,0,0-6-16.51C438.12,235,435,235,432.59,235.58Z"/>
    <path class="cls-5" d="M153.4,342.37a35.21,35.21,0,0,1,8.84-4.16,109.09,109.09,0,0,0-8.64,15.25c-5.42,12.15-9.26,25.83-6.09,39.11,3.21,11.83,9.07,23.76,19.81,30.45-17.68,5-36.28,4.15-54.46,4-2.34-5.83-5-11.7-5.39-18.06-.4-6-.3-12-.13-18s2.58-11.63,3.65-17.49c9.29-5.19,16.89-12.76,25.27-19.22C141.79,350,147.6,346.19,153.4,342.37Z"/>
    <path class="cls-5" d="M61.15,385.31c8.77.62,17.48-.66,26.22-1.11-4.55,3.45-9.12,7.56-10.76,13.24-2.5,8.49-4.12,17.61-1.74,26.33-9.65-1.72-19.48-2.59-28.92-5.41l-.07-1c.29-6.3.71-13,4.14-18.46C53.16,394,57.34,389.76,61.15,385.31Z"/>
  </g>
  <g>
    <path class="cls-6" d="M282.49,87.94c13.93-.68,27.8,1.78,41.49,4.13,10.09,1.53,19.73,5,29.53,7.78a183.93,183.93,0,0,1,47.18,24.49c12.62,10.14,24.94,21.21,33.46,35.14-5.31,3.7-10.66,7.53-16.88,9.55-10.08,3.41-20.13,7.85-27.82,15.41-6,5.84-12.62,12.58-13,21.51-1.64,14.74,7.14,28.41,18.19,37.34,8.74,6.62,18.06,12.51,26.31,19.76,5.86,5.48,11.86,10.93,16.5,17.52,3.79,5.22,8,10.79,8,17.57,0,6.34.56,12.7,2.88,18.65.88,10.69,1,21.47,1,32.22,0,3.69-.17,7.72-2.59,10.74A106.68,106.68,0,0,1,428,379c-3.39,2.55-7.33,5.43-11.83,4.67-6.41-1-12.64-3.24-19.2-3.27-9-.12-18.32-.84-26.81,2.62-5.61,2-10.54,5.44-15.15,9.15-6.06-3.49-12.42-6.68-19.35-8-11.3-2.11-22.86.34-34.2-1.05l1.52-.2c-5.51-1.7-11.19-2.94-16.41-5.47-6.82-3.3-14.42-5.68-19.76-11.33-2.29-5.09-3.73-10.55-6.4-15.48C253.9,337.15,243,325.45,228.84,320c-12.5-5.55-26.61-5.37-39.86-3.24a20,20,0,0,1-7.28-4.43c-19.57-18.62-34.67-41.57-46-66-3.52-6.7.34-13.92,1.9-20.58,12.78,1.75,25.47-2.45,37.24-7,14.79-5.8,27.48-15.85,42.33-21.53,7-2.59,14.08-5.33,21.55-6.29A146,146,0,0,1,267,189.82c7.36.5,14.57,2.38,22,2.66,8.18.34,16.68.18,24.32-3.12,10.93-4.58,19.41-15.29,20-27.31,1.64-14.6-3.43-29.05-11-41.36a51.06,51.06,0,0,0-17.91-18.18A185.14,185.14,0,0,1,282.49,87.94Zm-77,136.68a5.35,5.35,0,0,0-1.93,5.85c1,2.27,3.57,3.07,5.68,4,8.06,3.05,15.14,8.14,21.71,13.62,6.19,5.09,12.46,10.13,17.83,16.11,2.24,3.35,7,.05,6.8-3.25.13-5,1-10.92-2.51-15-2.26-3-5.89-.3-8.81-.33-3.15-1.63-5.62-4.26-8.4-6.42a110.54,110.54,0,0,0-21.53-13.56A12.72,12.72,0,0,0,205.52,224.62Zm109.87,35.81C309,261,302.49,263.27,298,268a9.5,9.5,0,0,0-2.81,8.83c.87,3.39,3.67,5.8,6.49,7.64,11.6,7.15,24.19,13.28,37.83,15.14,2.05.17,4.4.37,6.14-1,2.58-2,3.42-5.42,3.48-8.54.17-7.72-1.58-16.18-7.56-21.56C334.73,261.75,324.68,259.52,315.39,260.43Zm67.05,47c-2.93,2-3.12,7.21.13,8.94,3.87,2.19,8.46.72,12.58.22a88,88,0,0,1,25.92-.37c3,.52,6.3-2,5.71-5.22.52-3.33-3-4.87-5.75-5.26-7-.93-14.1-.16-21.15-.42-1.59-1.79-3-4.57-5.86-4.11C389.52,301.57,385.85,304.74,382.44,307.43Zm-72.86-4.79a7.31,7.31,0,0,0-4.08,8.11c1.09,5.2,2.58,11.36,7.77,13.93,4.11,2.25,8.68-.31,12.49-2,4.17-2,9.46-5.8,7.64-11.14-2.3-3.87-7.25-4.42-11.07-6C318.18,304.33,314,301.69,309.58,302.64ZM303.3,336c-3.4,1-6.72,3.41-7.51,7-.44,3.6,3.21,6.85,6.73,5.4s9.07-1.87,9.74-6.45C312.53,337.58,307.29,334.29,303.3,336Z"/>
    <path class="cls-6" d="M171.46,333.49c8.86-3.33,17.91-6.86,27.49-7.11,6.54-.16,13.21-.46,19.59,1.27a47.85,47.85,0,0,1,26.07,17.75c7.52,9.76,11.69,21.7,13.94,33.7a45.79,45.79,0,0,1,.09,13.68,212.59,212.59,0,0,1-61,26.76c-9.71,2.18-19.64,3.89-29.62,3.85l-.66-.37c-10.74-6.69-16.6-18.62-19.81-30.45-3.17-13.28.67-27,6.09-39.11a109.09,109.09,0,0,1,8.64-15.25C164.94,336,168.27,334.8,171.46,333.49Z"/>
    <path class="cls-6" d="M97.12,380.05c4.84-1.71,9.27-4.34,13.87-6.58-1.07,5.86-3.59,11.45-3.65,17.49s-.27,12,.13,18c.41,6.36,3,12.23,5.39,18.06-12.38-.92-24.79-1.6-37.13-3.1l-.86-.13c-2.38-8.72-.76-17.84,1.74-26.33,1.64-5.68,6.21-9.79,10.76-13.24C90.32,382.19,93.83,381.33,97.12,380.05Z"/>
    <path class="cls-6" d="M365.3,397.65c10.7-7.13,24.22-8.35,36.6-5.84,7.52,1.69,16.35,2.31,21.68,8.62,4.1,4.36,6.56,10.58,5.29,16.58-.87,6-3.81,11.4-7.5,16.12a55,55,0,0,0-1-14.54c-3.29-1.27-7.12-1.65-9.77,1.15-1.42,3.95-1.64,8.19-2,12.35-3-.37-6.16-.48-9-1.69s-4.57-4-6.44-6.32c-1.45-3-4.75-3-7.64-2.83q-1.26,1.8-2.5,3.62L381.55,427c-2.51-.9-5.22-1.53-7.37-3.17-2-2-2.72-4.82-3.59-7.4C368.77,410.18,367.18,403.87,365.3,397.65Z"/>
  </g>
  <path class="cls-7" d="M104.57,107.35A255.66,255.66,0,0,1,144,100.67c2.94-.23,7.53.56,7.5,4.34.1,4-3,7.19-5.65,9.84-5.29,4.73-11.05,8.91-16.45,13.52-5.74,4.9-12.22,8.93-17.37,14.51,12.87-2.55,25.79-5.44,39-5.56a6,6,0,0,1,6.16,3.44c1.24,2.55-.8,5.19-2.84,6.57-3.08,1.92-6.87,1.84-10.36,2.15-7.11.25-14.06,1.87-21,3.23-9.14,1.73-17.64,5.62-26.24,9-3.31,1.27-7,2.32-10.51,1.11-2.5-.73-4.87-3-4.51-5.84.4-3.89,3.57-6.57,6.18-9.14,8.52-7.84,17.61-15,26.29-22.68,4.36-4,10-6.42,14-10.85a62.73,62.73,0,0,0-9.56,2.19C107.41,120,96,123,85.7,128.73c-2.38,1.19-5.22,2.8-7.88,1.46-4.18-2.4-4.24-9-.38-11.76C85.28,112.35,95.23,110.13,104.57,107.35Z"/>
  <path class="cls-8" d="M246.37,162.25c2.45-.6,5.85-1.48,7.5,1.11a7.34,7.34,0,0,1-.81,7.69c-2,1.65-4.65,2.15-7,3-4.1,1.17-8,2.92-12.18,3.91-3.69,1.16-7.87-4.06-5.27-7.29C232.5,164.85,240.29,164.47,246.37,162.25Z"/>
  <path class="cls-9" d="M140.56,167.32c5.41-1.16,10.85-3.18,16.44-2.6,4.37.72,5,6.75,2.17,9.47-4,4.59-9.3,8.05-12.47,13.38,5.69-.44,11-3.5,16.75-3,2.39,1.63,4,5.27,2,7.8-3.41,4.29-9.42,4.44-14.37,5.5-6.67.88-13.2,3.29-20,2.83-3.76-.07-4.55-5.15-3.14-7.88,2.88-5.14,7.69-8.82,11.16-13.55-4.84.48-9.67,2-14.55,1.35s-4.4-8.77,0-9.82C129.78,169.25,135.27,168.71,140.56,167.32Z"/>
  <path class="cls-10" d="M435.59,188.44c5.63.87,11.09,2.67,16.77,3.24,9.81,1.34,19.71.07,29.56.71,2.27.15,4.78.56,6.43,2.3,1,3.38-.37,6.84-1.78,9.88A116.82,116.82,0,0,1,473,226c-4.77,6.07-9.29,12.35-14.46,18.09-.18-7.76-1.89-15.37-3.39-23-1.41-7-5.05-13.31-9.06-19.16C442.82,197.27,439.67,192.45,435.59,188.44Z"/>
  <path class="cls-11" d="M132.3,210.44c3.95-.09,7.89-.23,11.84-.39a147.16,147.16,0,0,0-5.72,14.37l-2.55,1c-3.4-.74-6.77-1.61-10.14-2.46A49,49,0,0,1,132.3,210.44Z"/>
  <path class="cls-12" d="M118.65,238.63A88.92,88.92,0,0,1,125.73,223c3.37.85,6.74,1.72,10.14,2.46l1.71.31c-1.56,6.66-5.42,13.88-1.9,20.58,11.35,24.41,26.45,47.36,46,66a20,20,0,0,0,7.28,4.43c-3.22.73-6.55,2.12-9.87,1.39-5-2-9.15-5.61-13.39-8.85-7.18-6.11-14.59-12.06-20.68-19.3a132.77,132.77,0,0,1-24.52-39.52C119.17,246.71,117,242.62,118.65,238.63Z"/>
  <path class="cls-13" d="M205.52,224.62a12.72,12.72,0,0,1,8.84,1,110.54,110.54,0,0,1,21.53,13.56c2.78,2.16,5.25,4.79,8.4,6.42,2.92,0,6.55-2.64,8.81.33,3.55,4.08,2.64,10,2.51,15,.18,3.3-4.56,6.6-6.8,3.25-5.37-6-11.64-11-17.83-16.11-6.57-5.48-13.65-10.57-21.71-13.62-2.11-.91-4.66-1.71-5.68-4A5.35,5.35,0,0,1,205.52,224.62Z"/>
  <path class="cls-14" d="M432.59,235.58c2.39-.58,5.53-.61,6.83,1.91a39.17,39.17,0,0,1,6,16.51c.42,3-2.68,5.11-5.44,4.6-3.25.33-4.33-3.13-5.31-5.51-1.4-3.85-3.44-7.43-4.75-11.31C429,239.42,430.68,236.89,432.59,235.58Z"/>
  <path class="cls-15" d="M315.39,260.43c9.29-.91,19.34,1.32,26.13,8.06,6,5.38,7.73,13.84,7.56,21.56-.06,3.12-.9,6.54-3.48,8.54-1.74,1.34-4.09,1.14-6.14,1-13.64-1.86-26.23-8-37.83-15.14-2.82-1.84-5.62-4.25-6.49-7.64A9.5,9.5,0,0,1,298,268C302.49,263.27,309,261,315.39,260.43Z"/>
  <path class="cls-16" d="M123.71,281.81c3.85,2.3,6,6.35,8.42,10-1.28-1-2.6-1.88-3.92-2.78a40.72,40.72,0,0,0-.08,24c-5-4.58-7.73-11.33-8.49-18C119.06,290.22,121.46,285.85,123.71,281.81Z"/>
  <g>
    <path class="cls-17" d="M128.21,289.05c1.32.9,2.64,1.8,3.92,2.78,3,2.67,5.34,6.06,8.07,9,7.72,8.89,17.37,15.74,26.68,22.82a46.6,46.6,0,0,0-9.38,3.88c-7,4.28-14.29,8.12-20.9,13-7.39,4.83-13.86,10.86-20.83,16.24a98.05,98.05,0,0,1-26,14.75c-2.83-2.25-5.84-4.5-7.55-7.77-2.34-4.39-3.35-9.32-4.74-14.05.42-.85.81-1.71,1.17-2.59C89.3,341.22,102,341.81,113,337.05c5.23-2.06,7.94-7.17,11.23-11.34,2.12-1.77,5.74-2.52,6.14-5.73-.31-2.45-1.55-4.63-2.28-7A40.72,40.72,0,0,1,128.21,289.05Z"/>
    <path class="cls-17" d="M35.59,386.68c4.17-3.06,9.49-3.74,14.53-3.57,3.74.33,7.36,1.43,11,2.2-3.81,4.45-8,8.64-11.13,13.62-3.43,5.49-3.85,12.16-4.14,18.46C37.94,414.87,28,412,25.13,403.17l-.58-1.41C27.41,396.23,30.22,390.24,35.59,386.68Z"/>
  </g>
  <path class="cls-18" d="M105.08,304c1.49-.77,3-1.43,4.59-2.08,3.3,8.74,7.42,17.57,14.6,23.82-3.29,4.17-6,9.28-11.23,11.34-11,4.76-23.74,4.17-34.38,10.11-.14-4.63-.8-9.39.72-13.88a57.72,57.72,0,0,1,9.48-17.41C93,310.42,99.26,307.29,105.08,304Z"/>
  <path class="cls-19" d="M309.58,302.64c4.45-.95,8.6,1.69,12.75,2.9,3.82,1.6,8.77,2.15,11.07,6,1.82,5.34-3.47,9.14-7.64,11.14-3.81,1.67-8.38,4.23-12.49,2-5.19-2.57-6.68-8.73-7.77-13.93A7.31,7.31,0,0,1,309.58,302.64Z"/>
  <path class="cls-20" d="M91.52,310.47a42.67,42.67,0,0,1,13.56-6.5c-5.82,3.32-12.07,6.45-16.22,11.9a57.72,57.72,0,0,0-9.48,17.41c-1.52,4.49-.86,9.25-.72,13.88-.36.88-.75,1.74-1.17,2.59-5.51,7-5.47,16.75-1.81,24.62-4.63.09-9.26.07-13.88-.2-.29-8.83-1-17.92,1.64-26.48C67.48,332.25,78.07,318.87,91.52,310.47Z"/>
  <path class="cls-21" d="M303.3,336c4-1.73,9.23,1.56,9,6-.67,4.58-6.2,5.12-9.74,6.45s-7.17-1.8-6.73-5.4C296.58,339.43,299.9,337,303.3,336Z"/>
  <path class="cls-22" d="M75.68,374.37C72,366.5,72,356.78,77.49,349.75c1.39,4.73,2.4,9.66,4.74,14.05,1.71,3.27,4.72,5.52,7.55,7.77A114.89,114.89,0,0,1,75.68,374.37Z"/>
  <path class="cls-23" d="M40.27,361.82A91.69,91.69,0,0,1,50.12,360a80.43,80.43,0,0,1,.07,10.53c-4-1-7.89-2.09-11.93-2.7.89-.7,1.8-1.38,2.71-2C40.74,364.46,40.51,363.14,40.27,361.82Z"/>
  <path class="cls-24" d="M25.53,371.52c3.73-4.77,9.12-7.72,14.74-9.7.24,1.32.47,2.64.7,4-.91.67-1.82,1.35-2.71,2-1.39,1.08-2.68,2.28-4,3.47C31.37,371.44,28.45,371.52,25.53,371.52Z"/>
  <path class="cls-25" d="M266.82,366.11c5.34,5.65,12.94,8,19.76,11.33,5.22,2.53,10.9,3.77,16.41,5.47l-1.52.2c-5.05,0-9.9-1.91-14.86-2.73-5.73-1.47-11.85-2.05-17.11-4.9C267.76,372.68,267.5,369.27,266.82,366.11Z"/>
  <path class="cls-26" d="M24.72,371.52h.81c2.92,0,5.84-.08,8.75-.21.85,2.14,1.17,4.81,3.27,6.15,3.77,2.71,8.28,4,12.57,5.65-5-.17-10.36.51-14.53,3.57-5.37,3.56-8.18,9.55-11,15.08-4.6-7.91-4-17.46-1.81-26C23.31,374.29,24,372.91,24.72,371.52Z"/>
  <path class="cls-27" d="M18.68,394c-.21-6.28.66-12.88,4.06-18.3-2.21,8.56-2.79,18.11,1.81,26l.58,1.41c.11,4.28-.43,8.55-.38,12.84C19.9,409.75,19.3,401.63,18.68,394Z"/>
  <path class="cls-28" d="M270.17,387.71a93.42,93.42,0,0,1,12,2.92c-4.51,3.33-9.48,5.95-14,9.26Q269.27,393.81,270.17,387.71Z"/>
  <g>
    <path class="cls-29" d="M197.6,419.54a212.59,212.59,0,0,0,61-26.76c-1.49,5.58-3.55,11.14-7.21,15.68A76,76,0,0,1,225,429.09c-4.81,2.22-9.49,5.27-14.88,5.76-7.08,0-14.26-.16-21.11-2.12A85,85,0,0,1,168,423.39C178,423.43,187.89,421.72,197.6,419.54Z"/>
    <path class="cls-29" d="M25.13,403.17c2.9,8.82,12.81,11.7,20.75,14.22l.07,1a81.44,81.44,0,0,0,4.17,16.48c-6.11-2-11.62-5.45-16.79-9.21C29.89,423,26.54,420,24.75,416,24.7,411.72,25.24,407.45,25.13,403.17Z"/>
  </g>
  <path class="cls-30" d="M278.62,405.64c14.26-9.93,32.41-12,49.36-11.29,8.44,0,17.53,2.92,22.77,9.87,5.18,7.42,4.18,17.25,2.26,25.59-1.05,1.93-2.24,3.78-3.4,5.64-3.46-2.06-4.89-5.79-6-9.45-.69-2.49-3.2-4-5.64-4.34-2.61.45-5.14,2.51-5.2,5.32-.24,3.58-.1,7.18-.42,10.77A43.67,43.67,0,0,1,310,434.91c-2.59-.88-3.17-3.83-4.27-6a6,6,0,0,0-8.16-4.35c-3.84,2.73-2.78,8.09-3.31,12.17-4.43-.67-9.4-.88-12.87-4.08-4.53-4.22-7.87-10.28-7.36-16.63C274.23,412.12,276.27,408.64,278.62,405.64Z"/>
  <path class="cls-31" d="M362.48,401.27c.41-1.51,1.86-2.45,2.82-3.62,1.88,6.22,3.47,12.53,5.29,18.77.87,2.58,1.61,5.4,3.59,7.4,2.15,1.64,4.86,2.27,7.37,3.17l1.48-2.12c-.41,4.57.18,9.64-2.45,13.67-5.95.48-11.66-2-17.44-3,.63-7.81,3.23-15.57,1.84-23.44C364.47,408.4,362.83,405,362.48,401.27Z"/>
  <path class="cls-32" d="M269.67,415.65c2-4.1,5.34-7.32,8.95-10-2.35,3-4.39,6.48-4.59,10.38-.51,6.35,2.83,12.41,7.36,16.63,3.47,3.2,8.44,3.41,12.87,4.08-.63,2.69-1.22,5.4-1.81,8.1-6.64-.61-13.49-2.24-18.8-6.49C267.11,433,265.85,422.93,269.67,415.65Z"/>
  <path class="cls-33" d="M244.83,429.85c4.31-2.86,7.8-6.73,11.68-10.11a61.14,61.14,0,0,0,2.28,17c-7.67-.05-15.37.2-23-.67C238.68,433.83,241.78,431.87,244.83,429.85Z"/>
  <path class="cls-34" d="M408.61,432.09c.34-4.16.56-8.4,2-12.35a34.81,34.81,0,0,1-4.54,20.33,18.16,18.16,0,0,1-12.44.28c-1.91-5.2.57-10.87-.44-16.27,1.87,2.34,3.6,5,6.44,6.32S405.59,431.72,408.61,432.09Z"/>
  <path class="cls-35" d="M112.86,427c18.18.17,36.78,1,54.46-4l.66.37a85,85,0,0,0,21.07,9.34c6.85,2,14,2.15,21.11,2.12-9,5.28-19.28,7.63-29.35,9.86-15.06,3-30.25,6.28-45.7,5.77A54.94,54.94,0,0,1,112.86,427Z"/>
  <path class="cls-36" d="M75.73,423.9c12.34,1.5,24.75,2.18,37.13,3.1a54.94,54.94,0,0,0,22.25,23.48c-11.94,1-23.83-.93-35.67-2.22a42.38,42.38,0,0,1-9.08-1.82A40.6,40.6,0,0,1,75.73,423.9Z"/>
  <path class="cls-37" d="M343.64,426c1.08,3.66,2.51,7.39,6,9.45,1.16-1.86,2.35-3.71,3.4-5.64-.93,5.69-4.4,11.11-10.16,12.81A103.75,103.75,0,0,0,343.64,426Z"/>
  <path class="cls-38" d="M305.73,428.91c1.1,2.17,1.68,5.12,4.27,6a43.67,43.67,0,0,0,22.38,2.84c-.81,2.53-1.5,5.09-2.15,7.66-8.79.3-17.58.4-26.38.25C304.65,440.1,305.88,434.56,305.73,428.91Z"/>
</svg>
