<svg id="Layer_1" data-name="Layer 1" xmlns="http://www.w3.org/2000/svg" viewBox="0 0 500.78 456.72">
  <defs>
    <style>
      .cls-1 {
        fill: #f7efed;
      }

      .cls-2 {
        fill: #fafcfd;
      }

      .cls-3 {
        fill: #0b1f2e;
      }

      .cls-4 {
        fill: #f9eeed;
      }

      .cls-5 {
        fill: #babbc1;
      }

      .cls-6 {
        fill: #bfbdbe;
      }

      .cls-7 {
        fill: #f7eeed;
      }

      .cls-8 {
        fill: #bfbcbe;
      }

      .cls-9 {
        fill: #fcc0bb;
      }

      .cls-10 {
        fill: #ec4b23;
      }

      .cls-11 {
        fill: #f8eded;
      }

      .cls-12 {
        fill: #faeeea;
      }

      .cls-13 {
        fill: #bebebd;
      }

      .cls-14 {
        fill: #c0bcbc;
      }

      .cls-15 {
        fill: #ec4a23;
      }

      .cls-16 {
        fill: #b64029;
      }

      .cls-17 {
        fill: #0b1f2d;
      }

      .cls-18 {
        fill: #f9eeec;
      }

      .cls-19 {
        fill: #091f2e;
      }

      .cls-20 {
        fill: #ec4b22;
      }

      .cls-21 {
        fill: #bfbcbd;
      }

      .cls-22 {
        fill: #0a1f2d;
      }

      .cls-23 {
        fill: #b93f26;
      }

      .cls-24 {
        fill: #ed4a23;
      }

      .cls-25 {
        fill: #c0bdbe;
      }

      .cls-26 {
        fill: #e94b24;
      }

      .cls-27 {
        fill: #0f1e2a;
      }

      .cls-28 {
        fill: #b84025;
      }

      .cls-29 {
        fill: #ee4a22;
      }

      .cls-30 {
        fill: #eb4b24;
      }

      .cls-31 {
        fill: #b83f26;
      }

      .cls-32 {
        fill: #fbc2bd;
      }

      .cls-33 {
        fill: #b83f25;
      }
    </style>
  </defs>
  <g>
    <path class="cls-1" d="M0,0H.26A3.19,3.19,0,0,0,0,.26Z"/>
    <path class="cls-1" d="M154,122c3.79-2,9.2-2.94,12.58.33,4.06,3.63,5.16,9.24,6,14.36,1.1,7.38,2.18,14.85,1.57,22.32-.37,5.4-3.1,10.16-5,15.11a355,355,0,0,0-15.36,49.89c-.87,4.42-2.92,8.8-2.29,13.38,1.48,2,4.57,4,6.9,2.12,2.84-2,3-5.78,4.61-8.56,8.39-11.1,13.54-24.09,19.22-36.67,2.11-4.75,3.85-9.65,5.57-14.55,2.19-6.3,5.2-12.28,7.22-18.65,3-9.45,6-19.13,11.61-27.4,3.14-3.17,8.3-4.68,12.45-2.75,5.18,3.89,7.74,10.63,7.52,17-.17,10.43-.76,20.94.79,31.3,1.58,11.41,3.93,23.09,10.1,33-2.59,2.59-5.73,4.47-8.62,6.68a154.19,154.19,0,0,0-49.09,71.11c-1.05,3.26-2.09,6.53-3.38,9.71-4-1.24-8.16-2.63-12.35-1.71-3.83.64-6.91,3.14-9.87,5.48l-.16-.88c-.61-4.82,0-9.79-1.45-14.51-4.27-15.85-16.12-28.44-29.59-37.21-4.23-3-9-5.14-13.21-8.06a409.48,409.48,0,0,1,17-79c3-8.35,6.23-16.58,9.17-24.94C140.06,131.65,146.76,126,154,122Z"/>
    <path class="cls-1" d="M236.81,166a110.35,110.35,0,0,1,29.62,3.25c8.63,2,17.35,4.26,25.26,8.32.18,3.38-1,7.46-3.42,9.79-11.92,4.24-23.81,8.85-34.83,15.15a47.08,47.08,0,0,1-8,4.25A95,95,0,0,1,236.81,166Z"/>
    <path class="cls-1" d="M331,189.09a43.43,43.43,0,0,1,10.91-1.85c20.26-1.77,40.89-.8,60.62,4.37,18.6,5.42,36.54,14.72,49.8,29.08,1.16,1.39,2.59,2.76,3,4.6,2.06,15.12.84,30.4,0,45.57-5.39.28-11,.33-16,2.58-9.68,4.14-16.92,13.06-20,23-3.72,10.06-4,20.94-3.56,31.53.46,13.47,3.31,27.16,10.4,38.78,3.56,6,8.35,11.07,13,16.17-3.83,5.75-7.8,11.74-13.31,16a212.56,212.56,0,0,1-51.54,15.47c-7.88,1.3-15.75,2.91-23.75,3.15-4.85.14-9.69-.23-14.52-.43,7.6-8.92,13.45-19.7,14.71-31.5,1.78-13.52-.31-28-8.07-39.44a43.43,43.43,0,0,0-16.12-14.89c-6.07-3.4-12.58-6.53-19.64-6.95-10.67-.63-21.52,0-31.81,3.1-9.06,2.71-17.92,6-26.86,9.08-7.15,2.4-13.85,6.28-21.39,7.34-8.21,1.27-16.53-.17-24.77.66-4.32.47-7.82,3.34-11,6l-.61.56a34.16,34.16,0,0,1-1.67-13.19c1.17-14.69,4.35-29.12,7.83-43.41a190.26,190.26,0,0,1,9.41-26.41c2.17-4.89,3.37-10.11,4.86-15.22,4.34-7.64,10.86-13.73,17.2-19.7,15.15-14.35,33.54-24.84,52.83-32.55,1.14.26,2.28.51,3.43.75a69,69,0,0,1,6.2,15.07L288.87,218c-1.24,1.33-3.69,2-3.55,4.16-.23,2,.1,4.41,2.16,5.32,2.56.68,5.24.09,7.81-.29a71.75,71.75,0,0,1,18.63-.68c4.68.2,8.21,4.32,12.92,4.2,2.39.11,3.62-2.32,4.29-4.25,1.46-4.38,2.87-8.88,5.62-12.66,2.3-3.63,5.85-6.15,8.78-9.21,2.72-2.42,1.19-8.26-2.67-8.24-3.19-.4-5.32,2.49-8.12,3.47C333.23,196.32,331.42,192.9,331,189.09Zm88.82,32.79c-3.16,2.68-5.07,6.5-7.87,9.54-6.07-.56-11.83-3-17.94-3.15-2-.11-4.47.34-5.31,2.44-.75,2.31-.78,5.59,2,6.54,4.85,1.76,10.14,1.68,15.08,3.19-2.27,4.91-6.49,9-7.26,14.54a4.91,4.91,0,0,0,7.57,4.07c4.11-4.43,5.66-10.77,10.23-14.84,5.23-.34,9.59,5.7,15.13,4.2,2.59-1.25,2.66-4.52,2.08-6.95-2.39-3.28-6.71-4-10-6.15-.72-3.49,4.16-5.75,4.13-9.41C428.52,221.87,422.72,219.26,419.85,221.88Zm-81.43,15.63c-2.16.65-3.28,2.84-4.24,4.7A36.52,36.52,0,0,0,330.8,253c-.25,3.27,3.07,5.76,6.18,5.41,6.17-.32,11.83-3.35,17-6.55,3.75-1.88,3.85-8,.18-10C349.56,238.94,344,236.56,338.42,237.51Zm-58,20c-5.29,2.53-7.12,8.94-11.68,12.23-7.11.38-14.15-2.63-21.24-1.09-3.79,1.84-2.94,8.59,1.3,9.42,4.91.88,10,.6,14.91,1.45-2.24,6-7.1,11.51-6.32,18.23.59,3.26,4.57,3.37,7.12,2.67,1.81-1.25,2.52-3.47,3.38-5.39a89.55,89.55,0,0,1,5.67-12.74c6.74-.2,12.35,4.07,18.54,6,4.35,1.86,8.64-5.27,4.58-8-4.86-3.77-11.24-4.67-16.33-8.07,2.31-3.94,8.2-6.89,6.88-12.1C286.68,256.86,282.9,256.77,280.41,257.5Z"/>
    <path class="cls-1" d="M66.84,277.07c6.38-8.81,17.71-12.48,28.12-13.44,12.43-.24,26.34-.29,36.71,7.6,6.9,7.53,12.23,17.3,12.15,27.75.13,6.46-.9,13.12-4,18.87-4.42,7.4-13.38,9.33-21.24,10.69-9.46,1.29-19.72.1-27.78-5.34-6.51-4.38-12.93-9.54-16.23-16.86C69.68,297.31,69.31,286.85,66.84,277.07Z"/>
  </g>
  <path class="cls-2" d="M220,110a30.87,30.87,0,0,1,18.93-9.25c10-.81,20.53,3.73,26.12,12.21,4.82,6.61,7.08,14.58,9.8,22.19,1.36,3.52,1,7.72,3.33,10.83,1.89-8,3.42-16.56,8.48-23.34,3.35-4.38,7.32-8.8,12.83-10.32a24.07,24.07,0,0,1,21,3.14c7.9,5.49,13.74,13.4,18.42,21.7,5.87,9.86,10,20.64,13.6,31.51a28.14,28.14,0,0,0,1.42,2.79c12.12-1.56,24.33.28,36.34,2,25.94,3.63,51,15.07,69.86,33.42,4.09,3.89,8.63,8,10.2,13.59,1.32,5.75,1.2,11.69,1.41,17.54.07,10.71.28,21.48-1.22,32.11a58,58,0,0,0,.45,15.78c1.49,10.64,1.48,21.4,1.38,32.11-.05,5.36-1.15,10.66-1,16,7,2.11,15,1,21.39,5.19,4.52,3.4,9,8.59,7.8,14.69-2,10.92-9.66,19.93-18.89,25.72-8.77,6-19.16,8.74-29.11,12-4.08,4.62-7.08,10.14-11.61,14.39a96.41,96.41,0,0,1-25.81,19.91c-9.83,4.89-20.3,8.26-30.7,11.67-23.45,6.21-48.29,8.1-72.24,3.79-3.3-.51-6.84-2.05-10.08-.48-4.39,1.9-8.59,4.2-13,6.1-10.2,4.5-21.17,6.79-32,9.11-10.14,1.77-20.52-.39-29.92-4.26-7.63-3.5-14.47-10.95-14-19.82-.17-10.36,5.76-19.24,8.36-28.94a140,140,0,0,1-42.15-27.47c-5-4.59-10.84-8.83-13.83-15.12-2.7-6-.15-13-1.86-19-5.07-2.42-10.57-3.85-15.79-5.93-3.86,4.27-7.56,8.74-12.05,12.39-9.7,7.4-21.63,12.09-33.89,12.29a54.87,54.87,0,0,1-26.2-6.89c-9.86-5.93-17.59-14.82-23.58-24.54A51.7,51.7,0,0,1,44,308c-.44-1.76-.41-3.85-1.87-5.15-3.31-3.36-7-6.37-9.9-10.13-5.46-7.11-10.9-14.42-14.34-22.76-3.79-9.82-6.05-20.4-5-31A89.5,89.5,0,0,1,24.05,204c4.27-6.24,8.74-12.56,15-17,11.5-10.07,26.86-14.91,42-15.28,6.29-.08,12.43,1.43,18.65,2.1a41.5,41.5,0,0,0,1.94-4.37c3.31-9.44,8.08-18.28,12.87-27,6.87-11.65,15.63-22.37,26.6-30.39A37.9,37.9,0,0,1,159,104.76a24,24,0,0,1,20.48,8.8c4.29,4.54,5.9,10.68,7.72,16.48,4.32-2.89,7.36-7.31,11.8-10,4.46-3.13,9.74-4.69,15-5.71C216.64,114,218.22,111.69,220,110Zm.29,6.27c-2.63,4.09-8,2.42-11.9,4.11-10.52,3.78-17.58,13-24.1,21.55-1.16-7.56-2-15.5-6-22.18-3.39-5.76-9.44-10.33-16.32-10.43-9.16-.39-17.17,5.13-23.78,10.88-17.45,15.54-27.47,37.41-35.41,59-6-.43-11.74-2.54-17.79-2.53C62.52,175,39.75,186.84,28.24,206.21A74.64,74.64,0,0,0,17.67,250C19.8,269.67,31.3,287.24,46,299.94c2.16,1.65,2,4.57,2.47,7C50,317.91,56.18,327.52,63,336c6.12,7.05,13.33,13.68,22.36,16.68,15.56,5.69,33.57,2.24,46.68-7.66,5.8-4,9.93-9.72,14.14-15.23,4.74,1.31,9.05,3.76,13.74,5.22,3.08,1,6.18,1.88,9.19,3,.47,7.73-2.47,16.66,2.42,23.44,15.42,16.62,34,30.75,55.36,38.7-.94,8.12-5.45,15.21-7.69,23-1.48,5.23-2.55,11.3.44,16.21,4.17,7.16,12.6,10.2,20.36,11.47,16.28,2.41,32.63-2.19,47.6-8.28,5.64-2.15,10.68-5.76,16.48-7.45,5.06.4,9.9,2.2,15,2.68,32,4,64.91-1.87,93.81-15.93a91,91,0,0,0,33.7-30.33c1.5-2.06,2.82-4.8,5.65-5.16,11.41-2.63,22.78-6.75,31.94-14.24,5.67-4.61,10.18-11,11.57-18.26,1-5-2.62-9.63-6.95-11.62-5.59-2.42-11.87-1.87-17.68-3.39a7.75,7.75,0,0,1-4.27-3c-.62-4.95.67-9.9.76-14.86.3-11,.32-22.15-1.13-33.12-.61-5-1.54-10-.85-15,2.31-16.12,2.05-32.48.8-48.67-.22-4-2.73-7.38-5.41-10.18a114.21,114.21,0,0,0-24.4-19.57c-21.8-13.06-47.41-18.3-72.58-18.89-4.59-.12-9.15.69-13.74.34-3.67-10.19-6.88-20.6-11.93-30.23-4.83-9.31-10.29-18.77-18.74-25.27-4.77-3.8-11.25-5.78-17.25-4.16-6.11,1.32-10.46,6.39-13.49,11.54-5.76,10.48-6.41,22.63-8.11,34.2-1.77-.63-3.87-1.23-4.22-3.39-4.24-13.34-6.39-27.52-13.2-39.92-3.91-7.14-11.07-12.79-19.4-13.27C234.73,104.32,225.81,109.15,220.29,116.27Z"/>
  <path class="cls-3" d="M220.29,116.27c5.52-7.12,14.44-12,23.61-10.85,8.33.48,15.49,6.13,19.4,13.27,6.81,12.4,9,26.58,13.2,39.92.35,2.16,2.45,2.76,4.22,3.39,1.7-11.57,2.35-23.72,8.11-34.2,3-5.15,7.38-10.22,13.49-11.54,6-1.62,12.48.36,17.25,4.16,8.45,6.5,13.91,16,18.74,25.27,5.05,9.63,8.26,20,11.93,30.23,4.59.35,9.15-.46,13.74-.34,25.17.59,50.78,5.83,72.58,18.89A114.21,114.21,0,0,1,461,214c2.68,2.8,5.19,6.16,5.41,10.18,1.25,16.19,1.51,32.55-.8,48.67-.69,5,.24,10,.85,15,1.45,11,1.43,22.08,1.13,33.12-.09,5-1.38,9.91-.76,14.86a7.75,7.75,0,0,0,4.27,3c5.81,1.52,12.09,1,17.68,3.39,4.33,2,7.95,6.64,6.95,11.62-1.39,7.26-5.9,13.65-11.57,18.26-9.16,7.49-20.53,11.61-31.94,14.24-2.83.36-4.15,3.1-5.65,5.16a91,91,0,0,1-33.7,30.33c-28.9,14.06-61.86,20-93.81,15.93-5.06-.48-9.9-2.28-15-2.68-5.8,1.69-10.84,5.3-16.48,7.45-15,6.09-31.32,10.69-47.6,8.28-7.76-1.27-16.19-4.31-20.36-11.47-3-4.91-1.92-11-.44-16.21,2.24-7.76,6.75-14.85,7.69-23-21.38-7.95-39.94-22.08-55.36-38.7-4.89-6.78-1.95-15.71-2.42-23.44-3-1.16-6.11-2.07-9.19-3-4.69-1.46-9-3.91-13.74-5.22C142,335.31,137.82,341.06,132,345c-13.11,9.9-31.12,13.35-46.68,7.66-9-3-16.24-9.63-22.36-16.68-6.8-8.49-13-18.1-14.48-29.1-.5-2.4-.31-5.32-2.47-7C31.3,287.24,19.8,269.67,17.67,250a74.64,74.64,0,0,1,10.57-43.8C39.75,186.84,62.52,175,85,176.62c6,0,11.8,2.1,17.79,2.53,7.94-21.54,18-43.41,35.41-58.95,6.61-5.75,14.62-11.27,23.78-10.88,6.88.1,12.93,4.67,16.32,10.43,4.05,6.68,4.85,14.62,6,22.18,6.52-8.59,13.58-17.77,24.1-21.55C212.3,118.69,217.66,120.36,220.29,116.27Zm17.32.37a19.14,19.14,0,0,0-9.74,7.49,23.08,23.08,0,0,0,3.91,5.68c1.87,3.53,3.81,7.14,4.41,11.15.76,4.83.28,9.74.25,14.6,9.55.07,19.14.68,28.44,3-1.06-6.83-3.6-13.29-5.21-20-1.93-7-4.28-14.43-9.81-19.43C246.59,116,241.81,115.87,237.61,116.64ZM154,122c-7.26,4-14,9.61-18,16.9-3.92,3.3-6.18,8-8.79,12.26-5.17,8.55-9,17.8-12.78,27a323.8,323.8,0,0,0-11,41.34c-1.14,6-2.57,12.1-2.44,18.27,2.18,2.68,5.74,3.63,8.78,5,4.26,2.92,9,5.08,13.21,8.06,13.47,8.77,25.32,21.36,29.59,37.21,1.43,4.72.84,9.69,1.45,14.51-.14,5.64-1.83,11-3.26,16.42,3.55,2.53,7.7,3.94,11.73,5.49a18.18,18.18,0,0,0,8.31,1.52,66.16,66.16,0,0,0,2-13.78c1.36-4.14,2.57-8.33,3.65-12.54,1.29-3.18,2.33-6.45,3.38-9.71A154.19,154.19,0,0,1,228.92,219c2.89-2.21,6-4.09,8.62-6.68-6.17-9.91-8.52-21.59-10.1-33-1.55-10.36-1-20.87-.79-31.3.22-6.37-2.34-13.11-7.52-17-4.15-1.93-9.31-.42-12.45,2.75-6.59,4.4-11.23,11-15.38,17.6-7.33,11.81-12.08,24.93-17.06,37.83-4.18,11.41-7.06,23.23-10.13,35a45.41,45.41,0,0,0-1.05,6.87c-1.62,2.78-1.77,6.61-4.61,8.56-2.33,1.87-5.42-.11-6.9-2.12-.63-4.58,1.42-9,2.29-13.38a355,355,0,0,1,15.36-49.89c1.89-4.95,4.62-9.71,5-15.11.61-7.47-.47-14.94-1.57-22.32-.86-5.12-2-10.73-6-14.36C163.22,119.1,157.81,120,154,122Zm141.12,19c-1.95,8.09-3.26,16.51-2.36,24.85,2.92,1.64,6,2.92,9,4.4,5-.17,10.25-1.4,14.89,1.05,3.86,1.46,6.09,5.24,9.5,7.27,4.26.33,8.49-.62,12.68-1.22-.78-4.79-2.94-9.17-4.57-13.69a115,115,0,0,0-13.48-26.52c-3.51-4.86-7.88-9.73-14-11C299.8,127.63,296.94,134.92,295.14,141ZM236.81,166a95,95,0,0,0,8.64,40.76,47.08,47.08,0,0,0,8-4.25c11-6.3,22.91-10.91,34.83-15.15,2.46-2.33,3.6-6.41,3.42-9.79-7.91-4.06-16.63-6.34-25.26-8.32A110.35,110.35,0,0,0,236.81,166Zm63.32,20.21c-1.3,4.57-.17,9.33.58,13.88,1.07,5.19,1.57,10.54,3.5,15.52,6.25.14,12.39,1.35,18.55,2.3,1.87-3.09,4-6.2,4.75-9.79-3.28-7.83-6.66-15.68-10.4-23.31C314.12,177.79,301.82,178.66,300.13,186.17Zm30.9,2.92c.39,3.81,2.2,7.23,3.71,10.68,2.8-1,4.93-3.87,8.12-3.47,3.86,0,5.39,5.82,2.67,8.24-2.93,3.06-6.48,5.58-8.78,9.21-2.75,3.78-4.16,8.28-5.62,12.66-.67,1.93-1.9,4.36-4.29,4.25-4.71.12-8.24-4-12.92-4.2a71.75,71.75,0,0,0-18.63.68c-2.57.38-5.25,1-7.81.29-2.06-.91-2.39-3.34-2.16-5.32-.14-2.17,2.31-2.83,3.55-4.16,1.49-.29,3-.62,4.47-.94a93.53,93.53,0,0,0-3.6-18.88,34.56,34.56,0,0,0-8.72,2.52c-19.29,7.71-37.68,18.2-52.83,32.55-6.34,6-12.86,12.06-17.2,19.7a41.1,41.1,0,0,0-3.24,3.84c-10.43,14.84-17.48,31.78-22.6,49.1-3.75,15.07-6.26,30.63-5.46,46.2,0,2.66,2,4.57,3.74,6.31,13.79,13.58,29.67,26.06,48.43,31.77,1.47.95,2.85,2,4.25,3.08.63,3.58,1.61,7.2,1.23,10.86-1.28,8.47-6.61,15.64-8.28,24-1.3,4.3,4.68,5.81,7.84,5.07,11.37-3,18.55-12.88,26.5-20.74,4.14-4.41,9.6-7.09,14.63-10.3,5.43-1,11-2.7,16.51-1.47a5.72,5.72,0,0,1,1,9c-3.72,1.15-7.73.39-11.46,1.47-8.45,3-15.34,9.17-20.78,16.17-2.92,3.83-6.23,7.52-10.8,9.39-1.66.48-2.26,2-2.58,3.57A45.58,45.58,0,0,0,268.1,438c11.74-3.94,23.54-8.22,33.95-15.06,8.23,1.69,16.42,3.79,24.82,4.47,18.52,2.32,37.41-.34,55.29-5.36,9.63-2.69,19.18-6,27.85-11.11,5.73-3.39,11.59-6.89,16-12,5.51-4.26,9.48-10.25,13.31-16,3.87-5.15,5.9-11.33,8.65-17.09,3.22-6.92,4.43-14.51,6.08-21.9,2.63-11.11,2.4-22.62,2.43-34,.32-13.07-1.32-26.07-1.06-39.14.8-15.17,2-30.45,0-45.57-.39-1.84-1.82-3.21-3-4.6-13.26-14.36-31.2-23.66-49.8-29.08-19.73-5.17-40.36-6.14-60.62-4.37A43.43,43.43,0,0,0,331,189.09ZM57,193.49c-5,2.38-9.87,5.73-12.75,10.52-3.51,2.22-5.75,5.81-7.41,9.52-2.92,3.55-4.12,8.18-5.78,12.4-2.91,7.67-3,16-2.6,24.09a33.61,33.61,0,0,0,3.37,12.06A49.38,49.38,0,0,0,43.1,281.34c4.09,6.89,12.27,10.25,15.64,17.58-.37,12.48,6.53,23.75,14.68,32.65a37.3,37.3,0,0,0,19,12c19.24,4.65,40.88-7,47.47-25.71,3.06-5.75,4.09-12.41,4-18.87.08-10.45-5.25-20.22-12.15-27.75-3.27-4.76-8.41-7.58-12.93-11-6.76-4.9-14.42-8.3-21.68-12.36-2.61-1.36-4.87-3.62-7.79-4.28-5-4.43-9.81-9-13.52-14.62-1.56-5.27-3.2-10.95-.75-16.24.53-1.91,1-3.84,1.32-5.78,2.69-2.27,6.12-5.05,9.82-3.21a30.92,30.92,0,0,1,2.58,4.33c-1.69,3.61-4.53,6.82-5,10.9.31,5.25,3.92,9.59,7.69,13,1.6-14.1,5-27.91,8.4-41.63A44.66,44.66,0,0,0,85,187.54,50.8,50.8,0,0,0,57,193.49ZM463.94,349c-2.16,4.35-2.49,9.29-4.22,13.79-1.36,3.64-2.9,7.24-3.61,11.08,10.21-2.38,20.28-7.51,26.63-16.08a6.54,6.54,0,0,0,1.36-5.65C477.39,351.07,470.67,350,463.94,349Z"/>
  <path class="cls-4" d="M237.61,116.64c4.2-.77,9-.63,12.25,2.49,5.53,5,7.88,12.46,9.81,19.43,1.61,6.7,4.15,13.16,5.21,20-9.3-2.31-18.89-2.92-28.44-3,0-4.86.51-9.77-.25-14.6-.6-4-2.54-7.62-4.41-11.15C232.26,124.87,234.67,120.52,237.61,116.64Z"/>
  <path class="cls-5" d="M227.87,124.13a19.14,19.14,0,0,1,9.74-7.49c-2.94,3.88-5.35,8.23-5.83,13.17A23.08,23.08,0,0,1,227.87,124.13Z"/>
  <g>
    <path class="cls-6" d="M295.14,141c1.8-6.12,4.66-13.41,11.67-14.89-5,7.67-5.46,17.06-6.74,25.87-.64,6.08-2.43,13,1.73,18.27-3-1.48-6.1-2.76-9-4.4C291.88,157.55,293.19,149.13,295.14,141Z"/>
    <path class="cls-6" d="M127.21,151.2c2.61-4.3,4.87-9,8.79-12.26-2.94,8.36-6.22,16.59-9.17,24.94a409.48,409.48,0,0,0-17,79c-3-1.41-6.6-2.36-8.78-5-.13-6.17,1.3-12.24,2.44-18.27a323.8,323.8,0,0,1,11-41.34C118.19,169,122,159.75,127.21,151.2Z"/>
  </g>
  <path class="cls-7" d="M306.81,126.15c6.13,1.3,10.5,6.17,14,11A115,115,0,0,1,334.3,163.7c1.63,4.52,3.79,8.9,4.57,13.69-4.19.6-8.42,1.55-12.68,1.22-3.41-2-5.64-5.81-9.5-7.27-4.64-2.45-9.93-1.22-14.89-1.05-4.16-5.28-2.37-12.19-1.73-18.27C301.35,143.21,301.77,133.82,306.81,126.15Z"/>
  <path class="cls-8" d="M191.3,151.32c4.15-6.61,8.79-13.2,15.38-17.6-5.65,8.27-8.62,17.95-11.61,27.4-2,6.37-5,12.35-7.22,18.65-1.72,4.9-3.46,9.8-5.57,14.55-5.68,12.58-10.83,25.57-19.22,36.67a45.41,45.41,0,0,1,1.05-6.87c3.07-11.74,5.95-23.56,10.13-35C179.22,176.25,184,163.13,191.3,151.32Z"/>
  <path class="cls-9" d="M300.13,186.17c1.69-7.51,14-8.38,17-1.4,3.74,7.63,7.12,15.48,10.4,23.31-.72,3.59-2.88,6.7-4.75,9.79-6.16-1-12.3-2.16-18.55-2.3-1.93-5-2.43-10.33-3.5-15.52C300,195.5,298.83,190.74,300.13,186.17Z"/>
  <path class="cls-10" d="M57,193.49a50.8,50.8,0,0,1,28-6c5.11,5.43,7.33,13.7,3.75,20.57a30.92,30.92,0,0,0-2.58-4.33c-3.7-1.84-7.13.94-9.82,3.21-2.81-4.16-5.72-8.49-10-11.25C63.54,193.91,60.15,193.66,57,193.49Z"/>
  <path class="cls-11" d="M85,187.54a44.66,44.66,0,0,1,14.81,2.81c-3.44,13.72-6.8,27.53-8.4,41.63-3.77-3.38-7.38-7.72-7.69-13,.5-4.08,3.34-7.29,5-10.9C92.3,201.24,90.08,193,85,187.54Z"/>
  <path class="cls-12" d="M44.2,204c2.88-4.79,7.8-8.14,12.75-10.52,3.2.17,6.59.42,9.34,2.25,4.31,2.76,7.22,7.09,10,11.25-.36,1.94-.79,3.87-1.32,5.78-3.81.56-6.75-2.6-10.29-3.43-7.16-1.81-14.63-.65-21.79.54C43.42,207.94,43.74,206,44.2,204Z"/>
  <path class="cls-13" d="M281,200.65a34.56,34.56,0,0,1,8.72-2.52,93.53,93.53,0,0,1,3.6,18.88c-1.49.32-3,.65-4.47.94l1.78-1.48a69,69,0,0,0-6.2-15.07C283.3,201.16,282.16,200.91,281,200.65Z"/>
  <g>
    <path class="cls-14" d="M36.79,213.53c1.66-3.71,3.9-7.3,7.41-9.52-.46,2-.78,3.93-1.28,5.87l-.26.8Q39.69,212,36.79,213.53Z"/>
    <path class="cls-14" d="M33.13,245.09c1.45-4.36,4.58-7.81,7.51-11.24a88.54,88.54,0,0,0,9.27,27.25l.36.58c-4.1,5.81-6.06,12.72-7.17,19.66a49.38,49.38,0,0,1-11.32-19.26C31.36,256.41,31.32,250.54,33.13,245.09Z"/>
    <path class="cls-14" d="M374.43,414.42A212.56,212.56,0,0,0,426,399c-4.37,5.14-10.23,8.64-16,12-8.67,5.07-18.22,8.42-27.85,11.11-17.88,5-36.77,7.68-55.29,5.36a76.32,76.32,0,0,0,9.29-10.31c4.83.2,9.67.57,14.52.43C358.68,417.33,366.55,415.72,374.43,414.42Z"/>
  </g>
  <path class="cls-15" d="M42.92,209.88c7.16-1.19,14.63-2.35,21.79-.54,3.54.83,6.48,4,10.29,3.43-2.45,5.29-.81,11,.75,16.24-5.76-3.7-12.94-4.37-19.59-3.43-5.78,1-10.6,4.59-15.55,7.48-.61-7.51-1.16-15.31,2-22.38Z"/>
  <path class="cls-16" d="M36.79,213.53q2.9-1.51,5.87-2.85c-3.21,7.07-2.66,14.87-2,22.38l0,.79c-2.93,3.43-6.06,6.88-7.51,11.24-1.81,5.45-1.77,11.32-1.35,17A33.61,33.61,0,0,1,28.41,250c-.44-8.09-.31-16.42,2.6-24.09C32.67,221.71,33.87,217.08,36.79,213.53Z"/>
  <path class="cls-17" d="M419.85,221.88c2.87-2.62,8.67,0,7.84,4,0,3.66-4.85,5.92-4.13,9.41,3.26,2.12,7.58,2.87,10,6.15.58,2.43.51,5.7-2.08,6.95-5.54,1.5-9.9-4.54-15.13-4.2-4.57,4.07-6.12,10.41-10.23,14.84a4.91,4.91,0,0,1-7.57-4.07c.77-5.51,5-9.63,7.26-14.54-4.94-1.51-10.23-1.43-15.08-3.19-2.75-.95-2.72-4.23-2-6.54.84-2.1,3.3-2.55,5.31-2.44,6.11.19,11.87,2.59,17.94,3.15C414.78,228.38,416.69,224.56,419.85,221.88Z"/>
  <path class="cls-18" d="M40.61,233.06c5-2.89,9.77-6.48,15.55-7.48,6.65-.94,13.83-.27,19.59,3.43,3.71,5.59,8.54,10.19,13.52,14.62-8.23.33-16.85.33-24.33,4.31-6.38,2.55-11.13,7.68-15,13.16a88.54,88.54,0,0,1-9.27-27.25Z"/>
  <path class="cls-19" d="M338.42,237.51c5.54-.95,11.14,1.43,15.72,4.37,3.67,2,3.57,8.13-.18,10-5.15,3.2-10.81,6.23-17,6.55-3.11.35-6.43-2.14-6.18-5.41a36.52,36.52,0,0,1,3.38-10.82C335.14,240.35,336.26,238.16,338.42,237.51Z"/>
  <path class="cls-20" d="M89.27,243.63c2.92.66,5.18,2.92,7.79,4.28,7.26,4.06,14.92,7.46,21.68,12.36,4.52,3.38,9.66,6.2,12.93,11-10.37-7.89-24.28-7.84-36.71-7.6-10.41,1-21.74,4.63-28.12,13.44l-.37-.62c-4.94-5.42-11.58-9-16.2-14.77l-.36-.58c3.9-5.48,8.65-10.61,15-13.16C72.42,244,81,244,89.27,243.63Z"/>
  <path class="cls-21" d="M207.75,256.74A41.1,41.1,0,0,1,211,252.9c-1.49,5.11-2.69,10.33-4.86,15.22a190.26,190.26,0,0,0-9.41,26.41c-3.48,14.29-6.66,28.72-7.83,43.41a34.16,34.16,0,0,0,1.67,13.19c-2.4,2.38-4.72,4.84-7.13,7.22-1.75-1.74-3.72-3.65-3.74-6.31-.8-15.57,1.71-31.13,5.46-46.2C190.27,288.52,197.32,271.58,207.75,256.74Z"/>
  <path class="cls-22" d="M280.41,257.5c2.49-.73,6.27-.64,6.81,2.58,1.32,5.21-4.57,8.16-6.88,12.1,5.09,3.4,11.47,4.3,16.33,8.07,4.06,2.74-.23,9.87-4.58,8-6.19-1.91-11.8-6.18-18.54-6A89.55,89.55,0,0,0,267.88,295c-.86,1.92-1.57,4.14-3.38,5.39-2.55.7-6.53.59-7.12-2.67-.78-6.72,4.08-12.25,6.32-18.23-4.94-.85-10-.57-14.91-1.45-4.24-.83-5.09-7.58-1.3-9.42,7.09-1.54,14.13,1.47,21.24,1.09C273.29,266.44,275.12,260,280.41,257.5Z"/>
  <path class="cls-23" d="M50.27,261.68c4.62,5.77,11.26,9.35,16.2,14.77-3.33,7.18-8.13,14.19-7.73,22.47-3.37-7.33-11.55-10.69-15.64-17.58C44.21,274.4,46.17,267.49,50.27,261.68Z"/>
  <path class="cls-24" d="M439.37,273.44c5-2.25,10.62-2.3,16-2.58-.26,13.07,1.38,26.07,1.06,39.14,0,11.34.2,22.85-2.43,34-1.65,7.39-2.86,15-6.08,21.9-2.75,5.76-4.78,11.94-8.65,17.09-4.69-5.1-9.48-10.19-13-16.17-7.09-11.62-9.94-25.31-10.4-38.78-.44-10.59-.16-21.47,3.56-31.53C422.45,286.5,429.69,277.58,439.37,273.44Zm2.86,25.48c-2,1.31-2.83,3.64-3.79,5.69-1.38,3.41-2.88,7.39-1.09,10.95,2.44,1.58,6.51,1.86,8.16-1a28.87,28.87,0,0,0,3.72-11.6C449.91,299.31,445,297.49,442.23,298.92Z"/>
  <path class="cls-25" d="M66.47,276.45l.37.62c2.47,9.78,2.84,20.24,7.77,29.27,3.3,7.32,9.72,12.48,16.23,16.86,8.06,5.44,18.32,6.63,27.78,5.34,7.86-1.36,16.82-3.29,21.24-10.69-6.59,18.67-28.23,30.36-47.47,25.71a37.3,37.3,0,0,1-19-12c-8.15-8.9-15.05-20.17-14.68-32.65C58.34,290.64,63.14,283.63,66.47,276.45Z"/>
  <path class="cls-26" d="M154.23,303.54c3-2.34,6-4.84,9.87-5.48,4.19-.92,8.38.47,12.35,1.71-1.08,4.21-2.29,8.4-3.65,12.54C166.26,310.87,157.72,310.14,154.23,303.54Z"/>
  <g>
    <path class="cls-27" d="M442.23,298.92c2.81-1.43,7.68.39,7,4a28.87,28.87,0,0,1-3.72,11.6c-1.65,2.87-5.72,2.59-8.16,1-1.79-3.56-.29-7.54,1.09-10.95C439.4,302.56,440.27,300.23,442.23,298.92Z"/>
    <path class="cls-27" d="M276.5,350.55c3.84-.93,7.7.73,11.52,1.18,2.69.68,6.59.25,7.74,3.46a4.75,4.75,0,0,1-2.27,7.11,23,23,0,0,1-15.67-2.17C273.7,358.94,272.78,352.66,276.5,350.55Z"/>
  </g>
  <path class="cls-28" d="M154.07,302.66l.16.88c3.49,6.6,12,7.33,18.57,8.77a66.16,66.16,0,0,1-2,13.78,18.18,18.18,0,0,1-8.31-1.52c-4-1.55-8.18-3-11.73-5.49C152.24,313.68,153.93,308.3,154.07,302.66Z"/>
  <path class="cls-29" d="M275.23,327.46c10.29-3.08,21.14-3.73,31.81-3.1,7.06.42,13.57,3.55,19.64,6.95A43.43,43.43,0,0,1,342.8,346.2c7.76,11.45,9.85,25.92,8.07,39.44-1.26,11.8-7.11,22.58-14.71,31.5-7.59-.34-15.28-1.16-22.8.27-4.23.76-7.85,3.17-11.31,5.57-10.41,6.84-22.21,11.12-33.95,15.06a45.58,45.58,0,0,1-18.22,2.15c.32-1.54.92-3.09,2.58-3.57,4.57-1.87,7.88-5.56,10.8-9.39,5.44-7,12.33-13.15,20.78-16.17,3.73-1.08,7.74-.32,11.46-1.47a5.72,5.72,0,0,0-1-9c-5.55-1.23-11.08.49-16.51,1.47a197.2,197.2,0,0,1-24.77-1.34,33.81,33.81,0,0,1-17.15-7.54c-1.4-1.05-2.78-2.13-4.25-3.08-5.29-3.4-11.46-5.5-16-10-4.78-4.54-9.13-9.51-13.82-14.15-4.45-4.51-7.53-10.09-10.84-15.43,3.22-2.69,6.72-5.56,11-6,8.24-.83,16.56.61,24.77-.66,7.54-1.06,14.24-4.94,21.39-7.34C257.31,333.48,266.17,330.17,275.23,327.46Zm1.27,23.09c-3.72,2.11-2.8,8.39,1.32,9.58a23,23,0,0,0,15.67,2.17,4.75,4.75,0,0,0,2.27-7.11c-1.15-3.21-5.05-2.78-7.74-3.46C284.2,351.28,280.34,349.62,276.5,350.55Z"/>
  <path class="cls-30" d="M463.94,349c6.73,1,13.45,2.05,20.16,3.14a6.54,6.54,0,0,1-1.36,5.65c-6.35,8.57-16.42,13.7-26.63,16.08.71-3.84,2.25-7.44,3.61-11.08C461.45,358.31,461.78,353.37,463.94,349Z"/>
  <path class="cls-31" d="M183.43,358.35c2.41-2.38,4.73-4.84,7.13-7.22l.61-.56c3.31,5.34,6.39,10.92,10.84,15.43,4.69,4.64,9,9.61,13.82,14.15,4.57,4.47,10.74,6.57,16,10C213.1,384.41,197.22,371.93,183.43,358.35Z"/>
  <path class="cls-32" d="M236.11,393.2a33.81,33.81,0,0,0,17.15,7.54A197.2,197.2,0,0,0,278,402.08c-5,3.21-10.49,5.89-14.63,10.3-7.95,7.86-15.13,17.76-26.5,20.74-3.16.74-9.14-.77-7.84-5.07,1.67-8.35,7-15.52,8.28-24C237.72,400.4,236.74,396.78,236.11,393.2Z"/>
  <path class="cls-33" d="M313.36,417.41c7.52-1.43,15.21-.61,22.8-.27a76.32,76.32,0,0,1-9.29,10.31c-8.4-.68-16.59-2.78-24.82-4.47C305.51,420.58,309.13,418.17,313.36,417.41Z"/>
</svg>
