<svg id="Layer_1" data-name="Layer 1" xmlns="http://www.w3.org/2000/svg" viewBox="0 0 476.41 506.69">
  <defs>
    <style>
      .cls-1 {
        fill: #6b9bd0;
      }

      .cls-2 {
        fill: #fbfcfd;
      }

      .cls-3 {
        fill: #0a1f2d;
      }

      .cls-4 {
        fill: #f7efed;
      }

      .cls-5 {
        fill: #ee4a22;
      }

      .cls-6 {
        fill: #ed4b22;
      }

      .cls-7 {
        fill: #0d1d2c;
      }

      .cls-8 {
        fill: #0c1e2c;
      }

      .cls-9 {
        fill: #b83f25;
      }

      .cls-10 {
        fill: #091f2e;
      }

      .cls-11 {
        fill: #091f2d;
      }

      .cls-12 {
        fill: #88c1ff;
      }

      .cls-13 {
        fill: #c0bdbe;
      }

      .cls-14 {
        fill: #fac3bf;
      }

      .cls-15 {
        fill: #bfbdc0;
      }

      .cls-16 {
        fill: #c1bdbc;
      }

      .cls-17 {
        fill: #b94026;
      }

      .cls-18 {
        fill: #ed4a24;
      }

      .cls-19 {
        fill: #c0bfbf;
      }

      .cls-20 {
        fill: #e64b28;
      }

      .cls-21 {
        fill: #f4f0f1;
      }

      .cls-22 {
        fill: #faedeb;
      }

      .cls-23 {
        fill: #c1bdbd;
      }

      .cls-24 {
        fill: #ed4b24;
      }

      .cls-25 {
        fill: #f7eeeb;
      }

      .cls-26 {
        fill: #c5bcbd;
      }

      .cls-27 {
        fill: #bebdbd;
      }

      .cls-28 {
        fill: #c1bec0;
      }

      .cls-29 {
        fill: #bb3f24;
      }

      .cls-30 {
        fill: #bfbdbd;
      }

      .cls-31 {
        fill: #c0bcbd;
      }

      .cls-32 {
        fill: #ba4026;
      }

      .cls-33 {
        fill: #c4c1bf;
      }

      .cls-34 {
        fill: #c1bcbe;
      }
    </style>
  </defs>
  <g>
    <path class="cls-1" d="M0,0H.26A3.19,3.19,0,0,0,0,.26Z"/>
    <path class="cls-1" d="M160.05,293.42c16,12.07,35.78,16.68,54.67,22l.34.93c-13.42-.27-26.54-3.55-39.4-7.14a148.14,148.14,0,0,1-15.32-5.42C160.3,300.34,160.21,296.88,160.05,293.42Z"/>
  </g>
  <path class="cls-2" d="M193,22c19.92-9.32,41.5-14.77,63.29-17.4,12.47-.59,25-.42,37.45,0A191,191,0,0,1,364,26c9.47,3.83,17,11.64,27.08,13.94,15.17,4.5,30.5,9,44.49,16.56,6.28,3.42,10.37,10,11.64,16.92,1.76,10.6-.95,21.26-4.43,31.22-.81,2.53-2.06,5.23-1.17,7.92,1.38,4.91,3.69,9.49,5.31,14.32,2.83,9.09,6.33,18,8.81,27.17,1.87,7.47,6.12,14,9.12,21,4,8.9,8.86,17.52,11.37,27,1.07,12.19-2.51,24.21-6.39,35.63-2.71,8.7-7.28,16.63-11.39,24.71a170.61,170.61,0,0,1-24.35,32.69c-3.46,3.27-6.9,6.56-10.28,9.93,1.58,11.29,1,23.06-3,33.81-.91,2.68-2.6,5.21-2.65,8.1.67,3.75,2.82,7,4,10.61,6.47,18.77,8.94,38.69,9.16,58.47-.15,6.68-1,13.34-1.06,20-.28,4.83,2.89,8.83,4.68,13.09,3.66,8.3,8.59,16.52,8.64,25.87.6,9-4.83,17.85-12.81,21.84-9.41,4.91-20.35,5.56-30.76,5.48-12.37-.83-25.11-1.06-36.78-5.71-5.05-2-8.79-6.16-12.23-10.22-11.5.68-23,1.55-34.47,2.2-3.31-.2-4.62,3.35-6.67,5.29-6,7.33-15.67,9.78-24.59,11.22-12.78,1.53-25.81,2.29-38.59.53-11.36-1.46-23.14-5.82-30-15.46-16.08,11.65-36.32,14.95-55.67,16.33-30.62.77-62-.28-91.22-10.29C54.92,490.64,40.45,481,34.08,465.88c-5.87-15.33-6.66-33-.37-48.36,6.21-13.59,18.1-24.74,32.44-29.23,11.36-3.44,23.48-2.29,34.89.3,2.11-19,9.81-37.15,20.94-52.58,1.64-2.34,3.68-4.45,4.85-7.08-.19-3.41-1.39-6.66-1.83-10-.84-4.9.36-9.79.86-14.65A166,166,0,0,1,88.75,270.2c-4-4.76-5.49-11.09-5.21-17.19a302.55,302.55,0,0,1,4.57-57.63,292.76,292.76,0,0,1,12.48-49.57c1.71-4.64,3.19-9.36,4.77-14C95,126.23,83.55,121.3,76.7,111.28c-4.3-5.78-6-13.87-3-20.57C78.68,81.44,88.06,75.87,97,71c9.29-4.59,18.88-8.57,28.48-12.45,7.48-3.1,15.89-4.48,22.27-9.79A207.81,207.81,0,0,1,193,22Zm21.47-3.32a228.32,228.32,0,0,0-58.77,30c-4.72,3.27-8.88,7.61-14.48,9.41s-11.49,3.74-17.06,6.09c-12.84,5.31-26,10.43-37.29,18.68-4.85,3.7-9.67,8.71-10,15.15.17,7,4.83,12.88,10,17.14,7.48,5.94,16.22,10,24.93,13.81-10.3,25.23-17,51.86-20.79,78.82-1.66,13-2.87,26.1-2.57,39.22.24,6.24-1.19,13.28,3,18.59a149.11,149.11,0,0,0,40.08,36.46c-.94,4.94-2.15,9.92-1.82,15,.29,4.39,1.85,8.54,3.19,12.69-15.27,18.39-26.78,41.1-27.46,65.38-5.52-1-10.78-3.28-16.4-3.75-7.85-.47-16-.57-23.45,2.31A48.25,48.25,0,0,0,34.6,432.25c-.6,8.25-.48,16.68,1.58,24.74a44,44,0,0,0,17.47,25.36c11.61,8.47,25.74,12.36,39.63,15.2a316.28,316.28,0,0,0,35.66,4c19.45.19,39.23,1.24,58.25-3.63a72.82,72.82,0,0,0,30.8-15c2.73,4.16,5.59,8.46,9.84,11.23,7.16,4.75,15.83,6.66,24.29,7.32,12.27.42,24.66.41,36.77-1.85,5.4-1.15,10.9-2.93,15.16-6.58,2.84-2.39,4.54-5.75,6.24-9,14.49-1,29-1.55,43.46-3,2.33,3.91,5.05,7.86,9.26,9.93,8.57,4.5,18.48,5.27,28,5.82a104.57,104.57,0,0,0,23.46-.16c6.28-.69,12.74-2.36,17.73-6.44a17.11,17.11,0,0,0,6.5-13.19c.49-12.1-7-22.38-11.55-33-2.64-5.29-1.62-11.33-1.26-17,1.26-11.33.19-22.72-.75-34A145.18,145.18,0,0,0,413,348.1c-1.14-2.29.74-4.49,1.47-6.58a57.35,57.35,0,0,0,4.73-32.89c-.14-1.79-.76-3.63-.24-5.39a69,69,0,0,1,6.22-6.11,161.29,161.29,0,0,0,30.76-40.2c8.25-15.4,15.22-32.2,15.42-49.93.42-8.28-4.4-15.42-7.45-22.77-4.2-9.86-10.22-19-12.82-29.47q-6-19.92-13.59-39.29c-.93-2.48-1.87-5.24-.83-7.85,2.65-7.66,5.58-15.39,6.09-23.57.28-5.24.39-10.83-2.17-15.59C438.39,64.09,434.38,61,430,59c-13.92-6.63-28.67-11.3-43.48-15.46-7.23-2-12.92-7.21-19.53-10.53-18.78-10.13-38.89-18.24-60-21.73-12.84-2.38-26-2.64-39-2.44C249.76,9.21,231.75,13,214.46,18.67Z"/>
  <path class="cls-3" d="M214.46,18.67C231.75,13,249.76,9.21,268,8.83c13-.2,26.14.06,39,2.44,21.14,3.49,41.25,11.6,60,21.73,6.61,3.32,12.3,8.5,19.53,10.53C401.35,47.69,416.1,52.36,430,59c4.36,2,8.37,5.1,10.52,9.47,2.56,4.76,2.45,10.35,2.17,15.59-.51,8.18-3.44,15.91-6.09,23.57-1,2.61-.1,5.37.83,7.85q7.62,19.34,13.59,39.29c2.6,10.48,8.62,19.61,12.82,29.47,3.05,7.35,7.87,14.49,7.45,22.77-.2,17.73-7.17,34.53-15.42,49.93a161.29,161.29,0,0,1-30.76,40.2,69,69,0,0,0-6.22,6.11c-.52,1.76.1,3.6.24,5.39a57.35,57.35,0,0,1-4.73,32.89c-.73,2.09-2.61,4.29-1.47,6.58A145.18,145.18,0,0,1,425.12,393c.94,11.31,2,22.7.75,34-.36,5.65-1.38,11.69,1.26,17,4.58,10.66,12,20.94,11.55,33a17.11,17.11,0,0,1-6.5,13.19c-5,4.08-11.45,5.75-17.73,6.44a104.57,104.57,0,0,1-23.46.16c-9.5-.55-19.41-1.32-28-5.82-4.21-2.07-6.93-6-9.26-9.93-14.45,1.47-29,2.05-43.46,3-1.7,3.21-3.4,6.57-6.24,9-4.26,3.65-9.76,5.43-15.16,6.58-12.11,2.26-24.5,2.27-36.77,1.85-8.46-.66-17.13-2.57-24.29-7.32-4.25-2.77-7.11-7.07-9.84-11.23a72.82,72.82,0,0,1-30.8,15c-19,4.87-38.8,3.82-58.25,3.63a316.28,316.28,0,0,1-35.66-4c-13.89-2.84-28-6.73-39.63-15.2A44,44,0,0,1,36.18,457c-2.06-8.06-2.18-16.49-1.58-24.74a48.25,48.25,0,0,1,30.95-38.58c7.46-2.88,15.6-2.78,23.45-2.31,5.62.47,10.88,2.71,16.4,3.75.68-24.28,12.19-47,27.46-65.38-1.34-4.15-2.9-8.3-3.19-12.69-.33-5.07.88-10.05,1.82-15a149.11,149.11,0,0,1-40.08-36.46c-4.17-5.31-2.74-12.35-3-18.59-.3-13.12.91-26.22,2.57-39.22,3.83-27,10.49-53.59,20.79-78.82-8.71-3.8-17.45-7.87-24.93-13.81C81.69,110.89,77,105,76.86,98c.33-6.44,5.15-11.45,10-15.15,11.3-8.25,24.45-13.37,37.29-18.68,5.57-2.35,11.34-4.14,17.06-6.09S151,52,155.69,48.68A228.32,228.32,0,0,1,214.46,18.67Zm23.8,5.7c-6.57,2-13.45,2.87-19.95,5.15A215.65,215.65,0,0,0,153,65.07c-4.41,3.32-10,4.08-15.08,6.05a343.08,343.08,0,0,0-33.73,14.26C99.06,88.29,93.48,91,89.58,95.55a4.36,4.36,0,0,0,0,5.91c5.08,6.48,12.47,10.64,19.84,14,5.09,2.37,10.81,3.55,15.27,7.11-.71,10.49-6.37,19.66-9.48,29.5-3.4,11.13-6.85,22.31-8.51,33.86-2.19,12.67-5.26,25.24-6.17,38.1-.2,8.37-.91,16.73-.81,25.11,0,2.86-.23,5.81.66,8.58,1.09,2.66,3.22,4.71,5.08,6.84,4,4.29,7.78,8.84,12.11,12.83a154,154,0,0,0,42.77,26.4,148.14,148.14,0,0,0,15.32,5.42c12.86,3.59,26,6.87,39.4,7.14,3.38.2,7.45-.19,10,2.51,2.09,2.11.8,5.11.4,7.62-6.32,1.88-12.95,1-19.37.31a186.42,186.42,0,0,1-53.89-14.61A96.92,96.92,0,0,0,142,307.91c-.78,5.43-1.83,11.69,1.68,16.43,5,7.26,13.78,10.86,22.32,11.78a23.42,23.42,0,0,1,4.52,3.39,11.87,11.87,0,0,1,0,5c-1.32,2-3.83,2.57-5.85,3.58-4.59-2.26-9.73-3-14.31-5.31-3.08-1.52-6.16-3.06-9.3-4.44a112.81,112.81,0,0,0-21.4,38.13c-2.72,9.71-2.21,20-1.68,29.92a65.2,65.2,0,0,0,14.69-5A124,124,0,0,1,177,388.62c7.59-.71,15.05,1.06,22.48,2.3A123.14,123.14,0,0,1,202.2,369c.57-2.43,1.14-5,2.83-7a5.22,5.22,0,0,1,7.64.27c1.91,1.57,1.61,4.2,1.59,6.41-3,4.87-2.89,10.75-3.52,16.25-.14,3.88-.77,7.95.37,11.73,2.61,3.43,6,6.11,9,9.22,1.41,3.43,3.51,6.52,5,9.93,3.45,7.48,4.46,15.73,5.75,23.78-.24,5.74.23,11.51-.34,17.24-.46,4.55-2.9,8.59-3.58,13.09a24.67,24.67,0,0,0,4.69,12.47c3.18,3.41,7.89,4.62,12,6.39,0-4.92-.48-9.88.29-14.76.61-3.13,4.59-5.81,7.47-3.61,4.34,2.61,2.66,8.33,3,12.51.12,2.6.06,7.21,3.61,7.26,5.08.33,10.18-.25,15.25-.62.51-5.19-.38-10.44.54-15.58.24-2.11,2.5-2.87,4.26-3.31,2.85-.53,4.39,2.52,6.34,4-.19,4.71-.13,9.42,0,14.14,4.7-1.2,10.15-2.07,13.26-6.2,2.39-3.14,1.78-7.27.86-10.81-3.66-4.16-6.86-9-7.48-14.65-1.43-11.28-3.48-22.47-6-33.57-.41-2.58-1.41-5.78.67-7.92,2.68-2.68,8.08-1.61,9.18,2.17,2.75,8.51,3.08,17.64,6,26.09.54,5.92.2,12.33,3.54,17.55,2.22,3.57,4.59,7,6.58,10.77a95.19,95.19,0,0,0,10.4-.53c11.16-.8,22.44-.85,33.45-3a40.58,40.58,0,0,0-.39-7c-1.66-8.85-3.92-17.66-4.14-26.71-.08-5.66-.25-11.33.08-17a6.71,6.71,0,0,1,3.09-5.51,8.71,8.71,0,0,1,7.1,1c1.16,9,.05,18,1,27,.78,6.54,2.77,12.86,3.72,19.37,1,6.26,0,12.57-.17,18.84a32.65,32.65,0,0,0,20.38,5.35c0-4.74-.11-9.49.15-14.23,1.67-2.41,5.34-3.31,7.75-1.51,1.61,1.49,2.25,3.69,3.36,5.54a96.32,96.32,0,0,0-.21,11.4A74.43,74.43,0,0,0,409,485.1a66.92,66.92,0,0,0-.08-16.31c2.41-.9,5.06-2.9,7.62-1.31,3.15,1.67,3.51,5.64,4.34,8.73-.12,2.4-.15,4.8-.11,7.21,2.23-1.12,5.19-1.95,6-4.65,1.18-2.9.19-6-.57-8.88-2.79-9.81-9.5-18.05-12-28-1.29-4.91,0-10,.24-14.91s.15-10,.17-15a136.58,136.58,0,0,0-13.47-61.88c-2.33-4.92.94-9.7,3.13-13.95,3.89-7.35,3.87-15.93,3.25-24-3.81,1.74-7.14,5.06-11.44,5.4-4.35.12-6.18-6-3.21-8.72,3-3.09,6.94-5.06,10.28-7.77,4.85-3.89,9.49-8,14.15-12.16,11.72-11.69,22.29-24.75,29.83-39.55,6.76-13.31,12-27.7,12.71-42.75.22-3.68-1.51-7.05-3-10.32-3.66-7.95-7.13-16-11.43-23.65-2.41-4.08-3.38-8.91-6.22-12.73-.86-12.5-6.63-23.8-10.51-35.51-1.6-5.08-4.84-9.91-4.18-15.45.76-6.78,4.57-12.72,5.88-19.38,1-5.22,1.93-10.89,0-16-3.14-4-8.29-5.46-12.78-7.34-11.36-4.28-22.86-8.17-34.56-11.43-6.52-1.62-11.57-6.25-17.39-9.32-7.64-3.9-15-8.41-23-11.55A159.27,159.27,0,0,0,276,20.34C263.34,20.27,250.5,21,238.26,24.37ZM155.11,404.24c-11.37,3-21.56,9.05-32.6,12.91-2.78.92-5.69,1.41-8.39,2.56a45.82,45.82,0,0,0-12.63,1.11c-3.49-.47-7-.76-10.48-1.3-4.07-.61-7.7-2.67-11.47-4.18l-2.26-2.26c.73-2.14.74-4.79,2.4-6.46a32.51,32.51,0,0,1,5.69-1.36c5.32,4,12.77,4.43,19.24,3.83-5.62-5.24-13.88-5.76-21.14-6.55-10.92,0-23.62,3.55-29.39,13.59-3.75,3.64-6,8.62-7.3,13.63a38.91,38.91,0,0,0-1,9.25c.38,7.58.58,15.54,4.52,22.28,4.17,9.63,14.2,15.06,23.52,18.78a126.23,126.23,0,0,0,35.08,8.08c7.65.51,15.28,1.36,23,1.47,8.13.71,16.33,1.35,24.45.17a98.19,98.19,0,0,0,26-2.54c8.4-2.15,16.9-4.79,24-9.93a31.2,31.2,0,0,0,12.8-20.19A82.48,82.48,0,0,0,219,435c-1.71-7.59-3-15.72-8.05-21.95a30,30,0,0,0-18.14-12.12C180.29,397.84,167.15,400.43,155.11,404.24Z"/>
  <g>
    <path class="cls-4" d="M238.26,24.37c12.24-3.41,25.08-4.1,37.74-4a159.27,159.27,0,0,1,66.61,13.58c-1,7.55-2.06,15.22-1.06,22.83s6.08,13.43,10.1,19.54c9.05,13.69,21.1,25.1,34.09,35,10.19,8.48,21.1,16.09,30.75,25.22,4.62,4.4,9.82,8.2,13.9,13.15,2.84,3.47,5.83,6.83,8.76,10.24,2.84,3.82,3.81,8.65,6.22,12.73,4.3,7.64,7.77,15.7,11.43,23.65,1.46,3.27,3.19,6.64,3,10.32-.67,15-5.95,29.44-12.71,42.75l-2.34.6c-1.66-11.3-1.24-22.83-3.55-34.05a116.73,116.73,0,0,0-6.37-21.78c-1.74-4.26-5.23-7.34-8-10.86-2.37-2.77-1.91-6.65-2.34-10-.25-5.43-2.84-10.32-5.06-15.16-2.46-3.32-6.17-5.28-9.94-6.72-7.69-3-15.44-5.94-23.54-7.56-3.26-.43-8.3-1.29-9.69,2.67-1.31,2.37.66,4.68,1.82,6.63,2.32,3.39,5.41,6.69,5.66,11,.55,5.35-1.38,11.41,2.09,16.11,4.15,5.49,10.4,9.24,13.42,15.64,11.22,18,13.42,39.5,15.87,60.05,1.94,10.9,1.49,22,2.17,33-4.66,4.12-9.3,8.27-14.15,12.16-3.34,2.71-7.26,4.68-10.28,7.77-3,2.76-1.14,8.84,3.21,8.72,4.3-.34,7.63-3.66,11.44-5.4.62,8.08.64,16.66-3.25,24-2.19,4.25-5.46,9-3.13,13.95A136.58,136.58,0,0,1,414.54,412c0,5,.09,10-.17,15s-1.53,10-.24,14.91c2.53,9.93,9.24,18.17,12,28,.13,1.72.19,3.44.28,5.17l-5.58,1.15c-.83-3.09-1.19-7.06-4.34-8.73-2.56-1.59-5.21.41-7.62,1.31-.4,3.09-.77,6.18-1.13,9.28-4-.25-8.53-.41-10.89-4.15-1.11-1.85-1.75-4.05-3.36-5.54-2.41-1.8-6.08-.9-7.75,1.51-1,1.73-1.85,3.52-2.74,5.31-2-1-4.08-2-5.06-4.13a155.23,155.23,0,0,1-14.6-38.4c-1.54-6.29-.44-13-2.7-19.12a8.71,8.71,0,0,0-7.1-1,6.71,6.71,0,0,0-3.09,5.51c-.33,5.64-.16,11.31-.08,17,.22,9.05,2.48,17.86,4.14,26.71-.12.77-.35,2.31-.47,3.09a230.25,230.25,0,0,1-26.14.11c-4.39-.21-9-.72-12.76-3.12-6.71-4-11.31-10.71-14.21-17.85-2.95-8.45-3.28-17.58-6-26.09-1.1-3.78-6.5-4.85-9.18-2.17-2.08,2.14-1.08,5.34-.67,7.92,2.49,11.1,4.54,22.29,6,33.57.62,5.64,3.82,10.49,7.48,14.65-.18,1.77-.35,3.54-.51,5.32-4.66,1.31-10,1.16-13.61-2.45-2-1.48-3.49-4.53-6.34-4-1.76.44-4,1.2-4.26,3.31-.92,5.14,0,10.39-.54,15.58a73,73,0,0,0-.69-15.29c-.35,2.53-.64,5.07-.93,7.62-4.65-1.58-9.54-3-13.28-6.36-2.81-2.23-5.07-5.36-8.5-6.67-3-.06-5.42,2.26-7.9,3.72-2.86-5.44-5.77-10.86-8.09-16.55-2.13-5.23-2.14-11-3.06-16.44-1.29-8.05-2.3-16.3-5.75-23.78-1.45-3.41-3.55-6.5-5-9.93a128.42,128.42,0,0,1-4.91-17.21c-1.36-6.58-1-13.33-.94-20,0-2.21.32-4.84-1.59-6.41a5.22,5.22,0,0,0-7.64-.27c-1.69,1.93-2.26,4.53-2.83,7a123.14,123.14,0,0,0-2.72,21.89c-7.43-1.24-14.89-3-22.48-2.3a124,124,0,0,0-44.41,12.75l-1.41-.77c.57-8.54,2.93-17.33,8.42-24.06,2.77-3.47,7-5.24,10.78-7.24A33.58,33.58,0,0,0,161.93,360c2.63-3.36,2.35-7.85,2.66-11.87,2-1,4.53-1.6,5.85-3.58a11.87,11.87,0,0,0,0-5,23.42,23.42,0,0,0-4.52-3.39c-8.09-4.87-15-14.09-13.74-23.93A186.42,186.42,0,0,0,206.1,326.8c6.42.72,13.05,1.57,19.37-.31.4-2.51,1.69-5.51-.4-7.62-2.56-2.7-6.63-2.31-10-2.51l-.34-.93a298.38,298.38,0,0,1,.48-30.06c.81-9.63,0-19.37,1.57-28.94,2-11.91,2.18-24.36,7.09-35.59,3.49-8.83,9.53-16.48,12.35-25.58,2.7-8.35-2.45-17.77,2.45-25.59a89.74,89.74,0,0,1,10.74-14.31c1.42-1.54,3.39-2.75,4.19-4.75.41-2.17.06-5-2.15-6.07-2.89-1.53-6.26-.59-9.31-.23-11.22,2.09-22.67,3.38-33.48,7.23-4.93,1.83-10.82,3-13.86,7.73-2.16,4.17-5.18,7.77-8,11.46-3.82,4.92-3.26,11.45-4,17.29-1,10.77-7.36,19.92-10.71,30-7.6,24.4-11.26,49.9-12,75.41C146.92,286.31,136,276,124.92,266.09c-3.51-3.15-7.37-5.95-10.49-9.5-2.88-3.12-2.34-7.68-2.64-11.59l.68-.41a26.59,26.59,0,0,0,10.16-11.92c5.17-12.26,8.12-25.27,11.74-38,2.52-12.36,5-25.33,12.47-35.82,6.29-7.66,13.37-15,22.22-19.73,8.55-4.71,17.1-9.45,25.31-14.74,4-2.59,8.28-4.56,12.46-6.75,5.46-2.86,9.67-7.48,14.63-11.06,8.23-6,16.27-12.46,22.56-20.54,7-8.22,13.23-17.52,15-28.34,1.39-6.34-2.19-12.21-5.16-17.5C250.24,33.49,243.28,29.83,238.26,24.37ZM326.31,161c-3.78.41-8.76,2.37-8.61,6.91,1.16,5.15,6.64,7.15,10.59,9.79,3.39,1.84,7,5.38,11.14,3.65a45.65,45.65,0,0,0,7.77-8.18c2.66-3.06,2.4-9-1.87-10.54C339.3,160.43,332.63,160.23,326.31,161Zm8.09,54.56c-4.45,1.3-7.59,5.08-10.1,8.78a80.73,80.73,0,0,0-10.85,27.46c-1.4,6.22-2.88,12.75-1.19,19.08,1.24,5.28,6.09,10,11.73,9.86a16,16,0,0,0,12.12-4.7C347,265.37,352.79,250.14,353.34,235c-.15-5.51-.92-11.47-4.46-15.92C345.36,215,339.33,214.67,334.4,215.6ZM281.34,320.35c-4.67.91-5.63,6.56-3.91,10.34,3,6.95,9.52,11.93,16.53,14.48,8.53,3.49,18.19,3.22,27,.79,5.33-1.64,10.89-4.07,14.24-8.75,1.66-2.36,1.53-6.81-1.7-7.74-5.86-1.78-12.12-1.51-18.07-2.9-6.63-1.49-13.33-2.66-20-4C290.78,321.63,286.14,319.34,281.34,320.35Z"/>
    <path class="cls-4" d="M155.11,404.24c12-3.81,25.18-6.4,37.7-3.32A30,30,0,0,1,211,413C216,419.27,217.29,427.4,219,435a82.48,82.48,0,0,1,.14,22.14c.12-1.63.19-3.25.27-4.87a57.19,57.19,0,0,1-12.94,6.18c-12.71,3.9-25.25,8.63-38.46,10.63-9,1.28-18,4.06-27.19,3.66a68.65,68.65,0,0,1-5.64-41.7C138.56,420.3,145.5,410.27,155.11,404.24Z"/>
  </g>
  <g>
    <path class="cls-5" d="M218.31,29.52c6.5-2.28,13.38-3.13,19.95-5.15,5,5.46,12,9.12,15.63,15.79,3,5.29,6.55,11.16,5.16,17.5C257.25,68.48,251,77.78,244,86c-6.29,8.08-14.33,14.54-22.56,20.54-5,3.58-9.17,8.2-14.63,11.06-4.18,2.19-8.5,4.16-12.46,6.75-8.21,5.29-16.76,10-25.31,14.74-8.85,4.7-15.93,12.07-22.22,19.73-7.44,10.49-10,23.46-12.47,35.82-3.62,12.76-6.57,25.77-11.74,38a26.59,26.59,0,0,1-10.16,11.92q-.42-11.78.34-23.55c1.49-25.32,4.59-50.51,7.76-75.66.78-6.16,4.18-11.54,5.52-17.54.5-1.89-.63-3.62-1.4-5.26-4.46-3.56-10.18-4.74-15.27-7.11-7.37-3.37-14.76-7.53-19.84-14a4.36,4.36,0,0,1,0-5.91c3.9-4.59,9.48-7.26,14.64-10.17A343.08,343.08,0,0,1,138,71.12c5-2,10.67-2.73,15.08-6.05A215.65,215.65,0,0,1,218.31,29.52ZM190.31,86c-2.93,1.3-5.14,3.71-7.34,6-3.6,3.86-7.1,8.16-8.53,13.35-.53,2.42-.66,6,2.11,7.07,2.16.5,5.12.84,6.52-1.32,2.48-3.33,3.82-7.37,6.51-10.56,2.41-3,5.8-5.23,7.69-8.66C198.59,88,193.9,84.06,190.31,86Z"/>
    <path class="cls-5" d="M122.51,417.15c11-3.86,21.23-9.95,32.6-12.91-9.61,6-16.55,16.06-19.93,26.79a68.65,68.65,0,0,0,5.64,41.7l.35.63c-13.43,1.48-26.84-1-40-3.12l-.32-1.78a90.15,90.15,0,0,1,.09-22.86c2-9.61,7.34-18.18,13.23-25.89C116.82,418.56,119.73,418.07,122.51,417.15Z"/>
  </g>
  <path class="cls-6" d="M342.61,33.92c8,3.14,15.37,7.65,23,11.55,5.82,3.07,10.87,7.7,17.39,9.32,11.7,3.26,23.2,7.15,34.56,11.43,4.49,1.88,9.64,3.39,12.78,7.34,1.92,5.12,1,10.79,0,16-1.31,6.66-5.12,12.6-5.88,19.38-.66,5.54,2.58,10.37,4.18,15.45,3.88,11.71,9.65,23,10.51,35.51-2.93-3.41-5.92-6.77-8.76-10.24-4.08-4.95-9.28-8.75-13.9-13.15-9.65-9.13-20.56-16.74-30.75-25.22-13-9.91-25-21.32-34.09-35-4-6.11-9-12.07-10.1-19.54S341.62,41.47,342.61,33.92Zm53.71,61.16c-1.51.81-3.22,2.1-3,4-.31,2.87,2.19,4.81,3.77,6.85,2.89,3,4.43,7,6.59,10.51,2.21,4.33,10.22,2.39,10.09-2.6.29-5.43-4.32-9.33-7.25-13.39C403.88,97.78,400.59,93.1,396.32,95.08Z"/>
  <path class="cls-7" d="M190.31,86c3.59-2,8.28,2,7,5.83-1.89,3.43-5.28,5.64-7.69,8.66-2.69,3.19-4,7.23-6.51,10.56-1.4,2.16-4.36,1.82-6.52,1.32-2.77-1.09-2.64-4.65-2.11-7.07,1.43-5.19,4.93-9.49,8.53-13.35C185.17,89.74,187.38,87.33,190.31,86Z"/>
  <path class="cls-8" d="M396.32,95.08c4.27-2,7.56,2.7,10.16,5.39,2.93,4.06,7.54,8,7.25,13.39.13,5-7.88,6.93-10.09,2.6-2.16-3.53-3.7-7.47-6.59-10.51-1.58-2-4.08-4-3.77-6.85C393.1,97.18,394.81,95.89,396.32,95.08Z"/>
  <path class="cls-9" d="M124.69,122.58c.77,1.64,1.9,3.37,1.4,5.26-1.34,6-4.74,11.38-5.52,17.54-3.17,25.15-6.27,50.34-7.76,75.66q-.75,11.76-.34,23.55l-.68.41a53,53,0,0,1-12.07,4.15c-.1-8.38.61-16.74.81-25.11.91-12.86,4-25.43,6.17-38.1,1.66-11.55,5.11-22.73,8.51-33.86C118.32,142.24,124,133.07,124.69,122.58Z"/>
  <g>
    <path class="cls-10" d="M208.65,151.54c10.81-3.85,22.26-5.14,33.48-7.23,3.05-.36,6.42-1.3,9.31.23,2.21,1.08,2.56,3.9,2.15,6.07-.8,2-2.77,3.21-4.19,4.75-8.74-.38-17.28,1.77-25.82,3.32a75.93,75.93,0,0,0-16.2,4.92c-3.1,1.15-6.45,2.81-9.82,1.89-2.16-1.2-2.05-4.14-2.77-6.22C197.83,154.5,203.72,153.37,208.65,151.54Z"/>
    <path class="cls-10" d="M334.4,215.6c4.93-.93,11-.58,14.48,3.48,3.54,4.45,4.31,10.41,4.46,15.92-.55,15.14-6.3,30.37-17.23,41.08a16,16,0,0,1-12.12,4.7c-5.64.12-10.49-4.58-11.73-9.86-1.69-6.33-.21-12.86,1.19-19.08a80.73,80.73,0,0,1,10.85-27.46C326.81,220.68,330,216.9,334.4,215.6ZM324.25,254c-.92,4.69-2.95,9.86-.69,14.46.69,1.92,3.06,1.66,4.25.41a29.78,29.78,0,0,0,9.37-14.44A38.47,38.47,0,0,0,324.25,254Z"/>
  </g>
  <g>
    <path class="cls-11" d="M376.2,146.47c1.39-4,6.43-3.1,9.69-2.67,8.1,1.62,15.85,4.6,23.54,7.56,3.77,1.44,7.48,3.4,9.94,6.72-.59,2.1-1,4.35-2.23,6.18-3.8,1.26-7.5-.95-10.93-2.32-9-4.06-18.61-6.55-28.19-8.84C376.86,151.15,374.89,148.84,376.2,146.47Z"/>
    <path class="cls-11" d="M326.31,161c6.32-.81,13-.61,19,1.63,4.27,1.5,4.53,7.48,1.87,10.54a45.65,45.65,0,0,1-7.77,8.18c-4.15,1.73-7.75-1.81-11.14-3.65-4-2.64-9.43-4.64-10.59-9.79C317.55,163.41,322.53,161.45,326.31,161Z"/>
  </g>
  <g>
    <path class="cls-12" d="M378,153.1c9.58,2.29,19.18,4.78,28.19,8.84,3.43,1.37,7.13,3.58,10.93,2.32,1.27-1.83,1.64-4.08,2.23-6.18,2.22,4.84,4.81,9.73,5.06,15.16.43,3.38,0,7.26,2.34,10,2.8,3.52,6.29,6.6,8,10.86a116.73,116.73,0,0,1,6.37,21.78c2.31,11.22,1.89,22.75,3.55,34.05l2.34-.6c-7.54,14.8-18.11,27.86-29.83,39.55-.68-11-.23-22.11-2.17-33-2.45-20.55-4.65-42.1-15.87-60.05-3-6.4-9.27-10.15-13.42-15.64-3.47-4.7-1.54-10.76-2.09-16.11C383.43,159.79,380.34,156.49,378,153.1Z"/>
    <path class="cls-12" d="M223.58,158.68c8.54-1.55,17.08-3.7,25.82-3.32a89.74,89.74,0,0,0-10.74,14.31c-4.9,7.82.25,17.24-2.45,25.59-2.82,9.1-8.86,16.75-12.35,25.58-4.91,11.23-5.07,23.68-7.09,35.59-1.61,9.57-.76,19.31-1.57,28.94a298.38,298.38,0,0,0-.48,30.06c-18.89-5.33-38.7-9.94-54.67-22,.76-25.51,4.42-51,12-75.41,3.35-10.07,9.7-19.22,10.71-30,.7-5.84.14-12.37,4-17.29,2.87-3.69,5.89-7.29,8-11.46.72,2.08.61,5,2.77,6.22,3.37.92,6.72-.74,9.82-1.89A75.93,75.93,0,0,1,223.58,158.68Z"/>
  </g>
  <path class="cls-13" d="M99.72,249.15A53,53,0,0,0,111.79,245c.3,3.91-.24,8.47,2.64,11.59,3.12,3.55,7,6.35,10.49,9.5,11.07,9.86,22,20.22,35.13,27.33.16,3.46.25,6.92.29,10.38a154,154,0,0,1-42.77-26.4c-4.33-4-8.09-8.54-12.11-12.83-1.86-2.13-4-4.18-5.08-6.84C99.49,255,99.75,252,99.72,249.15Z"/>
  <path class="cls-14" d="M324.25,254a38.47,38.47,0,0,1,12.93.43,29.78,29.78,0,0,1-9.37,14.44c-1.19,1.25-3.56,1.51-4.25-.41C321.3,263.82,323.33,258.65,324.25,254Z"/>
  <path class="cls-15" d="M142,307.91a96.92,96.92,0,0,1,10.26,4.28C151,322,157.86,331.25,166,336.12c-8.54-.92-17.29-4.52-22.32-11.78C140.12,319.6,141.17,313.34,142,307.91Z"/>
  <path class="cls-16" d="M281.34,320.35c4.8-1,9.44,1.28,14.07,2.18,6.66,1.38,13.36,2.55,20,4,6,1.39,12.21,1.12,18.07,2.9,3.23.93,3.36,5.38,1.7,7.74-3.35,4.68-8.91,7.11-14.24,8.75-8.78,2.43-18.44,2.7-27-.79-7-2.55-13.51-7.53-16.53-14.48C275.71,326.91,276.67,321.26,281.34,320.35Z"/>
  <path class="cls-17" d="M119.58,376.47A112.81,112.81,0,0,1,141,338.34c3.14,1.38,6.22,2.92,9.3,4.44,4.58,2.28,9.72,3.05,14.31,5.31-7.33-.88-14.14-3.79-20.73-7-3.64,6.12-5.54,13-8,19.64-4.44,12.58-7,26.11-5.3,39.46l.65.38,1.41.77a65.2,65.2,0,0,1-14.69,5C117.37,396.43,116.86,386.18,119.58,376.47Z"/>
  <path class="cls-18" d="M143.86,341.12c6.59,3.18,13.4,6.09,20.73,7-.31,4,0,8.51-2.66,11.87a33.58,33.58,0,0,1-11.55,9.34c-3.83,2-8,3.77-10.78,7.24-5.49,6.73-7.85,15.52-8.42,24.06l-.65-.38c-1.67-13.35.86-26.88,5.3-39.46C138.32,354.14,140.22,347.24,143.86,341.12Z"/>
  <path class="cls-19" d="M210.74,385c.63-5.5.53-11.38,3.52-16.25-.09,6.66-.42,13.41.94,20A128.42,128.42,0,0,0,220.11,406c-3-3.11-6.39-5.79-9-9.22C210,393,210.6,388.88,210.74,385Z"/>
  <path class="cls-20" d="M54.08,416.13c5.77-10,18.47-13.6,29.39-13.59.62.91,1.25,1.82,1.9,2.72a32.51,32.51,0,0,0-5.69,1.36c-1.66,1.67-1.67,4.32-2.4,6.46C69.45,411.42,61,411.85,54.08,416.13Z"/>
  <path class="cls-21" d="M83.47,402.54c7.26.79,15.52,1.31,21.14,6.55-6.47.6-13.92.17-19.24-3.83C84.72,404.36,84.09,403.45,83.47,402.54Z"/>
  <path class="cls-22" d="M54.08,416.13c7-4.28,15.37-4.71,23.2-3.05l2.26,2.26c-6.38,3.07-13.34,5.6-18.2,11a33.68,33.68,0,0,0-9.56,17.51c-.44,1.45-.93,2.89-1.41,4.33-4.38-5.11-4-12.13-3.59-18.42C48.06,424.75,50.33,419.77,54.08,416.13Z"/>
  <path class="cls-23" d="M360.67,413.55c2.26,6.13,1.16,12.83,2.7,19.12a155.23,155.23,0,0,0,14.6,38.4c1,2.09,3.09,3.15,5.06,4.13.89-1.79,1.75-3.58,2.74-5.31-.26,4.74-.18,9.49-.15,14.23a32.65,32.65,0,0,1-20.38-5.35c.15-6.27,1.13-12.58.17-18.84-1-6.51-2.94-12.83-3.72-19.37C360.72,431.58,361.83,422.52,360.67,413.55Z"/>
  <path class="cls-24" d="M79.54,415.34c3.77,1.51,7.4,3.57,11.47,4.18,3.48.54,7,.83,10.48,1.3a53.68,53.68,0,0,0-25.6,19.12A36.61,36.61,0,0,0,69.54,461c0,1.39.1,2.8.21,4.2-.39-2.19-.84-4.38-1.3-6.55-6.12-2.16-12.83-3.75-17.4-8.73.21-2,.43-4.07.73-6.09a33.68,33.68,0,0,1,9.56-17.51C66.2,420.94,73.16,418.41,79.54,415.34Z"/>
  <path class="cls-25" d="M101.49,420.82a45.82,45.82,0,0,1,12.63-1.11c-5.89,7.71-11.22,16.28-13.23,25.89a90.15,90.15,0,0,0-.09,22.86,14.79,14.79,0,0,1-8.21.1c-7.8-2.13-15.35-5.08-23-7.54a36.61,36.61,0,0,1,6.35-21.08A53.68,53.68,0,0,1,101.49,420.82Z"/>
  <path class="cls-26" d="M45.77,439a38.91,38.91,0,0,1,1-9.25c-.43,6.29-.79,13.31,3.59,18.42.48-1.44,1-2.88,1.41-4.33-.3,2-.52,4-.73,6.09-.33,3.77-.69,7.56-.76,11.35C46.35,454.55,46.15,446.59,45.77,439Z"/>
  <path class="cls-27" d="M230.82,439.66c.92,5.49.93,11.21,3.06,16.44,2.32,5.69,5.23,11.11,8.09,16.55,2.48-1.46,4.87-3.78,7.9-3.72,3.43,1.31,5.69,4.44,8.5,6.67,3.74,3.33,8.63,4.78,13.28,6.36.29-2.55.58-5.09.93-7.62a73,73,0,0,1,.69,15.29c-5.07.37-10.17.95-15.25.62-3.55-.05-3.49-4.66-3.61-7.26-.35-4.18,1.33-9.9-3-12.51-2.88-2.2-6.86.48-7.47,3.61-.77,4.88-.26,9.84-.29,14.76-4.16-1.77-8.87-3-12-6.39A24.67,24.67,0,0,1,226.9,470c.68-4.5,3.12-8.54,3.58-13.09C231.05,451.17,230.58,445.4,230.82,439.66Z"/>
  <path class="cls-28" d="M301,444c2.9,7.14,7.5,13.83,14.21,17.85,3.79,2.4,8.37,2.91,12.76,3.12a230.25,230.25,0,0,0,26.14-.11c.12-.78.35-2.32.47-3.09a40.58,40.58,0,0,1,.39,7c-11,2.2-22.29,2.25-33.45,3a95.19,95.19,0,0,1-10.4.53c-2-3.72-4.36-7.2-6.58-10.77C301.16,456.32,301.5,449.91,301,444Z"/>
  <path class="cls-29" d="M50.29,461.29c.07-3.79.43-7.58.76-11.35,4.57,5,11.28,6.57,17.4,8.73.46,2.17.91,4.36,1.3,6.55a72.27,72.27,0,0,0,4.06,14.85C64.49,476.35,54.46,470.92,50.29,461.29Z"/>
  <g>
    <path class="cls-30" d="M206.47,458.44a57.19,57.19,0,0,0,12.94-6.18c-.08,1.62-.15,3.24-.27,4.87a31.2,31.2,0,0,1-12.8,20.19c-7.11,5.14-15.61,7.78-24,9.93a98.19,98.19,0,0,1-26,2.54,67.77,67.77,0,0,1-15.13-16.43l-.35-.63c9.23.4,18.14-2.38,27.19-3.66C181.22,467.07,193.76,462.34,206.47,458.44Z"/>
    <path class="cls-30" d="M69.54,461c7.7,2.46,15.25,5.41,23,7.54a14.79,14.79,0,0,0,8.21-.1l.32,1.78a47.45,47.45,0,0,0,7.77,17.91,126.23,126.23,0,0,1-35.08-8.08,72.27,72.27,0,0,1-4.06-14.85C69.64,463.82,69.57,462.41,69.54,461Z"/>
  </g>
  <path class="cls-31" d="M407.77,478.07c.36-3.1.73-6.19,1.13-9.28A66.92,66.92,0,0,1,409,485.1a74.43,74.43,0,0,1-12.31.22,96.32,96.32,0,0,1,.21-11.4C399.24,477.66,403.81,477.82,407.77,478.07Z"/>
  <path class="cls-32" d="M101.12,470.24c13.21,2.12,26.62,4.6,40,3.12a67.77,67.77,0,0,0,15.13,16.43c-8.12,1.18-16.32.54-24.45-.17-7.68-.11-15.31-1-23-1.47A47.45,47.45,0,0,1,101.12,470.24Z"/>
  <path class="cls-33" d="M426.16,469.89c.76,2.86,1.75,6,.57,8.88-.79,2.7-3.75,3.53-6,4.65,0-2.41,0-4.81.11-7.21l5.58-1.15C426.35,473.33,426.29,471.61,426.16,469.89Z"/>
  <path class="cls-34" d="M298.53,471.87c.92,3.54,1.53,7.67-.86,10.81-3.11,4.13-8.56,5-13.26,6.2-.13-4.72-.19-9.43,0-14.14,3.64,3.61,8.95,3.76,13.61,2.45C298.18,475.41,298.35,473.64,298.53,471.87Z"/>
</svg>
