<svg id="Layer_1" data-name="Layer 1" xmlns="http://www.w3.org/2000/svg" viewBox="0 0 499.47 508.2">
  <defs>
    <style>
      .cls-1 {
        fill: #f9fafd;
      }

      .cls-2 {
        fill: #fafcfd;
      }

      .cls-3 {
        fill: #091f2e;
      }

      .cls-4 {
        fill: #f7efed;
      }

      .cls-5 {
        fill: #ed441b;
      }

      .cls-6 {
        fill: #b83d22;
      }

      .cls-7 {
        fill: #0a1f2e;
      }

      .cls-8 {
        fill: #83c2fd;
      }

      .cls-9 {
        fill: #fcffff;
      }

      .cls-10 {
        fill: #0d1e2b;
      }

      .cls-11 {
        fill: #c0bdbe;
      }

      .cls-12 {
        fill: #7a9bc6;
      }

      .cls-13 {
        fill: #f6fdff;
      }

      .cls-14 {
        fill: #09202e;
      }

      .cls-15 {
        fill: #88c2fe;
      }

      .cls-16 {
        fill: #0a1f2f;
      }

      .cls-17 {
        fill: #fdfdfd;
      }

      .cls-18 {
        fill: #c1bdbe;
      }

      .cls-19 {
        fill: #c0bdbf;
      }

      .cls-20 {
        fill: #fcfefe;
      }

      .cls-21 {
        fill: #f5f9fe;
      }

      .cls-22 {
        fill: #f7fcfe;
      }

      .cls-23 {
        fill: #017bcc;
      }

      .cls-24 {
        fill: #0166a6;
      }

      .cls-25 {
        fill: #007bcc;
      }

      .cls-26 {
        fill: #0265a4;
      }

      .cls-27 {
        fill: #ec1d1f;
      }

      .cls-28 {
        fill: #0165a6;
      }

      .cls-29 {
        fill: #0377c5;
      }

      .cls-30 {
        fill: #fcf9fa;
      }

      .cls-31 {
        fill: #ea1e20;
      }

      .cls-32 {
        fill: #0265a7;
      }

      .cls-33 {
        fill: #8496c2;
      }

      .cls-34 {
        fill: #037ac8;
      }

      .cls-35 {
        fill: #082033;
      }

      .cls-36 {
        fill: #b63d22;
      }

      .cls-37 {
        fill: #bfbdbe;
      }

      .cls-38 {
        fill: #f8f1ee;
      }

      .cls-39 {
        fill: #037ac9;
      }

      .cls-40 {
        fill: #e34a27;
      }

      .cls-41 {
        fill: #faeeed;
      }

      .cls-42 {
        fill: #eb451b;
      }

      .cls-43 {
        fill: #f9eeea;
      }

      .cls-44 {
        fill: #689cce;
      }

      .cls-45 {
        fill: #87c2fe;
      }

      .cls-46 {
        fill: #0465a3;
      }

      .cls-47 {
        fill: #c1bcbe;
      }

      .cls-48 {
        fill: #027ac7;
      }

      .cls-49 {
        fill: #f7eeed;
      }

      .cls-50 {
        fill: #c6babb;
      }

      .cls-51 {
        fill: #b73c21;
      }

      .cls-52 {
        fill: #c1bdc0;
      }

      .cls-53 {
        fill: #b93c20;
      }

      .cls-54 {
        fill: #c1bdbd;
      }

      .cls-55 {
        fill: #85c1fe;
      }

      .cls-56 {
        fill: #bdbcbf;
      }

      .cls-57 {
        fill: #bfbcc3;
      }

      .cls-58 {
        fill: #0365a4;
      }

      .cls-59 {
        fill: #798289;
      }

      .cls-60 {
        fill: #699cd2;
      }

      .cls-61 {
        fill: #c0bfbf;
      }
    </style>
  </defs>
  <g>
    <path class="cls-1" d="M0,0H.26A3.19,3.19,0,0,0,0,.26Z"/>
    <path class="cls-1" d="M84.86,222.89l4.36.44c7.61,23.93,14.62,48,22.31,71.93a29.43,29.43,0,0,1,1.26,8.08l-3.15.92c-4.28-10.18-6.69-21-9.92-31.49-2.78-9.87-6-19.6-9.1-29.38C88.42,236.62,88.48,229.18,84.86,222.89Z"/>
  </g>
  <path class="cls-2" d="M176.45,19.42C201.14,9.93,227.62,5.64,254,5.1a213.78,213.78,0,0,1,75.21,11.72C350.4,25.07,370.62,37,386,54c5,5.78,12.92,7,19.17,10.89C418.7,73.24,432.6,81.73,443,94c4.15,5.28,7.77,11.23,9,17.92,1.53,7.09-.12,15.36-5.92,20.16-6.17,6.21-15,7.88-23,10.37,2.58,13.27,6.52,26.25,9.3,39.48,3.37,12.6,5.79,25.42,8.45,38.18,6.08,1.9,12.44,3.66,17.72,7.36,8,7.28,10.28,19.19,8.53,29.53-1,5.64-5.89,10-5.65,15.92A78.85,78.85,0,0,1,460,291.15c-1.5,8.2-5.64,15.53-8.83,23.13-2.62,13-3.2,27.38-11.42,38.48-4.8,5.85-10.66,10.71-16.12,15.92-.5,2.15,0,4.37.19,6.54,1.47,10.67,2,21.44,2.94,32.16,1,8.21,2.8,16.53,7.11,23.69,3.32,5.51,7,10.95,11.74,15.31A83.9,83.9,0,0,0,486,464.76c2.43.51,5,.73,7.22,2a16.43,16.43,0,0,1,6.1,9.2c.9,3.88-1.38,7.61-4.18,10.1-3.8,3.38-7.91,6.66-12.83,8.2-8.79,2.89-18.1,3.46-27.25,4.14-10,0-20.36-.42-29.68,3.74-2.93,1.3-5.21,4-8.52,4.43a47.24,47.24,0,0,1-16.91-1.22c-9.28-2.4-18.52-5.46-26.7-10.57-4.59-3.09-10.13-.64-15.15-.54a190.36,190.36,0,0,0-20.66,1.32c-3.27,1-5.83,3.53-8.88,5a69.48,69.48,0,0,1-56.89,2.78c-4.41-1.74-7.87-5-11.74-7.66-1.58,0-2.69,1.42-4,2.15-9.11,6.81-20.74,9.11-31.89,9.33-13.07-.34-26.6-1.54-38.32-7.87-3.93-1.58-7.07-5.49-11.61-5.08q-20.56.15-41.12,0a17.5,17.5,0,0,0-7.23,1.45c-9.77,3.76-20.19,6.17-30.71,5.91-22.05.06-43.21-9-60.74-21.9-6-4.61-12.17-9.47-15.68-16.32a91.8,91.8,0,0,1-8.11-24.1c-.73-4.66-2.63-9.33-1.61-14.09C10.19,418,11.43,410.5,15,404a54.09,54.09,0,0,1,19.38-19.62c6.2-4,13.17-6.44,20.07-8.88A130.91,130.91,0,0,1,63,350.89c1.56-3.29,3.65-6.37,4.66-9.9-2.13-3-5.16-5.29-7.55-8.12-6.22-7.38-12-15.57-14-25.21-3-11-.67-22.47,2.1-33.25C50.54,264.88,54.64,256,58.48,247c-2.26-11.92-7.19-23.22-10.26-35-2.37-9.59.07-20.59,7.3-27.53,4.55-4.48,10.9-6.25,16.91-7.84C75.6,160.48,79,144.34,82.86,128.3,73.77,124.24,62.55,122,57,113c-3.43-4.88-2.53-11.53.79-16.21C63,89.17,71.31,84.68,79,80.07a368.41,368.41,0,0,1,36.57-19.55c4.26-1.74,7.37-5.18,10.44-8.47,9.11-9.87,20.58-17.09,32-24C164,24.79,170.32,22.31,176.45,19.42Zm22.6-2.35C175,23.5,152,34.68,133.36,51.35c-4.71,4-7.87,9.77-13.6,12.44a397.63,397.63,0,0,0-47.63,26.3c-5.06,3.6-10.84,7.57-12.38,14-1.26,5,2.87,9.07,6.58,11.62,6.89,4.36,14.71,7,22.56,9-5.14,18.76-9,37.85-12.55,57-6.2.52-12.86,1.6-17.49,6.16-6.82,6.46-7.88,16.9-5.3,25.54,3.09,10.23,6.67,20.32,9.62,30.6,1.49,4.28-1.92,8-3.27,11.88-5.5,12.36-9.49,25.53-10.27,39.1a41.31,41.31,0,0,0,4.54,20.78C59,325.23,66.31,333,74,340.22c-4.38,8.42-9.14,16.74-11.92,25.89-1.6,4.28-2,8.92-3.75,13.14-5.73,2.28-11.81,3.75-17.21,6.84-12.9,6.33-23.75,18.19-26.34,32.62a61.68,61.68,0,0,0,2.29,28.17c2.8,8.63,6.23,17.65,13.42,23.62C46,484,65.2,493.42,85.6,496.24c11.13,1.22,22.57.47,33.18-3.28,4.12-1.2,7.88-3.67,12.21-4.07,15.32.92,30.69.38,46,.43a7,7,0,0,1,4.85,1.84,51.73,51.73,0,0,0,24,9.86c14.27,1.93,29.72,2.74,42.84-4.27,4.32-1.94,7.29-5.74,11-8.5,2.76,2.56,5.09,5.63,8.31,7.66a46.23,46.23,0,0,0,18.05,6.63,64.28,64.28,0,0,0,39.56-5.89c3.69-1.76,6.66-4.9,10.59-6.14,8.49-1.26,17.13-.68,25.64-1.8,4.12-.2,8.73-1.41,12.43,1A83,83,0,0,0,412,502.33c5.39.68,8.75-4.37,13.57-5.68A74.52,74.52,0,0,1,449,493.58a134.71,134.71,0,0,0,23.9-1.88,36.14,36.14,0,0,0,18.86-8.92c5.33-4,1.46-12.84-4.79-13-11.81-2-23.49-5.66-33.65-12.13A62.92,62.92,0,0,1,423.2,416c-1.68-7.9-1.67-16-2.49-24-.39-8.78-2.17-17.43-2.43-26.21,5.71-2.85,9.67-8,14.35-12.14,8.39-7.86,10.25-19.84,12.12-30.63.83-3.71.06-7.8,2.06-11.2,4.42-8.29,8-17.19,9.32-26.53.73-4.74.24-9.54.53-14.31.45-6.16,5.54-10.85,6-17,.69-7.73-.88-16.36-6.5-22.06-5.56-4.36-12.67-6-19.42-7.61-5.42-28.6-12.74-56.79-19.56-85.07,9.16-2.91,19.52-4.37,26.63-11.43,4.87-4.67,4.65-12.24,2.76-18.21a50.86,50.86,0,0,0-13.71-19.36,172.09,172.09,0,0,0-41.45-26.61,24.4,24.4,0,0,1-8.65-6.28A124.74,124.74,0,0,0,352,33c-22.35-13.31-48.08-20.17-73.87-22.38-10-.53-20.1-1.55-30.14-.52A229.93,229.93,0,0,0,199.05,17.07Z"/>
  <path class="cls-3" d="M199.05,17.07a229.93,229.93,0,0,1,48.91-7c10-1,20.11,0,30.14.52C303.89,12.85,329.62,19.71,352,33A124.74,124.74,0,0,1,382.72,57.3a24.4,24.4,0,0,0,8.65,6.28,172.09,172.09,0,0,1,41.45,26.61,50.86,50.86,0,0,1,13.71,19.36c1.89,6,2.11,13.54-2.76,18.21-7.11,7.06-17.47,8.52-26.63,11.43,6.82,28.28,14.14,56.47,19.56,85.07,6.75,1.57,13.86,3.25,19.42,7.61,5.62,5.7,7.19,14.33,6.5,22.06-.42,6.17-5.51,10.86-6,17-.29,4.77.2,9.57-.53,14.31-1.35,9.34-4.9,18.24-9.32,26.53-2,3.4-1.23,7.49-2.06,11.2-1.87,10.79-3.73,22.77-12.12,30.63-4.68,4.17-8.64,9.29-14.35,12.14.26,8.78,2,17.43,2.43,26.21.82,8,.81,16.1,2.49,24a62.92,62.92,0,0,0,30.11,41.72c10.16,6.47,21.84,10.12,33.65,12.13,6.25.12,10.12,9,4.79,13a36.14,36.14,0,0,1-18.86,8.92,134.71,134.71,0,0,1-23.9,1.88,74.52,74.52,0,0,0-23.38,3.07c-4.82,1.31-8.18,6.36-13.57,5.68a83,83,0,0,1-37.72-12.59c-3.7-2.44-8.31-1.23-12.43-1-8.51,1.12-17.15.54-25.64,1.8-3.93,1.24-6.9,4.38-10.59,6.14a64.28,64.28,0,0,1-39.56,5.89,46.23,46.23,0,0,1-18.05-6.63c-3.22-2-5.55-5.1-8.31-7.66-3.72,2.76-6.69,6.56-11,8.5-13.12,7-28.57,6.2-42.84,4.27a51.73,51.73,0,0,1-24-9.86,7,7,0,0,0-4.85-1.84c-15.34-.05-30.71.49-46-.43-4.33.4-8.09,2.87-12.21,4.07-10.61,3.75-22,4.5-33.18,3.28C65.2,493.42,46,484,30.5,470.5c-7.19-6-10.62-15-13.42-23.62a61.68,61.68,0,0,1-2.29-28.17c2.59-14.43,13.44-26.29,26.34-32.62,5.4-3.09,11.48-4.56,17.21-6.84,1.76-4.22,2.15-8.86,3.75-13.14C64.87,357,69.63,348.64,74,340.22c-7.7-7.18-15.05-15-19.84-24.47A41.31,41.31,0,0,1,49.63,295c.78-13.57,4.77-26.74,10.27-39.1,1.35-3.84,4.76-7.6,3.27-11.88-3-10.28-6.53-20.37-9.62-30.6-2.58-8.64-1.52-19.08,5.3-25.54,4.63-4.56,11.29-5.64,17.49-6.16,3.52-19.13,7.41-38.22,12.55-57-7.85-2-15.67-4.66-22.56-9-3.71-2.55-7.84-6.67-6.58-11.62,1.54-6.41,7.32-10.38,12.38-14a397.63,397.63,0,0,1,47.63-26.3c5.73-2.67,8.89-8.48,13.6-12.44C152,34.68,175,23.5,199.05,17.07ZM151.27,51.65A164.34,164.34,0,0,0,132,69c-4.63,4.93-11.38,6.64-17,10.12-5.8,3.65-12.26,6.08-18,9.82-6,3.82-12.56,6.65-18.29,10.84a51.18,51.18,0,0,0-6.49,5.45c5.93,4.86,13.59,6.45,20.9,8,3.38.84,8,2,8.6,6.07.33,4.67-1.88,9-3,13.42-4.64,17.06-8.9,34.3-11.33,51.82-1,4.8,3.33,8.13,4.87,12.24,2.22,5.69,3,11.88,5.85,17.33,3.11,11.41,6.65,22.71,10,34.05.58,1.2.72,3,2,3.6C138.62,261.74,169,264.17,199,265.36c15.55-.14,31.15.71,46.65-.82,2.41-3.76,4.86-7.72,8.76-10.11,7.19-4.88,16.17-5.55,24.6-5.86,21-.19,42-.08,63,0a42.82,42.82,0,0,1,22.2,6.23c2.13,1.1,4.19,2.84,6.73,2.68C377,257.19,383,255.84,389,255a126.88,126.88,0,0,0,19.21-4,161.74,161.74,0,0,0,17.17-5.77c.87-.51,2.39-.92,2.27-2.2.2-4.88-1.09-9.64-2-14.39-1.2-5.4-1.65-10.93-2.93-16.31-2.7-11-4.78-22.22-7.64-33.22-1.75-6.71-2.56-13.65-4.7-20.27a113.51,113.51,0,0,1-4-16.77c-5-.7-10,.25-15-.33-4.05-1.73-3.75-8.36.3-9.88,5.56-1.87,11.53-1.83,17.27-2.92a92.67,92.67,0,0,0,21.53-6.22c2.38-1.16,5.56-2.59,5.65-5.66a21.16,21.16,0,0,0-6-13.13c-5.93-6.54-13.44-11.28-20.35-16.67-5-3.91-10.92-6.44-16.39-9.64-3.66-2.17-7.58-3.83-11.42-5.64-4.61-2.11-7.48-6.47-11.06-9.85a151.84,151.84,0,0,0-13.72-11.75,103.32,103.32,0,0,0-19.81-11.77C310.8,25.19,280.55,20.76,251,21.62,216,22.74,180.19,31.2,151.27,51.65Zm-86,146.63c-2.38,3.9-1.62,8.77-.49,12.95C74.46,241.87,84.3,272.46,94,303.1c.38,2.07,2.42,2.74,4.09,3.54a106.61,106.61,0,0,0,11.58-2.38l3.15-.92a29.43,29.43,0,0,0-1.26-8.08c-7.69-23.89-14.7-48-22.31-71.93-2.3-7.28-4-14.75-6.69-21.91-1.32-3.87-4.73-6.29-8.22-8.07l.5-.52C71.36,194,67.37,195,65.29,198.28ZM439,237.5c-.26,4.81,1.1,10.83-3.11,14.38-5.28,4.11-12,5.54-18.21,7.81a132,132,0,0,1-20.11,5.47c-5.43,1-11.08.71-16.32,2.67,2.79,4.46,6.21,8.49,9,12.94,8.21,12.43,13.28,26.5,17.81,40.59,4.46-.45,9-1.11,13-3.19,5.77-2.87,11.93-5.95,15.44-11.61a52.4,52.4,0,0,0,5.69-13.31,19.67,19.67,0,0,0,2.37-9.54c.07-4.55-1.92-9.11-.56-13.62,1.64-5.44,4.45-10.45,6.23-15.85,1.61-3.74.93-8.19-.72-11.8C447.44,238.72,442.81,238.08,439,237.5ZM270.37,260.64a20.53,20.53,0,0,0-10.66,4.16c7.67,1.5,15.58,1.4,23.17,3.38,18,4.05,34.26,15.54,43.2,31.79,10.49,19.6,13.28,42.15,14.64,64,1.16,10,.06,20.05,1.35,30,.71,20.35,3,41.3,12.09,59.82,3.34,7.5,9.81,12.85,15.59,18.42,6.47,4.9,13.11,9.89,20.86,12.59a93.7,93.7,0,0,0,9,3.44c4.7,1,9.92,3.41,14.53.81,12-6.79,26.3-7.65,39.83-7.44,6.22-.1,12.76.24,18.54-2.49-4.53-2.23-9.42-3.57-14-5.79-1.4-.54-2.78-1.44-4.32-1.37-4.9-2.82-9.45-6.26-14.48-8.84-4-4.29-8.66-8-12.45-12.52-7.29-8.64-12.06-19.15-14.91-30-3.12-12.4-2-25.33-4.2-37.85-1.12-6.66-.91-13.5-2.61-20.06-2.37-9.21-3.05-18.76-5.43-28A143.13,143.13,0,0,0,377,281c-5.36-6.55-11.34-13-19-16.95-5.65-4.46-13.17-4.71-20.05-4.72C315.47,259.53,292.82,258,270.37,260.64ZM68.86,263.76C64.93,274.42,61.2,285.5,61.29,297A30.85,30.85,0,0,0,67.8,316.2,96.76,96.76,0,0,0,93.42,340,48.29,48.29,0,0,0,89,323.91c-.68-4.23-2.52-8.15-3.69-12.25-2.6-7.78-4.34-15.88-7.84-23.33l.37-.68c-1.8-5.93-4-11.72-5.7-17.7A14.25,14.25,0,0,0,68.86,263.76Zm45.66,1.95c1.12,8.41,4.56,16.25,6.53,24.47,2.8,8.24,4.43,16.9,8,24.89,2.16,8.34,5.15,16.44,7.13,24.83.62,2.18,1.06,4.55,2.58,6.32,3.39.75,6.89.33,10.33.54,6.21.16,12,2.49,17.92,4.22,3.57,2.33,7.28,4.65,10,8,2.6,3.07,4.08,7.06,7.16,9.72,7.79,2.86,16.22,3.13,24.28,4.87,18.31,3.69,37.06,2.74,55.62,2.85a252.07,252.07,0,0,0,46.05-3.81c6.57-1.51,13.24-2.69,19.68-4.78-.08-6.75-.15-13.56-1.64-20.19-12.87,2.58-25.94,4.22-39.09,3.74-4.79-.21-11.76.88-14-4.65-1.44-2.77.88-5,2.88-6.53,11.22.15,22.45.16,33.63-1.08a107.9,107.9,0,0,0,14.92-3.08c-1.84-14.5-7.19-28.72-16.41-40.15-10.52-11.64-26.25-17.83-41.75-18.32-6.28-1.15-12.68-.79-19-1.23-9.42-.72-18.85.31-28.28,0-27.26.3-54.62-.74-81.55-5.13C131.25,269,122.88,267.34,114.52,265.71Zm-1.61,49.76a75.49,75.49,0,0,1-10.21,2c-1.17,0-2.33,0-3.5,0,1.31,8.09,4.5,15.69,6.91,23.49,1.26,3.74,2.08,7.63,3.66,11.26a20.31,20.31,0,0,0,3.31.22c3.36-1.47,6.81-2.72,10.29-3.89q1.66-.45,3.3-1c.25-3.48-1.28-6.72-2.35-9.94-2.94-7.72-4.86-15.76-7.07-23.7C115.79,314.41,114.35,314.93,112.91,315.47ZM412,334.28c0,6.75,1.58,13.34,3.44,19.79a66.27,66.27,0,0,0,11.24-11.34c3.79-4.84,4.33-11.2,5.19-17.06C425.07,328,418.82,331.76,412,334.28ZM74.69,364.58c-2.83,7.21-5.18,14.82-4.84,22.66,3.93-3.91,7-8.61,10.82-12.57,5.89-6.39,13.23-11.16,19.45-17.19-5.43-3.27-10.78-6.68-16.21-10C79.68,352.51,77.2,358.62,74.69,364.58Zm23.49,8.65c-3.65,3-7.32,6.07-10.08,9.91-5.78,4.45-8.73,11.3-12.85,17.11-2.06,3.38-5,6.26-6.57,9.9a27.94,27.94,0,0,1-10.85,3.48c-4.45-.69-8.9-1.71-12.82-4l-2.22-2.11c.57-2.19.39-4.85,2-6.59a39.43,39.43,0,0,1,7.41-1.25c1.76,2.72,5.34,2.4,8.15,2.75-.53-3.51-1.14-7-1.8-10.51a39.63,39.63,0,0,0-9.78,3.21c-6.7,3-12.86,7.39-17.14,13.46a33.84,33.84,0,0,0-6,21.32c.37,5.66,1.13,11.42,3.87,16.49a28.19,28.19,0,0,0,11.81,18.26c8.08,5.58,16.2,11.73,25.83,14.29,11,6.48,24.47,6.08,36.81,5.56,13.24-1.63,25.06-8.42,36.15-15.42a99.18,99.18,0,0,0,14.7-11.87c10.07-10,18.86-22.13,22-36.21,4.48-16.38,3.37-34.82-5.08-49.8-2.81-5.71-8.24-9.64-14.11-11.76-8.86-3.34-18.41-1.31-27.56-.87C118.42,360.59,107.67,366.29,98.18,373.23Zm209.94,10.9a66.16,66.16,0,0,0-1.24,18.19,104,104,0,0,0,0,16.84c.31,2.95.61,5.91,1,8.86a108.13,108.13,0,0,1,2.57,12.11c6.21-.21,12-2.6,18-4l6.92-1.9a148,148,0,0,1-1.93-16.12l-.73-2.88c-.49-6.41-1.25-12.81-1.1-19.25a78.74,78.74,0,0,0-.95-15.94C323.07,380.81,315.64,382.75,308.12,384.13Zm-120-3a123.1,123.1,0,0,1,1.8,31.2c-1.77,13.55-7.23,26.36-14.55,37.82q-3.08,3.81-5.9,7.84c3.88,3.71,8.4,6.67,12.32,10.32,3.47,3.17,2.68,8.66,5.88,12,4.33,4.49,10.29,6.86,16.17,8.54-.49-4-1-8.05-1.24-12.11,1.85-1.26,3.82-3,6.24-2.5,1.82,0,2.79,1.79,4,2.92,1,4.49,1.62,9.71,5.44,12.8a29.46,29.46,0,0,0,11.61,0c1.82-1.55,1.81-4.36,2.61-6.51A42.36,42.36,0,0,1,235.66,473c2.38.95,6,.56,7.26,3.26.73,3.31.46,6.74.62,10.12,2-1.27,3.85-2.62,5.7-4,2.39-3.67,4.7-7.84,3.95-12.39-1.2-8.72-7.32-15.82-13.72-21.44-6.71-6-15-11.54-17.67-20.62-1.07-2.9,1.09-5.38,2.47-7.7,1.91.23,4,0,5.77.82,2.53,3,3.34,7.05,6,10s5.8,4.87,8.56,7.46c4,3.66,7.5,7.76,11.52,11.35,1.89-3.53,3.85-7.11,6.77-9.91,3.31-3.37,7.75-5.65,10.17-9.85,2.48-3.56,3.61-8.19,7.15-10.91,2.55.15,5.82-.21,7.31,2.41.89,2.74-.48,5.46-1.44,8-1.92,3-3.54,6.08-5.49,9-2.25,3.4-5.61,5.82-8.8,8.26-6.45,4.47-8,12.9-7.23,20.24.11,8.37,4.42,17.24,12.53,20.46-.11-5.55-1.4-11.51,1.61-16.56,1.83-.35,3.83-.88,5.66-.22,1.36,1.18,2.43,2.66,3.72,3.92a23.27,23.27,0,0,0,2.85,16.66c5.15,0,10.54.95,15.51-.79,2-4.86,2.72-10.18,5.26-14.8,1.95-3.38,7.3-2.33,8.54,1.13.84,2.82.54,5.81.73,8.72,8.53-3.74,14.78-11,20.59-18,1.74-2.63,4.88-5.76,3.05-9.08-1.94-4.47-4.29-8.75-6.07-13.29a217.68,217.68,0,0,0-23,6.17c-4.28,1.22-9.92,2.16-13.29-1.5-1.77-3.38-2.09-7.29-2.88-11-1-7-3.43-13.77-3.73-20.87q-.37-16,.64-31.94c-5.13.17-10.25.42-15.34,1.08a262,262,0,0,1-42.94.63C221.15,387.68,204.58,384.24,188.09,381.15Zm-40.21,96.37c8.81.12,17.63.21,26.44-.11a31.58,31.58,0,0,0-13.16-10.34C156.36,470,152.27,474,147.88,477.52ZM352.4,471c-1.55,2.21-3.07,4.44-4.54,6.71a94.07,94.07,0,0,0,10.34-.62A42.31,42.31,0,0,0,352.4,471Z"/>
  <g>
    <path class="cls-4" d="M151.27,51.65C180.19,31.2,216,22.74,251,21.62c29.55-.86,59.8,3.57,86.44,16.89a103.32,103.32,0,0,1,19.81,11.77c-6.58,6-15.64,7.11-23.55,10.46-8.69,3.71-18.25,4.87-26.77,9.05-10.15,4.77-20,12.56-22.95,23.88-3,12.6,2.31,25.48,10,35.35,4.4,5.55,7.93,12,13.76,16.22q6.26,4.65,12.62,9.14a68.07,68.07,0,0,0,.37,14.13c1.59,8.56,8.5,15.2,16.19,18.68,9.91,4.2,21.33,2.36,30.71-2.37,5.24,4,11,7.35,16.18,11.4,4.7,3.63,8.34,8.39,12,13a48.58,48.58,0,0,1,7.84,13.05c3.47,9.12,4,19,4.61,28.6A126.88,126.88,0,0,1,389,255c-6,.89-12,2.24-18.06,2.53-2.54.16-4.6-1.58-6.73-2.68a42.82,42.82,0,0,0-22.2-6.23c-21-.08-42-.19-63,0-8.43.31-17.41,1-24.6,5.86-3.9,2.39-6.35,6.35-8.76,10.11-15.5,1.53-31.1.68-46.65.82-30-1.19-60.38-3.62-88.85-13.67-1.31-.64-1.45-2.4-2-3.6-3.37-11.34-6.91-22.64-10-34.05q.32-1.31.72-2.58c3.92-5.8,8.27-11.54,14.21-15.41,6.4-4.25,12.54-8.87,19-13,6.71-4.39,14.07-7.69,20.53-12.48,11.31-8.29,23.1-16,33.61-25.33,9.29-7.33,18.48-15.36,24.16-25.94A36.21,36.21,0,0,0,214,93.68c-3.5-10.42-10.83-20-21.2-24.3C178.91,63.7,163.21,61.35,151.27,51.65Zm87.11,132.82a40,40,0,0,0-15.23,5.66c-5.53,3.48-9.37,9.05-12.16,14.84-1.67,3.46-2,8.23.93,11.11,3.83,3.48,9.17,4.41,14.16,4.74,9.63.52,19.28.3,28.92.37,5.9,0,12.57-.83,16.81-5.4a10.46,10.46,0,0,0,1.26-11.87,40,40,0,0,0-12.92-15.08C253.89,184.37,245.85,183.25,238.38,184.47Zm60.34,24.45c-4.27,9.93-2.49,23.1,6.59,29.77,5.2,3.7,11.86,6.41,18.3,4.81,2.89-1,3.74-4.42,5.75-6.46,6.91,0,14.39,3.11,20.86-.65,5.76-2.15,8.49-8.56,8.49-14.34.68-9.52-4.56-19.46-13.32-23.53-8-4.43-17.41-4.72-26.29-4.08C310.24,195.28,303.73,202.2,298.72,208.92Zm-162-5.16c-4.78,6.09-6.84,14.8-3.61,22.08a10.89,10.89,0,0,0,8.66,6.35,115.83,115.83,0,0,0,12.7,2.06c.93,1.79,1.46,3.94,3,5.32,3.33,1.79,7.35,1.48,11,.87C175.66,239,183,235,186.31,228.17c2.62-5.59,3.85-12.16,1.83-18.14C185,204.65,180.87,199.48,175,197c-6.2-3.06-13.33-2.75-20-2.3C148.17,195.56,141.05,198.16,136.71,203.76Zm91.78,27.93c-5.57,1.05-7.54,9.37-2.61,12.39,4.3,3,8.88,6.15,14.14,7.16,3.68-.83,6.5-3.58,9.54-5.64,2.2-1.81,5.36-3.39,5.5-6.62.58-3.88-2.95-6.74-6.46-7.26C242,230.47,235,229.94,228.49,231.69Z"/>
    <path class="cls-4" d="M98.18,373.23c9.49-6.94,20.24-12.64,31.92-14.66,9.15-.44,18.7-2.47,27.56.87,5.87,2.12,11.3,6.05,14.11,11.76,8.45,15,9.56,33.42,5.08,49.8-10.34,11.44-24.53,18.47-38.58,24.28-7.24,3.34-15,5.27-22.76,7l-1.44-.63c-12.5-7-21.58-19.62-25.4-33.35-3.3-11.43-2.23-23.53-.57-35.13C90.86,379.3,94.53,376.2,98.18,373.23Z"/>
    <path class="cls-4" d="M191.16,398.23c9.4,2.08,18.77,4.47,28.38,5.36A382.66,382.66,0,0,0,263,405c5.31,0,10.63-2.43,15.88-1.06,4.52,2.6,4.07,8.67,4.71,13.19-1.15.63-2.3,1.27-3.42,2-3.54,2.72-4.67,7.35-7.15,10.91-2.42,4.2-6.86,6.48-10.17,9.85-2.92,2.8-4.88,6.38-6.77,9.91-4-3.59-7.56-7.69-11.52-11.35-2.76-2.59-6-4.65-8.56-7.46s-3.46-7-6-10c-1.79-.82-3.86-.59-5.77-.82-1.38,2.32-3.54,4.8-2.47,7.7,2.63,9.08,11,14.63,17.67,20.62,6.4,5.62,12.52,12.72,13.72,21.44.75,4.55-1.56,8.72-3.95,12.39-1.32.2-2.63.41-3.94.63-.58-2.76-.76-5.7-2.13-8.22-1.61-2.53-5-1.57-7.51-1.76a42.36,42.36,0,0,0-3.23,10.49c-3.64.58-7.47,1.48-11.06.17-3.52-1.12-6.21-3.78-8.6-6.48-1.17-1.13-2.14-2.88-4-2.92-2.42-.47-4.39,1.24-6.24,2.5l-1.91,1.38c-2.32-3.44-4.16-7.16-6.18-10.77-2.41-4.34-7.38-6-11.22-8.71-3.37-2.07-5.74-5.29-7.92-8.5,7.32-11.46,12.78-24.27,14.55-37.82A107.83,107.83,0,0,0,191.16,398.23Z"/>
  </g>
  <g>
    <path class="cls-5" d="M357.25,50.28A151.84,151.84,0,0,1,371,62c3.58,3.38,6.45,7.74,11.06,9.85,3.84,1.81,7.76,3.47,11.42,5.64,5.47,3.2,11.36,5.73,16.39,9.64,6.91,5.39,14.42,10.13,20.35,16.67a21.16,21.16,0,0,1,6,13.13c-.09,3.07-3.27,4.5-5.65,5.66A92.67,92.67,0,0,1,409,128.84c-5.74,1.09-11.71,1-17.27,2.92-4.05,1.52-4.35,8.15-.3,9.88,5,.58,10-.37,15,.33a113.51,113.51,0,0,0,4,16.77c2.14,6.62,2.95,13.56,4.7,20.27,2.86,11,4.94,22.18,7.64,33.22,1.28,5.38,1.73,10.91,2.93,16.31.92,4.75,2.21,9.51,2,14.39.12,1.28-1.4,1.69-2.27,2.2a161.74,161.74,0,0,1-17.17,5.77c-.64-9.63-1.14-19.48-4.61-28.6a48.58,48.58,0,0,0-7.84-13.05c-3.64-4.64-7.28-9.4-12-13-5.22-4.05-10.94-7.38-16.18-11.4,4.81-4.18,9.53-9.31,10.59-15.83s.55-13.67-2.22-19.86a344.45,344.45,0,0,0-16.78-32.31c-2.79-4.42-4.16-10.32-8.88-13.11-4.87-1.65-7.32,4-9.22,7.42-6.86,14.44-15.77,28-20.76,43.25q-6.36-4.5-12.62-9.14c-5.83-4.24-9.36-10.67-13.76-16.22-7.65-9.87-13-22.75-10-35.35,3-11.32,12.8-19.11,22.95-23.88,8.52-4.18,18.08-5.34,26.77-9.05C341.61,57.39,350.67,56.26,357.25,50.28Z"/>
    <path class="cls-5" d="M132,69a164.34,164.34,0,0,1,19.31-17.31c11.94,9.7,27.64,12.05,41.53,17.73,10.37,4.28,17.7,13.88,21.2,24.3a36.21,36.21,0,0,1-3.68,25.58c-5.68,10.58-14.87,18.61-24.16,25.94-10.51,9.33-22.3,17-33.61,25.33-6.46,4.79-13.82,8.09-20.53,12.48-6.45,4.17-12.59,8.79-19,13-5.94,3.87-10.29,9.61-14.21,15.41-1.66-3.34-3.46-6.73-4-10.47s.54-7.35.92-11c.77-5.83,0-11.75.89-17.57.54-3.82,1.6-7.54,2.45-11.29,2.18-9.25,2.76-18.79,5.17-28,1.24-5.6,3.25-11.22,2.73-17-.76-4.91-6.08-7.15-10.48-7.61-6.93-.68-14-.94-20.67-3,.9-1.94,1.79-3.88,2.83-5.74C84.41,95.55,91,92.72,97,88.9c5.75-3.74,12.21-6.17,18-9.82C120.58,75.6,127.33,73.89,132,69Zm-1.34,77.68c-2.21,1.12-2.21,4.1-3.2,6.12-1.12,4.17-5.08,7-5.84,11.26s5,7.65,8.25,4.82,5.29-6.86,7.29-10.66c1.68-3.09,2.14-7.21-.2-10.1C135.64,145.86,132.75,146.12,130.62,146.64Z"/>
    <path class="cls-5" d="M75.25,400.25c4.12-5.81,7.07-12.66,12.85-17.11-1.66,11.6-2.73,23.7.57,35.13,3.82,13.73,12.9,26.31,25.4,33.35-7.14,2.9-14.79,4.12-22.2,6.13a83.5,83.5,0,0,1-16.65,2.34l-.77-1.5c-4.34-8.88-6-18.78-6.71-28.56-.31-6.62-.41-13.35.94-19.88C70.29,406.51,73.19,403.63,75.25,400.25Z"/>
  </g>
  <path class="cls-6" d="M72.19,105.19a51.18,51.18,0,0,1,6.49-5.45c-1,1.86-1.93,3.8-2.83,5.74,6.71,2.08,13.74,2.34,20.67,3,4.4.46,9.72,2.7,10.48,7.61.52,5.81-1.49,11.43-2.73,17-2.41,9.2-3,18.74-5.17,28-.85,3.75-1.91,7.47-2.45,11.29-.84,5.82-.12,11.74-.89,17.57-.38,3.65-1.38,7.3-.92,11s2.32,7.13,4,10.47q-.41,1.28-.72,2.58c-2.87-5.45-3.63-11.64-5.85-17.33-1.54-4.11-5.86-7.44-4.87-12.24,2.43-17.52,6.69-34.76,11.33-51.82,1.1-4.43,3.31-8.75,3-13.42-.61-4.07-5.22-5.23-8.6-6.07C85.78,111.64,78.12,110.05,72.19,105.19Z"/>
  <g>
    <path class="cls-7" d="M341.08,111.13c1.9-3.38,4.35-9.07,9.22-7.42,4.72,2.79,6.09,8.69,8.88,13.11A344.45,344.45,0,0,1,376,149.13c2.77,6.19,3.19,13.21,2.22,19.86s-5.78,11.65-10.59,15.83c-9.38,4.73-20.8,6.57-30.71,2.37-7.69-3.48-14.6-10.12-16.19-18.68a68.07,68.07,0,0,1-.37-14.13C325.31,139.11,334.22,125.57,341.08,111.13Zm5.86,12.7c-5.49,10.38-11.59,20.56-15.21,31.78-2.13,6.4-.69,14.55,5,18.68,5.36,3.5,12.16,3.54,18.32,3,5.63-.35,10.33-4.7,12.21-9.83a23.47,23.47,0,0,0-3.15-18.37,24.32,24.32,0,0,0-3-5.48c-4-7.28-7.8-14.67-11.71-22C347.93,121.05,347.64,123,346.94,123.83Z"/>
    <path class="cls-7" d="M228.49,231.69c6.55-1.75,13.52-1.22,20.11,0,3.51.52,7,3.38,6.46,7.26-.14,3.23-3.3,4.81-5.5,6.62-3,2.06-5.86,4.81-9.54,5.64-5.26-1-9.84-4.12-14.14-7.16C221,241.06,222.92,232.74,228.49,231.69Z"/>
  </g>
  <path class="cls-8" d="M346.94,123.83c.7-.82,1-2.78,2.45-2.2,3.91,7.32,7.71,14.71,11.71,22-2.06-1.29-4.65-3.14-7.12-1.76-4.47,2.46-4.55,8.5-3.65,12.9.86,5.09,7.11,9.25,11.91,6.57,3.74-2.84,2.48-8.25,1.86-12.23a23.47,23.47,0,0,1,3.15,18.37c-1.88,5.13-6.58,9.48-12.21,9.83-6.16.53-13,.49-18.32-3-5.68-4.13-7.12-12.28-5-18.68C335.35,144.39,341.45,134.21,346.94,123.83Z"/>
  <path class="cls-9" d="M354,141.86c2.47-1.38,5.06.47,7.12,1.76a24.32,24.32,0,0,1,3,5.48c.62,4,1.88,9.39-1.86,12.23-4.8,2.68-11.05-1.48-11.91-6.57C349.43,150.36,349.51,144.32,354,141.86Z"/>
  <path class="cls-10" d="M130.62,146.64c2.13-.52,5-.78,6.3,1.44,2.34,2.89,1.88,7,.2,10.1-2,3.8-4.05,7.75-7.29,10.66s-8.94-.64-8.25-4.82,4.72-7.09,5.84-11.26C128.41,150.74,128.41,147.76,130.62,146.64Z"/>
  <path class="cls-11" d="M238.38,184.47c7.47-1.22,15.51-.1,21.77,4.37a40,40,0,0,1,12.92,15.08,10.46,10.46,0,0,1-1.26,11.87c-4.24,4.57-10.91,5.39-16.81,5.4-9.64-.07-19.29.15-28.92-.37-5-.33-10.33-1.26-14.16-4.74-2.95-2.88-2.6-7.65-.93-11.11,2.79-5.79,6.63-11.36,12.16-14.84A40,40,0,0,1,238.38,184.47Z"/>
  <path class="cls-12" d="M65.29,198.28c2.08-3.29,6.07-4.28,9.52-5.45l-.5.52c-.69.71-1.37,1.42-2,2.15-2.39,2.7-4.91,5.85-4.78,9.67.19,10.16,4.23,19.67,7.05,29.29C78,244.55,81.37,254.7,84.09,265a28.27,28.27,0,0,0,5,10.59c2.17,10.58,7.7,20.19,9,31-1.67-.8-3.71-1.47-4.09-3.54-9.67-30.64-19.51-61.23-29.17-91.87C63.67,207.05,62.91,202.18,65.29,198.28Z"/>
  <path class="cls-13" d="M72.27,195.5c.67-.73,1.35-1.44,2-2.15,3.49,1.78,6.9,4.2,8.22,8.07,2.67,7.16,4.39,14.63,6.69,21.91l-4.36-.44c-2.14-4.13-3.14-8.69-4.59-13.08-1.43-4.58-5.17-7.81-8.45-11.1Z"/>
  <path class="cls-14" d="M298.72,208.92c5-6.72,11.52-13.64,20.38-14.48,8.88-.64,18.32-.35,26.29,4.08,8.76,4.07,14,14,13.32,23.53,0,5.78-2.73,12.19-8.49,14.34a102.59,102.59,0,0,1-34.9-3.75c-5.58-1.66-11.12-4.7-14.29-9.74C298.42,218.75,298.45,213.64,298.72,208.92Zm43.69,2.35c-5.14,2.25-4.83,11.27.69,12.86,3.74,1.29,8.26-2.09,7.64-6.13C351.12,213.88,346.52,209,342.41,211.27Zm-35.48,1.57a38.54,38.54,0,0,0-.89,4c1.85.41,3.73.77,5.61,1.09-.1-1.85-.21-3.69-.34-5.53A40.35,40.35,0,0,0,306.93,212.84Z"/>
  <path class="cls-15" d="M67.49,205.17c-.13-3.82,2.39-7,4.78-9.67l-.45,3.21c3.28,3.29,7,6.52,8.45,11.1,1.45,4.39,2.45,8.95,4.59,13.08,3.62,6.29,3.56,13.73,5.76,20.5,3,9.78,6.32,19.51,9.1,29.38a94.9,94.9,0,0,0-10.61,2.86,28.27,28.27,0,0,1-5-10.59c-2.72-10.34-6-20.49-9.55-30.58C71.72,224.84,67.68,215.33,67.49,205.17Z"/>
  <path class="cls-16" d="M136.71,203.76c4.34-5.6,11.46-8.2,18.28-9.11,6.71-.45,13.84-.76,20,2.3,5.84,2.53,10,7.7,13.11,13.08.14,4.06.23,8.5-2.11,12-3.24,4.77-8.76,7.52-14.29,8.63a117.18,117.18,0,0,1-30,1.5,10.89,10.89,0,0,1-8.66-6.35C129.87,218.56,131.93,209.85,136.71,203.76Zm32.71,3.56c-3.49,1.08-3.66,5.15-2.86,8.12,2,3.31,7.3,4.23,9.65.73C180,212,174.43,204.55,169.42,207.32Zm-30,8c-1.73,1.25-.8,3.61-1,5.4,1.66-.4,4.27.34,4.72-1.91C144.08,216.65,141.51,214.64,139.38,215.33Z"/>
  <path class="cls-17" d="M169.42,207.32c5-2.77,10.6,4.65,6.79,8.85-2.35,3.5-7.61,2.58-9.65-.73C165.76,212.47,165.93,208.4,169.42,207.32Z"/>
  <g>
    <path class="cls-18" d="M305.31,238.69c-9.08-6.67-10.86-19.84-6.59-29.77-.27,4.72-.3,9.83,2.31,14,3.17,5,8.71,8.08,14.29,9.74a102.59,102.59,0,0,0,34.9,3.75c-6.47,3.76-14,.68-20.86.65-2,2-2.86,5.46-5.75,6.46C317.17,245.1,310.51,242.39,305.31,238.69Z"/>
    <path class="cls-18" d="M169.44,458q2.84-4,5.9-7.84c2.18,3.21,4.55,6.43,7.92,8.5,3.84,2.72,8.81,4.37,11.22,8.71,2,3.61,3.86,7.33,6.18,10.77l1.91-1.38c.21,4.06.75,8.08,1.24,12.11-5.88-1.68-11.84-4.05-16.17-8.54-3.2-3.35-2.41-8.84-5.88-12C177.84,464.68,173.32,461.72,169.44,458Z"/>
  </g>
  <path class="cls-19" d="M188.14,210c2,6,.79,12.55-1.83,18.14C183,235,175.66,239,168.44,240.44c-3.61.61-7.63.92-11-.87-1.56-1.38-2.09-3.53-3-5.32a115.83,115.83,0,0,1-12.7-2.06,117.18,117.18,0,0,0,30-1.5c5.53-1.11,11-3.86,14.29-8.63C188.37,218.53,188.28,214.09,188.14,210Z"/>
  <path class="cls-20" d="M342.41,211.27c4.11-2.25,8.71,2.61,8.33,6.73.62,4-3.9,7.42-7.64,6.13C337.58,222.54,337.27,213.52,342.41,211.27Z"/>
  <path class="cls-21" d="M306.93,212.84a40.35,40.35,0,0,1,4.38-.44c.13,1.84.24,3.68.34,5.53-1.88-.32-3.76-.68-5.61-1.09A38.54,38.54,0,0,1,306.93,212.84Z"/>
  <path class="cls-22" d="M139.38,215.33c2.13-.69,4.7,1.32,3.72,3.49-.45,2.25-3.06,1.51-4.72,1.91C138.58,218.94,137.65,216.58,139.38,215.33Z"/>
  <path class="cls-23" d="M439,237.5c3.82.58,8.45,1.22,10.56,4.94,1.65,3.61,2.33,8.06.72,11.8a51.88,51.88,0,0,1-17,13c-3.45,1.83-7.26,3.23-10.1,6-3.12,2.94-1,8.83,3.09,9.54,5.55,1,11.26.44,16.86,1.16-.25,3.11-.46,6.23-.92,9.32a52.4,52.4,0,0,1-5.69,13.31c-3.51,5.66-9.67,8.74-15.44,11.61-4,2.08-8.57,2.74-13,3.19-4.53-14.09-9.6-28.16-17.81-40.59-2.81-4.45-6.23-8.48-9-12.94,5.24-2,10.89-1.71,16.32-2.67a132,132,0,0,0,20.11-5.47c6.18-2.27,12.93-3.7,18.21-7.81C440.09,248.33,438.73,242.31,439,237.5Z"/>
  <g>
    <path class="cls-24" d="M433.3,267.23a51.88,51.88,0,0,0,17-13c-1.78,5.4-4.59,10.41-6.23,15.85-1.36,4.51.63,9.07.56,13.62a19.67,19.67,0,0,1-2.37,9.54c.46-3.09.67-6.21.92-9.32-5.6-.72-11.31-.14-16.86-1.16-4.12-.71-6.21-6.6-3.09-9.54C426,270.46,429.85,269.06,433.3,267.23Z"/>
    <path class="cls-24" d="M270.37,260.64c22.45-2.63,45.1-1.11,67.64-1.32,6.88,0,14.4.26,20.05,4.72-11.51-4.28-24-3.68-36.06-4-9,.12-18.08-1-27,.85,4.41,2.82,9.37,4.59,13.91,7.17,8.06,5,15.87,10.61,22,17.94,3.05,3.67,4.65,8.21,6.64,12.48,2.53,5.48,5.37,10.83,7.18,16.61,4.11,13.38,7.41,27.07,8.75,41,.69,11.91-.34,23.86.55,35.77,1.12,12.83,3,25.68,7,38,2.59,7.82,6.84,14.94,10.94,22,2.05,3.52,4.2,7.12,7.44,9.7,5.56,4.54,12.5,7,17.82,11.92-3.18,3.11-5.05,7.19-6.58,11.28-7.75-2.7-14.39-7.69-20.86-12.59-5.78-5.57-12.25-10.92-15.59-18.42-9.08-18.52-11.38-39.47-12.09-59.82-1.29-10-.19-20-1.35-30-1.36-21.88-4.15-44.43-14.64-64-8.94-16.25-25.21-27.74-43.2-31.79-7.59-2-15.5-1.88-23.17-3.38A20.53,20.53,0,0,1,270.37,260.64Z"/>
    <path class="cls-24" d="M175.92,343c-5-2.86-1.09-11.29,4.11-10.72,7.27,0,14.24,2.32,21.37,3.4,9.45,1.73,19.08,1.65,28.61,2.44,5.08.37,10.07,1.41,15.12,1.94-3,1.17-6.16,2.33-8.31,4.79-1.86,2.83-.7,7.6,2.84,8.46,3.13.7,6.37-.22,9.29-1.34,2-.87,4.26-2,4.81-4.28.74-2.83-1.19-5.32-2.46-7.66,8.85.63,17.74,1.2,26.6.21-2,1.56-4.32,3.76-2.88,6.53,2.22,5.53,9.19,4.44,14,4.65,13.15.48,26.22-1.16,39.09-3.74,1.49,6.63,1.56,13.44,1.64,20.19-6.44,2.09-13.11,3.27-19.68,4.78l-.41-.88a41.36,41.36,0,0,0,5.82-2.48,13,13,0,0,0,0-10.73c-3.39-1-7-.25-10.43,0-16.6,2-33.33.89-50,1.2-11.72.33-23.22-2.12-34.83-3.26-7-.73-13.65-2.9-20.46-4.36C191.38,350.37,183.11,347.61,175.92,343Z"/>
    <path class="cls-24" d="M308.12,384.13c7.52-1.38,14.95-3.32,22.57-4.08a78.74,78.74,0,0,1,.95,15.94c-.15,6.44.61,12.84,1.1,19.25l-.87-2.57c-3.39.94-6.76,1.92-10.15,2.82-6.77-3.56-6.84-12-8.9-18.45-.78-1.84-1-5.12-3.61-5.06-1.53,3.23-2,6.82-2.33,10.34A66.16,66.16,0,0,1,308.12,384.13Z"/>
  </g>
  <g>
    <path class="cls-25" d="M295,260.94c8.89-1.83,18-.73,27-.85,12.07.27,24.55-.33,36.06,4,7.62,3.91,13.6,10.4,19,16.95a143.13,143.13,0,0,1,23.17,53.76c2.38,9.21,3.06,18.76,5.43,28,1.7,6.56,1.49,13.4,2.61,20.06,2.21,12.52,1.08,25.45,4.2,37.85,2.85,10.87,7.62,21.38,14.91,30,3.79,4.52,8.41,8.23,12.45,12.52-14.14.62-28.85,2.58-41.37,9.6l-1.23.8c-5.32-4.88-12.26-7.38-17.82-11.92-3.24-2.58-5.39-6.18-7.44-9.7-4.1-7.1-8.35-14.22-10.94-22-4-12.29-5.85-25.14-7-38-.89-11.91.14-23.86-.55-35.77-1.34-14-4.64-27.65-8.75-41-1.81-5.78-4.65-11.13-7.18-16.61-2-4.27-3.59-8.81-6.64-12.48-6.09-7.33-13.9-13-22-17.94C304.4,265.53,299.44,263.76,295,260.94Z"/>
    <path class="cls-25" d="M114.52,265.71c8.36,1.63,16.73,3.24,24.93,5.55,26.93,4.39,54.29,5.43,81.55,5.13,9.43.29,18.86-.74,28.28,0,6.33.44,12.73.08,19,1.23,8,5.79,18.17,8.59,25,16.14,8.25,8.14,12.05,19.31,16,29.91a38.74,38.74,0,0,1,2.28,15.5c-11.18,1.24-22.41,1.23-33.63,1.08-8.86,1-17.75.42-26.6-.21-2.06,0-4.12,0-6.17,0-5-.53-10-1.57-15.12-1.94-9.53-.79-19.16-.71-28.61-2.44-7.13-1.08-14.1-3.45-21.37-3.4-5.2-.57-9.07,7.86-4.11,10.72,7.19,4.62,15.46,7.38,23.79,9.12,6.81,1.46,13.49,3.63,20.46,4.36,11.61,1.14,23.11,3.59,34.83,3.26,16.67-.31,33.4.83,50-1.2,3.45-.23,7-1,10.43,0a13,13,0,0,1,0,10.73,41.36,41.36,0,0,1-5.82,2.48l.41.88A252.07,252.07,0,0,1,264,376.45c-18.56-.11-37.31.84-55.62-2.85-8.06-1.74-16.49-2-24.28-4.87-3.08-2.66-4.56-6.65-7.16-9.72-2.7-3.38-6.41-5.7-10-8a28.32,28.32,0,0,0-12.17-4.68c-5-.76-10.13,0-15-1.18-2.22-1.68-2.09-4.85-2.79-7.3,3.43-.43,6.92-.64,10.24-1.66,3.89-1,5.06-6.85,2.2-9.54-5.58-5.93-15.86-4.17-20.39-11.55-3.52-8-5.15-16.65-8-24.89C119.08,282,115.64,274.12,114.52,265.71Z"/>
  </g>
  <path class="cls-26" d="M68.86,263.76A14.25,14.25,0,0,1,72.12,270c1.66,6,3.9,11.77,5.7,17.7l-.37.68a19.85,19.85,0,0,0-3.2,9.63c-.22,6.64-.1,13.51,2.15,19.84,2,5.36,7.17,8.51,12.22,10.56.15-1.48.27-3,.36-4.45A48.29,48.29,0,0,1,93.42,340,96.76,96.76,0,0,1,67.8,316.2,30.85,30.85,0,0,1,61.29,297C61.2,285.5,64.93,274.42,68.86,263.76Z"/>
  <path class="cls-27" d="M89.11,275.63a94.9,94.9,0,0,1,10.61-2.86c3.23,10.52,5.64,21.31,9.92,31.49a106.61,106.61,0,0,1-11.58,2.38C96.81,295.82,91.28,286.21,89.11,275.63Z"/>
  <path class="cls-28" d="M293.25,293.74c-6.79-7.55-16.91-10.35-25-16.14,15.5.49,31.23,6.68,41.75,18.32,9.22,11.43,14.57,25.65,16.41,40.15a107.9,107.9,0,0,1-14.92,3.08,38.74,38.74,0,0,0-2.28-15.5C305.3,313.05,301.5,301.88,293.25,293.74Z"/>
  <path class="cls-29" d="M74.25,298a19.85,19.85,0,0,1,3.2-9.63c3.5,7.45,5.24,15.55,7.84,23.33,1.17,4.1,3,8,3.69,12.25-.09,1.48-.21,3-.36,4.45-5.05-2.05-10.23-5.2-12.22-10.56C74.15,311.47,74,304.6,74.25,298Z"/>
  <path class="cls-30" d="M112.91,315.47c1.44-.54,2.88-1.06,4.34-1.55,2.21,7.94,4.13,16,7.07,23.7,1.07,3.22,2.6,6.46,2.35,9.94q-1.64.54-3.3,1C119.3,337.71,116.32,326.52,112.91,315.47Z"/>
  <path class="cls-31" d="M102.7,317.47a75.49,75.49,0,0,0,10.21-2c3.41,11,6.39,22.24,10.46,33.08-3.48,1.17-6.93,2.42-10.29,3.89C110.13,340.63,105.68,329.27,102.7,317.47Z"/>
  <path class="cls-32" d="M129,315.07c4.53,7.38,14.81,5.62,20.39,11.55,2.86,2.69,1.69,8.53-2.2,9.54-3.32,1-6.81,1.23-10.24,1.66.7,2.45.57,5.62,2.79,7.3,4.92,1.14,10.06.42,15,1.18A28.32,28.32,0,0,1,167,351c-5.88-1.73-11.71-4.06-17.92-4.22-3.44-.21-6.94.21-10.33-.54-1.52-1.77-2-4.14-2.58-6.32C134.15,331.51,131.16,323.41,129,315.07Z"/>
  <path class="cls-33" d="M99.2,317.47c1.17,0,2.33,0,3.5,0,3,11.8,7.43,23.16,10.38,35a20.31,20.31,0,0,1-3.31-.22c-1.58-3.63-2.4-7.52-3.66-11.26C103.7,333.16,100.51,325.56,99.2,317.47Z"/>
  <path class="cls-34" d="M412,334.28c6.78-2.52,13-6.26,19.87-8.61-.86,5.86-1.4,12.22-5.19,17.06a66.27,66.27,0,0,1-11.24,11.34C413.62,347.62,412.06,341,412,334.28Z"/>
  <path class="cls-35" d="M245.13,340.05c2.05,0,4.11-.06,6.17,0,1.27,2.34,3.2,4.83,2.46,7.66-.55,2.27-2.85,3.41-4.81,4.28-2.92,1.12-6.16,2-9.29,1.34-3.54-.86-4.7-5.63-2.84-8.46C239,342.38,242.17,341.22,245.13,340.05Z"/>
  <path class="cls-36" d="M74.69,364.58c2.51-6,5-12.07,9.22-17.05,5.43,3.27,10.78,6.68,16.21,10-6.22,6-13.56,10.8-19.45,17.19-3.87,4-6.89,8.66-10.82,12.57C69.51,379.4,71.86,371.79,74.69,364.58Z"/>
  <path class="cls-37" d="M188.09,381.15c16.49,3.09,33.06,6.53,49.91,6.63a262,262,0,0,0,42.94-.63c5.09-.66,10.21-.91,15.34-1.08q-1,16-.64,31.94c.3,7.1,2.7,13.87,3.73,20.87.79,3.69,1.11,7.6,2.88,11,3.37,3.66,9,2.72,13.29,1.5a217.68,217.68,0,0,1,23-6.17c1.78,4.54,4.13,8.82,6.07,13.29,1.83,3.32-1.31,6.45-3.05,9.08-5.81,7-12.06,14.25-20.59,18-.19-2.91.11-5.9-.73-8.72-1.24-3.46-6.59-4.51-8.54-1.13-2.54,4.62-3.3,9.94-5.26,14.8-5,1.74-10.36.77-15.51.79a23.27,23.27,0,0,1-2.85-16.66c4.91,3.5,10.83,6.08,17,5.67,5,.24,5.16-7.33,10-7.5,3.46,0,5.79,3,8.23,5.07,3.86-.9,8.63-1.07,11.2-4.52,1.09-3.21,0-6.69-.93-9.81-.81-1.93-1.54-4.62-3.92-5-8.07-1.71-16.37-.22-24.5-1.12-2.23-.11-3.82-1.8-5-3.49-5.35-7.43-8.51-16.09-12.19-24.4l-1.82,0c1-2.52,2.33-5.24,1.44-8-1.49-2.62-4.76-2.26-7.31-2.41,1.12-.69,2.27-1.33,3.42-2-.64-4.52-.19-10.59-4.71-13.19-5.25-1.37-10.57,1.1-15.88,1.06a382.66,382.66,0,0,1-43.49-1.45c-9.61-.89-19-3.28-28.38-5.36a107.83,107.83,0,0,1-1.27,14.12A123.1,123.1,0,0,0,188.09,381.15Z"/>
  <path class="cls-38" d="M48.8,395.12a39.63,39.63,0,0,1,9.78-3.21c.66,3.49,1.27,7,1.8,10.51-2.81-.35-6.39,0-8.15-2.75C51,398.19,49.92,396.65,48.8,395.12Z"/>
  <path class="cls-39" d="M309.21,392c2.6-.06,2.83,3.22,3.61,5.06,2.06,6.44,2.13,14.89,8.9,18.45l-4.5,1.05c-3.43.86-6.85,1.78-10.3,2.62a104,104,0,0,1,0-16.84C307.25,398.8,307.68,395.21,309.21,392Z"/>
  <path class="cls-40" d="M31.66,408.58c4.28-6.07,10.44-10.42,17.14-13.46,1.12,1.53,2.24,3.07,3.43,4.55a39.43,39.43,0,0,0-7.41,1.25c-1.64,1.74-1.46,4.4-2,6.59C39.08,407.84,35.37,408.22,31.66,408.58Z"/>
  <path class="cls-41" d="M31.66,408.58c3.71-.36,7.42-.74,11.13-1.07L45,409.62c-7.37,7.22-11.09,17.13-13.29,27-3-1.16-4.9-3.84-6.09-6.73A33.84,33.84,0,0,1,31.66,408.58Z"/>
  <path class="cls-42" d="M45,409.62c3.92,2.3,8.37,3.32,12.82,4-6.19,12.68-8.2,27.23-6.9,41.2-3.43-1.78-7.1-3.21-10.16-5.63-3.68-2.88-6.55-6.61-9.63-10.1.19-.83.38-1.65.58-2.47C33.92,426.75,37.64,416.84,45,409.62Z"/>
  <path class="cls-43" d="M57.83,413.63a27.94,27.94,0,0,0,10.85-3.48c-1.35,6.53-1.25,13.26-.94,19.88.73,9.78,2.37,19.68,6.71,28.56-7.71,2.49-15.42-1.31-23-2.33l-.48-1.43C49.63,440.86,51.64,426.31,57.83,413.63Z"/>
  <path class="cls-44" d="M321.72,415.49c3.39-.9,6.76-1.88,10.15-2.82l.87,2.57.73,2.88a25.46,25.46,0,0,1-.52,4.53c-1.19,1.51-3.3,1.77-5,2.44l-3.58,1c-1.52-3.74-3.63-7.35-7.15-9.53Z"/>
  <path class="cls-45" d="M306.92,419.16c3.45-.84,6.87-1.76,10.3-2.62,3.52,2.18,5.63,5.79,7.15,9.53-4.93,1.38-9.88,2.72-14.9,3.72L307.94,428C307.53,425.07,307.23,422.11,306.92,419.16Z"/>
  <path class="cls-46" d="M333.47,418.12a148,148,0,0,0,1.93,16.12l-6.92,1.9a22.88,22.88,0,0,0,1.52-5c-.2-2.13-1.28-4.05-2.05-6,1.7-.67,3.81-.93,5-2.44A25.46,25.46,0,0,0,333.47,418.12Z"/>
  <path class="cls-47" d="M138.27,445.28c14-5.81,28.24-12.84,38.58-24.28-3.19,14.08-12,26.16-22,36.21-7.94.06-15.87-.34-23.8-.57-5.47-.1-10.6-2.13-15.49-4.39C123.27,450.55,131,448.62,138.27,445.28Z"/>
  <path class="cls-48" d="M324.37,426.07l3.58-1c.77,2,1.85,3.88,2.05,6a22.88,22.88,0,0,1-1.52,5c-6,1.39-11.76,3.78-18,4A108.13,108.13,0,0,0,307.94,428l1.53,1.77C314.49,428.79,319.44,427.45,324.37,426.07Z"/>
  <path class="cls-49" d="M286.07,429.52l1.82,0c3.68,8.31,6.84,17,12.19,24.4,1.21,1.69,2.8,3.38,5,3.49,8.13.9,16.43-.59,24.5,1.12,2.38.41,3.11,3.1,3.92,5,.93,3.12,2,6.6.93,9.81-2.57,3.45-7.34,3.62-11.2,4.52-2.44-2-4.77-5.08-8.23-5.07-4.83.17-5,7.74-10,7.5-6.14.41-12.06-2.17-17-5.67-1.29-1.26-2.36-2.74-3.72-3.92-1.83-.66-3.83-.13-5.66.22-1,.24-2.06.5-3.07.77-4.11-7.66-3.24-16.55-3.84-24.91,3.19-2.44,6.55-4.86,8.8-8.26C282.53,435.6,284.15,432.47,286.07,429.52Z"/>
  <path class="cls-50" d="M25.63,429.9c1.19,2.89,3.07,5.57,6.09,6.73-.2.82-.39,1.64-.58,2.47-.56,2.43-1.18,4.84-1.64,7.29C26.76,441.32,26,435.56,25.63,429.9Z"/>
  <path class="cls-51" d="M31.14,439.1c3.08,3.49,6,7.22,9.63,10.1,3.06,2.42,6.73,3.85,10.16,5.63l.48,1.43c1.43,4.37,2.85,8.89,5.85,12.48a106.92,106.92,0,0,0,9.88,10.2c-9.63-2.56-17.75-8.71-25.83-14.29A28.19,28.19,0,0,1,29.5,446.39C30,443.94,30.58,441.53,31.14,439.1Z"/>
  <path class="cls-52" d="M264.55,467c-.78-7.34.78-15.77,7.23-20.24.6,8.36-.27,17.25,3.84,24.91,1-.27,2-.53,3.07-.77-3,5.05-1.72,11-1.61,16.56C269,484.27,264.66,475.4,264.55,467Z"/>
  <path class="cls-53" d="M91.87,457.75c7.41-2,15.06-3.23,22.2-6.13l1.44.63c4.89,2.26,10,4.29,15.49,4.39,7.93.23,15.86.63,23.8.57a99.18,99.18,0,0,1-14.7,11.87c-11.09,7-22.91,13.79-36.15,15.42-4.86-2.65-10.36-4.19-14.69-7.76a57.07,57.07,0,0,1-14-16.65A83.5,83.5,0,0,0,91.87,457.75Z"/>
  <path class="cls-54" d="M51.41,456.26c7.62,1,15.33,4.82,23,2.33l.77,1.5a57.07,57.07,0,0,0,14,16.65c4.33,3.57,9.83,5.11,14.69,7.76-12.34.52-25.82.92-36.81-5.56a106.92,106.92,0,0,1-9.88-10.2C54.26,465.15,52.84,460.63,51.41,456.26Z"/>
  <path class="cls-55" d="M398.42,472.77c12.52-7,27.23-9,41.37-9.6,5,2.58,9.58,6,14.48,8.84A101.69,101.69,0,0,1,440,473.67a102.94,102.94,0,0,0-23.85,3.62C409.83,479.28,403.45,476.6,398.42,472.77Z"/>
  <path class="cls-56" d="M147.88,477.52c4.39-3.51,8.48-7.49,13.28-10.45a31.58,31.58,0,0,1,13.16,10.34C165.51,477.73,156.69,477.64,147.88,477.52Z"/>
  <path class="cls-57" d="M352.4,471a42.31,42.31,0,0,1,5.8,6.09,94.07,94.07,0,0,1-10.34.62C349.33,475.41,350.85,473.18,352.4,471Z"/>
  <path class="cls-58" d="M454.27,472c1.54-.07,2.92.83,4.32,1.37,4.53,2.22,9.42,3.56,14,5.79-5.78,2.73-12.32,2.39-18.54,2.49-13.53-.21-27.79.65-39.83,7.44-4.61,2.6-9.83.19-14.53-.81,1.89-2.59,3.63-5.49,6.48-7.16a42.9,42.9,0,0,1,10.07-3.84A102.94,102.94,0,0,1,440,473.67,101.69,101.69,0,0,0,454.27,472Z"/>
  <path class="cls-59" d="M235.66,473c2.49.19,5.9-.77,7.51,1.76,1.37,2.52,1.55,5.46,2.13,8.22,1.31-.22,2.62-.43,3.94-.63-1.85,1.41-3.75,2.76-5.7,4-.16-3.38.11-6.81-.62-10.12C241.68,473.57,238,474,235.66,473Z"/>
  <path class="cls-60" d="M397.19,473.57l1.23-.8c5,3.83,11.41,6.51,17.77,4.52a42.9,42.9,0,0,0-10.07,3.84c-2.85,1.67-4.59,4.57-6.48,7.16a93.7,93.7,0,0,1-9-3.44C392.14,480.76,394,476.68,397.19,473.57Z"/>
  <path class="cls-61" d="M212.77,477.19c2.39,2.7,5.08,5.36,8.6,6.48,3.59,1.31,7.42.41,11.06-.17-.8,2.15-.79,5-2.61,6.51a29.46,29.46,0,0,1-11.61,0C214.39,486.9,213.77,481.68,212.77,477.19Z"/>
</svg>
