<svg id="Layer_1" data-name="Layer 1" xmlns="http://www.w3.org/2000/svg" viewBox="0 0 483.51 504.25">
  <defs>
    <style>
      .cls-1 {
        fill: #f6efef;
      }

      .cls-2 {
        fill: #091f2e;
      }

      .cls-3 {
        fill: #ed441b;
      }

      .cls-4 {
        fill: #fbc1bc;
      }

      .cls-5 {
        fill: #ba3c20;
      }

      .cls-6 {
        fill: #bfbec0;
      }
    </style>
  </defs>
  <g>
    <path class="cls-1" d="M0,0H.1L0,.1Z"/>
    <path class="cls-1" d="M392.89,8.9c6.48-2.63,13.79-5.19,20.67-2.43A28.73,28.73,0,0,1,432,24.89c2.68,7,1.85,14.59,1.61,21.88-1.83,13.44-6,26.45-11.09,39-1.48,3.9,1.52,7.39,2.88,10.83C433.36,112,440.29,128,447,144c6.13,15.55,12.11,31.22,16.42,47.4A97.21,97.21,0,0,1,466.61,209c.58,11.53-4.24,22.27-8.52,32.68,4.32,3.31,8.54,7.14,10.85,12.18,2.55,6,2.4,12.71,1.41,19.06,6.67,3.27,12.1,9.43,13,17,1.1,11.6-3.83,24.13-13.83,30.58-4.8,3.87-11,4.83-16.79,6.23a13.1,13.1,0,0,0-2,4.14c-6.13,16.89-14.17,33.26-25.67,47.18-4.92,6.4-10.86,11.91-16.8,17.33.59,10.75.09,21.66-2.78,32.1-.58,2.07-1.5,4.11-1.45,6.31,1.37,2,3.35,3.42,5,5.19,7.25,7,11.34,17.73,8.92,27.74-2.79,9.82-11,17.18-20.14,21.15-2.79,1-5.85.91-8.77,1.26-14,0-28,0-42,0-5.17-.29-10.47-.78-15.24-2.93-2.33-1.2-4.41-2.81-6.65-4.17-6,4.09-13.05,6-20,7.83-3,3-5.67,6.56-9.45,8.72-4.41,2.62-9.64,3.15-14.65,3.52-8.68.16-17.38.2-26,1.12-3.68.38-7.31-.6-11-.43-10.64-.23-21.66,1.82-31.95-1.9-5.05-2-8.08-6.71-11.27-10.79-2.27,0-4.56.07-6.69-.84-7.05,0-14.16-.07-21.25,0-13.05,9.23-29,13.35-44.78,14.37-8,1.21-16.11.14-24.14-.45-18.9-2.08-38.27-6.81-53.67-18.5C38,475.75,28.4,461.57,28.35,446c-.54-9.71,2.75-19.13,6.88-27.77a46.92,46.92,0,0,1,30.13-23.81c16.26-4.67,33.65-2.69,49.68,2-1.53-8.13-2.69-16.63-.34-24.75,2-9.65,7.87-18,15-24.59-5-10.33-2.39-22.24,2.49-32.08a208.7,208.7,0,0,1-36.39-20.8c-3.86-2.78-7.51-6.45-8.5-11.27A202.45,202.45,0,0,1,82,244c-1.28-11.62-.47-23.31.27-34.92,1.32-19.51,5-38.8,10-57.71,1.22-7.45,2.27-15.23,6.58-21.65-6.71-8.43-13-17.33-17.18-27.3C78.07,93.06,75.52,83.06,76.43,73c.29-11,5.81-22.51,16-27.5,8.62-4.74,19.26-3.77,28.07,0a81.18,81.18,0,0,0,36.89,3c6-3.31,11.8-6.88,17.76-10.23a326.82,326.82,0,0,1,35.56-15.38c21.41-7.1,43.73-11.77,66.29-12.7,12,0,24-.36,36,.63a236.32,236.32,0,0,1,38.16,7.06c2.72.67,5.57,1.78,8.35.73C370.7,15.56,382.16,13.36,392.89,8.9Zm2.17,4.25c-11.12,4.63-23,7-34.56,10.12a14.17,14.17,0,0,1-7.88-.09c-63.38-18.3-134-7.21-189.7,27.74-2.12,1.27-4.33,2.8-6.92,2.67-7.19.23-14.39.33-21.57-.13a78.6,78.6,0,0,1-19-4.85c-5.82-1.91-12.38-2.54-18.16-.16A24.66,24.66,0,0,0,82.21,66.23c-3.28,15,1,30.82,8.7,43.82,3.25,6.18,7.67,11.61,12.11,17,1.9,1.78.23,4.39-.64,6.27-4,6.66-4.17,14.62-6.21,21.93-10.59,41-13.68,84.58-4.31,126.12.59,4,3.79,6.73,6.83,9a193.33,193.33,0,0,0,40.44,22.27c-2.38,4.32-4.78,8.7-6.18,13.46-2.22,7.31-1.63,15.73,3.18,21.91-11.24,8.19-18.8,21.93-17.77,36-.3,6.18,2.17,11.92,3.41,17.86a40,40,0,0,1-4.59.77c-12.27-5.22-25.93-6.56-39.15-5.81-8,1.12-16.19,2.71-23.06,7.13-12.34,7-19.16,20.78-21.59,34.33a98.21,98.21,0,0,0,0,12.49c2.09,13,10.82,24.09,21.46,31.42,16.1,11.19,35.92,15.51,55.21,16.7,9,1.06,18,.2,26.9-.91a74.57,74.57,0,0,0,34.48-13.62c11-.17,22.07.22,33.09.89a18.35,18.35,0,0,0,7.76,10.43c3.17,2.08,7.1,2.09,10.73,2.58,9,.35,18,0,27,.18,7,.3,14-1,21-.91,7.7-.51,16.22.9,23.06-3.53,3.57-2.05,5.76-5.59,8.36-8.63,8.51-1.38,16.8-4.33,23.58-9.78a23,23,0,0,0,18,8.63c15.68,0,31.37,0,47,0,5.11.24,9.47-2.9,13.36-5.82,5.38-4.48,10.14-11,9.43-18.39-.08-9.83-7.27-17.61-14.42-23.49-1.81-1-1.23-3.18-.59-4.7,5.27-12.13,5.36-25.74,4.28-38.7,15.37-11.92,27.16-28.06,35.53-45.52,3.59-8.24,7.56-16.39,9.81-25.13,6.53-1,13.4-2,18.81-6.18,8.82-5.93,12.95-17.51,11-27.8-1.72-6.53-7.63-10.55-13.71-12.58,1.73-6.07,2.68-12.71.48-18.8s-7.61-10.62-13.47-13.26c4-8.49,8.19-17.07,9.7-26.42,1.47-8.45-.47-17-2.51-25.17-7.69-28.15-19.39-55-31.6-81.41-3.45-7.35-7.38-14.48-10.5-22,.14-3.2,2.16-6,3.15-9,4.82-13.12,9.08-26.74,9.58-40.8.4-9.92-3.59-20.7-12.43-25.95C410.3,9,401.9,10.14,395.06,13.15Z"/>
    <path class="cls-1" d="M211.81,39.73A220.27,220.27,0,0,1,287,26.24a212.72,212.72,0,0,1,52,5.27c-7.3,10.69-14.82,21.32-24,30.53-3.75,3.93-7.4,9.21-6.27,14.92,1.55,6,6.37,10.43,10.85,14.44,11.76,9.7,26.79,13.72,40.82,18.93,16.46,5.37,33.24,13.08,44,27.24,10.66,13.76,15.07,30.87,21.17,46.85,2.34,5.52,4.66,11.7,10,15,3.71,2.36,8.25,2.11,12.45,1.92l1.27-.05c.57,5.67.95,11.45.09,17.12-2.08,8.68-6.11,16.76-10.56,24.45-1.22,2.31-3.91,3-6.1,4.07-2.69-6.24-7.22-11.78-13.62-14.42l.38-.67c.88-3.37,1.39-7,.18-10.39a17.33,17.33,0,0,0-15.47-11.16c-8.85-.3-17.45,3.24-24.61,8.22-5,3.9-10,9-10.85,15.53-.58,6,3.86,10.69,7.36,15-1.4.2-2.79.46-4.18.66l-2,.24c-6.15.33-12.92,2.05-16.72,7.29-4.44,6.37-4.47,14.81-2.49,22.07.45,2.45,1.78,5.24.21,7.57-2.21,3.93-5.38,7.52-6.05,12.13-1,6.6-.55,14.16,4.23,19.3,1.6,2.38,4.29,4,7.2,3,3.46-1.67,3-6,4.13-9.07,2.35-6.88,7.1-12.59,11.93-17.88,1.74-2.2,3.85-5.21,2.41-8.08-2.29-5-6.52-9.47-6.37-15.3a10,10,0,0,1,6.44-10.51c4-.6,8.34-.51,12.08,1.3,2.88,1.07,5.61,3.14,8.83,2.8,2.07.05,3.56-1.69,4.64-3.25.52-4.66-1.18-10,2.1-13.94,3-4.27,8.66-4.76,13.4-4.17,2,.07,3.33,1.89,4.49,3.35,3.49,4.66,2.61,12.06,8.62,14.77,3.63-1.2,6.5-3.76,9.78-5.6,4.18-.8,9.54-1.79,12.85,1.65,4.21,3.55,3.36,9.82,2.09,14.56-.86,3.94-4.8,8.15-1.72,12,3.76,4,10.48,1.58,14.25,5.67,2.23,7.09-1,15.62-8,18.63-4.63,2.76-10.1,2.11-15.22,2.47-3.64,1.2-4.52,5.28-5.59,8.47-5.45,18.38-14.21,35.91-26.54,50.65-9.59,11-21.18,21-35.36,25.32-3.83,1.2-9.15.15-11.47,4.18-1.91,3.24.45,7.21,4,7.95,8.13-.75,15.91-3.38,23.77-5.41.23,9.12,0,18.63-4,27-2.08,4.44-2.5,10.34,1.38,13.95,5.48,4.8,12.19,9.4,13.69,17.07-11.24,5.25-23.85,3.57-35.84,3.78-6.8-.12-13.63.31-20.4-.51-4.82-.54-8.69-3.65-12.62-6.2-1.51-.63-3.14-1.56-4.81-1.17a42.41,42.41,0,0,0-4.09,2.82c-7.72.22-15.58.44-23.1-1.59-4.4-1.15-9.16-2.17-12.47-5.52a80.63,80.63,0,0,0-8.93-7.79c-10.3-9.22-15-23.22-15.3-36.76-.84-3.51.3-8.08-2.89-10.58-3.17-2.71-8.79.32-8.06,4.51,0,10.88,1.55,22,5.73,32.08,5.34,11.84,15,20.91,23.91,30a43,43,0,0,1,7.68,10.51,12.67,12.67,0,0,1-10.11,4.88,24.25,24.25,0,0,0-3.57-6.36c-1.41-1.2-3.34-1.49-5-2.12a17.44,17.44,0,0,0-4.3,2.84c-1.41,1.89-2.31,4.29-4.25,5.71-4.35.05-8.23-2.35-12.26-3.67-2.21-.74-4.91-2.15-7.11-.76-4.17,2.79-2.32,8.41-3.3,12.59q0-3.84-.17-7.67c-3.21.49-7.34,2.39-10-.54-3.49-3.59-1.95-9-2.36-13.53.21-4.84-2.09-9.35-5.27-12.84-3.66-4.24-8.92-6.48-13.38-9.7-7.79-5.45-13.74-13-19.36-20.57-4-5.37-6.19-12-10.93-16.83,1.56-8.78.16-17.74,1.31-26.57.34-3.49,3.31-7.43.76-10.64a5.19,5.19,0,0,0-6.15-2,9.24,9.24,0,0,0-3.66,5c-3.85,11.31-3.61,23.45-3.22,35.24,0,3.68,1,7.26,1.52,10.89A52.83,52.83,0,0,0,152.36,403a113.87,113.87,0,0,1-8.68-15.81,17.11,17.11,0,0,1-1.37-8.51c5.28-2.69,10.9-5.07,15.34-9.08,3.35-2.8,2.72-7.5,2.82-11.38v-.78c3.5-1.6,6.71-5.88,3.64-9.45a43.83,43.83,0,0,1-12.29-18.68c-.86-3-1-6.78,1.13-9.33a20.38,20.38,0,0,1,5-1.15c7.3,2.48,14.72,4.61,22.21,6.48,2,.25,4.54.76,6.21-.8,2.08-1.51,2.83-4.84,1-6.8a34.32,34.32,0,0,0-4.64-3.49c-4.6-4.11-10.64-5.59-16.18-7.94A350.07,350.07,0,0,1,124,283c-3.1-2.07-6.45-4.44-7.53-8.21-1.8-6.15-2.68-12.53-4.56-18.67,6.69-3.3,13.22-7.33,18.07-13.1,2.82-3.44,4.08-7.82,5-12.09,2-9.94,2.3-20.13,4.18-30.09,3-16.6,9.51-33,21-45.54a148.37,148.37,0,0,1,32.59-26.41c8.74-5.15,17.88-9.54,26.92-14.11,7.34-3.81,14.86-8.5,18.81-16.06,2.25-4.5,4.41-9.49,3.85-14.63-1.13-5.33-6.09-8.48-10.48-11-11.22-6-23.59-9.2-35.44-13.63-4.67-1.7-8.85-4.44-13.29-6.63C192.14,47.29,202,43.31,211.81,39.73Zm138.72,97.79a34.31,34.31,0,0,0-13.89,10,46.19,46.19,0,0,0-7,16.45c-1.31,12.35,1.22,25.52,8.77,35.61,4.27,5.91,10.05,11.48,17.57,12.57,5.25-.29,9.89-3,13.68-6.52,5-4,10.68-8.15,17.31-8.45,4.33-.6,9.3-.19,12.64-3.58,7.36-5.87,7-16.59,4.43-24.77-4-11.84-12.4-22.59-23.87-28A40.27,40.27,0,0,0,350.53,137.52ZM190.4,160.34c-10.31,2.51-18.82,9.69-25,18.09A48.67,48.67,0,0,0,158,213.9c1.41,6.84,6,13.5,13,15.45,6.2,1.46,11.8-3,18-2,7.41-.27,13.84,4.08,21,5.1,6,.9,11.65-2.85,14.55-7.88A45.84,45.84,0,0,0,231.22,198c-1-8.46-2.7-17.3-8.05-24.19-3.73-4.83-8.13-9.58-14-11.79S196.64,158.58,190.4,160.34Zm86.87,9.82c-11.54,3.08-22.72,9.8-28.84,20.35-1.93,4.88-1.3,12.9,4.78,14.41,7.45,1.34,15.1,0,22.49-1.2,11.54-2.84,23.5-3.25,35.33-3.43,3.36-.15,7.35-1.2,8.9-4.52a19.82,19.82,0,0,0,0-9.53c-1.36-5.12-5.91-8.49-10.34-10.91-5.75-3-11.94-5.68-18.54-5.74C286.44,169.51,281.8,169.34,277.27,170.16Zm2.21,45.52a6.3,6.3,0,0,0-3.83,7.71c3,4.35,7.68,7.2,12.11,10-.36,11.17-6.46,22.84-17.31,27-5.75,1.21-11.5-1.63-16.11-4.82-2.88-2-5.23-6-9.23-4.91-2.92.94-4.87,5.23-2.76,7.87,4.42,6.16,11.51,10,18.78,11.7,4,.93,8.48,2.41,12.35.21a39.12,39.12,0,0,0,21.2-21.25A37.08,37.08,0,0,0,321,264.32a6.65,6.65,0,0,0,3.67-.62c6.66-2.79,12.91-7,17.12-12.94,1.55-2.3,3.34-4.82,2.87-7.76-.07-3.08-4.47-6-6.91-3.33s-3.92,6-6.66,8.37c-3.46,3.14-7.81,6.68-12.82,5.48-10.5-2-17.44-11.38-20.72-21a22.68,22.68,0,0,0,7-12.83c.44-2.57-.25-6.29-3.49-6.4C293.85,213,286.3,213,279.48,215.68ZM172.27,246.12c-10.79,1.55-18.6,13.87-14.74,24.23,3.38,8.24,11.84,13.82,20.55,14.87,7.65,1,15.85,2.45,23.16-.85,7.61-3.3,13.84-11.72,11.9-20.28-1.36-5.28-5.55-9.37-10-12.3C193.82,246.72,182.85,244.25,172.27,246.12ZM410.2,247c-3.88,1.5-4.79,6.36-4.66,10.06-.22,4.57,5.4,8.72,9.56,6.26,5.68-2.31,5.8-10.45,2.46-14.78C416,246,412.66,246.35,410.2,247Zm30.05,14c-5.06,1.77-8.73,9.15-4.81,13.64,4.58,5.59,16.26-.06,13.55-7.3C447.69,263.85,444.39,259.57,440.25,260.92Zm-62.08,3c-2.8,1.57-3.74,5.06-3.66,8.07-.22,4.7,5.11,8,9.39,7.27a10.44,10.44,0,0,0,6.24-7.24C389.72,266.31,383.8,261.77,378.17,263.94Zm34,10.43c-10.36-1.21-17.87,7.92-21.42,16.54-2.16,7.22-2.1,16.18,3.3,22,5.14,5.16,12.91,6.54,19.92,6.32,7.29-.95,11.95-7.74,14.25-14.17a33.11,33.11,0,0,0,1.4-19.6C427.26,278.17,419.22,275,412.19,274.37Zm-129.59,5.1a5.2,5.2,0,0,0-1.53,8.45c3.79,3.47,9.2,4,14,5,3.78,1.26,8.54-2.67,7-6.67-2.31-4.85-8.5-3.61-12.64-5.67C287.26,280.08,284.77,277.85,282.6,279.47Zm167.64,9.47c-5.29.89-9.48,7.35-6.67,12.35,3,7.3,16.22,3.61,14.94-4.29C459.11,292.41,454.9,288,450.24,288.94Zm-188,31.11c-6,2-6.53,10.95-2.17,14.91,3.95,3.36,9.12,4.64,13.9,6.36,6.84,2.28,13.87,4.35,21.1,4.89,4.18-.37,7.72-3,11.51-4.58,5.73-2.52,11.3-6,14.73-11.42a7.38,7.38,0,0,0-2.49-10.15c-9.89-1.62-19.86.73-29.79.7a146,146,0,0,1-16.47-.5C269.12,319.92,265.61,319.23,262.21,320.05Zm120,1.92c-2,.39-4.25,1.3-5.19,3.25a15.89,15.89,0,0,0,.1,8.49c1.28,3.52,4.59,5.7,7.63,7.6,4,2.47,9.13,4.13,13.75,2.32,2.82-1.14,5.81-4.06,4.51-7.37-3.09-4.58-9.16-5.5-12.95-9.36C387.69,325.07,385.6,321.77,382.25,322Z"/>
    <path class="cls-1" d="M377.22,152.89c8.59-2.17,17.38,5.91,17.61,14.45,0,4.51.88,9.67-1.89,13.59-1.91,2.49-4.48,5.28-8,4.58-11.33-.68-18.33-14.12-14.74-24.34C371.43,157.68,373.67,154.29,377.22,152.89Z"/>
    <path class="cls-1" d="M207.24,178.92c8.23-2.12,16.18,6.15,16.43,14.11.76,6.75-1,14.69-7.28,18.37-6.17,2-12.72-1.82-15.51-7.36C195.86,196,198.09,183,207.24,178.92Z"/>
    <path class="cls-1" d="M344.62,183.72c3.17-1.05,7.27-.55,9.1,2.55,2.52,3.4-.36,9.12-4.72,8.55C343.41,195.46,339.6,186.86,344.62,183.72Z"/>
    <path class="cls-1" d="M166.66,204.54c2.8-.1,6.16-.86,8.34,1.45,3.41,2.71,2,10.35-3,9.83-2.75.51-5.05-1.23-6.48-3.4A9.66,9.66,0,0,1,166.66,204.54Z"/>
    <path class="cls-1" d="M95,409.2a27.62,27.62,0,0,1,7.93,1.11q-3.1,1.88-6.17,3.84Q95.87,411.68,95,409.2Z"/>
    <path class="cls-1" d="M55.34,418.73a16.55,16.55,0,0,1,10.13-6.33c4.7,1.13,10.34,2.65,12,7.86l-1.87,1.4c-7.55.46-16.7-.94-22.32,5.34C54.15,424.3,54.68,421.49,55.34,418.73Z"/>
    <path class="cls-1" d="M120.12,414c10-3.28,21.68-4.36,31.38.61,7.28,3.45,12.38,10.17,15.88,17.24,2.68,5.86,4.94,12.07,5.34,18.56-6.58,3.41-12.42,8.25-19.49,10.71-6.76,2.42-13.52,4.95-20.59,6.34-7.29,1.5-14.74,2-22.09,3.07l-1.28-1.46c-6-8.29-7.56-19.07-6.83-29.08C103.73,429.21,110.27,418.82,120.12,414Z"/>
    <path class="cls-1" d="M65.31,438.32c3.42-3.93,8.71-5.18,13.66-5.82,3,.14,6,.93,9,1.07-2.62,3.69-4.1,8-5.4,12.33-2,6.5-1.37,13.39-1.26,20.09-8.07-4.46-18.37-7.51-22-16.91C60.69,445.21,62.36,441.28,65.31,438.32Z"/>
  </g>
  <g>
    <path class="cls-2" d="M395.06,13.15c6.84-3,15.24-4.2,21.89-.09,8.84,5.25,12.83,16,12.43,25.95-.5,14.06-4.76,27.68-9.58,40.8-1,3-3,5.85-3.15,9,3.12,7.5,7.05,14.63,10.5,22,12.21,26.44,23.91,53.26,31.6,81.41,2,8.18,4,16.72,2.51,25.17-1.51,9.35-5.7,17.93-9.7,26.42,5.86,2.64,11.17,7.11,13.47,13.26s1.25,12.73-.48,18.8c6.08,2,12,6.05,13.71,12.58,1.93,10.29-2.2,21.87-11,27.8-5.41,4.16-12.28,5.15-18.81,6.18-2.25,8.74-6.22,16.89-9.81,25.13-8.37,17.46-20.16,33.6-35.53,45.52,1.08,13,1,26.57-4.28,38.7-.64,1.52-1.22,3.71.59,4.7,7.15,5.88,14.34,13.66,14.42,23.49.71,7.36-4.05,13.91-9.43,18.39-3.89,2.92-8.25,6.06-13.36,5.82-15.68,0-31.37,0-47,0a23,23,0,0,1-18-8.63c-6.78,5.45-15.07,8.4-23.58,9.78-2.6,3-4.79,6.58-8.36,8.63-6.84,4.43-15.36,3-23.06,3.53-7-.11-14,1.21-21,.91-9-.22-18,.17-27-.18-3.63-.49-7.56-.5-10.73-2.58a18.35,18.35,0,0,1-7.76-10.43c-11-.67-22.06-1.06-33.09-.89A74.57,74.57,0,0,1,137,498c-8.9,1.11-17.94,2-26.9.91-19.29-1.19-39.11-5.51-55.21-16.7-10.64-7.33-19.37-18.42-21.46-31.42a98.21,98.21,0,0,1,0-12.49C35.81,424.71,42.63,411,55,403.93c6.87-4.42,15.08-6,23.06-7.13,13.22-.75,26.88.59,39.15,5.81a40,40,0,0,0,4.59-.77c-1.24-5.94-3.71-11.68-3.41-17.86-1-14.09,6.53-27.83,17.77-36-4.81-6.18-5.4-14.6-3.18-21.91,1.4-4.76,3.8-9.14,6.18-13.46a193.33,193.33,0,0,1-40.44-22.27c-3-2.27-6.24-5-6.83-9-9.37-41.54-6.28-85.11,4.31-126.12,2-7.31,2.24-15.27,6.21-21.93.87-1.88,2.54-4.49.64-6.27-4.44-5.34-8.86-10.77-12.11-17-7.74-13-12-28.78-8.7-43.82A24.66,24.66,0,0,1,97.3,48.45c5.78-2.38,12.34-1.75,18.16.16a78.6,78.6,0,0,0,19,4.85c7.18.46,14.38.36,21.57.13,2.59.13,4.8-1.4,6.92-2.67,55.72-34.95,126.32-46,189.7-27.74a14.17,14.17,0,0,0,7.88.09C372.08,20.14,383.94,17.78,395.06,13.15ZM384,29c-9.05,1.73-17.61,6.09-27,5.86-6.25.54-11.93-2.46-18-3.34a212.72,212.72,0,0,0-52-5.27,220.27,220.27,0,0,0-75.18,13.49c-9.86,3.58-19.67,7.56-28.64,13.05-8.83,2.53-15,10.66-24.15,12.32-6,.39-12-.72-18-.15-5.89.82-11.7-.94-17.59-.67,2.8,3.17,6.77,4.82,10.12,7.3a57.51,57.51,0,0,0,13.76,7c5.22,1.93,10.87,1.41,16.32,1.82a29,29,0,0,1-.13,7c-2.67,1.87-6,2.2-9,3.3-5.46-.9-11-1.84-16-4.38-11.63-5.21-21.22-14-33-19a16.5,16.5,0,0,0-8.6-1.07c-3.33,0-4,4.06-4.36,6.62-1.14,14.43,5.25,28.37,13.63,39.75a47,47,0,0,0,10.58,11.07,38.18,38.18,0,0,1-1.63,8.28,308.88,308.88,0,0,0-16.58,74c-1.34,17.45-1.94,35.14.76,52.49.67,6.14,1.9,12.2,3.14,18.24a7,7,0,0,0,3.23,4.62c17.55,12.79,37.67,21.57,58.17,28.45,6.24,1.57,12.35,4.34,18.85,4.45a34.32,34.32,0,0,1,4.64,3.49c1.84,2,1.09,5.29-1,6.8-1.67,1.56-4.17,1-6.21.8-7.49-1.87-14.91-4-22.21-6.48-2.22-.92-4.41-2.24-6.88-2.25-3.05,2.72-4.71,6.58-6.28,10.27-1.54,4.25-3.32,9.51-.09,13.45,5.13,5.3,13,5,19.4,7.69,3.07,3.57-.14,7.85-3.64,9.45v.78a31.56,31.56,0,0,0-6.7-2.29c-2.58-1.16-5.82-2.51-8.39-.57-7.18,4.91-13.21,12.17-14.93,20.86a46.92,46.92,0,0,0,3.4,23.83c2.56.6,5.21.67,7.81,1.06a51.84,51.84,0,0,1,10.7,1.89,52.83,52.83,0,0,1,18.5,13.91c-.54-3.63-1.48-7.21-1.52-10.89-.39-11.79-.63-23.93,3.22-35.24a9.24,9.24,0,0,1,3.66-5,5.19,5.19,0,0,1,6.15,2c2.55,3.21-.42,7.15-.76,10.64-1.15,8.83.25,17.79-1.31,26.57.1,17.22,9.58,33.23,22,44.62,3.78,4.07,8.58,6.88,13,10.11,2.8,1.92,2.41,5.67,1.79,8.57-1.19,4.77-2.36,9.73-1.35,14.65.47,2.38,2.93,3.42,5.14,3.5,6.91.41,13.85.35,20.77.23,1-4.18-.87-9.8,3.3-12.59,2.2-1.39,4.9,0,7.11.76.37,3,.34,6,.75,9a5.39,5.39,0,0,0,5.07,2.6c4.64.05,9.29-.1,13.94-.28-.11-4.75-4.28-8.51-3.25-13.35A17.44,17.44,0,0,1,273,470c1.68.63,3.61.92,5,2.12a24.25,24.25,0,0,1,3.57,6.36c0,2.36.13,4.71.27,7.07,3.17-.58,7-.72,9-3.71,2.17-2.45,1.41-5.84,1.43-8.81l-.56.57A43,43,0,0,0,284,463.05c-9-9.13-18.57-18.2-23.91-30-4.18-10.12-5.68-21.2-5.73-32.08-.73-4.19,4.89-7.22,8.06-4.51,3.19,2.5,2.05,7.07,2.89,10.58.34,13.54,5,27.54,15.3,36.76,3.3,5.75,9,9.42,13.21,14.46,4.26,4.32,7,9.79,9.08,15.44,8.93-1.62,18.21-6.5,22.21-15a42.41,42.41,0,0,1,4.09-2.82c1.67-.39,3.3.54,4.81,1.17,1.17,4,.92,8.23,1.77,12.28a7.54,7.54,0,0,0,4.62,3c10.18,1,20.41.69,30.63.72,7.18-.14,14.43.65,21.53-.69,5.24-2,9.54-6.72,10.31-12.42-1.5-7.67-8.21-12.27-13.69-17.07-3.88-3.61-3.46-9.51-1.38-13.95,4-8.39,4.26-17.9,4-27-7.86,2-15.64,4.66-23.77,5.41-3.52-.74-5.88-4.71-4-7.95,2.32-4,7.64-3,11.47-4.18,14.18-4.33,25.77-14.34,35.36-25.32,12.33-14.74,21.09-32.27,26.54-50.65,1.07-3.19,1.95-7.27,5.59-8.47,5.12-.36,10.59.29,15.22-2.47,7-3,10.24-11.54,8-18.63C462.48,285.55,455.76,288,452,284c-3.08-3.86.86-8.07,1.72-12,1.27-4.74,2.12-11-2.09-14.56-3.31-3.44-8.67-2.45-12.85-1.65-3.28,1.84-6.15,4.4-9.78,5.6-6-2.71-5.13-10.11-8.62-14.77-1.16-1.46-2.45-3.28-4.49-3.35-4.74-.59-10.43-.1-13.4,4.17-3.28,4-1.58,9.28-2.1,13.94-1.08,1.56-2.57,3.3-4.64,3.25-3.22.34-5.95-1.73-8.83-2.8-3.74-1.81-8.05-1.9-12.08-1.3A10,10,0,0,0,368.4,271c-.15,5.83,4.08,10.3,6.37,15.3,1.44,2.87-.67,5.88-2.41,8.08-4.83,5.29-9.58,11-11.93,17.88-1.12,3.08-.67,7.4-4.13,9.07-2.91,1-5.6-.61-7.2-3-.69-11.93,7.44-21.56,14.44-30.3-3.11-5.52-6.09-11.5-5.45-18-.71-8.41,5.08-15.65,12-19.61l-.21-.41,2-.24a54.16,54.16,0,0,1,18,1.35c1-5.73,3.75-11.27,8.71-14.56,5.78-4.62,13.51-4.46,20.5-4,6.4,2.64,10.93,8.18,13.62,14.42,2.19-1.05,4.88-1.76,6.1-4.07,4.45-7.69,8.48-15.77,10.56-24.45.86-5.67.48-11.45-.09-17.12l-1.27.05c-.19-3.94-.25-8-1.75-11.71-4.25-11.77-7.41-23.94-12.63-35.35-5.61-12.12-10.54-24.53-16.2-36.63-3.87-10-9.83-19-13.9-28.9,3.13-6.5,5.57-13.3,8.08-20.06,3.05-9.63,6.33-19.5,6.06-29.73-.15-3.48.45-7.36-1.79-10.33a6,6,0,0,0-5,1.16C405,33.5,400.4,38.75,395,43.05c-9.89,8.8-21.5,17.57-35.36,17.65-2.49-.67-5-1.18-7.48-1.86a74.3,74.3,0,0,1,.26-8.44c4.84-1.15,10,.84,14.62-1.42a67.42,67.42,0,0,0,20.05-12.85c4.37-4.14,9.26-7.77,13-12.51C394.55,24.77,389.67,28,384,29ZM71.51,409.54c-2.31.17-4.24,1.52-6,2.86a16.55,16.55,0,0,0-10.13,6.33c-4.58,3-6.75,8.4-8.44,13.41l-1.18.74c-.43,5.93-1.06,11.93-.25,17.86a29.54,29.54,0,0,0,7,13.8c3.37,3.72,6.88,7.56,11.62,9.54,8,6.26,18.06,8.87,27.77,11.06,6.8,2.27,14.1,1.24,21.14,1.69,7.17-.32,14.6,1.06,21.55-1.18,3.12,1.29,6.49-.1,9.61-.73,9.9-2.88,20.57-7.24,25.85-16.71,3.31-5.34,2.85-11.81,2.71-17.82-.4-6.49-2.66-12.7-5.34-18.56-3.5-7.07-8.6-13.79-15.88-17.24-9.7-5-21.33-3.89-31.38-.61-6.85,2.75-13.65,6-19.29,10.85-3.94,3.41-8.57,5.82-12.85,8.74-3-.14-6-.93-9-1.07-1.76-3.38-3.48-6.93-3.4-10.84l1.87-1.4c3.52-.59,6.79,1.08,10.2,1.36,3.6-1.72,6.45-4.6,9.13-7.47q3.06-2,6.17-3.84A27.62,27.62,0,0,0,95,409.2C87.18,409.05,79.31,408.72,71.51,409.54ZM182.75,444c.16,4,1,8,.85,12,0,6-2,11.68-4.26,17.1,8.64.31,17.29.4,25.94.48.06-2.7,2.73-6.56-.38-8.36C196.39,459.4,189.46,451.73,182.75,444Z"/>
    <path class="cls-2" d="M345.35,79.87a50.51,50.51,0,0,1,16.82-.12c3.29.62,6.78,1.51,9.26,3.9.73,2.25.32,4.67.31,7-8.88.87-17.65-1.37-26.35-2.83C345.29,85.17,345.29,82.52,345.35,79.87Z"/>
    <path class="cls-2" d="M186.39,101.32c2.33-.41,5.08-.16,6.17,2.3.38,2.06.78,5.34-1.7,6.19-4,2-8.4,2.74-12.35,4.74-3,1.4-5.51,3.57-8.6,4.72-5.49.16-6.49-8.19-2.14-10.48C173.27,104.88,179.82,102.62,186.39,101.32Z"/>
    <path class="cls-2" d="M350.53,137.52a40.27,40.27,0,0,1,29.67,3.34c11.47,5.4,19.83,16.15,23.87,28,2.53,8.18,2.93,18.9-4.43,24.77-3.34,3.39-8.31,3-12.64,3.58-6.63.3-12.33,4.42-17.31,8.45-3.79,3.47-8.43,6.23-13.68,6.52-7.52-1.09-13.3-6.66-17.57-12.57-7.55-10.09-10.08-23.26-8.77-35.61a46.19,46.19,0,0,1,7-16.45A34.31,34.31,0,0,1,350.53,137.52Zm26.69,15.37c-3.55,1.4-5.79,4.79-7,8.28-3.59,10.22,3.41,23.66,14.74,24.34,3.48.7,6-2.09,8-4.58,2.77-3.92,1.91-9.08,1.89-13.59C394.6,158.8,385.81,150.72,377.22,152.89Zm-32.6,30.83c-5,3.14-1.21,11.74,4.38,11.1,4.36.57,7.24-5.15,4.72-8.55C351.89,183.17,347.79,182.67,344.62,183.72Z"/>
    <path class="cls-2" d="M190.4,160.34c6.24-1.76,12.85-.55,18.8,1.7s10.24,7,14,11.79c5.35,6.89,7.05,15.73,8.05,24.19a45.84,45.84,0,0,1-6.66,26.52c-2.9,5-8.59,8.78-14.55,7.88-7.16-1-13.59-5.37-21-5.1-6.22-1-11.82,3.49-18,2-7-1.95-11.58-8.61-13-15.45a48.67,48.67,0,0,1,7.41-35.47C171.58,170,180.09,162.85,190.4,160.34Zm16.84,18.58c-9.15,4.12-11.38,17-6.36,25.12,2.79,5.54,9.34,9.4,15.51,7.36,6.24-3.68,8-11.62,7.28-18.37C223.42,185.07,215.47,176.8,207.24,178.92Zm-40.58,25.62a9.66,9.66,0,0,0-1.18,7.88c1.43,2.17,3.73,3.91,6.48,3.4,5.08.52,6.45-7.12,3-9.83C172.82,203.68,169.46,204.44,166.66,204.54Z"/>
    <path class="cls-2" d="M279.48,215.68c6.82-2.67,14.37-2.64,21.59-2.35,3.24.11,3.93,3.83,3.49,6.4a22.68,22.68,0,0,1-7,12.83c3.28,9.58,10.22,19,20.72,21,5,1.2,9.36-2.34,12.82-5.48,2.74-2.36,4.19-5.78,6.66-8.37s6.84.25,6.91,3.33c.47,2.94-1.32,5.46-2.87,7.76-4.21,6-10.46,10.15-17.12,12.94a6.65,6.65,0,0,1-3.67.62,37.08,37.08,0,0,1-26.35-15.21,39.12,39.12,0,0,1-21.2,21.25c-3.87,2.2-8.35.72-12.35-.21-7.27-1.73-14.36-5.54-18.78-11.7-2.11-2.64-.16-6.93,2.76-7.87,4-1.13,6.35,3,9.23,4.91,4.61,3.19,10.36,6,16.11,4.82,10.85-4.12,16.95-15.79,17.31-27-4.43-2.76-9.07-5.61-12.11-10A6.3,6.3,0,0,1,279.48,215.68Z"/>
    <path class="cls-2" d="M282.6,279.47c2.17-1.62,4.66.61,6.9,1.09,4.14,2.06,10.33.82,12.64,5.67,1.5,4-3.26,7.93-7,6.67-4.83-.94-10.24-1.51-14-5A5.2,5.2,0,0,1,282.6,279.47Z"/>
  </g>
  <g>
    <path class="cls-3" d="M384,29c5.66-1,10.54-4.22,16.14-5.37-3.78,4.74-8.67,8.37-13,12.51A67.42,67.42,0,0,1,367.06,49c-4.63,2.26-9.78.27-14.62,1.42a74.3,74.3,0,0,0-.26,8.44c2.47.68,5,1.19,7.48,1.86,5.61,1.65,10.87,4.25,16.29,6.41a65.43,65.43,0,0,1,27.59,21.67c4.07,9.9,10,18.9,13.9,28.9,5.66,12.1,10.59,24.51,16.2,36.63,5.22,11.41,8.38,23.58,12.63,35.35,1.5,3.73,1.56,7.77,1.75,11.71-4.2.19-8.74.44-12.45-1.92-5.32-3.33-7.64-9.51-10-15-6.1-16-10.51-33.09-21.17-46.85-10.73-14.16-27.51-21.87-44-27.24-14-5.21-29.06-9.23-40.82-18.93-4.48-4-9.3-8.4-10.85-14.44-1.13-5.71,2.52-11,6.27-14.92,9.16-9.21,16.68-19.84,24-30.53,6.06.88,11.74,3.88,18,3.34C366.4,35.08,375,30.72,384,29ZM345.35,79.87c-.06,2.65-.06,5.3,0,7.95,8.7,1.46,17.47,3.7,26.35,2.83,0-2.33.42-4.75-.31-7-2.48-2.39-6-3.28-9.26-3.9A50.51,50.51,0,0,0,345.35,79.87Z"/>
    <path class="cls-3" d="M159,65.1c9.13-1.66,15.32-9.79,24.15-12.32,4.44,2.19,8.62,4.93,13.29,6.63,11.85,4.43,24.22,7.66,35.44,13.63,4.39,2.53,9.35,5.68,10.48,11,.56,5.14-1.6,10.13-3.85,14.63-3.95,7.56-11.47,12.25-18.81,16.06-9,4.57-18.18,9-26.92,14.11a148.37,148.37,0,0,0-32.59,26.41c-11.53,12.55-18,28.94-21,45.54-1.88,10-2.19,20.15-4.18,30.09-.94,4.27-2.2,8.65-5,12.09-4.85,5.77-11.38,9.8-18.07,13.1A91.75,91.75,0,0,1,109.05,231c.28-23.28-1-46.66,2.16-69.81,1.09-7.19.18-14.64,2.41-21.65,1.16-3.83,2.72-7.54,3.84-11.39a50.57,50.57,0,0,1,10.69-19c7.56-7.72,17-13.21,26.36-18.44,3-1.1,6.31-1.43,9-3.3a29,29,0,0,0,.13-7c-5.45-.41-11.1.11-16.32-1.82a57.51,57.51,0,0,1-13.76-7c-3.35-2.48-7.32-4.13-10.12-7.3,5.89-.27,11.7,1.49,17.59.67C147,64.38,153,65.49,159,65.1Zm27.37,36.22c-6.57,1.3-13.12,3.56-18.62,7.47-4.35,2.29-3.35,10.64,2.14,10.48,3.09-1.15,5.64-3.32,8.6-4.72,4-2,8.4-2.74,12.35-4.74,2.48-.85,2.08-4.13,1.7-6.19C191.47,101.16,188.72,100.91,186.39,101.32Z"/>
    <path class="cls-3" d="M144.1,359.11c2.33-2.89,6.23-3.2,9.67-3.15a31.56,31.56,0,0,1,6.7,2.29c-.1,3.88.53,8.58-2.82,11.38-4.44,4-10.06,6.39-15.34,9.08l-1.36.71C138.74,372.7,138.8,364.41,144.1,359.11Z"/>
    <path class="cls-3" d="M71.51,409.54c7.8-.82,15.67-.49,23.5-.34q.85,2.48,1.76,4.95c-2.68,2.87-5.53,5.75-9.13,7.47-3.41-.28-6.68-1.95-10.2-1.36-1.63-5.21-7.27-6.73-12-7.86C67.27,411.06,69.2,409.71,71.51,409.54Z"/>
    <path class="cls-3" d="M100.83,424.83c5.64-4.82,12.44-8.1,19.29-10.85-9.85,4.84-16.39,15.23-17.68,26-.73,10,.8,20.79,6.83,29.08-9.43,2.31-18.83-.9-27.95-3.06-.11-6.7-.76-13.59,1.26-20.09,1.3-4.3,2.78-8.64,5.4-12.33C92.26,430.65,96.89,428.24,100.83,424.83Z"/>
    <path class="cls-3" d="M53.25,427c5.62-6.28,14.77-4.88,22.32-5.34-.08,3.91,1.64,7.46,3.4,10.84-5,.64-10.24,1.89-13.66,5.82-3,3-4.62,6.89-6,10.76l-.2.8c-2.13-2.25-4.55-4.53-5.27-7.67-1.18-4.71-1.09-9.62-.85-14.43Z"/>
  </g>
  <g>
    <path class="cls-4" d="M410.88,29.82a6,6,0,0,1,5-1.16c2.24,3,1.64,6.85,1.79,10.33.27,10.23-3,20.1-6.06,29.73-2.51,6.76-4.95,13.56-8.08,20.06A65.43,65.43,0,0,0,376,67.11c-5.42-2.16-10.68-4.76-16.29-6.41,13.86-.08,25.47-8.85,35.36-17.65C400.4,38.75,405,33.5,410.88,29.82Z"/>
    <path class="cls-4" d="M92.58,72.91c.35-2.56,1-6.65,4.36-6.62a16.5,16.5,0,0,1,8.6,1.07c11.78,4.92,21.37,13.76,33,19,5,2.54,10.51,3.48,16,4.38-9.36,5.23-18.8,10.72-26.36,18.44a50.57,50.57,0,0,0-10.69,19c-.16-1.49-.41-3-.67-4.42a47,47,0,0,1-10.58-11.07C97.83,101.28,91.44,87.34,92.58,72.91Z"/>
    <path class="cls-4" d="M277.27,170.16c4.53-.82,9.17-.65,13.75-.57,6.6.06,12.79,2.76,18.54,5.74,4.43,2.42,9,5.79,10.34,10.91a19.82,19.82,0,0,1,0,9.53c-1.55,3.32-5.54,4.37-8.9,4.52-11.83.18-23.79.59-35.33,3.43-7.39,1.21-15,2.54-22.49,1.2-6.08-1.51-6.71-9.53-4.78-14.41C254.55,180,265.73,173.24,277.27,170.16Z"/>
    <path class="cls-4" d="M404.19,210.32a17.33,17.33,0,0,1,15.47,11.16c1.21,3.35.7,7-.18,10.39-9.15-1.46-18.48.89-26.63,5-4.41,2.24-6.29,7.09-9.59,10.48-2.07,1.38-4.79,1.21-7.17,1.7-3.5-4.32-7.94-9-7.36-15,.89-6.54,5.86-11.63,10.85-15.53C386.74,213.56,395.34,210,404.19,210.32Z"/>
    <path class="cls-4" d="M172.27,246.12c10.58-1.87,21.55.6,30.91,5.67,4.41,2.93,8.6,7,10,12.3,1.94,8.56-4.29,17-11.9,20.28-7.31,3.3-15.51,1.81-23.16.85-8.71-1.05-17.17-6.63-20.55-14.87C153.67,260,161.48,247.67,172.27,246.12Z"/>
    <path class="cls-4" d="M410.2,247c2.46-.62,5.81-1,7.36,1.54,3.34,4.33,3.22,12.47-2.46,14.78-4.16,2.46-9.78-1.69-9.56-6.26C405.41,253.33,406.32,248.47,410.2,247Z"/>
    <path class="cls-4" d="M440.25,260.92c4.14-1.35,7.44,2.93,8.74,6.34,2.71,7.24-9,12.89-13.55,7.3C431.52,270.07,435.19,262.69,440.25,260.92Z"/>
    <path class="cls-4" d="M378.17,263.94c5.63-2.17,11.55,2.37,12,8.1a10.44,10.44,0,0,1-6.24,7.24c-4.28.72-9.61-2.57-9.39-7.27C374.43,269,375.37,265.51,378.17,263.94Z"/>
    <path class="cls-4" d="M412.19,274.37c7,.64,15.07,3.8,17.45,11.1a33.11,33.11,0,0,1-1.4,19.6c-2.3,6.43-7,13.22-14.25,14.17-7,.22-14.78-1.16-19.92-6.32-5.4-5.83-5.46-14.79-3.3-22C394.32,282.29,401.83,273.16,412.19,274.37Z"/>
    <path class="cls-4" d="M450.24,288.94c4.66-1,8.87,3.47,8.27,8.06,1.28,7.9-11.91,11.59-14.94,4.29C440.76,296.29,445,289.83,450.24,288.94Z"/>
  </g>
  <g>
    <path class="cls-5" d="M116.79,123.73c.26,1.47.51,2.93.67,4.42-1.12,3.85-2.68,7.56-3.84,11.39-2.23,7-1.32,14.46-2.41,21.65-3.13,23.15-1.88,46.53-2.16,69.81a91.75,91.75,0,0,0,2.85,25.08,107.42,107.42,0,0,1-12.56,2.41c-2.7-17.35-2.1-35-.76-52.49a308.88,308.88,0,0,1,16.58-74A38.18,38.18,0,0,0,116.79,123.73Z"/>
    <path class="cls-5" d="M145.38,355.39c2.57-1.94,5.81-.59,8.39.57-3.44,0-7.34.26-9.67,3.15-5.3,5.3-5.36,13.59-3.15,20.31-4.28,6.53-4.4,15.59.71,21.72-2.6-.39-5.25-.46-7.81-1.06a46.92,46.92,0,0,1-3.4-23.83C132.17,367.56,138.2,360.3,145.38,355.39Z"/>
    <path class="cls-5" d="M46.9,432.14A51.84,51.84,0,0,0,53,427.78c-.24,4.81-.33,9.72.85,14.43.72,3.14,3.14,5.42,5.27,7.67-.72,8.4,1.69,16.59,5,24.2-4.74-2-8.25-5.82-11.62-9.54a29.54,29.54,0,0,1-7-13.8c-.81-5.93-.18-11.93.25-17.86Z"/>
    <path class="cls-5" d="M81.32,466c9.12,2.16,18.52,5.37,28,3.06l1.28,1.46c3.41,3.56,6.74,7.43,11.25,9.64,4.14,2.07,8.47,3.73,12.75,5.5-7,2.24-14.38.86-21.55,1.18-7-.45-14.34.58-21.14-1.69l3,.3c-3.08-2.66-6.36-5.19-8.77-8.51S82.49,469.8,81.32,466Z"/>
  </g>
  <g>
    <path class="cls-6" d="M392.85,236.9c8.15-4.14,17.48-6.49,26.63-5l-.38.67c-7-.47-14.72-.63-20.5,4-5,3.29-7.71,8.83-8.71,14.56a54.16,54.16,0,0,0-18-1.35c1.39-.2,2.78-.46,4.18-.66,2.38-.49,5.1-.32,7.17-1.7C386.56,244,388.44,239.14,392.85,236.9Z"/>
    <path class="cls-6" d="M353.2,257.27c3.8-5.24,10.57-7,16.72-7.29l.21.41c-7,4-12.75,11.2-12,19.61-.64,6.54,2.34,12.52,5.45,18-7,8.74-15.13,18.37-14.44,30.3-4.78-5.14-5.22-12.7-4.23-19.3.67-4.61,3.84-8.2,6.05-12.13,1.57-2.33.24-5.12-.21-7.57C348.73,272.08,348.76,263.64,353.2,257.27Z"/>
    <path class="cls-6" d="M99.34,258.49a107.42,107.42,0,0,0,12.56-2.41c1.88,6.14,2.76,12.52,4.56,18.67,1.08,3.77,4.43,6.14,7.53,8.21a350.07,350.07,0,0,0,42.56,23.35c5.54,2.35,11.58,3.83,16.18,7.94-6.5-.11-12.61-2.88-18.85-4.45-20.5-6.88-40.62-15.66-58.17-28.45a7,7,0,0,1-3.23-4.62C101.24,270.69,100,264.63,99.34,258.49Z"/>
    <path class="cls-6" d="M151.08,316.61c2.47,0,4.66,1.33,6.88,2.25a20.38,20.38,0,0,0-5,1.15c-2.17,2.55-2,6.29-1.13,9.33A43.83,43.83,0,0,0,164.11,348c-6.39-2.72-14.27-2.39-19.4-7.69-3.23-3.94-1.45-9.2.09-13.45C146.37,323.19,148,319.33,151.08,316.61Z"/>
    <path class="cls-6" d="M262.21,320.05c3.4-.82,6.91-.13,10.32.21a146,146,0,0,0,16.47.5c9.93,0,19.9-2.32,29.79-.7a7.38,7.38,0,0,1,2.49,10.15c-3.43,5.39-9,8.9-14.73,11.42-3.79,1.61-7.33,4.21-11.51,4.58-7.23-.54-14.26-2.61-21.1-4.89-4.78-1.72-9.95-3-13.9-6.36C255.68,331,256.18,322,262.21,320.05Z"/>
    <path class="cls-6" d="M382.25,322c3.35-.2,5.44,3.1,7.85,4.93,3.79,3.86,9.86,4.78,12.95,9.36,1.3,3.31-1.69,6.23-4.51,7.37-4.62,1.81-9.72.15-13.75-2.32-3-1.9-6.35-4.08-7.63-7.6a15.89,15.89,0,0,1-.1-8.49C378,323.27,380.24,322.36,382.25,322Z"/>
    <path class="cls-6" d="M141,379.42l1.36-.71a17.11,17.11,0,0,0,1.37,8.51A113.87,113.87,0,0,0,152.36,403a51.84,51.84,0,0,0-10.7-1.89C136.55,395,136.67,386,141,379.42Z"/>
    <path class="cls-6" d="M180.3,405c4.74,4.86,6.91,11.46,10.93,16.83,5.62,7.56,11.57,15.12,19.36,20.57,4.46,3.22,9.72,5.46,13.38,9.7,3.18,3.49,5.48,8,5.27,12.84.41,4.48-1.13,9.94,2.36,13.53,2.62,2.93,6.75,1,10,.54q.15,3.83.17,7.67c-6.92.12-13.86.18-20.77-.23-2.21-.08-4.67-1.12-5.14-3.5-1-4.92.16-9.88,1.35-14.65.62-2.9,1-6.65-1.79-8.57-4.45-3.23-9.25-6-13-10.11C189.88,438.22,180.4,422.21,180.3,405Z"/>
    <path class="cls-6" d="M46.9,432.14c1.69-5,3.86-10.36,8.44-13.41-.66,2.76-1.19,5.57-2.09,8.27l-.3.78A51.84,51.84,0,0,1,46.9,432.14Z"/>
    <path class="cls-6" d="M280.58,443.76a80.63,80.63,0,0,1,8.93,7.79c3.31,3.35,8.07,4.37,12.47,5.52,7.52,2,15.38,1.81,23.1,1.59-4,8.5-13.28,13.38-22.21,15-2.05-5.65-4.82-11.12-9.08-15.44C289.62,453.18,283.88,449.51,280.58,443.76Z"/>
    <path class="cls-6" d="M182.75,444c6.71,7.73,13.64,15.4,22.15,21.22,3.11,1.8.44,5.66.38,8.36-8.65-.08-17.3-.17-25.94-.48,2.3-5.42,4.3-11.13,4.26-17.1C183.75,452,182.91,448,182.75,444Z"/>
    <path class="cls-6" d="M59.07,449.88l.2-.8c3.68,9.4,14,12.45,22,16.91,1.17,3.81,2.44,7.68,4.8,10.94s5.69,5.85,8.77,8.51l-3-.3c-9.71-2.19-19.81-4.8-27.77-11.06C60.76,466.47,58.35,458.28,59.07,449.88Z"/>
    <path class="cls-6" d="M153.23,461.1c7.07-2.46,12.91-7.3,19.49-10.71.14,6,.6,12.48-2.71,17.82-5.28,9.47-15.95,13.83-25.85,16.71-3.12.63-6.49,2-9.61.73-4.28-1.77-8.61-3.43-12.75-5.5-4.51-2.21-7.84-6.08-11.25-9.64,7.35-1.07,14.8-1.57,22.09-3.07C139.71,466.05,146.47,463.52,153.23,461.1Z"/>
    <path class="cls-6" d="M334,457c3.93,2.55,7.8,5.66,12.62,6.2,6.77.82,13.6.39,20.4.51,12-.21,24.6,1.47,35.84-3.78-.77,5.7-5.07,10.38-10.31,12.42-7.1,1.34-14.35.55-21.53.69-10.22,0-20.45.25-30.63-.72a7.54,7.54,0,0,1-4.62-3C334.9,465.24,335.15,461,334,457Z"/>
    <path class="cls-6" d="M264.4,478.51c1.94-1.42,2.84-3.82,4.25-5.71-1,4.84,3.14,8.6,3.25,13.35-4.65.18-9.3.33-13.94.28a5.39,5.39,0,0,1-5.07-2.6c-.41-3-.38-6-.75-9C256.17,476.16,260.05,478.56,264.4,478.51Z"/>
    <path class="cls-6" d="M291.65,473.56l.56-.57c0,3,.74,6.36-1.43,8.81-2,3-5.8,3.13-9,3.71-.14-2.36-.26-4.71-.27-7.07A12.67,12.67,0,0,0,291.65,473.56Z"/>
  </g>
</svg>
