<svg id="Layer_1" data-name="Layer 1" xmlns="http://www.w3.org/2000/svg" viewBox="0 0 485.31 480.81">
  <defs>
    <style>
      .cls-1 {
        fill: #fbfcfe;
      }

      .cls-2 {
        fill: #fafcfd;
      }

      .cls-3 {
        fill: #0a202e;
      }

      .cls-4 {
        fill: #09202e;
      }

      .cls-5 {
        fill: #6e9ed4;
      }

      .cls-6 {
        fill: #066aab;
      }

      .cls-7 {
        fill: #fbfcfd;
      }

      .cls-8 {
        fill: #0a1f2e;
      }

      .cls-9 {
        fill: #09202f;
      }

      .cls-10 {
        fill: #0464a2;
      }

      .cls-11 {
        fill: #027ac8;
      }

      .cls-12 {
        fill: #037ac9;
      }

      .cls-13 {
        fill: #6a9bcd;
      }

      .cls-14 {
        fill: #6a9cce;
      }

      .cls-15 {
        fill: #87c2fe;
      }

      .cls-16 {
        fill: #0166a4;
      }

      .cls-17 {
        fill: #88c2fd;
      }

      .cls-18 {
        fill: #0364a3;
      }

      .cls-19 {
        fill: #017bcd;
      }

      .cls-20 {
        fill: #689bcf;
      }

      .cls-21 {
        fill: #ee4a22;
      }

      .cls-22 {
        fill: #0164a5;
      }

      .cls-23 {
        fill: #88c2ff;
      }

      .cls-24 {
        fill: #f7efed;
      }

      .cls-25 {
        fill: #699acf;
      }

      .cls-26 {
        fill: #88c1ff;
      }

      .cls-27 {
        fill: #027aca;
      }

      .cls-28 {
        fill: #fbc2be;
      }

      .cls-29 {
        fill: #ac452e;
      }

      .cls-30 {
        fill: #fefdfd;
      }

      .cls-31 {
        fill: #da202b;
      }

      .cls-32 {
        fill: #fefefe;
      }

      .cls-33 {
        fill: #a7232e;
      }

      .cls-34 {
        fill: #d7202b;
      }

      .cls-35 {
        fill: #d81f29;
      }

      .cls-36 {
        fill: #c1bdbd;
      }

      .cls-37 {
        fill: #c9c8cd;
      }

      .cls-38 {
        fill: #091e2d;
      }

      .cls-39 {
        fill: #fefafc;
      }

      .cls-40 {
        fill: #fdfcfd;
      }

      .cls-41 {
        fill: #c6cbcf;
      }

      .cls-42 {
        fill: #c8202c;
      }

      .cls-43 {
        fill: #0a1e2d;
      }

      .cls-44 {
        fill: #c19a9b;
      }

      .cls-45 {
        fill: #fbc1bc;
      }

      .cls-46 {
        fill: #c7c8cc;
      }

      .cls-47 {
        fill: #fefdfc;
      }

      .cls-48 {
        fill: #d2212c;
      }

      .cls-49 {
        fill: #a4222d;
      }

      .cls-50 {
        fill: #056eb3;
      }

      .cls-51 {
        fill: #091f2d;
      }

      .cls-52 {
        fill: #fcfdfc;
      }

      .cls-53 {
        fill: #c8cace;
      }

      .cls-54 {
        fill: #b4212e;
      }

      .cls-55 {
        fill: #fafbfa;
      }

      .cls-56 {
        fill: #c7c9cb;
      }

      .cls-57 {
        fill: #b8222f;
      }

      .cls-58 {
        fill: #f9f9fa;
      }

      .cls-59 {
        fill: #c9c7cf;
      }

      .cls-60 {
        fill: #fbc1bb;
      }

      .cls-61 {
        fill: #b9232c;
      }

      .cls-62 {
        fill: #d2d5dc;
      }

      .cls-63 {
        fill: #f5c1bd;
      }

      .cls-64 {
        fill: #c2999b;
      }

      .cls-65 {
        fill: #bfbdbf;
      }

      .cls-66 {
        fill: #f9eeed;
      }

      .cls-67 {
        fill: #fafdfe;
      }

      .cls-68 {
        fill: #b83f25;
      }

      .cls-69 {
        fill: #699bcd;
      }

      .cls-70 {
        fill: #8cc1fc;
      }

      .cls-71 {
        fill: #c0bdbe;
      }

      .cls-72 {
        fill: #c1bdbc;
      }

      .cls-73 {
        fill: #c1bcbd;
      }

      .cls-74 {
        fill: #f8efeb;
      }

      .cls-75 {
        fill: #0a202f;
      }

      .cls-76 {
        fill: #b14331;
      }

      .cls-77 {
        fill: #076cad;
      }

      .cls-78 {
        fill: #ed4b24;
      }

      .cls-79 {
        fill: #ed4a24;
      }

      .cls-80 {
        fill: #f9eeeb;
      }

      .cls-81 {
        fill: #bebdbe;
      }

      .cls-82 {
        fill: #c3bcb8;
      }

      .cls-83 {
        fill: #c2bdbc;
      }

      .cls-84 {
        fill: #ed4a22;
      }

      .cls-85 {
        fill: #c0bebe;
      }

      .cls-86 {
        fill: #b94127;
      }

      .cls-87 {
        fill: #f9eeee;
      }

      .cls-88 {
        fill: #bfbdbe;
      }
    </style>
  </defs>
  <g>
    <path class="cls-1" d="M145.51,14.64c5.57-2.15,12.21.63,15.05,5.77,7.84,13.47,12.15,29.64,9.17,45.17-1.17,6.51-9.41,10.22-15,6.72-3.93-2.72-6.33-7-9.78-10.23a71.77,71.77,0,0,0-14.29-10.7c-3.78-2.11-7.93-4.39-9.83-8.49-1.77-5.81,1.59-11.5,5.7-15.38C131.69,21.76,138,16.87,145.51,14.64Zm.84,4.56c-7,2.26-12.86,7.06-17.59,12.55-2,2.45-4.26,5.49-3.45,8.88.58,3.12,3.76,4.5,6.19,6a73.21,73.21,0,0,1,22.29,18.57c1.6,1.82,3.43,4.2,6.18,3.9a5.66,5.66,0,0,0,5.34-4.67c2.21-12-.28-24.44-5.38-35.39-1.65-3.43-3.2-7.3-6.54-9.45C151.3,18.12,148.62,18.44,146.35,19.2Z" transform="translate(-14.18 -13.91)"/>
    <path class="cls-1" d="M102.27,340c4.42-1.52,9.74.79,12,4.85,2.29,3.69.82,8.15.62,12.17-.6,11.53-.58,23.29,2.53,34.5,1.27,3.9.79,8.62-2.39,11.49-2.67,3.18-7.5,3.4-11.12,1.95-6.29-3.12-12.16-7-18.37-10.27-2.78-1.5-5.8-3.19-7.15-6.21-1.88-3.72-.58-8,.5-11.72A92.37,92.37,0,0,1,94.52,346.5C96.61,343.84,99,341.14,102.27,340Zm1.17,4.45a9.48,9.48,0,0,0-3.88,3.05,85.63,85.63,0,0,0-13.21,21.83c-1.92,4.73-3.92,9.58-4.38,14.72-.25,3.65,3.49,5.36,6.15,6.88,6.17,3.09,11.84,7.14,18.16,9.94,2.91,1.38,6.35-1,7-3.91a16,16,0,0,0-.7-5.57c-3.06-11.15-3-22.86-2.31-34.31.13-2.94.6-5.89.22-8.82C110,345.17,106.3,343.45,103.44,344.45Z" transform="translate(-14.18 -13.91)"/>
  </g>
  <g>
    <path class="cls-2" d="M398.29,18.07c3.38-1.5,7.13-.15,10.17,1.52a66.87,66.87,0,0,1,16.29,12.69c2.87,3.24,5.62,7.79,4,12.24-.93,3.76-4.33,6.08-7.66,7.58-8.79,4-16.33,10.14-23.64,16.33a16,16,0,0,1-7.5,3.79c-5.75.45-11.61-4.16-11.35-10.2a92.7,92.7,0,0,1,10.93-34.48C391.8,23.92,394.15,19.81,398.29,18.07Zm2.1,4.31c-3,1.07-4.7,4.1-6.36,6.64a81.21,81.21,0,0,0-10.54,32.3,5.5,5.5,0,0,0,4.75,6.3c2.51.33,4.62-1.41,6.47-2.86C402.22,58.4,410,52.06,419,48c2.26-1.16,5.12-2.43,5.56-5.25C425.06,39.7,423,37.07,421,35a61.29,61.29,0,0,0-14-11C405,22.94,402.72,21.74,400.39,22.38Z" transform="translate(-14.18 -13.91)"/>
    <path class="cls-2" d="M72.26,49c3.17-1.22,6.66-.3,9.47,1.38a91.34,91.34,0,0,1,27.19,22.73c6.5,8.1,12.69,16.71,16.37,26.49,2.51,7.6-6.05,15.6-13.46,12.54-12.32-5.91-26-7.75-39.36-9.9-5.19-.91-10.71-.78-15.57-3-4.3-2.2-7.14-7.22-6.07-12.05A74.46,74.46,0,0,1,64.67,55.66C66.8,53.06,69.05,50.26,72.26,49Zm1.19,4.43a13.24,13.24,0,0,0-4.23,3.83,72,72,0,0,0-13,26c-.62,2.69-1.41,5.54-.71,8.29,1.29,3.28,5,4.49,8.17,4.85,13.29,1.71,26.62,3.65,39.5,7.44,3.76,1,7.17,3.06,10.92,4.14a5.62,5.62,0,0,0,6.88-5.86,23.57,23.57,0,0,0-2.8-7.16C109.08,78.17,96.05,63,79,54.05,77.29,53.2,75.26,52.47,73.45,53.38Z" transform="translate(-14.18 -13.91)"/>
    <path class="cls-2" d="M452.53,209.76c10-2,20.22-.7,30.07,1.36,5.67,1.17,12,2.76,15.56,7.76,2.09,2.77,1.31,6.39.41,9.44-2.3,9.19-7.74,17.29-14.15,24.13-3.09,3.32-8.21,4-12.32,2.42-3.15-1.32-5-4.32-7.14-6.82a69,69,0,0,0-16.58-14.42c-3.21-2.08-7-3.55-9.29-6.79a10,10,0,0,1,1.23-12.56C443.47,211,448.3,210.63,452.53,209.76Zm-.18,4.62c-3.38.77-7.79.88-9.7,4.28a5.79,5.79,0,0,0,2.76,7.88c8.72,4.9,17,10.9,23.26,18.8,1.52,1.79,2.91,3.82,5,5a7.12,7.12,0,0,0,8-1.77,52,52,0,0,0,12.11-19.93c.67-2.6,1.77-5.85-.23-8.14-2.62-2.89-6.63-3.76-10.26-4.67C473.14,213.55,462.61,212.62,452.35,214.38Z" transform="translate(-14.18 -13.91)"/>
    <path class="cls-2" d="M374.2,335.61c3.77-2.26,7.47-4.62,11.26-6.85a216.36,216.36,0,0,0-1.16,34.43c-3-1-6-2.05-9-3.08,1.16-3.6,2.35-7.29,2.18-11.12C377.25,344.36,375.61,340,374.2,335.61Z" transform="translate(-14.18 -13.91)"/>
  </g>
  <path class="cls-3" d="M146.35,19.2c2.27-.76,5-1.08,7,.37,3.34,2.15,4.89,6,6.54,9.45,5.1,11,7.59,23.4,5.38,35.39A5.66,5.66,0,0,1,160,69.08c-2.75.3-4.58-2.08-6.18-3.9A73.21,73.21,0,0,0,131.5,46.61c-2.43-1.48-5.61-2.86-6.19-6-.81-3.39,1.4-6.43,3.45-8.88C133.49,26.26,139.37,21.46,146.35,19.2ZM137.9,37.78a137.13,137.13,0,0,1,17.73,13.36,62,62,0,0,0-6.85-21.35A23.41,23.41,0,0,0,137.9,37.78Z" transform="translate(-14.18 -13.91)"/>
  <g>
    <path class="cls-4" d="M400.39,22.38c2.33-.64,4.61.56,6.62,1.61a61.29,61.29,0,0,1,14,11c1.94,2.09,4.05,4.72,3.58,7.78-.44,2.82-3.3,4.09-5.56,5.25C410,52.06,402.22,58.4,394.71,64.76c-1.85,1.45-4,3.19-6.47,2.86a5.5,5.5,0,0,1-4.75-6.3A81.21,81.21,0,0,1,394,29C395.69,26.48,397.36,23.45,400.39,22.38Zm2.95,12.86c-3.74,3.18-4.67,8.3-5.57,12.87a71.31,71.31,0,0,0,13.29-8.34C408.71,38.07,406.44,35,403.34,35.24Z" transform="translate(-14.18 -13.91)"/>
    <path class="cls-4" d="M446.46,55.44A5.75,5.75,0,0,1,453,57c8.93,8.72,17.07,18.77,21.1,30.74.69,2.24,1.27,5-.41,7s-4.34,2.08-6.66,2.31c-14,.6-27.43,5-40.58,9.44-3.72,1.14-7.39,3.58-11.41,2.87-3.37-.93-4.6-4.83-3.33-7.86,5.19-15.41,15.29-28.74,27-39.83C441.14,59.45,443.47,57,446.46,55.44ZM430.93,88.08c-2.31,1.61-3.22,4.43-4.4,6.85,11.78-3.15,23.4-7.06,35.6-8.36a52.23,52.23,0,0,0-7.27-11.9,69.62,69.62,0,0,0-6.76-7.19C441.57,73.55,434.65,79.8,430.93,88.08Z" transform="translate(-14.18 -13.91)"/>
    <path class="cls-4" d="M66.44,306.61a200.27,200.27,0,0,1,27.6-.86c2.43.2,5.33.13,7.06,2.16a5.24,5.24,0,0,1,0,7.17c-1.89,1.88-4.34,3-6.51,4.53-4.58,3-8.08,7.35-11.26,11.76A117.47,117.47,0,0,0,71.1,353.16c-1.12,2.37-2.38,5.3-5.25,5.89-3.51.82-6.5-1.8-9.06-3.8-10-8.41-19.33-17.95-25.42-29.59-1.64-2.82-1.9-7.13,1.37-8.9C42.84,310.5,54.78,308,66.44,306.61Zm2.41,10.51c-9,.82-18.35,2.35-26.44,6.68a79.79,79.79,0,0,0,8.81,11.72A74.79,74.79,0,0,0,62.52,346c5.57-10.44,11.17-21,19.52-29.56C77.64,316.22,73.17,316.09,68.85,317.12Z" transform="translate(-14.18 -13.91)"/>
  </g>
  <path class="cls-5" d="M137.9,37.78a23.41,23.41,0,0,1,10.88-8,62,62,0,0,1,6.85,21.35A137.13,137.13,0,0,0,137.9,37.78Z" transform="translate(-14.18 -13.91)"/>
  <path class="cls-6" d="M403.34,35.24c3.1-.25,5.37,2.83,7.72,4.53a71.31,71.31,0,0,1-13.29,8.34C398.67,43.54,399.6,38.42,403.34,35.24Z" transform="translate(-14.18 -13.91)"/>
  <g>
    <path class="cls-7" d="M266,75.94c23.92-16.34,52-25.6,80.24-31a12.35,12.35,0,0,1,13.09,5.68c2.73,4.57,4.56,9.6,6.58,14.51,8.41,19.62,13.69,40.45,17.29,61.45,12.44,5.37,25.13-4.77,37.78-1.44,5.24,1.18,9.53,5.33,11.7,10.14a38.87,38.87,0,0,1,1.95,21c-2.33,14.53-9.25,27.8-17.27,40-1.35,1.67-1.21,3.86-.75,5.83,4.4,18.52,7.45,37.44,8,56.49,5.95-2,12-4.49,18.39-4.24,11.63-.5,23.81,3.2,32.26,11.42A36.29,36.29,0,0,1,485.81,292c.6,14.91-6.1,28.79-13.24,41.46-6.91,12.18-7.91,26.43-9.86,40-2.68,19.11-2.82,38.75-8.79,57.27-4.08,13.27-11.29,26.37-23.25,34-7.9,5.44-17.75,7.11-27.18,6.71-8.57,11.29-21.88,18.25-35.61,21-11.41,2.85-23.24,2.15-34.89,2.12-10.34-.1-20.69.21-31,.09a54.27,54.27,0,0,1-19.58-4.09c-4.32-1.69-7.76-4.87-11.57-7.4-3.43,1.57-6,4.63-9.58,6-9.23,3.74-19.28,4.88-29.15,5.43-11,.63-22.82-1.86-30.9-9.73-1.61-2.07-4.27-1.34-6.49-1.12-9.52,1.67-19.43-.92-27.64-5.8-8.8-5.8-15.68-15.26-16.61-26-.76-8.27,3.18-15.92,6.53-23.2,1.14-2.73,2.87-5.48,2.67-8.54-.87-2.86-2.7-5.28-4-8-6.24-12.8-8.54-27.94-4.32-41.71.48-2.09,1.49-4.14,1.31-6.31-2.13-4.34-5.13-8.33-6-13.19-3-10.07-.1-20.57,3.1-30.2-17.8-11.7-33.69-26.87-43.9-45.74a56.12,56.12,0,0,1-3.38-9.52C87,260.87,71.4,257,56.07,252c-12.33-4.91-24.38-11.91-32.45-22.7-7.44-10.09-9.85-23-9.39-35.36a46.65,46.65,0,0,1,16.18-35.59c12.08-11,29.58-15,45.48-12,11.15,2.17,22.3,6.26,31,13.75,6,5.31,9.17,13,10.63,20.78,4-10.5,8.45-20.81,13.25-31,2.32-4.9,5.71-9.25,7.78-14.27-1.91-12.72-5.81-25.66-3.35-38.63.77-5.06,2.34-10.12,5.63-14.13a20.46,20.46,0,0,1,22.51-7.32c6.38,1.63,11,6.65,16.8,9.48,2.9,1.43,5.84,3,9.06,3.56,3.15.06,6-1.48,9.07-2.2,18.8-5.12,38.46-5.12,57.79-5.24C260.05,81.18,262.82,77.91,266,75.94Zm78-26c-27,5.49-53.73,14.65-76.49,30.51-2.81,1.75-5.17,4.64-8.52,5.26-17.92-.09-36,.18-53.65,3.59-5.22.85-10.05,3.26-15.28,4-4.05-.28-7.75-2.2-11.38-3.87-7-3.23-12.48-10.07-20.67-10.22-7.64-.68-14.29,5.19-16.57,12.15-3.46,10.28-2.09,21.39-.39,31.88.63,4.51,2.45,8.87,2.47,13.45-1.7,4.27-4.6,7.94-6.73,12-13.52,25.86-22.92,54.05-25.88,83.16q-16.56-5.65-33-11.71C72.05,217.78,66.25,214.72,62,210c-4-4.23-3.26-10.88-.69-15.63,1.87-3.41,7.08-4.57,9.88-1.66,1.5,4,.27,8.67,2.71,12.33,4,6.34,11.26,11.31,19,10.07,6.81-1,11.76-6.45,15.06-12.09,5.26-9.55,6.68-21.74,1.71-31.71C106.16,164,99.12,159.29,92,156c-13.83-6.35-30.18-8.09-44.64-2.8C34.12,158.45,23,169.88,20,184a61.85,61.85,0,0,0,2.09,32.92c4,11.35,13.51,19.69,23.82,25.29,11.67,6.77,25.05,9.42,37.89,13,7.83,2.38,15.78,4.32,23.54,6.91a24,24,0,0,0,2.55,11c10.48,19.25,27.12,34.49,45.6,46-4,9.38-6.81,19.78-4.69,30,1,5.6,4.38,10.3,7.58,14.85-7,15.58-5.75,34.3,2.8,49,1.66,3.05,4.16,6.33,2.89,10-2.29,8.61-8.32,16-8.95,25.13-1,12.77,8.51,24.47,20,28.92,8.35,3.65,17.72,2.86,26.43,1.15,2.4,3,5,6,8.5,7.81,7.9,4.31,17.2,4.34,25.94,3.76,7.84-.67,15.8-1.61,23.15-4.57,4.72-1.87,8.35-5.6,11.24-9.68,4,4.76,8.75,9.23,14.73,11.39,12.7,4.94,26.59,3.23,39.88,3.07,10-.21,19.94.85,29.89-.17,14-1.09,28.45-5.09,39.11-14.72,3-2.5,5.12-5.92,8.2-8.34,4.07-.27,8.19.47,12.24-.33,11.79-1.81,21.62-10.16,27.66-20.14,7.91-13.08,11.09-28.37,12.75-43.38s3.12-30.21,5.51-45.2c1.2-7.05,2.54-14.17,5.45-20.74s7-12.61,9.72-19.28c4.49-10.07,7.16-21.34,5.15-32.36-1.59-7.42-5.68-14.49-12-18.89-9.22-6.66-21.24-8.49-32.3-6.64-5.91,1.13-11.15,4.22-16.21,7.33a282.73,282.73,0,0,0-8.71-66.59c-1.29-3.62,2-6.4,3.64-9.26,8-12.7,15.23-26.81,15.41-42.15,0-6.78-1.4-15.09-8.17-18.39-6.69-3-14.12-.45-20.91.86-7.17,1.64-15.58,2.77-21.86-2-1.53-.89-1.47-2.8-1.82-4.31-2.81-20.92-8.94-41.33-17.14-60.76-1.88-4.35-3.36-9-6.28-12.78C351.76,48.57,347.4,49.22,343.93,50Z" transform="translate(-14.18 -13.91)"/>
    <path class="cls-7" d="M444.43,51.32a9.81,9.81,0,0,1,10.72,1.56c10.58,10,20.17,21.87,24.06,36.16,1.31,4.33-1.18,9.14-5.08,11.18-3.13,1.59-6.74,1.3-10.12,1.65-15.7,1.3-30.45,7.22-45.24,12.18-6.76,2-13.73-5.12-12-11.88,5.8-19.28,19-35.42,34-48.46A20.8,20.8,0,0,1,444.43,51.32Zm2,4.12c-3,1.52-5.32,4-7.75,6.26-11.71,11.09-21.81,24.42-27,39.83-1.27,3,0,6.93,3.33,7.86,4,.71,7.69-1.73,11.41-2.87C439.6,102.06,453,97.68,467,97.08c2.32-.23,5.08-.3,6.66-2.31s1.1-4.77.41-7c-4-12-12.17-22-21.1-30.74A5.75,5.75,0,0,0,446.46,55.44Z" transform="translate(-14.18 -13.91)"/>
  </g>
  <path class="cls-8" d="M343.93,50c3.47-.73,7.83-1.38,10.43,1.68,2.92,3.79,4.4,8.43,6.28,12.78,8.2,19.43,14.33,39.84,17.14,60.76.35,1.51.29,3.42,1.82,4.31,6.28,4.76,14.69,3.63,21.86,2,6.79-1.31,14.22-3.87,20.91-.86,6.77,3.3,8.14,11.61,8.17,18.39-.18,15.34-7.45,29.45-15.41,42.15-1.62,2.86-4.93,5.64-3.64,9.26A282.73,282.73,0,0,1,420.2,267c5.06-3.11,10.3-6.2,16.21-7.33,11.06-1.85,23.08,0,32.3,6.64,6.29,4.4,10.38,11.47,12,18.89,2,11-.66,22.29-5.15,32.36-2.76,6.67-6.86,12.66-9.72,19.28s-4.25,13.69-5.45,20.74c-2.39,15-4,30.1-5.51,45.2s-4.84,30.3-12.75,43.38c-6,10-15.87,18.33-27.66,20.14-4.05.8-8.17.06-12.24.33-3.08,2.42-5.18,5.84-8.2,8.34-10.66,9.63-25.07,13.63-39.11,14.72-9.95,1-19.93,0-29.89.17-13.29.16-27.18,1.87-39.88-3.07-6-2.16-10.69-6.63-14.73-11.39-2.89,4.08-6.52,7.81-11.24,9.68-7.35,3-15.31,3.9-23.15,4.57-8.74.58-18,.55-25.94-3.76-3.49-1.78-6.1-4.79-8.5-7.81-8.71,1.71-18.08,2.5-26.43-1.15-11.51-4.45-21-16.15-20-28.92.63-9.1,6.66-16.52,8.95-25.13,1.27-3.67-1.23-6.95-2.89-10-8.55-14.71-9.82-33.43-2.8-49-3.2-4.55-6.58-9.25-7.58-14.85-2.12-10.2.7-20.6,4.69-30-18.48-11.46-35.12-26.7-45.6-46a24,24,0,0,1-2.55-11c-7.76-2.59-15.71-4.53-23.54-6.91C71,251.6,57.57,249,45.9,242.18c-10.31-5.6-19.85-13.94-23.82-25.29A61.85,61.85,0,0,1,20,184c3-14.09,14.13-25.52,27.33-30.74,14.46-5.29,30.81-3.55,44.64,2.8,7.16,3.26,14.2,8,17.75,15.26,5,10,3.55,22.16-1.71,31.71-3.3,5.64-8.25,11.14-15.06,12.09-7.75,1.24-15-3.73-19-10.07-2.44-3.66-1.21-8.36-2.71-12.33-2.8-2.91-8-1.75-9.88,1.66-2.57,4.75-3.26,11.4.69,15.63,4.22,4.74,10,7.8,15.83,10.16q16.42,6,33,11.71c3-29.11,12.36-57.3,25.88-83.16,2.13-4.05,5-7.72,6.73-12,0-4.58-1.84-8.94-2.47-13.45-1.7-10.49-3.07-21.6.39-31.88,2.28-7,8.93-12.83,16.57-12.15,8.19.15,13.7,7,20.67,10.22,3.63,1.67,7.33,3.59,11.38,3.87,5.23-.74,10.06-3.15,15.28-4,17.65-3.41,35.73-3.68,53.65-3.59,3.35-.62,5.71-3.51,8.52-5.26C290.2,64.6,316.93,55.44,343.93,50ZM323,66.09a114.92,114.92,0,0,0-19.95,7.31A71.38,71.38,0,0,0,285.36,82a60.31,60.31,0,0,0-13.24,8.2c-3.2,2.33-7.34,4.39-8.38,8.54-.79,3.61-.73,7.34-.88,11a51.4,51.4,0,0,0,4.33,20.45l.66.54c2.43,7.55,8,13.4,13.79,18.59,10.91,9.39,24.66,16.5,39.39,16,10.18-.51,20.82-3.76,28.15-11.15,7-4.09,11.83-11,16.34-17.52l.8,0c2.77-7.09.26-14.72-1.25-21.79-.31-4.4-1.83-8.59-2.92-12.83a153.14,153.14,0,0,0-5.5-18.52c-1.4-4.19-3-8.32-4.65-12.41A75.07,75.07,0,0,0,347.05,60l-2.82,1.21A93.69,93.69,0,0,0,323,66.09ZM154.71,90.67c-3.79,2.37-4.47,7.2-4.7,11.28a80.93,80.93,0,0,0,3.29,27.89c.95,3.75,2.44,8.09.19,11.68-2.42,4.18-5.57,8-7.28,12.55a63,63,0,0,0-5.06,9c-3,6.85-6.48,13.61-8,21-3.36,7.2-5.43,14.95-7.13,22.69-2.7,9.55-3.66,19.47-4.93,29.28,1.94.72,3.9,1.43,5.86,2.12,2.34,1,4.71,1.85,7.1,2.68,5,1.55,9.82,3.63,14.8,5.25,4,1.33,8.35-1.12,12.18,1,8.31,3.93,16.42,8.29,24.87,11.94,3-3.88,6.44-9.07,12-8.69,3.63-.2,6.09,5.31,3.1,7.65-2.1,2.46-6.31,4.15-5.45,8,.1,4.42,4.73,6.22,6.9,9.47.79,3.84-.91,8.22,1.49,11.66,2,3.13,5,5.52,6.48,9a4.85,4.85,0,0,1-6.08,5.55c-2.92-1.12-4.6-4.06-6.78-6.16-2.57-3.21-7-3.47-10.6-4.72-13.25-4.05-26.53-8-39.8-11.94-1.76-.69-4-1.06-5-2.84a34.39,34.39,0,0,1-1.9-5.29A70.28,70.28,0,0,0,130,267.87a55.22,55.22,0,0,0-11.94-3c5,12.58,14.53,22.71,24.39,31.71,11,9.2,23.16,17.43,36.72,22.35,2.2,1.48,4.9,2.71,6,5.28,1,3-2,6.59-5.15,6.11-3.49-.62-6.56-2.52-9.66-4.13-1.74-.72-3.5-1.43-5.27-2.1-3.52,7.76-6,16.77-3.28,25.16,1.5,4.8,6.12,7.55,8.38,11.87.26,3.06-1.54,5.82-2.55,8.61-5,11.42-3.91,25,1.73,35.95,2.16,4.62,5.72,9,5.52,14.34.3,10.9-8.8,19.27-9.24,30,.17,7.28,5.56,13.44,11.9,16.47,6.56,3.33,14.21,2.68,21.2,1.36.22-2.69.4-5.37.52-8.05a44.28,44.28,0,0,1,3.87-12.7c1.52-3.23,3.88-6.35,3.73-10.09,0-3.7-2.23-6.8-4.07-9.81a115.35,115.35,0,0,1-11.13-22.86c-.63-2.18-1.84-4.76-.41-6.88,1.43-3,6.87-3.13,8.27,0,3.09,5.71,4.29,12.41,8.34,17.63,2.58,7.21,8.93,12.93,9.17,20.95.65,8.58-6.16,15.11-7.54,23.24-1.19,5.55-1.05,12.57,3.91,16.31,5.35,3.79,12.27,3.86,18.57,3.73,8.21-.54,16.81-1,24.21-5,5.53-1.68,6.52-8.3,6.41-13.26-.48-21.72,7.84-42.46,8-64.13.17-2.18.16-4.85,2.08-6.31a5,5,0,0,1,7.59,1.92c.67,3.41.08,6.9.27,10.35-1.48,16.53-6.36,32.55-7.56,49.1a84.35,84.35,0,0,1,20.92-17.35c-1.91-3.66-4.15-7.21-5.23-11.23a41.68,41.68,0,0,1-.74-11.69c.74-3.45,1.7-7,3.84-9.87,1.63-2.33,5-1.91,7.32-1,1.63,2.3,1,5.21,1,7.83-3.11,4.1-3.07,9.73-1.13,14.32,1.68,4,5.35,6.74,7.43,10.52,1.51,2.76-.92,5.35-2.32,7.55a35.05,35.05,0,0,0-11.43,6.71c-5.74,3.68-11.47,8.34-14.09,14.83-1.78,4.64,1.81,8.89,5.34,11.44,7.14,5.35,16.5,5.49,25,5.44,11.66-.2,23.33-.29,35-.11,11.26.16,22.94-.92,33.08-6.21,13.25-5.44,21.74-18.91,24.6-32.56,1.16-5.66,2.53-11.56,1.42-17.34,1.53-13.34-.59-27.66-8.78-38.64A39.41,39.41,0,0,0,371,370c-5.46-1.26-10.11,2.67-14.8,4.77-5.16,1.51-10.45,3.51-15.92,2.91-3.19-.3-4.84-4.71-2.92-7.19,1.49-2,4.26-2.24,6.51-2.85,7.55-1.46,15.53-4.12,20.49-10.34,3.84-4.9,2.69-11.85,0-17-15.88,7-32.93,11.77-50.33,12.54a87.86,87.86,0,0,1-22.33-.69c-4.18-.75-5.32-7.1-1.31-8.94,3.71-1.37,7.79-.14,11.64-.08,37,1.13,74.29-14.5,98.71-42.41,2.49-3,6-5.47,7.37-9.26a107.6,107.6,0,0,0,1.3-20.44c.59-14.73-1.49-29.37-3.21-44-1.09-11.12-5.73-21.6-6.05-32.85,4.11-5,7.4-10.69,10.71-16.27,5.34-10.24,10.28-21.46,8.87-33.31a20.85,20.85,0,0,0-5.9,2.24c-8.1,5.43-13.41,14.12-21.76,19.25-4.18,2.67-8.91,4.27-13.39,6.35-2.41-.31-4.88-.14-7.22-.81-3.21-1.53-2.87-7.26.52-8.4,4.9-1.81,10.25-2.59,14.65-5.6A62.49,62.49,0,0,0,401.51,143c-4.52.11-9,.58-13.55.34s-8.53-1.82-12.67-3.17C372.07,144.91,369.18,150,365,154c-9.15,9.24-20.19,17.36-33.15,20-16.2,3.8-33.48-.7-47.18-9.73-6.28-3.71-11.11-9.3-17.12-13.38-.09-1.65-1.34-2.91-2.18-4.25a63.54,63.54,0,0,1-8.95-16c-4.12-10.92-4.3-22.82-2.62-34.24-17.74,0-35.8.18-53,4.89-4.77,2.15-10.15,3.41-15.34,2.09-7.71-2-14.75-6-21.24-10.58C161.46,91.12,157.9,88.65,154.71,90.67ZM44.83,166.94c-5.28,2.43-9.08,6.93-11.87,11.92a35.94,35.94,0,0,0-3.28,18.85,79.7,79.7,0,0,0,1.27,12,28.42,28.42,0,0,0,7,13.15,38.84,38.84,0,0,0,11.76,9.27c5.34,2.58,10.67,6.4,16.76,6.52,5.46,2.69,11.4,4.08,17.31,5.36,4.79,1.42,9.46,3.3,14.36,4.3,4.85,1.43,9.71,2.82,14.61,4.09,4,1.31,8.15,2.44,12.29,3.39,4.27,1.26,8.52,2.58,12.81,3.77,4.08,1,8,2.68,12.16,3.32,2.13-.52,2.05-3.24,2.76-4.89a96.21,96.21,0,0,0-11.51-4.13,72.47,72.47,0,0,0-9.68-3.47c-4.17-1.47-8.34-2.9-12.51-4.35a72.28,72.28,0,0,0-10.37-3.79c-4.31-1.56-8.63-3.09-12.9-4.73-4.39-1.39-8.61-4-13.29-4a99.56,99.56,0,0,0-13.64-5.67c-4-2.58-8-5-11.83-7.75-2.07-2.42-4.07-4.91-6.21-7.27-.83-3.27-1.6-6.55-2.35-9.83.2-2,.36-3.92.44-5.89,1.49-3.59,3-7.15,4.71-10.65,2.33-1.78,4.71-3.5,7.16-5.12a74.11,74.11,0,0,1,11.91-.7c2,1.22,4.12,2.36,6.26,3.4l-.63.59a15.33,15.33,0,0,1,3.79,14.27c2.06,2.08,4,4.62,7,5.38,2,.32,3.91-.6,5.84-1a57.63,57.63,0,0,0,6.75-11,56.25,56.25,0,0,0-.63-16.33l-.93,0c-3.61-6.84-11.14-9.68-17.73-12.79a90.55,90.55,0,0,0-21.18-2.47C55.42,161.64,49.46,163.14,44.83,166.94ZM162.19,259c-.11,1.31-.2,2.62-.27,3.94l-4,8.4q17.07,5.82,34.56,10.41c-1.94-3.3-4-6.5-5.73-9.93-3.65-3.59-8.53-5.31-13-7.54C169.92,262.41,166.1,260.61,162.19,259Zm276.14,11.13c-7.56,1.57-13.86,6.69-18.64,12.53-1.51,3.25-.92,7-1.69,10.48-.67,4.47-3.94,7.84-6.77,11.11a28.74,28.74,0,0,0-3.13,3.83c-3.67,3.29-7.88,6.48-9.77,11.2-1.91,6-2.32,12.38-3,18.62-1,9-1.29,18.16.34,27.11.13,4.55,1.43,9.14,5.28,11.93,4.69,6.42,9.17,13.33,10.24,21.4a55.79,55.79,0,0,0,1.94,5.72q.21,5.94.91,11.85c-.23,8.12-.38,16.29-1.92,24.3-1.41,5.46-3.14,10.83-4.95,16.17A47.68,47.68,0,0,0,419.29,454,38.23,38.23,0,0,0,436,435.06a69.17,69.17,0,0,0,6.42-22.27c2-7.55,2.36-15.4,3-23.15.91-6.12,1.18-12.31,2-18.44,1.42-6.19,1.93-12.53,2.93-18.78.9-4.07,1.78-8.16,2.95-12.16,2.12-7.82,6.63-14.66,10-22,4.65-8.63,8.26-18.32,7.39-28.28a19.85,19.85,0,0,0-8.43-15.23A31.26,31.26,0,0,0,438.33,270.12ZM374.2,335.61c1.41,4.36,3.05,8.75,3.24,13.38.17,3.83-1,7.52-2.18,11.12,3,1,6,2,9,3.08a216.36,216.36,0,0,1,1.16-34.43C381.67,331,378,333.35,374.2,335.61Z" transform="translate(-14.18 -13.91)"/>
  <g>
    <path class="cls-9" d="M73.45,53.38c1.81-.91,3.84-.18,5.51.67C96.05,63,109.08,78.17,118.22,94.91a23.57,23.57,0,0,1,2.8,7.16,5.62,5.62,0,0,1-6.88,5.86c-3.75-1.08-7.16-3.09-10.92-4.14C90.34,100,77,98.06,63.72,96.35c-3.21-.36-6.88-1.57-8.17-4.85-.7-2.75.09-5.6.71-8.29a72,72,0,0,1,13-26A13.24,13.24,0,0,1,73.45,53.38ZM69.32,76.65c-.93,3-1.77,6.07-2.41,9.17,7.74,1.55,15.62,2.28,23.34,3.94,4.39.94,8.78,1.87,13.24,2.43-1-1.72-1.16-4.54-3.46-5-5.16-9.46-13.89-16.62-23.15-21.89A55.47,55.47,0,0,0,69.32,76.65Z" transform="translate(-14.18 -13.91)"/>
    <path class="cls-9" d="M452.35,214.38c10.26-1.76,20.79-.83,30.88,1.48,3.63.91,7.64,1.78,10.26,4.67,2,2.29.9,5.54.23,8.14a52,52,0,0,1-12.11,19.93,7.12,7.12,0,0,1-8,1.77c-2.07-1.21-3.46-3.24-5-5-6.25-7.9-14.54-13.9-23.26-18.8a5.79,5.79,0,0,1-2.76-7.88C444.56,215.26,449,215.15,452.35,214.38ZM462,224.2q7.61,6.6,14.8,13.64c2.62-3.39,5.29-7,6.11-11.28A61.79,61.79,0,0,0,462,224.2Z" transform="translate(-14.18 -13.91)"/>
  </g>
  <path class="cls-10" d="M323,66.09a93.69,93.69,0,0,1,21.2-4.86c-4.42,2.4-8.36,5.56-12.63,8.18C328.74,68.32,326,67,323,66.09Z" transform="translate(-14.18 -13.91)"/>
  <path class="cls-11" d="M344.23,61.23,347.05,60A75.07,75.07,0,0,1,352,71.13c-6.6.25-13.35.5-19.73-1.48l-.67-.24C335.87,66.79,339.81,63.63,344.23,61.23Z" transform="translate(-14.18 -13.91)"/>
  <path class="cls-12" d="M69.32,76.65a55.47,55.47,0,0,1,7.56-11.36c9.26,5.27,18,12.43,23.15,21.89A87.32,87.32,0,0,1,87.31,83.6C81.34,81.21,74.79,80.21,69.32,76.65Z" transform="translate(-14.18 -13.91)"/>
  <path class="cls-13" d="M303.08,73.4A114.92,114.92,0,0,1,323,66.09c2.92.94,5.71,2.23,8.57,3.32l.67.24a73,73,0,0,0-14.81,10.47l-1.44,0A35.16,35.16,0,0,1,303.08,73.4Z" transform="translate(-14.18 -13.91)"/>
  <path class="cls-14" d="M430.93,88.08c3.72-8.28,10.64-14.53,17.17-20.6a69.62,69.62,0,0,1,6.76,7.19C446.18,77.8,438.73,83.32,430.93,88.08Z" transform="translate(-14.18 -13.91)"/>
  <path class="cls-15" d="M317.46,80.12a73,73,0,0,1,14.81-10.47c6.38,2,13.13,1.73,19.73,1.48,1.67,4.09,3.25,8.22,4.65,12.41C343.53,85.66,330.2,83.31,317.46,80.12Z" transform="translate(-14.18 -13.91)"/>
  <path class="cls-16" d="M285.36,82a71.38,71.38,0,0,1,17.72-8.6A35.16,35.16,0,0,0,316,80.1c-5.36,4.36-9.66,10-15.76,13.44A54.82,54.82,0,0,1,285.36,82Z" transform="translate(-14.18 -13.91)"/>
  <path class="cls-17" d="M430.93,88.08c7.8-4.76,15.25-10.28,23.93-13.41a52.23,52.23,0,0,1,7.27,11.9c-12.2,1.3-23.82,5.21-35.6,8.36C427.71,92.51,428.62,89.69,430.93,88.08Z" transform="translate(-14.18 -13.91)"/>
  <path class="cls-18" d="M66.91,85.82c.64-3.1,1.48-6.15,2.41-9.17,5.47,3.56,12,4.56,18,6.95A87.32,87.32,0,0,0,100,87.18c2.3.47,2.48,3.29,3.46,5-4.46-.56-8.85-1.49-13.24-2.43C82.53,88.1,74.65,87.37,66.91,85.82Z" transform="translate(-14.18 -13.91)"/>
  <g>
    <path class="cls-19" d="M316,80.1l1.44,0c12.74,3.19,26.07,5.54,39.19,3.42a153.14,153.14,0,0,1,5.5,18.52c-20.47,1.12-41.41-.82-60.71-8l-1.18-.52C306.36,90.1,310.66,84.46,316,80.1Z" transform="translate(-14.18 -13.91)"/>
    <path class="cls-19" d="M276.45,118.92c3.87-4.55,7.89-9,11.79-13.5l.6.32c11.05,5.47,23,8.73,35,11.31,13.54,2.56,27.73,4.23,41.26.74,0-.73-.05-2.18-.07-2.9,1.51,7.07,4,14.7,1.25,21.79l-.8,0c-14.49,1-29.2,1.37-43.46-1.81-15.33-3.37-31.11-6.82-44.54-15.33Z" transform="translate(-14.18 -13.91)"/>
  </g>
  <path class="cls-20" d="M272.12,90.2A60.31,60.31,0,0,1,285.36,82a54.82,54.82,0,0,0,14.9,11.54l1.18.52a62.67,62.67,0,0,0-12.6,11.68l-.6-.32C281.77,101.72,275.27,97.23,272.12,90.2Z" transform="translate(-14.18 -13.91)"/>
  <g>
    <path class="cls-21" d="M154.71,90.67c3.19-2,6.75.45,9.5,2.11,6.49,4.56,13.53,8.53,21.24,10.58,5.19,1.32,10.57.06,15.34-2.09.07,7.16.37,14.53-2.13,21.37-3.43,11.9-11.43,22.78-22.7,28.25-7.36,3.61-15.24,6.31-22,11.12a92,92,0,0,0-12.11,10.44c-.48-6.44,2-12.51,4.32-18.38,1.71-4.58,4.86-8.37,7.28-12.55,2.25-3.59.76-7.93-.19-11.68A80.93,80.93,0,0,1,150,102C150.24,97.87,150.92,93,154.71,90.67Z" transform="translate(-14.18 -13.91)"/>
    <path class="cls-21" d="M375.29,140.17c4.14,1.35,8.28,2.92,12.67,3.17s9-.23,13.55-.34a62.49,62.49,0,0,1-14.9,14.62c-4.4,3-9.75,3.79-14.65,5.6-3.39,1.14-3.73,6.87-.52,8.4,2.34.67,4.81.5,7.22.81,10.72,2.06,19,11.35,21.47,21.74.32,11.25,5,21.73,6.05,32.85,1.72,14.59,3.8,29.23,3.21,44-5.28-.17-10.67,0-15.79-1.52a40,40,0,0,1-19.07-12c-11.17-12.6-14.19-30.17-25-43A41.32,41.32,0,0,0,335,203.09c-12.79-6-26.63-9.39-39.17-15.91-9.5-4.89-19.34-10.57-25.06-19.94-3.09-4.86-2.91-10.81-3.18-16.34,6,4.08,10.84,9.67,17.12,13.38,13.7,9,31,13.53,47.18,9.73,13-2.67,24-10.79,33.15-20C369.18,150,372.07,144.91,375.29,140.17Z" transform="translate(-14.18 -13.91)"/>
    <path class="cls-21" d="M408.1,308.07a28.74,28.74,0,0,1,3.13-3.83c2.67,4.08,5.9,8.06,10.51,10a98,98,0,0,0,23.31,6.49c6.2,1.12,12.33-.76,18.22-2.47-3.34,7.32-7.85,14.16-10,22-1.17,4-2.05,8.09-2.95,12.16-12,3.24-24.37,0-35.67-4.13a75.51,75.51,0,0,1-12.12-5.84c-.56-.33-1.11-.66-1.65-1C403.2,330.31,404.7,319,408.1,308.07Z" transform="translate(-14.18 -13.91)"/>
  </g>
  <path class="cls-22" d="M263.74,98.74c1-4.15,5.18-6.21,8.38-8.54,3.15,7,9.65,11.52,16.12,15.22-3.9,4.53-7.92,9-11.79,13.5-4.72-2.77-9.18-5.94-13.59-9.16C263,106.08,263,102.35,263.74,98.74Z" transform="translate(-14.18 -13.91)"/>
  <path class="cls-23" d="M301.44,94.06c19.3,7.18,40.24,9.12,60.71,8,1.09,4.24,2.61,8.43,2.92,12.83,0,.72.05,2.17.07,2.9-13.53,3.49-27.72,1.82-41.26-.74-12-2.58-24-5.84-35-11.31A62.67,62.67,0,0,1,301.44,94.06Z" transform="translate(-14.18 -13.91)"/>
  <path class="cls-24" d="M200.79,101.27c17.23-4.71,35.29-4.91,53-4.89-1.68,11.42-1.5,23.32,2.62,34.24a63.54,63.54,0,0,0,8.95,16c.84,1.34,2.09,2.6,2.18,4.25.27,5.53.09,11.48,3.18,16.34,5.72,9.37,15.56,15,25.06,19.94,12.54,6.52,26.38,9.95,39.17,15.91a41.32,41.32,0,0,1,14.56,11.36c10.8,12.86,13.82,30.43,25,43a40,40,0,0,0,19.07,12c5.12,1.5,10.51,1.35,15.79,1.52a107.6,107.6,0,0,1-1.3,20.44c-1.38,3.79-4.88,6.22-7.37,9.26C376.3,328.59,339,344.22,302,343.09c-3.85-.06-7.93-1.29-11.64.08-4,1.84-2.87,8.19,1.31,8.94a87.86,87.86,0,0,0,22.33.69c17.4-.77,34.45-5.53,50.33-12.54,2.68,5.17,3.83,12.12,0,17-5,6.22-12.94,8.88-20.49,10.34-2.25.61-5,.81-6.51,2.85-1.92,2.48-.27,6.89,2.92,7.19,5.47.6,10.76-1.4,15.92-2.91.44,5.81.26,12.76,5.3,16.76,6.59,5.23,15.5,5.44,22.82,9.21,9.29,4.31,14.54,13.76,18.81,22.58,1.11,5.78-.26,11.68-1.42,17.34-2.86,13.65-11.35,27.12-24.6,32.56-13,.24-26-.65-39-1a339.8,339.8,0,0,1-35.48-2.91c-4.53-.9-10.18-2-12.38-6.57-1.4-5,.44-10.32,2.53-14.9a35.05,35.05,0,0,1,11.43-6.71c3.17-1.31,6.8-2.14,9.23-4.74,1.52-2,2.63-5.27.71-7.37-3.24-3.56-8.25-5-11.26-8.79-2.23-3.36-2.46-7.58-2.66-11.49-.08-2.62.59-5.53-1-7.83-2.31-.94-5.69-1.36-7.32,1-2.14,2.87-3.1,6.42-3.84,9.87-.52,2.79-.9,5.59-1.34,8.4a30.81,30.81,0,0,1-6.05-17.23c-.19-3.45.4-6.94-.27-10.35a5,5,0,0,0-7.59-1.92c-1.92,1.46-1.91,4.13-2.08,6.31-.17,21.67-8.49,42.41-8,64.13.11,5-.88,11.58-6.41,13.26-6.07-.34-12.13-.88-18.2-1.18-4.88-.41-10-.61-14.45-2.82-5-2.87-7-9.26-6-14.73.81-6.36,5-11.59,6.39-17.76.81-3.26-.94-6.38-3-8.78-4.11-4.9-8.93-9.14-13.08-14-4-5.22-5.25-11.92-8.34-17.63-1.4-3.11-6.84-3-8.27,0-1.43,2.12-.22,4.7.41,6.88a115.35,115.35,0,0,0,11.13,22.86c1.84,3,4.1,6.11,4.07,9.81.15,3.74-2.21,6.86-3.73,10.09a44.28,44.28,0,0,0-3.87,12.7,39.84,39.84,0,0,1-22.13-5c-2.44-1.28-2.76-4.31-2.57-6.76.7-9.1,8.34-15.92,8.86-25.05.33-4.74-2.42-8.82-4.54-12.81a149.67,149.67,0,0,1-6.9-15.28c-3.26-8.11-2-17.47,2-25.11,1.71-3.85,4.29-8.12,2.85-12.45-2.94-4.39-9.32-6.27-10.11-12.07-.84-6.44-1.34-14.16,3.66-19.13,3.1,1.61,6.17,3.51,9.66,4.13,3.15.48,6.16-3.07,5.15-6.11-1.13-2.57-3.83-3.8-6-5.28a127,127,0,0,1-14-10c-8.78-7.14-18.07-13.82-25.45-22.5-4.63-5.55-9.84-11.06-11.84-18.21l2.15-.27a70.28,70.28,0,0,1,10.24,2.82,34.39,34.39,0,0,0,1.9,5.29c1,1.78,3.24,2.15,5,2.84,13.27,4,26.55,7.89,39.8,11.94,3.63,1.25,8,1.51,10.6,4.72,2.18,2.1,3.86,5,6.78,6.16a4.85,4.85,0,0,0,6.08-5.55c-1.45-3.46-4.52-5.85-6.48-9-2.4-3.44-.7-7.82-1.49-11.66-2.17-3.25-6.8-5.05-6.9-9.47-.86-3.89,3.35-5.58,5.45-8,3-2.34.53-7.85-3.1-7.65-5.57-.38-9,4.81-12,8.69-8.45-3.65-16.56-8-24.87-11.94-3.83-2.09-8.21.36-12.18-1-5-1.62-9.8-3.7-14.8-5.25,2.45-2.83,5.14-5.49,7.18-8.65,2.3-3.54,1.64-8.06.62-11.92-1.39-5.28-5.7-8.94-9.65-12.38,2.51-10.73,5.32-21.39,7.53-32.19.72-1.08,1.43-2.18,2.2-3.23A92,92,0,0,1,154,162c6.72-4.81,14.6-7.51,22-11.12,11.27-5.47,19.27-16.35,22.7-28.25C201.16,115.8,200.86,108.43,200.79,101.27Zm-58.33,83.06c-3.42,1.67-2.91,7.31.53,8.71,7.29,4,15.35,6.8,21.9,12.1,1.85,1.46,3.46,3.25,5.55,4.4,1.94.59,4.45.37,5.63-1.5,2-2.55,1.38-6,.75-8.93-1-4.13-1.89-8.36-3.75-12.2-1.33-3.1-5.85-3.28-8-1a29.85,29.85,0,0,0-1.46,6.21c-4.91-2.27-9.6-5-14.52-7.2C147,184.15,144.53,182.94,142.46,184.33Zm117.78,22.93c-2.29,3.4-5.11,6.47-6.94,10.16-1.7,3,.6,7,3.83,7.57,4.59.84,9.25-.06,13.87-.2,9.31-.5,18.58,1.18,27.89.83,4.24.08,5.25-6.45,1.91-8.41-2.62-1.58-5.8-1.6-8.76-1.81-8.15-.22-16.29-.66-24.44-.64,1.76-2.9,4.21-5.52,5-8.9.82-3.78-4.2-6.71-7.26-4.6C263.15,202.77,261.81,205.17,260.24,207.26Zm-76.89,18c-3.46,1.41-3.72,5.87-2.39,8.87,1.52,3.5,3.58,6.94,6.66,9.27,3.25,2.33,7.49.68,10.38-1.44s5.91-5.13,6.3-8.93c-.79-4.44-5.49-6.32-9.4-7.14S187.11,224,183.35,225.27Zm109,23.14c-6.71.61-14.15,1.78-18.84,7.14-5.2,5.1-5,14-.67,19.55,4.42,5.19,11.23,7.58,17.83,8.29,7.08.81,14.86.45,20.91-3.74,7.06-4.84,9.65-15.6,4.39-22.67S300.85,247.7,292.4,248.41Zm-75.13,82.94c-.46,6.49,3.61,12.06,8,16.42,3.71,3.63,9.13,6.44,14.41,4.89,3.81-1.67,6.41-5.3,8.21-8.93,1.23-2.23.53-5.53-1.94-6.56-3.46-1.58-7.28-2.11-10.91-3.19C229.23,332.45,223.36,329.22,217.27,331.35Z" transform="translate(-14.18 -13.91)"/>
  <path class="cls-25" d="M262.86,109.76c4.41,3.22,8.87,6.39,13.59,9.16l1.07.65c-4.59,2.26-7.76,6.35-10.33,10.64A51.4,51.4,0,0,1,262.86,109.76Z" transform="translate(-14.18 -13.91)"/>
  <path class="cls-26" d="M267.19,130.21c2.57-4.29,5.74-8.38,10.33-10.64,13.43,8.51,29.21,12,44.54,15.33,14.26,3.18,29,2.77,43.46,1.81-4.51,6.55-9.37,13.43-16.34,17.52a159,159,0,0,1-42.72-3.86,89.64,89.64,0,0,1-38.61-19.62Z" transform="translate(-14.18 -13.91)"/>
  <path class="cls-27" d="M267.85,130.75a89.64,89.64,0,0,0,38.61,19.62,159,159,0,0,0,42.72,3.86c-7.33,7.39-18,10.64-28.15,11.15-14.73.46-28.48-6.65-39.39-16C275.89,144.15,270.28,138.3,267.85,130.75Z" transform="translate(-14.18 -13.91)"/>
  <path class="cls-28" d="M413.81,146.83a20.85,20.85,0,0,1,5.9-2.24c1.41,11.85-3.53,23.07-8.87,33.31-3.31,5.58-6.6,11.23-10.71,16.27-2.47-10.39-10.75-19.68-21.47-21.74,4.48-2.08,9.21-3.68,13.39-6.35C400.4,161,405.71,152.26,413.81,146.83Z" transform="translate(-14.18 -13.91)"/>
  <path class="cls-29" d="M141.15,163.06a63,63,0,0,1,5.06-9c-2.3,5.87-4.8,11.94-4.32,18.38-.77,1.05-1.48,2.15-2.2,3.23-2.18,2.8-4.62,5.41-6.58,8.37C134.67,176.67,138.12,169.91,141.15,163.06Z" transform="translate(-14.18 -13.91)"/>
  <path class="cls-30" d="M44.83,166.94c4.63-3.8,10.59-5.3,16.38-6.2a130.37,130.37,0,0,0-.45,20.63c-2.45,1.62-4.83,3.34-7.16,5.12a48.64,48.64,0,0,1-9.07-17C44.61,168.85,44.76,167.57,44.83,166.94Z" transform="translate(-14.18 -13.91)"/>
  <path class="cls-31" d="M61.21,160.74a90.55,90.55,0,0,1,21.18,2.47c-5.14,4.57-7.54,11.14-9.72,17.46a74.11,74.11,0,0,0-11.91.7A130.37,130.37,0,0,1,61.21,160.74Z" transform="translate(-14.18 -13.91)"/>
  <path class="cls-32" d="M72.67,180.67c2.18-6.32,4.58-12.89,9.72-17.46,6.59,3.11,14.12,5.95,17.73,12.79-4.39.24-9,.17-13.07,2.06a36.13,36.13,0,0,0-8.12,6C76.79,183,74.71,181.89,72.67,180.67Z" transform="translate(-14.18 -13.91)"/>
  <path class="cls-33" d="M33,178.86c2.79-5,6.59-9.49,11.87-11.92-.07.63-.22,1.91-.3,2.54-5.12,4.35-6.19,11.14-6.92,17.44C36,184.28,34.48,181.56,33,178.86Z" transform="translate(-14.18 -13.91)"/>
  <path class="cls-34" d="M37.61,186.92c.73-6.3,1.8-13.09,6.92-17.44a48.64,48.64,0,0,0,9.07,17c-1.7,3.5-3.22,7.06-4.71,10.65a63.61,63.61,0,0,1-10.34-8.82Z" transform="translate(-14.18 -13.91)"/>
  <path class="cls-35" d="M87.05,178.06c4.09-1.89,8.68-1.82,13.07-2.06l.93,0a56.25,56.25,0,0,1,.63,16.33c-5,0-9.91,0-14.86.37-2.42,1.34-3.76,3.77-4.73,6.26a15.33,15.33,0,0,0-3.79-14.27l.63-.59A36.13,36.13,0,0,1,87.05,178.06Z" transform="translate(-14.18 -13.91)"/>
  <path class="cls-36" d="M133.11,184.05c2-3,4.4-5.57,6.58-8.37-2.21,10.8-5,21.46-7.53,32.19L126,206.74C127.68,199,129.75,191.25,133.11,184.05Z" transform="translate(-14.18 -13.91)"/>
  <path class="cls-37" d="M33,178.86c1.52,2.7,3,5.42,4.65,8.06l.94,1.4a25,25,0,0,0-1,12.75c-2.69-1-5.28-2.22-7.9-3.36A35.94,35.94,0,0,1,33,178.86Z" transform="translate(-14.18 -13.91)"/>
  <path class="cls-38" d="M142.46,184.33c2.07-1.39,4.56-.18,6.62.59,4.92,2.24,9.61,4.93,14.52,7.2a29.85,29.85,0,0,1,1.46-6.21c2.16-2.28,6.68-2.1,8,1,1.86,3.84,2.74,8.07,3.75,12.2.63,2.92,1.29,6.38-.75,8.93-1.18,1.87-3.69,2.09-5.63,1.5-2.09-1.15-3.7-2.94-5.55-4.4-6.55-5.3-14.61-8.08-21.9-12.1C139.55,191.64,139,186,142.46,184.33Z" transform="translate(-14.18 -13.91)"/>
  <path class="cls-39" d="M37.58,201.07a25,25,0,0,1,1-12.75,63.61,63.61,0,0,0,10.34,8.82c-.08,2-.24,3.93-.44,5.89A102.71,102.71,0,0,1,37.58,201.07Z" transform="translate(-14.18 -13.91)"/>
  <path class="cls-40" d="M86.82,192.67c5-.39,9.91-.35,14.86-.37a57.63,57.63,0,0,1-6.75,11C91,200.85,88.53,196.89,86.82,192.67Z" transform="translate(-14.18 -13.91)"/>
  <path class="cls-41" d="M82.09,198.93c1-2.49,2.31-4.92,4.73-6.26,1.71,4.22,4.17,8.18,8.11,10.65-1.93.39-3.84,1.31-5.84,1C86.12,203.55,84.15,201,82.09,198.93Z" transform="translate(-14.18 -13.91)"/>
  <path class="cls-42" d="M29.68,197.71c2.62,1.14,5.21,2.37,7.9,3.36a102.71,102.71,0,0,0,10.87,2c.75,3.28,1.52,6.56,2.35,9.83-3.66-.21-7.32-.37-10.95-.94-3-.6-5.94-1.43-8.9-2.18A79.7,79.7,0,0,1,29.68,197.71Z" transform="translate(-14.18 -13.91)"/>
  <path class="cls-43" d="M260.24,207.26c1.57-2.09,2.91-4.49,5.11-6,3.06-2.11,8.08.82,7.26,4.6-.8,3.38-3.25,6-5,8.9,8.15,0,16.29.42,24.44.64,3,.21,6.14.23,8.76,1.81,3.34,2,2.33,8.49-1.91,8.41-9.31.35-18.58-1.33-27.89-.83-4.62.14-9.28,1-13.87.2-3.23-.57-5.53-4.62-3.83-7.57C255.13,213.73,258,210.66,260.24,207.26Z" transform="translate(-14.18 -13.91)"/>
  <path class="cls-44" d="M126,206.74l6.18,1.13q-2.74,15.1-5.25,30.27c-2-.69-3.92-1.4-5.86-2.12C122.32,226.21,123.28,216.29,126,206.74Z" transform="translate(-14.18 -13.91)"/>
  <path class="cls-45" d="M132.16,207.87c4,3.44,8.26,7.1,9.65,12.38,1,3.86,1.68,8.38-.62,11.92-2,3.16-4.73,5.82-7.18,8.65-2.39-.83-4.76-1.73-7.1-2.68Q129.42,223,132.16,207.87Z" transform="translate(-14.18 -13.91)"/>
  <path class="cls-46" d="M31,209.74c3,.75,5.9,1.58,8.9,2.18,1.49,4.3,3.74,8.51,7.88,10.78l-.79.11c-3,.12-6,.05-9,.08A28.42,28.42,0,0,1,31,209.74Z" transform="translate(-14.18 -13.91)"/>
  <path class="cls-47" d="M39.85,211.92c3.63.57,7.29.73,10.95.94,2.14,2.36,4.14,4.85,6.21,7.27-3.08.88-6.16,1.79-9.28,2.57C43.59,220.43,41.34,216.22,39.85,211.92Z" transform="translate(-14.18 -13.91)"/>
  <path class="cls-48" d="M47.73,222.7c3.12-.78,6.2-1.69,9.28-2.57,3.84,2.74,7.88,5.17,11.83,7.75-3.12.53-6.14,1.49-9.21,2.24l-2.28.14a27.87,27.87,0,0,1-10.41-7.45Z" transform="translate(-14.18 -13.91)"/>
  <path class="cls-49" d="M37.92,222.89c3,0,6,0,9-.08a27.87,27.87,0,0,0,10.41,7.45c-2.59.49-5.13,1.2-7.67,1.9A38.84,38.84,0,0,1,37.92,222.89Z" transform="translate(-14.18 -13.91)"/>
  <path class="cls-50" d="M462,224.2a61.79,61.79,0,0,1,20.91,2.36c-.82,4.31-3.49,7.89-6.11,11.28Q469.6,230.79,462,224.2Z" transform="translate(-14.18 -13.91)"/>
  <path class="cls-51" d="M183.35,225.27c3.76-1.25,7.79-.05,11.55.63s8.61,2.7,9.4,7.14c-.39,3.8-3.41,6.72-6.3,8.93s-7.13,3.77-10.38,1.44c-3.08-2.33-5.14-5.77-6.66-9.27C179.63,231.14,179.89,226.68,183.35,225.27Z" transform="translate(-14.18 -13.91)"/>
  <path class="cls-52" d="M59.63,230.12c3.07-.75,6.09-1.71,9.21-2.24a99.56,99.56,0,0,1,13.64,5.67c-1.84.5-3.64,1.12-5.45,1.68C70.81,235.34,65.11,232.72,59.63,230.12Z" transform="translate(-14.18 -13.91)"/>
  <path class="cls-53" d="M57.35,230.26l2.28-.14c5.48,2.6,11.18,5.22,17.4,5.11-3.54,1.13-7,2.44-10.59,3.45-6.09-.12-11.42-3.94-16.76-6.52C52.22,231.46,54.76,230.75,57.35,230.26Z" transform="translate(-14.18 -13.91)"/>
  <path class="cls-54" d="M82.48,233.55c4.68,0,8.9,2.61,13.29,4-1.7.88-3.38,1.78-5.06,2.7q-3.46,1.92-7,3.79c-5.91-1.28-11.85-2.67-17.31-5.36,3.57-1,7-2.32,10.59-3.45C78.84,234.67,80.64,234.05,82.48,233.55Z" transform="translate(-14.18 -13.91)"/>
  <path class="cls-55" d="M90.71,240.25c1.68-.92,3.36-1.82,5.06-2.7,4.27,1.64,8.59,3.17,12.9,4.73-1.25,1-2.49,2-3.78,2.89C100.12,243.65,95.38,242.05,90.71,240.25Z" transform="translate(-14.18 -13.91)"/>
  <path class="cls-56" d="M83.75,244q3.5-1.87,7-3.79c4.67,1.8,9.41,3.4,14.18,4.92a33,33,0,0,1-6.78,3.17C93.21,247.34,88.54,245.46,83.75,244Z" transform="translate(-14.18 -13.91)"/>
  <path class="cls-57" d="M108.67,242.28A72.28,72.28,0,0,1,119,246.07l-2.4,2.39q-2,2-3.92,4c-4.9-1.27-9.76-2.66-14.61-4.09a33,33,0,0,0,6.78-3.17C106.18,244.25,107.42,243.26,108.67,242.28Z" transform="translate(-14.18 -13.91)"/>
  <path class="cls-58" d="M119,246.07c4.17,1.45,8.34,2.88,12.51,4.35q-1.65,1.41-3.32,2.79c-3.91-1.48-7.77-3.05-11.59-4.75Z" transform="translate(-14.18 -13.91)"/>
  <path class="cls-59" d="M112.72,252.43q1.95-2,3.92-4c3.82,1.7,7.68,3.27,11.59,4.75L125,255.82C120.87,254.87,116.76,253.74,112.72,252.43Z" transform="translate(-14.18 -13.91)"/>
  <path class="cls-60" d="M292.4,248.41c8.45-.71,18.36,1.36,23.62,8.57s2.67,17.83-4.39,22.67c-6.05,4.19-13.83,4.55-20.91,3.74-6.6-.71-13.41-3.1-17.83-8.29-4.34-5.56-4.53-14.45.67-19.55C278.25,250.19,285.69,249,292.4,248.41Z" transform="translate(-14.18 -13.91)"/>
  <path class="cls-61" d="M131.55,250.42a72.47,72.47,0,0,1,9.68,3.47q-1.69,2.85-3.41,5.7c-4.29-1.19-8.54-2.51-12.81-3.77l3.22-2.61Q129.9,251.83,131.55,250.42Z" transform="translate(-14.18 -13.91)"/>
  <path class="cls-62" d="M141.23,253.89A96.21,96.21,0,0,1,152.74,258c-.71,1.65-.63,4.37-2.76,4.89-4.16-.64-8.08-2.29-12.16-3.32Q139.53,256.74,141.23,253.89Z" transform="translate(-14.18 -13.91)"/>
  <path class="cls-63" d="M162.19,259c3.91,1.62,7.73,3.42,11.53,5.28,4.49,2.23,9.37,4,13,7.54-8.7.81-16.86-3.22-24.92-5.89,0-.75.08-2.24.1-3C162,261.61,162.08,260.3,162.19,259Z" transform="translate(-14.18 -13.91)"/>
  <path class="cls-64" d="M157.91,271.33l4-8.4c0,.75-.07,2.24-.1,3,8.06,2.67,16.22,6.7,24.92,5.89,1.7,3.43,3.79,6.63,5.73,9.93Q175,277.16,157.91,271.33Z" transform="translate(-14.18 -13.91)"/>
  <path class="cls-65" d="M118.05,264.83a55.22,55.22,0,0,1,11.94,3l-2.15.27c2,7.15,7.21,12.66,11.84,18.21,7.38,8.68,16.67,15.36,25.45,22.5a127,127,0,0,0,14,10c-13.56-4.92-25.71-13.15-36.72-22.35C132.58,287.54,123.07,277.41,118.05,264.83Z" transform="translate(-14.18 -13.91)"/>
  <path class="cls-66" d="M438.33,270.12a31.26,31.26,0,0,1,23.9,4.65A19.85,19.85,0,0,1,470.66,290c.87,10-2.74,19.65-7.39,28.28-5.89,1.71-12,3.59-18.22,2.47a98,98,0,0,1-23.31-6.49c-4.61-2-7.84-5.94-10.51-10,2.83-3.27,6.1-6.64,6.77-11.11.77-3.45.18-7.23,1.69-10.48C424.47,276.81,430.77,271.69,438.33,270.12Z" transform="translate(-14.18 -13.91)"/>
  <path class="cls-67" d="M73.41,301.42c6.86-.31,13.72-.3,20.59-.18,3.24.06,6.69.4,9.4,2.38,4.89,3.66,5,12.12,0,15.75-3.25,2.44-7.11,4.06-9.94,7.06C87,332.94,82.3,341,78.05,349c-2,3.71-3.22,7.85-5.84,11.19-3.52,4.27-10.38,4.51-14.66,1.26A106.68,106.68,0,0,1,28.7,330.3c-2-3.61-4.37-7.9-2.66-12.09,1.82-4.79,6.84-7,11.17-9C48.64,304.36,61.07,302.27,73.41,301.42Zm-7,5.19c-11.66,1.41-23.6,3.89-33.7,10.15-3.27,1.77-3,6.08-1.37,8.9,6.09,11.64,15.46,21.18,25.42,29.59,2.56,2,5.55,4.62,9.06,3.8,2.87-.59,4.13-3.52,5.25-5.89a117.47,117.47,0,0,1,12.24-21.79C86.52,327,90,322.63,94.6,319.61c2.17-1.51,4.62-2.65,6.51-4.53a5.24,5.24,0,0,0,0-7.17c-1.73-2-4.63-2-7.06-2.16A200.27,200.27,0,0,0,66.44,306.61Z" transform="translate(-14.18 -13.91)"/>
  <path class="cls-68" d="M398.33,319.27c1.89-4.72,6.1-7.91,9.77-11.2-3.4,10.88-4.9,22.24-7.19,33.38-1.87-1.17-3.72-2.38-5.58-3.56C396,331.65,396.42,325.29,398.33,319.27Z" transform="translate(-14.18 -13.91)"/>
  <path class="cls-69" d="M68.85,317.12c4.32-1,8.79-.9,13.19-.68-8.35,8.54-14,19.12-19.52,29.56a74.79,74.79,0,0,1-11.3-10.48c7.28-6.11,14.18-12.69,21.87-18.31C71.67,317.16,70.26,317.12,68.85,317.12Z" transform="translate(-14.18 -13.91)"/>
  <path class="cls-70" d="M42.41,323.8c8.09-4.33,17.4-5.86,26.44-6.68,1.41,0,2.82,0,4.24.09-7.69,5.62-14.59,12.2-21.87,18.31A79.79,79.79,0,0,1,42.41,323.8Z" transform="translate(-14.18 -13.91)"/>
  <path class="cls-71" d="M165.11,324.05c1.77.67,3.53,1.38,5.27,2.1-5,5-4.5,12.69-3.66,19.13.79,5.8,7.17,7.68,10.11,12.07,1.44,4.33-1.14,8.6-2.85,12.45-3.94,7.64-5.23,17-2,25.11a149.67,149.67,0,0,0,6.9,15.28c2.12,4,4.87,8.07,4.54,12.81-.52,9.13-8.16,15.95-8.86,25.05-.19,2.45.13,5.48,2.57,6.76a39.84,39.84,0,0,0,22.13,5c-.12,2.68-.3,5.36-.52,8.05-7,1.32-14.64,2-21.2-1.36-6.34-3-11.73-9.19-11.9-16.47.44-10.75,9.54-19.12,9.24-30,.2-5.38-3.36-9.72-5.52-14.34-5.64-11-6.75-24.53-1.73-35.95,1-2.79,2.81-5.55,2.55-8.61-2.26-4.32-6.88-7.07-8.38-11.87C159.07,340.82,161.59,331.81,165.11,324.05Z" transform="translate(-14.18 -13.91)"/>
  <path class="cls-72" d="M217.27,331.35c6.09-2.13,12,1.1,17.74,2.63,3.63,1.08,7.45,1.61,10.91,3.19,2.47,1,3.17,4.33,1.94,6.56-1.8,3.63-4.4,7.26-8.21,8.93-5.28,1.55-10.7-1.26-14.41-4.89C220.88,343.41,216.81,337.84,217.27,331.35Z" transform="translate(-14.18 -13.91)"/>
  <path class="cls-73" d="M395.33,337.89c1.86,1.18,3.71,2.39,5.58,3.56.54.34,1.09.67,1.65,1-2.84,8.32-1.64,17.21-1.12,25.78l-.69-.33c-1.73-.91-3.39-1.93-5.08-2.9C394,356.05,394.37,346.89,395.33,337.89Z" transform="translate(-14.18 -13.91)"/>
  <path class="cls-74" d="M401.44,368.23c-.52-8.57-1.72-17.46,1.12-25.78a75.51,75.51,0,0,0,12.12,5.84c11.3,4.15,23.69,7.37,35.67,4.13-1,6.25-1.51,12.59-2.93,18.78-5.14,2.42-10.67,4.48-16.45,3.95A110.06,110.06,0,0,1,401.44,368.23Z" transform="translate(-14.18 -13.91)"/>
  <path class="cls-75" d="M103.44,344.45c2.86-1,6.51.72,7.08,3.81.38,2.93-.09,5.88-.22,8.82-.66,11.45-.75,23.16,2.31,34.31a16,16,0,0,1,.7,5.57c-.68,2.93-4.12,5.29-7,3.91-6.32-2.8-12-6.85-18.16-9.94-2.66-1.52-6.4-3.23-6.15-6.88.46-5.14,2.46-10,4.38-14.72A85.63,85.63,0,0,1,99.56,347.5,9.48,9.48,0,0,1,103.44,344.45Zm-9.55,37.34a25.33,25.33,0,0,0,5.9,3.37,114,114,0,0,0-1-17.22C96.62,372.27,93.55,376.72,93.89,381.79Z" transform="translate(-14.18 -13.91)"/>
  <path class="cls-76" d="M395.67,365c1.69,1,3.35,2,5.08,2.9a73.54,73.54,0,0,0,.2,9C397.1,374.14,395.8,369.55,395.67,365Z" transform="translate(-14.18 -13.91)"/>
  <path class="cls-77" d="M93.89,381.79c-.34-5.07,2.73-9.52,4.93-13.85a114,114,0,0,1,1,17.22A25.33,25.33,0,0,1,93.89,381.79Z" transform="translate(-14.18 -13.91)"/>
  <path class="cls-78" d="M400.75,367.9l.69.33A110.06,110.06,0,0,0,431,375.15c5.78.53,11.31-1.53,16.45-3.95-.81,6.13-1.08,12.32-2,18.44-4.94,2.93-9.92,6.14-15.67,7.17-6.14,1.08-12.47.15-18.57,1.52-1.07-8.07-5.55-15-10.24-21.4A73.54,73.54,0,0,1,400.75,367.9Z" transform="translate(-14.18 -13.91)"/>
  <path class="cls-79" d="M356.17,374.75c4.69-2.1,9.34-6,14.8-4.77a39.41,39.41,0,0,1,23.35,14.68c8.19,11,10.31,25.3,8.78,38.64-4.27-8.82-9.52-18.27-18.81-22.58-7.32-3.77-16.23-4-22.82-9.21C356.43,387.51,356.61,380.56,356.17,374.75Z" transform="translate(-14.18 -13.91)"/>
  <path class="cls-80" d="M429.76,396.81c5.75-1,10.73-4.24,15.67-7.17-.65,7.75-1,15.6-3,23.15-4.08.81-8.11,1.88-12.23,2.41a86.63,86.63,0,0,1-11.84,0c-1.73-3.71-3.54-7.38-5.22-11.11a55.79,55.79,0,0,1-1.94-5.72C417.29,397,423.62,397.89,429.76,396.81Z" transform="translate(-14.18 -13.91)"/>
  <path class="cls-81" d="M273,452c1.2-16.55,6.08-32.57,7.56-49.1a30.81,30.81,0,0,0,6.05,17.23c.44-2.81.82-5.61,1.34-8.4a41.68,41.68,0,0,0,.74,11.69c1.08,4,3.32,7.57,5.23,11.23A84.35,84.35,0,0,0,273,452Z" transform="translate(-14.18 -13.91)"/>
  <path class="cls-82" d="M413.13,404.05c1.68,3.73,3.49,7.4,5.22,11.11a86.63,86.63,0,0,0,11.84,0,87.61,87.61,0,0,1-11.9.73l-4.25,0Q413.34,410,413.13,404.05Z" transform="translate(-14.18 -13.91)"/>
  <path class="cls-83" d="M299,423c-1.94-4.59-2-10.22,1.13-14.32.2,3.91.43,8.13,2.66,11.49,3,3.81,8,5.23,11.26,8.79,1.92,2.1.81,5.37-.71,7.37-2.43,2.6-6.06,3.43-9.23,4.74,1.4-2.2,3.83-4.79,2.32-7.55C304.38,429.77,300.71,427.06,299,423Z" transform="translate(-14.18 -13.91)"/>
  <path class="cls-84" d="M430.19,415.2c4.12-.53,8.15-1.6,12.23-2.41A69.17,69.17,0,0,1,436,435.06a30.46,30.46,0,0,1-16,6.06l-.84,0a114.47,114.47,0,0,0-.83-25.16A87.61,87.61,0,0,0,430.19,415.2Z" transform="translate(-14.18 -13.91)"/>
  <path class="cls-85" d="M207.89,415.05c4.15,4.86,9,9.1,13.08,14,2,2.4,3.78,5.52,3,8.78-1.4,6.17-5.58,11.4-6.39,17.76-1,5.47,1,11.86,6,14.73,4.46,2.21,9.57,2.41,14.45,2.82,6.07.3,12.13.84,18.2,1.18-7.4,4-16,4.42-24.21,5-6.3.13-13.22.06-18.57-3.73-5-3.74-5.1-10.76-3.91-16.31,1.38-8.13,8.19-14.66,7.54-23.24C216.82,428,210.47,422.26,207.89,415.05Z" transform="translate(-14.18 -13.91)"/>
  <path class="cls-86" d="M414,415.9l4.25,0a114.47,114.47,0,0,1,.83,25.16c-2.34-.22-4.67-.57-7-.89C413.66,432.19,413.81,424,414,415.9Z" transform="translate(-14.18 -13.91)"/>
  <path class="cls-87" d="M420,441.12a30.46,30.46,0,0,0,16-6.06A38.23,38.23,0,0,1,419.29,454,26.4,26.4,0,0,1,420,441.12Z" transform="translate(-14.18 -13.91)"/>
  <g>
    <path class="cls-88" d="M412.12,440.2c2.33.32,4.66.67,7,.89l.84,0a26.4,26.4,0,0,0-.67,12.88,47.68,47.68,0,0,1-12.12,2.37C409,451,410.71,445.66,412.12,440.2Z" transform="translate(-14.18 -13.91)"/>
    <path class="cls-88" d="M278.62,462.64c2.62-6.49,8.35-11.15,14.09-14.83-2.09,4.58-3.93,9.85-2.53,14.9,2.2,4.57,7.85,5.67,12.38,6.57A339.8,339.8,0,0,0,338,472.19c13,.36,26,1.25,39,1-10.14,5.29-21.82,6.37-33.08,6.21-11.67-.18-23.34-.09-35,.11-8.54.05-17.9-.09-25-5.44C280.43,471.53,276.84,467.28,278.62,462.64Z" transform="translate(-14.18 -13.91)"/>
  </g>
</svg>
