<svg id="Layer_1" data-name="Layer 1" xmlns="http://www.w3.org/2000/svg" viewBox="0 0 478.31 497.95">
  <defs>
    <style>
      .cls-1 {
        fill: #fafcfd;
      }

      .cls-2 {
        fill: #0a1f2d;
      }

      .cls-3 {
        fill: #feee99;
      }

      .cls-4 {
        fill: #fbfcfd;
      }

      .cls-5 {
        fill: #e04f2e;
      }

      .cls-6 {
        fill: #f7efed;
      }

      .cls-7 {
        fill: #fcc2bd;
      }

      .cls-8 {
        fill: #ed4a22;
      }

      .cls-9 {
        fill: #fcc2be;
      }

      .cls-10 {
        fill: #0e1e2c;
      }

      .cls-11 {
        fill: #0d1f2e;
      }

      .cls-12 {
        fill: #ba4026;
      }

      .cls-13 {
        fill: #091e2c;
      }

      .cls-14 {
        fill: #0a1e2d;
      }

      .cls-15 {
        fill: #fbc2bd;
      }

      .cls-16 {
        fill: #fac2bc;
      }

      .cls-17 {
        fill: #c0bcbe;
      }

      .cls-18 {
        fill: #c1bec1;
      }

      .cls-19 {
        fill: #c6cace;
      }

      .cls-20 {
        fill: #fff;
      }

      .cls-21 {
        fill: #c1bfbf;
      }

      .cls-22 {
        fill: #c1bebe;
      }

      .cls-23 {
        fill: #c7cad1;
      }

      .cls-24 {
        fill: #c2bcbb;
      }

      .cls-25 {
        fill: #c0bebe;
      }

      .cls-26 {
        fill: #f9edef;
      }

      .cls-27 {
        fill: #b93f26;
      }

      .cls-28 {
        fill: #c5cbcf;
      }

      .cls-29 {
        fill: #e84a24;
      }

      .cls-30 {
        fill: #c0bdbe;
      }

      .cls-31 {
        fill: #c7cacc;
      }

      .cls-32 {
        fill: #c0bdc1;
      }

      .cls-33 {
        fill: #c6e1fe;
      }

      .cls-34 {
        fill: #fbfeff;
      }

      .cls-35 {
        fill: #c6cad2;
      }

      .cls-36 {
        fill: #9ab2ce;
      }

      .cls-37 {
        fill: #c2bec1;
      }

      .cls-38 {
        fill: #c8cad1;
      }

      .cls-39 {
        fill: #f5eced;
      }

      .cls-40 {
        fill: #c2432a;
      }

      .cls-41 {
        fill: #fbfcff;
      }

      .cls-42 {
        fill: #fcfefe;
      }

      .cls-43 {
        fill: #eb4a23;
      }

      .cls-44 {
        fill: #9ab3cf;
      }

      .cls-45 {
        fill: #f6ecea;
      }

      .cls-46 {
        fill: #c1bdbd;
      }

      .cls-47 {
        fill: #fafdfe;
      }

      .cls-48 {
        fill: #9ab3ce;
      }
    </style>
  </defs>
  <path class="cls-1" d="M238.48,14.28c8.64-3.94,17.93-6.75,27.48-7a102.09,102.09,0,0,1,17-.49c6.55.68,13.23.4,19.63,2.23A69.28,69.28,0,0,1,338,28a63.29,63.29,0,0,1,20,43.82,81.27,81.27,0,0,0,14.35-6.58c5.63-3.34,12-6.59,18.8-5.45,6.81.83,11.95,6.27,15.41,11.8C412,84,410.85,98,408.7,111c-1,4.45,1.17,8.64,2.45,12.78a266.3,266.3,0,0,1,12.81,61,35.9,35.9,0,0,0,2.63,10.51,111.49,111.49,0,0,1,8.28,31.58,57.79,57.79,0,0,1-.7,21.65c8.63-.87,17.38-1.19,25.79-3.5,3.9-1.09,8-2,12.06-.93,7.6,1.75,15.31,5.62,19.36,12.57,3.3,5.27,3.71,11.81,2.87,17.83-2.82,10.71-10.49,19.19-18.51,26.45,2,6.5,3.23,14-.57,20.13-3.2,6.7-10.06,10.28-16.64,12.9.29,5.15.07,10.54-2.48,15.16-3.83,6.29-10.24,10.44-17.06,12.9a71.11,71.11,0,0,1,21,19.05c7.75,12.86,13.29,27.68,12.09,42.93-.31,14-7.43,27.09-17.12,36.92-6,5.47-12.8,10.43-20.65,12.89-4.36,1.43-9.64.82-13,4.49-20.49,18.87-49,26.12-76.28,26.26-7.79-.19-15.62.41-23.37-.47-24.59-1.93-49.05-7.53-71.63-17.6a121.09,121.09,0,0,1-26,11.17,124.91,124.91,0,0,1-46,3,118.49,118.49,0,0,1-61.81-22.86c-2.87-2.17-5.34-4.9-8.49-6.65-6.46-1.35-13.2-1.46-19.52-3.56C78.72,464.56,69,460.26,63,452a35.17,35.17,0,0,1-5.71-29.87c1-5.32,4.22-9.74,7.32-14-5.07-9.93-8.91-21.38-5.92-32.56,2.8-12,12.29-20.95,22.38-27.29-3.28-3.91-6.44-8.29-5.81-13.69-8.12-2.45-16.93-5.5-21.85-12.9-4.58-6.26-4.9-14.61-2.93-21.88-5.5-3-11.59-4.81-16.68-8.52-8.06-5.61-14.85-13.78-17.11-23.5a88.35,88.35,0,0,1-.06-15.43c.43-4.8,3.27-8.83,6.19-12.48A26.65,26.65,0,0,1,43,229.43c9,.07,16.63,5.55,24.78,8.67,12.12,4.62,25.19,6.16,38.09,6.4,2.13-10.94,3.68-22,6-32.87a584.38,584.38,0,0,1,16-59.78c1.54-5.31,3.85-10.36,5.31-15.69,1.06-3.37-.25-6.81-1-10.1a173.56,173.56,0,0,1-5.06-29.42c-.84-6.34.08-12.74,1.26-19,1.55-9.35,8.09-18.24,17.31-21.18A27.06,27.06,0,0,1,160,55.19a80.8,80.8,0,0,1,25.18,8.56c2.29,1.18,4.64,2.25,7,3.25,4.32-14,13-26.22,23-36.84C222.26,24,229.61,17.72,238.48,14.28Zm25.74-2.07c-18.8,2.32-37,11.14-49.49,25.52-9.19,10.21-15.36,22.7-19.54,35.7-10.53-4.27-20.25-10.71-31.57-12.89-7.94-2-17.4-1.5-23.54,4.52-6.94,6.64-8.27,16.82-8.49,25.94.3,13.19,2.85,26.26,6.51,38.9,2,5.82-1.94,11.27-3.55,16.68A524.46,524.46,0,0,0,110.41,249c-18.28.66-37.12-2.27-53.49-10.78-4.35-2.12-9-4.14-13.93-3.94-6.45-.2-12.53,3.35-16.43,8.33S20.93,253.8,20.9,260c0,10.58,6,20.58,14.51,26.62,6.3,4.71,14,6.89,21,10.1-2.58,7.21-3.93,16.23,1.14,22.7,5.22,7,14,9.62,22.15,11,.42,3.83.24,8,2.39,11.4,2.19,2.94,5.16,5.14,7.94,7.48-7,3.05-13.85,6.95-19,12.73A32.06,32.06,0,0,0,62.43,386c.21,8.26,4.31,15.61,7.59,23-3.63,4.4-7.33,9.1-8.35,14.88a29.83,29.83,0,0,0,10,30.5c7.24,5.78,16.3,8.77,25.29,10.49,4.42.92,9.1.45,13.38,2,3,1.93,5.31,4.64,8.13,6.76,15.69,12.08,34.93,18.7,54.37,21.54,20.64,3,42.31,1.58,61.68-6.56,4.65-1.82,9-4.39,13.4-6.63,1.51-1,3.26-.17,4.77.38a225.93,225.93,0,0,0,61,16c21.48,2.42,43.56,2.34,64.6-3.09,15.38-4,30.42-10.91,41.81-22.23,3.15-3.63,8.44-2.08,12.53-3.63,14.82-4.93,26.82-17.27,32-31.94,5.19-14.15,3.08-30.15-3.27-43.57-5.37-12.94-15.55-24.28-28.82-29.3-4.76-1.95-10.06-1.86-14.83-3.78,5.78-.86,11.71-.95,17.34-2.64,6.57-1.86,13.47-5,17-11.19,2.87-4.81,1.85-10.7.65-15.85,6.77-2.28,14.31-4.88,18-11.5,4.06-6.37,1.69-14.23-1.11-20.59,6.11-4.31,11.79-9.44,15.76-15.84,3.63-5.57,5.53-12.63,3.75-19.17-2.39-8.47-10.47-14.64-19.1-15.57-5.74-.59-11.11,2-16.71,2.76a223.87,223.87,0,0,1-26.36,2.25c1.54-5.38,3.9-10.7,3.75-16.4-.24-14.27-3.89-28.27-9.29-41.42-2.43-5.45-2.11-11.55-2.9-17.35a285.15,285.15,0,0,0-13.7-58.86c-2.36-5.67,0-11.65.42-17.45.71-8.69,1.06-17.78-2-26.09C400.74,70,395.65,64.38,389,64.26c-7-.46-12.57,4.23-18.33,7.35s-11.41,6.32-17.57,8.48c0-8.41.09-17-3.15-25-5.72-17.24-19.86-30.9-36.6-37.5A102.41,102.41,0,0,0,264.22,12.21Z" transform="translate(-16.31 -6.64)"/>
  <g>
    <path class="cls-2" d="M264.22,12.21a102.41,102.41,0,0,1,49.1,5.41c16.74,6.6,30.88,20.26,36.6,37.5,3.24,7.93,3.13,16.56,3.15,25,6.16-2.16,11.8-5.48,17.57-8.48S382,63.8,389,64.26c6.68.12,11.77,5.77,14.11,11.58,3.06,8.31,2.71,17.4,2,26.09-.44,5.8-2.78,11.78-.42,17.45a285.15,285.15,0,0,1,13.7,58.86c.79,5.8.47,11.9,2.9,17.35,5.4,13.15,9.05,27.15,9.29,41.42.15,5.7-2.21,11-3.75,16.4a223.87,223.87,0,0,0,26.36-2.25c5.6-.74,11-3.35,16.71-2.76,8.63.93,16.71,7.1,19.1,15.57,1.78,6.54-.12,13.6-3.75,19.17-4,6.4-9.65,11.53-15.76,15.84,2.8,6.36,5.17,14.22,1.11,20.59-3.72,6.62-11.26,9.22-18,11.5,1.2,5.15,2.22,11-.65,15.85-3.49,6.21-10.39,9.33-17,11.19-5.63,1.69-11.56,1.78-17.34,2.64,4.77,1.92,10.07,1.83,14.83,3.78,13.27,5,23.45,16.36,28.82,29.3,6.35,13.42,8.46,29.42,3.27,43.57-5.15,14.67-17.15,27-32,31.94-4.09,1.55-9.38,0-12.53,3.63-11.39,11.32-26.43,18.23-41.81,22.23-21,5.43-43.12,5.51-64.6,3.09a225.93,225.93,0,0,1-61-16c-1.51-.55-3.26-1.42-4.77-.38-4.45,2.24-8.75,4.81-13.4,6.63-19.37,8.14-41,9.54-61.68,6.56-19.44-2.84-38.68-9.46-54.37-21.54-2.82-2.12-5.16-4.83-8.13-6.76-4.28-1.51-9-1-13.38-2-9-1.72-18-4.71-25.29-10.49a29.83,29.83,0,0,1-10-30.5c1-5.78,4.72-10.48,8.35-14.88-3.28-7.36-7.38-14.71-7.59-23a32.06,32.06,0,0,1,8.64-23.95c5.14-5.78,12-9.68,19-12.73-2.78-2.34-5.75-4.54-7.94-7.48-2.15-3.38-2-7.57-2.39-11.4-8.2-1.42-16.93-4.07-22.15-11-5.07-6.47-3.72-15.49-1.14-22.7-7.08-3.21-14.73-5.39-21-10.1-8.49-6-14.53-16-14.51-26.62,0-6.19,1.71-12.57,5.66-17.43s10-8.53,16.43-8.33c4.95-.2,9.58,1.82,13.93,3.94,16.37,8.51,35.21,11.44,53.49,10.78a524.46,524.46,0,0,1,24.14-102.37c1.61-5.41,5.52-10.86,3.55-16.68-3.66-12.64-6.21-25.71-6.51-38.9.22-9.12,1.55-19.3,8.49-25.94,6.14-6,15.6-6.49,23.54-4.52,11.32,2.18,21,8.62,31.57,12.89,4.18-13,10.35-25.49,19.54-35.7C227.24,23.35,245.42,14.53,264.22,12.21Zm-7.84,12.14A66,66,0,0,0,232,36C219.59,45.44,210.93,59.22,206.18,74c6.34-1.91,12.55-4.22,18.94-6,2.9-.46,4-3.38,5.28-5.63a54,54,0,0,1,18.4-20.53c13.31-8.52,30.21-10.08,45.33-6.19a40.86,40.86,0,0,1,25.74,18.52c2.54,4,3.77,8.51,5.36,12.88.38,1.74,2.16,2.4,3.61,3,4.43,1.8,9,3.22,13.59,4.58.74-11.83-4.26-23.38-11.78-32.3-10.78-12.61-27.44-18.89-43.67-20C276.76,22,266.33,21.62,256.38,24.35ZM241.86,63.53c23.59-4.35,47.93-3.52,71.37,1.37a28.92,28.92,0,0,0-17.38-17.75c-7.5-3.08-15.77-3.14-23.74-2.58A40.39,40.39,0,0,0,241.86,63.53Zm-82.72,6.54c4.2,4.76,8.92,9.24,14.73,12,3.64,2.93,8,4.85,12.09,7,4.68,2.43,10.09,2.43,15,4.15,2.59.83,3.29,3.87,2.53,6.22-1.92,3.08-6.07,2.33-9.14,3-5.2-1.53-10.55-2.81-15.25-5.62-7-4.16-14.48-7.83-20.48-13.46-3-2.59-5.74-5.78-9.69-6.77-3.82-.63-6.13,3.31-6.28,6.62a87.94,87.94,0,0,0,1,23.7c1.5,8.42,3.09,16.88,6,24.94a68.25,68.25,0,0,1-.82,7.94c-3.54,6.36-5.31,13.47-7.67,20.31-5.41,16.3-9.54,33-13.3,49.75-2.17,10.75-4.48,21.49-5.74,32.4-.62,3.58-1.92,7.78.61,11a112,112,0,0,0,11.72,13.29c9.88,9.09,20.63,17.46,32.6,23.62.48-1.08,1-2.14,1.37-3.24-1.07-2.52-3-4.54-4.27-7-1.15-1.82-1.85-4-3.47-5.48.08-5-.61-10.14,1-15,1.79-5.51,6.64-10.22,12.51-10.95,3.36-.4,6.74-.47,10.1-.79a23.36,23.36,0,0,1,22.65-15c4.9.37,8.81,3.67,11.92,7.21l-.09.83c4-1.48,7.83-3.63,12.16-3.64,9.15-.54,18.83,4.83,22.16,13.57,1.15,4.38.37,9-.11,13.4,2.94,3,6.22,5.86,7.91,9.78a24.52,24.52,0,0,1-.57,18.42c-2.12,5.35-6.76,9.14-11.71,11.8-3.46,2.32-3.08,6.77-3.41,10.43,4.6,1.22,9.17,2.75,14,3.1,3.36.26,6.58-.9,9.81-1.62,4-1,8.11-1.41,12.18-2,12.34-1.36,24.65.7,36.74,2.94,2.51,1.14,5.07,2.76,7.93,2.51a16.54,16.54,0,0,0,10.75-6.74c-.1-2.41-.06-4.82,0-7.22-4.2-2.31-8.56-4.74-11.41-8.71-4.26-5.76-6.25-13.56-4-20.48,1.47-4.6,5.58-7.35,8.83-10.59.91-5.1-.56-10.69,2.22-15.41,2.48-5.73,7.9-9.23,13.38-11.71A34.87,34.87,0,0,1,363,241.93c3.6-2.73,7.29-6,12-6.39,4.65-.62,9.17.94,13.58,2.18,1.23,2.8,3.88,4.75,5,7.63s1.26,5.92,1.73,8.9c5.88.76,10.61,4.39,14.37,8.75,4-7,8.08-14.2,9.89-22.1a73.1,73.1,0,0,0-4.63-31.72,76.1,76.1,0,0,0-4.66-12.39c-2.18-4.64-1.71-9.86-2.12-14.82-.53-9.9-3.3-19.47-4.94-29.2-2.46-10.77-5.23-21.55-9.31-31.82-.86-3.22-1.46-6.58-.75-9.89A93.26,93.26,0,0,0,394,81.85c-6.19,2.16-8.93,8.47-13.54,12.59-5.22,4.7-11.42,8.69-18.46,9.83-3.35.6-6.59-.78-9.78-1.56.51-2.32-.06-5.81,2.7-6.86,4.18-1.58,9-1.5,12.75-4.15,4.62-3.13,9.41-6.66,11.61-12C371.1,82.26,364.29,88,355.9,90c-2.87.71-5.7-.54-8.29-1.61C342.19,86,337,83,331.34,81.26c-17.17-5.85-35.13-9.91-53.35-9.82-16.62-.37-33.46,1.1-49.36,6.2-8.75.69-16.35,5.93-24.77,7.92-9.87.93-18.16-5.72-27-9A68,68,0,0,0,159.14,70.07Zm36.5,177.47c-1.85,3.79-2.08,8.46-5.47,11.38-2-.08-4-.36-6.07-.45-3.72-.64-8.13-1.26-11.24,1.39-2.87,3.18-2.62,8-1.71,11.93.87,4.21,4.53,6.77,7.33,9.68,1.71,1.6,1.32,4.18,1.72,6.29-1,2-2.43,3.9-3.16,6.08-4,4.66-5.82,10.62-7.91,16.26-5.88,16.14-6.47,34.28-.85,50.58,5.29-.07,10.59-.07,15.89.17,10.47,1.66,20.23,5.9,29.44,11,2.7-8.25,5.51-16.6,10.32-23.92,2.5-4.11,6.24-7.64,7.25-12.52,2.06-9.47,3.68-19,4.79-28.67.51-2.74.59-5.95,2.79-8,3.12-2.66,7.23-4,10.06-7,4.09-4.18,5.05-11.43,1.57-16.25-2.27-2.17-5.71-2.21-8.39-3.67a5.35,5.35,0,0,1-1.12-5.75c1.29-4.28,4.2-8.8,2.25-13.34-2.45-4.07-7.55-5.93-12.11-5.91-5.23.26-7.49,6-12.07,7.6-4.73.74-6.09-4.62-7.76-7.86-1.41-1.6-2.7-4-5.17-3.88C202.21,243,198,244.3,195.64,247.54ZM40.36,245.29c-5.79,1.73-8.91,8-8.9,13.7-.39,8.73,5.49,16.56,12.83,20.74A77,77,0,0,0,86,289.34c4.22,1.61,3.62,8.69-.77,9.75-5.72.49-11.43-.65-17.14-.26-4.69,4.12-5,13.68,1,17,9.65,5.82,21.35,4.51,32.12,4.93a4.92,4.92,0,0,1,2.86,7.29c-2.22,3-6.49,2.35-9.69,3.26-2.4-2.48-4.88,1.83-3.69,4,1.74,3.37,5.64,5.11,9.26,5.51,1.67-1,2.69-2.75,3.87-4.24,6.57-7.27,16-10.9,25.54-12.22,0-9.58,1.84-19.27,6.23-27.84,2-3.59,4.39-6.91,6.58-10.37-6.74-5.68-13.72-11.14-19.61-17.74-2.66-2.78-4.72-6.13-7.72-8.55-6.18-.83-12.46,0-18.67-.54-15.32-1.28-30.8-4.61-44.34-12.11C48.21,245.84,44.27,243.89,40.36,245.29Zm331.58,2.6c-2.39,2.55-4.39,7.06-8.69,5.66-4.85-1.94-9.21-5.37-14.71-5.33-3,1.9-6.62,3.68-7.78,7.32-1.62,5.31,1.47,10.6.76,15.94-3,2.86-7.62,3.44-10.27,6.7-2,4.06-.94,9.23,1.92,12.64,3.45,4.26,9,5.68,13.4,8.65.1,7.52-.39,15-.89,22.52.08,3.95-.66,8.79,2.6,11.75,4.1,3.9,7.93,8.08,11.79,12.22,1.36,3.13,3.44,5.88,5.13,8.84a84.34,84.34,0,0,1,7.66,18.13c3.14-1.08,6.18-2.4,9.2-3.78,7.88-3.54,16.38-5.42,24.9-6.67,1.07-8.56.22-17.19-.57-25.74-1.57-14.41-4.79-29.08-12.75-41.42-1.62-2.52-3.26-5.64-2-8.65,1.82-2.21,4.38-3.61,6.41-5.6,3.7-3.25,3.16-9,2-13.28-3-6-11.93-1.28-15.49-6.44-.91-3.92.51-8-.18-11.91C382.75,244.41,375,243.83,371.94,247.89Zm92.52,11.66c-14.35,4-29.35,3.66-44.07,5-2.88,4.91-6.34,9.45-9.45,14.21-2.15,4.39-4.43,8.78-7.87,12.33,3.18,6.34,6.4,12.71,8.37,19.56,3.46,10.79,4.68,22.1,5.65,33.34.1,1.92.18,3.85.26,5.78,7.8-.19,16.56-.39,22.8-5.75,4.61-2.22,2.94-7.92,1.5-11.66-4.54-.26-9.54,1-13.7-1.3-2.51-2.87-.93-7,1.93-8.88,9.59.51,19.92,0,28.42-4.88,3.84-2,4.61-6.62,3.37-10.47-.93-1.28-1.84-2.56-2.75-3.83-6.18,1.12-12.34,3.18-18.69,2.55a4.59,4.59,0,0,1-3.81-5.35,12.64,12.64,0,0,1,2.82-4.73,35,35,0,0,0,12.05-1c8.39-2.06,16.8-5.88,22-13.05,2.94-3.07,5.37-7,5.52-11.41C479.88,262.6,471,257.2,464.46,259.55Zm-319,38.84A45.93,45.93,0,0,0,139.67,324c3.65,1.44,7.3,2.91,11.06,4.07a35.13,35.13,0,0,0,3.85,3c1.11-6.93,1.94-13.93,3.94-20.68a106.26,106.26,0,0,0,3.53-11.16c-2.46-1.64-5-3.23-7.44-4.83l-3.7-2C149,294.34,147.19,296.35,145.42,298.39Zm130,26.3c-6.34,1.14-13,2.53-18.29,6.35a33,33,0,0,0-6.18,2.86c-14.2,9.46-23.83,24.83-27.65,41.33-.69,2.55-1.06,5.29-2.48,7.57-1.59,1.46-3.85,1.82-5.81,2.56-12.18-9.45-27.79-17-43.56-14.21-4.42-.36-8.9,1.41-12.61,3.72-11.43,5.4-18.3,17.82-19.09,30.14-.29,2.24-.11,4.63-1.05,6.74-1.33,2.26-4.33,2-6.57,2.54-11.36-6.17-24.81-5.14-37.29-4.71l-.87.24c-4.6,1.21-9.27,2.4-13.44,4.75-10.67,5.65-12.18,22.34-3.46,30.37,6.06,5.77,14.44,8.17,22.48,9.57,4.59.86,9.31.53,13.9,1.35,3.5,1.43,5.83,4.64,8.71,7a90.47,90.47,0,0,0,36.47,18.54c14.94,4.39,30.68,5.19,46.14,4,14-1.64,27.87-6,39.64-13.95,4.84-3.7,10.2.46,14.91,2.2A214.45,214.45,0,0,0,344,489.2c19.3-.73,39.3-3.89,55.95-14.26,7.14-3.41,12.75-9.26,17.84-15.18,1.73,0,3.47.09,5.21.11,8.61.45,16.31-4.82,21.94-10.87,4.87-5,9.58-11.33,10.23-18.44,2.19-5.49,1.71-11.54,1.19-17.29a57.57,57.57,0,0,0-14-29.64c-6.3-6.61-15.1-11.11-24.32-11.35-7.59-.26-15.45-.15-22.52,3-9.25,1-16.82,7.15-25.38,10.26a19,19,0,0,0-4.89-2.11,75.59,75.59,0,0,0-20.4-39.27,69.94,69.94,0,0,0-42.68-19.65C293.36,322.82,284.25,323.44,275.41,324.69Zm-163.63,18.1c-5.83,6.12-7.71,14.71-9.19,22.76-.42,2.94-1.34,6-.69,8.94-3.35,2.88-6.87,5.69-11.09,7.18-1.38-.32-2.76-.59-4.15-.82-1.44-1.89-3.87-3.92-2.78-6.57a31.87,31.87,0,0,1,4.21-4l2.65,1a49.66,49.66,0,0,0,2.63-11.54,57.31,57.31,0,0,0-11.9,6.86c-3,3.05-6.09,6.38-7.27,10.64-1.56,6.22-.71,12.81,1.39,18.81a43.57,43.57,0,0,0,3.56,7.77,110.44,110.44,0,0,1,17-4.34c5.29.12,10.58,0,15.88,0,6-.09,12,1.34,18,1.78.3-1.59.59-3.18.88-4.77,2.31-6.77,4.71-13.73,9.41-19.28,4.6-6,11.1-10,17.78-13.32-.79-5-1.68-9.93-2.92-14.81a19.9,19.9,0,0,0-14.9-14.25C130.26,333.33,119,335.3,111.78,342.79Z" transform="translate(-16.31 -6.64)"/>
    <path class="cls-2" d="M351.55,178.71c7.48-1.84,14.95,1.9,21.36,5.42,3.2,2.1,8.08,4.87,6.72,9.46-.66,3-4.32,3.93-6.73,2.41-5.44-3.24-10.85-7.86-17.55-7.62-5.69,3.29-8.44,9.63-12.3,14.66-2,2.94-7.94,2.41-8.53-1.48-.58-3.54,2-6.5,3.74-9.31C342,187.18,345.88,181.72,351.55,178.71Z" transform="translate(-16.31 -6.64)"/>
  </g>
  <path class="cls-3" d="M256.38,24.35c9.95-2.73,20.38-2.33,30.6-2,16.23,1.1,32.89,7.38,43.67,20,7.52,8.92,12.52,20.47,11.78,32.3-4.59-1.36-9.16-2.78-13.59-4.58-1.45-.63-3.23-1.29-3.61-3-1.59-4.37-2.82-8.93-5.36-12.88a40.86,40.86,0,0,0-25.74-18.52c-15.12-3.89-32-2.33-45.33,6.19a54,54,0,0,0-18.4,20.53c-1.27,2.25-2.38,5.17-5.28,5.63-6.39,1.74-12.6,4.05-18.94,6C210.93,59.22,219.59,45.44,232,36A66,66,0,0,1,256.38,24.35Z" transform="translate(-16.31 -6.64)"/>
  <path class="cls-4" d="M241.86,63.53a40.39,40.39,0,0,1,30.25-19c8-.56,16.24-.5,23.74,2.58A28.92,28.92,0,0,1,313.23,64.9C289.79,60,265.45,59.18,241.86,63.53Zm13.83-7.1c8.12.72,16.21-1.35,24.32-.28,8.15.29,16.24,1.23,24.31,2.33-6.7-7.13-16.82-9.7-26.33-9.31C270.19,49.3,261.35,50.59,255.69,56.43Z" transform="translate(-16.31 -6.64)"/>
  <path class="cls-5" d="M159.14,70.07a68,68,0,0,1,17.74,6.46L172.15,79c.56,1,1.12,2,1.72,3C168.06,79.31,163.34,74.83,159.14,70.07Z" transform="translate(-16.31 -6.64)"/>
  <g>
    <path class="cls-6" d="M228.63,77.64c15.9-5.1,32.74-6.57,49.36-6.2,18.22-.09,36.18,4,53.35,9.82-7.34,5.11-15.73,10.4-18.79,19.3-2.41,8.74.53,18.62,6.87,25,8.51,9.5,19.75,15.79,30.24,22.77,13.71,9.23,28.91,16.5,40.85,28.14,5.48,5.19,6.46,13.15,11,19,3.83,5.16,9,9.09,13.38,13.72a73.1,73.1,0,0,1,4.63,31.72c-1.81,7.9-5.87,15.12-9.89,22.1-3.76-4.36-8.49-8-14.37-8.75-.47-3-.66-6.05-1.73-8.9s-3.77-4.83-5-7.63c-.1-4.7.13-10.08-3.75-13.49-8.56-8.2-22.95-6.12-31.58,1-4.45,3.1-6.19,8.43-7.54,13.42-5.48,2.48-10.9,6-13.38,11.71-2.78,4.72-1.31,10.31-2.22,15.41-3.25,3.24-7.36,6-8.83,10.59-2.26,6.92-.27,14.72,4,20.48,2.85,4,7.21,6.4,11.41,8.71-.1,2.4-.14,4.81,0,7.22-6,2.07-12.23,4-18.68,4.23-12.09-2.24-24.4-4.3-36.74-2.94-8.63.5-16.67-3.06-24.83-5.25a14.83,14.83,0,0,1-7.7-4.65c5-2.66,9.59-6.45,11.71-11.8a24.52,24.52,0,0,0,.57-18.42c-1.69-3.92-5-6.8-7.91-9.78.48-4.42,1.26-9,.11-13.4-3.33-8.74-13-14.11-22.16-13.57-4.33,0-8.2,2.16-12.16,3.64l.09-.83c.35-4.35,1.12-8.78.26-13.11-1.44-5.36-4.79-10.8-10.32-12.63-8.4-2.91-18.13-3.81-26.34.18-4.78,2.24-9.59,5.77-10.93,11.16-1.19,4.76-1,10.55,2.58,14.28,3,3.13,6.72,5.4,10.18,8-3.36.32-6.74.39-10.1.79-5.87.73-10.72,5.44-12.51,10.95-1.64,4.81-1,10-1,15-9.19-6.35-17-14.4-25.1-22.06-4.28-3.75-3-9.75-2-14.62,13-9.1,20.17-23.94,25.88-38.28,3.58-8.38,5.14-17.79,10.89-25.11,9.54-12.69,24.1-20,37.92-27.11,13-6.6,26.92-12.17,37.77-22.22,6.38-5.81,9.44-14.62,9.34-23.12-.08-6.32-4.48-11.53-9.39-15C240.66,83.13,234.64,80.31,228.63,77.64ZM197.7,176.75c-4.65,2.17-9.56,4.09-13.6,7.32-2.11,2-.89,4.94-.51,7.34,2,.27,4.11,1.33,6.06.31,7.17-3.06,13.9-8.54,22-8.34,6.85,3,11.72,9.09,15.87,15.12,1.71,3.24,7.24,3.18,8.81-.15,1.09-3.5-1.37-6.7-3.3-9.38a53.79,53.79,0,0,0-17.67-15.16C209.4,172,203.23,174.55,197.7,176.75Zm153.85,2c-5.67,3-9.56,8.47-13.29,13.54-1.74,2.81-4.32,5.77-3.74,9.31.59,3.89,6.52,4.42,8.53,1.48,3.86-5,6.61-11.37,12.3-14.66,6.7-.24,12.11,4.38,17.55,7.62,2.41,1.52,6.07.58,6.73-2.41,1.36-4.59-3.52-7.36-6.72-9.46C366.5,180.61,359,176.87,351.55,178.71Zm-69.06,32.74c-2.77.93-4.91,4.41-3.2,7.13,2.26,4,6.91,5.72,9.5,9.42a19.25,19.25,0,0,1-13.87,14.26c-5.3.06-9-4.32-12.62-7.55-2-2.19-5.09-1.15-7.65-1.14-.54,2.48-1.69,5.37.27,7.56,4.62,5.9,11.58,10.39,19.12,11.22,8.36-.21,14.89-6.19,20.64-11.62,5.23,4.48,11.06,9.48,18.33,9.6,4.43-.52,8.35-3,12.05-5.32,3.54-2.33,7.8-5.88,6.65-10.66-.73-3.65-5.82-4-8.1-1.66-3.42,3-6.7,7-11.55,7.49-6.17-1.56-10.55-6.62-14.47-11.31,2.07-3,4.33-5.92,6.2-9.07,1.57-2.49,1.5-6.66-1.6-8A26.37,26.37,0,0,0,282.49,211.45Zm-.13,49.77c-3.45.87-4.14,5.84-1.48,7.93a13.38,13.38,0,0,0,12.4,3.15c3.08-1.58,2.84-6.84-.33-8.27S286,260.23,282.36,261.22Z" transform="translate(-16.31 -6.64)"/>
    <path class="cls-6" d="M190.17,258.92c8.06-1.48,8.62-11.45,15-15.19,2.26.28,4.2,1.6,6,2.9,1.67,3.24,3,8.6,7.76,7.86,4.58-1.57,6.84-7.34,12.07-7.6,4.56,0,9.66,1.84,12.11,5.91,2,4.54-1,9.06-2.25,13.34a5.35,5.35,0,0,0,1.12,5.75c2.68,1.46,6.12,1.5,8.39,3.67,3.48,4.82,2.52,12.07-1.57,16.25-2.83,3-6.94,4.32-10.06,7-2.2,2-2.28,5.22-2.79,8-1.11,9.63-2.73,19.2-4.79,28.67-1,4.88-4.75,8.41-7.25,12.52-4.81,7.32-7.62,15.67-10.32,23.92-9.21-5.11-19-9.35-29.44-11-1.48-.74-3.16-1.49-3.84-3.12-2.46-5.17-3.52-10.87-4.69-16.44-3.11-15.71-1.2-31.82,1.4-47.45.73-2.18,2.11-4,3.16-6.08,2.5-8.83-5.36-16.52-3.7-25.28.55-3.59,4.81-3.56,7.6-4C186.12,258.56,188.14,258.84,190.17,258.92Z" transform="translate(-16.31 -6.64)"/>
    <path class="cls-6" d="M371.94,247.89c3-4.06,10.81-3.48,12.48,1.55.69,3.94-.73,8,.18,11.91,3.56,5.16,12.47.43,15.49,6.44,1.16,4.29,1.7,10-2,13.28-2,2-4.59,3.39-6.41,5.6-1.3,3,.34,6.13,2,8.65,8,12.34,11.18,27,12.75,41.42.79,8.55,1.64,17.18.57,25.74-8.52,1.25-17,3.13-24.9,6.67-3,1.38-6.06,2.7-9.2,3.78a84.34,84.34,0,0,0-7.66-18.13c-1.69-3-3.77-5.71-5.13-8.84a329.61,329.61,0,0,1-10.61-38.46,45.33,45.33,0,0,0-2.23-7.57c-2.19-7.15-11.2-10.72-10.87-18.82.17-6.37,7.48-8.54,10.08-13.62.89-4.3-.46-8.71.22-13a40.22,40.22,0,0,1,1.88-6.23c5.5,0,9.86,3.39,14.71,5.33C367.55,255,369.55,250.44,371.94,247.89Z" transform="translate(-16.31 -6.64)"/>
    <path class="cls-6" d="M118.54,339.54c6.29-4.26,14.29-4.65,21.65-4.7a19.9,19.9,0,0,1,14.9,14.25c1.24,4.88,2.13,9.84,2.92,14.81-6.68,3.28-13.18,7.34-17.78,13.32-4.7,5.55-7.1,12.51-9.41,19.28-7.28-.92-15-2.6-20.41-7.9-3.63-3.46-6-8-8-12.52,3.13-5.13,6-10.5,7.31-16.41C111.61,352.65,112.58,344.44,118.54,339.54Z" transform="translate(-16.31 -6.64)"/>
  </g>
  <path class="cls-7" d="M142.64,83.24c.15-3.31,2.46-7.25,6.28-6.62,4,1,6.74,4.18,9.69,6.77,6,5.63,13.46,9.3,20.48,13.46,4.7,2.81,10,4.09,15.25,5.62C182.5,104,171,109,162.3,117.29c-4.93,4.88-7.75,11.33-11.8,16.87l-.85-2.28c-2.89-8.06-4.48-16.52-6-24.94A87.94,87.94,0,0,1,142.64,83.24Z" transform="translate(-16.31 -6.64)"/>
  <g>
    <path class="cls-8" d="M172.15,79l4.73-2.51c8.82,3.31,17.11,10,27,9,8.42-2,16-7.23,24.77-7.92,6,2.67,12,5.49,17.41,9.29,4.91,3.5,9.31,8.71,9.39,15,.1,8.5-3,17.31-9.34,23.12-10.85,10-24.76,15.62-37.77,22.22-13.82,7.07-28.38,14.42-37.92,27.11-5.75,7.32-7.31,16.73-10.89,25.11-5.71,14.34-12.88,29.18-25.88,38.28l-.62.39c1.93-26.72,7.86-52.92,11.91-79.36.91-6.42,2.84-12.63,3.91-19a68.25,68.25,0,0,0,.82-7.94l.85,2.28c4.05-5.54,6.87-12,11.8-16.87,8.66-8.32,20.2-13.29,32-14.82,3.07-.7,7.22,0,9.14-3,.76-2.35.06-5.39-2.53-6.22-4.9-1.72-10.31-1.72-15-4.15-4.11-2.18-8.45-4.1-12.09-7C173.27,81.06,172.71,80.05,172.15,79ZM189,124c-2.26,2.13-1.09,5.44-1,8.12,2.47.15,5.23.95,7.41-.69,3.75-2.48,7.77-4.89,10.57-8.48,2.32-3.51-2.16-7.76-5.77-6.56C195.87,117.82,192.19,120.83,189,124Z" transform="translate(-16.31 -6.64)"/>
    <path class="cls-8" d="M355.9,90c8.39-2,15.2-7.77,23.37-10.34-2.2,5.35-7,8.88-11.61,12-3.77,2.65-8.57,2.57-12.75,4.15-2.76,1.05-2.19,4.54-2.7,6.86,6.89,2.8,14.53,2.1,21.54,4.45,7.84,2.32,16.46,5.87,20.11,13.79,4.08,10.27,6.85,21,9.31,31.82,1.64,9.73,4.41,19.3,4.94,29.2.41,5-.06,10.18,2.12,14.82a76.1,76.1,0,0,1,4.66,12.39c-4.4-4.63-9.55-8.56-13.38-13.72-4.54-5.82-5.52-13.78-11-19-11.94-11.64-27.14-18.91-40.85-28.14-10.49-7-21.73-13.27-30.24-22.77-6.34-6.4-9.28-16.28-6.87-25,3.06-8.9,11.45-14.19,18.79-19.3C337,83,342.19,86,347.61,88.42,350.2,89.49,353,90.74,355.9,90Zm-3.51,32.19c-2.81,1.17-3.66,5.6-1.09,7.47A101.51,101.51,0,0,0,361.86,136c2.34,1.53,6.37.68,6.78-2.43,1.05-4-2.31-7.05-5.38-8.86S356.12,120.73,352.39,122.22Z" transform="translate(-16.31 -6.64)"/>
  </g>
  <path class="cls-9" d="M380.45,94.44C385.06,90.32,387.8,84,394,81.85a93.26,93.26,0,0,1-.88,29.21c-.71,3.31-.11,6.67.75,9.89-3.65-7.92-12.27-11.47-20.11-13.79-7-2.35-14.65-1.65-21.54-4.45,3.19.78,6.43,2.16,9.78,1.56C369,103.13,375.23,99.14,380.45,94.44Z" transform="translate(-16.31 -6.64)"/>
  <path class="cls-10" d="M189,124c3.22-3.13,6.9-6.14,11.19-7.61,3.61-1.2,8.09,3.05,5.77,6.56-2.8,3.59-6.82,6-10.57,8.48-2.18,1.64-4.94.84-7.41.69C187.88,129.4,186.71,126.09,189,124Z" transform="translate(-16.31 -6.64)"/>
  <path class="cls-11" d="M352.39,122.22c3.73-1.49,7.65.73,10.87,2.53s6.43,4.9,5.38,8.86c-.41,3.11-4.44,4-6.78,2.43a101.51,101.51,0,0,1-10.56-6.35C348.73,127.82,349.58,123.39,352.39,122.22Z" transform="translate(-16.31 -6.64)"/>
  <path class="cls-12" d="M141.16,160.13c2.36-6.84,4.13-13.95,7.67-20.31-1.07,6.38-3,12.59-3.91,19-4,26.44-10,52.64-11.91,79.36a51.41,51.41,0,0,1-10.89,4.09c1.26-10.91,3.57-21.65,5.74-32.4C131.62,193.13,135.75,176.43,141.16,160.13Z" transform="translate(-16.31 -6.64)"/>
  <path class="cls-13" d="M197.7,176.75c5.53-2.2,11.7-4.77,17.68-2.94A53.79,53.79,0,0,1,233.05,189c1.93,2.68,4.39,5.88,3.3,9.38-1.57,3.33-7.1,3.39-8.81.15-4.15-6-9-12.1-15.87-15.12-8.12-.2-14.85,5.28-22,8.34-2,1-4.07,0-6.06-.31-.38-2.4-1.6-5.39.51-7.34C188.14,180.84,193.05,178.92,197.7,176.75Z" transform="translate(-16.31 -6.64)"/>
  <g>
    <path class="cls-14" d="M282.49,211.45a26.37,26.37,0,0,1,19.7.4c3.1,1.29,3.17,5.46,1.6,8-1.87,3.15-4.13,6-6.2,9.07,3.92,4.69,8.3,9.75,14.47,11.31,4.85-.53,8.13-4.46,11.55-7.49,2.28-2.39,7.37-2,8.1,1.66,1.15,4.78-3.11,8.33-6.65,10.66-3.7,2.35-7.62,4.8-12.05,5.32-7.27-.12-13.1-5.12-18.33-9.6-5.75,5.43-12.28,11.41-20.64,11.62-7.54-.83-14.5-5.32-19.12-11.22-2-2.19-.81-5.08-.27-7.56,2.56,0,5.67-1,7.65,1.14,3.65,3.23,7.32,7.61,12.62,7.55A19.25,19.25,0,0,0,288.79,228c-2.59-3.7-7.24-5.44-9.5-9.42C277.58,215.86,279.72,212.38,282.49,211.45Z" transform="translate(-16.31 -6.64)"/>
    <path class="cls-14" d="M282.36,261.22c3.65-1,7.37,1.25,10.59,2.81s3.41,6.69.33,8.27a13.38,13.38,0,0,1-12.4-3.15C278.22,267.06,278.91,262.09,282.36,261.22Z" transform="translate(-16.31 -6.64)"/>
  </g>
  <path class="cls-15" d="M182.49,214.39c8.21-4,17.94-3.09,26.34-.18,5.53,1.83,8.88,7.27,10.32,12.63.86,4.33.09,8.76-.26,13.11-3.11-3.54-7-6.84-11.92-7.21a23.36,23.36,0,0,0-22.65,15c-3.46-2.56-7.19-4.83-10.18-8-3.62-3.73-3.77-9.52-2.58-14.28C172.9,220.16,177.71,216.63,182.49,214.39Z" transform="translate(-16.31 -6.64)"/>
  <path class="cls-16" d="M353.2,225.18c8.63-7.07,23-9.15,31.58-1,3.88,3.41,3.65,8.79,3.75,13.49-4.41-1.24-8.93-2.8-13.58-2.18-4.71.42-8.4,3.66-12,6.39a34.87,34.87,0,0,0-17.29-3.33C347,233.61,348.75,228.28,353.2,225.18Z" transform="translate(-16.31 -6.64)"/>
  <path class="cls-17" d="M122.12,242.28A51.41,51.41,0,0,0,133,238.19l.62-.39c-1.08,4.87-2.33,10.87,2,14.62,8.08,7.66,15.91,15.71,25.1,22.06,1.62,1.48,2.32,3.66,3.47,5.48,1.27,2.41,3.2,4.43,4.27,7-.38,1.1-.89,2.16-1.37,3.24-12-6.16-22.72-14.53-32.6-23.62a112,112,0,0,1-11.72-13.29C120.2,250.06,121.5,245.86,122.12,242.28Z" transform="translate(-16.31 -6.64)"/>
  <path class="cls-18" d="M195.64,247.54c2.31-3.24,6.57-4.53,10.38-4.79,2.47-.14,3.76,2.28,5.17,3.88-1.81-1.3-3.75-2.62-6-2.9-6.39,3.74-7,13.71-15,15.19C193.56,256,193.79,251.33,195.64,247.54Z" transform="translate(-16.31 -6.64)"/>
  <path class="cls-19" d="M40.36,245.29c3.91-1.4,7.85.55,11.44,2-2.75,2-6.13,3.83-7.13,7.33-2.23,7.29,1.31,15.1,6.6,20.13C60.59,283.87,74,286,86,289.34a77,77,0,0,1-41.72-9.61c-7.34-4.18-13.22-12-12.83-20.74C31.45,253.25,34.57,247,40.36,245.29Z" transform="translate(-16.31 -6.64)"/>
  <g>
    <path class="cls-20" d="M44.67,254.61c1-3.5,4.38-5.35,7.13-7.33,13.54,7.5,29,10.83,44.34,12.11,6.21.58,12.49-.29,18.67.54,3,2.42,5.06,5.77,7.72,8.55,5.89,6.6,12.87,12.06,19.61,17.74-2.19,3.46-4.61,6.78-6.58,10.37-4.39,8.57-6.2,18.26-6.23,27.84-9.51,1.32-19,4.95-25.54,12.22a19.64,19.64,0,0,1-9.44-5.3c3.2-.91,7.47-.29,9.69-3.26a4.92,4.92,0,0,0-2.86-7.29c-9.28-1.93-20.35-1.21-27.49-8.49-3.49-3.33-2.6-8.35-.62-12.21,4.06-.22,8.14-.42,12.17-1,4.39-1.06,5-8.14.77-9.75C74,286,60.59,283.87,51.27,274.74,46,269.71,42.44,261.9,44.67,254.61Z" transform="translate(-16.31 -6.64)"/>
    <path class="cls-20" d="M464.46,259.55c6.52-2.35,15.42,3.05,14.39,10.44-.15,4.36-2.58,8.34-5.52,11.41-7.9,4.45-16.93,6-25.58,8.31a15.14,15.14,0,0,0-8.51,5.75,12.64,12.64,0,0,0-2.82,4.73,4.59,4.59,0,0,0,3.81,5.35c6.35.63,12.51-1.43,18.69-2.55.91,1.27,1.82,2.55,2.75,3.83-.35,2.29-.69,4.58-1,6.87-10.17,3.13-22.18,1.11-30.75,8.48-2.86,1.91-4.44,6-1.93,8.88,4.16,2.29,9.16,1,13.7,1.3,1.44,3.74,3.11,9.44-1.5,11.66-7.69,0-15.37-.08-23.06,0-1-11.24-2.19-22.55-5.65-33.34-2-6.85-5.19-13.22-8.37-19.56,3.44-3.55,5.72-7.94,7.87-12.33,3.11-4.76,6.57-9.3,9.45-14.21C435.11,263.21,450.11,263.57,464.46,259.55Z" transform="translate(-16.31 -6.64)"/>
  </g>
  <path class="cls-21" d="M340.76,255.54c1.16-3.64,4.78-5.42,7.78-7.32a40.22,40.22,0,0,0-1.88,6.23c-.68,4.33.67,8.74-.22,13-2.6,5.08-9.91,7.25-10.08,13.62-.33,8.1,8.68,11.67,10.87,18.82l-.66-.46c-4.4-3-9.95-4.39-13.4-8.65-2.86-3.41-3.88-8.58-1.92-12.64,2.65-3.26,7.26-3.84,10.27-6.7C342.23,266.14,339.14,260.85,340.76,255.54Z" transform="translate(-16.31 -6.64)"/>
  <path class="cls-22" d="M172.86,259.86c3.11-2.65,7.52-2,11.24-1.39-2.79.45-7,.42-7.6,4-1.66,8.76,6.2,16.45,3.7,25.28-.4-2.11,0-4.69-1.72-6.29-2.8-2.91-6.46-5.47-7.33-9.68C170.24,267.87,170,263,172.86,259.86Z" transform="translate(-16.31 -6.64)"/>
  <path class="cls-23" d="M447.75,289.71c8.65-2.29,17.68-3.86,25.58-8.31-5.24,7.17-13.65,11-22,13.05a35,35,0,0,1-12.05,1A15.14,15.14,0,0,1,447.75,289.71Z" transform="translate(-16.31 -6.64)"/>
  <path class="cls-24" d="M145.42,298.39c1.77-2,3.58-4.05,5.49-5.95l3.7,2c-1.43,2.67-2.82,5.36-4.22,8C148.75,301.08,147.07,299.75,145.42,298.39Z" transform="translate(-16.31 -6.64)"/>
  <g>
    <path class="cls-25" d="M169.13,310.1c2.09-5.64,3.93-11.6,7.91-16.26-2.6,15.63-4.51,31.74-1.4,47.45,1.17,5.57,2.23,11.27,4.69,16.44.68,1.63,2.36,2.38,3.84,3.12-5.3-.24-10.6-.24-15.89-.17C162.66,344.38,163.25,326.24,169.13,310.1Z" transform="translate(-16.31 -6.64)"/>
    <path class="cls-25" d="M346.57,299.47l.66.46a45.33,45.33,0,0,1,2.23,7.57A329.61,329.61,0,0,0,360.07,346c-3.86-4.14-7.69-8.32-11.79-12.22-3.26-3-2.52-7.8-2.6-11.75C346.18,314.49,346.67,307,346.57,299.47Z" transform="translate(-16.31 -6.64)"/>
  </g>
  <path class="cls-26" d="M150.39,302.46c1.4-2.69,2.79-5.38,4.22-8,2.49,1.6,5,3.19,7.44,4.83a106.26,106.26,0,0,1-3.53,11.16c-2.51-2.5-5-5.08-7.57-7.46Z" transform="translate(-16.31 -6.64)"/>
  <path class="cls-27" d="M139.67,324a45.93,45.93,0,0,1,5.75-25.62c1.65,1.36,3.33,2.69,5,4.07l.56.48c-1,8.33-1.57,16.81-.22,25.14C147,326.92,143.32,325.45,139.67,324Z" transform="translate(-16.31 -6.64)"/>
  <path class="cls-28" d="M69.06,315.87c-6-3.36-5.65-12.92-1-17,5.71-.39,11.42.75,17.14.26-4,.59-8.11.79-12.17,1-2,3.86-2.87,8.88.62,12.21,7.14,7.28,18.21,6.56,27.49,8.49C90.41,320.38,78.71,321.69,69.06,315.87Z" transform="translate(-16.31 -6.64)"/>
  <path class="cls-29" d="M151,302.94c2.62,2.38,5.06,5,7.57,7.46-2,6.75-2.83,13.75-3.94,20.68a35.13,35.13,0,0,1-3.85-3C149.38,319.75,149.94,311.27,151,302.94Z" transform="translate(-16.31 -6.64)"/>
  <path class="cls-30" d="M245.23,314.54c.33-3.66,0-8.11,3.41-10.43a14.83,14.83,0,0,0,7.7,4.65c8.16,2.19,16.2,5.75,24.83,5.25-4.07.6-8.18,1-12.18,2-3.23.72-6.45,1.88-9.81,1.62C254.4,317.29,249.83,315.76,245.23,314.54Z" transform="translate(-16.31 -6.64)"/>
  <path class="cls-31" d="M461.67,306.82c1.24,3.85.47,8.43-3.37,10.47-8.5,4.9-18.83,5.39-28.42,4.88,8.57-7.37,20.58-5.35,30.75-8.48C461,311.4,461.32,309.11,461.67,306.82Z" transform="translate(-16.31 -6.64)"/>
  <path class="cls-32" d="M317.91,317c6.45-.19,12.63-2.16,18.68-4.23a16.54,16.54,0,0,1-10.75,6.74C323,319.71,320.42,318.09,317.91,317Z" transform="translate(-16.31 -6.64)"/>
  <path class="cls-33" d="M275.41,324.69c8.84-1.25,17.95-1.87,26.77-.2-1.8.14-3.58.35-5.36.56,7.64,2.56,15.88,3.87,22.71,8.41,12.41,8.33,23.85,18.78,30.93,32.12,2.58,4.81,4,10.27,7.33,14.66,1.66,2.48,4.83,2.61,7.47,3.17a19,19,0,0,1,4.89,2.11c8.56-3.11,16.13-9.28,25.38-10.26,8.44,1.32,17.28,1.43,25.18,5,7.24,3.21,14.06,7.75,18.91,14.1,8.06,10.6,12.25,23.45,15.55,36.19-.65,7.11-5.36,13.44-10.23,18.44-5.94,3.08-12.69,3.45-19.1,4.85-3.44.69-5.85,3.41-8,5.91-5.09,5.92-10.7,11.77-17.84,15.18-8.21,3-16.93,4.16-25.52,5.58-14.35,2.48-29,1.54-43.42.34-16.54-1.19-32.7-5.15-48.75-9.11a95.55,95.55,0,0,1-19.19-6.9C258.74,463,253.6,460.66,249,463c-4.83,2.43-9,6.07-14.17,7.86A110.82,110.82,0,0,1,202.05,477c-10.68.36-21.48.19-32-2a121.73,121.73,0,0,1-37-14c-7-4-12.2-11.59-20.71-12.39-8-1-17.21.62-23.75-5.13-5.53-4.13-6.65-11.67-5.23-18,1.1-6.43,5.45-11.75,10.58-15.54l.87-.24c8.34-.17,16.36,2.47,23.93,5.73,6.07,2.66,12.78,5.31,19.42,3-1-.78-2-1.55-3.06-2.27,3.74.06,8.85.92,11-3,3.82-6.54,2.38-14.51,4.3-21.6a43.71,43.71,0,0,1,8.41-16.56c3.71-2.31,8.19-4.08,12.61-3.72,8.49,3.18,17.35,5.54,25.22,10.18,6.55,3.8,13.77,7.1,21.55,6.45,3.78-.21,8.19-.68,10.53-4.07,4-5.66,4.41-12.88,6.88-19.21C240.28,352,247.05,340,257.12,331,262.44,327.22,269.07,325.83,275.41,324.69Z" transform="translate(-16.31 -6.64)"/>
  <path class="cls-34" d="M296.82,325.05c1.78-.21,3.56-.42,5.36-.56a69.94,69.94,0,0,1,42.68,19.65,75.59,75.59,0,0,1,20.4,39.27c-2.64-.56-5.81-.69-7.47-3.17-3.33-4.39-4.75-9.85-7.33-14.66-7.08-13.34-18.52-23.79-30.93-32.12C312.7,328.92,304.46,327.61,296.82,325.05Z" transform="translate(-16.31 -6.64)"/>
  <path class="cls-35" d="M90.66,335.38c-1.19-2.2,1.29-6.51,3.69-4a19.64,19.64,0,0,0,9.44,5.3c-1.18,1.49-2.2,3.23-3.87,4.24C96.3,340.49,92.4,338.75,90.66,335.38Z" transform="translate(-16.31 -6.64)"/>
  <g>
    <path class="cls-36" d="M250.94,333.9a33,33,0,0,1,6.18-2.86c-10.07,9-16.84,20.92-21.5,33.46-2.47,6.33-2.84,13.55-6.88,19.21-2.34,3.39-6.75,3.86-10.53,4.07L215,385.36c2-.74,4.22-1.1,5.81-2.56,1.42-2.28,1.79-5,2.48-7.57C227.11,358.73,236.74,343.36,250.94,333.9Z" transform="translate(-16.31 -6.64)"/>
    <path class="cls-36" d="M80.52,414.57c4.17-2.35,8.84-3.54,13.44-4.75-5.13,3.79-9.48,9.11-10.58,15.54-1.42,6.37-.3,13.91,5.23,18,6.54,5.75,15.78,4.13,23.75,5.13,8.51.8,13.73,8.4,20.71,12.39a121.73,121.73,0,0,0,37,14c10.49,2.2,21.29,2.37,32,2a110.82,110.82,0,0,0,32.77-6.06c5.16-1.79,9.34-5.43,14.17-7.86,4.61-2.37,9.75-.07,14.08,1.82a95.55,95.55,0,0,0,19.19,6.9c16.05,4,32.21,7.92,48.75,9.11,14.42,1.2,29.07,2.14,43.42-.34C383,479.1,391.74,478,400,474.94,383.3,485.31,363.3,488.47,344,489.2a214.45,214.45,0,0,1-84.69-15.55c-4.71-1.74-10.07-5.9-14.91-2.2-11.77,7.95-25.61,12.31-39.64,13.95-15.46,1.17-31.2.37-46.14-4a90.47,90.47,0,0,1-36.47-18.54c-2.88-2.34-5.21-5.55-8.71-7-4.59-.82-9.31-.49-13.9-1.35-8-1.4-16.42-3.8-22.48-9.57C68.34,436.91,69.85,420.22,80.52,414.57Z" transform="translate(-16.31 -6.64)"/>
  </g>
  <path class="cls-37" d="M111.78,342.79c7.2-7.49,18.48-9.46,28.41-8-7.36.05-15.36.44-21.65,4.7-6,4.9-6.93,13.11-8.77,20.13-1.28,5.91-4.18,11.28-7.31,16.41l-.56-1.59c-.65-3,.27-6,.69-8.94C104.07,357.5,106,348.91,111.78,342.79Z" transform="translate(-16.31 -6.64)"/>
  <path class="cls-38" d="M417.09,344c7.69-.05,15.37.07,23.06,0-6.24,5.36-15,5.56-22.8,5.75C417.27,347.83,417.19,345.9,417.09,344Z" transform="translate(-16.31 -6.64)"/>
  <path class="cls-39" d="M81.47,366.59a57.31,57.31,0,0,1,11.9-6.86,49.66,49.66,0,0,1-2.63,11.54l-2.65-1A46.57,46.57,0,0,1,81.47,366.59Z" transform="translate(-16.31 -6.64)"/>
  <path class="cls-40" d="M74.2,377.23c1.18-4.26,4.24-7.59,7.27-10.64a46.57,46.57,0,0,0,6.62,3.69,31.87,31.87,0,0,0-4.21,4c-1.09,2.65,1.34,4.68,2.78,6.57a19.4,19.4,0,0,0-7.34,2.71c-2.79,3.53-3.71,8.06-3.73,12.48C73.49,390,72.64,383.45,74.2,377.23Z" transform="translate(-16.31 -6.64)"/>
  <path class="cls-41" d="M171.44,371.15c15.77-2.82,31.38,4.76,43.56,14.21l3.21,2.42c-7.78.65-15-2.65-21.55-6.45C188.79,376.69,179.93,374.33,171.44,371.15Z" transform="translate(-16.31 -6.64)"/>
  <path class="cls-42" d="M395.53,375.26c7.07-3.13,14.93-3.24,22.52-3,9.22.24,18,4.74,24.32,11.35a57.57,57.57,0,0,1,14,29.64c.52,5.75,1,11.8-1.19,17.29-3.3-12.74-7.49-25.59-15.55-36.19-4.85-6.35-11.67-10.89-18.91-14.1C412.81,376.69,404,376.58,395.53,375.26Z" transform="translate(-16.31 -6.64)"/>
  <path class="cls-43" d="M90.81,381.67c4.22-1.49,7.74-4.3,11.09-7.18l.56,1.59c1.91,4.56,4.32,9.06,8,12.52,5.43,5.3,13.13,7,20.41,7.9-.29,1.59-.58,3.18-.88,4.77-6-.44-11.91-1.87-18-1.78-5.3,0-10.59.1-15.88,0-.84-1.26-1.7-2.51-2.49-3.8C91.17,391.43,90.58,386.48,90.81,381.67Z" transform="translate(-16.31 -6.64)"/>
  <path class="cls-44" d="M139.74,405c.79-12.32,7.66-24.74,19.09-30.14a43.71,43.71,0,0,0-8.41,16.56c-1.92,7.09-.48,15.06-4.3,21.6-2.15,4-7.26,3.09-11,3-1-.6-2-1.2-3-1.77,2.24-.55,5.24-.28,6.57-2.54C139.63,409.64,139.45,407.25,139.74,405Z" transform="translate(-16.31 -6.64)"/>
  <path class="cls-45" d="M79.32,383.56a19.4,19.4,0,0,1,7.34-2.71c1.39.23,2.77.5,4.15.82-.23,4.81.36,9.76,2.81,14C86.19,397,82,389.16,79.32,383.56Z" transform="translate(-16.31 -6.64)"/>
  <path class="cls-46" d="M75.59,396c0-4.42.94-9,3.73-12.48,2.7,5.6,6.87,13.4,14.3,12.11.79,1.29,1.65,2.54,2.49,3.8a110.44,110.44,0,0,0-17,4.34A43.57,43.57,0,0,1,75.59,396Z" transform="translate(-16.31 -6.64)"/>
  <path class="cls-47" d="M94.83,409.58c12.48-.43,25.93-1.46,37.29,4.71,1,.57,2,1.17,3,1.77s2,1.49,3.06,2.27c-6.64,2.29-13.35-.36-19.42-3C111.19,412.05,103.17,409.41,94.83,409.58Z" transform="translate(-16.31 -6.64)"/>
  <path class="cls-48" d="M425.84,453.85c6.41-1.4,13.16-1.77,19.1-4.85-5.63,6.05-13.33,11.32-21.94,10.87-1.74,0-3.48-.07-5.21-.11C420,457.26,422.4,454.54,425.84,453.85Z" transform="translate(-16.31 -6.64)"/>
</svg>
