<svg id="Layer_1" data-name="Layer 1" xmlns="http://www.w3.org/2000/svg" viewBox="0 0 507.78 486.88">
  <defs>
    <style>
      .cls-1 {
        fill: #f7efed;
      }

      .cls-2 {
        fill: #fbfcfd;
      }

      .cls-3 {
        fill: #0a1f2d;
      }

      .cls-4 {
        fill: #ee4a22;
      }

      .cls-5 {
        fill: #fcc2bd;
      }

      .cls-6 {
        fill: #ed4a23;
      }

      .cls-7 {
        fill: #fbc1bd;
      }

      .cls-8 {
        fill: #9c845e;
      }

      .cls-9 {
        fill: #c7a56c;
      }

      .cls-10 {
        fill: #9b845e;
      }

      .cls-11 {
        fill: #0d1f2a;
      }

      .cls-12 {
        fill: #0e1d2a;
      }

      .cls-13 {
        fill: #ba4027;
      }

      .cls-14 {
        fill: #fbc2bd;
      }

      .cls-15 {
        fill: #0b1e2c;
      }

      .cls-16 {
        fill: #0a1e2c;
      }

      .cls-17 {
        fill: #9b8462;
      }

      .cls-18 {
        fill: #9b845c;
      }

      .cls-19 {
        fill: #96835f;
      }

      .cls-20 {
        fill: #fbc2be;
      }

      .cls-21 {
        fill: #9b845f;
      }

      .cls-22 {
        fill: #0066a5;
      }

      .cls-23 {
        fill: #689bd1;
      }

      .cls-24 {
        fill: #007bcc;
      }

      .cls-25 {
        fill: #82c1ff;
      }

      .cls-26 {
        fill: #85c5fe;
      }

      .cls-27 {
        fill: #85c3ff;
      }

      .cls-28 {
        fill: #85c4fe;
      }

      .cls-29 {
        fill: #bfbdbe;
      }

      .cls-30 {
        fill: #0d1f2b;
      }

      .cls-31 {
        fill: #0a202d;
      }

      .cls-32 {
        fill: #0a1f2e;
      }

      .cls-33 {
        fill: #09202f;
      }
    </style>
  </defs>
  <g>
    <path class="cls-1" d="M0,0H.26A3.19,3.19,0,0,0,0,.26Z"/>
    <path class="cls-1" d="M230.33,45c18-4.53,36.65-5.3,55.1-4.5,21.75,1.67,43.37,6.86,63,16.48-3,5.27-6.3,10.46-10.83,14.56-4.9,4.8-11.33,8-15.35,13.67-3.83,5.63-2.94,13.32.55,18.89,6,9.82,15.5,16.87,25.07,23,15.24,9,31.63,15.91,46.57,25.46,12.59,7.48,19.82,21.57,22.47,35.59,1.17,6.86.59,13.85.83,20.77a74.09,74.09,0,0,1-12.19.23c-1.66-5.11-4.13-11.17-9.95-12.53a39.14,39.14,0,0,0-18.6.48c-6.91,2.11-11.66,7.87-16,13.28-15.6.49-31.19,1.27-46.8,1.36,2.71-3,6.09-5.75,7.17-9.78.62-3-.88-7.42-4.45-7.56a88.45,88.45,0,0,0-15.35.31c-3.12.54-7,1.36-8.41,4.57-1.15,2.11.1,4.46,1.62,6,2.73,2.8,6.13,4.8,9.28,7.09-11.35.16-22.72.05-34.06.61-13.51.92-27.06.29-40.57,1.15C221.52,201.09,203.49,197,190,203c-5.23,2.24-8.05,7.48-10.31,12.39-10.3,1.14-20.24-2.23-30.09-4.69q-6.08-1.46-12-3.49c4.58-12.12,7-25.29,14.53-36.09,4.11-6,8.09-12.55,14.44-16.52A296.41,296.41,0,0,1,208,133c8.73-3.53,17.45-7.1,26.05-10.93,7-3.1,14-7.18,18.19-13.79,3.3-5.11,3.39-12.26-.4-17.15-6.4-8.6-16.78-12.47-26.11-16.92-10-5.13-20.39-10.36-28-18.9C208.09,50.5,219.27,47.75,230.33,45Zm62,110.41c-8.45,1.21-14.82,7.6-19.85,14-2.87,3.63-4.75,8.87-2.11,13.16,1.61,3.48,5.9,3.54,9.17,4a240.48,240.48,0,0,0,29.41.24c4-.44,8.48-.55,11.83-3.09,3-3.4,5.14-8.82,2.57-13.07C316.76,160.78,304.71,152.7,292.34,155.44Zm68.09,10a43.89,43.89,0,0,0-18.51,15.47,4.7,4.7,0,0,0,5.77,6.82c5.69-3.38,8.91-10.37,15.62-12.25,5-1,9,3,12.88,5.39,2.68,1.65,5.94,4.79,9.2,2.64,3-1.26,3-5.69.76-7.64a56.39,56.39,0,0,0-11.9-8C370,165.79,365.07,163.25,360.43,165.4ZM218.6,170.71a172.48,172.48,0,0,0-15.71,8.23c-3.15,2.15-6.76,4.38-8.15,8.12a6,6,0,0,0,2.81,5.4c4.42,1.22,7.46-3.07,10.89-5,4.24-2.44,8.53-5.47,13.44-6.22,6.83,1.75,11.68,7.49,18.13,10,4.16,0,6.2-4.92,3.86-8.11-4.08-4.52-9.84-7-15-10C225.74,171.53,222.18,169.14,218.6,170.71Z"/>
  </g>
  <path class="cls-2" d="M187.92,42.82c25-10.47,51.88-17,79.07-17.76,33.65-1.33,67.46,7,97.13,22.83,9.4,3.29,18.52-2.5,27.55-4.44,9.5-2.65,20.69,1.42,25.61,10.13,5.55,9.37,5.34,20.62,5,31.14,6.93,5.92,16,8.21,24.62,10.51,11.16,3.26,22.59,5.55,33.65,9.15,6.69,2.67,14.26,5.38,18,12,3.61,6.17,1.25,13.46-.26,19.89-6.27,22.46-17.34,43.18-28.49,63.52-2.51,4.76-5.84,9.13-7.67,14.21,1.26,3.71,3.88,6.75,5.72,10.18,9.59,16.81,18.14,34.2,26,51.86,3.12,6.55,6.34,13.05,9.13,19.75,2.31,4.73,6.52,9.8,3.88,15.33-1.48,6.18-7.72,9.09-13.32,10.53-7.45,1.7-15.08,2.26-22.66,3.06-2.25,29.73-5.07,59.46-5.42,89.3-.42,6.39,2.56,12.23,3.68,18.39,1.88,9.24,2.75,19.18-.53,28.22a13.5,13.5,0,0,1-9.43,8.83c-7.3,1.79-14.84,2.26-22.28,3.11-53.57,4.81-107.32,6.94-161,9.8-36.66,1.46-73.3,3.37-110,4.48a13.94,13.94,0,0,1-9.72-3.05c-11-8.63-22.71-16.59-35.93-21.29C96.25,451.73,74.57,436.32,54,419.92A12,12,0,0,1,49.44,410c.07-14.69.48-29.38-.09-44.05-.2-20.67.79-41.36-.27-62,.21-3.12-2.93-4.42-5-6-11.1-7.15-21.91-14.73-32.8-22.2-3.41-2.59-7.6-5.94-6.92-10.76.17-5.71,5.75-8.84,8-13.61,2.21-4.57,3.78-9.42,6.3-13.84,10-19.58,21.3-38.45,32-57.62C38,152.57,23.77,125.89,10.22,98.91,7.83,94.2,3.94,89.2,5.7,83.6c1-4.54,5.81-7.16,10.25-6.87,9.05.46,18-.92,27-1.61,19.76-1.74,39.56-3.1,59.38-3.53a75.19,75.19,0,0,1,4.79-22.48c3.77-8.17,13.61-12.77,22.34-10.82,10.9,2.05,20.62,7.71,31.17,10.87,3.66,1,7.56,2,11.34,1.16C177.48,48.2,182.48,45,187.92,42.82Zm51.36-10.35c-21.55,3.9-42.82,10.35-62.18,20.71-2.51,1.26-5.2,2.53-8.08,2.21-14.59-.91-26.76-10.35-41-12.66-6.17-1.14-13.08,1.53-16,7.27-4,8.12-4.85,17.39-4.75,26.34-28.62,0-57.13,3-85.63,5.26-3.58.44-8.37-1.32-10.81,2.23-2,4,1.07,8,2.81,11.52Q33,133.53,52.22,171.72c1.29,2.67,3,5.23,3.55,8.2C54.89,183.26,52.63,186,51,189c-10,17.17-19.86,34.38-29,52-3.09,5.66-4.42,12.31-8.76,17.24-1.75,2.29-4.49,4.47-4.15,7.67.07,2.89,2.8,4.56,4.83,6.16q18.71,12.82,37.65,25.29C54.86,299,54.23,303,54.34,306c-.11,32.66.17,65.33,0,98,.11,4.28-1,9.65,3.11,12.52,19.7,16.35,41.15,30.84,64.41,41.64,12.67,4.68,24.28,11.82,34.87,20.14,2.45,1.81,5,3.95,8.25,4,58-2.37,116-4.69,174-7.89,36.38-2,72.79-3.92,109-7.67,5.59-1,13.23-.58,16-6.66,4.56-11.41,1.8-24.12-1.6-35.47-2.57-7.63-1.55-15.79-1.16-23.66.86-27,3.43-53.91,5.34-80.85,9.56-.94,19.46-.65,28.62-3.95,4.15-1.43,8.23-5.27,7.55-10-.87-3.38-3.11-6.16-4.48-9.32-12.52-28.32-25.33-56.66-42-82.83a525.21,525.21,0,0,0,28.92-54.85c4.26-10.21,8.65-20.54,10.27-31.56.43-3.24.72-6.87-1.29-9.68-2.93-4.45-8.2-6.34-12.94-8.2-20.61-7.27-43.35-9-62.24-20.72-2.16-.51-1.74-2.9-1.71-4.57.51-8.71,1.15-17.9-2.68-26C411.9,51.84,405.17,47,398,47.32c-7.79-.21-14.59,4.18-22.08,5.55-4.84.94-10.24,1.71-14.63-1.12A180.8,180.8,0,0,0,290,30.39C273.13,28.58,256,29.85,239.28,32.47Z"/>
  <path class="cls-3" d="M239.28,32.47C256,29.85,273.13,28.58,290,30.39a180.8,180.8,0,0,1,71.25,21.36c4.39,2.83,9.79,2.06,14.63,1.12,7.49-1.37,14.29-5.76,22.08-5.55,7.17-.31,13.9,4.52,16.56,11.07,3.83,8.13,3.19,17.32,2.68,26,0,1.67-.45,4.06,1.71,4.57,18.89,11.75,41.63,13.45,62.24,20.72,4.74,1.86,10,3.75,12.94,8.2,2,2.81,1.72,6.44,1.29,9.68-1.62,11-6,21.35-10.27,31.56A525.21,525.21,0,0,1,456.23,214c16.68,26.17,29.49,54.51,42,82.83,1.37,3.16,3.61,5.94,4.48,9.32.68,4.75-3.4,8.59-7.55,10-9.16,3.3-19.06,3-28.62,3.95-1.91,26.94-4.48,53.84-5.34,80.85-.39,7.87-1.41,16,1.16,23.66,3.4,11.35,6.16,24.06,1.6,35.47-2.78,6.08-10.42,5.64-16,6.66-36.25,3.75-72.66,5.7-109,7.67-58,3.2-116,5.52-174,7.89-3.21-.08-5.8-2.22-8.25-4-10.59-8.32-22.2-15.46-34.87-20.14-23.26-10.8-44.71-25.29-64.41-41.64-4.1-2.87-3-8.24-3.11-12.52.18-32.67-.1-65.34,0-98-.11-3,.52-7-2.75-8.61q-18.93-12.47-37.65-25.29c-2-1.6-4.76-3.27-4.83-6.16-.34-3.2,2.4-5.38,4.15-7.67C17.6,253.33,18.93,246.68,22,241c9.11-17.64,19-34.85,29-52,1.64-3,3.9-5.74,4.78-9.08-.52-3-2.26-5.53-3.55-8.2Q33,133.48,13.63,95.35c-1.74-3.49-4.78-7.5-2.81-11.52,2.44-3.55,7.23-1.79,10.81-2.23,28.5-2.3,57-5.25,85.63-5.26-.1-9,.73-18.22,4.75-26.34,2.93-5.74,9.84-8.41,16-7.27,14.24,2.31,26.41,11.75,41,12.66,2.88.32,5.57-1,8.08-2.21C196.46,42.82,217.73,36.37,239.28,32.47ZM230.33,45c-11.06,2.72-22.24,5.47-32.61,10.28a96.85,96.85,0,0,0-17.92,8.54c-3.83,2.41-8.54,1.91-12.85,1.87-10.3-.12-19.22-5.92-28.91-8.6,2.8,4.92,5.4,9.94,8,15s8.08,7.73,13.26,9.53c2.51,1.06,5.52,1.68,7.22,4,1.57,1.86,0,4.15-.51,6.12a59.6,59.6,0,0,0-6.67.85C153.67,90.17,147.65,88.18,143,84c-8.37-6.91-9.29-19.31-18-25.95-1.37-.85-3.79-1.42-4.64.41-2.55,4-2.59,9-2.76,13.6.38,17.1,8,33.26,18,46.84-1.82,7.55-5.84,14.3-8.12,21.69a141.82,141.82,0,0,0-6,25.29c-1.65,11.65-3.66,23.39-2.65,35.19A69.93,69.93,0,0,0,134,206.11c1.17.42,2.38.73,3.57,1.07q5.91,2,12,3.49c9.85,2.46,19.79,5.83,30.09,4.69,5.12.09,10.24,0,15.35-.26,11.46-.7,23-.48,34.43-1,13.51-.86,27.06-.23,40.57-1.15,11.34-.56,22.71-.45,34.06-.61-3.15-2.29-6.55-4.29-9.28-7.09-1.52-1.53-2.77-3.88-1.62-6,1.42-3.21,5.29-4,8.41-4.57a88.45,88.45,0,0,1,15.35-.31c3.57.14,5.07,4.54,4.45,7.56-1.08,4-4.46,6.81-7.17,9.78,15.61-.09,31.2-.87,46.8-1.36,6.33.13,12.68,0,19-.47,8.51-.37,17-.14,25.55-.76a74.09,74.09,0,0,0,12.19-.23c-.24-6.92.34-13.91-.83-20.77a198.4,198.4,0,0,0-4.19-30.9c-2.56-14.31-7.67-28-12.5-41.6A181.4,181.4,0,0,0,407.09,81a48.21,48.21,0,0,0-1.29-17c-2.1.25-4.44.16-6.09,1.69-5.57,4-8.08,10.54-12.5,15.5-4.07,4.53-10.16,6.12-15.78,7.74-2.64-.94-5.63-.94-8.06-2.4-2.13-2.31-1-6.89,2.17-7.68,4.74-1.06,10.48-.29,14-4.28,4.3-4.7,7.5-10.27,11.39-15.31-8.6,3.14-17.75,5.8-27,4.83-5.55-1.44-10.14-5.22-15.55-7.1-19.63-9.62-41.25-14.81-63-16.48C267,39.73,248.3,40.5,230.33,45ZM79.82,87.73c-18.6,1.24-37.25,2-55.74,4.4,2.68,6.91,6.44,13.33,9.8,19.93,10.61,20.84,20.93,41.84,31.47,62.72,7,0,13.89-.44,20.84-.48,7.68-.83,15.45-.24,23.11-1.07,2-3.7,1.87-8.1,2.74-12.14,2.16-11.39,5-22.76,9.68-33.39a31.06,31.06,0,0,0,2.34-6.71c-1.45-4.53-4.64-8.22-6.61-12.52-3.59-6.62-5.81-13.82-8-21C99.62,86.2,89.66,87,79.82,87.73Zm331.61,25.55c-.79,3.85,1,7.5,2.27,11a232.55,232.55,0,0,1,12.79,57.35c.28,1.44.28,3.28,1.84,4,3.21,2,6.86,3.14,10.24,4.83,5,2.3,9.37,5.55,13.74,8.81a65.84,65.84,0,0,0,5-8c9.82-18.14,19.6-36.52,25.68-56.32,1-3.77,2.34-7.69,1.75-11.64-2.85-2.64-6.74-3.63-10.31-4.89-14.28-4.42-29.08-7-43.23-11.81-5.78-2-11.06-5.08-16.4-8C413.62,103.54,412.26,108.36,411.43,113.28ZM80.75,185c8.86,5.13,18.55,8.62,27.86,12.82.11-4.64.14-9.29.13-13.94A139.36,139.36,0,0,0,80.75,185Zm-26.5,19.32c-9.18,16.28-19,32.25-26.44,49.47-1.7,3.76-3.64,7.4-5.54,11.05,9.4,7,19.36,13.26,29.06,19.87,12.42,8,24.76,16.13,37.62,23.42,5.78,3.14,11.4,6.68,17.66,8.79,8.87-14.43,17.71-28.91,27.59-42.68,7.42-9.91,13.55-20.7,19.59-31.49,3.21-6,6.93-11.83,9.16-18.33-28.22-6.73-56.2-15.2-82.31-28-5.59-2.74-10.87-6.07-16.56-8.61C60.45,193.06,57.51,198.77,54.25,204.29ZM427.91,197a85.88,85.88,0,0,0-.13,11.23c6,.27,12.15.87,18-.78C440.94,202.31,434.43,199.32,427.91,197ZM425,218.63c-10.36-.3-20.68,1-31,.78-7.66-.11-15.26,1-22.91,1.06-11.35.21-22.72-.06-34.05.78-12.34.21-24.68.16-37,.86-11.64.61-23.33-.13-34.95,1-15,.62-30,.33-45,1.23-14.74-.21-29.44.94-44.18,1.18,2.51,5.19,6,9.8,9,14.67a613.31,613.31,0,0,1,31.35,56.55c3.58,7.56,6.94,15.24,10.78,22.68a103.4,103.4,0,0,0,16.5-.67c13.86-.73,27.74-1.09,41.59-2.11,41.27-2.79,82.63-3.86,123.94-6,11.33-.18,22.66-.47,34-.94,15.86-.49,32.22,1.3,47.61-3.44-5-12.65-10.65-25-16.56-37.3a404.87,404.87,0,0,0-25.45-47.5c-1-1.27-1.77-3.32-3.69-3.26C438.27,218,431.64,218.84,425,218.63ZM144.73,276.76Q131.64,294.88,120,314c-2.53,4.1-4.51,8.63-7.86,12.17-2.3,2.43-6,1.48-8.77.49-13.6-5.51-25.65-14.05-38.51-21-.32,5.09-.29,10.2-.25,15.3q.06,40.5,0,81a22.6,22.6,0,0,0,.74,6.61c1.15,2.1,3.18,3.51,5,5,7.62,5.7,15.11,11.62,23.27,16.55,8.83,6.35,18.49,11.45,28.13,16.44,8,3.4,16.07,6.64,23.5,11.14,5.18,3,9.94,6.68,15,9.88a120.29,120.29,0,0,0,4.06-17.89c.89-5.72-.56-11.64.95-17.27a25.6,25.6,0,0,1,5.71-2.18c1.23,2.14,3.39,4,3.36,6.63a89.37,89.37,0,0,1,0,10.09c-.2,8.25-3.46,16-3.78,24.28,8.48.42,16.91-1.1,25.39-.88,26.68-.6,53.3-2.25,80-3.46,23.68-1.18,47.39-1.81,71-3.56,15.7-.69,31.41-1.4,47.06-2.83,14.32-1,28.67-1.68,42.94-3.34,6.06-.84,12.51-.4,18.19-2.94,1-4.31.66-8.8.35-13.17C454.91,433.2,451,426,450.62,418c-.5-12.38.73-24.72.87-37.09.64-7.91,1.54-15.81,1.75-23.76,1.48-12.34,1.84-24.78,2.67-37.18-12-1-23.94.28-35.91.38-12.79-.26-25.54.82-38.31,1.41-7.57.05-15.11.89-22.67,1.16-8.2,1-16.48.36-24.69,1.28-4.77.47-9.57.29-14.35.57-13.75,1.26-27.57,1-41.33,2a141.8,141.8,0,0,1-15.83.58l.08.86c-13-.12-25.95,1.68-38.95,1.75-2.86.38-4.61-2.08-5.56-4.4a598.28,598.28,0,0,0-32.18-63.82c-3.38-5.46-6.1-11.39-10.39-16.23-.37,3.64-.95,7.44.16,11a65.81,65.81,0,0,0-.59,8.42c.21,34.68.39,69.36.21,104a17.24,17.24,0,0,1-.81,5.76c-1,1.63-2.7,2.64-4.12,3.86a32.86,32.86,0,0,1-4.46-3.1,14,14,0,0,1-.67-4.5c.23-42.38.33-84.77-.89-127.14C158.24,255,152.18,266.32,144.73,276.76Z"/>
  <path class="cls-4" d="M179.8,63.85a96.85,96.85,0,0,1,17.92-8.54c7.62,8.54,18,13.77,28,18.9,9.33,4.45,19.71,8.32,26.11,16.92,3.79,4.89,3.7,12,.4,17.15-4.19,6.61-11.21,10.69-18.19,13.79-8.6,3.83-17.32,7.4-26.05,10.93a296.41,296.41,0,0,0-41.46,21.57c-6.35,4-10.33,10.48-14.44,16.52-7.51,10.8-9.95,24-14.53,36.09-1.19-.34-2.4-.65-3.57-1.07-3.54-2.05-4.93-6.05-5.22-9.93A167.75,167.75,0,0,1,133.15,138c1.88-6,3.32-12.16,2.89-18.47,2.28-6,6.4-11.11,10.43-16.06,3.57-4.36,7.74-8.38,12.83-10.9a59.6,59.6,0,0,1,6.67-.85c.46-2,2.08-4.26.51-6.12-1.7-2.31-4.71-2.93-7.22-4-5.18-1.8-10.71-4.35-13.26-9.53s-5.16-10.07-8-15c9.69,2.68,18.61,8.48,28.91,8.6C171.26,65.76,176,66.26,179.8,63.85Zm14.61,42.62c-3.95,1.63-8.52,3.32-10.81,7.17-1.8,3.31,1.31,7.71,5,6.76a55.93,55.93,0,0,0,11.73-6c2.08-1.26,4-3.67,2.79-6.19C201.73,104.7,197.25,105.37,194.41,106.47Z"/>
  <path class="cls-5" d="M120.39,58.42c.85-1.83,3.27-1.26,4.64-.41,8.71,6.64,9.63,19,18,25.95,4.62,4.22,10.64,6.21,16.27,8.64-5.09,2.52-9.26,6.54-12.83,10.9-4,5-8.15,10-10.43,16.06l-.46-.7c-10-13.58-17.57-29.74-18-46.84C117.8,67.44,117.84,62.41,120.39,58.42Z"/>
  <path class="cls-6" d="M348.43,57c5.41,1.88,10,5.66,15.55,7.1,9.25,1,18.4-1.69,27-4.83-3.89,5-7.09,10.61-11.39,15.31-3.57,4-9.31,3.22-14,4.28-3.16.79-4.3,5.37-2.17,7.68C365.8,88,368.79,88,371.43,89c6.49,2.48,12.72,6,17.48,11.14a82.33,82.33,0,0,1,11.31,15.55c4.83,13.64,9.94,27.29,12.5,41.6a198.4,198.4,0,0,1,4.19,30.9c-2.65-14-9.88-28.11-22.47-35.59-14.94-9.55-31.33-16.47-46.57-25.46-9.57-6.09-19.06-13.14-25.07-23-3.49-5.57-4.38-13.26-.55-18.89,4-5.68,10.45-8.87,15.35-13.67C342.13,67.47,345.44,62.28,348.43,57Zm11,50.51c-2.44,2.13-3.23,7.24.13,8.85,4,2,8.56,3.6,13.12,3.25,3.26-.51,3.43-4.56,2.74-7.1A18.17,18.17,0,0,0,359.47,107.52Z"/>
  <path class="cls-7" d="M399.71,65.71c1.65-1.53,4-1.44,6.09-1.69a48.21,48.21,0,0,1,1.29,17,181.4,181.4,0,0,1-6.87,34.62,82.33,82.33,0,0,0-11.31-15.55c-4.76-5.13-11-8.66-17.48-11.14,5.62-1.62,11.71-3.21,15.78-7.74C391.63,76.25,394.14,69.66,399.71,65.71Z"/>
  <g>
    <path class="cls-8" d="M79.82,87.73c9.84-.78,19.8-1.53,29.64-.25,2.18,7.17,4.4,14.37,8,21,2,4.3,5.16,8,6.61,12.52a31.06,31.06,0,0,1-2.34,6.71c-4.71,10.63-7.52,22-9.68,33.39-.87,4-.71,8.44-2.74,12.14-7.66.83-15.43.24-23.11,1.07,3.73-16.26,5.18-33.62,14-48.18,1.25-2.38,2.8-5,2.3-7.77-.68-4.7-2.54-9.15-2.95-13.9-.49-5.5.19-11,.4-16.51C93.24,87.57,86.52,87.56,79.82,87.73Z"/>
    <path class="cls-8" d="M175.82,245.56c4.29,4.84,7,10.77,10.39,16.23a598.28,598.28,0,0,1,32.18,63.82c1,2.32,2.7,4.78,5.56,4.4,13-.07,25.93-1.87,38.95-1.75.59,6.63,1.45,13.25,2.21,19.87q-28,3.15-56.2,4.11c-2.62-.17-6,0-7.61-2.53-2.37-3.91-3-8.57-4-12.94-1.92-9.57-5.22-18.77-7.89-28.14-3.6-12.41-7.15-24.88-9.42-37.62a83.82,83.82,0,0,0-4-14.43C174.87,253,175.45,249.2,175.82,245.56Z"/>
  </g>
  <g>
    <path class="cls-9" d="M24.08,92.13c18.49-2.4,37.14-3.16,55.74-4.4,6.7-.17,13.42-.16,20.12.21-.21,5.5-.89,11-.4,16.51.41,4.75,2.27,9.2,2.95,13.9.5,2.82-1,5.39-2.3,7.77-8.82,14.56-10.27,31.92-14,48.18-7,0-13.89.48-20.84.48C54.81,153.9,44.49,132.9,33.88,112.06,30.52,105.46,26.76,99,24.08,92.13Z"/>
    <path class="cls-9" d="M425,218.63c6.64.21,13.27-.64,19.9-.42,1.92-.06,2.68,2,3.69,3.26A404.87,404.87,0,0,1,474,269c5.91,12.25,11.56,24.65,16.56,37.3-15.39,4.74-31.75,3-47.61,3.44-11.32.47-22.65.76-34,.94-41.31,2.11-82.67,3.18-123.94,6-13.85,1-27.73,1.38-41.59,2.11a103.4,103.4,0,0,1-16.5.67c-3.84-7.44-7.2-15.12-10.78-22.68a613.31,613.31,0,0,0-31.35-56.55c-3-4.87-6.52-9.48-9-14.67,14.74-.24,29.44-1.39,44.18-1.18,15-.9,30-.61,45-1.23,11.62-1.11,23.31-.37,34.95-1,12.33-.7,24.67-.65,37-.86,11.33-.84,22.7-.57,34.05-.78,7.65-.08,15.25-1.17,22.91-1.06C404.32,219.6,414.64,218.33,425,218.63Z"/>
    <path class="cls-9" d="M176,256.58A83.82,83.82,0,0,1,180,271c2.27,12.74,5.82,25.21,9.42,37.62,2.67,9.37,6,18.57,7.89,28.14,1.06,4.37,1.66,9,4,12.94,1.6,2.53,5,2.36,7.61,2.53q28.16-1,56.2-4.11c2.51,14.42,2.52,29.21,6,43.46.89,2.9,1.94,7.54,5.88,7.15,7.65-.79,15.14-2.75,22.81-3.48,21.8-4.31,43.43-9.57,65.45-12.67,7.48-1,14.92-2.27,22.37-3.43a29.22,29.22,0,0,0,.24-10.79c-1.43-8.29-2.43-16.64-3.63-25,8.76-2.32,17.86-2.32,26.83-3.06,14.18-1,28.42-1.25,42.63-1-.21,5.95-.35,11.91-.46,17.87-.21,7.95-1.11,15.85-1.75,23.76-.14,12.37-1.37,24.71-.87,37.09.33,7.94,4.29,15.18,4.88,23.09.31,4.37.64,8.86-.35,13.17-5.68,2.54-12.13,2.1-18.19,2.94-14.27,1.66-28.62,2.35-42.94,3.34-15.65,1.43-31.36,2.14-47.06,2.83-23.64,1.75-47.35,2.38-71,3.56-26.65,1.21-53.27,2.86-80,3.46-8.48-.22-16.91,1.3-25.39.88.32-8.24,3.58-16,3.78-24.28a89.37,89.37,0,0,0,0-10.09c0-2.66-2.13-4.49-3.36-6.63a33.51,33.51,0,0,1-.76-14.54c1.56-4.68,3.29-9.74,1.58-14.65-2.65-7.2-2.42-15-1.15-22.44,1.42-1.22,3.12-2.23,4.12-3.86a17.24,17.24,0,0,0,.81-5.76c.18-34.68,0-69.36-.21-104A65.81,65.81,0,0,1,176,256.58ZM415.72,413.7c-2.6,5.53-5.58,11.81-3.61,18,1.88,1.75,4.82,1.63,6.9,3.13,1,2.72,1.52,5.6,2.26,8.41,1.85-.15,4.2.17,5.29-1.74,1-2.66.38-5.64.42-8.42,2.86-1.75,8.24-2.66,7.48-7-.58-5.51-3.75-10.26-6.67-14.8-1.35-1.88-3-4.47-5.66-4C418.66,407.46,417.11,411,415.72,413.7Zm-158,7.4a15.94,15.94,0,0,0,2.5,11.67c2.33,3.36,6.63,4.1,9.92,6.13.82,1.69.48,3.69.65,5.52-3.83.77-8.52.06-11.55,2.94-.14,1.9.23,4.9,2.75,4.82,5.31.57,10.6-.8,15.92-.82,4.28-.37,8.89.18,12.84-1.8,1.11-1.91.5-5.09-2-5.38-3.57-.75-7.25-.46-10.86-.56q.06-1.69.27-3.36c2.32-2.19,5.65-2.89,8.07-5a15.85,15.85,0,0,0,5.35-14.88c-.47-2-2.88-2.32-4.57-2.56-7.38-.66-14.75.67-22.13.52C262.41,418.53,258.76,418.08,257.76,421.1Zm-24.33,4.28c-4.64.44-9.27,1.44-13.94,1.11-2.26-1.24-3.15-4.1-4.64-6.12-5.49,0-7,6-8.08,10.26-1,6.15-1.4,13.09,2,18.61,2.77,4.42,8.39,5.41,13.18,5.93,7,.48,15.06-.68,19.7-6.49,3.6-4,3.12-9.74,3.2-14.73,0-4.69-.74-10.09-4.57-13.28C236.87,418.8,235.17,423.28,233.43,425.38Z"/>
  </g>
  <path class="cls-10" d="M411.43,113.28c.83-4.92,2.19-9.74,3.4-14.58,5.34,2.89,10.62,6,16.4,8,14.15,4.84,28.95,7.39,43.23,11.81,3.57,1.26,7.46,2.25,10.31,4.89.59,3.95-.71,7.87-1.75,11.64-6.08,19.8-15.86,38.18-25.68,56.32a65.84,65.84,0,0,1-5,8c-4.37-3.26-8.78-6.51-13.74-8.81-3.38-1.69-7-2.82-10.24-4.83-1.56-.72-1.56-2.56-1.84-4A232.55,232.55,0,0,0,413.7,124.3C412.44,120.78,410.64,117.13,411.43,113.28Z"/>
  <path class="cls-11" d="M194.41,106.47c2.84-1.1,7.32-1.77,8.73,1.75,1.17,2.52-.71,4.93-2.79,6.19a55.93,55.93,0,0,1-11.73,6c-3.71.95-6.82-3.45-5-6.76C185.89,109.79,190.46,108.1,194.41,106.47Z"/>
  <path class="cls-12" d="M359.47,107.52a18.17,18.17,0,0,1,16,5c.69,2.54.52,6.59-2.74,7.1-4.56.35-9.08-1.26-13.12-3.25C356.24,114.76,357,109.65,359.47,107.52Z"/>
  <path class="cls-13" d="M135.58,118.86l.46.7c.43,6.31-1,12.5-2.89,18.47a167.75,167.75,0,0,0-4.37,58.15c.29,3.88,1.68,7.88,5.22,9.93A69.93,69.93,0,0,1,118.81,201c-1-11.8,1-23.54,2.65-35.19a141.82,141.82,0,0,1,6-25.29C129.74,133.16,133.76,126.41,135.58,118.86Z"/>
  <g>
    <path class="cls-14" d="M292.34,155.44c12.37-2.74,24.42,5.34,31,15.25,2.57,4.25.46,9.67-2.57,13.07-3.35,2.54-7.82,2.65-11.83,3.09a240.48,240.48,0,0,1-29.41-.24c-3.27-.45-7.56-.51-9.17-4-2.64-4.29-.76-9.53,2.11-13.16C277.52,163,283.89,156.65,292.34,155.44Z"/>
    <path class="cls-14" d="M377,197.09a39.14,39.14,0,0,1,18.6-.48c5.82,1.36,8.29,7.42,9.95,12.53-8.51.62-17,.39-25.55.76-6.32.47-12.67.6-19,.47C365.34,205,370.09,199.2,377,197.09Z"/>
  </g>
  <path class="cls-15" d="M360.43,165.4c4.64-2.15,9.61.39,13.82,2.4a56.39,56.39,0,0,1,11.9,8c2.27,1.95,2.24,6.38-.76,7.64-3.26,2.15-6.52-1-9.2-2.64-3.89-2.43-7.91-6.42-12.88-5.39-6.71,1.88-9.93,8.87-15.62,12.25a4.7,4.7,0,0,1-5.77-6.82A43.89,43.89,0,0,1,360.43,165.4Z"/>
  <path class="cls-16" d="M218.6,170.71c3.58-1.57,7.14.82,10.25,2.39,5.18,3,10.94,5.48,15,10,2.34,3.19.3,8.07-3.86,8.11-6.45-2.5-11.3-8.24-18.13-10-4.91.75-9.2,3.78-13.44,6.22-3.43,1.95-6.47,6.24-10.89,5a6,6,0,0,1-2.81-5.4c1.39-3.74,5-6,8.15-8.12A172.48,172.48,0,0,1,218.6,170.71Z"/>
  <path class="cls-17" d="M80.75,185a139.36,139.36,0,0,1,28-1.12c0,4.65,0,9.3-.13,13.94C99.3,193.59,89.61,190.1,80.75,185Z"/>
  <g>
    <path class="cls-18" d="M54.25,204.29c3.26-5.52,6.2-11.23,9.83-16.52,5.69,2.54,11,5.87,16.56,8.61,26.11,12.81,54.09,21.28,82.31,28-2.23,6.5-5.95,12.3-9.16,18.33-6,10.79-12.17,21.58-19.59,31.49-9.88,13.77-18.72,28.25-27.59,42.68-6.26-2.11-11.88-5.65-17.66-8.79-12.86-7.29-25.2-15.42-37.62-23.42-9.7-6.61-19.66-12.84-29.06-19.87,1.9-3.65,3.84-7.29,5.54-11.05C35.2,236.54,45.07,220.57,54.25,204.29Z"/>
    <path class="cls-18" d="M144.73,276.76c7.45-10.44,13.51-21.76,19.92-32.84,1.22,42.37,1.12,84.76.89,127.14a14,14,0,0,0,.67,4.5,32.86,32.86,0,0,0,4.46,3.1c-1.27,7.46-1.5,15.24,1.15,22.44-1.62-1.52-3.71-3.65-6.14-2.56-2.64.88-3,4-3.23,6.4-.11,3-.22,6.35,1.59,8.92a36.71,36.71,0,0,0,6.2,1.89,33.51,33.51,0,0,0,.76,14.54,25.6,25.6,0,0,0-5.71,2.18c-1.51,5.63-.06,11.55-.95,17.27a120.29,120.29,0,0,1-4.06,17.89c-5.06-3.2-9.82-6.87-15-9.88-7.43-4.5-15.53-7.74-23.5-11.14a43.75,43.75,0,0,0,2-14.56c0-15.1,3.25-30.23.92-45.3-2.56-.33-5.35-.06-7.72-1.22-2.1-2.23-3.23-5.16-4.68-7.81l-6.57-.61c-1.91-2.93-3-8.4-7.43-7.89-3.44.16-3.51,4.14-3.65,6.71-.15,7.1.32,14.22-.36,21.3-1,11-.47,22-.59,32.94-8.16-4.93-15.65-10.85-23.27-16.55-1.82-1.49-3.85-2.9-5-5a22.6,22.6,0,0,1-.74-6.61q0-40.5,0-81c0-5.1-.07-10.21.25-15.3,12.86,6.91,24.91,15.45,38.51,21,2.76,1,6.47,1.94,8.77-.49,3.35-3.54,5.33-8.07,7.86-12.17Q131.66,294.91,144.73,276.76Z"/>
  </g>
  <path class="cls-19" d="M427.91,197c6.52,2.37,13,5.36,17.9,10.45-5.88,1.65-12,1-18,.78A85.88,85.88,0,0,1,427.91,197Z"/>
  <path class="cls-20" d="M190,203c13.53-5.93,31.56-1.88,39.47,11.14-11.47.51-23,.29-34.43,1-5.11.3-10.23.35-15.35.26C181.91,210.45,184.73,205.21,190,203Z"/>
  <path class="cls-21" d="M381.69,321.78c12.77-.59,25.52-1.67,38.31-1.41,12-.1,23.95-1.38,35.91-.38-.83,12.4-1.19,24.84-2.67,37.18.11-6,.25-11.92.46-17.87-14.21-.21-28.45,0-42.63,1-9,.74-18.07.74-26.83,3.06C383.34,336.2,382.16,329,381.69,321.78Z"/>
  <path class="cls-22" d="M359,322.94c7.56-.27,15.1-1.11,22.67-1.16.47,7.25,1.65,14.42,2.55,21.62-3.71-.14-7.43-.25-11.15-.21-3.08-6.8-7.31-13.74-14.23-17.16a6.92,6.92,0,0,0-8.86,2.9c-2.92,5-3.63,10.89-5.35,16.34-11.5.33-23,1-34.5.67-4.53-3.5-7.88-9.78-14.16-10.05-6.09-.2-7.64,6.81-9.93,11.1-7,.2-14,.67-20.95,1.14-.76-6.62-1.62-13.24-2.21-19.87l-.08-.86a141.8,141.8,0,0,0,15.83-.58c13.76-1,27.58-.77,41.33-2,4.78-.28,9.58-.1,14.35-.57C342.54,323.3,350.82,323.94,359,322.94Z"/>
  <g>
    <path class="cls-23" d="M350,328.93a6.92,6.92,0,0,1,8.86-2.9c6.92,3.42,11.15,10.36,14.23,17.16-3.36.3-6.71.62-10.07.93-2-2.42-3.86-4.89-5.89-7.25-.63,2.46-1.2,4.92-1.69,7.41q-5.4.48-10.79,1C346.37,339.82,347.08,333.93,350,328.93Z"/>
    <path class="cls-23" d="M286.06,347c2.29-4.29,3.84-11.3,9.93-11.1,6.28.27,9.63,6.55,14.16,10.05C302.13,346.37,294.1,346.77,286.06,347Z"/>
  </g>
  <path class="cls-24" d="M357.13,336.87c2,2.36,3.92,4.83,5.89,7.25,1.52,1.54,3.26,3.73,5.72,3.15,1.81-.89,3-2.67,4.35-4.08,3.72,0,7.44.07,11.15.21,1.2,8.33,2.2,16.68,3.63,25a29.22,29.22,0,0,1-.24,10.79c-7.45,1.16-14.89,2.42-22.37,3.43-22,3.1-43.65,8.36-65.45,12.67-7.67.73-15.16,2.69-22.81,3.48-3.94.39-5-4.25-5.88-7.15-3.49-14.25-3.5-29-6-43.46,7-.47,14-.94,20.95-1.14-.72,4.41-2.13,8.87-1.42,13.36.58,3.66,6.28,4.72,8,1.44,2.09-4.46,2.53-9.47,3.93-14.16,4.26,2.3,6.71,6.59,10.18,9.77,2.76,2.51,7.49.08,7.57-3.51,0-3.17-2.47-5.54-4.21-7.95,11.51.31,23-.34,34.5-.67,1.05,2.84,2.13,7.34,6.15,6.46,3.95,0,4-4.62,4.64-7.45C355.93,341.79,356.5,339.33,357.13,336.87ZM335.37,355.3c-3.51.6-7.14,1.1-10.34,2.72-3.26,2.21-1.84,8.27,2.22,8.55a33.18,33.18,0,0,0,14.35-3c3.17-1.53,2.66-6.44,0-8.15C339.59,354.6,337.41,355.11,335.37,355.3Z"/>
  <path class="cls-25" d="M363,344.12c3.36-.31,6.71-.63,10.07-.93-1.38,1.41-2.54,3.19-4.35,4.08C366.28,347.85,364.54,345.66,363,344.12Z"/>
  <path class="cls-26" d="M344.65,345.27q5.39-.51,10.79-1c-.67,2.83-.69,7.41-4.64,7.45C346.78,352.61,345.7,348.11,344.65,345.27Z"/>
  <path class="cls-27" d="M286.06,347c8-.22,16.07-.62,24.09-1.05,1.74,2.41,4.21,4.78,4.21,7.95-.08,3.59-4.81,6-7.57,3.51-3.47-3.18-5.92-7.47-10.18-9.77-1.4,4.69-1.84,9.7-3.93,14.16-1.76,3.28-7.46,2.22-8-1.44C283.93,355.86,285.34,351.4,286.06,347Z"/>
  <path class="cls-28" d="M335.37,355.3c2-.19,4.22-.7,6.19.08,2.7,1.71,3.21,6.62,0,8.15a33.18,33.18,0,0,1-14.35,3c-4.06-.28-5.48-6.34-2.22-8.55C328.23,356.4,331.86,355.9,335.37,355.3Z"/>
  <path class="cls-29" d="M94.6,375.93c.14-2.57.21-6.55,3.65-6.71,4.45-.51,5.52,5,7.43,7.89l6.57.61c1.45,2.65,2.58,5.58,4.68,7.81,2.37,1.16,5.16.89,7.72,1.22,2.33,15.07-.88,30.2-.92,45.3a43.75,43.75,0,0,1-2,14.56c-9.64-5-19.3-10.09-28.13-16.44.12-11-.4-22,.59-32.94C94.92,390.15,94.45,383,94.6,375.93Z"/>
  <path class="cls-30" d="M165.68,398.54c2.43-1.09,4.52,1,6.14,2.56,1.71,4.91,0,10-1.58,14.65a36.71,36.71,0,0,1-6.2-1.89c-1.81-2.57-1.7-5.93-1.59-8.92C162.66,402.56,163,399.42,165.68,398.54Z"/>
  <path class="cls-31" d="M415.72,413.7c1.39-2.67,2.94-6.24,6.41-6.44,2.71-.49,4.31,2.1,5.66,4,2.92,4.54,6.09,9.29,6.67,14.8.76,4.39-4.62,5.3-7.48,7,0,2.78.61,5.76-.42,8.42-1.09,1.91-3.44,1.59-5.29,1.74-.74-2.81-1.25-5.69-2.26-8.41-2.08-1.5-5-1.38-6.9-3.13C410.14,425.51,413.12,419.23,415.72,413.7Z"/>
  <path class="cls-32" d="M257.76,421.1c1-3,4.65-2.57,7.16-2.74,7.38.15,14.75-1.18,22.13-.52,1.69.24,4.1.56,4.57,2.56a15.85,15.85,0,0,1-5.35,14.88c-2.42,2.09-5.75,2.79-8.07,5q-.21,1.67-.27,3.36c3.61.1,7.29-.19,10.86.56,2.5.29,3.11,3.47,2,5.38-4,2-8.56,1.43-12.84,1.8-5.32,0-10.61,1.39-15.92.82-2.52.08-2.89-2.92-2.75-4.82,3-2.88,7.72-2.17,11.55-2.94-.17-1.83.17-3.83-.65-5.52-3.29-2-7.59-2.77-9.92-6.13A15.94,15.94,0,0,1,257.76,421.1Z"/>
  <path class="cls-33" d="M233.43,425.38c1.74-2.1,3.44-6.58,6.86-4.71,3.83,3.19,4.53,8.59,4.57,13.28-.08,5,.4,10.74-3.2,14.73-4.64,5.81-12.72,7-19.7,6.49-4.79-.52-10.41-1.51-13.18-5.93-3.41-5.52-3-12.46-2-18.61,1-4.29,2.59-10.3,8.08-10.26,1.49,2,2.38,4.88,4.64,6.12C224.16,426.82,228.79,425.82,233.43,425.38Z"/>
</svg>
