<svg id="Layer_1" data-name="Layer 1" xmlns="http://www.w3.org/2000/svg" viewBox="0 0 501.13 492.74">
  <defs>
    <style>
      .cls-1 {
        fill: #c0bdbd;
      }

      .cls-2 {
        fill: #f7efed;
      }

      .cls-3 {
        fill: #091f2e;
      }

      .cls-4 {
        fill: #ee4a22;
      }

      .cls-5 {
        fill: #ba3f25;
      }
    </style>
  </defs>
  <g>
    <path class="cls-1" d="M0,0H.25L0,.25Z"/>
    <path class="cls-1" d="M22.41,236a16.39,16.39,0,0,1,7.16-15.26c-.42,6.79-.73,13.74,1.21,20.35a56.12,56.12,0,0,0,11.55,21.56c6.08,7.28,11.13,15.32,16.59,23.05-7.37-.95-14.32-3.71-20.84-7.16-2.7-2.42-3.86-6-5.51-9.15C27.8,258.76,23.36,247.68,22.41,236Z"/>
    <path class="cls-1" d="M143.15,243l.59.2c3,1,6.07,2.1,9.13,3.06.91.28,1.82.55,2.74.8,2.82,6.22,7.28,11.46,11.61,16.66,10.65,12.32,22.28,23.73,33.72,35.3a171,171,0,0,0,17,15.06c-5.73-1.84-10.92-5-16.15-7.87-19-10.83-36.46-24.66-50.59-41.45-2.57-3.4-5.69-6.49-7.56-10.36C143,250.68,143.38,246.84,143.15,243Z"/>
    <path class="cls-1" d="M356.4,271.3a36.6,36.6,0,0,1,8.17.06c-.87,3-2.1,6-4.66,7.93a33.83,33.83,0,0,1-3.62-.34A28.4,28.4,0,0,1,356.4,271.3Z"/>
    <path class="cls-1" d="M185.07,308.87c3,1.69,6,3.49,8.93,5.3-2.35,6.86-.21,14.05.76,20.95C188.22,328.13,184.36,318.49,185.07,308.87Z"/>
    <path class="cls-1" d="M314.56,313.65c3.26-.92,6.55.39,9.68,1.22,8.28,2.52,16.82,4,25.28,5.76,3.77.83,7.92,2.46,9.64,6.21,1.51,2.8-.82,5.69-2.81,7.51-4.49,3.82-10.42,5.13-15.84,7.09-3.6,1-7.51,2.88-11.23,1.27-6.77-2.59-12.5-7.36-17.3-12.7-3-3.28-4.82-8.05-3.42-12.46C309.9,315.48,312.28,314.36,314.56,313.65Z"/>
    <path class="cls-1" d="M51.58,315.2c6.1,2.69,12.7,3.69,19.3,4.15-.07,10.11,1.84,20.12,4.29,29.89a27.05,27.05,0,0,1-19-8.54,7.89,7.89,0,0,1-1.36-3.27C53.14,330.11,52.47,322.63,51.58,315.2Z"/>
    <path class="cls-1" d="M225.37,355.9c.62,6.37.26,12.82,1.39,19.14,2,10.55,4.87,21.25,11,30.24,4.75,6.92,8.25,14.75,14.21,20.79,3.57,4.06,8.46,8,8.6,13.9.3,7.13-.09,15,4.57,20.93,1.83,2.84,5.32,3.38,8.38,3.87a98.2,98.2,0,0,1,.29,11.12C267.72,475.3,261,473.94,257,469c-3.56-4.64-4.8-10.53-5.91-16.14-1-4.39-.4-9-1.82-13.32-1.56-3.52-4.1-6.47-6.11-9.72-9.79-15.31-17.23-32.58-18.71-50.86A129.16,129.16,0,0,1,225.37,355.9Z"/>
    <path class="cls-1" d="M64.92,377.47c6,1.24,12.28,2.43,18.45,1.33,3.86,9.23,7.81,18.51,13.8,26.6-7.53,1.13-15.71.9-22.23-3.51C70,394.53,68.15,385.63,64.92,377.47Z"/>
    <path class="cls-1" d="M127.46,400.41c1.83-7.74,6.44-14.29,11.24-20.46a81.24,81.24,0,0,0,6,29.39c1.58,4,3.94,8,3.78,12.5-.15,5.91-1.95,12-.14,17.78,1.6,4.46,6,7,9.83,9.28C172.2,456.54,187.7,463,204,462.44c9.41.37,18.78-1.06,28.18-.5A26.33,26.33,0,0,1,217,467.58a246.65,246.65,0,0,1-25.51-.27c-15.39-1.93-30.71-4.77-45.5-9.53-4.84-1.46-11.12-2.15-13.46-7.37-3.13-6.88-.13-14.42.77-21.37C130.1,419.86,126.55,410.33,127.46,400.41Z"/>
    <path class="cls-1" d="M218.09,413.6c1.24-1.24,2.47-2.47,3.72-3.68,1.08,2.65,2.19,5.29,3.15,8C222.61,416.57,220.3,415.16,218.09,413.6Z"/>
    <path class="cls-1" d="M326.83,416.78c1.1,6,.35,12.07,1.27,18,1.51,7.48,9.09,12,16.19,12.95a78.12,78.12,0,0,0,31.93-2.46c-6,4.41-12.82,7.44-19.72,10-7.4,2.45-14.87,5.18-22.73,5.59-.61-7.51-3.6-14.46-6.35-21.37C326.58,432,327.6,424.36,326.83,416.78Z"/>
    <path class="cls-1" d="M107.81,427.65c4.44-1.25,8.16-4.06,12.09-6.37,2.59,7.87-1.22,15.73-.43,23.72-10.14-1-19.13-6.88-26-14.13C98.24,429.71,103.1,429,107.81,427.65Z"/>
    <path class="cls-1" d="M397,441a57.37,57.37,0,0,0,9.18-17,49.65,49.65,0,0,0,.75,20.94,17.67,17.67,0,0,0,8.53,11.61c7.64,4.14,16.32,5.82,24.85,7-.17-1.89-.32-3.77-.54-5.65,2.31,3.21.68,7.25.14,10.76-10.27.35-20.43-2-30-5.52-6.94-2.54-12.18-8.66-14.39-15.62A6.17,6.17,0,0,1,397,441Z"/>
    <path class="cls-1" d="M323.52,458a21.44,21.44,0,0,1-2.08,13.35c-1.41,2.65-4.41,3.7-6.93,5a99.61,99.61,0,0,0-.24-12.58c.41,1.22.81,2.45,1.23,3.69C319.44,465.57,324.35,463.26,323.52,458Z"/>
    <path class="cls-1" d="M451.64,458.59c2.83.86,5.69,1.62,8.56,2.35a26.54,26.54,0,0,1-8.5,5.74A78,78,0,0,1,451.64,458.59Z"/>
    <path class="cls-1" d="M284.21,462c5.16,4.73,12.46,4.91,19,4.25l.16-3.49c1.61,4.37,2.56,10.16-.94,13.88-6.07.83-12.25,0-18.36.15C284.22,471.81,284.17,466.88,284.21,462Z"/>
  </g>
  <g>
    <path class="cls-2" d="M209.08,43.7c33-17.83,70.32-28.24,107.94-28.63A190.72,190.72,0,0,1,399.64,33.4c2.52,1.32,5.06-.48,7.33-1.45,8.76-4.06,17.62-8.25,27.13-10.14,6.53-1.29,13.28,1.51,17.85,6.15,4.9,5.29,7.23,12.32,9,19.16,3.88,16,3.4,32.57,3.09,48.91-.39,4.14,1.82,7.79,3.29,11.49,2.39,5.82,4.56,11.75,6.43,17.76,8,22,13.06,45,17.26,68,5.17,12,8.93,24.71,10.08,37.77A46.44,46.44,0,0,1,497.06,249c-6.91,17.34-18.66,32.28-31.73,45.38-4.93,4.92-10.48,9.11-15.77,13.61a66.69,66.69,0,0,1-.82,35.1,14.65,14.65,0,0,0,.1,8.91c5.48,18.71,8.64,38,11,57.32.77,4.33.71,8.79,1.75,13.09,6.66,6.94,13.61,14.58,15.51,24.35a27.25,27.25,0,0,1-1.4,17.85c-3.57,9.44-12.71,15.76-22.31,18-16.11,4.77-33.07.9-48.58-4.22-9.16-3.14-16.32-10.34-21.09-18.59a126.55,126.55,0,0,1-41.46,16.19c-2.5.75-5.78.48-7.34,3-3.87,5.24-9,9.89-15.41,11.64-11.51,3.58-23.66,1.73-35.48,1.85-11.51-.74-23.94-1.71-33.51-8.83-3.31-2.12-5.53-5.38-8-8.36-4-.21-7.1,3.27-10.72,4.6-6.81,3.16-14.41,3.81-21.8,4.4-18.3,0-36.49-2.81-54.26-7.12-9.53-2.48-19.2-5-27.81-10-2.46-1.44-4.22-3.73-6.45-5.45a62.5,62.5,0,0,1-25.58-8.5c-13-8.13-23-20.31-30.26-33.71-15.37-28.31-23.34-59.94-28.74-91.5-1-9.15-2.09-18.49-5.92-27-7-14.75-16-28.75-20.42-44.62C7.71,247.94,5.84,239,6.64,230.12c1.9-13.33,12.21-24.45,24.76-28.76,19.66-7.4,42.16-3.26,59.76,7.48a125.82,125.82,0,0,1,11.45,9.54c5.43,5.76,9.72,12.46,13.94,19.12,7.12,15.17,10.22,31.91,11.52,48.53,1.75,21.36-1.63,42.69-.92,64.05a142.88,142.88,0,0,1,39.49-38.5c3.34-1.43,2-5.39,2.24-8.22A176.82,176.82,0,0,1,152.11,289c-5.49-4.56-9.68-10.39-14.38-15.7-4.09-5.93-10.35-11.43-10.19-19.22-.83-35.3,5.36-70.39,14-104.51,2.82-10.7,5.51-21.45,9.1-31.92.91-2.26,1.75-4.76.9-7.17a215.94,215.94,0,0,1-10.4-39.14c-1.27-9-2.47-18.56.92-27.32,2.19-6.29,7.11-12.24,13.91-13.57,9.58-1.23,18.81,2.14,27.91,4.58C192.31,37.73,200.86,40.27,209.08,43.7ZM302,20.51A227.5,227.5,0,0,0,209.93,48.7c-13.72-4.65-27.33-9.79-41.49-12.94-5.35-.92-11.62-2.31-16.26,1.41-6.39,5.14-7.81,14.08-7.65,21.82,1.06,17.74,6.24,34.93,12.2,51.58,1.35,3.2-.82,6.37-1.62,9.43a478,478,0,0,0-20,86.11c-2.45,16.18-3,32.57-2.81,48.92-.18,3.63,2.49,6.43,4.42,9.23,10.44,14.46,23.56,26.78,37.71,37.55a43.62,43.62,0,0,0-1,10.88c-19.92,12.3-37.1,29.3-48.57,49.79-3.61-6.18-3.34-13.56-3.1-20.46.46-7.34.59-14.69,1.47-22,.78-17.6.94-35.39-2.34-52.77-3-16.68-9.67-33.25-21.79-45.43-12.58-13.17-31.11-20.17-49.24-19.35-11.08.31-22.5,4-30.47,12a28.77,28.77,0,0,0-8,23.52c1.33,12.95,5.8,25.41,11.66,37C27.88,285.4,34.23,295.12,38,306c3.15,8.85,3.13,18.38,4.84,27.53,4.52,25.72,11.14,51.3,22.45,74.93,5.76,11.67,12.49,23.17,22.14,32.08,9.24,9,21.45,15.54,34.52,16,2.21,0,3.49,2.15,5,3.49,3.47,3.89,8.56,5.59,13.26,7.5A234.41,234.41,0,0,0,180,477c15,2,30.46,4.13,45.3.19,6.91-1.72,12.26-6.85,19-9.08,2.56,4.18,4.83,8.79,9,11.65,8.55,6.31,19.62,6.9,29.82,7.69,11.49,0,23.23,1.66,34.5-1.29,6.91-1.75,12.33-7.08,15.48-13.32,17.29-2.59,34.3-8.3,49-17.82,1.22-.94,2.81-.76,4.25-.91,3.89,8.72,10.74,16.45,19.93,19.66,16,5.56,34.1,8.83,50.46,2.79a25.15,25.15,0,0,0,16.55-20.94c.62-9-3.91-17.54-9.7-24.18-2.15-2.75-5.37-4.77-6.84-8-2.79-25.17-6-50.51-13.63-74.75-.62-1.45,0-2.93.38-4.34,3.88-12.28,4.88-26.06.42-38.31a155.45,155.45,0,0,0,43.58-47.68c4.34-8.56,8.93-17.58,9-27.41a104.5,104.5,0,0,0-4.89-23.51c-1.89-6.25-5.73-11.9-6.17-18.55a404.7,404.7,0,0,0-25.58-87.48c-1.61-3.34-.4-7-.43-10.49.33-13.18.2-26.49-2.16-39.5-1.64-8-4-16.69-10.64-22-4.75-3.85-11.42-3.63-16.94-1.78a183.25,183.25,0,0,0-27.64,12A188.07,188.07,0,0,0,302,20.51Z"/>
    <path class="cls-2" d="M258.16,40.29A215.94,215.94,0,0,1,306,31.44c8.65-.15,17.31-.28,26,.17A171.8,171.8,0,0,1,378.14,41.7c-5.49,4-10.56,8.87-13.33,15.18-4.42,9.65-3.59,21.82,3,30.31,5.58,7.13,13,12.54,20.3,17.79,15.22,10.1,31.25,18.91,47.22,27.76,7.64,4,13.18,10.84,18.33,17.59,7.12,8.9,12.52,19,18,28.93,3.37,7.38,2.31,16,5.95,23.26,4.7,11.09,8.81,23.2,6.75,35.39-2.62,9.47-7.93,17.91-13.55,25.86-9.41,13.39-21.6,24.6-34.66,34.37-4.45,3.35-9.53,5.73-14,9-3.95,2.81-1.08,10.08,3.8,9.24,3.05-.95,5.74-2.77,8.53-4.28a55.7,55.7,0,0,1-2.71,32.44,6.23,6.23,0,0,0-.41,4.12c8.68,25.18,11.49,51.86,14.56,78.17.56,3.3,3.09,5.65,5.42,7.85,4.26,4,8.19,8.67,10,14.33.83,4,.8,8.27-1.15,11.91-2.87-.73-5.73-1.49-8.56-2.35-.75-3.67-2-7.88-5.73-9.54-2.43-1.39-5.05.48-6.44,2.46-.51,2.11,0,4.27.3,6.38.22,1.88.37,3.76.54,5.65-8.53-1.15-17.21-2.83-24.85-7A17.67,17.67,0,0,1,406.93,445a49.65,49.65,0,0,1-.75-20.94c1.27-5.86,3.39-12,2-17.95-1-3.27-4.73-3.32-7.45-2.58-2.61,1.56-2.37,4.85-2.8,7.46a39.69,39.69,0,0,1-11.76,26.19c-3.12,2.93-6,6.32-9.93,8.17a78.12,78.12,0,0,1-31.93,2.46c-7.1-1-14.68-5.47-16.19-12.95-.92-6-.17-12.07-1.27-18-.47-6.78-.1-13.65-1.47-20.35a4.65,4.65,0,0,0-5.24-3c-2.82,0-4.26,3-3.88,5.5.49,13.26.31,26.54.6,39.81,1.22,6.72,5.54,12.46,6.68,19.27.83,5.27-4.08,7.58-8,9.43-.42-1.24-.82-2.47-1.23-3.69-1.11-3.18-2-8.25-6.3-8.19-3.65.08-5.11,4-4.56,7.17l-.16,3.49c-6.58.66-13.88.48-19-4.25-1-1.47-1.84-3-2.77-4.5-1.95.19-4.4-.58-5.85,1.11-1.72,1.55-1.95,4-2.1,6.21-3.06-.49-6.55-1-8.38-3.87-4.66-5.95-4.27-13.8-4.57-20.93-.14-5.87-5-9.84-8.6-13.9-6-6-9.46-13.87-14.21-20.79-6.1-9-8.94-19.69-11-30.24-1.13-6.32-.77-12.77-1.39-19.14-1.6-1.14-3.09-3-5.3-2.61-2.63-.26-4.29,2.48-4.58,4.78C213,371.34,214.74,385,217.65,398c-3.65,5.93-9.8,9.64-14.89,14.21a12.34,12.34,0,0,0,0,5.67c1,1.92,3.33,2.34,5.14,3.21a89.34,89.34,0,0,1,21,12.07,33,33,0,0,1,7,9.65c1.8,6.33,2.6,15-3.69,19.14-9.4-.56-18.77.87-28.18.5-16.3.52-31.8-5.9-45.86-13.54-3.86-2.29-8.23-4.82-9.83-9.28-1.81-5.82,0-11.87.14-17.78.16-4.48-2.2-8.46-3.78-12.5a81.24,81.24,0,0,1-6-29.39c6.62-6.58,15.18-10.81,24.11-13.29a45.26,45.26,0,0,0,19.86-11.09c3.2-2.93,4.66-7.14,5.54-11.27,2,1.79,3.75,4.67,6.8,4.46,3.08.52,5.83-2.77,5.38-5.71-1-3.19-3.93-5.17-5.63-7.93-1-6.9-3.11-14.09-.76-20.95,9.77,5.45,19.74,10.79,30.36,14.39,4.61,1.83,9.49-4,6.12-8-3.42-3.34-8.67-3.77-12.55-6.47a171,171,0,0,1-17-15.06c-11.44-11.57-23.07-23-33.72-35.3-4.33-5.2-8.79-10.44-11.61-16.66,6.57.3,13.59-.47,19.17-4.25,6.61-4.28,10.9-11.39,13.07-18.84,2.83-10.09,4.91-20.38,7.36-30.57,2-8.37,7-15.52,11.8-22.47,4.76-6.73,9.48-13.71,16.12-18.75,14.77-11.09,31.93-18.23,48.16-26.84a114.39,114.39,0,0,0,21-14.08c7.88-7,13.58-16.73,14.7-27.31a33.29,33.29,0,0,0-8.15-23.82c-5.29-6.58-13.07-10.53-20.95-13.11-9.61-3.14-20-5.18-30-3.28C251.45,43,254.74,41.46,258.16,40.29ZM418.42,156.78c-6.92,1.58-11.68,7.88-13.23,14.55-2.91,12-2.08,25.15,3.16,36.46,3.11,6.33,9.34,10.64,16,12.63,5.79.57,12.38-.15,16.75-4.38,6.53-5.61,8.95-14.68,8.69-23,.18-11.09-2.69-23-10.8-31C433.57,156.81,425.62,155.36,418.42,156.78Zm-158.09,7.47a27.11,27.11,0,0,0-14.83,8.24A35.93,35.93,0,0,0,237,192.93c-1.11,9.74.15,20.14,5.4,28.61,4.23,7,12.14,12.29,20.57,11.27,8.25.95,15.57-4.2,20.63-10.22C289,216,290,207.15,290.36,199c-1.07-9.21-2-19-7.55-26.82C278,165,268.52,162,260.33,164.25Zm90.12,48.53c-4.71.84-5.21,6.58-3.45,10.17s5.34,6.16,8.58,8.54c3.37,2.59,8.77,3.29,12,.06,3.84-3.35,8-7.25,8.83-12.53.71-3.74-2.58-7.38-6.31-7.38C363.52,211.53,356.87,211.22,350.45,212.78ZM358.27,253c-6.75,2.06-10.1,9-11.87,15.28-1.34,5.43-1.71,11.87,1.94,16.53,4.23,5.93,13.92,6.88,19.1,1.71a27.81,27.81,0,0,0,8.18-21.58c0-4-2.5-7.55-5.41-10.1C366.94,252.06,362.22,252,358.27,253Zm-43.71,60.65c-2.28.71-4.66,1.83-6,3.9-1.4,4.41.38,9.18,3.42,12.46,4.8,5.34,10.53,10.11,17.3,12.7,3.72,1.61,7.63-.24,11.23-1.27,5.42-2,11.35-3.27,15.84-7.09,2-1.82,4.32-4.71,2.81-7.51-1.72-3.75-5.87-5.38-9.64-6.21-8.46-1.76-17-3.24-25.28-5.76C321.11,314,317.82,312.73,314.56,313.65Z"/>
    <path class="cls-2" d="M438.39,177.37c1.68-.34,3.94-.5,5,1.19,2.17,3,2.39,6.93,2.18,10.5,0,2.87-2.33,6.06-5.5,5.39-3.81-.74-4.93-5.13-5.25-8.44C434.62,182.94,435.09,178.59,438.39,177.37Z"/>
    <path class="cls-2" d="M275.52,186.38c2.77-2.34,7-.19,8.19,2.9,2.21,4.74,3.18,12.18-2.31,15-4.39,2-8.4-2.19-8.8-6.36C272.23,194,272.34,189.23,275.52,186.38Z"/>
    <path class="cls-2" d="M412.69,201.48c-.71-2.88-.59-5.85,2.34-7.39,2.82,1.61,3,4.6,2.25,7.46C415.75,201.59,414.21,201.56,412.69,201.48Z"/>
    <path class="cls-2" d="M244.65,212.32c-1.68-2.5-.11-6.55,3.25-5.69,2.51,1.3,1.66,4,.7,6.07Z"/>
    <path class="cls-2" d="M29.57,220.72c4.73-4.38,11.23-6.08,17.45-7,17.32-1.7,35.45,5.13,46.77,18.48A68.63,68.63,0,0,1,105.32,252a22.84,22.84,0,0,1-6.1,18.26c-10.18,10.86-25.4,17-40.3,15.45-5.46-7.73-10.51-15.77-16.59-23.05a56.12,56.12,0,0,1-11.55-21.56C28.84,234.46,29.15,227.51,29.57,220.72Z"/>
    <path class="cls-2" d="M100.31,313.29c5.13-2.66,8.76-7.29,12.32-11.69-.23,9.38.24,18.83-1.26,28.13-2.46,7.29-8.29,13.57-15.74,15.83a70.53,70.53,0,0,1-20.46,3.68c-2.45-9.77-4.36-19.78-4.29-29.89C80.92,319.31,91.34,318.11,100.31,313.29Z"/>
    <path class="cls-2" d="M96.26,374.31c5.66-4,10.45-9,16-13.18a27,27,0,0,0,8.42,12.26c-1.47,4.7-2.07,9.76-4.09,14.25-5.33,6.59-10.2,14.58-18.58,17.58l-.82.18c-6-8.09-9.94-17.37-13.8-26.6l1.5-.27C88.83,377.65,92.84,376.57,96.26,374.31Z"/>
  </g>
  <g>
    <path class="cls-3" d="M302,20.51A188.07,188.07,0,0,1,402,39.66a183.25,183.25,0,0,1,27.64-12c5.52-1.85,12.19-2.07,16.94,1.78,6.65,5.33,9,14,10.64,22,2.36,13,2.49,26.32,2.16,39.5,0,3.51-1.18,7.15.43,10.49A404.7,404.7,0,0,1,485.34,189c.44,6.65,4.28,12.3,6.17,18.55A104.5,104.5,0,0,1,496.4,231c0,9.83-4.63,18.85-9,27.41a155.45,155.45,0,0,1-43.58,47.68c4.46,12.25,3.46,26-.42,38.31-.38,1.41-1,2.89-.38,4.34,7.63,24.24,10.84,49.58,13.63,74.75,1.47,3.19,4.69,5.21,6.84,8,5.79,6.64,10.32,15.13,9.7,24.18a25.15,25.15,0,0,1-16.55,20.94c-16.36,6-34.44,2.77-50.46-2.79-9.19-3.21-16-10.94-19.93-19.66-1.44.15-3,0-4.25.91-14.73,9.52-31.74,15.23-49,17.82-3.15,6.24-8.57,11.57-15.48,13.32-11.27,2.95-23,1.26-34.5,1.29-10.2-.79-21.27-1.38-29.82-7.69-4.16-2.86-6.43-7.47-9-11.65-6.69,2.23-12,7.36-19,9.08-14.84,3.94-30.34,1.77-45.3-.19a234.41,234.41,0,0,1-39.76-9.44c-4.7-1.91-9.79-3.61-13.26-7.5-1.48-1.34-2.76-3.45-5-3.49-13.07-.5-25.28-7.05-34.52-16-9.65-8.91-16.38-20.41-22.14-32.08C54,384.85,47.38,359.27,42.86,333.55,41.15,324.4,41.17,314.87,38,306c-3.79-10.9-10.14-20.62-14.92-31.08-5.86-11.56-10.33-24-11.66-37a28.77,28.77,0,0,1,8-23.52c8-8,19.39-11.66,30.47-12,18.13-.82,36.66,6.18,49.24,19.35C111.29,234,117.92,250.58,121,267.26c3.28,17.38,3.12,35.17,2.34,52.77-.88,7.3-1,14.65-1.47,22-.24,6.9-.51,14.28,3.1,20.46C136.4,342,153.58,325,173.5,312.69a43.62,43.62,0,0,1,1-10.88c-14.15-10.77-27.27-23.09-37.71-37.55-1.93-2.8-4.6-5.6-4.42-9.23-.19-16.35.36-32.74,2.81-48.92a478,478,0,0,1,20-86.11c.8-3.06,3-6.23,1.62-9.43-6-16.65-11.14-33.84-12.2-51.58-.16-7.74,1.26-16.68,7.65-21.82,4.64-3.72,10.91-2.33,16.26-1.41,14.16,3.15,27.77,8.29,41.49,12.94A227.5,227.5,0,0,1,302,20.51ZM258.16,40.29c-3.42,1.17-6.71,2.73-10.26,3.49-7.81,2-15,5.92-22.3,9.13-5,2.15-9.36,5.85-14.64,7.43-4.1.14-7.74-2.22-11.57-3.37C186.71,53,174.32,47.41,161,46.22c-2.82-.71-4.52,2.3-4.54,4.71a83,83,0,0,0,1.27,23.28c2.24,10.68,4.89,21.41,9.57,31.31.42,3.62,1.53,7.36.34,11A512.66,512.66,0,0,0,148,193.93c-1.92,16.38-5.46,32.74-4.28,49.31l-.59-.2c.23,3.8-.12,7.64.48,11.4,1.87,3.87,5,7,7.56,10.36,14.13,16.79,31.56,30.62,50.59,41.45,5.23,2.91,10.42,6,16.15,7.87,3.88,2.7,9.13,3.13,12.55,6.47,3.37,4-1.51,9.8-6.12,8-10.62-3.6-20.59-8.94-30.36-14.39-2.95-1.81-5.91-3.61-8.93-5.3-.71,9.62,3.15,19.26,9.69,26.25,1.7,2.76,4.62,4.74,5.63,7.93.45,2.94-2.3,6.23-5.38,5.71-3,.21-4.79-2.67-6.8-4.46a55.8,55.8,0,0,1-11.91-20.09,178.93,178.93,0,0,0-18.2,13.9,34.68,34.68,0,0,0-7,7.69c-6,4.6-9.92,11.18-13.8,17.52-6.18,11.29-11,24-9.87,37.09-.91,9.92,2.64,19.45,5.87,28.63-.9,6.95-3.9,14.49-.77,21.37,2.34,5.22,8.62,5.91,13.46,7.37,14.79,4.76,30.11,7.6,45.5,9.53a246.65,246.65,0,0,0,25.51.27,26.33,26.33,0,0,0,15.15-5.64c6.29-4.14,5.49-12.81,3.69-19.14a33,33,0,0,0-7-9.65,89.34,89.34,0,0,0-21-12.07c-1.81-.87-4.12-1.29-5.14-3.21a12.34,12.34,0,0,1,0-5.67c5.09-4.57,11.24-8.28,14.89-14.21-2.91-13-4.67-26.65-2.16-39.92.29-2.3,1.95-5,4.58-4.78,2.21-.4,3.7,1.47,5.3,2.61a129.16,129.16,0,0,0-.92,23c1.48,18.28,8.92,35.55,18.71,50.86,2,3.25,4.55,6.2,6.11,9.72,1.42,4.29.86,8.93,1.82,13.32,1.11,5.61,2.35,11.5,5.91,16.14,4,5,10.72,6.35,16.78,6.94a98.2,98.2,0,0,0-.29-11.12c.15-2.17.38-4.66,2.1-6.21,1.45-1.69,3.9-.92,5.85-1.11.93,1.49,1.79,3,2.77,4.5,0,4.93,0,9.86-.1,14.79,6.11-.19,12.29.68,18.36-.15,3.5-3.72,2.55-9.51.94-13.88-.55-3.14.91-7.09,4.56-7.17,4.29-.06,5.19,5,6.3,8.19a99.61,99.61,0,0,1,.24,12.58c2.52-1.27,5.52-2.32,6.93-5A21.44,21.44,0,0,0,323.52,458c-1.14-6.81-5.46-12.55-6.68-19.27-.29-13.27-.11-26.55-.6-39.81-.38-2.5,1.06-5.5,3.88-5.5a4.65,4.65,0,0,1,5.24,3c1.37,6.7,1,13.57,1.47,20.35.77,7.58-.25,15.22.59,22.78,2.75,6.91,5.74,13.86,6.35,21.37,7.86-.41,15.33-3.14,22.73-5.59,6.9-2.59,13.76-5.62,19.72-10,3.94-1.85,6.81-5.24,9.93-8.17A39.69,39.69,0,0,0,397.91,411c.43-2.61.19-5.9,2.8-7.46,2.72-.74,6.49-.69,7.45,2.58,1.41,6-.71,12.09-2,17.95A57.37,57.37,0,0,1,397,441a6.17,6.17,0,0,0-1.51,6.47c2.21,7,7.45,13.08,14.39,15.62,9.6,3.47,19.76,5.87,30,5.52.54-3.51,2.17-7.55-.14-10.76-.26-2.11-.81-4.27-.3-6.38,1.39-2,4-3.85,6.44-2.46,3.72,1.66,5,5.87,5.73,9.54a78,78,0,0,0,.06,8.09,26.54,26.54,0,0,0,8.5-5.74c1.95-3.64,2-7.95,1.15-11.91-1.84-5.66-5.77-10.32-10-14.33-2.33-2.2-4.86-4.55-5.42-7.85-3.07-26.31-5.88-53-14.56-78.17a6.23,6.23,0,0,1,.41-4.12,55.7,55.7,0,0,0,2.71-32.44c-2.79,1.51-5.48,3.33-8.53,4.28-4.88.84-7.75-6.43-3.8-9.24,4.49-3.29,9.57-5.67,14-9,13.06-9.77,25.25-21,34.66-34.37,5.62-7.95,10.93-16.39,13.55-25.86,2.06-12.19-2.05-24.3-6.75-35.39-3.64-7.29-2.58-15.88-5.95-23.26,0-6.09-2-11.93-3.34-17.81A374.4,374.4,0,0,0,450.77,109c-1.1-2.63-2.64-5.14-3-8-.59-17.31,1.75-35-2.5-52-1.1-3.84-2.35-8.14-5.72-10.61A18.72,18.72,0,0,0,429,39.79a189.24,189.24,0,0,0-20,9c-2.93,1.38-6.32,3.23-9.55,1.7-7.13-2.86-14.17-6-21.3-8.83A171.8,171.8,0,0,0,332,31.61c-8.65-.45-17.31-.32-26-.17A215.94,215.94,0,0,0,258.16,40.29ZM29.57,220.72A16.39,16.39,0,0,0,22.41,236c.95,11.7,5.39,22.78,10.16,33.39,1.65,3.12,2.81,6.73,5.51,9.15,3.8,12.46,12.57,23.31,13.5,36.68.89,7.43,1.56,14.91,3.21,22.23a7.89,7.89,0,0,0,1.36,3.27c1.29,12.56,5,24.76,8.77,36.77,3.23,8.16,5.09,17.06,10,24.42,3.78,10.93,10.61,20.65,18.54,29,6.86,7.25,15.85,13.15,26,14.13-.79-8,3-15.85.43-23.72-.78-2.57-1.63-5.13-2.59-7.64-1.23-8.62-.77-17.33-.74-26,2-4.49,2.62-9.55,4.09-14.25a27,27,0,0,1-8.42-12.26c-1.85-10.37-.59-20.94-.87-31.4,1.5-9.3,1-18.75,1.26-28.13-.22-16.74-1-33.9-7.31-49.63a68.63,68.63,0,0,0-11.53-19.78C82.47,218.84,64.34,212,47,213.71,40.8,214.64,34.3,216.34,29.57,220.72ZM218.09,413.6c2.21,1.56,4.52,3,6.87,4.31-1-2.7-2.07-5.34-3.15-8C220.56,411.13,219.33,412.36,218.09,413.6Z"/>
    <path class="cls-3" d="M417.66,82.65c2.41-1.67,5.13.07,7,1.78a58.36,58.36,0,0,1,8.08,9c2.13,2.93,1.06,8.11-2.82,8.85s-6.11-3.35-8.52-5.67c-2.26-3-6.53-5.39-6.1-9.66A4.27,4.27,0,0,1,417.66,82.65Z"/>
    <path class="cls-3" d="M216.52,94.35c1.72-1.59,4.31-1.09,6.39-.66,2,1.45,2,4.1,1.63,6.28-1.6,3.39-4.53,5.88-6.6,9-2.07,2.65-3.74,6-7.07,7.28-4.2.22-7-4.67-5-8.26A51,51,0,0,1,216.52,94.35Z"/>
    <path class="cls-3" d="M418.42,156.78c7.2-1.42,15.15,0,20.53,5.28,8.11,8,11,19.87,10.8,31,.26,8.34-2.16,17.41-8.69,23-4.37,4.23-11,5-16.75,4.38-6.62-2-12.85-6.3-16-12.63-5.24-11.31-6.07-24.42-3.16-36.46C406.74,164.66,411.5,158.36,418.42,156.78Zm20,20.59c-3.3,1.22-3.77,5.57-3.58,8.64.32,3.31,1.44,7.7,5.25,8.44,3.17.67,5.47-2.52,5.5-5.39.21-3.57,0-7.51-2.18-10.5C442.33,176.87,440.07,177,438.39,177.37Zm-25.7,24.11c1.52.08,3.06.11,4.59.07.78-2.86.57-5.85-2.25-7.46C412.1,195.63,412,198.6,412.69,201.48Z"/>
    <path class="cls-3" d="M260.33,164.25c8.19-2.27,17.67.79,22.48,7.91,5.55,7.79,6.48,17.61,7.55,26.82-.34,8.17-1.34,17.06-6.74,23.61-5.06,6-12.38,11.17-20.63,10.22-8.43,1-16.34-4.27-20.57-11.27-5.25-8.47-6.51-18.87-5.4-28.61a35.93,35.93,0,0,1,8.48-20.44A27.11,27.11,0,0,1,260.33,164.25Zm15.19,22.13c-3.18,2.85-3.29,7.63-2.92,11.58.4,4.17,4.41,8.37,8.8,6.36,5.49-2.86,4.52-10.3,2.31-15C282.52,186.19,278.29,184,275.52,186.38Zm-30.87,25.94,3.95.38c1-2,1.81-4.77-.7-6.07C244.54,205.77,243,209.82,244.65,212.32Z"/>
    <path class="cls-3" d="M350.45,212.78c6.42-1.56,13.07-1.25,19.62-1.14,3.73,0,7,3.64,6.31,7.38-.82,5.28-5,9.18-8.83,12.53-3.2,3.23-8.6,2.53-12-.06-3.24-2.38-6.73-4.85-8.58-8.54S345.74,213.62,350.45,212.78Z"/>
    <path class="cls-3" d="M358.27,253c4-1,8.67-.94,11.94,1.84,2.91,2.55,5.41,6.07,5.41,10.1a27.81,27.81,0,0,1-8.18,21.58c-5.18,5.17-14.87,4.22-19.1-1.71-3.65-4.66-3.28-11.1-1.94-16.53C348.17,262,351.52,255.06,358.27,253Zm-1.87,18.3a28.4,28.4,0,0,0-.11,7.65,33.83,33.83,0,0,0,3.62.34c2.56-1.92,3.79-5,4.66-7.93A36.6,36.6,0,0,0,356.4,271.3Z"/>
  </g>
  <g>
    <path class="cls-4" d="M429,39.79a18.72,18.72,0,0,1,10.54-1.4c3.37,2.47,4.62,6.77,5.72,10.61,4.25,17,1.91,34.66,2.5,52,.37,2.87,1.91,5.38,3,8a374.4,374.4,0,0,1,17.55,52.47c1.37,5.88,3.33,11.72,3.34,17.81-5.46-10-10.86-20-18-28.93-5.15-6.75-10.69-13.54-18.33-17.59-16-8.85-32-17.66-47.22-27.76-7.3-5.25-14.72-10.66-20.3-17.79-6.61-8.49-7.44-20.66-3-30.31,2.77-6.31,7.84-11.19,13.33-15.18,7.13,2.86,14.17,6,21.3,8.83,3.23,1.53,6.62-.32,9.55-1.7A189.24,189.24,0,0,1,429,39.79ZM417.66,82.65A4.27,4.27,0,0,0,415.27,87c-.43,4.27,3.84,6.64,6.1,9.66,2.41,2.32,4.63,6.3,8.52,5.67s4.95-5.92,2.82-8.85a58.36,58.36,0,0,0-8.08-9C422.79,82.72,420.07,81,417.66,82.65Z"/>
    <path class="cls-4" d="M247.9,43.78c10.06-1.9,20.41.14,30,3.28,7.88,2.58,15.66,6.53,20.95,13.11A33.29,33.29,0,0,1,307,84c-1.12,10.58-6.82,20.31-14.7,27.31a114.39,114.39,0,0,1-21,14.08c-16.23,8.61-33.39,15.75-48.16,26.84-6.64,5-11.36,12-16.12,18.75-4.83,6.95-9.83,14.1-11.8,22.47-2.45,10.19-4.53,20.48-7.36,30.57-2.17,7.45-6.46,14.56-13.07,18.84-5.58,3.78-12.6,4.55-19.17,4.25-.92-.25-1.83-.52-2.74-.8l1.83-1.24c-1.89-8.61-.23-17.37-.35-26.07-.1-12.4,2.08-24.65,3-37,.46-6.62,1-13.24,2-19.79,1.53-9.58,1.48-19.41,4.2-28.78,1.53-6.3,4.58-12.14,5.7-18.54.7-3.28-.58-6.48-2-9.37-4.68-9.9-7.33-20.63-9.57-31.31a83,83,0,0,1-1.27-23.28c0-2.41,1.72-5.42,4.54-4.71C174.32,47.41,186.71,53,199.39,57c3.83,1.15,7.47,3.51,11.57,3.37,5.28-1.58,9.59-5.28,14.64-7.43C233,49.7,240.09,45.8,247.9,43.78ZM216.52,94.35a51,51,0,0,0-10.66,13.59c-2,3.59.81,8.48,5,8.26,3.33-1.26,5-4.63,7.07-7.28,2.07-3.07,5-5.56,6.6-9,.35-2.18.35-4.83-1.63-6.28C220.83,93.26,218.24,92.76,216.52,94.35Z"/>
    <path class="cls-4" d="M105.32,252c6.28,15.73,7.09,32.89,7.31,49.63-3.56,4.4-7.19,9-12.32,11.69-9,4.82-19.39,6-29.43,6.06C69.41,312,66.45,305.09,64.25,298a54.88,54.88,0,0,0-5.33-12.28c14.9,1.55,30.12-4.59,40.3-15.45A22.84,22.84,0,0,0,105.32,252Z"/>
    <path class="cls-4" d="M158.1,338.11a178.93,178.93,0,0,1,18.2-13.9,55.8,55.8,0,0,0,11.91,20.09c-.88,4.13-2.34,8.34-5.54,11.27a45.26,45.26,0,0,1-19.86,11.09c-8.93,2.48-17.49,6.71-24.11,13.29,1.53-4.91,2-10.07,3.41-15,1.94-6.84,5.57-13,9-19.16A34.68,34.68,0,0,1,158.1,338.11Z"/>
    <path class="cls-4" d="M95.63,345.56c7.45-2.26,13.28-8.54,15.74-15.83.28,10.46-1,21,.87,31.4-5.53,4.15-10.32,9.22-16,13.18-3.42,2.26-7.43,3.34-11.39,4.22-5.3-9.06-5.26-19.94-9.7-29.29A70.53,70.53,0,0,0,95.63,345.56Z"/>
    <path class="cls-4" d="M98,405.22c8.38-3,13.25-11,18.58-17.58,0,8.67-.49,17.38.74,26,0,2.17,0,4.34,0,6.51A87.32,87.32,0,0,1,98,405.22Z"/>
  </g>
  <g>
    <path class="cls-5" d="M167.27,105.52c1.42,2.89,2.7,6.09,2,9.37-1.12,6.4-4.17,12.24-5.7,18.54-2.72,9.37-2.67,19.2-4.2,28.78-1,6.55-1.56,13.17-2,19.79-.92,12.34-3.1,24.59-3,37,.12,8.7-1.54,17.46.35,26.07l-1.83,1.24c-3.06-1-6.09-2-9.13-3.06-1.18-16.57,2.36-32.93,4.28-49.31a512.66,512.66,0,0,1,19.59-77.46C168.8,112.88,167.69,109.14,167.27,105.52Z"/>
    <path class="cls-5" d="M38.08,278.52c6.52,3.45,13.47,6.21,20.84,7.16A54.88,54.88,0,0,1,64.25,298c2.2,7.13,5.16,14.05,6.63,21.39-6.6-.46-13.2-1.46-19.3-4.15C50.65,301.83,41.88,291,38.08,278.52Z"/>
    <path class="cls-5" d="M56.15,340.7a27.05,27.05,0,0,0,19,8.54c4.44,9.35,4.4,20.23,9.7,29.29l-1.5.27c-6.17,1.1-12.4-.09-18.45-1.33C61.14,365.46,57.44,353.26,56.15,340.7Z"/>
    <path class="cls-5" d="M137.33,363.32c3.88-6.34,7.83-12.92,13.8-17.52-3.45,6.15-7.08,12.32-9,19.16-1.44,4.92-1.88,10.08-3.41,15-4.8,6.17-9.41,12.72-11.24,20.46C126.33,387.31,131.15,374.61,137.33,363.32Z"/>
    <path class="cls-5" d="M74.94,401.89c6.52,4.41,14.7,4.64,22.23,3.51l.82-.18a87.32,87.32,0,0,0,19.34,14.93c0-2.17,0-4.34,0-6.51,1,2.51,1.81,5.07,2.59,7.64-3.93,2.31-7.65,5.12-12.09,6.37-4.71,1.34-9.57,2.06-14.33,3.22C85.55,422.54,78.72,412.82,74.94,401.89Z"/>
  </g>
</svg>
