<svg id="Layer_1" data-name="Layer 1" xmlns="http://www.w3.org/2000/svg" viewBox="0 0 496.12 501.1">
  <defs>
    <style>
      .cls-1 {
        fill: #df4d17;
      }

      .cls-2 {
        fill: #f5eceb;
      }

      .cls-3 {
        fill: #172432;
      }

      .cls-4 {
        fill: #f0beb6;
      }

      .cls-5 {
        fill: #9ac1fd;
      }

      .cls-6 {
        fill: #c0c0c5;
      }

      .cls-7 {
        fill: #ac3a16;
      }

      .cls-8 {
        fill: #c4979d;
      }
    </style>
  </defs>
  <g>
    <path class="cls-1" d="M0,0H0A.36.36,0,0,1,0,.11Z"/>
    <path class="cls-1" d="M133.22,35.05c8.35,3.53,16.53,7.77,25.44,9.73,8.81,2.71,18.38,1.88,27.1-.8,3.93,6.41,9.9,11.36,13.21,18.16,3.42,7,1.92,15.4-1.67,22-6.53,12.6-18.91,20.71-31.15,27.09-12,6.63-25.43,10.42-37,17.93a93.36,93.36,0,0,0-22.93,20.12c-.34-4.94,1.42-9.6,2.27-14.39,2-7.74,3.69-15.57,6.23-23.16,1-4.14,3-8.14,2.59-12.48,7.24-9.74,16.26-18.4,27.18-23.86,5.52-2.81,11.58-4.2,17.5-5.89,2.21-.69,5.19-1.09,6.1-3.58,1-2.64.76-6.44-2.15-7.75-3.76-1.49-8-1.57-11.56-3.56C145.64,50.3,138.78,43,133.22,35.05Zm21.45,55.6c-2.73,2.84-8.22,2.77-9,7.33-.79,4.06,2.81,7,6.56,7.22,7.62-2.16,14.39-7.68,17.06-15.28-.92-3-2.88-5.92-6.32-6.17C158.78,83.85,157.39,88.31,154.67,90.65Z"/>
    <path class="cls-1" d="M311.29,42.5l.32-.23c4.79,1.71,9.69,3.11,14.45,4.89,8.66,3,17,7,26,8.91,9.08,1,17.8-2.44,26-5.9-8.37,10.53-21.34,17-34.63,18.34-5.09,1.74-3.9,9.41.38,11.53,2.59.78,5.32.73,8,1,2.78.58,5.24,2.1,7.73,3.38,13.11,6.86,24.43,16.82,33.74,28.26a51.85,51.85,0,0,1,6.14,8.93c.32,1.61.49,3.24.91,4.83a483.11,483.11,0,0,1,16.19,71.14c1.87,6.93,1.68,14.21,3.28,21.2a36.66,36.66,0,0,1,.55,4.68c-10.67-1.86-21.47-5.68-29.35-13.37,3.19-2.16,6.7-4.21,8.69-7.64,3.32-5.73,4.94-12.82,2.85-19.27-1.59-6.1-5.15-12.2-11.17-14.79-7-3.07-14.88-3.58-22.44-3.78-9.1-18.46-24.52-34.07-43.66-42-8-3.17-16.18-6-23.83-10-10.6-5.44-21.12-12.47-27-23.13-3.18-6.34-4.92-14.27-1.65-20.93,2.42-4.72,6.93-7.88,11.3-10.64C293,52.63,302.77,48.63,311.29,42.5ZM303.67,92c2.83,7.74,10.3,13.2,18.33,14.38,4.19.37,8-5.18,5.31-8.75-1.77-3.41-6.15-3-8.85-5.24-2.52-1.74-3.54-5.29-6.7-6.1C307.83,84.42,304.82,88.76,303.67,92Z"/>
    <path class="cls-1" d="M434.45,320.49a39.17,39.17,0,0,0,17.61,6.33c9.88,1.64,19.63-1.8,28.46-5.91a110.77,110.77,0,0,1-2.47,26.5c-15,5.53-32.85,5-46.68-3.54l-1-.59c2,0,1.88-2.37,2.49-3.77C434.87,333.37,434.64,326.86,434.45,320.49Z"/>
    <path class="cls-1" d="M365.84,347.44c7.34-.42,12.42-6.43,18.25-10.13,1.71-.05,2.8,1.6,4.1,2.48a43.54,43.54,0,0,1,11.57,13.33c-4,1.17-7.28,3.93-11.12,5.51a18.73,18.73,0,0,0-10.72-4.36C373.17,353.76,368.52,351.49,365.84,347.44Z"/>
    <path class="cls-1" d="M452.15,369.27A117.83,117.83,0,0,0,473,366.33a77,77,0,0,1-8.37,19.14,30.23,30.23,0,0,1-10.34,2.23l-.54,0a102.1,102.1,0,0,0-.36-10.79A35.13,35.13,0,0,1,452.15,369.27Z"/>
  </g>
  <g>
    <path class="cls-2" d="M105.86,18.8c6-4.36,14-5.25,21-3.25,12.65,3.12,23.5,11.16,36.28,13.91a28,28,0,0,0,16.68-.8c17.26-6.56,35.8-9,54.14-9.67a321.08,321.08,0,0,1,51.51,1.63c18.7,2.31,36.86,7.73,54.38,14.56,6.29,2.16,12.62,5.88,19.52,4.35,11.7-2.46,21-11.23,32.79-13.46a23.51,23.51,0,0,1,24.46,9.34c5,6.79,6.66,15.32,7.36,23.53-.15,8.33.6,16.75-.86,25-1.38,12.9-4.53,25.52-7.61,38.09,4.2,15.85,8.64,31.68,11.77,47.81Q432.84,197.23,436,225c.52,6.59,2.55,13.78-1,19.91-10.24,18.17-24,34.19-39.58,48,4.38,9.2,5.62,20.05,2.27,29.78-.35,1.35-1.39,3.34.19,4.33a53.71,53.71,0,0,1,8.42,8c2.6-5.25,2.89-11.33,3.32-17.08,1.26-8.58.27-17.27.72-25.9.95-9.14,4.37-18.18,10.63-25a42.33,42.33,0,0,1,39.1-12.56,38.46,38.46,0,0,1,27.41,20.08c5.34,10,6.9,21.49,8.23,32.62A169.84,169.84,0,0,1,488,371c-6.61,20.15-18.52,40.07-37.75,50.32-5.87,15.09-12.54,30.21-23,42.75-9.05,11.29-21.76,20.39-36.33,22.5-11.76,1.73-24.66-.77-33.72-8.84-1-1.05-2.51-.53-3.69-.19A81.15,81.15,0,0,1,340,480.2a26.12,26.12,0,0,1-8.76,10c-10.78,7-23.77,9.25-36.31,10.7-10.62.11-21.33.79-31.84-1.05-9.9-1.52-20.24-4.17-27.78-11.16a30.67,30.67,0,0,1-6.44-9.53c-15.59-.67-32-1.72-45.87-9.72a55.78,55.78,0,0,1-25.94,4.48c-2.64-.1-5.44-1.38-7.9.18-9.47,4.52-20.35,5.22-30.57,3.38-14.7-3.23-27.11-12.92-36.42-24.41C69,437.1,59,417.09,59.29,396c-.31-9.71,2.11-19.31,5.79-28.24-2-1.16-3.91-2.41-6-3.39-9.14,1.67-19,.34-27-4.53-6.34-3.7-10.09-10.63-11.58-17.63-2.71-12.08-.57-24.53,2-36.43a27.69,27.69,0,0,1-7.28-19.83c0-7.72,3.06-16.44,10.3-20.19,5.26-3.08,11.54-2.56,17.38-2.38,5.87.51,11.39,2.7,17,4.32C67.17,258,83.56,255.88,92.08,265c5.94,6,7.38,14.85,12.71,21.24,3.21,4,8.6,4.63,13.36,5.16A168.38,168.38,0,0,1,76,226.19l-.24.59c-.88-4.57-3-8.8-3.72-13.42-7.41-1-14.61-5.08-18.33-11.71-5-8.82-3.61-20.43,2.47-28.38,6.14-7.77,16.11-10.42,25.24-12.79,2.88-5.11,6-10.15,8.47-15.45a386.14,386.14,0,0,1,9.67-39.25c.55-2.06,1.53-4.23.8-6.38C96.71,87.89,93.72,76,93.13,63.91c-1.46-7.6-.39-15.39.62-23C95.34,32.59,98.75,23.93,105.86,18.8Zm.49,5.6C99.16,31.6,97.26,42.24,96.8,52c-.43,15.81,2.73,31.54,7.68,46.5.41,1.37,1.11,2.83.49,4.27a398.65,398.65,0,0,0-11,44.13c-2.71,6-6.33,11.66-9.49,17.48C77.36,166,70,167.64,64.05,172.1a22.15,22.15,0,0,0-8.55,23.17,20.57,20.57,0,0,0,15.7,14.19c1.39.38,3,.06,4.25.94,8.34,32.9,27.41,62.85,53.11,84.93-7.65.3-15.91.75-22.9-2.92C96.16,286.17,96.21,272.52,87,266c-8.27-5.75-20.64-1.56-25.19,7-9.69-3.64-20.23-7.76-30.67-4.91-8,2.3-11.89,11.11-11.82,18.9-.12,6.84,3.39,13.16,8.13,17.87A90.3,90.3,0,0,0,23.58,334c.39,7.37,2.45,15.19,8,20.39,7.69,6.75,18.8,8.38,28.56,6.06,3.76,1.67,7.18,4.08,10.79,6.08A61.52,61.52,0,0,0,63.82,404c2.27,18.77,12.09,35.81,24.47,49.77,8,9,18.14,16.71,30,19.85a45,45,0,0,0,32.59-4.19,49.32,49.32,0,0,0,33-4.43c5.41,4,11.87,6.28,18.39,7.72,9.82,2.29,19.94,2.7,30,2.81,2.28,8.9,10.27,14.86,18.61,17.7,12.75,4.27,26.4,4.84,39.74,4.31a96.12,96.12,0,0,0,27.35-4.85c8.19-2.79,16.7-7.53,19.88-16.1a47.71,47.71,0,0,0,18.81-4c1.12-.79,1.84.71,2.6,1.28,7.82,8.13,19.9,10.87,30.81,9.34,12.27-1.67,23.09-8.93,31.35-17.88,12.27-13.29,19.91-30,26.08-46.85,7.79-3.27,14-9.29,19.54-15.57,13-15.67,19.77-35.5,23.26-55.3,3.34-20.44,3.75-41.83-2.15-61.84-3.19-10.94-10.88-20.8-21.61-25.11-14.47-6.26-32.51-1.74-42.65,10.24-7.81,8.63-10.25,20.75-9.51,32.09-.2,13.36.46,27.92-6.64,39.8a92.71,92.71,0,0,0-16-15.52c6.86-10.62,5.33-24.74-1.1-35.18a185.49,185.49,0,0,0,40.37-47.14c1.58-2.67,3.11-5.67,2.63-8.87A585.76,585.76,0,0,0,411.73,123c5.11-20.82,10.4-42.2,8.78-63.85-.7-7.3-2.3-14.84-6.73-20.85s-12.19-9.9-19.67-8.23C381.6,32.57,371.74,42.26,359,44c-6.32,1-12.26-1.82-18-4-13.2-5-26.55-9.81-40.41-12.65-19.22-4.15-39-4.7-58.56-4.53-19.59.5-39.53,2.17-58,9a35.18,35.18,0,0,1-19.69,2c-13.69-2.31-25.19-10.88-38.48-14.4A19.42,19.42,0,0,0,106.35,24.4Z"/>
    <path class="cls-2" d="M185.76,44c17.14-7,35.88-8.52,54.21-9.28,23.92-.3,48.35.45,71.32,7.8C302.77,48.63,293,52.63,284,58c-4.37,2.76-8.88,5.92-11.3,10.64-3.27,6.66-1.53,14.59,1.65,20.93,5.9,10.66,16.42,17.69,27,23.13,7.65,4,15.82,6.82,23.83,10,19.14,7.91,34.56,23.52,43.66,42-8.31.58-16.67.9-24.86,2.46a6.13,6.13,0,0,0-4,8.95c6.09,10.21,12.94,20.21,22.13,27.89,5.07,4.11,11.16,7.52,17.84,7.72,3.74.29,7.38-.74,11-1.54,7.88,7.69,18.68,11.51,29.35,13.37.07,4.83,2.06,9.86.78,14.55-21.78,37.33-58.2,65.39-99.09,78.87-3.45,1.41-8.43,1.15-10.12,5.14-2.22,4.28,2.55,9.81,7.11,8.13a191.28,191.28,0,0,0,62.17-30.7c3,5.65,4.27,12.47,1.9,18.58-3.13,7.92-10.25,13.34-17.34,17.58-1.93,1.09-3.6,3-3.4,5.37-.23,2.69,2.21,4.38,3.52,6.42,2.68,4.05,7.33,6.32,12.08,6.83a18.73,18.73,0,0,1,10.72,4.36c-2,1.63-4.67,3.39-4.39,6.36-.36,4.44,5.19,7.44,8.89,5.18,7.56-4.85,15.75-9.29,24.75-10.61,10.67-1.68,21.29,6.59,23.3,17,1.52,8.36.61,17-1.18,25.22l-.31-.08-3.74-1c-4,1.64-7.43,5.05-7.81,9.57-1.21,4.19,3.37,7.62,7.25,6.41C429.85,431.55,422.92,446.3,412,458c-4,4.21-8.7,8.13-14.19,10.26-6.24-.85-12.89.78-18.72-2.24-6.51-2.38-9.56-9.46-10.07-15.93-.58-3.17-.26-7.91-4.2-8.89-4.79-1.1-9.77,0-14.6-1,13.64-19.41,20-43,22.73-66.29a6,6,0,0,0-4.13-6.93c-3.38-1.25-7.39,1.53-7.62,5.09-1.6,13.78-4.49,27.5-9.58,40.44-5.43,13.35-13.07,26.48-25,35-2.53,1.58-3,5.09-1.71,7.61,2.84,5.38,1.89,11.65,1.7,17.49l-.43-.18c-1.38-.92-2.95-.08-4.37.23a121.18,121.18,0,0,1-23,4.53c-.41-3.14,1.52-6.7-.62-9.47-1.7-2.79-6.14-3.29-8.26-.73-2.64,3-1.5,7.29-1.78,10.89-8.73.76-17.31-.87-25.64-3.35a54.28,54.28,0,0,1,1.24-6.71c.87-3.91-3.9-7.57-7.43-5.68-1.93.74-2.69,2.76-3.57,4.44-1.94-4.27-.66-9.24,1.89-13a63.94,63.94,0,0,1,10.42-11.56c2.75-2.43,5.4-5.38,6.07-9.11-.11-4.2-2.24-8-3.09-12-.72-3.4-1.27-6.83-2.28-10.14.27-2.66,1.52-5.74-.64-8-2.49-3.68-8.63-2.82-10.15,1.3a70.79,70.79,0,0,0-3.3,28.43c-4.9,4.17-9,9.15-13,14.13-14.61.5-29.65.43-43.49-4.9-4.29-1.35-8.6-4.35-13.26-3a27.49,27.49,0,0,1-16.74-1.11,6.74,6.74,0,0,0-10.39,3.67c-7.34,6.16-16.08,11.31-25.77,12.32-13.06.72-24.17-8.1-32.26-17.45-4.65-4.69-7.85-10.48-11.55-15.89a29.23,29.23,0,0,0,4.23-4.24c-1.11-2.9-1.45-6.54-4.22-8.42-2.19-1.6-5-.94-7.55-1.06l-1.27,0a48.62,48.62,0,0,1,5.31-35.07c4.61,2.22,9.35,4.14,14.14,5.91-1.57,2.61-3.36,5.54-2.44,8.72.73,5.62,8,9.24,12.8,6,2.71-2.71,3-6.73,3.09-10.34,2.18.61,4.36,1.19,6.55,1.72-.94,2.32-2.5,4.71-1.89,7.33s2.13,5.71,5.09,6.26c3.45.63,6.91-1.56,8.76-4.36a48.46,48.46,0,0,0,.62-5.63l1.62-.77c2.69,2.85,4.66,6.48,6.56,9.95,2.13,4.09,2.73,10.21,8.35,10.94,3-.7,6.18-2.86,6-6.32-.72-4.84-3.32-9.18-5.63-13.41a100.78,100.78,0,0,0,37.51-5.78,6.85,6.85,0,0,0,4.75-4.6c1.16-4.22-3.53-8.68-7.63-7.07-7.65,2.79-15.69,5-23.91,4.75-2.18.17-4.61-.54-6.59.66a104.3,104.3,0,0,1-11.86-.41c2.87-.29,5.75-.52,8.63-.74-1.38-2-4.07-1.89-6.21-2.38-16.83-2.57-32.75-9.21-47.46-17.61-4.34-2.49-8.15-5.79-12.56-8.16,2.94-6.73,1.74-15.05-3.67-20.18,4.08-4.41,4.31-11.29,2.47-16.73-4.41-9.87-16.11-13.23-26-13.88-.43-2.27-.41-4.69-1.37-6.82-3.55-5.18-11.6-6.32-16.66-2.81-1.52,2.18-1.1,5-1.17,7.52V294a12,12,0,0,1-2.32-8c.16-2.83,1.38-6.77,4.82-6.82,9.18-.62,17.74,3.45,25.92,7.07,1.81.84,3.69-.08,5.45-.56-2.61,6.11,4.36,14,10.57,10.38,5-3.63,5.32-12.68-.19-16.1-2.22-1.13-4.5.2-6.56,1,.85-4.1,6.64-8,10-4.21,4.83,6.5,6.56,14.92,12.27,20.86,6.5,7.63,17,9.51,26.55,9.79,7.21.28,14.39-.6,21.53-1.5,8.61,5.76,17.36,11.37,26.73,15.84,3,1.34,6.33,4.1,9.75,2.33,4.23-1.76,4.72-8.43.5-10.5a202.88,202.88,0,0,1-22.83-12.73l-.13-.31a12.92,12.92,0,0,0-4.24-5.83c-24.09-22.64-43-51-53.62-82.35-1.32-3.66-1.73-7.67-3.88-11,7.79-8.67,12.37-19.59,16-30.52,1.05-2.73-.78-6-3.26-7.2-2.45-.87-5.11-.38-7.65-.43,2.19-4.76,5.16-9.11,7.33-13.89a93.36,93.36,0,0,1,22.93-20.12c11.55-7.51,25-11.3,37-17.93,12.24-6.38,24.62-14.49,31.15-27.09,3.59-6.65,5.09-15,1.67-22C195.66,55.34,189.69,50.39,185.76,44ZM141.6,142.61c-5,.46-10.71,0-15,3-4.34,3.68-.34,11.58,5.2,10.1a38.28,38.28,0,0,1,23.09,1.37c3.59,1.32,6.44,4,10.06,5.28,4.29-.36,7.71-5,5.74-9.1-4.49-9.2-12.76-16.91-22.77-19.6C143.16,132.35,138.59,138.44,141.6,142.61Zm138.81,6.87c-1.51,2.22-3.32,4.71-2.69,7.56.44,3.78,4.66,6.91,8.33,5.08,10.74-4.89,23.08-8.59,34.77-5,3.76.82,6.76,4.61,10.87,3.48s5.73-7.56,2-10.21c-7.48-5.66-17.32-6.93-26.45-6.59,2-3.93-.68-9.36-5.33-9.16C293.13,136.35,285.45,142.18,280.41,149.48Zm-80.88,14.36c-3.07.68-7.08,2.32-6.94,6.07.4,5.71,4.88,10.16,9.39,13.18a9.75,9.75,0,0,0,10.21.94A24.77,24.77,0,0,0,223,172.84a4.91,4.91,0,0,0-2.17-6.61C214.33,162.86,206.64,162.75,199.53,163.84Zm3,28.77c-17.17,5.78-35.53,6.53-53.47,7.26-2.68.69-5,3.28-4.7,6.15-.06,15.49,7.61,30.35,19,40.57,13.27,12,31.17,17.57,48.73,19.07,15.46,1.6,31.69-.51,45.4-8.15,16.22-9,27.63-25.5,31.87-43.39.9-3.79-1.25-8.65-5.56-8.81A292.44,292.44,0,0,1,215,193C211,191.45,206.47,190.65,202.53,192.61Zm17.08,132c-2.7,2.14-2.25,6.52,0,8.85,8.52,10.41,22.8,16.66,36.18,13.22,8.3-2.59,16.46-7.62,20.36-15.67-1-2.48-1.4-5.87-4.32-6.84-5.9-1.83-11.8,1.15-17.77.7-9.77.22-19.27-3-29-2.43A7.69,7.69,0,0,0,219.61,324.63ZM401.92,374.1c-.2,4.37-.92,9.24,1.89,13,2.83,5,11,4,13.43-.84,2.95-5.9,1.33-14.68-5.44-17.13C407.87,368.92,404.45,371.33,401.92,374.1ZM428.17,378c-6.23,2.84-9,12.52-3.61,17.46,4.78,3.91,12,0,13.67-5.36C441.64,384,435.13,375.07,428.17,378Zm-39.89,3.11a7.45,7.45,0,0,0-4.61,7.9c-1.38,6.52,7.39,13.31,12.85,8.47,4.42-3.18,3-9.59.52-13.56C395.43,380.8,391.39,379.85,388.28,381.14ZM78.57,386.5c-3.11,2.81-2.34,7.45-1,10.93A12.9,12.9,0,0,0,88,402.18c2-2.31,4.77-4.81,4.21-8.24s-2.6-7.55-6.27-8.8C83.47,384.27,80.24,384.22,78.57,386.5Zm24.66,13.69c-5.85,1-8.7,7.44-8.6,12.82C94.4,420.24,97.91,426.7,101,433a40.87,40.87,0,0,0,10.22,10.84c3.83,3,9,2.88,13.54,2.16,6.57-3.87,6.55-12.53,4.33-18.94S124,414,119.2,408.86c-3.5-3.27-7-6.73-11.47-8.67C106.31,399.53,104.69,399.89,103.23,400.19Zm302.93,0c-6.62,2.42-11.52,7.84-15.45,13.5a53.08,53.08,0,0,0-8.8,21.35c-.43,4.69-.64,10.48,3.56,13.63,4,3.69,10.36,3.35,14.87.71,8.11-3.72,12.74-11.91,16.53-19.57,1.37-4.18,3.61-8.26,3.51-12.77,0-4,.38-8.24-1.75-11.79A10.36,10.36,0,0,0,406.16,400.16Z"/>
    <path class="cls-2" d="M447.43,270.19c9.65-2.13,20.43,2.29,25.55,10.8,4.74,7.83,6.16,17.1,7.23,26a82.52,82.52,0,0,1,.31,13.88c-8.83,4.11-18.58,7.55-28.46,5.91a39.17,39.17,0,0,1-17.61-6.33c.44-6.73-1.88-13.18-3-19.72-1.18-6.38-.09-12.88-.65-19.31A25.48,25.48,0,0,1,447.43,270.19Z"/>
    <path class="cls-2" d="M38.57,308.32c7.61-1.57,15.84-1.7,23.22,1,2.77,1.22,6.55,3.09,6.11,6.73.14,3.35-4,4.58-4.48,7.73-.16,2.93-.14,6.41,2.24,8.53,2,2,4.37,4.17,4,7.31a30.47,30.47,0,0,1-23.55,2.25c-3.31-1.11-6.58-2.35-9.89-3.46C33.93,328.46,36.49,318.11,38.57,308.32Z"/>
    <path class="cls-2" d="M431.37,343.87c13.83,8.53,31.65,9.07,46.68,3.54a76.27,76.27,0,0,1-5,18.92,117.83,117.83,0,0,1-20.89,2.94c-1.29-1-1.73-2.59-2.5-3.91-4.09-8.3-12-14.12-20.71-16.94Q430.14,346.14,431.37,343.87Z"/>
    <path class="cls-2" d="M454.33,387.7a30.23,30.23,0,0,0,10.34-2.23c-3.26,5.95-7.78,11.06-12.44,15.94C453.32,396.9,453.24,392.19,454.33,387.7Z"/>
  </g>
  <g>
    <path class="cls-3" d="M106.35,24.4a19.42,19.42,0,0,1,19.41-4.87c13.29,3.52,24.79,12.09,38.48,14.4a35.18,35.18,0,0,0,19.69-2c18.51-6.86,38.45-8.53,58-9,19.58-.17,39.34.38,58.56,4.53C314.39,30.23,327.74,35,340.94,40c5.76,2.14,11.7,5,18,4,12.78-1.74,22.64-11.43,35.15-14,7.48-1.67,15.37,2.08,19.67,8.23s6,13.55,6.73,20.85c1.62,21.65-3.67,43-8.78,63.85a585.76,585.76,0,0,1,21.81,113.1c.48,3.2-1.05,6.2-2.63,8.87a185.49,185.49,0,0,1-40.37,47.14c6.43,10.44,8,24.56,1.1,35.18a92.71,92.71,0,0,1,16,15.52c7.1-11.88,6.44-26.44,6.64-39.8-.74-11.34,1.7-23.46,9.51-32.09,10.14-12,28.18-16.5,42.65-10.24,10.73,4.31,18.42,14.17,21.61,25.11,5.9,20,5.49,41.4,2.15,61.84-3.49,19.8-10.3,39.63-23.26,55.3-5.5,6.28-11.75,12.3-19.54,15.57-6.17,16.81-13.81,33.56-26.08,46.85-8.26,8.95-19.08,16.21-31.35,17.88-10.91,1.53-23-1.21-30.81-9.34-.76-.57-1.48-2.07-2.6-1.28a47.71,47.71,0,0,1-18.81,4c-3.18,8.57-11.69,13.31-19.88,16.1a96.12,96.12,0,0,1-27.35,4.85c-13.34.53-27,0-39.74-4.31-8.34-2.84-16.33-8.8-18.61-17.7-10-.11-20.17-.52-30-2.81-6.52-1.44-13-3.73-18.39-7.72a49.32,49.32,0,0,1-33,4.43,45,45,0,0,1-32.59,4.19c-11.83-3.14-21.93-10.83-30-19.85-12.38-14-22.2-31-24.47-49.77a61.52,61.52,0,0,1,7.12-37.44c-3.61-2-7-4.41-10.79-6.08-9.76,2.32-20.87.69-28.56-6.06-5.56-5.2-7.62-13-8-20.39a90.3,90.3,0,0,1,3.85-29.12c-4.74-4.71-8.25-11-8.13-17.87-.07-7.79,3.78-16.6,11.82-18.9,10.44-2.85,21,1.27,30.67,4.91,4.55-8.6,16.92-12.79,25.19-7,9.23,6.54,9.18,20.19,18.68,26.43,7,3.67,15.25,3.22,22.9,2.92-25.7-22.08-44.77-52-53.11-84.93-1.2-.88-2.86-.56-4.25-.94a20.57,20.57,0,0,1-15.7-14.19,22.15,22.15,0,0,1,8.55-23.17c5.93-4.46,13.31-6.1,20.39-7.71,3.16-5.82,6.78-11.45,9.49-17.48a398.65,398.65,0,0,1,11-44.13c.62-1.44-.08-2.9-.49-4.27-5-15-8.11-30.69-7.68-46.5C97.26,42.24,99.16,31.6,106.35,24.4ZM185.76,44c-8.72,2.68-18.29,3.51-27.1.8-8.91-2-17.09-6.2-25.44-9.73C138.78,43,145.64,50.3,154.4,54.66c3.58,2,7.8,2.07,11.56,3.56,2.91,1.31,3.16,5.11,2.15,7.75-.91,2.49-3.89,2.89-6.1,3.58-4.46-1.31-9.09-2.18-13.24-4.38-11.56-5.81-20.39-15.79-27.55-26.35-1.55-2-3.26-5-6.2-4.33a5.8,5.8,0,0,0-4.14,4.23c-3.3,10.83-2.57,22.39-.8,33.43a151.67,151.67,0,0,0,7.25,27.15c.41,4.34-1.64,8.34-2.59,12.48-2.54,7.59-4.23,15.42-6.23,23.16-.85,4.79-2.61,9.45-2.27,14.39-2.17,4.78-5.14,9.13-7.33,13.89,2.54.05,5.2-.44,7.65.43,2.48,1.24,4.31,4.47,3.26,7.2-3.61,10.93-8.19,21.85-16,30.52A51.81,51.81,0,0,1,86.92,207c6.88,28.35,22.76,54.17,43.71,74.31,7.78,7,15.73,14.15,25,19.23l.13.31a202.88,202.88,0,0,0,22.83,12.73c4.22,2.07,3.73,8.74-.5,10.5-3.42,1.77-6.74-1-9.75-2.33-9.37-4.47-18.12-10.08-26.73-15.84-7.14.9-14.32,1.78-21.53,1.5-9.51-.28-20-2.16-26.55-9.79-5.71-5.94-7.44-14.36-12.27-20.86-3.32-3.75-9.11.11-10,4.21a7.89,7.89,0,0,1-3.82,4.71c-1.76.48-3.64,1.4-5.45.56-8.18-3.62-16.74-7.69-25.92-7.07-3.44,0-4.66,4-4.82,6.82a12,12,0,0,0,2.32,8v-.66A7.58,7.58,0,0,0,36,296.54a72,72,0,0,1,16.78-1.1c9.92.65,21.62,4,26,13.88,1.84,5.44,1.61,12.32-2.47,16.73,5.41,5.13,6.61,13.45,3.67,20.18a29.52,29.52,0,0,1-6.91,7.9c20.06,10.59,41.77,19,64.51,21a104.3,104.3,0,0,0,11.86.41c2-1.2,4.41-.49,6.59-.66,8.22.27,16.26-2,23.91-4.75,4.1-1.61,8.79,2.85,7.63,7.07a6.85,6.85,0,0,1-4.75,4.6,100.78,100.78,0,0,1-37.51,5.78c2.31,4.23,4.91,8.57,5.63,13.41.22,3.46-3,5.62-6,6.32-5.62-.73-6.22-6.85-8.35-10.94-1.9-3.47-3.87-7.1-6.56-9.95l.44-.21c-5-.38-9.78-1.61-14.64-2.62-2.19-.53-4.37-1.11-6.55-1.72-4.56-1.2-9-2.85-13.45-4.37-4.79-1.77-9.53-3.69-14.14-5.91a48.62,48.62,0,0,0-5.31,35.07c.37,4.71,2.58,9,3.81,13.47l.28,0A90.4,90.4,0,0,0,93.06,441c7.12,8.92,15.87,17.33,27,20.75A31.25,31.25,0,0,0,148,456.87a18.09,18.09,0,0,0,6.8-15.46,6.74,6.74,0,0,1,10.39-3.67c3.62,6.65.41,14.75-3,20.9,6.27-.27,12.71-1.72,17.76-5.64,2.7-2.2,6.68-1.42,9.07.86,4.92,4.58,11.61,6.38,18,7.74,8,1.66,16.21,1.91,24.36,2,1.21-6.1,4.08-11.62,7.24-16.9,4-5,8.09-10,13-14.13a70.79,70.79,0,0,1,3.3-28.43c1.52-4.12,7.66-5,10.15-1.3,2.16,2.24.91,5.32.64,8-3,7.31-2.58,15.5-2,23.23-.13,5.88-6,8.42-9.32,12.43-6,6.64-12.38,14.92-11.09,24.44.53,4.73,4.43,7.86,8.35,9.93a54,54,0,0,1,1-14.24c.88-1.68,1.64-3.7,3.57-4.44,3.53-1.89,8.3,1.77,7.43,5.68a54.28,54.28,0,0,0-1.24,6.71c.05,3.29-.26,7.06,2,9.78,8.12,1.65,16.46,1.38,24.7,1.38a49,49,0,0,1-1-7.81c.28-3.6-.86-7.93,1.78-10.89,2.12-2.56,6.56-2.06,8.26.73,2.14,2.77.21,6.33.62,9.47.42,2.4.7,4.83,1,7.26a57.38,57.38,0,0,0,19.41-5.21c2.77-1.59,6.33-3.31,6.88-6.81l.43.18c.19-5.84,1.14-12.11-1.7-17.49-1.33-2.52-.82-6,1.71-7.61,11.92-8.54,19.56-21.67,25-35,5.09-12.94,8-26.66,9.58-40.44.23-3.56,4.24-6.34,7.62-5.09a6,6,0,0,1,4.13,6.93c-2.69,23.32-9.09,46.88-22.73,66.29a77.07,77.07,0,0,1-12.71,14,42.77,42.77,0,0,1,1.33,10.45c4.41-.41,8.95-1,12.9-3.11a27.56,27.56,0,0,1-2.1-9.62c.19-4.22,5.52-7.06,9.07-4.65,3.56,2,2.72,6.54,4,9.83A20,20,0,0,0,377.82,471c6.65,1.31,14.06.89,19.95-2.73,5.49-2.13,10.14-6.05,14.19-10.26,11-11.68,17.89-26.43,23.44-41.29,1.53-5,3.57-9.81,4.3-15l.31.08c1.79-8.25,2.7-16.86,1.18-25.22-2-10.42-12.63-18.69-23.3-17-9,1.32-17.19,5.76-24.75,10.61-3.7,2.26-9.25-.74-8.89-5.18-.28-3,2.39-4.73,4.39-6.36,3.84-1.58,7.1-4.34,11.12-5.51a43.54,43.54,0,0,0-11.57-13.33c-1.3-.88-2.39-2.53-4.1-2.48-5.83,3.7-10.91,9.71-18.25,10.13-1.31-2-3.75-3.73-3.52-6.42-.2-2.35,1.47-4.28,3.4-5.37,7.09-4.24,14.21-9.66,17.34-17.58,2.37-6.11,1.06-12.93-1.9-18.58A191.28,191.28,0,0,1,319,330.19c-4.56,1.68-9.33-3.85-7.11-8.13,1.69-4,6.67-3.73,10.12-5.14,40.89-13.48,77.31-41.54,99.09-78.87,1.28-4.69-.71-9.72-.78-14.55a36.66,36.66,0,0,0-.55-4.68c-1.6-7-1.41-14.27-3.28-21.2a483.11,483.11,0,0,0-16.19-71.14c-.42-1.59-.59-3.22-.91-4.83,4.71-15.47,8.23-31.4,9.3-47.57.24-9.38,1-19.58-3.9-28-1-2.18-3.93-2.18-5.65-.87-6,4-9.43,10.51-14.37,15.54-9.31,9.62-21.68,16.9-35.08,18.49-1.72,1.42-3.85,1.15-5.9.82-4.28-2.12-5.47-9.79-.38-11.53,13.29-1.34,26.26-7.81,34.63-18.34-8.19,3.46-16.91,6.94-26,5.9-9-1.9-17.32-5.92-26-8.91-4.76-1.78-9.66-3.18-14.45-4.89l-.32.23c-23-7.35-47.4-8.1-71.32-7.8C221.64,35.46,202.9,37,185.76,44ZM73.23,180.31A11.23,11.23,0,0,0,66.67,191a8.83,8.83,0,0,0,6.45,6.69c3.72,1.28,7.74-.49,10.41-3.12,5.81-5.14,9-12.38,12.16-19.31C88,175.65,80.16,176.85,73.23,180.31Zm374.2,89.88a25.48,25.48,0,0,0-16.66,11.27c-6.45,9.2-4.27,20.94-4.41,31.44-1,4-.31,8.19-1.17,12.22s-1.11,8.22-2,12.28c-1.39,3.42-2.55,7-4.52,10.1a34.41,34.41,0,0,1,10.31.92c8.66,2.82,16.62,8.64,20.71,16.94.77,1.32,1.21,2.95,2.5,3.91a35.13,35.13,0,0,0,1.28,7.68,102.1,102.1,0,0,1,.36,10.79l.54,0c-1.09,4.49-1,9.2-2.1,13.71,4.66-4.88,9.18-10,12.44-15.94A77,77,0,0,0,473,366.33a76.27,76.27,0,0,0,5-18.92,110.77,110.77,0,0,0,2.47-26.5,82.52,82.52,0,0,0-.31-13.88c-1.07-8.94-2.49-18.21-7.23-26C467.86,272.48,457.08,268.06,447.43,270.19ZM38.57,308.32c-2.08,9.79-4.64,20.14-2.31,30.06a11.41,11.41,0,0,0,7.5,9.72c9,3.58,21.48.58,25.94-8.51.33-3.14-2-5.28-4-7.31-2.38-2.12-2.4-5.6-2.24-8.53.44-3.15,4.62-4.38,4.48-7.73.44-3.64-3.34-5.51-6.11-6.73C54.41,306.62,46.18,306.75,38.57,308.32Z"/>
    <path class="cls-3" d="M154.67,90.65c2.72-2.34,4.11-6.8,8.29-6.9,3.44.25,5.4,3.17,6.32,6.17-2.67,7.6-9.44,13.12-17.06,15.28-3.75-.19-7.35-3.16-6.56-7.22C146.45,93.42,151.94,93.49,154.67,90.65Z"/>
    <path class="cls-3" d="M303.67,92c1.15-3.2,4.16-7.54,8.09-5.71,3.16.81,4.18,4.36,6.7,6.1,2.7,2.2,7.08,1.83,8.85,5.24,2.69,3.57-1.12,9.12-5.31,8.75C314,105.16,306.5,99.7,303.67,92Z"/>
    <path class="cls-3" d="M141.6,142.61c-3-4.17,1.56-10.26,6.35-8.92,10,2.69,18.28,10.4,22.77,19.6,2,4.12-1.45,8.74-5.74,9.1-3.62-1.25-6.47-4-10.06-5.28a38.28,38.28,0,0,0-23.09-1.37c-5.54,1.48-9.54-6.42-5.2-10.1C130.89,142.66,136.62,143.07,141.6,142.61Z"/>
    <path class="cls-3" d="M280.41,149.48c5-7.3,12.72-13.13,21.52-14.84,4.65-.2,7.36,5.23,5.33,9.16,9.13-.34,19,.93,26.45,6.59,3.71,2.65,2.23,9-2,10.21s-7.11-2.66-10.87-3.48c-11.69-3.59-24,.11-34.77,5-3.67,1.83-7.89-1.3-8.33-5.08C277.09,154.19,278.9,151.7,280.41,149.48Z"/>
    <path class="cls-3" d="M199.53,163.84c7.11-1.09,14.8-1,21.33,2.39a4.91,4.91,0,0,1,2.17,6.61A24.77,24.77,0,0,1,212.19,184a9.75,9.75,0,0,1-10.21-.94c-4.51-3-9-7.47-9.39-13.18C192.45,166.16,196.46,164.52,199.53,163.84Z"/>
    <path class="cls-3" d="M344,167.11c8.19-1.56,16.55-1.88,24.86-2.46,7.56.2,15.42.71,22.44,3.78,6,2.59,9.58,8.69,11.17,14.79,2.09,6.45.47,13.54-2.85,19.27-2,3.43-5.5,5.48-8.69,7.64-3.61.8-7.25,1.83-11,1.54-6.68-.2-12.77-3.61-17.84-7.72-9.19-7.68-16-17.68-22.13-27.89A6.13,6.13,0,0,1,344,167.11Zm11,10.47c5.2,7.45,10.82,15,18.66,19.88,4.29,2.79,10.63,3.39,14.69-.11,5.55-5.42,3.39-17.33-4.64-19.08C374.3,175.87,364.51,176.68,355,177.58Z"/>
    <path class="cls-3" d="M202.53,192.61c3.94-2,8.5-1.16,12.44.37a292.44,292.44,0,0,0,68.85,12.33c4.31.16,6.46,5,5.56,8.81-4.24,17.89-15.65,34.39-31.87,43.39-13.71,7.64-29.94,9.75-45.4,8.15-17.56-1.5-35.46-7.06-48.73-19.07-11.41-10.22-19.08-25.08-19-40.57-.31-2.87,2-5.46,4.7-6.15C167,199.14,185.36,198.39,202.53,192.61Zm-20.66,52.52c10.25,5.54,21.89,8.05,33.43,8.86,13.81,1.2,28.36-1.33,40.06-9.08-10.39-7-23-10.14-35.37-10.95C206.46,233.36,193.23,238,181.87,245.13Z"/>
  </g>
  <g>
    <path class="cls-4" d="M110.88,38.72A5.8,5.8,0,0,1,115,34.49c2.94-.67,4.65,2.38,6.2,4.33,7.16,10.56,16,20.54,27.55,26.35,4.15,2.2,8.78,3.07,13.24,4.38-5.92,1.69-12,3.08-17.5,5.89-10.92,5.46-19.94,14.12-27.18,23.86a151.67,151.67,0,0,1-7.25-27.15C108.31,61.11,107.58,49.55,110.88,38.72Z"/>
    <path class="cls-4" d="M399.13,45.19c1.72-1.31,4.62-1.31,5.65.87,4.87,8.44,4.14,18.64,3.9,28-1.07,16.17-4.59,32.1-9.3,47.57a51.85,51.85,0,0,0-6.14-8.93c-9.31-11.44-20.63-21.4-33.74-28.26-2.49-1.28-4.95-2.8-7.73-3.38-2.67-.31-5.4-.26-8-1,2.05.33,4.18.6,5.9-.82,13.4-1.59,25.77-8.87,35.08-18.49C389.7,55.7,393.14,49.14,399.13,45.19Z"/>
    <path class="cls-4" d="M181.87,245.13C193.23,238,206.46,233.36,220,234c12.39.81,25,3.9,35.37,10.95-11.7,7.75-26.25,10.28-40.06,9.08C203.76,253.18,192.12,250.67,181.87,245.13Z"/>
    <path class="cls-4" d="M71.25,281c2.06-.81,4.34-2.14,6.56-1,5.51,3.42,5.22,12.47.19,16.1-6.21,3.62-13.18-4.27-10.57-10.38A7.89,7.89,0,0,0,71.25,281Z"/>
    <path class="cls-4" d="M34.72,285.81c5.06-3.51,13.11-2.37,16.66,2.81,1,2.13.94,4.55,1.37,6.82A72,72,0,0,0,36,296.54a7.58,7.58,0,0,1-2.42-3.21C33.62,290.82,33.2,288,34.72,285.81Z"/>
    <path class="cls-4" d="M401.92,374.1c2.53-2.77,5.95-5.18,9.88-5,6.77,2.45,8.39,11.23,5.44,17.13-2.42,4.88-10.6,5.81-13.43.84C401,383.34,401.72,378.47,401.92,374.1Z"/>
    <path class="cls-4" d="M95.87,377.49c4.46,1.52,8.89,3.17,13.45,4.37-.08,3.61-.38,7.63-3.09,10.34-4.76,3.25-12.07-.37-12.8-6C92.51,383,94.3,380.1,95.87,377.49Z"/>
    <path class="cls-4" d="M428.17,378c7-3,13.47,6,10.06,12.1-1.63,5.39-8.89,9.27-13.67,5.36C419.2,390.55,421.94,380.87,428.17,378Z"/>
    <path class="cls-4" d="M388.28,381.14c3.11-1.29,7.15-.34,8.76,2.81,2.45,4,3.9,10.38-.52,13.56-5.46,4.84-14.23-1.95-12.85-8.47A7.45,7.45,0,0,1,388.28,381.14Z"/>
    <path class="cls-4" d="M115.87,383.58c4.86,1,9.68,2.24,14.64,2.62l-.44.21-1.62.77a48.46,48.46,0,0,1-.62,5.63c-1.85,2.8-5.31,5-8.76,4.36-3-.55-4.54-3.56-5.09-6.26S114.93,385.9,115.87,383.58Z"/>
    <path class="cls-4" d="M78.57,386.5c1.67-2.28,4.9-2.23,7.32-1.36,3.67,1.25,5.64,5.22,6.27,8.8S90,399.87,88,402.18a12.9,12.9,0,0,1-10.41-4.75C76.23,394,75.46,389.31,78.57,386.5Z"/>
    <path class="cls-4" d="M103.23,400.19c1.46-.3,3.08-.66,4.5,0,4.45,1.94,8,5.4,11.47,8.67,4.78,5.09,7.63,11.66,9.93,18.16s2.24,15.07-4.33,18.94c-4.56.72-9.71.8-13.54-2.16A40.87,40.87,0,0,1,101,433c-3.13-6.26-6.64-12.72-6.41-19.95C94.53,407.63,97.38,401.19,103.23,400.19Z"/>
    <path class="cls-4" d="M406.16,400.16a10.36,10.36,0,0,1,12.47,5.06c2.13,3.55,1.79,7.82,1.75,11.79.1,4.51-2.14,8.59-3.51,12.77-3.79,7.66-8.42,15.85-16.53,19.57-4.51,2.64-10.82,3-14.87-.71-4.2-3.15-4-8.94-3.56-13.63a53.08,53.08,0,0,1,8.8-21.35C394.64,408,399.54,402.58,406.16,400.16Z"/>
    <path class="cls-4" d="M428.15,410.28c.38-4.52,3.77-7.93,7.81-9.57l3.74,1c-.73,5.17-2.77,10-4.3,15C431.52,417.9,426.94,414.47,428.15,410.28Z"/>
    <path class="cls-4" d="M77.69,406.67c2.52.12,5.36-.54,7.55,1.06,2.77,1.88,3.11,5.52,4.22,8.42a29.23,29.23,0,0,1-4.23,4.24A152.2,152.2,0,0,1,77.69,406.67Z"/>
  </g>
  <g>
    <path class="cls-5" d="M73.23,180.31c6.93-3.46,14.79-4.66,22.46-5-3.14,6.93-6.35,14.17-12.16,19.31-2.67,2.63-6.69,4.4-10.41,3.12A8.83,8.83,0,0,1,66.67,191,11.23,11.23,0,0,1,73.23,180.31Z"/>
    <path class="cls-5" d="M355,177.58c9.53-.9,19.32-1.71,28.71.69,8,1.75,10.19,13.66,4.64,19.08-4.06,3.5-10.4,2.9-14.69.11C365.8,192.61,360.18,185,355,177.58Z"/>
  </g>
  <g>
    <path class="cls-6" d="M86.92,207a51.81,51.81,0,0,0,6.92-5.62c2.15,3.31,2.56,7.32,3.88,11,10.66,31.34,29.53,59.71,53.62,82.35a12.92,12.92,0,0,1,4.24,5.83c-9.22-5.08-17.17-12.19-25-19.23C109.68,261.16,93.8,235.34,86.92,207Z"/>
    <path class="cls-6" d="M426.36,312.9c.14-10.5-2-22.24,4.41-31.44.56,6.43-.53,12.93.65,19.31,1.15,6.54,3.47,13,3,19.72A28.55,28.55,0,0,1,426.36,312.9Z"/>
    <path class="cls-6" d="M219.61,324.63a7.69,7.69,0,0,1,5.4-2.17c9.77-.53,19.27,2.65,29,2.43,6,.45,11.87-2.53,17.77-.7,2.92,1,3.35,4.36,4.32,6.84-3.9,8.05-12.06,13.08-20.36,15.67-13.38,3.44-27.66-2.81-36.18-13.22C217.36,331.15,216.91,326.77,219.61,324.63Z"/>
    <path class="cls-6" d="M418.63,347.5c2-3.15,3.13-6.68,4.52-10.1a31.86,31.86,0,0,0,7.2,5.88l1,.59q-1.23,2.26-2.43,4.55A34.41,34.41,0,0,0,418.63,347.5Z"/>
    <path class="cls-6" d="M36.26,338.38c3.31,1.11,6.58,2.35,9.89,3.46a30.47,30.47,0,0,0,23.55-2.25c-4.46,9.09-17,12.09-25.94,8.51A11.41,11.41,0,0,1,36.26,338.38Z"/>
    <path class="cls-6" d="M73.07,354.13a29.52,29.52,0,0,0,6.91-7.9c4.41,2.37,8.22,5.67,12.56,8.16,14.71,8.4,30.63,15,47.46,17.61,2.14.49,4.83.34,6.21,2.38-2.88.22-5.76.45-8.63.74C114.84,373.15,93.13,364.72,73.07,354.13Z"/>
    <path class="cls-6" d="M263.78,434.06c-.59-7.73-1-15.92,2-23.23,1,3.31,1.56,6.74,2.28,10.14.85,4,3,7.82,3.09,12-.67,3.73-3.32,6.68-6.07,9.11a63.94,63.94,0,0,0-10.42,11.56c-2.55,3.72-3.83,8.69-1.89,13a54,54,0,0,0-1,14.24c-3.92-2.07-7.82-5.2-8.35-9.93-1.29-9.52,5.07-17.8,11.09-24.44C257.74,442.48,263.65,439.94,263.78,434.06Z"/>
    <path class="cls-6" d="M80.51,420.14c1.57.07,3.15.15,4.72.25,3.7,5.41,6.9,11.2,11.55,15.89,8.09,9.35,19.2,18.17,32.26,17.45,9.69-1,18.43-6.16,25.77-12.32a18.09,18.09,0,0,1-6.8,15.46,31.25,31.25,0,0,1-27.92,4.89c-11.16-3.42-19.91-11.83-27-20.75A90.4,90.4,0,0,1,80.51,420.14Z"/>
    <path class="cls-6" d="M165.2,437.74a27.49,27.49,0,0,0,16.74,1.11c4.66-1.39,9,1.61,13.26,3,13.84,5.33,28.88,5.4,43.49,4.9-3.16,5.28-6,10.8-7.24,16.9-8.15-.1-16.35-.35-24.36-2-6.41-1.36-13.1-3.16-18-7.74-2.39-2.28-6.37-3.06-9.07-.86-5.05,3.92-11.49,5.37-17.76,5.64C165.61,452.49,168.82,444.39,165.2,437.74Z"/>
    <path class="cls-6" d="M337.47,454.26a77.07,77.07,0,0,0,12.71-14c4.83,1,9.81-.14,14.6,1,3.94,1,3.62,5.72,4.2,8.89.51,6.47,3.56,13.55,10.07,15.93,5.83,3,12.48,1.39,18.72,2.24-5.89,3.62-13.3,4-19.95,2.73a20,20,0,0,1-15.15-13.81c-1.28-3.29-.44-7.84-4-9.83-3.55-2.41-8.88.43-9.07,4.65a27.56,27.56,0,0,0,2.1,9.62c-3.95,2.15-8.49,2.7-12.9,3.11A42.77,42.77,0,0,0,337.47,454.26Z"/>
    <path class="cls-6" d="M321.78,472.7c1.42-.31,3-1.15,4.37-.23-.55,3.5-4.11,5.22-6.88,6.81a57.38,57.38,0,0,1-19.41,5.21c-.34-2.43-.62-4.86-1-7.26A121.18,121.18,0,0,0,321.78,472.7Z"/>
    <path class="cls-6" d="M262.52,474.57c8.33,2.48,16.91,4.11,25.64,3.35a49,49,0,0,0,1,7.81c-8.24,0-16.58.27-24.7-1.38C262.26,481.63,262.57,477.86,262.52,474.57Z"/>
  </g>
  <path class="cls-7" d="M426.36,312.9a28.55,28.55,0,0,0,8.09,7.59c.19,6.37.42,12.88-1.61,19-.61,1.4-.45,3.79-2.49,3.77a31.86,31.86,0,0,1-7.2-5.88c.93-4.06,1.23-8.21,2-12.28S425.34,316.91,426.36,312.9Z"/>
  <path class="cls-8" d="M76.42,406.65l1.27,0a152.2,152.2,0,0,0,7.54,13.72c-1.57-.1-3.15-.18-4.72-.25l-.28,0C79,415.62,76.79,411.36,76.42,406.65Z"/>
</svg>
