<svg id="Layer_1" data-name="Layer 1" xmlns="http://www.w3.org/2000/svg" viewBox="0 0 456.25 498.1">
  <defs>
    <style>
      .cls-1 {
        fill: #fbfcfd;
      }

      .cls-2 {
        fill: #0a1f2e;
      }

      .cls-3 {
        fill: #f7efed;
      }

      .cls-4 {
        fill: #ed441b;
      }

      .cls-5 {
        fill: #fbc1bc;
      }

      .cls-6 {
        fill: #fbc2bd;
      }

      .cls-7 {
        fill: #b83c21;
      }

      .cls-8 {
        fill: #0c1e2a;
      }

      .cls-9 {
        fill: #0c1f2a;
      }

      .cls-10 {
        fill: #b73d24;
      }

      .cls-11 {
        fill: #b63d25;
      }

      .cls-12 {
        fill: #c1bebf;
      }

      .cls-13 {
        fill: #c0bcbe;
      }

      .cls-14 {
        fill: #e44420;
      }

      .cls-15 {
        fill: #fafefe;
      }

      .cls-16 {
        fill: #fdfefe;
      }

      .cls-17 {
        fill: #7e848c;
      }

      .cls-18 {
        fill: #bfbdbe;
      }

      .cls-19 {
        fill: #fbfcfe;
      }

      .cls-20 {
        fill: #f9fbfe;
      }

      .cls-21 {
        fill: #091f2d;
      }

      .cls-22 {
        fill: #c0bdbe;
      }

      .cls-23 {
        fill: #f6eded;
      }

      .cls-24 {
        fill: #c1bdbf;
      }

      .cls-25 {
        fill: #f8eeec;
      }

      .cls-26 {
        fill: #e54724;
      }

      .cls-27 {
        fill: #e6451e;
      }

      .cls-28 {
        fill: #bfbdbf;
      }

      .cls-29 {
        fill: #b24122;
      }

      .cls-30 {
        fill: #bfbdbc;
      }

      .cls-31 {
        fill: #f8ece9;
      }

      .cls-32 {
        fill: #e9451b;
      }

      .cls-33 {
        fill: #b93c21;
      }

      .cls-34 {
        fill: #f5e8b8;
      }

      .cls-35 {
        fill: #f4e9b9;
      }

      .cls-36 {
        fill: #bdb897;
      }

      .cls-37 {
        fill: #beb897;
      }

      .cls-38 {
        fill: #037ac9;
      }
    </style>
  </defs>
  <path class="cls-1" d="M174.35,22.15c21-6.2,42.69-10.74,64.63-12,12-1.32,24-.59,36-.7,19.8,1.13,39.66,3.33,58.88,8.36A154.07,154.07,0,0,1,358.8,25c2.76.78,5.68,2.29,8.57,1.24A133.2,133.2,0,0,1,395,20.7c9.94-.72,20.85,2,27.48,9.87,6.48,8.14,8.21,19.07,6.92,29.19C427,77.18,418.72,93,411.74,108.86a4.6,4.6,0,0,0-.21,3.42c10.49,26.08,19.86,52.77,25.68,80.33.66,3,.93,6.14,2.12,9,2.34,1.42,5.22,1.9,7.34,3.71,3.76,4,3.68,11.12-.52,14.76-1.23,1.56-3.9,2.53-3.48,4.88.6,7,1.68,14,1.88,21,.16,4.64,1.31,9.31.3,13.93-.79,5.32-3.55,10.05-6.63,14.35-7.47,9.87-17.63,17.19-27.66,24.23-2.63,2-6,3.58-7.67,6.54a95.07,95.07,0,0,1,.73,16.95,8.18,8.18,0,0,0,1.74,5.67c12.38,18.14,16.56,40.69,16,62.34-.13,8.05-2.11,15.94-2.64,23.94,4.13,3.93,9.57,6,14.24,9.16q7.24,4.84,14.74,9.27c2,1.19,4,2.68,4.9,5C455,444,452.5,451.57,455,458.1c6.5,5.7,15.27,8.27,21.55,14.3,3.63,3.47,3.78,9.32,1.11,13.41-3.2,5.38-6.65,12.5-13.89,12.59-21.93.47-43.9-.31-65.81.79-28.32.56-56.65.21-85,.55-12.67.69-25.36.64-38.05.72-2-.14-3.75,1.06-5.39,2.07A31.11,31.11,0,0,1,244,506.2c-6-1-10.7-6-16.94-5.69-14.34.13-28.69.09-43,.22-25,1.09-50,.69-75,.91-23.68-.16-47.34,1.26-71,.8-4.44-.17-9.71-2.38-10.44-7.31C26.34,489.55,24.9,482.73,29,478c5.17-5.88,11.72-10.31,17.47-15.56,1.13-1,1.15-2.59,1.55-3.92-12.36-8.19-21.79-21.3-24.14-36.08-1.47-11.46-.24-23.35,4.64-33.9,5-12.34,14.91-22.9,27.58-27.4,13.84-5.17,29-4.3,43.32-2.33a78.36,78.36,0,0,1,8.37-23c1.66-3,4-5.67,5-9-.29-4-2-7.76-2.07-11.78s.84-7.8,1.22-11.71c-13-7.48-25.94-16-34.74-28.46-3.91-6.17-3.38-13.77-4.51-20.71-1.83-10.8-.65-21.78-.94-32.66-3.68-1.36-7.86-2.8-9.73-6.57a10.78,10.78,0,0,1,3.43-14.38c2.72-1.52,6-1.14,9-1.56.93-10.17,3.11-20.15,5.2-30.12,3.53-18.5,9.07-36.56,15-54.41,1.6-5.15,4.39-10,5.11-15.36-1.52-4.43-4.51-8.17-6.68-12.29C87.6,75.91,82.64,64.51,81.27,52.28c-1.74-9.85-.19-20.87,6.22-28.82C93,16.52,102.63,14.72,111,15.71c10.16,1.52,19.69,5.5,29.42,8.6A54.3,54.3,0,0,0,161.06,26C165.69,25.52,169.92,23.43,174.35,22.15Zm-7,7.3c-5.93,1.9-12.27,1.41-18.4,1.2-13.85-1.18-26.15-9.07-40-10.26-6.8-.71-14.36,1.3-18.56,7-5.78,8.07-5.69,18.69-3.92,28.05,2.8,13.33,8.58,25.86,15.6,37.47a27.37,27.37,0,0,1,3,6c-1.22,5.41-3.72,10.42-5.47,15.66-10.23,29.57-18,60.12-21.19,91.29-3.22-.89-6.6-2.36-10-1.4-3.35,1.62-4.13,6.86-1.22,9.26,2.95,2.2,6.47,3.45,9.69,5.19-.2,12-1.15,24.12.72,36,.93,6.09.49,12.81,4.25,18.05,9.16,12.48,22.58,20.77,35.92,28.13-1.09,4.55-2.46,9.12-2.35,13.85.06,4.51,1.88,8.71,3.43,12.87-3.8,5-7.48,10.24-10,16.08-3.08,6.46-4.22,13.56-5.77,20.49-9.93-1.94-20.11-3.37-30.23-2.32-12.17.93-24.44,5.9-32.41,15.39-10.76,13-14.71,31-11.33,47.38,3.1,12.87,12,24,23.33,30.61,0,2.61.33,5.28-.26,7.85-3.5,3.83-7.91,6.71-11.75,10.18-3.09,2.82-6.89,5.14-8.92,8.91a20.41,20.41,0,0,0,.58,11.3c1.39,3.47,5.51,4,8.78,3.86,23-.23,46-.17,69-.82,21-.13,42-.11,63-.45,15.67-.09,31.33-.73,47-.64,5.14.16,10.78-1.05,15.39,1.89,8.13,4.74,18.54,7,27.49,3.29,4.16-1.53,7.26-5.86,12.05-5.41,16.35,0,32.72.05,49.07-.66q41.49-.12,83-.56c17.67-.81,35.37-.47,53.05-.59,2.85-.06,6.28.14,8.25-2.36,2.68-3.32,5.46-7,6.14-11.31.44-3.74-3-6-5.77-7.72-6.4-3.84-13-7.4-19.2-11.54-.19-6.47.23-13-.93-19.41-.35-2.5-2.4-4.16-4.36-5.46-10.25-6.6-20.72-12.83-31-19.36,1.48-9.46,3.48-18.9,3.3-28.53.61-20.24-3.7-41.24-15.41-58.06-1.43-2-2.84-4.29-2.22-6.88,1-7,0-14-1.63-20.83,11.53-8.34,23.82-16,33.56-26.46,5.09-5.74,10.09-12.71,9.66-20.76-.92-11.65-1.66-23.3-2.94-34.92,2.16-1.33,4.59-2.46,6.15-4.54A5.55,5.55,0,0,0,442,208c-2.17-.92-4.59-1-6.88-1.32a446.37,446.37,0,0,0-28.25-92.62c-.59-1.8-1.82-3.82-.59-5.63,7.37-15.07,14.79-30.41,18-47,1-7.7,1.16-16-2.61-23-3.35-7.67-11.55-12.21-19.65-12.82C390.41,24.7,379,27.64,368,31c-4.6,1.72-9-1.37-13.32-2.6a296.53,296.53,0,0,0-45.39-10.65c-21.51-3.67-43.4-4.07-65.15-3.27A285.11,285.11,0,0,0,167.39,29.45Z" transform="translate(-23.26 -9.36)"/>
  <path class="cls-2" d="M167.39,29.45a285.11,285.11,0,0,1,76.71-15c21.75-.8,43.64-.4,65.15,3.27a296.53,296.53,0,0,1,45.39,10.65C359,29.62,363.36,32.71,368,31c11-3.35,22.45-6.29,34.07-5.42,8.1.61,16.3,5.15,19.65,12.82,3.77,7,3.57,15.34,2.61,23-3.19,16.6-10.61,31.94-18,47-1.23,1.81,0,3.83.59,5.63a446.37,446.37,0,0,1,28.25,92.62c2.29.36,4.71.4,6.88,1.32a5.55,5.55,0,0,1,1.61,7.53c-1.56,2.08-4,3.21-6.15,4.54,1.28,11.62,2,23.27,2.94,34.92.43,8.05-4.57,15-9.66,20.76-9.74,10.51-22,18.12-33.56,26.46,1.65,6.81,2.66,13.84,1.63,20.83-.62,2.59.79,4.86,2.22,6.88,11.71,16.82,16,37.82,15.41,58.06.18,9.63-1.82,19.07-3.3,28.53,10.29,6.53,20.76,12.76,31,19.36,2,1.3,4,3,4.36,5.46,1.16,6.39.74,12.94.93,19.41,6.22,4.14,12.8,7.7,19.2,11.54,2.74,1.72,6.21,4,5.77,7.72-.68,4.31-3.46,8-6.14,11.31-2,2.5-5.4,2.3-8.25,2.36-17.68.12-35.38-.22-53.05.59q-41.5.39-83,.56c-16.35.71-32.72.64-49.07.66-4.79-.45-7.89,3.88-12.05,5.41-8.95,3.69-19.36,1.45-27.49-3.29-4.61-2.94-10.25-1.73-15.39-1.89-15.67-.09-31.33.55-47,.64-21,.34-42,.32-63,.45-23,.65-46,.59-69,.82-3.27.12-7.39-.39-8.78-3.86a20.41,20.41,0,0,1-.58-11.3c2-3.77,5.83-6.09,8.92-8.91,3.84-3.47,8.25-6.35,11.75-10.18.59-2.57.28-5.24.26-7.85-11.38-6.62-20.23-17.74-23.33-30.61-3.38-16.42.57-34.4,11.33-47.38,8-9.49,20.24-14.46,32.41-15.39,10.12-1,20.3.38,30.23,2.32,1.55-6.93,2.69-14,5.77-20.49,2.47-5.84,6.15-11,10-16.08-1.55-4.16-3.37-8.36-3.43-12.87-.11-4.73,1.26-9.3,2.35-13.85-13.34-7.36-26.76-15.65-35.92-28.13-3.76-5.24-3.32-12-4.25-18.05-1.87-11.92-.92-24-.72-36-3.22-1.74-6.74-3-9.69-5.19-2.91-2.4-2.13-7.64,1.22-9.26,3.37-1,6.75.51,10,1.4,3.19-31.17,11-61.72,21.19-91.29,1.75-5.24,4.25-10.25,5.47-15.66a27.37,27.37,0,0,0-3-6c-7-11.61-12.8-24.14-15.6-37.47-1.77-9.36-1.86-20,3.92-28,4.2-5.72,11.76-7.73,18.56-7,13.85,1.19,26.15,9.08,40,10.26C155.12,30.86,161.46,31.35,167.39,29.45ZM178,37.54c-4.74.91-9.08,3.4-13.93,3.8-11.08.61-22.47.33-33-3.44-8.12-2.83-16.18-6.9-25-6.56-2.23,0-4.21,1.08-6.18,2,6,.59,12.31,1,17.46,4.41,6.1,4.12,11.27,9.52,17.72,13.15,5.84,3,11.49,7.06,18.25,7.64,3.49.81,8.23.42,10.32,3.94,1.59,2.73-1.07,5-2.55,7-16.28.69-31-8.24-43.09-18.33-4.63-3.48-9.74-7.7-16-6.84-3-.4-6,2.57-5.1,5.61a89.38,89.38,0,0,0,4.23,16.26c4.61,10.68,9.65,21.26,16.48,30.72-4.32,14.6-11.08,28.39-14.53,43.27a364.19,364.19,0,0,0-13.51,63.15,34.5,34.5,0,0,0-.1,8.31c2.64,2.32,6.14,3.26,9.24,4.8a126.64,126.64,0,0,0,12.9,5.7A68.55,68.55,0,0,0,120,225.5c.34-4.85.79-9.88,3.3-14.18,4.83-9.54,14.77-15.23,24.74-18,18.28-4.08,37.36-3,55.61.72,11,2.24,22.13,7.12,28.91,16.42,2.91,3.86,3.43,8.8,4.05,13.43,14.8-5.12,31.37-4.08,45.7,2-.27-5.45.48-11.15,3.88-15.6,6.41-10.22,18.72-14,29.83-16.52,16.65-3.24,33.94-4.38,50.71-1.29,9.87,2,19.62,6.81,25.87,14.9,4.09,5.21,5.21,11.88,6.14,18.25a90.12,90.12,0,0,0,9.67-4.48c5.28-2.37,11-4,15.78-7.31.77-5.39-1.74-10.53-2.14-15.85-.37-4.94-1.92-9.63-3.32-14.34a234.19,234.19,0,0,0-9.08-30.35c-4.59-15.18-10.94-29.73-16.21-44.67a199.77,199.77,0,0,0,13-27.42c3.75-9.38,8.3-19.3,6.93-29.65-3.23-4.74-9.93-4-14.43-1.7-9.78,5.32-18.16,12.92-28.21,17.78-5,2.46-10.77,2.24-16.2,2.87-3.9-1.6-9.55.2-12.07-4-.62-2.26-.63-5.14,1.32-6.78,2.25-2.32,5.74-1.07,8.54-.88A25.91,25.91,0,0,0,370,56c7.1-4.07,13.51-9.23,20.44-13.57,3.43-2.16,7.39-3.28,10.84-5.41a61.08,61.08,0,0,0-33.76,6.3c-2.3,1.12-4.76-.06-6.88-1a66.77,66.77,0,0,0-15.63-4.95C340.27,35.21,335.1,34.13,330,33c-17.46-3.73-35.13-6.87-53-7.49-11.66-.13-23.33-.2-35,.14A299.76,299.76,0,0,0,178,37.54Zm-37.83,170.6c-4.75,3-8.65,8-8.78,13.85-.18,5.17-.56,10.74,2.06,15.42A51.43,51.43,0,0,0,150,256.86c-1.84-4.42-4.25-9-3.46-13.91.3-6.53,4.62-12.29,10.42-15.08,10.54-5.22,22.79-4.75,34.13-3,4.7,1,9.5,2.65,13,6a26.63,26.63,0,0,1,7.66,19.18,74.06,74.06,0,0,0,12-17.33,19.49,19.49,0,0,0,1.48-13.24c-1.84-5-6.34-8.45-10.87-10.9-16-7.46-34.1-7.6-51.41-7C155.08,202.42,146.86,203.62,140.15,208.14Zm164.19.27c-6.43,3.25-13,9.64-11.64,17.52,1.77,10.36,9,18.54,16,25.94-.09-4.71-1-10.11,2.11-14.11,5.87-7.26,14.77-12.19,24.18-12.51,8.69-1,17.7-.26,25.85,3,5.19,2.29,10.2,6.1,12.24,11.58.3,4.81-.47,9.58-.79,14.36q1.65-1.51,3.29-3.06c6.07-7.08,12.26-15.4,12-25.2.17-6.14-2.21-12.5-7.22-16.27-9.14-7-21.12-8.49-32.31-8.24C333.22,201.16,318,202.38,304.34,208.41ZM88.24,223.77c-.54,8.19-.91,16.47.32,24.62.26,5.53.13,11.19,1.59,16.56,2.06,4.3,5.76,7.52,9.19,10.72a117.36,117.36,0,0,0,37.78,21.21,39,39,0,0,0,11.07,2.92c3.64,2.25,7.63,4.56,9.57,8.57,1.27,2.3-1.17,4.38-2,6.39-5.89.48-10.94-2.92-16.53-4A65.71,65.71,0,0,0,128,307c-1.58,4.88-2.12,10.64.93,15.07,4.56,4.87,11.68,6.81,15.46,12.53,1.83,2.58.16,5.76-.49,8.47-2.84,7.92-2.82,16.54-1.71,24.78,2.22,13.93,10.09,26.21,19.29,36.6,1,1.37,2.9,1.29,4.44,1.59,4.75.52,9.52.94,14.3,1,1,.92,2.5.86,3.76,1.2a370,370,0,0,1,42.08,8.47c5.63,1.35,11.13,3.32,16.89,4.12-7.68-12.15-15.49-24.23-24.05-35.79-1.57-1.91-1.49-4.47-1.73-6.8,2-1.27,4.14-3.39,6.78-2.63,2.18.73,3.51,2.77,4.82,4.54,4.11,6.09,8.1,12.26,12.38,18.24,3.67,6,7.32,12,11.32,17.74.34-5.51,0-11.32,2.26-16.48,2.8-6.5,8.63-11.11,14.93-14,3.45-1.73,7.85-2.45,9.76-6.23.81-2.65,1.48-5.52,3.41-7.61,2.66-3,8.88-1.26,8.67,3.11-.3,4.7-2.38,9.09-4.41,13.27s-7,4.31-10.73,6C270.48,396.56,264,401,263.6,408c-.22,5.8-1.31,12.45,2.66,17.31.52-5.16.15-10.68,2.6-15.41,1.86-3.94,8.66-3.29,9.4,1.17-.27,5.82-1.85,11.7-.66,17.52,1.14,2.38,3.93,3.35,6.38,3.68a91,91,0,0,0,12.36.13c.2-5.15-.38-10.39.71-15.46.81-3.1,3.17-6.83,6.88-6.27a7.23,7.23,0,0,1,4.4,4.41c-.32,5.53-2.85,11.13-.58,16.58,19.48-1.31,36.62-15,44.15-32.74,6.33-13.55,9.28-28.48,10.49-43.32.46-5-.08-10.09,1.36-14.92,1.21-3.23,5.07-3.59,8-4.27,5.92-1,12.12-4.08,14.95-9.61,1.79-6.42.95-13.24.39-19.78-8.66,2.56-17,6.77-26.08,7.45-2.25.21-3.94-1.51-5.7-2.6,0-1.88.07-3.76.1-5.64,4.35-2.42,9.36-2.84,14.1-4.05,8.13-2.32,15.64-6.37,22.75-10.89,10-6.09,20.27-12.07,28.2-20.81,3.53-4,7.89-7.9,8.7-13.41.38-4.34-.45-8.67-.53-13a159.24,159.24,0,0,0-2-19,83.34,83.34,0,0,0-13.94,6.08c-4.85,1.89-9.65,3.94-14.31,6.24-3.84,1.61-4.7,6.09-6.31,9.49-3.72,4.95-7.06,10.3-12,14.2-10.84,9.86-25.7,13.8-40,14.36-16.89-.1-33.28-8.48-43.93-21.45a126.37,126.37,0,0,1-9.52-13.47c-1.42-2.4-4.09-3.49-6.54-4.51-7-2.79-14.41-4.8-22-4.75-8-.28-16.73.5-23.38,5.44-4.38,4.78-6.69,11.1-11.08,15.89-6.2,6.52-12.62,13.17-20.91,17-9.93,5.35-21.6,6.79-32.69,5.15-9.41-.67-18.22-4.63-26.21-9.43-7-4.29-11.88-11.06-16.74-17.51-2.06-3.69-3.07-8.64-7.28-10.54-3.79-2-7.75-3.57-11.69-5.21C101.49,229.16,95.25,225.43,88.24,223.77Zm103.25,12.62c-5.08,5.19.27,15.59,7.44,15.29,3.44.18,4.95-3.81,4.65-6.69C204,239.07,197,233.43,191.49,236.39ZM354.26,236c-3.59,1.79-3.17,6.58-1.88,9.73,1.75,3.84,6.47,7.6,10.7,5.32C369.4,245.31,362.46,232.83,354.26,236Zm-198,5.31c-.59,1.74-2.33,3.57-1.26,5.46.69,2.53,3.85,1.63,5.8,2.18a6.42,6.42,0,0,0,0-7.63Zm159.62,2.57c-1.84,2.74.7,6.79,4,5.91,4,.05,2.64-4.75,2.57-7.28C320.26,242.64,317.31,241.65,315.85,243.88ZM127.1,334.78c-.18.59-.56,1.75-.74,2.34a50,50,0,0,0-11.76,34.22c3.79,0,7.58-.1,11.38-.12,2,.42,3.93.87,5.9,1.33-.41-7.51-1-15.06-.24-22.56.32-3.87,1.91-7.56,1.89-11.45C131.82,336.65,129.36,335.79,127.1,334.78Zm246.36,12.34a181.33,181.33,0,0,1-7.13,44.45c-1.91,6.26-5.48,11.83-7.57,18,14.85-.19,29.71.09,44.56-.05,1.46-10.45,2.72-21,1.65-31.59-1-14.14-3.8-29-12.62-40.54C387,342.23,380.25,345,373.46,347.12ZM63.37,375.36c-3.07,1.09-6.26,2.15-8.81,4.27C48,384.47,42.63,391.9,41.88,400.19a11.86,11.86,0,0,0-2.32,6c-.77,7.69-.72,15.79,2.82,22.86,2.59,5,5.69,10.07,10.66,13,.73-2.92,1.39-6.25,4.32-7.77C64.15,430.14,71,426,77.51,421.4c9.68-5,18-12.19,27.83-17,2.36-1.16,5.06-1,7.62-1.1,11.36,0,22.71.08,34.05.58-2.61-4.32-5.6-8.41-7.92-12.9-1.07-1.85-2-3.95-3.83-5.16-6.66-4-15.36-5.85-22.56-2.12-11,5.54-20.19,14.15-31.74,18.65-6,1.72-12.83,1.81-18-2.22-1.24-2.22-2.59-4.38-4-6.49,0-2.71.12-5.42.24-8.12,2.47-.8,5.42-2.36,7.8-.51,1.32,2.18,2,4.7,3.15,6.94,3,2.24,6.92.77,9.91-.73,3.89-1.35,7.11-4,10.53-6.23,4.17-2.8,8.49-5.38,12.52-8.39-4.35-3-9.82-2.42-14.81-3C80,373.27,71.41,372.74,63.37,375.36Zm43.84,39.9c-7.67,4.53-14.93,9.72-22.5,14.42a30,30,0,0,0-5.53,4.46c5.94.64,11.89,0,17.82-.41A616.19,616.19,0,0,1,189.2,438c12.59,1.34,25,4,37.52,5.69,5.82.8,11.5,2.3,17.28,3.3,5.09,2.58,10.9,1.83,16.05-.12s11.1-2.43,16.16-5c-5-1.35-10-2.69-14.22-5.78-3-2.49-6.94-1.12-10.41-1-7.2-2.95-14.87-4.42-22.32-6.58-10.32-2.53-20.56-5.6-31.12-7-26-5.32-52.61-7.47-79.14-7.87C115.05,413.66,110.75,413.1,107.21,415.26Zm240.42,8.35c-3.62,3.93-8.21,6.74-12,10.5,16.1-.84,32.23-.64,48.36-.61,12.23-.1,24.41,1.32,36.63,1.7-3.36-3.8-8.09-5.82-12.21-8.61-4.65-3-9.62-6.33-15.41-6.13-11.66-.06-23.33-.15-35,.06C354.44,420.82,350.15,420.53,347.63,423.61ZM64.06,447a93.15,93.15,0,0,0,.14,17.75c14.49,1.11,29,.37,43.56.73,8.74.27,17.5.08,26.23.63,16.33.8,32.68.25,49,.7,16.68.77,33.38.86,50.07.87,3.44,0,6.43-1.88,9.56-3.05a30.24,30.24,0,0,1,23.92.91c2.7,1.2,5.33,2.93,8.39,2.92,9.7.27,19.37-.63,29.06-.77,9,.21,18-1.4,27-1.09,7.69.26,15.31-1.29,23-1,8.36.34,16.64-1.34,25-1,7.36.21,14.64-1.26,22-1,10,.33,20-1.53,30.05-.93,2.26-.35,5.8.79,7-1.83,1-4.36.2-8.85-.47-13.19-13.84-1.31-27.67-3-41.58-3.12-13.66,0-27.32-.13-41,0-6.32.09-12.66-.23-18.94.48-9,.93-18.14.91-27.1,2.36-13.32,2.59-26.92,3.81-40,7.59-5.29,1.54-10.37,4.16-16,4.39-4.44,0-8.71-1.36-13-2.25-25-5.2-50.39-8.45-75.81-10.83-14.32-1.8-28.77-2-43.19-2.43-9.69-.14-19.35.71-29,.59C82.66,445.37,73.34,446,64.06,447Zm172,31.23c-5.34.39-10.7,0-16.05-.08-19-.84-38-.3-57-.65-20.62-1.87-41.37.09-62-1.62-13.34-.43-26.69-.12-40-.34-2.39.1-5.09-.22-7.09,1.37A69.77,69.77,0,0,0,43.74,486,208.41,208.41,0,0,0,77,485.52c47.67-.36,95.36.31,143-.81,6.32.35,13.4-1.53,19,2.18,5.26,3.23,11.61,5.57,17.83,4.17,5.51-1.22,9-7.24,15.08-6.73,15,0,30,.09,45.07-.07,21.32-.73,42.66-.42,64-.91,26.95.32,53.88-.84,80.82-.76-.09-.48-.28-1.46-.38-1.95-5-2.29-9.26-6.08-14.51-7.77-11.31-1.32-22.61,1.1-33.93.75-5.68-.08-11.29,1-17,1-6.34,0-12.7-.08-19,.45-8.68.71-17.43-.25-26.08.91-6.92.89-13.93.34-20.85,1.17-8,.86-16.07.19-24.09.78-6.32.45-12.65.67-19,.81-5.35.09-10.71.95-16.05.4-4.66-.43-7.51-5.14-12.15-5.64a36.42,36.42,0,0,0-8.73-.08C245.08,474.05,241.12,477.88,236.05,478.24Z" transform="translate(-23.26 -9.36)"/>
  <g>
    <path class="cls-3" d="M178,37.54a299.76,299.76,0,0,1,64-11.89c11.66-.34,23.33-.27,35-.14,17.88.62,35.55,3.76,53,7.49,5.1,1.13,10.27,2.21,15.05,4.38-9.08.86-17.45,4.95-25.28,9.39a80.44,80.44,0,0,0-32.92,36.14c-5.09,10.67-8.12,22.79-6.11,34.61,2.12,9.63,8.25,17.81,14.81,24.93,13.19,12.27,29.09,21.32,45.61,28.32,17.95,6.81,36.91,12.67,51.91,25.15,7.79,6.44,12.51,15.7,15.34,25.25a90.12,90.12,0,0,1-9.67,4.48c-.93-6.37-2.05-13-6.14-18.25-6.25-8.09-16-12.88-25.87-14.9-16.77-3.09-34.06-1.95-50.71,1.29-11.11,2.54-23.42,6.3-29.83,16.52-3.4,4.45-4.15,10.15-3.88,15.6-14.33-6.12-30.9-7.16-45.7-2-.62-4.63-1.14-9.57-4.05-13.43-6.78-9.3-17.93-14.18-28.91-16.42-18.25-3.74-37.33-4.8-55.61-.72-10,2.79-19.91,8.48-24.74,18-2.51,4.3-3,9.33-3.3,14.18a68.55,68.55,0,0,1-8.39-3.41l.2-.87c1.87-7.08,4.84-14.09,9.9-19.5a64.35,64.35,0,0,1,18.55-13.54c13.5-6.89,28.23-10.75,42.71-15a83.21,83.21,0,0,0,44.12-31.1c7.82-11.18,13.7-24.23,14.22-38,.19-7.92-3.62-15.18-7.52-21.82a106.26,106.26,0,0,0-18.92-23C203.73,50.32,192.18,40.78,178,37.54Z" transform="translate(-23.26 -9.36)"/>
    <path class="cls-3" d="M140.15,208.14c6.71-4.52,14.93-5.72,22.81-6.48,17.31-.63,35.4-.49,51.41,7,4.53,2.45,9,5.91,10.87,10.9a19.49,19.49,0,0,1-1.48,13.24,74.06,74.06,0,0,1-12,17.33,26.63,26.63,0,0,0-7.66-19.18c-3.53-3.39-8.33-5.07-13-6-11.34-1.76-23.59-2.23-34.13,3-5.8,2.79-10.12,8.55-10.42,15.08-.79,5,1.62,9.49,3.46,13.91a51.43,51.43,0,0,1-16.54-19.45c-2.62-4.68-2.24-10.25-2.06-15.42C131.5,216.15,135.4,211.17,140.15,208.14Z" transform="translate(-23.26 -9.36)"/>
    <path class="cls-3" d="M304.34,208.41c13.67-6,28.88-7.25,43.65-6.95,11.19-.25,23.17,1.26,32.31,8.24,5,3.77,7.39,10.13,7.22,16.27.28,9.8-5.91,18.12-12,25.2-1.6-3.57-2-7.46-2.5-11.3-2-5.48-7.05-9.29-12.24-11.58-8.15-3.3-17.16-4-25.85-3-9.41.32-18.31,5.25-24.18,12.51-3.12,4-2.2,9.4-2.11,14.11-7-7.4-14.19-15.58-16-25.94C291.3,218.05,297.91,211.66,304.34,208.41Z" transform="translate(-23.26 -9.36)"/>
    <path class="cls-3" d="M234.64,236.65c6.65-4.94,15.35-5.72,23.38-5.44,7.58-.05,15,2,22,4.75,2.45,1,5.12,2.11,6.54,4.51a126.37,126.37,0,0,0,9.52,13.47c10.65,13,27,21.35,43.93,21.45,14.33-.56,29.19-4.5,40-14.36,4.92-3.9,8.26-9.25,12-14.2,7.83-4,16.23-6.71,24.17-10.46A50.47,50.47,0,0,0,427,243.19l1.64.82c.08,4.34.91,8.67.53,13-.81,5.51-5.17,9.45-8.7,13.41-7.93,8.74-18.23,14.72-28.2,20.81-7.11,4.52-14.62,8.57-22.75,10.89-4.74,1.21-9.75,1.63-14.1,4.05,0,1.88-.07,3.76-.1,5.64,1.76,1.09,3.45,2.81,5.7,2.6,9.12-.68,17.42-4.89,26.08-7.45.56,6.54,1.4,13.36-.39,19.78-2.83,5.53-9,8.57-14.95,9.61-2.9.68-6.76,1-8,4.27-1.44,4.83-.9,9.95-1.36,14.92-1.21,14.84-4.16,29.77-10.49,43.32-7.53,17.72-24.67,31.43-44.15,32.74-2.27-5.45.26-11.05.58-16.58a7.23,7.23,0,0,0-4.4-4.41c-3.71-.56-6.07,3.17-6.88,6.27-1.09,5.07-.51,10.31-.71,15.46a91,91,0,0,1-12.36-.13c-2.45-.33-5.24-1.3-6.38-3.68-1.19-5.82.39-11.7.66-17.52-.74-4.46-7.54-5.11-9.4-1.17-2.45,4.73-2.08,10.25-2.6,15.41-4-4.86-2.88-11.51-2.66-17.31.37-6.95,6.88-11.39,12.77-13.71,3.69-1.68,8.8-1.85,10.73-6s4.11-8.57,4.41-13.27c.21-4.37-6-6.1-8.67-3.11-1.93,2.09-2.6,5-3.41,7.61-7.81.52-16,1.07-22.92,5-6.22,3.25-11.12,8.41-15.35,13.91-4.28-6-8.27-12.15-12.38-18.24-1.31-1.77-2.64-3.81-4.82-4.54-2.64-.76-4.73,1.36-6.78,2.63.24,2.33.16,4.89,1.73,6.8,8.56,11.56,16.37,23.64,24.05,35.79-5.76-.8-11.26-2.77-16.89-4.12A370,370,0,0,0,184,408.29c-1.26-.34-2.76-.28-3.76-1.2-7.84-8.78-15.67-17.8-20.91-28.43-4.8-9.26-8.34-19.26-9.39-29.68-.85-6.5-.37-13.42-3.4-19.43-2-4.15-6.17-6.57-9.14-9.95-2.07-2.37-2-5.74-2.52-8.65,1.44-.08,2.88-.14,4.33-.16,5.59,1,10.64,4.45,16.53,4,.86-2,3.3-4.09,2-6.39-1.94-4-5.93-6.32-9.57-8.57-7.19-5.35-14.5-10.79-20-17.95-10.26-12.57-23-24.3-27.44-40.41l1.84-1.58a56.91,56.91,0,0,0,10,3.51c4.87,1.16,10.12,1.55,14.4,4.41,4.86,6.45,9.72,13.22,16.74,17.51,8,4.8,16.8,8.76,26.21,9.43,11.09,1.64,22.76.2,32.69-5.15,8.29-3.86,14.71-10.51,20.91-17C228,247.75,230.26,241.43,234.64,236.65Zm9.56,36.64c.23,2.39-.26,5.19,1.44,7.16a33.93,33.93,0,0,0,8.94,7c2.48,1.29,5.42,2.75,8.21,1.49,6.47-2.45,12.93-8.06,13.08-15.46-3.19-1.34-6.46-2.73-10-3C258.59,270,251,270.16,244.2,273.29Zm-15.74,21.18a5.56,5.56,0,0,0-.76,8.82,29.43,29.43,0,0,0,21.37,7.83c4.11-.22,7.77-2.42,11.81-2.91,4.76.5,9.22,2.79,14.1,2.56,6.76.44,14.3-1.69,18.4-7.41,2.3-3.19-.85-7.49-4.39-7.64-4.17,1.08-7.51,4.54-12,4.64-5.94.32-11.25-2.93-17-3.69-5.05,1-9.55,5-15,3.74C238.84,300.09,234.86,293,228.46,294.47Z" transform="translate(-23.26 -9.36)"/>
    <path class="cls-3" d="M373.46,347.12c6.79-2.15,13.5-4.89,18.89-9.7,8.82,11.5,11.58,26.4,12.62,40.54,1.07,10.55-.19,21.14-1.65,31.59-14.85.14-29.71-.14-44.56.05,2.09-6.2,5.66-11.77,7.57-18A181.33,181.33,0,0,0,373.46,347.12Z" transform="translate(-23.26 -9.36)"/>
    <path class="cls-3" d="M112.7,383.68c7.2-3.73,15.9-1.9,22.56,2.12,1.84,1.21,2.76,3.31,3.83,5.16,2.32,4.49,5.31,8.58,7.92,12.9-11.34-.5-22.69-.57-34-.58-2.56.06-5.26-.06-7.62,1.1-9.78,4.83-18.15,12-27.83,17a77.79,77.79,0,0,1-.79-9.27c.92-3.44,2-7,4.24-9.8C92.51,397.83,101.72,389.22,112.7,383.68Z" transform="translate(-23.26 -9.36)"/>
  </g>
  <g>
    <path class="cls-4" d="M99.84,33.32c2-.9,4-2,6.18-2,8.82-.34,16.88,3.73,25,6.56,10.56,3.77,21.95,4.05,33,3.44,4.85-.4,9.19-2.89,13.93-3.8,14.2,3.24,25.75,12.78,36.89,21.66a106.26,106.26,0,0,1,18.92,23c3.9,6.64,7.71,13.9,7.52,21.82-.52,13.81-6.4,26.86-14.22,38A83.21,83.21,0,0,1,183,173.17c-14.48,4.26-29.21,8.12-42.71,15a64.35,64.35,0,0,0-18.55,13.54c-5.06,5.41-8,12.42-9.9,19.5-3.32-1.68-7-2.74-10-5-1.52-.91-1.08-2.83-1-4.28,3.69-25.33,7.27-50.68,11.25-76,1.15-8.62,1-17.43,3-25.93,1-4.15,2.13-8.27,3-12.45,5.48-9.5,14.25-16.7,24-21.51,6.2-3.19,12.56-6.71,19.76-6.68H161c1.48-2,4.14-4.25,2.55-7-2.09-3.52-6.83-3.13-10.32-3.94-6.76-.58-12.41-4.59-18.25-7.64-6.45-3.63-11.62-9-17.72-13.15C112.15,34.28,105.82,33.91,99.84,33.32Zm57.52,114.81c-4.55.89-9.27,1.06-13.67,2.58-2,2.55-1.55,6.88,1.42,8.5,5.48.64,11-.09,16.47-.93,3.82-.34,6-5.34,3.44-8.27C163.33,147.4,160,147.56,157.36,148.13Z" transform="translate(-23.26 -9.36)"/>
    <path class="cls-4" d="M367.56,43.35a61.08,61.08,0,0,1,33.76-6.3c-3.45,2.13-7.41,3.25-10.84,5.41C383.55,46.8,377.14,52,370,56a25.91,25.91,0,0,1-17.72,2.85c-2.8-.19-6.29-1.44-8.54.88-1.95,1.64-1.94,4.52-1.32,6.78,2.52,4.19,8.17,2.39,12.07,4,9.15,3.32,17,9.35,24,16,6.44,6.27,10.91,14.19,14.91,22.15,5.27,14.94,11.62,29.49,16.21,44.67a234.19,234.19,0,0,1,9.08,30.35c1.4,4.71,2.95,9.4,3.32,14.34.4,5.32,2.91,10.46,2.14,15.85-4.78,3.34-10.5,4.94-15.78,7.31-2.83-9.55-7.55-18.81-15.34-25.25-15-12.48-34-18.34-51.91-25.15-16.52-7-32.42-16.05-45.61-28.32-6.56-7.12-12.69-15.3-14.81-24.93-2-11.82,1-23.94,6.11-34.61a80.44,80.44,0,0,1,32.92-36.14c7.83-4.44,16.2-8.53,25.28-9.39a66.77,66.77,0,0,1,15.63,4.95C362.8,43.29,365.26,44.47,367.56,43.35ZM350.28,147.13c-3.43,1.16-4.27,6.74-.91,8.46,2.7,1.4,5.82,1.6,8.77,2.18,3.56.51,7.09,1.55,10.72,1.47,2.83-1,4.76-5.08,2.46-7.52-2.43-2.6-6-3.61-9.42-4.32C358.1,146.79,354,145.89,350.28,147.13Z" transform="translate(-23.26 -9.36)"/>
  </g>
  <path class="cls-5" d="M96.9,49.88c-.88-3,2.06-6,5.1-5.61,6.21-.86,11.32,3.36,16,6.84,12,10.09,26.81,19,43.09,18.33h.79c-7.2,0-13.56,3.49-19.76,6.68-9.75,4.81-18.52,12-24,21.51l-.46-.76c-6.83-9.46-11.87-20-16.48-30.72A89.38,89.38,0,0,1,96.9,49.88Z" transform="translate(-23.26 -9.36)"/>
  <path class="cls-6" d="M398.94,49.88c4.5-2.34,11.2-3,14.43,1.7,1.37,10.35-3.18,20.27-6.93,29.65a199.77,199.77,0,0,1-13,27.42c-4-8-8.47-15.88-14.91-22.15-7-6.62-14.85-12.65-24-16,5.43-.63,11.17-.41,16.2-2.87C380.78,62.8,389.16,55.2,398.94,49.88Z" transform="translate(-23.26 -9.36)"/>
  <path class="cls-7" d="M117.61,96.86l.46.76c-.84,4.18-2,8.3-3,12.45-2,8.5-1.84,17.31-3,25.93-4,25.29-7.56,50.64-11.25,76-.12,1.45-.56,3.37,1,4.28,3,2.23,6.67,3.29,10,5l-.2.87a126.64,126.64,0,0,1-12.9-5.7c-3.1-1.54-6.6-2.48-9.24-4.8a34.5,34.5,0,0,1,.1-8.31,364.19,364.19,0,0,1,13.51-63.15C106.53,125.25,113.29,111.46,117.61,96.86Z" transform="translate(-23.26 -9.36)"/>
  <path class="cls-8" d="M350.28,147.13c3.75-1.24,7.82-.34,11.62.27,3.38.71,7,1.72,9.42,4.32,2.3,2.44.37,6.48-2.46,7.52-3.63.08-7.16-1-10.72-1.47-2.95-.58-6.07-.78-8.77-2.18C346,153.87,346.85,148.29,350.28,147.13Z" transform="translate(-23.26 -9.36)"/>
  <path class="cls-9" d="M157.36,148.13c2.67-.57,6-.73,7.66,1.88,2.57,2.93.38,7.93-3.44,8.27-5.42.84-11,1.57-16.47.93-3-1.62-3.39-6-1.42-8.5C148.09,149.19,152.81,149,157.36,148.13Z" transform="translate(-23.26 -9.36)"/>
  <path class="cls-10" d="M88.24,223.77c7,1.66,13.25,5.39,19.8,8.26a79.56,79.56,0,0,1-5.47,7.83l-1.84,1.58a53.76,53.76,0,0,1-12.17,6.95C87.33,240.24,87.7,232,88.24,223.77Z" transform="translate(-23.26 -9.36)"/>
  <path class="cls-11" d="M412.63,231.1A83.34,83.34,0,0,1,426.57,225a159.24,159.24,0,0,1,2,19l-1.64-.82c.08-3.47.05-6.93-.07-10.4a34,34,0,0,0-10,3.26C415.44,234.4,414,232.76,412.63,231.1Z" transform="translate(-23.26 -9.36)"/>
  <path class="cls-12" d="M398.32,237.34c4.66-2.3,9.46-4.35,14.31-6.24,1.4,1.66,2.81,3.3,4.23,5l-.68.32c-7.94,3.75-16.34,6.48-24.17,10.46C393.62,243.43,394.48,239,398.32,237.34Z" transform="translate(-23.26 -9.36)"/>
  <path class="cls-13" d="M108,232c3.94,1.64,7.9,3.24,11.69,5.21,4.21,1.9,5.22,6.85,7.28,10.54-4.28-2.86-9.53-3.25-14.4-4.41a56.91,56.91,0,0,1-10-3.51A79.56,79.56,0,0,0,108,232Z" transform="translate(-23.26 -9.36)"/>
  <path class="cls-14" d="M416.86,236.05a34,34,0,0,1,10-3.26c.12,3.47.15,6.93.07,10.4a50.47,50.47,0,0,1-10.78-6.82Z" transform="translate(-23.26 -9.36)"/>
  <path class="cls-15" d="M191.49,236.39c5.5-3,12.51,2.68,12.09,8.6.3,2.88-1.21,6.87-4.65,6.69C191.76,252,186.41,241.58,191.49,236.39Z" transform="translate(-23.26 -9.36)"/>
  <path class="cls-16" d="M354.26,236c8.2-3.17,15.14,9.31,8.82,15.05-4.23,2.28-8.95-1.48-10.7-5.32C351.09,242.58,350.67,237.79,354.26,236Z" transform="translate(-23.26 -9.36)"/>
  <path class="cls-17" d="M373,239.87c.47,3.84.9,7.73,2.5,11.3q-1.64,1.54-3.29,3.06C372.57,249.45,373.34,244.68,373,239.87Z" transform="translate(-23.26 -9.36)"/>
  <path class="cls-18" d="M88.56,248.39a53.76,53.76,0,0,0,12.17-6.95c4.47,16.11,17.18,27.84,27.44,40.41,5.52,7.16,12.83,12.6,20,17.95a39,39,0,0,1-11.07-2.92,117.36,117.36,0,0,1-37.78-21.21c-3.43-3.2-7.13-6.42-9.19-10.72C88.69,259.58,88.82,253.92,88.56,248.39Z" transform="translate(-23.26 -9.36)"/>
  <path class="cls-19" d="M156.23,241.31h4.52a6.42,6.42,0,0,1,0,7.63c-2-.55-5.11.35-5.8-2.18C153.9,244.88,155.64,243.05,156.23,241.31Z" transform="translate(-23.26 -9.36)"/>
  <path class="cls-20" d="M315.85,243.88c1.46-2.23,4.41-1.24,6.62-1.37.07,2.53,1.43,7.33-2.57,7.28C316.55,250.67,314,246.62,315.85,243.88Z" transform="translate(-23.26 -9.36)"/>
  <g>
    <path class="cls-21" d="M244.2,273.29c6.78-3.13,14.39-3.32,21.71-2.79,3.5.23,6.77,1.62,10,3-.15,7.4-6.61,13-13.08,15.46-2.79,1.26-5.73-.2-8.21-1.49a33.93,33.93,0,0,1-8.94-7C243.94,278.48,244.43,275.68,244.2,273.29Z" transform="translate(-23.26 -9.36)"/>
    <path class="cls-21" d="M228.46,294.47c6.4-1.47,10.38,5.62,16.53,5.94,5.46,1.28,10-2.72,15-3.74,5.76.76,11.07,4,17,3.69,4.47-.1,7.81-3.56,12-4.64,3.54.15,6.69,4.45,4.39,7.64-4.1,5.72-11.64,7.85-18.4,7.41-4.88.23-9.34-2.06-14.1-2.56-4,.49-7.7,2.69-11.81,2.91a29.43,29.43,0,0,1-21.37-7.83A5.56,5.56,0,0,1,228.46,294.47Z" transform="translate(-23.26 -9.36)"/>
  </g>
  <path class="cls-22" d="M128,307a65.71,65.71,0,0,1,11.19,3.76c-1.45,0-2.89.08-4.33.16.56,2.91.45,6.28,2.52,8.65,3,3.38,7.1,5.8,9.14,9.95,3,6,2.55,12.93,3.4,19.43,1,10.42,4.59,20.42,9.39,29.68,5.24,10.63,13.07,19.65,20.91,28.43-4.78-.08-9.55-.5-14.3-1-1.54-.3-3.39-.22-4.44-1.59-9.2-10.39-17.07-22.67-19.29-36.6-1.11-8.24-1.13-16.86,1.71-24.78.65-2.71,2.32-5.89.49-8.47-3.78-5.72-10.9-7.66-15.46-12.53C125.89,317.67,126.43,311.91,128,307Z" transform="translate(-23.26 -9.36)"/>
  <path class="cls-23" d="M127.1,334.78c2.26,1,4.72,1.87,6.43,3.76,0,3.89-1.57,7.58-1.89,11.45-.73,7.5-.17,15.05.24,22.56-2-.46-3.93-.91-5.9-1.33-1.5-5.91-3.5-12.05-2-18.17a110,110,0,0,0,2.39-15.93C126.54,336.53,126.92,335.37,127.1,334.78Z" transform="translate(-23.26 -9.36)"/>
  <path class="cls-24" d="M114.6,371.34a50,50,0,0,1,11.76-34.22A110,110,0,0,1,124,353.05c-1.49,6.12.51,12.26,2,18.17C122.18,371.24,118.39,371.29,114.6,371.34Z" transform="translate(-23.26 -9.36)"/>
  <path class="cls-25" d="M63.37,375.36c8-2.62,16.59-2.09,24.91-1.79A33.7,33.7,0,0,1,90.57,385c-3.42,2.21-6.64,4.88-10.53,6.23l-2.9.3c-1.55-3.18-3-6.51-5.57-9S66.07,377.76,63.37,375.36Z" transform="translate(-23.26 -9.36)"/>
  <path class="cls-26" d="M88.28,373.57c5,.59,10.46,0,14.81,3-4,3-8.35,5.59-12.52,8.39A33.7,33.7,0,0,0,88.28,373.57Z" transform="translate(-23.26 -9.36)"/>
  <path class="cls-27" d="M54.56,379.63c2.55-2.12,5.74-3.18,8.81-4.27,2.7,2.4,5.65,4.52,8.2,7.1s4,5.86,5.57,9l2.9-.3c-3,1.5-6.9,3-9.91.73-1.2-2.24-1.83-4.76-3.15-6.94-2.38-1.85-5.33-.29-7.8.51-.12,2.7-.25,5.41-.24,8.12-2.44.06-4.88.11-7.31.29l-.83.15C51.06,389.06,51.72,383.89,54.56,379.63Z" transform="translate(-23.26 -9.36)"/>
  <path class="cls-28" d="M256.51,384.53c6.94-4,15.11-4.53,22.92-5-1.91,3.78-6.31,4.5-9.76,6.23-6.3,2.88-12.13,7.49-14.93,14-2.3,5.16-1.92,11-2.26,16.48-4-5.77-7.65-11.77-11.32-17.74C245.39,392.94,250.29,387.78,256.51,384.53Z" transform="translate(-23.26 -9.36)"/>
  <path class="cls-29" d="M41.88,400.19c.75-8.29,6.12-15.72,12.68-20.56-2.84,4.26-3.5,9.43-3.76,14.43A77.46,77.46,0,0,0,41.88,400.19Z" transform="translate(-23.26 -9.36)"/>
  <path class="cls-30" d="M41.88,400.19a77.46,77.46,0,0,1,8.92-6.13l.83-.15c-.91,5.08.73,10,3.23,14.4-5.76,5.92-8.27,13.86-12.48,20.76-3.54-7.07-3.59-15.17-2.82-22.86A11.86,11.86,0,0,1,41.88,400.19Z" transform="translate(-23.26 -9.36)"/>
  <path class="cls-31" d="M51.63,393.91c2.43-.18,4.87-.23,7.31-.29,1.42,2.11,2.77,4.27,4,6.49-2.6,2.5-5.19,5-7.62,7.68l-.47.52C52.36,403.94,50.72,399,51.63,393.91Z" transform="translate(-23.26 -9.36)"/>
  <path class="cls-32" d="M63,400.11c5.18,4,12,3.94,18,2.22-2.24,2.84-3.32,6.36-4.24,9.8-.34,1.27-.69,2.53-1,3.81-4.44-.4-9-.69-13.15-2.6-2.79-1.28-5-3.48-7.2-5.55C57.76,405.13,60.35,402.61,63,400.11Z" transform="translate(-23.26 -9.36)"/>
  <path class="cls-33" d="M54.86,408.31l.47-.52c2.21,2.07,4.41,4.27,7.2,5.55,4.11,1.91,8.71,2.2,13.15,2.6.35-1.28.7-2.54,1-3.81a77.79,77.79,0,0,0,.79,9.27C71,426,64.15,430.14,57.36,434.33c-2.93,1.52-3.59,4.85-4.32,7.77-5-3-8.07-8-10.66-13C46.59,422.17,49.1,414.23,54.86,408.31Z" transform="translate(-23.26 -9.36)"/>
  <path class="cls-34" d="M107.21,415.26c3.54-2.16,7.84-1.6,11.79-1.66,26.53.4,53.12,2.55,79.14,7.87,10.56,1.41,20.8,4.48,31.12,7,7.45,2.16,15.12,3.63,22.32,6.58A41.93,41.93,0,0,1,253,448c-3-.34-6-.66-9-1.07-5.78-1-11.46-2.5-17.28-3.3C214.18,442,201.79,439.3,189.2,438A616.19,616.19,0,0,0,97,433.73c-5.93.43-11.88,1-17.82.41a30,30,0,0,1,5.53-4.46C92.28,425,99.54,419.79,107.21,415.26Z" transform="translate(-23.26 -9.36)"/>
  <path class="cls-35" d="M347.63,423.61c2.52-3.08,6.81-2.79,10.39-3.09,11.66-.21,23.33-.12,35-.06,5.79-.2,10.76,3.1,15.41,6.13,4.12,2.79,8.85,4.81,12.21,8.61-12.22-.38-24.4-1.8-36.63-1.7-16.13,0-32.26-.23-48.36.61C339.42,430.35,344,427.54,347.63,423.61Z" transform="translate(-23.26 -9.36)"/>
  <path class="cls-36" d="M251.58,435.06c3.47-.16,7.43-1.53,10.41,1,4.2,3.09,9.26,4.43,14.22,5.78-5.06,2.6-10.89,3-16.16,5s-11,2.7-16.05.12c3,.41,6,.73,9,1.07A41.93,41.93,0,0,0,251.58,435.06Z" transform="translate(-23.26 -9.36)"/>
  <path class="cls-37" d="M64.06,447c9.28-1,18.6-1.64,27.89-2.63,9.69.12,19.35-.73,29-.59,14.42.44,28.87.63,43.19,2.43,25.42,2.38,50.8,5.63,75.81,10.83,4.3.89,8.57,2.26,13,2.25,5.6-.23,10.68-2.85,16-4.39,13.08-3.78,26.68-5,40-7.59,9-1.45,18.08-1.43,27.1-2.36,6.28-.71,12.62-.39,18.94-.48,13.66-.1,27.32,0,41,0,13.91.15,27.74,1.81,41.58,3.12.67,4.34,1.44,8.83.47,13.19-1.18,2.62-4.72,1.48-7,1.83-10.05-.6-20,1.26-30.05.93-7.37-.24-14.65,1.23-22,1-8.36-.34-16.64,1.34-25,1-7.69-.28-15.31,1.27-23,1-9-.31-18,1.3-27,1.09-9.69.14-19.36,1-29.06.77-3.06,0-5.69-1.72-8.39-2.92a30.24,30.24,0,0,0-23.92-.91c-3.13,1.17-6.12,3.05-9.56,3.05-16.69,0-33.39-.1-50.07-.87-16.33-.45-32.68.1-49-.7-8.73-.55-17.49-.36-26.23-.63-14.52-.36-29.07.38-43.56-.73A93.15,93.15,0,0,1,64.06,447Z" transform="translate(-23.26 -9.36)"/>
  <path class="cls-38" d="M236.05,478.24c5.07-.36,9-4.19,14-4.81a36.42,36.42,0,0,1,8.73.08c4.64.5,7.49,5.21,12.15,5.64,5.34.55,10.7-.31,16.05-.4,6.34-.14,12.67-.36,19-.81,8-.59,16.08.08,24.09-.78,6.92-.83,13.93-.28,20.85-1.17,8.65-1.16,17.4-.2,26.08-.91,6.32-.53,12.68-.46,19-.45,5.68,0,11.29-1.09,17-1,11.32.35,22.62-2.07,33.93-.75,5.25,1.69,9.51,5.48,14.51,7.77.1.49.29,1.47.38,1.95-26.94-.08-53.87,1.08-80.82.76-21.33.49-42.67.18-64,.91-15,.16-30.05.09-45.07.07-6-.51-9.57,5.51-15.08,6.73-6.22,1.4-12.57-.94-17.83-4.17-5.63-3.71-12.71-1.83-19-2.18-47.66,1.12-95.35.45-143,.81a208.41,208.41,0,0,1-33.24.52,69.77,69.77,0,0,1,10.16-9.12c2-1.59,4.7-1.27,7.09-1.37,13.34.22,26.69-.09,40,.34,20.63,1.71,41.38-.25,62,1.62,19,.35,38-.19,57,.65C225.35,478.22,230.71,478.63,236.05,478.24Z" transform="translate(-23.26 -9.36)"/>
</svg>
