<svg id="Layer_1" data-name="Layer 1" xmlns="http://www.w3.org/2000/svg" viewBox="0 0 506.59 501.9">
  <defs>
    <style>
      .cls-1 {
        fill: #fbc2bd;
      }

      .cls-2 {
        fill: #fafcfd;
      }

      .cls-3 {
        fill: #0a1f2d;
      }

      .cls-4 {
        fill: #fbc1bd;
      }

      .cls-5 {
        fill: #ee4a22;
      }

      .cls-6 {
        fill: #f7efed;
      }

      .cls-7 {
        fill: #b84026;
      }

      .cls-8 {
        fill: #0b1e2d;
      }

      .cls-9 {
        fill: #de2831;
      }

      .cls-10 {
        fill: #fdc0bf;
      }

      .cls-11 {
        fill: #fcc1be;
      }

      .cls-12 {
        fill: #c0bdbe;
      }

      .cls-13 {
        fill: #fbc2bb;
      }

      .cls-14 {
        fill: #0b1f2d;
      }

      .cls-15 {
        fill: #de2730;
      }

      .cls-16 {
        fill: #fac3bd;
      }

      .cls-17 {
        fill: #08202e;
      }

      .cls-18 {
        fill: #fdbfba;
      }

      .cls-19 {
        fill: #c1bdbe;
      }

      .cls-20 {
        fill: #fbc1bc;
      }

      .cls-21 {
        fill: #c0bdbf;
      }

      .cls-22 {
        fill: #bb3f25;
      }

      .cls-23 {
        fill: #ed4b22;
      }

      .cls-24 {
        fill: #de272e;
      }

      .cls-25 {
        fill: #af2530;
      }

      .cls-26 {
        fill: #ec4923;
      }

      .cls-27 {
        fill: #fdc0bc;
      }

      .cls-28 {
        fill: #b74128;
      }

      .cls-29 {
        fill: #f7eeec;
      }

      .cls-30 {
        fill: #ac252f;
      }

      .cls-31 {
        fill: #fdc1bb;
      }

      .cls-32 {
        fill: #c0bcbd;
      }

      .cls-33 {
        fill: #b94025;
      }

      .cls-34 {
        fill: #bfbdbe;
      }

      .cls-35 {
        fill: #f9eded;
      }

      .cls-36 {
        fill: #f7eeee;
      }

      .cls-37 {
        fill: #bfbdbf;
      }

      .cls-38 {
        fill: #c0bdbd;
      }

      .cls-39 {
        fill: #b6412a;
      }

      .cls-40 {
        fill: #bfbcbf;
      }

      .cls-41 {
        fill: #ab2530;
      }

      .cls-42 {
        fill: #c2bdc4;
      }

      .cls-43 {
        fill: #bdbbbe;
      }
    </style>
  </defs>
  <g>
    <path class="cls-1" d="M0,0H.26A3.19,3.19,0,0,0,0,.26Z"/>
    <path class="cls-1" d="M238.33,75c.7-1.54,3.3-1.67,4.33-.42a13.79,13.79,0,0,1-3.24,1Z"/>
    <path class="cls-1" d="M453.23,130.32c7.66-1.74,15-5.13,22.78-6,5.92-.94,10.3,4.15,12.78,8.85,1.42,2.5.89,5.49.29,8.15-1.75,7-5.1,13.36-7.85,20-3.93,9.27-9.74,17.56-14.74,26.26a27.85,27.85,0,0,1-4.6,5.88c-3.73-19.06-9.36-38.4-21.13-54.17a96.35,96.35,0,0,0-7.27-9.51C440,131.13,446.77,132.58,453.23,130.32Z"/>
  </g>
  <path class="cls-2" d="M182.78,13.79c6.95-4.69,15.74-8,24.14-5.54,7.73,1.67,14,6.89,19.31,12.54C233,27.6,242,31.42,250.38,35.63c3,1.29,5.92,3.44,9.31,2.85,8.39-1.52,16.69-4,25.28-4.1,17.7-2,35.7-.44,53,3.46,18,3.82,35.66,9.58,51.88,18.34,7.86,4.32,16,8.28,23.13,13.78a180.58,180.58,0,0,1,29.67,24.35c2.35,2.2,4.68,5.24,8.24,5.13,9.26.46,18.55-2.38,27.75-.31,9.26,1.7,17.95,7,23,15a35.86,35.86,0,0,1,4.35,23.89,130.17,130.17,0,0,1-10.82,32.21c-4.89,8.44-9.35,17.13-14.69,25.3-1.34,2.33-3.55,4.54-3.15,7.45,1.42,20.47-1,41-5.51,61-1.54,6,.35,12,.72,18a98.85,98.85,0,0,1,.29,18c-.58,8.56-.79,17.44-4.5,25.35-2.71,6.75-8.22,11.72-13.36,16.62-13.08,12.07-29.48,19.54-45.55,26.7a60.91,60.91,0,0,1,1.95,16.13c6.1.59,12.34,2.49,16.64,7.08,7.4,6.35,10.86,15.92,12.85,25.2,2.52,12.37-1.59,25.15-8.23,35.56-5.33,8.09-12.2,15.62-21.16,19.69-2.75,1.35-5.73,2.16-8.48,3.53-2.54,2.19-3.85,5.52-6.52,7.62-3.52,3.24-8.39,4.15-13,4.85-15.86,2.17-31.86,0-47.64-1.75a12.36,12.36,0,0,0-5.31,1.12c-9.23,3.69-18.73,6.64-28.24,9.49-8.9,2.69-18.08,5.13-27.46,4.6-7.38.06-13-5.31-19-8.8-6.66,3.21-13.21,7.08-20.66,8.06-13.29,2.37-26.51-2.78-37.61-9.73-2.29-1.39-4.35-3.24-6.87-4.2a40.1,40.1,0,0,0-7.73.6c-17.9,2.54-36,2.1-54,1.87-10.34-.18-21.36-3.22-28.29-11.37-5.36-5.44-6.42-13.29-7.27-20.51-8.91-2-17.72-4.76-25.55-9.54-11.84-5.86-21.7-14.91-30.51-24.61-4.65-6.08-9.35-12.21-13.06-18.93C13.64,384,5.92,361.44,4.26,338.06c-1.49-10,.15-20,1.55-29.94C7.68,299,10,289.79,14.5,281.58a130.17,130.17,0,0,1,9.82-16.25,118.68,118.68,0,0,1,18.47-18.55C57,236.62,74.23,229.05,92.05,230.46c4.91,0,9.57,1.71,14.12,3.38-1.49-4.19-4-8.24-3.7-12.85.34-4,1.68-7.84,2.84-11.65,4.33-14.16,9.69-28.08,17-41,3.59-6.36,6.88-12.9,11-18.95,6.73-9.9,13.1-20.09,20.85-29.24,3.84-5.23,8.51-9.85,12.16-15.2-1.32-15-3.79-30.08-2-45.13a88.86,88.86,0,0,1,4.5-24.81C171.74,27.08,175.48,18.69,182.78,13.79Zm5.83,1.82c-8.19,4.34-12.8,13-15.61,21.45-5.85,18.72-5,38.7-3.05,58,.3,3.9,1.43,7.81,1,11.73-2.07,3.54-5.2,6.28-7.68,9.52-21.28,26.08-40,54.84-51.19,86.75-1.76,5.64-3.86,11.24-4.72,17.11-.68,4.59,2,8.65,3.89,12.58a324.56,324.56,0,0,0,17.27,29.72c6,9.47,13.21,18.08,20.25,26.79-3.7,6.08-7.63,12.12-9.85,18.94-1.77,4.94-1.92,10.24-2.33,15.42a118.26,118.26,0,0,0-18.27,15.75c-3.47,3.76-6.15,8.14-9.46,12-4.84-8.57-4.68-19-2.88-28.39,3.31-15.05,13.19-27.48,18-42a38.39,38.39,0,0,0,1.19-19.29,39.39,39.39,0,0,0-19.85-23c-8.19-4.29-17.77-4-26.69-3a79.92,79.92,0,0,0-41,21.86C20.42,273.7,10.64,296.75,9,320.06,7.17,343.67,12.72,367.38,22,389c8,19.59,21.23,37.2,38.55,49.46a100.31,100.31,0,0,0,38,15.74c-.21,6.55-.1,13.68,4.08,19.13,5.89,8.38,16.52,11.45,26.31,11.71a306.6,306.6,0,0,0,53-1.87c3.27-.33,6.51-1.44,9.81-1.21,3.87,2.09,7.17,5.09,11.05,7.19,7.7,4.26,16.21,7.72,25.15,7.63,10.22.43,20-4.1,28-10,5.52,4.15,10.94,9.21,18,10.46,6.42.66,12.8-.93,19-2.29a297.77,297.77,0,0,0,37.69-12.18c3.79-1.77,8-.54,11.89-.1A194.18,194.18,0,0,0,378,484.28c5.2-.44,10.82-.9,15.18-4.1,2.83-2,3.79-5.5,5.88-8.1,2.14-1,4.48-1.57,6.7-2.42a43,43,0,0,0,21.08-16.83c5.29-8,10.1-17,10-26.8a41.59,41.59,0,0,0-5.2-21.68c-3.17-6.11-8.06-11.93-14.88-14-3.81-1.38-7.68.36-11.32,1.46,2.11-8.63,1.12-17.63-1.73-26,12.33-5.4,24.82-10.67,36.12-18.07,8-5.41,15.88-11.5,21.51-19.49a32.91,32.91,0,0,0,5.9-16.34c1.53-12.95,1.77-26.12-.41-39-1.09-5.74,1.17-11.3,2.14-16.87A237.61,237.61,0,0,0,473.32,212c.12-4.53-1.56-9.26-.07-13.65,8.76-14,17.67-28.11,23.5-43.64,3.42-9.48,6.32-19.74,4.35-29.86-2.52-11.7-13.52-20.25-25.17-21.45-8.34-.79-16.65.59-25,.82-6.45,0-10.16-5.87-14.51-9.67a214.33,214.33,0,0,0-78.31-46.71c-29.66-9.71-61.82-12.25-92.47-5.94-3.64.66-7.51,2.24-11.12.58a143.3,143.3,0,0,1-26.28-13.77c-5.85-4.08-9.9-10.36-16.3-13.7C204.79,11,195.63,11.47,188.61,15.61ZM125.88,289.13c-4.56,10.63-11.13,20.38-14.5,31.52a49.59,49.59,0,0,0-1.29,20.64c5-5.09,9.52-10.65,15.32-14.88,2.28-2.3,6.38-3.68,6.4-7.42a54.18,54.18,0,0,1,7.46-22.87c1.14-2.24,2.77-4.32,3.31-6.82-3.61-5.22-7.78-10.05-11.88-14.9C129,279.29,128,284.4,125.88,289.13Z"/>
  <path class="cls-3" d="M188.61,15.61c7-4.14,16.18-4.61,23.36-.59,6.4,3.34,10.45,9.62,16.3,13.7a143.3,143.3,0,0,0,26.28,13.77c3.61,1.66,7.48.08,11.12-.58,30.65-6.31,62.81-3.77,92.47,5.94a214.33,214.33,0,0,1,78.31,46.71c4.35,3.8,8.06,9.7,14.51,9.67,8.32-.23,16.63-1.61,25-.82,11.65,1.2,22.65,9.75,25.17,21.45,2,10.12-.93,20.38-4.35,29.86-5.83,15.53-14.74,29.65-23.5,43.64-1.49,4.39.19,9.12.07,13.65A237.61,237.61,0,0,1,469,256.12c-1,5.57-3.23,11.13-2.14,16.87,2.18,12.89,1.94,26.06.41,39a32.91,32.91,0,0,1-5.9,16.34c-5.63,8-13.47,14.08-21.51,19.49-11.3,7.4-23.79,12.67-36.12,18.07,2.85,8.33,3.84,17.33,1.73,26,3.64-1.1,7.51-2.84,11.32-1.46,6.82,2,11.71,7.84,14.88,14a41.59,41.59,0,0,1,5.2,21.68c.11,9.84-4.7,18.82-10,26.8a43,43,0,0,1-21.08,16.83c-2.22.85-4.56,1.38-6.7,2.42-2.09,2.6-3.05,6.11-5.88,8.1-4.36,3.2-10,3.66-15.18,4.1a194.18,194.18,0,0,1-35.42-1.65c-3.93-.44-8.1-1.67-11.89.1A297.77,297.77,0,0,1,293,494.91c-6.23,1.36-12.61,2.95-19,2.29-7-1.25-12.45-6.31-18-10.46-8.07,5.92-17.8,10.45-28,10-8.94.09-17.45-3.37-25.15-7.63-3.88-2.1-7.18-5.1-11.05-7.19-3.3-.23-6.54.88-9.81,1.21A306.6,306.6,0,0,1,129,485c-9.79-.26-20.42-3.33-26.31-11.71-4.18-5.45-4.29-12.58-4.08-19.13a100.31,100.31,0,0,1-38-15.74C43.26,426.18,30,408.57,22,389,12.72,367.38,7.17,343.67,9,320.06c1.67-23.31,11.45-46.36,28.6-62.48a79.92,79.92,0,0,1,41-21.86c8.92-1,18.5-1.28,26.69,3a39.39,39.39,0,0,1,19.85,23A38.39,38.39,0,0,1,123.94,281c-4.76,14.52-14.64,26.95-18,42-1.8,9.41-2,19.82,2.88,28.39,3.31-3.9,6-8.28,9.46-12a118.26,118.26,0,0,1,18.27-15.75c.41-5.18.56-10.48,2.33-15.42,2.22-6.82,6.15-12.86,9.85-18.94-7-8.71-14.26-17.32-20.25-26.79a324.56,324.56,0,0,1-17.27-29.72c-1.91-3.93-4.57-8-3.89-12.58.86-5.87,3-11.47,4.72-17.11,11.23-31.91,29.91-60.67,51.19-86.75,2.48-3.24,5.61-6,7.68-9.52.42-3.92-.71-7.83-1-11.73-1.95-19.27-2.8-39.25,3.05-58C175.81,28.59,180.42,20,188.61,15.61ZM185.09,37a67.2,67.2,0,0,0-4.5,21c-.54,16.63-.25,33.34,2.31,49.8-1.83,4-3.75,8-6.76,11.32-14.19,15.88-26.2,33.59-36.94,52-5.63,10.79-11.55,21.57-15.09,33.28-2,5.09-4.12,10.23-4.84,15.69-.48,3.73,2,6.9,3.56,10,4.62,8.63,9.28,17.25,14.7,25.42,10.06,14.28,20.37,28.85,34.26,39.69,5.12,5.45,11.94,8.74,17.76,13.27,3.28,2.3,1.72,7.47-1.68,8.75-2.59.72-5.1-.68-7.33-1.84a120.47,120.47,0,0,1-16.6-11.87,60.88,60.88,0,0,0-6.08-6.56,45.7,45.7,0,0,0-8.71,17.25c-1.55,6.65-.15,14.93,6,18.87,1.5,2.18,4,4.74,2.68,7.6-.78,3.06-4.26,3.11-6.73,3.82-3.36-2.83-5.94-6.45-9.3-9.27-3.33.16-5.95,3.08-7.8,5.64-6.84,4.82-11.92,11.76-16.4,18.73-5.71,8.74-7.49,19.24-8.74,29.41-1,7.83,1.19,15.53,2.72,23.14,1.36,7,4.54,13.37,6.9,20-2.41,7.1-6.49,13.64-7.87,21.08-.66,4.94-1.08,10.69,2.53,14.67,3.66,4.89,10.35,5,15.89,5.42,16,.18,32.13.49,48.13-1a113.72,113.72,0,0,1-14.77-11.46,81.15,81.15,0,0,1-19.9-31.39,101,101,0,0,1-6.72-25.57,6.58,6.58,0,0,1,2.74-6.46,8.15,8.15,0,0,1,6.89,1.24c1.79,8.59,3.16,17.33,6.48,25.51,4.72,13.46,13,25.82,24.39,34.49,5.93,4.46,13.77,5.62,19.17,10.86,9.8,8.66,22.1,16.47,35.73,15.47-1.67-2.06-3.52-4-5.05-6.11s-1.2-4.63-1.46-7c2-2,5-4.5,7.85-2.53,2.26,2.23,4,4.94,6.25,7.19,2.37.9,5.06,3.58,7.58,1.77,5.2-3.48,9-8.71,11.82-14.25.58-1,1.11-2.12,1.59-3.22-7.68-.48-16.59-.5-22.56-6.09-3.73-3.43.26-9.65,4.81-9.16,3,.75,5.39,2.84,8.3,3.74a19.27,19.27,0,0,0,14.15-2.34c.14-4-.06-8.07-1.9-11.68-2.63-6.1-8-10.19-12-15.32.43-3.51,2.87-8.22-.85-10.73-5.61-5.91-14.54-6-21.82-3.67-3.44.92-7.61,3.05-10.69.13-7.74-7.08-13.93-15.76-19-24.89-1.79-2.9-1.82-6.37-1.84-9.66,2.06-1,4.12-3.11,6.54-2.47a27.76,27.76,0,0,1,4.66,5.19c1.15-14.45,1.58-29.69,8.84-42.66a40.54,40.54,0,0,1,27.21-21.1c11.65-2.91,24.33-2.37,35.33,2.69,11.82,4,21.68,12.13,30.32,20.93,2.52,2.5,4.35,5.69,7.2,7.85,3.46.12,6.76-1.14,10.09-1.88A100.42,100.42,0,0,1,355,336.36c8.73-.36,17.67.87,25.41,5.14,6.83,3,12,8.48,16.74,14.06,4.63-1,8.92-3,13.2-5a194.62,194.62,0,0,0,22.43-11.77c8.85-5.75,18.05-12.51,22-22.69,2.28-9.5,1.67-19.39,1.74-29.08a58.67,58.67,0,0,0-1.67-13.83c-.24-10.57,3.34-20.75,5-31.1,1.79-12.94,1.82-26,1.39-39.07-.19-3.22.42-6.39.63-9.59a27.85,27.85,0,0,0,4.6-5.88c5-8.7,10.81-17,14.74-26.26,2.75-6.59,6.1-13,7.85-20,.6-2.66,1.13-5.65-.29-8.15-2.48-4.7-6.86-9.79-12.78-8.85-7.82.87-15.12,4.26-22.78,6-6.46,2.26-13.28.81-19.74-.59-1.25-1.32-2.65-2.51-3.81-3.91-.95-2.79,1.17-6.4,4.28-6.22,4.36,0,8.67,1.06,13,.82,6.32-.28,12.22-2.81,18.05-5-8.5-.54-18,2-25.63-2.8-7.45-5.51-12.84-13.6-21.07-18.1-3.88-4.52-9.28-7.25-13.93-10.83A211.13,211.13,0,0,0,352.32,58c-18.45-4.92-37.56-9.4-56.76-7.29C284.63,50,273.68,51.8,263,54.14c-9.12,2-17.39-3.25-25.39-6.76-6.3-2.71-11.74-6.93-17.68-10.28,2,5.08,4.92,9.71,7.47,14.52,2.84,4.88,6.4,10,12.07,11.8,3.1,1,7.2,2.56,7,6.57.55,2.67-1.73,3.83-3.84,4.6-1-1.25-3.63-1.12-4.33.42-9.71-3.49-17.4-11.41-21.64-20.71-3.42-7.18-7.39-14.27-13.12-19.87-2.47-2.65-5.8-4.75-9.58-4.18C189.72,29.81,186.57,33.4,185.09,37ZM56.33,257.24C51.89,260.38,47.18,263.47,44,268c-7.64,6.44-12.52,15.42-16.67,24.34-1.52,3.5-3.31,7.26-2.68,11.18a27.81,27.81,0,0,0-2.78,8.71c-3,16.34-.7,33.05,2.59,49.16A165.35,165.35,0,0,0,37,394c.65.94,1,2.28,2.18,2.76,2.53,6.64,7.39,11.94,11.58,17.55a54.73,54.73,0,0,0,13.08,12,81,81,0,0,0,24,13c4.41,1.19,8.87,2.24,13.35,3.16,2.24-3.13,4.76-6.45,5-10.43-.48-3-1.76-5.89-2.65-8.83-.76-2.14-1.54-4.27-2.42-6.37-.85-5-2.21-9.93-3-15a91.44,91.44,0,0,1,3.75-35.14c1.68-4.05-1.87-7.49-3.78-10.72-1.38-3.78-2.73-7.57-4.18-11.32-.46-6.91-.32-13.84-.3-20.76,1.59-3.49,2.07-7.36,3.34-11,3.59-10.67,9.51-20.32,14.21-30.49,2.58-6.35,4.76-13.79,1.72-20.37-3.8-8.18-11.9-14.42-21-15.28C79.28,245.56,66.62,250,56.33,257.24Zm178.46,66.54a27.54,27.54,0,0,0-9.53,10.48c-6.49,11.39-6.91,25-6.69,37.74,0,8-.61,16.66,3.71,23.85,3.58-.63,7.12-1.49,10.71-2,5.5-.82,10.88,1,16.26,1.88,4.37,2.79,9,5.64,12,10s.33,10.84,4.19,14.89c3.09,3.61,6.51,7.21,7.85,11.9,1.72,6,1.21,12.33,1.18,18.5.07,4.17-1.36,8.1-2.71,12-2.76,4.63-5.88,9.1-8,14.06,1.47,3.43,5,5.35,8,7.18,3.72,2.32,8.27,1.6,12.35.89,6.44-1.35,13-2.48,19.08-5,7-1.28,13.45-4.42,20.11-6.8,11.77-4.37,23.67-9.38,33.24-17.68.58-3.54-2.24-6.45-2.93-9.8-2.33-10.21-3.29-21.67,2.09-31.13,5-10,15.88-15.52,26.57-17.17,3.27-.55,6.68-.44,9.85-1.48,1.6-2.32,1.85-5.24,2.18-7.95.48-7.14.81-14.86-3.11-21.19-3.91-7.77-10.34-14.77-19.08-16.86-5.2-2.88-11.29-3.12-17.1-3.25-11.9.31-23.6,3.26-34.74,7.34a31.59,31.59,0,0,1-8.37,1.32c-2.37-3.39-4.53-6.94-7.14-10.16-5.33-7-12.42-12.32-19.41-17.53-8.13-5.25-17.45-9.49-27.33-9.21C250.12,318.53,241.16,318.44,234.79,323.78Zm176.58,78.38c-3.09,1.83-5.29,5.85-9.35,5.42-7-.05-14.24-.66-21.11,1.38,2,3.35,5.1,5.69,8.13,8,3.38,2.38,2.17,8.62-2.2,9-6,.36-10.75-4.63-13.64-9.42-.73-1.15-1.47-2.29-2.2-3.42-8.62,5.71-10.08,17.86-7.14,27,4.08,3.09,9.37,4.12,14.41,4,2.12.85,4.89,1.35,5.54,4-.29,2,.26,4.7-1.88,5.84-3.37,2.13-7.49.72-11.19.66,7.45,8.36,20.47,8.07,30.24,4.47,9.76-3.09,16.51-11.44,20.8-20.36,6.46-11.25,3.86-26.25-5-35.4C415.4,401.93,413.1,400.77,411.37,402.16ZM352.83,472a130.37,130.37,0,0,0,28.41.27c-3.77-1.88-7.95-2.81-11.56-5a32.43,32.43,0,0,0-5.69-3.05C359.92,466.26,356.56,469.46,352.83,472Z"/>
  <path class="cls-4" d="M185.09,37c1.48-3.6,4.63-7.19,8.9-6.75,3.78-.57,7.11,1.53,9.58,4.18,5.73,5.6,9.7,12.69,13.12,19.87,4.24,9.3,11.93,17.22,21.64,20.71l1.09.63c-11.39,2.91-21.19,9.69-31.3,15.41-9,5.19-18.25,10.45-25,18.5-.05-.43-.16-1.3-.22-1.74-2.56-16.46-2.85-33.17-2.31-49.8A67.2,67.2,0,0,1,185.09,37Z"/>
  <g>
    <path class="cls-5" d="M220,37.1c5.94,3.35,11.38,7.57,17.68,10.28,8,3.51,16.27,8.75,25.39,6.76,10.64-2.34,21.59-4.19,32.52-3.43,6.94,3.73,13.28,8.46,19.77,12.91A65,65,0,0,1,329.6,77.41c3.47,4.4,5.84,9.9,5.59,15.58-.21,4.19-2.41,8-5.16,11a50.41,50.41,0,0,1-19.66,13.17c-16.79,5.8-34.3,9-51.7,12.37a184.71,184.71,0,0,0-26.31,6.68c-10.86,3.55-20.85,9.28-30.19,15.8-8.93,5.52-16.3,13.08-23.73,20.41-3.61,3.53-6.26,7.84-9.06,12a52.32,52.32,0,0,1-18.06,16.75c-4.18,2.29-8.95,3-13.57,3.86,3.09-13.19,8.48-25.71,14.46-37.81,4.32-9.11,7.57-18.73,12.6-27.5,3.59-6,6.26-12.68,11-18a31.16,31.16,0,0,0,7.34-12.23c6.75-8,16-13.31,25-18.5,10.11-5.72,19.91-12.5,31.3-15.41a13.79,13.79,0,0,0,3.24-1c2.11-.77,4.39-1.93,3.84-4.6.21-4-3.89-5.52-7-6.57-5.67-1.76-9.23-6.92-12.07-11.8C224.89,46.81,222,42.18,220,37.1Z"/>
    <path class="cls-5" d="M418.35,94.47c8.23,4.5,13.62,12.59,21.07,18.1,7.64,4.82,17.13,2.26,25.63,2.8-5.83,2.24-11.73,4.77-18.05,5-4.37.24-8.68-.87-13-.82-3.11-.18-5.23,3.43-4.28,6.22,1.16,1.4,2.56,2.59,3.81,3.91a96.35,96.35,0,0,1,7.27,9.51c11.77,15.77,17.4,35.11,21.13,54.17-.21,3.2-.82,6.37-.63,9.59.43,13,.4,26.13-1.39,39.07-1.67,10.35-5.25,20.53-5,31.1-.83-6.95-.12-14-.93-20.94-1.23-12.58-1.92-25.79-8.27-37.06-4-6.77-7.86-13.76-13.66-19.17-8.16-7.83-15.82-16.17-24-24-6.27-5.87-11-13.13-16.12-19.93-6.84-10.44-13.37-22.23-12.63-35.13.1-9.54,6.38-19.71,16.22-21.57C403,93.9,410.73,94.56,418.35,94.47Z"/>
  </g>
  <g>
    <path class="cls-6" d="M295.56,50.71c19.2-2.11,38.31,2.37,56.76,7.29a211.13,211.13,0,0,1,52.1,25.64c4.65,3.58,10.05,6.31,13.93,10.83-7.62.09-15.35-.57-22.87.91-9.84,1.86-16.12,12-16.22,21.57-.74,12.9,5.79,24.69,12.63,35.13,5.15,6.8,9.85,14.06,16.12,19.93,8.17,7.82,15.83,16.16,24,24,5.8,5.41,9.71,12.4,13.66,19.17,6.35,11.27,7,24.48,8.27,37.06.81,7,.1,14,.93,20.94A58.67,58.67,0,0,1,456.53,287c-.07,9.69.54,19.58-1.74,29.08-4,10.18-13.16,16.94-22,22.69a194.62,194.62,0,0,1-22.43,11.77c-4.28,2-8.57,4-13.2,5-4.73-5.58-9.91-11.08-16.74-14.06-7.74-4.27-16.68-5.5-25.41-5.14a100.42,100.42,0,0,0-28.54,3.45c-3.33.74-6.63,2-10.09,1.88-2.85-2.16-4.68-5.35-7.2-7.85-8.64-8.8-18.5-16.9-30.32-20.93-11-5.06-23.68-5.6-35.33-2.69a40.54,40.54,0,0,0-27.21,21.1c-7.26,13-7.69,28.21-8.84,42.66a27.76,27.76,0,0,0-4.66-5.19c-2.42-.64-4.48,1.5-6.54,2.47,0,3.29,0,6.76,1.84,9.66,5.11,9.13,11.3,17.81,19,24.89,3.08,2.92,7.25.79,10.69-.13,7.28-2.35,16.21-2.24,21.82,3.67,3.72,2.51,1.28,7.22.85,10.73,4,5.13,9.39,9.22,12,15.32,1.84,3.61,2,7.71,1.9,11.68a19.27,19.27,0,0,1-14.15,2.34c-2.91-.9-5.33-3-8.3-3.74-4.55-.49-8.54,5.73-4.81,9.16,6,5.59,14.88,5.61,22.56,6.09-.48,1.1-1,2.17-1.59,3.22a54.31,54.31,0,0,1-19.4,12.48c-2.25-2.25-4-5-6.25-7.19-2.9-2-5.86.51-7.85,2.53-.64.6-1.28,1.2-1.91,1.81a41.9,41.9,0,0,1-10.23-7.32C210,464,208,461.05,205,459.09c-2.54-1.27-5.42-1.53-8.14-2.23-6.17-1.35-11.47-5-17.07-7.72-6.82-3.43-13.62-7.48-18.17-13.78-5.17-7.12-11-14.4-12.46-23.33-.87-4.52-.63-9.61-3.81-13.31a8.15,8.15,0,0,0-6.89-1.24,6.58,6.58,0,0,0-2.74,6.46,101,101,0,0,0,6.72,25.57,81.15,81.15,0,0,0,19.9,31.39l.15,2.66c-10.08.71-20.27,1.35-30.34.14-3.9-.3-8.44-3.18-7.88-7.58,1.17-6.59,7-11,9-17.25.31-4.16-2-8-3.44-11.73-4.67-10-7.95-20.61-11.35-31.11.84-5,2.07-10.21,5.49-14.07,3.85-3.77,9.36-5.06,13.44-8.52a39,39,0,0,0,9-11c2.94-5.39,2.77-11.68,3.36-17.62l1.33-.36c2.47-.71,5.95-.76,6.73-3.82,1.3-2.86-1.18-5.42-2.68-7.6.17-6.41-.24-13,1.83-19.2,1.33-4,4.23-7.23,7-10.36a120.47,120.47,0,0,0,16.6,11.87c2.23,1.16,4.74,2.56,7.33,1.84,3.4-1.28,5-6.45,1.68-8.75-5.82-4.53-12.64-7.82-17.76-13.27-8.52-10-13.43-22.44-20.74-33.28a136.42,136.42,0,0,1-15.64-30.31c-3.35-8.75.07-18,2.34-26.55,4.62-.87,9.39-1.57,13.57-3.86a52.32,52.32,0,0,0,18.06-16.75c2.8-4.16,5.45-8.47,9.06-12,7.43-7.33,14.8-14.89,23.73-20.41,9.34-6.52,19.33-12.25,30.19-15.8a184.71,184.71,0,0,1,26.31-6.68c17.4-3.36,34.91-6.57,51.7-12.37A50.41,50.41,0,0,0,330,104c2.75-3,5-6.84,5.16-11,.25-5.68-2.12-11.18-5.59-15.58a65,65,0,0,0-14.27-13.79C308.84,59.17,302.5,54.44,295.56,50.71Zm-65.25,105.4c-8.21,1.75-15.16,8.56-16.61,16.89a54.73,54.73,0,0,0,4.12,29.06c2.78,6.18,5,12.71,8.82,18.35,1.92,3,6,3.43,9.1,2.13C250,217.85,264.42,211,274,199c3.65-4.86,6.68-10.76,6.39-17-.37-8.86-8.62-16.17-17.32-16.41-3.71-.16-7.27,1.08-10.94,1.35-2.48-1.86-3.77-4.87-6.14-6.86C241.69,156.52,235.78,154.48,230.31,156.11Zm-45.85,51.43c-6.55,4.07-8.94,12.83-7.08,20.09,1.91,16.53,20.45,27.43,36.1,23.78A12.71,12.71,0,0,0,222,240.94c.66-4.92.42-10.27-2.45-14.51-4.19-7.58-11-13.16-18.23-17.75C196.2,206.09,189.93,206.2,184.46,207.54Zm208,6.17c-9.12,2.13-16.4,10.76-16.22,20.24-1.12,15.05,5.63,29.19,12.95,41.89,1.95,4.19,7.12,2.87,10.65,1.85,12.64-4.35,24.72-11,34-20.78,4.14-5.38,7.64-12,6.94-19-.07-5.31-3.74-9.92-8.06-12.66-5.68-3.36-12.49-1.64-18.65-1.15-3.37-2.29-5.25-6.28-8.74-8.5C401.7,212.81,396.76,212.93,392.46,213.71Zm-85,22.83c-2.69,1.22-6,3.7-4.88,7.09,1.27,4.25,3.68,8.05,5.93,11.84,1.58,2.38,3.23,5.54,6.47,5.7a47.5,47.5,0,0,0,12.79-2.63c3.37-1.22,7.14-3.59,7.47-7.54-.13-3.36-1.64-6.85-4.6-8.65a48.07,48.07,0,0,0-14.22-5.58C313.49,236.22,310.33,235.24,307.46,236.54Zm-37.92,30.09c-2.49,1.45-3.12,4.67-2.8,7.33.86,8.39,2.71,17.29,8.72,23.62,10.29,11.94,27.21,16.94,42.54,14.32,7.92-1.24,14.84-6,20.35-11.61,1.57-1.77,3.45-3.75,3.34-6.3.32-3.41-2.82-5.58-5.34-7.19-5.82-3.36-11.61-7-16.25-11.9-2.45-2.57-3.8-6.07-6.57-8.33-5.5-1.16-10.83,1.38-16.21,2.07-6.32,1.29-12.82.49-19-1.08C275.46,266.91,272.47,265.86,269.54,266.63Zm138.84,14.82c-6.93,1.31-14.36,4.73-17.42,11.49-3,7.74-.46,17.85,7.18,21.9a26.45,26.45,0,0,0,22.48.79c5.95-2.49,12.08-6,14.82-12.2,2.37-4.61,3.27-11.11-.86-15C427.49,282.2,417.48,280.66,408.38,281.45Z"/>
    <path class="cls-6" d="M56.33,257.24c10.29-7.2,23-11.68,35.61-10.43,9.08.86,17.18,7.1,21,15.28,3,6.58.86,14-1.72,20.37C106.5,292.63,100.58,302.28,97,313c-1.27,3.61-1.75,7.48-3.34,11-10.56,4.32-22.2,2.33-33.08.53-9.88-1.39-19.23-5.37-27.79-10.38l-1.1-1c.88-4.81,1.94-9.59,2.87-14.4,1.14-5.85,1.61-11.88,3.59-17.54A84.79,84.79,0,0,1,44,268C47.18,263.47,51.89,260.38,56.33,257.24Z"/>
  </g>
  <path class="cls-7" d="M182.9,107.81c.06.44.17,1.31.22,1.74a31.16,31.16,0,0,1-7.34,12.23c-4.71,5.29-7.38,11.95-11,18-5,8.77-8.28,18.39-12.6,27.5-6,12.1-11.37,24.62-14.46,37.81a67.66,67.66,0,0,1-13.64-.7c3.54-11.71,9.46-22.49,15.09-33.28,10.74-18.36,22.75-36.07,36.94-52C179.15,115.86,181.07,111.81,182.9,107.81Z"/>
  <path class="cls-8" d="M230.31,156.11c5.47-1.63,11.38.41,15.64,3.94,2.37,2,3.66,5,6.14,6.86,3.67-.27,7.23-1.51,10.94-1.35,8.7.24,17,7.55,17.32,16.41.29,6.24-2.74,12.14-6.39,17-9.54,12-23.94,18.88-38.22,23.57-3.09,1.3-7.18.89-9.1-2.13-3.84-5.64-6-12.17-8.82-18.35A54.73,54.73,0,0,1,213.7,173C215.15,164.67,222.1,157.86,230.31,156.11Zm.6,11.58c-2.79,1.07-5.86,3-6.13,6.29a49.54,49.54,0,0,0,.93,17.54A30.11,30.11,0,0,0,230,202a26.84,26.84,0,0,0,4.84,9c7-2.32,13.94-4.88,19.9-9.27,4.89-3.21,8.84-7.55,12.67-11.92.83-2.52,2.24-5.06,1.89-7.8-.58-2.4-2.66-4-4.2-5.81-5.95-.57-11.26,2.61-17,3.1-5.24-2.26-5.76-9.23-10.68-11.87C235.39,166.25,233,167,230.91,167.69Z"/>
  <path class="cls-9" d="M230.91,167.69c2.05-.73,4.48-1.44,6.5-.23,4.92,2.64,5.44,9.61,10.68,11.87,5.76-.49,11.07-3.67,17-3.1-2.8.71-6,.77-8.34,2.61-2.24,3.57.21,8,3.26,10.2,2.08,1.76,4.94.87,7.39.8-3.83,4.37-7.78,8.71-12.67,11.92-6,4.39-12.95,7-19.9,9.27a26.84,26.84,0,0,1-4.84-9c2.73-1.68,6.17-4,4.81-7.72-.83-4.35-6-3-9.11-2.8a49.54,49.54,0,0,1-.93-17.54C225.05,170.7,228.12,168.76,230.91,167.69Z"/>
  <path class="cls-10" d="M256.77,178.84c2.35-1.84,5.54-1.9,8.34-2.61,1.54,1.8,3.62,3.41,4.2,5.81.35,2.74-1.06,5.28-1.89,7.8-2.45.07-5.31,1-7.39-.8C257,186.84,254.53,182.41,256.77,178.84Z"/>
  <path class="cls-11" d="M225.71,191.52c3.12-.23,8.28-1.55,9.11,2.8,1.36,3.74-2.08,6-4.81,7.72A30.11,30.11,0,0,1,225.71,191.52Z"/>
  <path class="cls-12" d="M124.11,204.36a67.66,67.66,0,0,0,13.64.7c-2.27,8.55-5.69,17.8-2.34,26.55a136.42,136.42,0,0,0,15.64,30.31c7.31,10.84,12.22,23.28,20.74,33.28-13.89-10.84-24.2-25.41-34.26-39.69-5.42-8.17-10.08-16.79-14.7-25.42-1.61-3.14-4-6.31-3.56-10C120,214.59,122.13,209.45,124.11,204.36Z"/>
  <path class="cls-13" d="M184.46,207.54c5.47-1.34,11.74-1.45,16.88,1.14,7.18,4.59,14,10.17,18.23,17.75,2.87,4.24,3.11,9.59,2.45,14.51a12.71,12.71,0,0,1-8.54,10.47c-15.65,3.65-34.19-7.25-36.1-23.78C175.52,220.37,177.91,211.61,184.46,207.54Z"/>
  <g>
    <path class="cls-14" d="M392.46,213.71c4.3-.78,9.24-.9,12.87,1.93,3.49,2.22,5.37,6.21,8.74,8.5,6.16-.49,13-2.21,18.65,1.15,4.32,2.74,8,7.35,8.06,12.66.7,7-2.8,13.58-6.94,19-9.28,9.75-21.36,16.43-34,20.78-3.53,1-8.7,2.34-10.65-1.85-7.32-12.7-14.07-26.84-12.95-41.89C376.06,224.47,383.34,215.84,392.46,213.71ZM386.69,235a62.91,62.91,0,0,0,3.08,18,38.33,38.33,0,0,0,3.51,7.72c.8,2,1.68,4,2.59,6,8.17-1.15,15.5-5.27,22.37-9.62,4.81-3,8.05-7.77,11.15-12.4.73-2.86,1.81-6.21-.31-8.77-2.61-3.78-7.85-2.56-11.31-.79a33.55,33.55,0,0,1-7.65.86c-6.27-1.81-5.72-11.46-12.49-12.48C391.38,222.76,387,229.45,386.69,235Z"/>
    <path class="cls-14" d="M269.54,266.63c2.93-.77,5.92.28,8.77.93,6.19,1.57,12.69,2.37,19,1.08,5.38-.69,10.71-3.23,16.21-2.07,2.77,2.26,4.12,5.76,6.57,8.33,4.64,4.91,10.43,8.54,16.25,11.9,2.52,1.61,5.66,3.78,5.34,7.19.11,2.55-1.77,4.53-3.34,6.3-5.51,5.64-12.43,10.37-20.35,11.61-15.33,2.62-32.25-2.38-42.54-14.32-6-6.33-7.86-15.23-8.72-23.62C266.42,271.3,267.05,268.08,269.54,266.63ZM279,281.14c1.67,8.33,8.48,14.69,16.16,17.72,8.75,3.55,19.19,4.36,27.8-.06-6.08-6.41-14.75-9-22.8-11.92C293.2,284.57,286.29,281.92,279,281.14Z"/>
  </g>
  <path class="cls-15" d="M386.69,235c.35-5.56,4.69-12.25,10.94-11.46,6.77,1,6.22,10.67,12.49,12.48a33.55,33.55,0,0,0,7.65-.86c.79,3,.9,6.53,3.34,8.73,2.27,2.1,5.55.89,8.28.83-3.1,4.63-6.34,9.38-11.15,12.4-6.87,4.35-14.2,8.47-22.37,9.62-.91-2-1.79-4-2.59-6,1.84-2.05,4.79-4.32,3.69-7.46-.71-3.21-4.45-3.21-7-3.85-.05.9-.16,2.69-.21,3.59A62.91,62.91,0,0,1,386.69,235Z"/>
  <path class="cls-16" d="M417.77,235.17c3.46-1.77,8.7-3,11.31.79,2.12,2.56,1,5.91.31,8.77-2.73.06-6,1.27-8.28-.83C418.67,241.7,418.56,238.14,417.77,235.17Z"/>
  <path class="cls-17" d="M307.46,236.54c2.87-1.3,6-.32,9,.23a48.07,48.07,0,0,1,14.22,5.58c3,1.8,4.47,5.29,4.6,8.65-.33,3.95-4.1,6.32-7.47,7.54A47.5,47.5,0,0,1,315,261.17c-3.24-.16-4.89-3.32-6.47-5.7-2.25-3.79-4.66-7.59-5.93-11.84C301.45,240.24,304.77,237.76,307.46,236.54Z"/>
  <path class="cls-18" d="M390,249.44c2.54.64,6.28.64,7,3.85,1.1,3.14-1.85,5.41-3.69,7.46a38.33,38.33,0,0,1-3.51-7.72C389.82,252.13,389.93,250.34,390,249.44Z"/>
  <g>
    <path class="cls-19" d="M27.33,292.32c4.15-8.92,9-17.9,16.67-24.34a84.79,84.79,0,0,0-5.86,13.18c-2,5.66-2.45,11.69-3.59,17.54-.93,4.81-2,9.59-2.87,14.4a52.48,52.48,0,0,1-7-9.6C24,299.58,25.81,295.82,27.33,292.32Z"/>
    <path class="cls-19" d="M145.38,398.72c3.18,3.7,2.94,8.79,3.81,13.31,1.47,8.93,7.29,16.21,12.46,23.33,4.55,6.3,11.35,10.35,18.17,13.78,5.6,2.74,10.9,6.37,17.07,7.72,2.72.7,5.6,1,8.14,2.23,2.93,2,4.94,5,7.47,7.37a41.9,41.9,0,0,0,10.23,7.32c.63-.61,1.27-1.21,1.91-1.81.26,2.34,0,5,1.46,7s3.38,4.05,5.05,6.11c-13.63,1-25.93-6.81-35.73-15.47-5.4-5.24-13.24-6.4-19.17-10.86-11.41-8.67-19.67-21-24.39-34.49C148.54,416.05,147.17,407.31,145.38,398.72Z"/>
  </g>
  <g>
    <path class="cls-20" d="M279,281.14c7.32.78,14.23,3.43,21.16,5.74,8.05,2.95,16.72,5.51,22.8,11.92-8.61,4.42-19.05,3.61-27.8.06C287.45,295.83,280.64,289.47,279,281.14Z"/>
    <path class="cls-20" d="M408.38,281.45c9.1-.79,19.11.75,26.2,6.95,4.13,3.92,3.23,10.42.86,15-2.74,6.16-8.87,9.71-14.82,12.2a26.45,26.45,0,0,1-22.48-.79c-7.64-4-10.22-14.16-7.18-21.9C394,286.18,401.45,282.76,408.38,281.45Z"/>
  </g>
  <path class="cls-21" d="M149.15,314.2A45.7,45.7,0,0,1,157.86,297a60.88,60.88,0,0,1,6.08,6.56c-2.75,3.13-5.65,6.33-7,10.36-2.07,6.18-1.66,12.79-1.83,19.2C149,329.13,147.6,320.85,149.15,314.2Z"/>
  <path class="cls-22" d="M21.87,312.21a27.81,27.81,0,0,1,2.78-8.71,52.48,52.48,0,0,0,7,9.6l1.1,1c-2.57,16.44.57,33.1,5,48.92H35c-3.49-.51-7-3-10.51-1.61C21.17,345.26,18.9,328.55,21.87,312.21Z"/>
  <g>
    <path class="cls-23" d="M32.78,314.07c8.56,5,17.91,9,27.79,10.38,10.88,1.8,22.52,3.79,33.08-.53,0,6.92-.16,13.85.3,20.76-9.1,8.38-20.77,13.19-32.36,17-7.33,2.53-15.19,2.27-22.83,2.1-1.28-.24-2.54-.53-3.79-.83h2.86C33.35,347.17,30.21,330.51,32.78,314.07Z"/>
    <path class="cls-23" d="M98.13,356c1.91,3.23,5.46,6.67,3.78,10.72a91.44,91.44,0,0,0-3.75,35.14c-2.73,6.72-9.18,10.52-14.64,14.77l-1.13-.56c-7.14-4.08-14.83-7.81-20.29-14.16-1.73-1.92-3.39-3.9-5.1-5.83l1.8-.39c10-3.23,17.92-10.43,25.71-17.2C91.19,372.51,94.5,364,98.13,356Z"/>
  </g>
  <path class="cls-24" d="M234.79,323.78c6.37-5.34,15.33-5.25,23.21-5.28,9.88-.28,19.2,4,27.33,9.21,7,5.21,14.08,10.54,19.41,17.53,2.61,3.22,4.77,6.77,7.14,10.16a10.31,10.31,0,0,0,10.7,4.25c10.89-2.09,20.66-7.76,31.3-10.69,6-1.63,12.26-.15,18.21,1,8.74,2.09,15.17,9.09,19.08,16.86,3.92,6.33,3.59,14,3.11,21.19-.33,2.71-.58,5.63-2.18,7.95-3.17,1-6.58.93-9.85,1.48-10.69,1.65-21.54,7.16-26.57,17.17-5.38,9.46-4.42,20.92-2.09,31.13.69,3.35,3.51,6.26,2.93,9.8-9.57,8.3-21.47,13.31-33.24,17.68-6.66,2.38-13.11,5.52-20.11,6.8-5,.79-10,1.94-15.08,1.7s-8.62-4.54-11.87-8a16.11,16.11,0,0,1-4.47-10.8c1.35-3.88,2.78-7.81,2.71-12,0-6.17.54-12.5-1.18-18.5-1.34-4.69-4.76-8.29-7.85-11.9-3.86-4.05-1.09-10.45-4.19-14.89s-7.62-7.2-12-10c-4.2-2.76-9.64-2.56-13.82-5.2-3.6-5.21-3.68-11.89-5.12-17.87-2.73-11.67-2.51-23.72-2.11-35.6C228.31,331.84,231.5,327.5,234.79,323.78Zm41.66,11.65c-3.08.1-3.45,4.05-2.19,6.18a24.88,24.88,0,0,0,8.19,8c3,2.09,8-.87,6.85-4.56C287.74,339.71,282.32,334.71,276.45,335.43Zm85.05,22.19c-3.09.91-3.86,5.34-1.67,7.54,3.13,3.3,7.59,5,10.65,8.35s4.59,7.94,7.8,11.24c1.91,2,5.8,2.46,7.27-.31,1.7-3.39.82-7.41.05-10.93C383.13,363.28,372.26,354.59,361.5,357.62Z"/>
  <path class="cls-25" d="M225.26,334.26a27.54,27.54,0,0,1,9.53-10.48c-3.29,3.72-6.48,8.06-6.59,13.25-.4,11.88-.62,23.93,2.11,35.6,1.44,6,1.52,12.66,5.12,17.87,4.18,2.64,9.62,2.44,13.82,5.2-5.38-.85-10.76-2.7-16.26-1.88-3.59.54-7.13,1.4-10.71,2-4.32-7.19-3.7-15.81-3.71-23.85C218.35,359.23,218.77,345.65,225.26,334.26Z"/>
  <path class="cls-26" d="M134,340.86c1.85-2.56,4.47-5.48,7.8-5.64,3.36,2.82,5.94,6.44,9.3,9.27l-1.33.36c-.59,5.94-.42,12.23-3.36,17.62a39,39,0,0,1-9,11c-4.08,3.46-9.59,4.75-13.44,8.52-3.42,3.86-4.65,9.11-5.49,14.07l-.19-.79c.25-6.91-1.24-13.88.3-20.73C120.86,362.17,127.51,351.37,134,340.86Z"/>
  <path class="cls-27" d="M276.45,335.43c5.87-.72,11.29,4.28,12.85,9.66,1.14,3.69-3.89,6.65-6.85,4.56a24.88,24.88,0,0,1-8.19-8C273,339.48,273.37,335.53,276.45,335.43Z"/>
  <path class="cls-28" d="M117.58,359.59c4.48-7,9.56-13.91,16.4-18.73-6.47,10.51-13.12,21.31-15.37,33.65-1.54,6.85,0,13.82-.3,20.73-2,6.79-3,14.18-.32,20.94a21.69,21.69,0,0,1,.47,16c-2.36-6.65-5.54-13.05-6.9-20-1.53-7.61-3.67-15.31-2.72-23.14C110.09,378.83,111.87,368.33,117.58,359.59Z"/>
  <path class="cls-29" d="M61.59,361.71c11.59-3.84,23.26-8.65,32.36-17,1.45,3.75,2.8,7.54,4.18,11.32-3.63,8-6.94,16.51-13.62,22.49-7.79,6.77-15.67,14-25.71,17.2A12.32,12.32,0,0,1,52,390c-4.89-8.46-10.45-16.72-13.2-26.2C46.4,364,54.26,364.24,61.59,361.71Z"/>
  <path class="cls-30" d="M320.25,354.08c11.14-4.08,22.84-7,34.74-7.34,5.81.13,11.9.37,17.1,3.25-5.95-1.18-12.19-2.66-18.21-1-10.64,2.93-20.41,8.6-31.3,10.69a10.31,10.31,0,0,1-10.7-4.25A31.59,31.59,0,0,0,320.25,354.08Z"/>
  <path class="cls-31" d="M361.5,357.62c10.76-3,21.63,5.66,24.1,15.89.77,3.52,1.65,7.54-.05,10.93-1.47,2.77-5.36,2.34-7.27.31-3.21-3.3-4.62-7.9-7.8-11.24s-7.52-5.05-10.65-8.35C357.64,363,358.41,358.53,361.5,357.62Z"/>
  <path class="cls-32" d="M24.46,361.37C28,360,31.48,362.47,35,363c1.25.3,2.51.59,3.79.83,2.75,9.48,8.31,17.74,13.2,26.2a12.32,12.32,0,0,0,6.84,5.68l-1.8.39a109.58,109.58,0,0,1-17.84.7C38,396.3,37.63,395,37,394A165.35,165.35,0,0,1,24.46,361.37Z"/>
  <path class="cls-33" d="M39.16,396.78a109.58,109.58,0,0,0,17.84-.7c1.71,1.93,3.37,3.91,5.1,5.83,5.46,6.35,13.15,10.08,20.29,14.16-5.27,4.89-11.93,7.75-18.57,10.26a54.73,54.73,0,0,1-13.08-12C46.55,408.72,41.69,403.42,39.16,396.78Z"/>
  <path class="cls-34" d="M118,416.18c-2.68-6.76-1.65-14.15.32-20.94l.19.79c3.4,10.5,6.68,21.08,11.35,31.11,1.45,3.77,3.75,7.57,3.44,11.73-2,6.22-7.82,10.66-9,17.25-.56,4.4,4,7.28,7.88,7.58,10.07,1.21,20.26.57,30.34-.14l-.15-2.66a113.72,113.72,0,0,0,14.77,11.46c-16,1.46-32.09,1.15-48.13,1-5.54-.37-12.23-.53-15.89-5.42-3.61-4-3.19-9.73-2.53-14.67,1.38-7.44,5.46-14,7.87-21.08A21.69,21.69,0,0,0,118,416.18Z"/>
  <path class="cls-35" d="M98.16,401.86c.76,5,2.12,9.95,3,15,.08,1.3.14,2.61.19,3.92a37.12,37.12,0,0,1-17.8-4.11C89,412.38,95.43,408.58,98.16,401.86Z"/>
  <path class="cls-36" d="M411.37,402.16c1.73-1.39,4-.23,5.37,1.15,8.9,9.15,11.5,24.15,5,35.4-4.29,8.92-11,17.27-20.8,20.36a39.75,39.75,0,0,1-12.69-4.37c-2.5-1.34-3.3-4.24-4.48-6.6-.65-2.6-3.42-3.1-5.54-4-2.32-.95-4.82-2.1-5.95-4.5-3.91-7.19-3.76-15.86-1.69-23.59l2.57.54c2.89,4.79,7.61,9.78,13.64,9.42,4.37-.41,5.58-6.65,2.2-9-3-2.34-6.14-4.68-8.13-8,6.87-2,14.06-1.43,21.11-1.38C406.08,408,408.28,404,411.37,402.16Z"/>
  <path class="cls-37" d="M363.86,440.19c-2.94-9.15-1.48-21.3,7.14-27,.73,1.13,1.47,2.27,2.2,3.42l-2.57-.54c-2.07,7.73-2.22,16.4,1.69,23.59,1.13,2.4,3.63,3.55,5.95,4.5C373.23,444.31,367.94,443.28,363.86,440.19Z"/>
  <path class="cls-38" d="M82.39,416.07l1.13.56a37.12,37.12,0,0,0,17.8,4.11c0-1.31-.11-2.62-.19-3.92.88,2.1,1.66,4.23,2.42,6.37-3.06,7.16-9.52,11.84-15.73,16.1a81,81,0,0,1-24-13C70.46,423.82,77.12,421,82.39,416.07Z"/>
  <path class="cls-39" d="M103.55,423.19c.89,2.94,2.17,5.78,2.65,8.83-.27,4-2.79,7.3-5,10.43-4.48-.92-8.94-2-13.35-3.16C94,435,100.49,430.35,103.55,423.19Z"/>
  <path class="cls-40" d="M383.81,448.1c1.18,2.36,2,5.26,4.48,6.6A39.75,39.75,0,0,0,401,459.07c-9.77,3.6-22.79,3.89-30.24-4.47,3.7.06,7.82,1.47,11.19-.66C384.07,452.8,383.52,450.1,383.81,448.1Z"/>
  <path class="cls-41" d="M263.71,477c2.16-5,5.28-9.43,8-14.06a16.11,16.11,0,0,0,4.47,10.8c3.25,3.45,6.79,7.64,11.87,8s10.09-.91,15.08-1.7c-6.1,2.56-12.64,3.69-19.08,5-4.08.71-8.63,1.43-12.35-.89C268.68,482.37,265.18,480.45,263.71,477Z"/>
  <path class="cls-42" d="M238.74,476.63a54.31,54.31,0,0,0,19.4-12.48c-2.78,5.54-6.62,10.77-11.82,14.25C243.8,480.21,241.11,477.53,238.74,476.63Z"/>
  <path class="cls-43" d="M352.83,472c3.73-2.58,7.09-5.78,11.16-7.79a32.43,32.43,0,0,1,5.69,3.05c3.61,2.2,7.79,3.13,11.56,5A130.37,130.37,0,0,1,352.83,472Z"/>
</svg>
