<svg id="Layer_1" data-name="Layer 1" xmlns="http://www.w3.org/2000/svg" viewBox="0 0 500.23 505.53">
  <defs>
    <style>
      .cls-1 {
        fill: #fbc2bd;
      }

      .cls-2 {
        fill: #f7efed;
      }

      .cls-3 {
        fill: #091f2e;
      }

      .cls-4 {
        fill: #ed441b;
      }

      .cls-5 {
        fill: #bf3e1e;
      }

      .cls-6 {
        fill: #c8bfbd;
      }
    </style>
  </defs>
  <g>
    <path class="cls-1" d="M0,0H.24L0,.24Z"/>
    <path class="cls-1" d="M117.5,43.27c3.3-.5,6.91-.42,9.87,1.29,8.74,4.52,15.55,11.77,23.25,17.74A76.57,76.57,0,0,0,165.1,71c3.33,1.46,7,1.89,10.35,3.26-12.24,2.79-22.5,10.5-32.55,17.62-4.57,2.87-6.49,8.09-10.06,11.89-3.23-4.65-7-9-9.66-14-4.24-6.91-6.81-14.7-8.63-22.56a95.77,95.77,0,0,1-.24-16.85C114.63,47.87,115.19,44.75,117.5,43.27Z"/>
    <path class="cls-1" d="M422.64,53.59c6.42-3.79,11.95-10.64,20-10.49,1.31,4.21,1,8.67.22,12.94-.85,8.13-4.64,15.5-7.63,23-2.83,7.33-7.46,13.75-10.71,20.87-.37,1.24-.67,2.51-1,3.76.09-3,.54-6.21-1.3-8.77-2.88-4.36-6.91-7.79-10.63-11.4-3.95-3.83-8.91-6.31-13.93-8.38-4.75-2-9.07-4.85-13.94-6.55C398.31,69.86,411.25,61.7,422.64,53.59Z"/>
    <path class="cls-1" d="M410.53,224.66a18.9,18.9,0,0,1,15.77,4.06c2.42,2.4,4.37,5.84,3.69,9.36a18.16,18.16,0,0,1-9.17,13.64,38,38,0,0,1-19.8,5c-4.67-.16-9.52.55-14-.82-4.4-2.22-8.4-6.66-7.81-11.92-.4-5.23,3.57-9.46,7.72-12C394.09,227.8,402.35,225.88,410.53,224.66Z"/>
    <path class="cls-1" d="M159.53,225.73c7.32-1.39,14.83.22,22,2,6.88,1.73,12.51,6.47,16.8,12,2,2.65,1.54,6.21,1.42,9.32a12.27,12.27,0,0,1-8.81,10.8c-4.19,1.23-8.63,1-12.94,1-8.08-.17-16.62-2.36-22.49-8.22-3.76-3.55-7.22-8.38-6.55-13.83C149,232.58,154.11,227.73,159.53,225.73Z"/>
    <path class="cls-1" d="M435.39,306.12c.69-5.2,5.49-10.95,11.21-9.74,3.19,1.52,4.92,4.89,7.2,7.44-4.91,2.91-9.59,6.66-11.38,12.31C439,313.85,434.89,310.78,435.39,306.12Z"/>
    <path class="cls-1" d="M434.78,332.86c3.17-1.18,6.33.42,9.34,1.3-3.89,5.25-6.4,12.07-4.64,18.59.42,2.85,2.1,5.38,2.39,8.25-1.12,2.66-2.94,5-3.78,7.77-1.72-.27-3.43-.52-5.12-.88-11.48-1.67-16.68-16.79-11.22-26.25C424.75,337.18,429.75,334.44,434.78,332.86Z"/>
  </g>
  <g>
    <path class="cls-2" d="M184,31.34C218,15.43,255.41,6.85,292.91,7.36A247.72,247.72,0,0,1,369.1,20.7c5.33,1.77,10.45,4.14,15.79,5.89,12.83-1.74,25.85-2.68,38.36-6.24,4.54-.91,9.24-2.26,13.86-1,10.84,1.13,19.57,10.38,21.94,20.72,3.23,11.72-.32,23.82-4.27,34.88a198.79,198.79,0,0,1-12.34,26.56c-1.17,3.26.61,6.54,1.52,9.63C455.6,144.46,466,178.43,471.35,213.4c0,5.57,1.51,11.1.56,16.66-.78,5.48-1,11.24-3.43,16.32a161.74,161.74,0,0,1-15.26,22.82c-1.69,1.61-.55,4-.54,6.05,5.13,1.66,10.65,3.44,14.13,7.85a24.11,24.11,0,0,1,4.85,13.4c6.72,1.73,13.8,3.89,18.44,9.43,5.82,6.16,6.4,15.1,7,23.1-.47,5.27,2.2,10,2.71,15.16a30,30,0,0,1-6.14,23.57c-5.44,5.88-7.1,14.37-13.14,19.83A34.21,34.21,0,0,1,461.89,398c-3,1-3.73,4.86-6.05,6.87-10.62,10.82-25.07,16.41-38.93,21.8a133.86,133.86,0,0,1-29.38,7c-.95.29-1.88.63-2.79,1,10.15,4.87,19.95,12.76,22.49,24.28,2.69,7.73-.31,16.64-6.18,22.09-7.17,7.23-17.69,9.25-27.34,10.91a160.35,160.35,0,0,1-46.25-.2,55.53,55.53,0,0,1-25.53-10.6c-12.06,1.55-24.11,3.43-36.26,4.34-5.7,8.11-13.64,14.89-23.25,17.8-8.2,3-17.2,2.68-25.63.87-19.39-3.27-39.13-4-58.77-4.14-17.48-1.65-35.1,0-52.55-1.94-3.8-.82-7.74-.26-11.52-1.21C73,493.79,51.85,487.3,35.21,473.8c-8.7-7-15.23-17-16.85-28.15-1.5-8-2.22-16.35.53-24.13A52,52,0,0,1,35,395c5-3.57,10.25-7.13,16.32-8.61,8.35-2.14,17.1-3.36,25.7-2.16,5.1.37,10.11,1.54,15.23,1.66,1.47-9,4.46-17.59,7.39-26.17,3.55-9.71,8.31-19.08,15.11-26.94,2.87-3.92,6.71-7,9.7-10.8-.3-3.36-1.34-6.62-1.49-10-.79-5.68,1.51-11.12,2-16.71a215.37,215.37,0,0,1-33.93-25.31c-3.68-3.38-7-7.74-7.14-12.94-3.78-34,1-68.57,10.71-101.27a300,300,0,0,1,15.55-41.55c1.19-2.67,2.95-5.15,3.53-8-3.49-6.2-7.72-12.07-10.1-18.86-4.32-9.15-6-19.27-6.8-29.27.45-7.61,1.64-15.31,4.86-22.28,5.73-11.57,19.67-19,32.42-15.53,6.09,1,11.15,4.72,16.89,6.74,6.67,2.63,13.78,3.75,20.86,4.6C175.9,31.45,180.14,33.18,184,31.34Zm29.81-6.58c-10.32,3-20.06,7.6-29.85,11.86a83.19,83.19,0,0,1-44.1-9.4c-8-4-18.09-4.14-25.51,1.13-9.22,6.19-12.44,18.08-12.15,28.65-.65,17.82,7.56,34.48,17.3,48.89C96.53,152.38,83.36,205,88.85,257c.24,3.1,2,5.83,4.14,8,11.38,10.95,24.41,20,38,28-3.14,10-4.24,20.88-.62,30.88-8.43,7.16-15.85,15.69-20.93,25.57A167,167,0,0,0,95.78,392c-5.92-.89-11.74-2.41-17.75-2.63-14.77-1.9-31.12.87-42.24,11.44a54,54,0,0,0-13.37,26.29c-.73,10.76,0,22.24,5.84,31.63,7,10.9,18.27,18.22,30,23.2,15,7,31.45,10.19,47.85,11.33,12.32,1.14,24.73.12,37.07,1,12.58.79,25.21.15,37.76,1.38a287.12,287.12,0,0,1,41.16,4.43c13.2,2.26,27.47-2.55,36.05-13,2.44-2.2,3.56-6.52,7.37-6.6,11.29-1,22.62-2.06,33.77-4.17,1.48-.16,3-.89,4.51-.35,2.72,2.09,5.23,4.54,8.44,5.9,14.78,7.24,31.73,6.86,47.79,6.61,8.73-.8,17.62-1.42,26-4.31,6.68-2.12,13.32-6.15,16.07-12.91,3.09-6.61.21-14.06-3.48-19.78-6.22-8.52-16.28-12.88-25.79-16.67,1.66-1.87,3.11-4.51,5.65-5.19,21-.82,41.11-8.22,59.72-17.55,7.54-4.44,15.29-9.77,18.92-18.06,5.64-.81,11.35-2.47,15.86-6.1,5.48-3.94,9.12-9.76,12-15.77,2.21-5.6,7.88-9.18,9.17-15.25,2.54-7.31.71-15.07-1.64-22.14-.53-7.78-.1-16.16-4.09-23.18-4.6-7.17-13.41-10.11-21.56-10.49.4-5.69-.55-11.9-4.82-16.05-4.81-4.53-11.69-5.42-18-5-3.68-.43-6.69,1.91-10,3.08C446,271,457.31,257.68,465,242.25c3.39-12.9,2.21-26.41-.27-39.37-6.33-32.69-16.16-64.63-27.46-95.92-.45-1.72-1.57-3.62-.61-5.36,7.22-12.52,13.5-25.77,17.06-39.83,1.8-7.31,2.6-15.2,0-22.42A23.6,23.6,0,0,0,442.88,26c-5.85-2.92-12.7-2.56-18.85-.87-11.43,3.41-23.39,4-35.1,6-2.2.21-4.55.7-6.68-.07A238.14,238.14,0,0,0,213.83,24.76Z"/>
    <path class="cls-2" d="M211.84,37.68c18.57-7.29,38.39-11,58.17-13.07q19-.78,38-.05a235.12,235.12,0,0,1,46.52,8.69c5.53,1.75,11.2,3.22,16.42,5.81a186.33,186.33,0,0,1-23.17,19.73c-7.58,5.27-14.88,11-20.93,18.05-4.64,5.43-3.79,13.35-2.57,19.88.89,5.8,5.87,9.4,9.77,13.24,6.56,6.5,15,10.5,22.68,15.43a230.45,230.45,0,0,0,28.08,14.89c8.37,3.93,15.91,9.3,23.63,14.32a38,38,0,0,1,11.08,10.88A74.7,74.7,0,0,1,429.94,187c2.18,7.7,3,15.69,4.45,23.54,1.09,5.91,3.68,11.89,8.67,15.52,3.59,2.51,7.67,4.22,11.63,6.07.08,2.79.09,5.74-1.55,8.14-14.27,24.53-35.32,45.93-61.8,56.94-5.64,2.58-11.9,3.77-17.21,7-2.48,1.45-2,4.85-1.52,7.24,3.09,4.3,9,1.29,13.11.63.14,3.65-.3,7.29-.4,10.94-.22,4,3.93,6.91,7.59,7.23,5.67.43,11.39.94,17.06.3,5.22-1.1,9.27-5.17,11.73-9.74,4.54-8.12,7.6-17.2,13.85-24.27,4.71-5,13.25-7.26,19-2.68.21,3.32.58,6.79-.77,9.95-2.28-2.55-4-5.92-7.2-7.44-5.72-1.21-10.52,4.54-11.21,9.74-.5,4.66,3.6,7.73,7,10-.05,4.53-.13,9.23,2.08,13.35.61,1.5,2.41,4.46-.38,4.68-3-.88-6.17-2.48-9.34-1.3-5,1.58-10,4.32-13,8.78-5.46,9.46-.26,24.58,11.22,26.25,1.69.36,3.4.61,5.12.88.05,4.94.81,9.94,3.74,14.07a42.76,42.76,0,0,1-12.37,9.68c-6.83,3.36-13.52,7.24-20.93,9.23-6.16,1.72-12.59,1.94-18.92,2.55-.49-3.14,1-6.07,1.63-9.07,1.72-7.2,3.18-14.76,2-22.13-1.24-4.37-7.7-4.63-9.55-.6-1.23,5.66-.59,11.56-2,17.19-2.32,10-5.3,20-10.5,28.91-12.75-4.56-21.86-14.94-32.55-22.73-3.92-5.72-5.88-12.5-7.62-19.15-.69-2.55-1.54-5.54-4.22-6.67-2.37-1.45-5.11.42-6.41,2.44-1.72,2.13-.45,4.95.18,7.25,2.3,6.86,4,14,7.41,20.41,3.4,5.89,6.34,12.08,10.44,17.54,6.15,8.05,12.61,16,20.39,22.51,6.15,4.91,14.06,6.45,20.84,10.23,3.33,1.71,6.14,4.2,9.05,6.52-.41,2-.33,4.3-1.87,5.81-1.17,1.39-3.11.79-4.67.93-2.21-4-4.62-9.86-10.15-9.37-2.86-.49-6.18,1.47-5.78,4.67-.51,3.17,2.71,4.77,4.45,6.85-10,6.09-22.37,5-33.1,1.69a44.25,44.25,0,0,1-16.81-10.28c-6.61-6.76-16.81-6.42-25.08-9.91C283.16,442,271.1,435.2,261,426a99.78,99.78,0,0,1-15.93-23.19c-2.61-5-3.31-10.63-5.51-15.75-1.81-2.12-5.53-3.58-7.7-1.2-3.87,4-3.38,10-3.34,15.1C215,397.1,201.11,394,187,394.18c-10.48.07-21.07-.53-31.41,1.51-5.78.75-11.29,2.75-17,4-3.71-5.07-8.06-9.67-11.32-15.06a10.2,10.2,0,0,1,1.24-12c6-6.86,14.46-10.83,20.73-17.34,4.7-5.72,2.84-13.76,2.15-20.49-6.1-5.65-11.22-13.13-11.17-21.77.17-4.65-.92-9.91,2.21-13.85a17.9,17.9,0,0,1,5.72,1.84c6.67,3.33,13.46,6.43,20.4,9.17,3,1.17,6.44,2.29,9.62,1.07,2.5-2,3.3-6,.75-8.21-3.28-2.42-7.47-3.08-11-5.07-7.28-4.26-14.51-8.63-21.38-13.52-10.9-8-21-17-31.41-25.59-2.46-2.22-5.45-4.09-7.08-7.06-1-6.55.12-13.26-1.06-19.81a36.3,36.3,0,0,0,21.21-10.73c5.39-5.28,9.12-12,12.08-18.85,2.66-7,3.35-14.71,6.57-21.57,3.11-6.46,6.82-12.83,12.25-17.64,6.92-6.18,14.1-12.19,22.24-16.72,5.6-3.09,11-6.65,16.81-9.23,8.06-3.72,16.87-5.36,24.94-9,5.73-2.68,12-4.16,17.41-7.53s11.45-6.45,16-11.2,10.2-9,12.59-15.37c1.21-4.12.88-8.52.6-12.75C269.33,76,266,71.3,261.94,68c-5.81-4.61-11.45-9.52-17.89-13.25C233.76,48.31,223.42,41.6,211.84,37.68Zm158.6,125a28.11,28.11,0,0,0-10.55,5.2c-6.82,4.91-10,13.32-11.38,21.33-.37,6.4-.73,13.64,3.26,19.09,3,3.52,7.38,6.47,12.2,6.38,3.73,0,7.87.55,11-1.88,5.88-4,12.81-6,19.64-7.74,3.84-1,8.42-1,11.21-4.19,2.64-3.26,4.34-7.61,3.35-11.82-1-4.71-1.18-10-4.41-13.8-5.23-6.53-12.95-10.79-21-12.64A59.41,59.41,0,0,0,370.44,162.71ZM216.52,187c-.28,3.32,3.21,5,5.28,6.94-10.67-3.25-21.47-7.05-32.8-6.67-7.17.23-14.76-.67-21.47,2.4-3.76,1.62-4.67,7.64-1,9.83,1.87,1.38,4.33,1,6.49.85,16.84-3,34.26.78,49.57,8,3.29,1.47,6.49,4.07,10.34,3.29,4.18-.28,6.8-4.8,6.43-8.65-1.66-6.8-6.07-12.48-10.89-17.38a13.83,13.83,0,0,0-6.44-3.9C219.29,182,216.22,183.94,216.52,187ZM282,210.05c-2.4,1.56-1.95,5-1.29,7.34,2.85,3.9,6.68,6.93,10,10.43-1.41,3.81-2.54,7.77-4.76,11.22-3.88,6.41-10.48,11.51-18,12.53-7.17-.58-13-5.7-17.31-11.13-1.87-2.95-6.42-3-8.75-.6-1,2.45-1,5.54.72,7.69,4.06,6.4,10.9,10.31,17.76,13.09,2.44.88,4.94,2.14,7.61,1.77,10.57-1.95,20.67-7.95,26.18-17.38.51-1.18,1.63.23,1.83.89a34.67,34.67,0,0,0,18.21,15.86c2.75,1,5.7,2.29,8.7,1.53,9.12-2.62,18.69-7.25,23-16.26-1.17-1.92-2.33-3.84-3.44-5.78-1.91.11-4.13,0-5.23,1.86A27.78,27.78,0,0,1,321,253.26C309.56,251,302.38,239.87,300.48,229c2.23-3.22,5.72-5.52,7.32-9.24,1.84-2.91,3.24-7.93-.39-10-4.12-2.07-9-1.21-13.41-1.51C290,208.47,285.36,207.3,282,210.05Zm128.53,14.61c-8.18,1.22-16.44,3.14-23.65,7.32-4.15,2.55-8.12,6.78-7.72,12-.59,5.26,3.41,9.7,7.81,11.92,4.53,1.37,9.38.66,14,.82a38,38,0,0,0,19.8-5A18.16,18.16,0,0,0,430,238.08c.68-3.52-1.27-7-3.69-9.36A18.9,18.9,0,0,0,410.53,224.66Zm-251,1.07c-5.42,2-10.5,6.85-10.61,13-.67,5.45,2.79,10.28,6.55,13.83,5.87,5.86,14.41,8,22.49,8.22,4.31,0,8.75.26,12.94-1a12.27,12.27,0,0,0,8.81-10.8c.12-3.11.57-6.67-1.42-9.32-4.29-5.49-9.92-10.23-16.8-12C174.36,226,166.85,224.34,159.53,225.73Zm118.08,45.88c-2.71,1.36-3.05,5.12-1.71,7.53,5,5.95,12.63,9.27,20.17,10.4,4.43.66,7.4-5.7,4-8.63-3.84-3-9.21-2.9-13-6C284.38,272.7,281.31,270.18,277.61,271.61Zm-17.48,39.16a9.15,9.15,0,0,0-7.39,4c-.93,2.38-.71,5.47,1.27,7.28,7.85,7.37,18.71,9.57,28.82,12a43.25,43.25,0,0,0,24.24-2.1c5.42-2,12.11-3.17,15.34-8.53,2.22-3,.18-7.54-3.29-8.42-4.93-1.26-10.09-.53-15.12-.57-7,.29-14-1.15-21-1.13C275.31,313.12,267.71,311.89,260.13,310.77Z"/>
    <path class="cls-2" d="M392.61,176.64c4.91-1.88,8.52,3.08,8.91,7.44.18,3.43.9,7.73-2.39,10-2.21,2.46-5.9.5-7.19-2C388.83,187.66,387.65,180.25,392.61,176.64Z"/>
    <path class="cls-2" d="M356.48,190.23c2-1.78,5.64-.33,6.21,2.3,2.28,4-3.1,10-7.09,6.94C352.22,197.12,353.36,192.26,356.48,190.23Z"/>
    <path class="cls-2" d="M397.86,307.11c9.18-4.51,18.16-9.5,26.23-15.85-3.72,4.25-5.41,9.7-8.1,14.56-2.32,4.35-3.17,9.87-7.4,12.91-3.49,1.62-7.5.35-11.19.45C397.43,315.16,397.16,311.08,397.86,307.11Z"/>
    <path class="cls-2" d="M454.53,316.44c6.35-4.32,15.28-5.3,21.8-.75,3.91,3,4.12,8.34,4.13,12.83-6.51,0-13,.12-19.53-.14-3.24-.19-7.1-2-7.38-5.63C453.59,320.68,452.77,318,454.53,316.44Z"/>
    <path class="cls-2" d="M453.67,340.81c4.46-2.13,9.55-1.12,14.33-1.26,3.95.24,8-.47,11.91.38,3.57.86,3.65,5.11,3.62,8.08a13.79,13.79,0,0,1-4.27,11.18c-2.69,2-6.18,1.08-9.27,1.21-6.73-.65-14.93-.81-19.2-7C450.16,349.19,449.45,343.5,453.67,340.81Z"/>
    <path class="cls-2" d="M449.61,368.47c4.3-.26,8.26,1.73,12.49,2.06,3.34.37,6.68.88,10,1.06-2.29,4.05-6,9.22-11.37,7.85-3.93-.87-8.84-1.15-11.17-5A26.84,26.84,0,0,1,449.61,368.47Z"/>
    <path class="cls-2" d="M56.6,402.09a107.77,107.77,0,0,1,11.08.22c3.31.27,5.88,2.59,8.52,4.37a25.12,25.12,0,0,1-4.28,4.58C68.75,409,65,407.21,61,407.75A42.35,42.35,0,0,0,40,415C42.86,408.36,49.59,403.58,56.6,402.09Z"/>
    <path class="cls-2" d="M91.25,402.65c1.12.34,2.24.67,3.38,1a98,98,0,0,1-.23,12c-2.08-.06-4.16-.12-6.25-.11A19.73,19.73,0,0,0,91.25,402.65Z"/>
    <path class="cls-2" d="M187.31,411.26c4.06-2.93,9.05-4,13.86-4.95a34.44,34.44,0,0,1,9.16,1c7.95,1.7,16.24,3.47,22.86,8.49,11.18,8.37,18.55,21,22.53,34.23a38.3,38.3,0,0,1,1.58,14.4l-.56.41c-4.41,3.3-9.05,6.92-14.79,7.31-22.51,2.5-44.75-3.67-67.22-3.94l-.78-1.46a73.19,73.19,0,0,1-5.14-13.8c-2.17-10.22.4-20.88,5.41-29.87C177.38,418,182.5,414.65,187.31,411.26Z"/>
    <path class="cls-2" d="M125.81,415.84c7.34-2.15,14.19-5.81,21.72-7.28-4.76,4.27-9.46,8.91-12.07,14.86-4.77,9-5.56,19.54-4.62,29.53.46,5.25,3.33,9.74,6,14.14-11.39.35-22.8.41-34.19-.11.57-5.7-.57-11.38-.25-17.08,1-10.54,6.87-19.63,12.31-28.39C117.37,418.14,122,417.48,125.81,415.84Z"/>
    <path class="cls-2" d="M61.21,422.26c3-2.26,7-1.9,10.54-2.23,3.45,3.11,7.62,5.57,12.38,5.76-4.48,5.08-9.08,10.4-11.29,16.91a127.65,127.65,0,0,0-3.47,19.5c-9.65-2.43-19.08-8-24-16.91l.25-.68C48.91,436.05,53.67,427.75,61.21,422.26Z"/>
  </g>
  <g>
    <path class="cls-3" d="M213.83,24.76A238.14,238.14,0,0,1,382.25,31c2.13.77,4.48.28,6.68.07,11.71-1.93,23.67-2.54,35.1-6,6.15-1.69,13-2,18.85.87a23.6,23.6,0,0,1,10.83,13.33c2.62,7.22,1.82,15.11,0,22.42-3.56,14.06-9.84,27.31-17.06,39.83-1,1.74.16,3.64.61,5.36,11.3,31.29,21.13,63.23,27.46,95.92,2.48,13,3.66,26.47.27,39.37-7.7,15.43-19,28.7-31.05,40.91,3.29-1.17,6.3-3.51,10-3.08,6.33-.45,13.21.44,18,5,4.27,4.15,5.22,10.36,4.82,16.05,8.15.38,17,3.32,21.56,10.49,4,7,3.56,15.4,4.09,23.18,2.35,7.07,4.18,14.83,1.64,22.14-1.29,6.07-7,9.65-9.17,15.25-2.85,6-6.49,11.83-12,15.77-4.51,3.63-10.22,5.29-15.86,6.1-3.63,8.29-11.38,13.62-18.92,18.06-18.61,9.33-38.72,16.73-59.72,17.55-2.54.68-4,3.32-5.65,5.19,9.51,3.79,19.57,8.15,25.79,16.67,3.69,5.72,6.57,13.17,3.48,19.78-2.75,6.76-9.39,10.79-16.07,12.91-8.36,2.89-17.25,3.51-26,4.31-16.06.25-33,.63-47.79-6.61-3.21-1.36-5.72-3.81-8.44-5.9-1.48-.54-3,.19-4.51.35-11.15,2.11-22.48,3.16-33.77,4.17-3.81.08-4.93,4.4-7.37,6.6-8.58,10.41-22.85,15.22-36.05,13a287.12,287.12,0,0,0-41.16-4.43c-12.55-1.23-25.18-.59-37.76-1.38-12.34-.9-24.75.12-37.07-1-16.4-1.14-32.87-4.37-47.85-11.33-11.7-5-23-12.3-30-23.2-5.86-9.39-6.57-20.87-5.84-31.63a54,54,0,0,1,13.37-26.29C46.91,390.22,63.26,387.45,78,389.35c6,.22,11.83,1.74,17.75,2.63a167,167,0,0,1,13.67-42.55c5.08-9.88,12.5-18.41,20.93-25.57-3.62-10-2.52-20.92.62-30.88-13.6-8-26.63-17-38-28-2.11-2.19-3.9-4.92-4.14-8-5.49-52,7.68-104.61,30.67-151.1-9.74-14.41-18-31.07-17.3-48.89-.29-10.57,2.93-22.46,12.15-28.65,7.42-5.27,17.55-5.11,25.51-1.13a83.19,83.19,0,0,0,44.1,9.4C193.77,32.36,203.51,27.74,213.83,24.76Zm-2,12.92c-3.47.45-6.55,2.44-9.85,3.53-5.76,2-10.64,6.63-17,6.59-5.34.14-10.69,0-16-.16-7.53-.35-14.74-2.88-22.22-3.6,2.64,4.47,7.37,6.84,11.29,10,4.18,3.33,8.68,6.44,13.83,8,3.39,1,7.14.11,10.41,1.64,2.67,1.27,2.58,4.73,2,7.2-1.43,3.52-5.77,3.08-8.87,3.37-3.36-1.37-7-1.8-10.35-3.26a76.57,76.57,0,0,1-14.48-8.71c-7.7-6-14.51-13.22-23.25-17.74-3-1.71-6.57-1.79-9.87-1.29-2.31,1.48-2.87,4.6-3.19,7.14a95.77,95.77,0,0,0,.24,16.85c1.82,7.86,4.39,15.65,8.63,22.56,2.7,5,6.43,9.31,9.66,14a80.63,80.63,0,0,0-3,8.14,19.93,19.93,0,0,0-3.44,5.48c-6,14.29-12.7,28.38-16.46,43.48a248.36,248.36,0,0,0-9.33,42.45c-.83,9.14-.47,18.34-.6,27.51l-.1.86-1.15-.07c-.35,6.73.32,13.45.68,20.17a10.16,10.16,0,0,0,3.62,7.08A194.23,194.23,0,0,0,137,283.1c10.07,5.44,20.1,11.24,31,14.85,3.52,2,7.71,2.65,11,5.07,2.55,2.26,1.75,6.26-.75,8.21-3.18,1.22-6.61.1-9.62-1.07-6.94-2.74-13.73-5.84-20.4-9.17a17.9,17.9,0,0,0-5.72-1.84c-3.13,3.94-2,9.2-2.21,13.85-.05,8.64,5.07,16.12,11.17,21.77,0,2.17.19,4.6-1.29,6.4-1.67,1.29-3.85,2.39-6,2-3.21-1.31-5.11-4.66-8.26-5.94-3.12.2-5.35,3.25-6.77,5.79-5.27,2.86-8.33,8.37-10.14,13.9-2,6.07-5.41,11.58-7.19,17.75-3.77,12-6.66,24.62-6.38,37.33,5.48-1.11,10.59-3.48,15.59-5.92,5.83-2.29,12.22-3.1,17.65-6.38,5.68-1.25,11.19-3.25,17-4,10.34-2,20.93-1.44,31.41-1.51,14.11-.14,28,2.92,41.54,6.77,0-5.13-.53-11.1,3.34-15.1,2.17-2.38,5.89-.92,7.7,1.2.4,5.65-.55,11.34.16,17,.93,4.5,4.85,7.26,7.82,10.4,6.19,6.16,10.53,13.85,14.32,21.64,1.83,4,5.93,6.09,9,9,5.39,5.05,12.09,8.39,18.95,11,5.12,1.88,9.91,4.53,15.06,6.35a23.18,23.18,0,0,1,5.27,2.39c2.59,2.35,4.28,5.8,7.65,7.21,10.7,5,22.7,4.61,34.2,5.17,6.73-1,13.68.08,20.28-1.82,1.79-3.32.61-6.73-.94-9.86l-.68.35c-1.74-2.08-5-3.68-4.45-6.85-.4-3.2,2.92-5.16,5.78-4.67,5.53-.49,7.94,5.38,10.15,9.37,1.09,3,1.64,6.1,2.57,9.13,2.44-1.65,5.32-3.1,6.72-5.84.89-3.66-1-7-2.75-10-2.91-2.32-5.72-4.81-9.05-6.52-6.78-3.78-14.69-5.32-20.84-10.23-7.78-6.55-14.24-14.46-20.39-22.51-4.1-5.46-7-11.65-10.44-17.54-3.42-6.42-5.11-13.55-7.41-20.41-.63-2.3-1.9-5.12-.18-7.25,1.3-2,4-3.89,6.41-2.44,2.68,1.13,3.53,4.12,4.22,6.67,1.74,6.65,3.7,13.43,7.62,19.15,4.43,13,14.32,23.16,23.52,33a77.38,77.38,0,0,0,9-10.27c5.2-8.92,8.18-18.91,10.5-28.91,1.4-5.63.76-11.53,2-17.19,1.85-4,8.31-3.77,9.55.6,1.21,7.37-.25,14.93-2,22.13-.63,3-2.12,5.93-1.63,9.07l-.87.09c-1.18,4.53-3.44,8.69-4.61,13.24,9.86-.73,19.39-3.67,28.71-6.84a101.8,101.8,0,0,0,25.43-12.46,24.41,24.41,0,0,0,8.94-10.49,39.17,39.17,0,0,0-5.38-5c-2.93-4.13-3.69-9.13-3.74-14.07.84-2.79,2.66-5.11,3.78-7.77-.29-2.87-2-5.4-2.39-8.25-1.76-6.52.75-13.34,4.64-18.59,2.79-.22,1-3.18.38-4.68-2.21-4.12-2.13-8.82-2.08-13.35,1.79-5.65,6.47-9.4,11.38-12.31,1.35-3.16,1-6.63.77-9.95-5.77-4.58-14.31-2.35-19,2.68-6.25,7.07-9.31,16.15-13.85,24.27-2.46,4.57-6.51,8.64-11.73,9.74-5.67.64-11.39.13-17.06-.3-3.66-.32-7.81-3.23-7.59-7.23.1-3.65.54-7.29.4-10.94-4.13.66-10,3.67-13.11-.63-.46-2.39-1-5.79,1.52-7.24,5.31-3.27,11.57-4.46,17.21-7,26.48-11,47.53-32.41,61.8-56.94,1.64-2.4,1.63-5.35,1.55-8.14a193.82,193.82,0,0,0-.33-22c-1.24-7.75-3-15.42-4.77-23.07-1-7.52-4.32-14.46-5.86-21.86-5.25-19.16-11.56-38-18.24-56.72a20.72,20.72,0,0,1-1-8.6c3.25-7.12,7.88-13.54,10.71-20.87,3-7.48,6.78-14.85,7.63-23,.8-4.27,1.09-8.73-.22-12.94-8-.15-13.56,6.7-20,10.49-11.39,8.11-24.33,16.27-38.95,15-2.82-.71-6.7,0-8.19-3.18-1.92-2.45-.83-6,1.61-7.61,5.85-.77,11.95,1,17.63-1.17,7.43-2.09,13.61-6.85,20.08-10.83,3.35-2.3,7.21-4.16,9.53-7.65-6.88.25-13.59,1.92-20.35,3A121,121,0,0,1,381,42.53c-3.54-.45-6.72-2.22-10-3.47-5.22-2.59-10.89-4.06-16.42-5.81A235.12,235.12,0,0,0,308,24.56q-19-.73-38,.05C250.23,26.69,230.41,30.39,211.84,37.68Zm186,269.43c-.7,4-.43,8.05-.46,12.07,3.69-.1,7.7,1.17,11.19-.45,4.23-3,5.08-8.56,7.4-12.91,2.69-4.86,4.38-10.31,8.1-14.56C416,297.61,407,302.6,397.86,307.11Zm56.67,9.33c-1.76,1.56-.94,4.24-1,6.31.28,3.66,4.14,5.44,7.38,5.63,6.51.26,13,.14,19.53.14,0-4.49-.22-9.87-4.13-12.83C469.81,311.14,460.88,312.12,454.53,316.44Zm-.86,24.37c-4.22,2.69-3.51,8.38-2.88,12.62,4.27,6.16,12.47,6.32,19.2,7,3.09-.13,6.58.75,9.27-1.21A13.79,13.79,0,0,0,483.53,348c0-3,0-7.22-3.62-8.08-3.88-.85-8-.14-11.91-.38C463.22,339.69,458.13,338.68,453.67,340.81Zm-4.06,27.66a26.84,26.84,0,0,0,0,6c2.33,3.81,7.24,4.09,11.17,5,5.34,1.37,9.08-3.8,11.37-7.85-3.37-.18-6.71-.69-10-1.06C457.87,370.2,453.91,368.21,449.61,368.47ZM55.72,402.09h.88c-7,1.49-13.74,6.27-16.63,12.92l-1,1.08c-5.1,8.57-5.32,19-4.35,28.62A27.63,27.63,0,0,0,46.1,460.85c7.22,7.54,17.4,11.3,27,14.85,12.7,4,26,5.71,39.3,6.48,13,1.21,26,.87,39,1.09,14.62.61,29.29-.22,43.86,1.5,9.54,1.21,19.18,2.1,28.67,3.89,15.11,3.3,30.43-9,32.8-23.79l.56-.41a38.3,38.3,0,0,0-1.58-14.4c-4-13.22-11.35-25.86-22.53-34.23-6.62-5-14.91-6.79-22.86-8.49a34.44,34.44,0,0,0-9.16-1,12.57,12.57,0,0,0-4.14-.88c-10.35-.43-20.72-.5-31.07-.11a60.53,60.53,0,0,0-18.43,3.24c-7.53,1.47-14.38,5.13-21.72,7.28-3.77,1.64-8.44,2.3-11.12,5.67-4.1-.52-7.73,1.61-11.49,2.84-6.11,2.23-12.72,1.06-19.07,1.44-4.76-.19-8.93-2.65-12.38-5.76a13.71,13.71,0,0,1,.17-8.77,25.12,25.12,0,0,0,4.28-4.58c2.13-.17,4.71-1.12,6.49.56,2.47,1.66,2.54,4.89,2.72,7.56l2.74.72c2.09,0,4.17.05,6.25.11a98,98,0,0,0,.23-12c-1.14-.31-2.26-.64-3.38-1A113.47,113.47,0,0,0,75,401.17,50.47,50.47,0,0,0,55.72,402.09Zm212.47,54.85c-.51,3.89-.62,7.81-.83,11.72,6.31-.31,12.59-1.06,18.85-1.91C280.26,463.38,273.9,460.76,268.19,456.94Z"/>
    <path class="cls-3" d="M169.67,122.7c3-2.43,9.19-1.31,8.9,3.31.79,4.1-3.28,6.33-5.61,8.94-2.6,2.27-5,6.14-8.94,5.41-4.48-.15-5.72-6.5-3-9.37A59.94,59.94,0,0,1,169.67,122.7Z"/>
    <path class="cls-3" d="M400.23,122.87c3.33-1.55,5.65,2.14,7.84,4,2.7,3.15,6.82,5.77,7.56,10.09.82,4.12-4.9,7.26-7.94,4.4-4-3.43-7.93-7.21-10.44-11.89C395.38,126.86,398.11,124.25,400.23,122.87Z"/>
    <path class="cls-3" d="M370.44,162.71a59.41,59.41,0,0,1,13.33-.07c8.08,1.85,15.8,6.11,21,12.64,3.23,3.85,3.44,9.09,4.41,13.8,1,4.21-.71,8.56-3.35,11.82-2.79,3.24-7.37,3.23-11.21,4.19-6.83,1.73-13.76,3.73-19.64,7.74-3.17,2.43-7.31,1.86-11,1.88-4.82.09-9.16-2.86-12.2-6.38-4-5.45-3.63-12.69-3.26-19.09,1.34-8,4.56-16.42,11.38-21.33A28.11,28.11,0,0,1,370.44,162.71Zm22.17,13.93c-5,3.61-3.78,11-.67,15.47,1.29,2.46,5,4.42,7.19,2,3.29-2.26,2.57-6.56,2.39-10C401.13,179.72,397.52,174.76,392.61,176.64Zm-36.13,13.59c-3.12,2-4.26,6.89-.88,9.24,4,3.1,9.37-3,7.09-6.94C362.12,189.9,358.53,188.45,356.48,190.23Z"/>
    <path class="cls-3" d="M216.52,187c-.3-3.06,2.77-5,5.48-5.32a13.83,13.83,0,0,1,6.44,3.9c4.82,4.9,9.23,10.58,10.89,17.38.37,3.85-2.25,8.37-6.43,8.65-3.85.78-7.05-1.82-10.34-3.29-15.31-7.19-32.73-11-49.57-8-2.16.14-4.62.53-6.49-.85-3.64-2.19-2.73-8.21,1-9.83,6.71-3.07,14.3-2.17,21.47-2.4,11.33-.38,22.13,3.42,32.8,6.67C219.73,192,216.24,190.32,216.52,187Z"/>
    <path class="cls-3" d="M282,210.05c3.36-2.75,8-1.58,12-1.85,4.45.3,9.29-.56,13.41,1.51,3.63,2.1,2.23,7.12.39,10-1.6,3.72-5.09,6-7.32,9.24,1.9,10.89,9.08,22,20.55,24.28a27.78,27.78,0,0,0,16.13-10.15c1.1-1.9,3.32-1.75,5.23-1.86,1.11,1.94,2.27,3.86,3.44,5.78-4.28,9-13.85,13.64-23,16.26-3,.76-5.95-.49-8.7-1.53A34.67,34.67,0,0,1,296,245.9c-.2-.66-1.32-2.07-1.83-.89-5.51,9.43-15.61,15.43-26.18,17.38-2.67.37-5.17-.89-7.61-1.77-6.86-2.78-13.7-6.69-17.76-13.09-1.69-2.15-1.68-5.24-.72-7.69,2.33-2.37,6.88-2.35,8.75.6,4.3,5.43,10.14,10.55,17.31,11.13,7.53-1,14.13-6.12,18-12.53,2.22-3.45,3.35-7.41,4.76-11.22-3.29-3.5-7.12-6.53-10-10.43C280.05,215,279.6,211.61,282,210.05Z"/>
    <path class="cls-3" d="M277.61,271.61c3.7-1.43,6.77,1.09,9.39,3.35,3.83,3.05,9.2,3,13,6,3.43,2.93.46,9.29-4,8.63-7.54-1.13-15.17-4.45-20.17-10.4C274.56,276.73,274.9,273,277.61,271.61Z"/>
  </g>
  <g>
    <path class="cls-4" d="M202,41.21c3.3-1.09,6.38-3.08,9.85-3.53,11.58,3.92,21.92,10.63,32.21,17.09,6.44,3.73,12.08,8.64,17.89,13.25,4.09,3.28,7.39,8,7.81,13.31.28,4.23.61,8.63-.6,12.75-2.39,6.36-7.94,10.69-12.59,15.37s-10.51,7.72-16,11.2-11.68,4.85-17.41,7.53c-8.07,3.69-16.88,5.33-24.94,9-5.86,2.58-11.21,6.14-16.81,9.23-8.14,4.53-15.32,10.54-22.24,16.72-5.43,4.81-9.14,11.18-12.25,17.64-3.22,6.86-3.91,14.53-6.57,21.57-3,6.87-6.69,13.57-12.08,18.85A36.3,36.3,0,0,1,107,232c-2.36,0-4.72-.13-7.07-.27l.1-.86c2.83,0,5.66.07,8.5.14a173.6,173.6,0,0,1,3.16-39.46c2.18-13.62,4-27.41,8.33-40.56,3.45-13,6.15-26.13,9.84-39a80.63,80.63,0,0,1,3-8.14c3.57-3.8,5.49-9,10.06-11.89,10-7.12,20.31-14.83,32.55-17.62,3.1-.29,7.44.15,8.87-3.37.54-2.47.63-5.93-2-7.2-3.27-1.53-7-.6-10.41-1.64-5.15-1.59-9.65-4.7-13.83-8-3.92-3.15-8.65-5.52-11.29-10,7.48.72,14.69,3.25,22.22,3.6,5.34.18,10.69.3,16,.16C191.35,47.84,196.23,43.17,202,41.21ZM169.67,122.7A59.94,59.94,0,0,0,161,131c-2.73,2.87-1.49,9.22,3,9.37,4,.73,6.34-3.14,8.94-5.41,2.33-2.61,6.4-4.84,5.61-8.94C178.86,121.39,172.64,120.27,169.67,122.7Z"/>
    <path class="cls-4" d="M404,41.1c6.76-1.07,13.47-2.74,20.35-3-2.32,3.49-6.18,5.35-9.53,7.65-6.47,4-12.65,8.74-20.08,10.83-5.68,2.14-11.78.4-17.63,1.17-2.44,1.63-3.53,5.16-1.61,7.61,1.49,3.14,5.37,2.47,8.19,3.18,4.87,1.7,9.19,4.59,13.94,6.55,5,2.07,10,4.55,13.93,8.38,3.72,3.61,7.75,7,10.63,11.4,1.84,2.56,1.39,5.82,1.3,8.77.34-1.25.64-2.52,1-3.76a20.72,20.72,0,0,0,1,8.6c6.68,18.71,13,37.56,18.24,56.72,1.54,7.4,4.81,14.34,5.86,21.86,1.79,7.65,3.53,15.32,4.77,23.07a193.82,193.82,0,0,1,.33,22c-4-1.85-8-3.56-11.63-6.07-5-3.63-7.58-9.61-8.67-15.52-1.46-7.85-2.27-15.84-4.45-23.54a74.7,74.7,0,0,0-10.43-21.49,38,38,0,0,0-11.08-10.88c-7.72-5-15.26-10.39-23.63-14.32a230.45,230.45,0,0,1-28.08-14.89C349,120.46,340.6,116.46,334,110c-3.9-3.84-8.88-7.44-9.77-13.24-1.22-6.53-2.07-14.45,2.57-19.88,6.05-7,13.35-12.78,20.93-18.05a186.33,186.33,0,0,0,23.17-19.73c3.29,1.25,6.47,3,10,3.47A121,121,0,0,0,404,41.1Zm-3.77,81.77c-2.12,1.38-4.85,4-3,6.64,2.51,4.68,6.45,8.46,10.44,11.89,3,2.86,8.76-.28,7.94-4.4-.74-4.32-4.86-6.94-7.56-10.09C405.88,125,403.56,121.32,400.23,122.87Z"/>
    <path class="cls-4" d="M151.42,334.77c.69,6.73,2.55,14.77-2.15,20.49-6.27,6.51-14.77,10.48-20.73,17.34a10.2,10.2,0,0,0-1.24,12c3.26,5.39,7.61,10,11.32,15.06-5.43,3.28-11.82,4.09-17.65,6.38-1.68-1.32-3.93-2.59-3.61-5.08-.26-11.64-.56-23.55,2.94-34.8,1.93-8.09,5.71-15.51,8.79-23.18,1.42-2.54,3.65-5.59,6.77-5.79,3.15,1.28,5,4.63,8.26,5.94,2.16.4,4.34-.7,6-2C151.61,339.37,151.37,336.94,151.42,334.77Z"/>
    <path class="cls-4" d="M55.72,402.09A50.47,50.47,0,0,1,75,401.17a113.47,113.47,0,0,1,16.25,1.48,19.73,19.73,0,0,1-3.1,12.87l-2.74-.72c-.18-2.67-.25-5.9-2.72-7.56-1.78-1.68-4.36-.73-6.49-.56-2.64-1.78-5.21-4.1-8.52-4.37a107.77,107.77,0,0,0-11.08-.22Z"/>
    <path class="cls-4" d="M147.53,408.56A60.53,60.53,0,0,1,166,405.32c10.35-.39,20.72-.32,31.07.11a12.57,12.57,0,0,1,4.14.88c-4.81,1-9.8,2-13.86,4.95-4.81,3.39-9.93,6.76-13.09,11.85-5,9-7.58,19.65-5.41,29.87a73.19,73.19,0,0,0,5.14,13.8c-12.38-.08-24.77-.49-37.13.31-2.65-4.4-5.52-8.89-6-14.14-.94-10-.15-20.51,4.62-29.53C138.07,417.47,142.77,412.83,147.53,408.56Z"/>
    <path class="cls-4" d="M40,415a42.35,42.35,0,0,1,21-7.26c4-.54,7.74,1.26,10.91,3.51a13.71,13.71,0,0,0-.17,8.77c-3.55.33-7.51,0-10.54,2.23-7.54,5.49-12.3,13.79-15.59,22.35C39,436.83,38,425.88,39,416.09Z"/>
    <path class="cls-4" d="M103.2,424.35c3.76-1.23,7.39-3.36,11.49-2.84-5.44,8.76-11.36,17.85-12.31,28.39-.32,5.7.82,11.38.25,17.08a49.56,49.56,0,0,0-11.43-1.62c-7.37-.3-14.51-2.39-21.83-3.16a127.65,127.65,0,0,1,3.47-19.5c2.21-6.51,6.81-11.83,11.29-16.91C90.48,425.41,97.09,426.58,103.2,424.35Z"/>
  </g>
  <g>
    <path class="cls-5" d="M129.89,111.92c-3.69,12.91-6.39,26.07-9.84,39-4.32,13.15-6.15,26.94-8.33,40.56A173.6,173.6,0,0,0,108.56,231c-2.84-.07-5.67-.11-8.5-.14.13-9.17-.23-18.37.6-27.51A248.36,248.36,0,0,1,110,160.88c3.76-15.1,10.46-29.19,16.46-43.48A19.93,19.93,0,0,1,129.89,111.92Z"/>
    <path class="cls-5" d="M119,356.91c1.81-5.53,4.87-11,10.14-13.9-3.08,7.67-6.86,15.09-8.79,23.18-3.5,11.25-3.2,23.16-2.94,34.8-.32,2.49,1.93,3.76,3.61,5.08-5,2.44-10.11,4.81-15.59,5.92-.28-12.71,2.61-25.28,6.38-37.33C113.54,368.49,116.94,363,119,356.91Z"/>
    <path class="cls-5" d="M34.65,444.71c-1-9.65-.75-20,4.35-28.62-1,9.79,0,20.74,6.62,28.52l-.25.68a36.19,36.19,0,0,0,.73,15.56A27.63,27.63,0,0,1,34.65,444.71Z"/>
    <path class="cls-5" d="M69.37,462.2c7.32.77,14.46,2.86,21.83,3.16A49.56,49.56,0,0,1,102.63,467c1.32,6.14,5.69,10.72,9.77,15.2-13.26-.77-26.6-2.46-39.3-6.48A40,40,0,0,1,69.37,462.2Z"/>
    <path class="cls-5" d="M136.82,467.09c12.36-.8,24.75-.39,37.13-.31l.78,1.46c4.17,8.12,11.93,13.81,20.54,16.53-14.57-1.72-29.24-.89-43.86-1.5C146.77,477.66,140.57,473.44,136.82,467.09Z"/>
  </g>
  <g>
    <path class="cls-6" d="M98.81,231.63l1.15.07c2.35.14,4.71.28,7.07.27,1.18,6.55.1,13.26,1.06,19.81,1.63,3,4.62,4.84,7.08,7.06,10.45,8.56,20.51,17.59,31.41,25.59,6.87,4.89,14.1,9.26,21.38,13.52-10.91-3.61-20.94-9.41-31-14.85a194.23,194.23,0,0,1-33.84-24.22,10.16,10.16,0,0,1-3.62-7.08C99.13,245.08,98.46,238.36,98.81,231.63Z"/>
    <path class="cls-6" d="M260.13,310.77c7.58,1.12,15.18,2.35,22.87,2.49,7,0,14,1.42,21,1.13,5,0,10.19-.69,15.12.57,3.47.88,5.51,5.43,3.29,8.42-3.23,5.36-9.92,6.49-15.34,8.53a43.25,43.25,0,0,1-24.24,2.1c-10.11-2.44-21-4.64-28.82-12-2-1.81-2.2-4.9-1.27-7.28A9.15,9.15,0,0,1,260.13,310.77Z"/>
    <path class="cls-6" d="M441.83,382.84a39.17,39.17,0,0,1,5.38,5,24.41,24.41,0,0,1-8.94,10.49,101.8,101.8,0,0,1-25.43,12.46c-9.32,3.17-18.85,6.11-28.71,6.84,1.17-4.55,3.43-8.71,4.61-13.24l.87-.09c6.33-.61,12.76-.83,18.92-2.55,7.41-2,14.1-5.87,20.93-9.23A42.76,42.76,0,0,0,441.83,382.84Z"/>
    <path class="cls-6" d="M239.58,387.05c2.2,5.12,2.9,10.78,5.51,15.75A99.78,99.78,0,0,0,261,426c10.08,9.21,22.14,16,34.65,21.35,8.27,3.49,18.47,3.15,25.08,9.91a44.25,44.25,0,0,0,16.81,10.28c10.73,3.28,23.11,4.4,33.1-1.69l.68-.35c1.55,3.13,2.73,6.54.94,9.86-6.6,1.9-13.55.86-20.28,1.82-11.5-.56-23.5-.21-34.2-5.17-3.37-1.41-5.06-4.86-7.65-7.21a23.18,23.18,0,0,0-5.27-2.39c-5.15-1.82-9.94-4.47-15.06-6.35-6.86-2.57-13.56-5.91-18.95-11-3.06-2.93-7.16-5-9-9-3.79-7.79-8.13-15.48-14.32-21.64-3-3.14-6.89-5.9-7.82-10.4C239,398.39,240,392.7,239.58,387.05Z"/>
    <path class="cls-6" d="M338.62,395.87c10.69,7.79,19.8,18.17,32.55,22.73a77.38,77.38,0,0,1-9,10.27C352.94,419,343.05,408.88,338.62,395.87Z"/>
    <path class="cls-6" d="M45.37,445.29c4.92,8.91,14.35,14.48,24,16.91a40,40,0,0,0,3.73,13.5c-9.6-3.55-19.78-7.31-27-14.85A36.19,36.19,0,0,1,45.37,445.29Z"/>
    <path class="cls-6" d="M268.19,456.94c5.71,3.82,12.07,6.44,18,9.81-6.26.85-12.54,1.6-18.85,1.91C267.57,464.75,267.68,460.83,268.19,456.94Z"/>
    <path class="cls-6" d="M388.68,457c1.78,3,3.64,6.37,2.75,10-1.4,2.74-4.28,4.19-6.72,5.84-.93-3-1.48-6.16-2.57-9.13,1.56-.14,3.5.46,4.67-.93C388.35,461.25,388.27,458.92,388.68,457Z"/>
    <path class="cls-6" d="M242,472.18c5.74-.39,10.38-4,14.79-7.31-2.37,14.82-17.69,27.09-32.8,23.79-9.49-1.79-19.13-2.68-28.67-3.89-8.61-2.72-16.37-8.41-20.54-16.53C197.2,468.51,219.44,474.68,242,472.18Z"/>
    <path class="cls-6" d="M102.63,467c11.39.52,22.8.46,34.19.11,3.75,6.35,10,10.57,14.59,16.18-13-.22-26,.12-39-1.09C108.32,477.7,104,473.12,102.63,467Z"/>
  </g>
</svg>
