<svg id="Layer_1" data-name="Layer 1" xmlns="http://www.w3.org/2000/svg" viewBox="0 0 501.47 502.27">
  <defs>
    <style>
      .cls-1 {
        fill: #fbfcfd;
      }

      .cls-2 {
        fill: #0a1f2e;
      }

      .cls-3 {
        fill: #f7efed;
      }

      .cls-4 {
        fill: #ee4a22;
      }

      .cls-5 {
        fill: #b84025;
      }

      .cls-6 {
        fill: #091f2d;
      }

      .cls-7 {
        fill: #0b1e2c;
      }

      .cls-8 {
        fill: #0a1e2c;
      }

      .cls-9 {
        fill: #0a1f2d;
      }

      .cls-10 {
        fill: #c0bcbd;
      }

      .cls-11 {
        fill: #feffff;
      }

      .cls-12 {
        fill: #0b1f2d;
      }

      .cls-13 {
        fill: #c1bdbe;
      }

      .cls-14 {
        fill: #bfbdbe;
      }

      .cls-15 {
        fill: #c1bdbc;
      }

      .cls-16 {
        fill: #b84029;
      }

      .cls-17 {
        fill: #ea4b24;
      }

      .cls-18 {
        fill: #e84b26;
      }

      .cls-19 {
        fill: #f9eded;
      }

      .cls-20 {
        fill: #ec4a22;
      }

      .cls-21 {
        fill: #c0bdbe;
      }

      .cls-22 {
        fill: #f7eeed;
      }

      .cls-23 {
        fill: #c1bdbd;
      }

      .cls-24 {
        fill: #c0bdbd;
      }

      .cls-25 {
        fill: #c0bdbf;
      }

      .cls-26 {
        fill: #bebebf;
      }

      .cls-27 {
        fill: #bebdbe;
      }
    </style>
  </defs>
  <path class="cls-1" d="M202.35,19.1A317,317,0,0,1,278,5.43c17.37-.11,34.81-.77,52.11,1.11A360.61,360.61,0,0,1,420.94,28c2.11,1.15,4.31,0,6.31-.81,8.47-3.63,17.49-6.75,26.81-6.55,7.52.68,15.82,3.69,19.56,10.74,5,9,3.52,19.72,3.7,29.62q-1.27,26.6-4.11,53.1c-.63,3.39-.81,7,.75,10.13,4.47,10.27,7,21.21,9.63,32.06,3.87,16.77,6.84,33.73,9.05,50.79,3.53,13.65,9.33,26.79,11.11,40.87.13,5.56-2.25,10.74-4.25,15.8-6.29,15.37-17.23,28.26-29.11,39.63-6.83,6.93-14.68,12.7-22.33,18.66-8.46,6.23-16.89,12.58-26.08,17.71,2.14,6.21,5.65,11.79,8.51,17.66,6.43,12.81,10.88,26.47,16,39.83,4.17,10.73,6.69,22,10.46,32.87,5.58,4.61,12.09,8.48,16.06,14.77,5.94,10.11,8.61,22.9,4.19,34.11a31,31,0,0,1-18.71,18.65c-13.68,5.84-28.89,5.39-43.45,4.9-12-.61-24.52-5.64-31.12-16.21-12.46,2-25.27,3.45-37.8,1.31-5-.72-9.9-3.85-15.05-2.09-20.66,4.91-42,3.7-63.07,4-12.83-.17-25.62,1.05-38.46.89-3,3.58-6,7.36-9.91,10-7.89,5-17.35,7.06-26.62,7-6.36.08-12.65-1.14-19-1-10-.33-20.5,1.24-30.08-2.6a34,34,0,0,1-16.36-13.4c-13.23.14-26.91.15-39.48-4.55-3.8-1.21-6.87-4.63-11.06-4.45-12.81,0-25.75-1.5-37.92-5.63-12-4.26-23.37-11.77-30-22.85-6-9.36-8.59-21.28-5.46-32.11A39.42,39.42,0,0,1,14.4,403.44c8.44-7,19-10.73,29.53-13.16,2.73-.7,5.59-1.1,8.15-2.32,1.85-2.22,2.88-5,4.27-7.46,4.28-8.33,11-15.12,18.06-21.09,9.84-6.78,21.18-11.74,33.14-13,2.55-.59,5.75-.13,7.61-2.34,3-3.32,6.26-6.54,8.54-10.43.15-3.9-1.22-7.7-.89-11.6a67.17,67.17,0,0,1,1.9-9,270,270,0,0,1-35.34-32.42c-3.9-4.71-9-9.16-9.75-15.59-.65-7.69.5-15.36,1.22-23,4.5-41.16,17.13-80.89,31.67-119.48,1.75-4.88,4.19-9.49,5.86-14.39,1.16-2.78-.45-5.54-1.42-8.09-8.12-20.13-14.7-41.74-12.28-63.7,1.07-6.85,4.26-13.62,10.07-17.68,8.39-6.5,20-4.8,29.44-1.82,13,4.45,26.65,8.72,40.61,7.7C190.77,23.23,196.44,20.77,202.35,19.1Zm52.12-6.45c-22.09,3.26-44.07,8-65,15.87a20.82,20.82,0,0,1-5.39,1.2c-9.5.54-19-1.31-28.05-4-7.35-2.13-14.47-5.25-22.11-6.24-5.3-.47-11.22-.65-15.72,2.66-6.48,4.68-9.31,13-8.93,20.8-1,21.25,6.68,41.6,14.86,60.82,1.19,2.41-.29,4.88-1.19,7.1-4.89,10.49-8.6,21.47-12.74,32.26C97.66,178.65,87.86,215.38,84.88,253a65.57,65.57,0,0,0-.29,11c.41,3.9,3.1,7,5.52,9.87,12.25,13.86,25.73,26.74,40.8,37.52-1.27,3.79-3,7.52-3.23,11.55-.09,4.06,1.23,7.95,2.2,11.83-4.65,4.73-8.49,10.17-13,15-3.14,1.67-7,1.12-10.51,1.76-8.32,1-16.16,4.32-23.48,8.28-11.52,6.63-20.09,17.52-25.66,29.44-1.38,3.87-5.81,4.13-9.21,5.05-10.65,2.32-21.49,5.62-30,12.7A30.66,30.66,0,0,0,7.39,432c.33,14.22,10,26.72,21.9,33.7,13.4,8.11,29.31,10.42,44.71,10.7,3.1.11,6.53-.51,9.25,1.38a38.92,38.92,0,0,0,12.28,5.46c11.46,2.55,23.28,2.32,34.94,2.2,4.25,7.74,11.58,14.09,20.52,15.39,10.92,1.61,22-.08,33,1.15,11.45,1.16,24.08.73,33.79-6.21,3.95-2.67,6-7.23,9.67-10.16,5.83-.64,11.71-.05,17.55-.41,13.65-.93,27.34-.51,41-.77,14.14.09,28.4-.26,42.26-3.3,3.68-.77,7.56-2.27,11.19-.47,8.76,3.52,18.34,3.16,27.59,2.83,6.38-.17,12.55-2,18.86-2.78,3.49,3.95,6.08,8.89,10.84,11.56,11.1,6.85,24.71,5.47,37.16,5.41,12.36-.68,26.33-3,34.69-13.09,9.35-12.24,6.67-30.71-3.61-41.56-3.08-3.38-7.08-5.64-10.76-8.26-2.16-1.46-2.55-4.23-3.34-6.52a456.53,456.53,0,0,0-19.29-55.93c-4.81-11.73-10.93-22.83-16.8-34,19.2-11.34,37.49-24.42,53.67-39.81,12.64-12.33,23.82-26.83,29.21-43.85a20.9,20.9,0,0,0,.51-9.66c-1.29-8.18-3.86-16.08-6.42-23.93-1.51-4.67-3.74-9.15-4.36-14.06-1.95-14.4-3.85-28.83-7.21-43-3.05-12.64-5.56-25.51-10.69-37.52-1.1-2.68-2.2-5.5-1.78-8.45,2.39-20.93,4.13-42,4.68-63,0-7.12.56-14.82-3.22-21.18C465.55,27.64,457.84,25,451,25.63a64.69,64.69,0,0,0-21.38,5.92c-2.79,1.18-5.84,3.06-8.93,1.76-9-3.08-17.69-6.85-26.87-9.27A352.06,352.06,0,0,0,317,10.48C296.17,10.2,275.19,9.55,254.47,12.65Z" transform="translate(-2.28 -5.23)"/>
  <g>
    <path class="cls-2" d="M254.47,12.65c20.72-3.1,41.7-2.45,62.57-2.17A352.06,352.06,0,0,1,393.79,24c9.18,2.42,17.91,6.19,26.87,9.27,3.09,1.3,6.14-.58,8.93-1.76A64.69,64.69,0,0,1,451,25.63c6.87-.65,14.58,2,18.21,8.19C473,40.18,472.35,47.88,472.4,55c-.55,21-2.29,42.08-4.68,63-.42,2.95.68,5.77,1.78,8.45,5.13,12,7.64,24.88,10.69,37.52,3.36,14.15,5.26,28.58,7.21,43,.62,4.91,2.85,9.39,4.36,14.06,2.56,7.85,5.13,15.75,6.42,23.93a20.9,20.9,0,0,1-.51,9.66c-5.39,17-16.57,31.52-29.21,43.85-16.18,15.39-34.47,28.47-53.67,39.81,5.87,11.21,12,22.31,16.8,34a456.53,456.53,0,0,1,19.29,55.93c.79,2.29,1.18,5.06,3.34,6.52,3.68,2.62,7.68,4.88,10.76,8.26,10.28,10.85,13,29.32,3.61,41.56-8.36,10.07-22.33,12.41-34.69,13.09-12.45.06-26.06,1.44-37.16-5.41-4.76-2.67-7.35-7.61-10.84-11.56-6.31.77-12.48,2.61-18.86,2.78-9.25.33-18.83.69-27.59-2.83-3.63-1.8-7.51-.3-11.19.47-13.86,3-28.12,3.39-42.26,3.3-13.66.26-27.35-.16-41,.77-5.84.36-11.72-.23-17.55.41-3.67,2.93-5.72,7.49-9.67,10.16-9.71,6.94-22.34,7.37-33.79,6.21-11-1.23-22.08.46-33-1.15-8.94-1.3-16.27-7.65-20.52-15.39-11.66.12-23.48.35-34.94-2.2a38.92,38.92,0,0,1-12.28-5.46c-2.72-1.89-6.15-1.27-9.25-1.38-15.4-.28-31.31-2.59-44.71-10.7-11.91-7-21.57-19.48-21.9-33.7A30.66,30.66,0,0,1,18,407.06c8.53-7.08,19.37-10.38,30-12.7,3.4-.92,7.83-1.18,9.21-5.05,5.57-11.92,14.14-22.81,25.66-29.44,7.32-4,15.16-7.3,23.48-8.28,3.46-.64,7.37-.09,10.51-1.76,4.47-4.86,8.31-10.3,13-15-1-3.88-2.29-7.77-2.2-11.83.27-4,2-7.76,3.23-11.55-15.07-10.78-28.55-23.66-40.8-37.52-2.42-2.88-5.11-6-5.52-9.87a65.57,65.57,0,0,1,.29-11c3-37.62,12.78-74.35,25.3-109.84,4.14-10.79,7.85-21.77,12.74-32.26.9-2.22,2.38-4.69,1.19-7.1C115.93,84.58,108.28,64.23,109.25,43c-.38-7.77,2.45-16.12,8.93-20.8,4.5-3.31,10.42-3.13,15.72-2.66,7.64,1,14.76,4.11,22.11,6.24,9.09,2.65,18.55,4.5,28.05,4a20.82,20.82,0,0,0,5.39-1.2C210.4,20.68,232.38,15.91,254.47,12.65ZM275,22.82a311.12,311.12,0,0,0-47.16,7c-7.46,1.31-14.5,4.2-21.86,5.89-5,.7-9.38,3.28-13.94,5.21C186.31,43.36,180,42,174,41.75c-6.79-.14-13.2-2.59-19.78-4-9.29-2.17-18.27-7.78-28.12-5.88-3.74.67-4.25,4.95-4.45,8a105.47,105.47,0,0,0,1.06,21.89c2.14,10.64,5.79,20.91,9.69,31,1.4,3.69,3.61,7,5.52,10.41.61,7.62-4.64,13.58-7.4,20.21-4.14,9.54-7.66,19.34-10.93,29.2-3.31,8.55-4.7,17.71-8.47,26.1-3,10.77-5.83,21.65-7.82,32.67a180.91,180.91,0,0,0-5.08,30.74c-.44,5.61-1.11,11.22-1.45,16.84-.46,5.17,4,8.64,7.19,12.05,8,7.63,15.3,16.13,24.17,22.85a217.26,217.26,0,0,0,34,22.84C169.2,320,176.29,323.58,184,325c3.73,2.67,9.18,2.22,12.32,5.76,2.84,3.32-.27,8.63-4.35,8.64a29.58,29.58,0,0,1-7.65-1.57c-11.15-3.44-22.13-7.7-32.18-13.68-3.62-2-7-4.46-10.92-6-2.06,4.47-1,9.82,1.7,13.79,3.64,6.49,11.29,10.12,12.89,17.83q-2.74,1.88-5.44,3.84c-2.31-1-4.56-2-6.76-3.23-1.89-1.93-3.55-4.64-6.39-5.16-2.73,1.89-4.75,4.58-6.79,7.14-5.72,7.67-11.65,15.2-16.54,23.43a97.64,97.64,0,0,0-16,39.16c-.5,6.54-.88,13.33,1.32,19.63,1.13,3.5,3.17,6.67,3.92,10.29-1.47,5-6.64,7.56-9.68,11.53a15.35,15.35,0,0,0-4.43,11.24c11.56,6.49,25.18,4.66,37.87,4.91.32-3.5.64-7,.89-10.51l.63-.06C131,459,132.22,455,135,452c3.64-4.49,8.72-7.56,12.25-12.11.55-4.31-.6-8.6-.66-12.91-.21-9.33-.29-18.67-.41-28,.13-2.71-.25-5.86,1.75-8,2.65-2.66,7.57-1.11,8.76,2.28s.64,6.94,1.11,10.4c-.83,10.63.4,21.26.9,31.87.29,4.29,1.77,9.8-2.39,12.77-7.18,5.51-15.18,11.59-17.46,20.85-1.3,7.11,3.74,13.4,8.51,18.08-1.32-6.59-1.35-14.24,3.25-19.61,1.84-2.09,4.83-.92,7.19-.8a13.6,13.6,0,0,1,1.56,8.17c-.91,2.87-1.79,6.1-.34,9,1.05,2.11,2.29,5,5,5.15,5.7.58,11.45.13,17.16.19,0-4.47.06-8.93.09-13.38.85-2.4,1.95-5,4.27-6.32a10.34,10.34,0,0,1,7.25.92c.31,5.49-1.12,11.09.18,16.5,1,4.88,7,2.89,10.43,2.28,9-1.85,14.64-10.56,15.79-19.22,2.33-7,4.61-13.95,6.59-21,3.55-6.47,4-14.57,9.22-20.08,3.32-3.45,9.29.69,8.39,5-1.21,6.3-4.47,12-6.28,18.12-2,6.77-4.81,13.33-5.92,20.34,26.55.14,53.13.27,79.66-1,8.91-.92,18-2,26.31-5.48,3.84-.58,7.39-2.3,10.87-4,7.27-3.56,14.3-8.16,19.18-14.75.8-1.28,1.9-2.57,1.93-4.15-2.46-5.17-7.58-8.37-10.41-13.26-1.63-3.45,1.15-6.42,3.11-8.94,7.88,2.94,12.84,10,17.84,16.37,5,7.48,10.87,14.66,13.62,23.38,2.13,5.7,2.43,12.08,5.73,17.31,3.27,5,9.54,6.67,15.15,7.38,7.79.58,15.62.17,23.43.11a47.7,47.7,0,0,0-.57-7.84c-1.92-1.73-4.31-3.22-5.29-5.72-1.27-3.94,3.15-8.31,7.07-7.07,3.45,1.12,5.87,4,8.36,6.43a94.33,94.33,0,0,1,2.37,11.77c3.63-1.57,7.61-3.11,9.93-6.52,3.14-4.6,3.07-10.49,1.88-15.72a21.82,21.82,0,0,0-9.77-13.3c-3.37-2.22-7.74-3.55-9.67-7.38-1.95-4-2.48-8.45-3.73-12.66-4.91-17.81-11.57-35.1-18.56-52.19-4.25-10.84-10.28-20.84-15.49-31.22-4.29,1.2-8.42,4.64-13,3.3s-4-8.43.22-10c16.45-8.79,32.54-18.36,47.41-29.67C451.45,298.31,463.82,288,473,275c4.76-6.54,9.59-13.29,12.1-21.06,2.52-9.7-2.27-19-4.66-28.21-1.5-5.93-4.29-11.39-6.55-17,1.26-6.28-.95-12.44-1.47-18.66-.59-6.41-2.46-12.61-3.26-19a85.16,85.16,0,0,0-2.71-13.61C464,149.25,462,141,459,133c-1.44-3.88-3.16-7.77-3.38-12-.23-4.42.61-8.79,1-13.18.76-6.93.9-13.91,1.62-20.85.51-7,1.45-14,1.28-21-.19-9,.55-18-.58-26.93-9.38-2-18.84.67-27.27,4.74-4.6,2.34-10.11,3.83-15,1.28A129.56,129.56,0,0,0,396,37.39c-11.39-4.14-23.38-6.09-35.09-9C332.67,22.61,303.71,21.21,275,22.82ZM91.76,369a43.71,43.71,0,0,0-17.18,14.6C72.51,386.8,70,390,69.36,393.92c-1.75,2.4-3.29,5-5.27,7.2-2.36,2.72-6,3.6-9.29,4.68-12.43,1.47-26.06,5.32-33.68,16.05-1.12,4.24-2.21,8.68-1.23,13.07,1.45,8.16,7.43,14.57,13.93,19.25,7.3,5.15,16.16,7.13,24.74,9l-.4.43c6.45.05,12.9.4,19.35.17,1.18-4.25,2.31-8.69,5-12.25,2.1-2.86,5-5.1,6.8-8.17,1-1.85-.63-3.67-1.46-5.23A79.94,79.94,0,0,1,87,411c.62-4.43,2.45-8.58,3.2-13C93,392.72,94.81,387,97.55,381.6c2.8-5.79,6.48-11.12,9-17.06C101.37,364.74,96,365.74,91.76,369Zm270.37,98.13a30.82,30.82,0,0,0-4.95,4.23,92,92,0,0,0,23.52-1.87,2.08,2.08,0,0,0,2.07-2.37c-.64-4.83-3.46-9-5.74-13.15C372.56,458.84,367.86,463.65,362.13,467.09Z" transform="translate(-2.28 -5.23)"/>
    <path class="cls-2" d="M171.4,105.18a6.19,6.19,0,0,1,8.62,2.74c2.5,5,3.63,11.53,9.15,14.2,4.16,1.48,8.54-.45,12.79-.4,4.52,1.2,5.95,7.44,1.83,10.08-7.6,4.6-18.49,3.59-24.87-2.73-4.49-4.33-7.28-10.1-9.22-15.94C168.87,110.47,168.45,106.7,171.4,105.18Z" transform="translate(-2.28 -5.23)"/>
    <path class="cls-2" d="M157.55,156.75a27.86,27.86,0,0,1,14.4-1.09c6.68,1.88,11.72,7.22,15.58,12.74,2.55,3.25.94,9.26-3.66,9.3-3.62.74-5.57-2.77-7.58-5.08-2.39-2.85-5.23-6.2-9.28-6.26-5.3-.45-9,5.81-14.41,4.06-2.35-1.45-3.86-4.6-2.73-7.26A13.61,13.61,0,0,1,157.55,156.75Z" transform="translate(-2.28 -5.23)"/>
  </g>
  <path class="cls-3" d="M275,22.82c28.71-1.61,57.67-.21,85.88,5.53,11.71,2.95,23.7,4.9,35.09,9A53.87,53.87,0,0,1,385.84,45c-6.69,4.07-12.26,9.62-18.17,14.67a70.71,70.71,0,0,0-14.84,18.19c-5.61,8.94-6.62,19.92-6.22,30.23.44,9,6.63,16.67,14.06,21.31,10.69,6.73,21.43,13.74,33.56,17.63a320.76,320.76,0,0,0,39,12.74c7.56,1.79,14.21,6,20.33,10.64A32.31,32.31,0,0,1,462.9,181c4.6,8.81,7.16,18.48,11,27.61,2.26,5.65,5.05,11.11,6.55,17,2.39,9.19,7.18,18.51,4.66,28.21-2.51,7.77-7.34,14.52-12.1,21.06-9.19,13-21.56,23.35-34.28,32.74-14.87,11.31-31,20.88-47.41,29.67-4.25,1.56-4.86,8.56-.22,10s8.76-2.1,13-3.3c5.21,10.38,11.24,20.38,15.49,31.22,7,17.09,13.65,34.38,18.56,52.19,1.25,4.21,1.78,8.68,3.73,12.66,1.93,3.83,6.3,5.16,9.67,7.38a21.82,21.82,0,0,1,9.77,13.3c0,3.13.38,6.56-1.1,9.44-3.82,2.59-8.79,1.17-13.08,1-2.49-2.47-4.91-5.31-8.36-6.43-3.92-1.24-8.34,3.13-7.07,7.07,1,2.5,3.37,4,5.29,5.72-5.83,3.63-13,1.84-18.82-.8a18.31,18.31,0,0,1-7.91-7.13c-5.13-8.15-9.3-17-15.78-24.24-7-7-15.8-12.09-22.7-19.31a16.32,16.32,0,0,0-10-5.23c-2,2.52-4.74,5.49-3.11,8.94,2.83,4.89,7.95,8.09,10.41,13.26,0,1.58-1.13,2.87-1.93,4.15-4.88,6.59-11.91,11.19-19.18,14.75-3.48,1.67-7,3.39-10.87,4-13.72.6-27.47.33-41.19-.28-11.41-.5-23,.95-34.25-1.57-7.3-1.59-13-7.59-15.3-14.55-2-6.09,0-12.76-2.28-18.79-1.5-4.08-7.53-5.51-10.37-2-4.8,5.68-6.22,13.26-8,20.27-2,7.07-4.26,14.06-6.59,21-1.68,3.63-2.72,8.63-7,10-6,1.95-12.36,2.09-18.59,2.51.4-4,.72-8.21-.79-12.06a10.34,10.34,0,0,0-7.25-.92c-2.32,1.32-3.42,3.92-4.27,6.32-.66,1.91-1.25,3.85-1.84,5.79-5.3-.32-10.79-.39-15.79-2.38-2-.72-3.23-2.59-4.27-4.34a13.6,13.6,0,0,0-1.56-8.17c-.65-1.82-2-3.9-.94-5.82,3.21-5.71,10.44-8.79,11.49-15.76,1.31-8.32-3.73-15.73-6.39-23.25-2.31-5.86-3.37-12.11-4.16-18.33-.47-3.46,0-7.06-1.11-10.4S150.6,388.33,148,391c-2,2.15-1.62,5.3-1.75,8,.12,9.33.2,18.67.41,28,.06,4.31,1.21,8.6.66,12.91-3.53,4.55-8.61,7.62-12.25,12.11-2.8,2.93-4,6.94-6.56,10l-.63.06c-5.83-.11-12.14.22-17.43-2.6-2.6-2.9.39-6.72,1.23-9.77,2.66-5.37.83-11.31-.53-16.74-2-7.6-1.82-15.52-2.92-23.26.75-.76,1.46-1.54,2.18-2.33,3.5-3.49,7.5-6.6,10.07-10.91,2.65-4.08,4.17-8.92,7.62-12.44,5.46-5.16,13.79-6.41,18.35-12.67,3.9-5,4.11-11.64,4-17.71q2.7-2,5.44-3.84c-.75-6.45-5.22-11.79-5.48-18.33-.36-2.61.78-5,1.81-7.33,10,6,21,10.24,32.18,13.68a29.58,29.58,0,0,0,7.65,1.57c4.08,0,7.19-5.32,4.35-8.64-3.14-3.54-8.59-3.09-12.32-5.76-9-7.87-19.95-12.87-30.1-19A170.16,170.16,0,0,1,117.07,274c-3.52-4.64-7.68-9.24-9-15.06-.76-6.09.76-12.17,1.76-18.14,8.41-3.63,15.31-9.85,21.68-16.28a62,62,0,0,0,8.28-10.73c7-11.37,15-22.07,22.34-33.23-4.86.6-10.65,1.73-14.54-2.08-6-5.76-9.9-13.43-12.56-21.23-1.5-5.06-2.58-10.71-.7-15.81,2.34-4.91,8.32-6.44,11.23-10.87.63-6.15-2.36-12.32-.58-18.41,1.33-3.55,5-5.28,8-7.19,5.88-3.24,11.63-7.11,18.31-8.44,4.81-.75,10.48-.57,14.17,3.05,3.51,3.61,5.22,8.46,7.46,12.87,5.92-.54,12-1.79,17.89-.39,4,1,6.24,4.78,7.8,8.29,2,4.61,4.28,9.1,6.12,13.77,1.75,4.39,1.2,9.21.84,13.8,8.23-2,16.4-4.35,24.6-6.53A53,53,0,0,0,281.05,118c5-9.77,6-22.35.25-32-2.21-4.12-4.3-8.37-7.31-12A100.42,100.42,0,0,0,249.88,54.2c-8.18-4.93-16.17-10.4-25.25-13.55-6.07-2.11-12.13-4.75-18.65-5,7.36-1.69,14.4-4.58,21.86-5.89A311.12,311.12,0,0,1,275,22.82ZM171.4,105.18c-3,1.52-2.53,5.29-1.7,7.95,1.94,5.84,4.73,11.61,9.22,15.94,6.38,6.32,17.27,7.33,24.87,2.73,4.12-2.64,2.69-8.88-1.83-10.08-4.25,0-8.63,1.88-12.79.4-5.52-2.67-6.65-9.21-9.15-14.2A6.19,6.19,0,0,0,171.4,105.18Zm-15.08,7.93a6.14,6.14,0,0,0-3.36,5.82c.9,2.9,2.68,5.45,3.6,8.35,1.22,3.21.22,6.91-1.69,9.62-3,3.22-7.79,3.93-10.82,7.1-2.11,3.2-.18,8.73,4.07,8.68,5-.12,9.57-3.14,13.44-6.15,9.18-8.05,9-23.35.94-32.06C160.84,113.14,158.37,112,156.32,113.11Zm51.05,23.09c-6.31.32-13,3.75-15.28,9.94-2.15,7.5-.54,16.12,4.91,21.86,2.59,3.17,9,2,9.65-2.27,1-5.13-4.8-8.54-4.26-13.61.07-1.19.26-2.59,1.62-2.92,3.48-1.94,8.91-1.83,10.36-6.25C215.56,138.81,211.31,135.26,207.37,136.2Zm-49.82,20.55a13.61,13.61,0,0,0-7.68,6.41c-1.13,2.66.38,5.81,2.73,7.26,5.41,1.75,9.11-4.51,14.41-4.06,4.05.06,6.89,3.41,9.28,6.26,2,2.31,4,5.82,7.58,5.08,4.6,0,6.21-6,3.66-9.3-3.86-5.52-8.9-10.86-15.58-12.74A27.86,27.86,0,0,0,157.55,156.75Zm222.16,25.08A34.89,34.89,0,0,0,370,192.89a5.31,5.31,0,0,0,4.24,7.73c3.75.76,6.05-2.82,8.38-5.07,2.36-2.68,5.78-5.44,5.16-9.45C387.73,182.13,383,180.3,379.71,181.83Zm-138.36.31a6.06,6.06,0,0,0-2.73,9.22,42,42,0,0,0,11.91,10.32c4.1,2.95,9.85-3.26,7.11-7.21-2.55-3.76-6.4-6.35-9.54-9.57C246.25,183.39,243.93,180.69,241.35,182.14Zm178,7.91c-8.93,2.49-17.29,6.65-25.62,10.65-6.56,3.84-14.23,6.88-18.49,13.54-2.93,4.41-2.17,10.46,1,14.54,5.44,7.29,14.52,12.48,23.8,11.52,7.92-1.1,15.22-5,21.39-10,5.49-4.34,9-10.55,12.23-16.63A19.68,19.68,0,0,0,435.81,203C436,194.87,427.25,187.49,419.3,190.05Zm-224.84,2.67c-7.7,2.72-12,12.59-8.39,20,3.49,8.18,8.3,16.22,15.82,21.29,6.94,4.63,14.48,9.4,23.1,9.57,9.65.75,19.16-4,25.36-11.25a13.34,13.34,0,0,0,2.32-14.16C249,212.5,242.9,209,237,206c-8.58-4.51-17.67-7.93-26.63-11.59A26.17,26.17,0,0,0,194.46,192.72Zm122.91.71A40.27,40.27,0,0,0,292.18,215c-2.42,5.22,2.34,11.6,7.84,11.8,7,.58,14-.61,21-1,8.07-.56,16.18.2,24.25-.41,2.69-.33,5.65-.59,7.86-2.33,2.06-2.54,1.87-6.19.84-9.12C348.83,199.64,332.39,190,317.37,193.43Zm1.11,46.34c-4.32,1.25-7.76,6.07-5.64,10.5,2.44,3.88,6.72,6.06,10.5,8.41,3,1.83,7.18,3.23,10.23.82a46.09,46.09,0,0,0,8.64-9.38c1.53-2.08,2.26-5,1.11-7.39-2.22-3.33-6.58-4-10.29-4.14C328.17,238.53,323.2,238.42,318.48,239.77Zm5.15,37.07A110.9,110.9,0,0,0,308,285c-3.54,2.14-7.27,5.48-6.72,10.06-.34,4.26,5.58,7.06,8.52,3.78,4.86-4.47,10.44-8.67,17.06-9.94,5.19,2,8,7.11,12.31,10.32,4,2.31,8.93-1.79,7.94-6.09-2-5-6.28-8.53-10.23-11.94C333.19,278.37,328.5,275.14,323.63,276.84Zm-43.17,63.62a7.7,7.7,0,0,0-3.62,10.77c3.31,5.87,9.82,8.72,15.76,11.21,8.79,3.61,19.12,5.24,28.08,1.28,3.49-1.51,7.91-3.47,8.37-7.77.31-3.33.47-8.29-3.4-9.59-4.07-1.35-8.43-1.05-12.64-1.5a135.14,135.14,0,0,1-23.74-4.06C286.42,340.18,283.26,339.08,280.46,340.46Z" transform="translate(-2.28 -5.23)"/>
  <g>
    <path class="cls-4" d="M121.6,39.94c.2-3.08.71-7.36,4.45-8,9.85-1.9,18.83,3.71,28.12,5.88,6.58,1.37,13,3.82,19.78,4,6,.22,12.36,1.61,18.09-.88,4.56-1.93,9-4.51,13.94-5.21,6.52.24,12.58,2.88,18.65,5,9.08,3.15,17.07,8.62,25.25,13.55A100.42,100.42,0,0,1,274,74c3,3.62,5.1,7.87,7.31,12,5.72,9.69,4.75,22.27-.25,32a53,53,0,0,1-30.9,23.31c-8.2,2.18-16.37,4.48-24.6,6.53.36-4.59.91-9.41-.84-13.8-1.84-4.67-4.13-9.16-6.12-13.77-1.56-3.51-3.83-7.24-7.8-8.29-5.89-1.4-12-.15-17.89.39-2.24-4.41-4-9.26-7.46-12.87-3.69-3.62-9.36-3.8-14.17-3.05-6.68,1.33-12.43,5.2-18.31,8.44-3,1.91-6.67,3.64-8,7.19-1.78,6.09,1.21,12.26.58,18.41-2.91,4.43-8.89,6-11.23,10.87-1.88,5.1-.8,10.75.7,15.81,2.66,7.8,6.57,15.47,12.56,21.23,3.89,3.81,9.68,2.68,14.54,2.08-7.33,11.16-15.34,21.86-22.34,33.23a62,62,0,0,1-8.28,10.73c-6.37,6.43-13.27,12.65-21.68,16.28l-1.2.48c3.41-6.39,3.11-13.81,4.7-20.71,3.84-18.39,5.24-37.3,10.92-55.29,4.6-14,6.78-28.67,11.39-42.67,1.22-3.67,3-7.12,4-10.87.82-2.93-.51-5.84-1.71-8.44-1.91-3.43-4.12-6.72-5.52-10.41-3.9-10.11-7.55-20.38-9.69-31A105.47,105.47,0,0,1,121.6,39.94Z" transform="translate(-2.28 -5.23)"/>
    <path class="cls-4" d="M396,37.39a129.56,129.56,0,0,1,20.72,7.7c4.85,2.55,10.36,1.06,15-1.28,8.43-4.07,17.89-6.74,27.27-4.74,1.13,8.94.39,18,.58,26.93.17,7-.77,14-1.28,21-.72,6.94-.86,13.92-1.62,20.85-.38,4.39-1.22,8.76-1,13.18.22,4.19,1.94,8.08,3.38,12,3,8,5,16.25,7.47,24.39A85.16,85.16,0,0,1,469.17,171c.8,6.38,2.67,12.58,3.26,19,.52,6.22,2.73,12.38,1.47,18.66-3.84-9.13-6.4-18.8-11-27.61a32.31,32.31,0,0,0-9.29-10.68c-6.12-4.61-12.77-8.85-20.33-10.64a320.76,320.76,0,0,1-39-12.74c-12.13-3.89-22.87-10.9-33.56-17.63-7.43-4.64-13.62-12.26-14.06-21.31-.4-10.31.61-21.29,6.22-30.23a70.71,70.71,0,0,1,14.84-18.19c5.91-5,11.48-10.6,18.17-14.67A53.87,53.87,0,0,0,396,37.39Z" transform="translate(-2.28 -5.23)"/>
  </g>
  <g>
    <path class="cls-5" d="M137.87,103.26c1.2,2.6,2.53,5.51,1.71,8.44-.93,3.75-2.74,7.2-4,10.87-4.61,14-6.79,28.66-11.39,42.67-5.68,18-7.08,36.9-10.92,55.29-1.59,6.9-1.29,14.32-4.7,20.71-3.47.48-7,.66-10.44.94a180.91,180.91,0,0,1,5.08-30.74c2-11,4.77-21.9,7.82-32.67,3.77-8.39,5.16-17.55,8.47-26.1,3.27-9.86,6.79-19.66,10.93-29.2C133.23,116.84,138.48,110.88,137.87,103.26Z" transform="translate(-2.28 -5.23)"/>
    <path class="cls-5" d="M87.9,438.16c.83,1.56,2.51,3.38,1.46,5.23-1.82,3.07-4.7,5.31-6.8,8.17-2.74,3.56-3.87,8-5,12.25-6.45.23-12.9-.12-19.35-.17l.4-.43,1.21-1.3c-3-5.47-6-11-7.57-17.1L52,444a125.62,125.62,0,0,0,36.12.18c0-1.29-.06-2.57-.11-3.85C88,439.76,87.93,438.7,87.9,438.16Z" transform="translate(-2.28 -5.23)"/>
  </g>
  <g>
    <path class="cls-6" d="M156.32,113.11c2.05-1.09,4.52,0,6.18,1.36,8.1,8.71,8.24,24-.94,32.06-3.87,3-8.39,6-13.44,6.15-4.25,0-6.18-5.48-4.07-8.68,3-3.17,7.82-3.88,10.82-7.1,1.91-2.71,2.91-6.41,1.69-9.62-.92-2.9-2.7-5.45-3.6-8.35A6.14,6.14,0,0,1,156.32,113.11Z" transform="translate(-2.28 -5.23)"/>
    <path class="cls-6" d="M194.46,192.72a26.17,26.17,0,0,1,15.92,1.67c9,3.66,18.05,7.08,26.63,11.59,5.89,3,12,6.52,15.66,12.22a13.34,13.34,0,0,1-2.32,14.16c-6.2,7.22-15.71,12-25.36,11.25-8.62-.17-16.16-4.94-23.1-9.57-7.52-5.07-12.33-13.11-15.82-21.29C182.46,205.31,186.76,195.44,194.46,192.72Zm2.2,11a17.31,17.31,0,0,0,1.5,7.84c3.74,8.58,11.55,14.62,19.89,18.39,7.45,3.46,17.29,2.25,22.89-4a3.25,3.25,0,0,0-1-4.93c-6.21-4.65-13.8-6.89-20.67-10.38C212.09,207.53,204.78,203.32,196.66,203.75Z" transform="translate(-2.28 -5.23)"/>
    <path class="cls-6" d="M323.63,276.84c4.87-1.7,9.56,1.53,13.29,4.31,3.95,3.41,8.24,7,10.23,11.94,1,4.3-3.94,8.4-7.94,6.09-4.29-3.21-7.12-8.35-12.31-10.32-6.62,1.27-12.2,5.47-17.06,9.94-2.94,3.28-8.86.48-8.52-3.78-.55-4.58,3.18-7.92,6.72-10.06A110.9,110.9,0,0,1,323.63,276.84Z" transform="translate(-2.28 -5.23)"/>
  </g>
  <path class="cls-7" d="M207.37,136.2c3.94-.94,8.19,2.61,7,6.75-1.45,4.42-6.88,4.31-10.36,6.25-1.36.33-1.55,1.73-1.62,2.92-.54,5.07,5.24,8.48,4.26,13.61C206,170,199.59,171.17,197,168c-5.45-5.74-7.06-14.36-4.91-21.86C194.37,140,201.06,136.52,207.37,136.2Z" transform="translate(-2.28 -5.23)"/>
  <g>
    <path class="cls-8" d="M379.71,181.83c3.24-1.53,8,.3,8,4.27.62,4-2.8,6.77-5.16,9.45-2.33,2.25-4.63,5.83-8.38,5.07a5.31,5.31,0,0,1-4.24-7.73A34.89,34.89,0,0,1,379.71,181.83Z" transform="translate(-2.28 -5.23)"/>
    <path class="cls-8" d="M241.35,182.14c2.58-1.45,4.9,1.25,6.75,2.76,3.14,3.22,7,5.81,9.54,9.57,2.74,3.95-3,10.16-7.11,7.21a42,42,0,0,1-11.91-10.32A6.06,6.06,0,0,1,241.35,182.14Z" transform="translate(-2.28 -5.23)"/>
  </g>
  <path class="cls-9" d="M419.3,190.05c7.95-2.56,16.71,4.82,16.51,12.93a19.68,19.68,0,0,1-2.19,10.71c-3.24,6.08-6.74,12.29-12.23,16.63-6.17,5-13.47,8.88-21.39,10-9.28,1-18.36-4.23-23.8-11.52-3.18-4.08-3.94-10.13-1-14.54,4.26-6.66,11.93-9.7,18.49-13.54C402,196.7,410.37,192.54,419.3,190.05Zm2,11.24c-7.75,1.78-14.8,5.69-21.91,9.14-4.72,2.54-9.87,4.52-13.93,8.1a3.17,3.17,0,0,0,0,4.93c4.29,4.36,11,7.21,17,4.85,10.46-3.92,19.92-12.24,22.83-23.32A3,3,0,0,0,421.34,201.29Z" transform="translate(-2.28 -5.23)"/>
  <path class="cls-10" d="M317.37,193.43c15-3.45,31.46,6.21,36.61,20.56,1,2.93,1.22,6.58-.84,9.12-2.21,1.74-5.17,2-7.86,2.33-8.07.61-16.18-.15-24.25.41-7,.34-14,1.53-21,1-5.5-.2-10.26-6.58-7.84-11.8A40.27,40.27,0,0,1,317.37,193.43Z" transform="translate(-2.28 -5.23)"/>
  <g>
    <path class="cls-11" d="M421.34,201.29a3,3,0,0,1,4,3.7c-2.91,11.08-12.37,19.4-22.83,23.32-6,2.36-12.72-.49-17-4.85a3.17,3.17,0,0,1,0-4.93c4.06-3.58,9.21-5.56,13.93-8.1C406.54,207,413.59,203.07,421.34,201.29Z" transform="translate(-2.28 -5.23)"/>
    <path class="cls-11" d="M196.66,203.75c8.12-.43,15.43,3.78,22.64,6.9,6.87,3.49,14.46,5.73,20.67,10.38a3.25,3.25,0,0,1,1,4.93c-5.6,6.27-15.44,7.48-22.89,4-8.34-3.77-16.15-9.81-19.89-18.39A17.31,17.31,0,0,1,196.66,203.75Z" transform="translate(-2.28 -5.23)"/>
  </g>
  <path class="cls-12" d="M318.48,239.77c4.72-1.35,9.69-1.24,14.55-1.18,3.71.09,8.07.81,10.29,4.14,1.15,2.41.42,5.31-1.11,7.39a46.09,46.09,0,0,1-8.64,9.38c-3.05,2.41-7.26,1-10.23-.82-3.78-2.35-8.06-4.53-10.5-8.41C310.72,245.84,314.16,241,318.48,239.77Z" transform="translate(-2.28 -5.23)"/>
  <g>
    <path class="cls-13" d="M108.61,241.24l1.2-.48c-1,6-2.52,12.05-1.76,18.14,1.34,5.82,5.5,10.42,9,15.06A170.16,170.16,0,0,0,153.91,306c10.15,6.13,21.09,11.13,30.1,19-7.72-1.46-14.81-5-21.88-8.28a217.26,217.26,0,0,1-34-22.84c-8.87-6.72-16.12-15.22-24.17-22.85-3.14-3.41-7.65-6.88-7.19-12.05.34-5.62,1-11.23,1.45-16.84C101.65,241.9,105.14,241.72,108.61,241.24Z" transform="translate(-2.28 -5.23)"/>
    <path class="cls-13" d="M159,484c-1.45-2.87-.57-6.1.34-9,1,1.75,2.24,3.62,4.27,4.34,5,2,10.49,2.06,15.79,2.38.59-1.94,1.18-3.88,1.84-5.79,0,4.45-.09,8.91-.09,13.38-5.71-.06-11.46.39-17.16-.19C161.33,488.94,160.09,486.08,159,484Z" transform="translate(-2.28 -5.23)"/>
  </g>
  <g>
    <path class="cls-14" d="M141.23,318.23c3.88,1.5,7.3,3.94,10.92,6-1,2.31-2.17,4.72-1.81,7.33.26,6.54,4.73,11.88,5.48,18.33-1.6-7.71-9.25-11.34-12.89-17.83C140.22,328.05,139.17,322.7,141.23,318.23Z" transform="translate(-2.28 -5.23)"/>
    <path class="cls-14" d="M97.94,415a63.94,63.94,0,0,0,10.24-5.28c1.1,7.74.92,15.66,2.92,23.26,1.36,5.43,3.19,11.37.53,16.74-.84,3.05-3.83,6.87-1.23,9.77,5.29,2.82,11.6,2.49,17.43,2.6-.25,3.51-.57,7-.89,10.51-12.69-.25-26.31,1.58-37.87-4.91a15.35,15.35,0,0,1,4.43-11.24c3-4,8.21-6.52,9.68-11.53-.75-3.62-2.79-6.79-3.92-10.29C97.06,428.36,97.44,421.57,97.94,415Z" transform="translate(-2.28 -5.23)"/>
    <path class="cls-14" d="M233.78,428.8c2.84-3.5,8.87-2.07,10.37,2,2.26,6,.3,12.7,2.28,18.79,2.3,7,8,13,15.3,14.55,11.24,2.52,22.84,1.07,34.25,1.57,13.72.61,27.47.88,41.19.28-8.34,3.49-17.4,4.56-26.31,5.48-26.53,1.24-53.11,1.11-79.66,1,1.11-7,3.92-13.57,5.92-20.34,1.81-6.14,5.07-11.82,6.28-18.12.9-4.31-5.07-8.45-8.39-5-5.21,5.51-5.67,13.61-9.22,20.08C227.56,442.06,229,434.48,233.78,428.8Z" transform="translate(-2.28 -5.23)"/>
  </g>
  <path class="cls-15" d="M280.46,340.46c2.8-1.38,6-.28,8.81.34A135.14,135.14,0,0,0,313,344.86c4.21.45,8.57.15,12.64,1.5,3.87,1.3,3.71,6.26,3.4,9.59-.46,4.3-4.88,6.26-8.37,7.77-9,4-19.29,2.33-28.08-1.28-5.94-2.49-12.45-5.34-15.76-11.21A7.7,7.7,0,0,1,280.46,340.46Z" transform="translate(-2.28 -5.23)"/>
  <path class="cls-16" d="M130.44,352.44c2-2.56,4.06-5.25,6.79-7.14,2.84.52,4.5,3.23,6.39,5.16A27.3,27.3,0,0,0,135,358c-7.67,10.77-16.62,20.93-21.46,33.41-2,5.1-2.66,10.59-3.2,16-.72.79-1.43,1.57-2.18,2.33A63.94,63.94,0,0,1,97.94,415a97.64,97.64,0,0,1,16-39.16C118.79,367.64,124.72,360.11,130.44,352.44Z" transform="translate(-2.28 -5.23)"/>
  <path class="cls-17" d="M135,358a27.3,27.3,0,0,1,8.6-7.54c2.2,1.19,4.45,2.26,6.76,3.23.13,6.07-.08,12.7-4,17.71-4.56,6.26-12.89,7.51-18.35,12.67-3.45,3.52-5,8.36-7.62,12.44-2.57,4.31-6.57,7.42-10.07,10.91.54-5.42,1.15-10.91,3.2-16C118.4,378.93,127.35,368.77,135,358Z" transform="translate(-2.28 -5.23)"/>
  <path class="cls-18" d="M91.76,369c4.22-3.22,9.61-4.22,14.8-4.42-2.53,5.94-6.21,11.27-9,17.06C94.81,387,93,392.72,90.18,398,87.68,388.53,86.12,377.7,91.76,369Z" transform="translate(-2.28 -5.23)"/>
  <path class="cls-19" d="M74.58,383.56A43.71,43.71,0,0,1,91.76,369c-5.64,8.74-4.08,19.57-1.58,29.07-.75,4.39-2.58,8.54-3.2,13a79.94,79.94,0,0,0,.92,27.16c0,.54.08,1.6.11,2.14-6.64-3.94-12.3-9.71-15.28-16.91-4.16-9.2-4.58-19.58-3.37-29.47C70,390,72.51,386.8,74.58,383.56Z" transform="translate(-2.28 -5.23)"/>
  <path class="cls-20" d="M64.09,401.12c2-2.23,3.52-4.8,5.27-7.2-1.21,9.89-.79,20.27,3.37,29.47,3,7.2,8.64,13,15.28,16.91,0,1.28.08,2.56.11,3.85A125.62,125.62,0,0,1,52,444c-2.85-12.72-.81-25.83,2.8-38.17C58.08,404.72,61.73,403.84,64.09,401.12Z" transform="translate(-2.28 -5.23)"/>
  <path class="cls-21" d="M157.82,403.67c.79,6.22,1.85,12.47,4.16,18.33,2.66,7.52,7.7,14.93,6.39,23.25-1.05,7-8.28,10.05-11.49,15.76-1.1,1.92.29,4,.94,5.82-2.36-.12-5.35-1.29-7.19.8-4.6,5.37-4.57,13-3.25,19.61-4.77-4.68-9.81-11-8.51-18.08,2.28-9.26,10.28-15.34,17.46-20.85,4.16-3,2.68-8.48,2.39-12.77C158.22,424.93,157,414.3,157.82,403.67Z" transform="translate(-2.28 -5.23)"/>
  <path class="cls-22" d="M21.12,421.85c7.62-10.73,21.25-14.58,33.68-16.05C51.19,418.14,49.15,431.25,52,444l.2.84c-8.76-3.65-18.36-6.07-25.77-12.28C23.11,430,22.18,425.67,21.12,421.85Z" transform="translate(-2.28 -5.23)"/>
  <path class="cls-23" d="M361.85,420.93a16.32,16.32,0,0,1,10,5.23c6.9,7.22,15.66,12.27,22.7,19.31,6.48,7.21,10.65,16.09,15.78,24.24a18.31,18.31,0,0,0,7.91,7.13c5.83,2.64,13,4.43,18.82.8a47.7,47.7,0,0,1,.57,7.84c-7.81.06-15.64.47-23.43-.11-5.61-.71-11.88-2.36-15.15-7.38-3.3-5.23-3.6-11.61-5.73-17.31-2.75-8.72-8.59-15.9-13.62-23.38C374.69,431,369.73,423.87,361.85,420.93Z" transform="translate(-2.28 -5.23)"/>
  <path class="cls-24" d="M19.89,434.92c-1-4.39.11-8.83,1.23-13.07,1.06,3.82,2,8.1,5.31,10.68,7.41,6.21,17,8.63,25.77,12.28,1.61,6.06,4.58,11.63,7.57,17.1l-1.21,1.3c-8.58-1.91-17.44-3.89-24.74-9C27.32,449.49,21.34,443.08,19.89,434.92Z" transform="translate(-2.28 -5.23)"/>
  <path class="cls-25" d="M362.13,467.09c5.73-3.44,10.43-8.25,14.9-13.16,2.28,4.18,5.1,8.32,5.74,13.15a2.08,2.08,0,0,1-2.07,2.37,92,92,0,0,1-23.52,1.87A30.82,30.82,0,0,1,362.13,467.09Z" transform="translate(-2.28 -5.23)"/>
  <path class="cls-26" d="M461.37,460.81c1.19,5.23,1.26,11.12-1.88,15.72-2.32,3.41-6.3,5-9.93,6.52a94.33,94.33,0,0,0-2.37-11.77c4.29.14,9.26,1.56,13.08-1C461.75,467.37,461.35,463.94,461.37,460.81Z" transform="translate(-2.28 -5.23)"/>
  <path class="cls-27" d="M212.18,480.08c4.3-1.36,5.34-6.36,7-10-1.15,8.66-6.79,17.37-15.79,19.22-3.44.61-9.42,2.6-10.43-2.28-1.3-5.41.13-11-.18-16.5,1.51,3.85,1.19,8,.79,12.06C199.82,482.17,206.19,482,212.18,480.08Z" transform="translate(-2.28 -5.23)"/>
</svg>
