<svg id="Layer_1" data-name="Layer 1" xmlns="http://www.w3.org/2000/svg" viewBox="0 0 423.43 504.14">
  <defs>
    <style>
      .cls-1 {
        fill: #fafcfd;
      }

      .cls-2 {
        fill: #091f2e;
      }

      .cls-3 {
        fill: #027acc;
      }

      .cls-4 {
        fill: #0166a5;
      }

      .cls-5 {
        fill: #89c1fd;
      }

      .cls-6 {
        fill: #89c1fc;
      }

      .cls-7 {
        fill: #fafdfe;
      }

      .cls-8 {
        fill: #c0bdbe;
      }

      .cls-9 {
        fill: #f7efed;
      }

      .cls-10 {
        fill: #fac2bf;
      }

      .cls-11 {
        fill: #b83d22;
      }

      .cls-12 {
        fill: #cf4b29;
      }

      .cls-13 {
        fill: #ed441b;
      }

      .cls-14 {
        fill: #c59b9c;
      }

      .cls-15 {
        fill: #fcbebc;
      }

      .cls-16 {
        fill: #027bcd;
      }

      .cls-17 {
        fill: #017bcc;
      }

      .cls-18 {
        fill: #0c74b4;
      }

      .cls-19 {
        fill: #87c2fd;
      }

      .cls-20 {
        fill: #fabfba;
      }

      .cls-21 {
        fill: #007bcc;
      }

      .cls-22 {
        fill: #0c1d2b;
      }

      .cls-23 {
        fill: #0b1f2a;
      }

      .cls-24 {
        fill: #0565a3;
      }

      .cls-25 {
        fill: #84c4fe;
      }

      .cls-26 {
        fill: #0a1e2c;
      }

      .cls-27 {
        fill: #091f2d;
      }

      .cls-28 {
        fill: #0266a5;
      }

      .cls-29 {
        fill: #091f2c;
      }

      .cls-30 {
        fill: #fbc1bb;
      }

      .cls-31 {
        fill: #ea441d;
      }

      .cls-32 {
        fill: #b73b20;
      }

      .cls-33 {
        fill: #c1bdbd;
      }

      .cls-34 {
        fill: #0a1d2b;
      }

      .cls-35 {
        fill: #fbfdfd;
      }

      .cls-36 {
        fill: #bcbcc5;
      }

      .cls-37 {
        fill: #c0bdbc;
      }

      .cls-38 {
        fill: #b83c22;
      }

      .cls-39 {
        fill: #ed441c;
      }

      .cls-40 {
        fill: #f6efee;
      }

      .cls-41 {
        fill: #6b9bcc;
      }

      .cls-42 {
        fill: #88c2ff;
      }

      .cls-43 {
        fill: #c0bcbd;
      }

      .cls-44 {
        fill: #c3bdbe;
      }

      .cls-45 {
        fill: #fbedec;
      }

      .cls-46 {
        fill: #e94620;
      }

      .cls-47 {
        fill: #e8461d;
      }

      .cls-48 {
        fill: #7d3b30;
      }

      .cls-49 {
        fill: #f9edeb;
      }

      .cls-50 {
        fill: #ec441c;
      }

      .cls-51 {
        fill: #bfbebd;
      }

      .cls-52 {
        fill: #bfbcc1;
      }

      .cls-53 {
        fill: #b83c21;
      }

      .cls-54 {
        fill: #bebbbe;
      }

      .cls-55 {
        fill: #f6eeef;
      }

      .cls-56 {
        fill: #bfbdbf;
      }

      .cls-57 {
        fill: #8ac0fa;
      }

      .cls-58 {
        fill: #c2bec4;
      }

      .cls-59 {
        fill: #6a9dd0;
      }
    </style>
  </defs>
  <path class="cls-1" d="M227,4.83c8.35-.36,16.6-1.94,25-1.39,8.73-.52,17.34.95,26,1.49a202.83,202.83,0,0,1,42.48,9.63c6.76,2.79,13.53,5.6,20.12,8.8,2.79,1.13,4.13,3.94,5.81,6.24,2.34,3.83,7.38,3.87,11,5.87,15.91,6.63,28.42,19.29,37.94,33.37,5-.62,10.09-2.27,15.2-1.14,6.66,1.38,12.85,5.71,15.69,12,2.05,5,2.49,10.48,3.29,15.79a61.61,61.61,0,0,1,19.15,20.82,145.33,145.33,0,0,1,12.59,35.63c3.74,16.23,5.37,34.1-1.54,49.73a44.72,44.72,0,0,1-7.71,12.42c-2.69,2.92-3.06,7-4.3,10.61-2.43,7.48-7.93,13.62-14.46,17.84.51,4.15,2.18,8,3.3,12a116.58,116.58,0,0,1,4.7,24.46c-.3,10.51-5.56,20.2-12,28.23-.82,1.12-2,2.23-1.87,3.75-.23,29.33.23,58.68.42,88a36.84,36.84,0,0,1-5.61,21.24,38.54,38.54,0,0,1-16.73,11.95c-3,1.08-6.3,1.1-9.18,2.54,5.26,12.33,9.19,26,6.72,39.44-2.27,11.46-11.75,20.74-22.92,23.69-16.29,4.27-33.92,1.95-49.09-5.11-3.35,2.77-6.37,6.22-10.59,7.69-8.31,3.08-17.35,3.07-26.05,2.17-10.54-.28-21-1.64-31.43-2.92-2.38-.46-4.5.91-6.61,1.77-6.17,3.17-13.71,3-20,.4-3.09-1.38-6.37.09-9.5.51a29.81,29.81,0,0,1-24.89-7.54c-7.61.93-15.18,2.67-22.89,2.39-6.11-.1-12.08-1.5-18-2.82-11.07,8.55-25.09,12.81-39,13-20.91-1.51-41.58-8.52-58.55-20.94a63.52,63.52,0,0,1-17.05-20.93,67.92,67.92,0,0,1-4.14-39,106.84,106.84,0,0,1,9.22-27.08c3.46-7,10.25-11.45,16.93-15,13.63-5.89,28.64-7.36,43.33-8,1.14-5.53,1.23-11.29,3.2-16.63,1.87-5.11,4-10.2,7.24-14.6,2.39-3.32,5.54-6,8.52-8.71-.29-3.18-.57-6.49-2-9.39-2-2.1-4.74-3.23-7.12-4.81C111.85,316.1,102.89,308.42,96,299a7.58,7.58,0,0,1-1.38-3.39c-1.23-10.45.56-20.9,1-31.32-4.41-3.92-8.34-9-14.18-10.89-8.16-3-15-8.7-21-14.93C49.93,227,45.17,211.32,44.52,196c-.62-18.63,4.72-36.82,11.25-54.06,6-14.35,15.12-28.2,28.6-36.54,3.31-2.18,7.16-3.4,10.44-5.62,1.09-3.28.26-6.92.88-10.32,1.53-9.2,5-19.14,13.43-24.22,7.66-5.13,17.45-4.16,25.92-1.91,7.4-6.35,14.27-13.35,22.28-19,4.55-3.62,9.88-6.1,14.46-9.64,1.11-3.59-.32-7.78,1.56-11.29A22.16,22.16,0,0,1,186,13C199.21,8.49,213.13,6.32,227,4.83Zm-30.43,9.81c-7.09,1.66-15.21,4.14-18.93,11-2,3.3-.38,7,.28,10.4-1,1.92-3.41,2.61-5.1,3.83-13.53,7.62-25.33,17.87-36.17,28.89-4.82-1.21-9.62-2.9-14.67-2.52C114.3,66,107.12,71.09,103.93,78c-3.92,8-4,17-4.17,25.68-6.41,2.1-12.72,4.81-17.89,9.24-15.61,12.78-23.59,32.29-28.7,51.29-4.17,16.9-6.2,35.23-.37,52A54.94,54.94,0,0,0,79,247c4.07,2.29,9.23,2.87,12.32,6.68a36.37,36.37,0,0,0,9.75,7.54c-1.09,10.53-2.42,21.11-1.8,31.72.07,2.56,1.7,4.66,3.19,6.6a89.88,89.88,0,0,0,27,22c1.38.86,3,1.55,4,2.89a82.84,82.84,0,0,0,3.27,14.16c-4,2.54-8,5.37-10.78,9.36-6.79,9.48-9.28,21.43-9.37,32.93-4.33.74-8.73.41-13.09.74a113.87,113.87,0,0,0-30.63,6.11c-7.07,2.92-14.11,7.45-17.53,14.56C47.85,417.54,43.23,435.09,47,452a49.47,49.47,0,0,0,12.58,24.45c7.83,8.81,18.64,14.15,29.31,18.71,10.87,4.25,22.4,7.3,34.15,7.27a55.25,55.25,0,0,0,34.17-11.29c1.49-1.17,3.25-2.34,5.18-1.4,13.17,4.38,27.3,2.73,40.62,0,3.71,2.75,7.19,6.1,11.75,7.4,6.38,1.84,13,.38,19.29-.88,4.9,1.21,9.71,3.91,15,2.71,5.06-.19,8.9-5.11,14.07-4a260.41,260.41,0,0,0,28.7,2.73c9.26.82,19.13,1.86,27.89-2,4.54-1.86,7.35-6,10.35-9.67,4.88,3.09,9.95,6.06,15.67,7.28,12.44,2.83,26,3.33,37.95-1.7,8.92-3.78,14.61-13,15.42-22.46.78-10.34-2-20.6-6.11-30-.95-2.33-2.26-4.87-1.33-7.42.43-2.32,3.26-1.77,5-2.3,9.6-1.11,19.29-6.24,23.56-15.25,4.67-8.63,2.9-18.71,3.09-28.08-1-25.33-.74-50.69-.86-76-.25-2.88,2.41-4.61,3.92-6.69,6.22-7.57,11.06-17.22,10.07-27.27-1.13-12.09-5.26-23.58-9-35.06,2.71-2.18,6-3.63,8.45-6.11a35.69,35.69,0,0,0,9.38-17.61c.91-5,5.55-7.9,7.78-12.22,7.24-12,7.64-26.52,6-40-2.23-15.67-6.57-31.13-13.77-45.26a63.29,63.29,0,0,0-10.7-14.27c-3-3-6.83-5.07-10.14-7.73.32-8-.73-17.4-7.77-22.39-6.63-4.94-15.45-3.25-22.71-.77a42,42,0,0,1-4.13-5.36c-10.15-15-24.85-27.4-42.43-32.6-4.62-1-5.08-6.85-9-8.9-15-8.27-31.65-13.24-48.47-16.39C259,6.14,227.08,7.61,196.58,14.64Z" transform="translate(-41.1 -3.32)"/>
  <path class="cls-2" d="M196.58,14.64c30.5-7,62.39-8.5,93.3-3.34,16.82,3.15,33.43,8.12,48.47,16.39,3.95,2,4.41,7.88,9,8.9,17.58,5.2,32.28,17.58,42.43,32.6a42,42,0,0,0,4.13,5.36c7.26-2.48,16.08-4.17,22.71.77,7,5,8.09,14.43,7.77,22.39,3.31,2.66,7.13,4.69,10.14,7.73a63.29,63.29,0,0,1,10.7,14.27C452.46,133.84,456.8,149.3,459,165c1.59,13.51,1.19,28.06-6,40-2.23,4.32-6.87,7.22-7.78,12.22a35.69,35.69,0,0,1-9.38,17.61c-2.48,2.48-5.74,3.93-8.45,6.11,3.7,11.48,7.83,23,9,35.06,1,10.05-3.85,19.7-10.07,27.27-1.51,2.08-4.17,3.81-3.92,6.69.12,25.35-.17,50.71.86,76-.19,9.37,1.58,19.45-3.09,28.08-4.27,9-14,14.14-23.56,15.25-1.72.53-4.55,0-5,2.3-.93,2.55.38,5.09,1.33,7.42,4.07,9.41,6.89,19.67,6.11,30-.81,9.47-6.5,18.68-15.42,22.46-12,5-25.51,4.53-37.95,1.7C339.92,492,334.85,489,330,485.94c-3,3.64-5.81,7.81-10.35,9.67-8.76,3.89-18.63,2.85-27.89,2a260.41,260.41,0,0,1-28.7-2.73c-5.17-1.08-9,3.84-14.07,4-5.24,1.2-10.05-1.5-15-2.71-6.32,1.26-12.91,2.72-19.29.88-4.56-1.3-8-4.65-11.75-7.4-13.32,2.77-27.45,4.42-40.62,0-1.93-.94-3.69.23-5.18,1.4A55.25,55.25,0,0,1,123,502.44c-11.75,0-23.28-3-34.15-7.27-10.67-4.56-21.48-9.9-29.31-18.71A49.47,49.47,0,0,1,47,452c-3.73-16.92.89-34.47,8.33-49.72,3.42-7.11,10.46-11.64,17.53-14.56a113.87,113.87,0,0,1,30.63-6.11c4.36-.33,8.76,0,13.09-.74.09-11.5,2.58-23.45,9.37-32.93,2.75-4,6.74-6.82,10.78-9.36a82.84,82.84,0,0,1-3.27-14.16c-1-1.34-2.59-2-4-2.89a89.88,89.88,0,0,1-27-22c-1.49-1.94-3.12-4-3.19-6.6-.62-10.61.71-21.19,1.8-31.72a36.37,36.37,0,0,1-9.75-7.54c-3.09-3.81-8.25-4.39-12.32-6.68A54.94,54.94,0,0,1,52.8,216.15c-5.83-16.76-3.8-35.09.37-52,5.11-19,13.09-38.51,28.7-51.29,5.17-4.43,11.48-7.14,17.89-9.24C100,95,100,85.92,103.93,78,107.12,71.09,114.3,66,122,66.22c5.05-.38,9.85,1.31,14.67,2.52,10.84-11,22.64-21.27,36.17-28.89,1.69-1.22,4.13-1.91,5.1-3.83-.66-3.41-2.3-7.1-.28-10.4C181.37,18.78,189.49,16.3,196.58,14.64ZM212.22,23c-7.82,1.51-16.94.82-23.24,6.51,6.28.6,12.69.82,18.75,2.77,3.15,1,5.69,3.19,8.59,4.68,2.91,3,4.2,7,4.85,11.06a17.91,17.91,0,0,0,4.74-.06c8-1.39,16-2.92,24.09-3.46,17.76-2,35.89-.19,53.12,4.43,5.85,1.43,11.24,4.33,17.11,5.67,4.9.93,8.77-2.89,11.62-6.33,1.69-2.39,2.87-5.29,2.25-8.26-.25-2.69-3-4-5-5.11A162.85,162.85,0,0,0,286.12,21.8c-14.85-3.05-30.07-2-45.11-2.18A207.69,207.69,0,0,0,212.22,23ZM189.89,42.83C168.3,53.57,148.83,69,134.57,88.56a52.4,52.4,0,0,0-6.48,10.14c4.46.86,8.69,3.82,13.18,3.71a145.57,145.57,0,0,1,62.41-54.73c1.69-.83,3.33-1.77,4.94-2.74C203.62,40.71,195.57,38.87,189.89,42.83Zm154.44,4.36a63.33,63.33,0,0,0-5.61,9.75c11.54,6,22.82,13,31.69,22.65,5.79,5,9.18,12,13.78,18.07a48.29,48.29,0,0,0,8.49-1.75c-3.69-6.5-6.42-13.58-11-19.54-4.18-5.7-8.07-11.83-13.81-16.13C360.72,54.8,353.25,49.18,344.33,47.19ZM235,57.2c-5.89,1-11.73,3.66-17.79,2.41-2-.81-3.55-2.27-5.4-3.27-2.24,0-4.2,1.36-6.17,2.27-11.38,6-22.47,13-31.72,21.93,3.75.1,8,.89,11.24-1.4a108.33,108.33,0,0,1,13.51-7.47c25.74-11.36,54.49-14.85,82.39-12.35,16.28,1,32.15,5.42,47.31,11.24,9.59,4.32,19,9.27,27.32,15.73,2.45,1.6,5.24,4.44,8.37,2.78a85.43,85.43,0,0,0-31.62-22.54c-4.19-2-8.8.16-13.16-.67-3.95-.61-7.46-2.65-11.17-4C284.71,53.81,259.26,53.07,235,57.2ZM199.82,83.59c-3.29.54-5.84,3-8.71,4.57-5.21,3.43-11.81,3.92-17.79,2.7-3.24-.59-6.43-2-9.78-1.46l-.24,2.29c4.33,3.35,9.36,5.56,14.37,7.69,2.71.88,4.58,4.49,2.71,7-1.79,3.08-5.74,2.1-8.68,2.37-2.78-2.08-6-3.44-9-5.11-2.18-1.49-4.37-3-6.61-4.37a67.59,67.59,0,0,0-6.89,9.87,38.88,38.88,0,0,0,5.85,6.77l1,1.22.75-.07c2.38,4.67,5.56,9,7.08,14,1.29,4.24,2.83,8.4,4.16,12.63,1.13,5,1.2,10.19,1.38,15.31.12,9.38.11,18.88-2.15,28.05-.78,4.11-2.61,8.11-2.09,12.38-1.52,1.32-1.86,3.49-2.62,5.28-4.19,12.83-9,25.71-17.23,36.57-2.86,4.27-6.78,7.64-10.1,11.54-3,1.86-6.11,3.47-9,5.45-4.37,1.41-8.92,2.21-13.22,3.81-3.54,6-2.49,13.41-2.68,20.07,0,4.16-1.17,9.14,2.13,12.42,13.37,15.06,32.39,23.33,50.95,30,6.12,1.88,12.21,4.33,18.69,4.47,2.76,1.56,6.24,2,8.44,4.47s0,6.31-2.83,7.18a16.13,16.13,0,0,1-5.74-.46c-6.64-1.63-13.28-3.22-19.82-5.22-5.63-2.15-11.32-4.2-17.09-5.94.83,2.73,2.2,5.61,5,6.84,2.9,1,6.07.79,9.11.9,1,1.75,2.88,3.05,3.17,5.13a23.57,23.57,0,0,1-1.61,4.73c-6.9,1.58-14.78-1.36-20.92,3-8.06,5-10.11,15.1-12.1,23.68a241.14,241.14,0,0,0-.11,25.08A23.11,23.11,0,0,0,136,399a47.85,47.85,0,0,0,9.1.84c1.46,1.2,3.52,1.3,5.26,1.94,5.23,1.28,9.82,4.16,14.73,6.25-.23-7.54-2.47-15.24-.68-22.68,1-4.54,8-4.58,9.57-.37,1.54,4.7-.31,9.93,1.51,14.6A36,36,0,0,0,176,410.1c2,9.43,4.22,19.13,9.54,27.34,3,4.79,6.89,9.46,12.24,11.72,2.33,1.16,5.45,1.82,6.37,4.62,2,5.13.53,10.82,2.07,16.07,1.56,5.65,3.49,11.94,8.73,15.26,2.83,2.15,6.54,1.73,9.87,1.85-1.41-2-3.05-3.84-3.91-6.12a4.57,4.57,0,0,1,4.26-5.69c3.76-.57,5.71,3.42,8.11,5.58,4.1,4.71,10.61,9.22,17.06,6.49,6.42-3.66,10.7-10.23,13.51-16.91l-2.55-1.46c-3.15-1.91-6.65-3.29-9.46-5.7-1.78-1.59-1.74-4.16-2.26-6.3,2.39-1.08,4.94-3.55,7.71-2.08,4.5,2.3,8.4,5.8,13.4,7.06,3.69-5.91,4-13.58,1.68-20a38.07,38.07,0,0,0-10.91-17.22c-3.61-2.78.21-8.67-3.85-11.17-5-5-12.53-2.65-18.42-5.46a26.73,26.73,0,0,1-9.53-7c.33-2.85.66-6.4,3.8-7.55,5.09-1.19,7.14,5.54,12,5.52.35-5.05.57-10.25,2.54-15,1.29-3.12,3.82-5.44,6-7.88,3.57-1.11,7.14-2.78,11-2.24,7.29,1,14.67.55,22,1.31a81.21,81.21,0,0,0,10.11.2,64.72,64.72,0,0,0,2.43-6.89c1.14-3.71,4.07-6.48,6.95-8.9,6.09-4.62,14.15-5.43,21.54-4.93,9.66.81,18.3,6.89,23.32,15,8.32,10.89,13.34,23.76,20.76,35.21,3.06,4.61,6.2,9.6,11.35,12.09,2.29-16.13.36-32.49-3-48.33-3-.46-7.39-.8-7.74-4.67.42-4.68,4.67-7.8,6.09-12.15,1.58-4.77,2.84-9.85,2.14-14.9-5.45,1-9.89,4.85-15.35,5.81-2.22.39-5,.1-6.07-2.21-.62-2.68-.51-6.18,2.64-7.1,15.21-6.34,29.93-14.08,43-24.19A94.88,94.88,0,0,0,418,296c4.3-5.34,8.21-11.91,7.28-19.06-1.42-10-3.54-20.1-7.62-29.42-1.57-3.59-1.85-7.76-4.13-11,1.53-7.1.27-14.38.06-21.55-.86-8.09-1.13-16.32-3.32-24.2-2.88-11.06-4.47-22.53-9-33.08-4-9-7.3-18.35-11.84-27.13a8.66,8.66,0,0,0-2.19-3,107,107,0,0,0-6.48-11.6,39,39,0,0,0-9.2,2.73c-2.72-.89-6.37-.46-8-3.34-2-2.54.19-5.93,2.73-7,3.07-1.27,6.37-1.86,9.55-2.81-.07-3.41-2.17-6.29-4.73-8.36a14.8,14.8,0,0,1-15.45,2.08c-3.58-2-6.69-4.7-10.19-6.8C339.91,88,333.37,85.07,327,81.93a65.82,65.82,0,0,0-14-4.82c-6.12-3-13.06-3.74-19.65-5.29C280,70,266.46,69,253,69.94,234.77,71.74,216,74.43,199.82,83.59ZM111.75,89a75.22,75.22,0,0,0,0,14.47c3-.78,3.88-4,5.27-6.43,2.1-4.6,5.25-8.58,7.83-12.91-2.67-1.38-5.66-3.07-8.76-2.2S112.06,86.18,111.75,89Zm287.38-4.71c.26,1.56.58,3.11,1,4.64a44.79,44.79,0,0,0,10-4.87C406.59,82.3,402.67,83.07,399.13,84.28Zm-9.67,22.39a8.81,8.81,0,0,0,1.44,6.38c4.43,7.37,8.68,14.86,12.41,22.61,3.09,6.33,5,13.12,7.52,19.67,1.6,4.29,4,8.32,4.74,12.9a79.8,79.8,0,0,0,2.77,12.32c1.87,5.68,1.74,11.78,3.67,17.45.43,10.05,2.41,20,2.42,30.06,4.48-.8,6.91-5.32,8.39-9.2,3.76-11.24,2.82-23.25,2.87-34.91-.08-5.67-1.33-11.24-2-16.86a15.06,15.06,0,0,0-1.9-6.09c-2.17-8.54-3.64-17.37-7.44-25.39-3.71-8.4-8.19-16.7-14.91-23.08-2.44-2.29-4.5-5.16-7.56-6.65C397.75,105.51,393.59,106.16,389.46,106.67ZM127.94,110c1.54,4.93,4.28,9.4,5.58,14.42,3.13,9.2,2.22,19,2.33,28.57.09,7.06-1,14-2.07,21-4.42,20.77-10.34,41.89-23.09,59.24a132.67,132.67,0,0,1-11.56,12c1.74,2.83,4.35,5.59,7.84,6,11.64,1.69,23.35-5.3,28.94-15.36,2-1.39,3.06-3.74,4.27-5.79,2.41-4.58,5.55-8.8,7.2-13.76,2.59-7.41,5.45-14.75,7.59-22.31a176.84,176.84,0,0,0,4.47-30c.05-6.69-1.2-13.31-2.37-19.87-1.47-8.31-5.83-15.74-10.77-22.44-3.23-4.48-7.82-7.73-12.6-10.38C132,110.3,129.89,110.23,127.94,110Zm296.11,1.92c1.67,4.11,4.49,7.59,6.58,11.47,3.75,6.66,6.44,13.84,9,21,2.37,6.87,3.22,14.12,5,21.14,2,7.35.92,15.13,2.93,22.48a10.83,10.83,0,0,0,1.12-4,102.91,102.91,0,0,0-3.12-31.7c-2.91-11.91-6.56-24-14-33.93C429.46,115.88,427.69,112.37,424.05,111.92Zm-329,5.23c-8.83,4.46-15.19,12.44-20,20.89A119.22,119.22,0,0,0,61.85,177.4c-.25,2.5-.47,5-.7,7.5-1,4.12-.7,8.36-.39,12.54a36,36,0,0,0,4.11,18.75c2.77,8,9,14.34,15.84,19.14,2.67,1.55,5.62,3.85,8.89,3.16,4.37-1.89,7.52-5.68,10.49-9.26,5.34-4.7,8.26-11.45,11.49-17.65,7.14-14,10.28-29.53,12.92-44.88,1.85-9.13,1.15-18.5,1.18-27.76.24-7-3.3-13.3-5.16-19.9-1.23-1.83-2.23-4.37-4.69-4.75A31,31,0,0,0,95.07,117.15ZM397.69,327.69c-2.07,1.34-4.47,2.36-6,4.33-.18,6.7,1.19,13.72-1.46,20.12-.56,2.09-2.13,4.16-1.54,6.39,5.18,14.53,7,30.09,6.77,45.46,0,4.63-.8,9.23-.75,13.87,3.45-.54,7-1.18,10-3.15a15.58,15.58,0,0,0,6.78-13.7c-.19-16.67.05-33.35-.26-50-.7-10.66-.48-21.33-.62-32C406.1,321.63,402.23,325.15,397.69,327.69Zm-89.6,47.93c4.76.66,9.78.76,14.07,3.19,3.11,1.38,5.21,4.14,7.81,6.21,1.19,3.21,2.86,6.4,2.71,9.93-.11,11.35,0,22.71-.11,34.07.16,2.15-.51,5.33,2.26,6.05l1.14,1.24a13.89,13.89,0,0,1-.83,7.86c-3.4,8-6.1,17.29-3.18,25.88,1.7,3.87,4.34,8.5,9,9,1.44-4.28.5-9.47,4-12.84a39.62,39.62,0,0,1,6.44.45c1.38,5.38.8,10.86-.2,16.24a50.19,50.19,0,0,0,18.76.86c.14-1.15.29-2.29.44-3.42.08-3.22-.32-6.52.44-9.68,1.05-3.3,5.08-2.59,7.74-2.17,3.28,2.71,1.2,7.57,3.2,11,2.09-1.71,4.65-3.31,5.4-6.08,2.18-6.79.62-14-.94-20.77-1.35-5.42-4.28-10.24-6.14-15.45.21-3,.42-6,.71-9.05-6.1-4.45-12-9.32-16.12-15.74-2.82-3.92-4.6-8.5-7.6-12.29-1.69-4.16-4.13-8-6.23-11.91-4.22-7.43-8.47-15.34-15.57-20.43-4.38-3.31-10.18-2.31-15.28-2.29C314.41,365.6,308.25,369.59,308.09,375.62Zm-48.27,9.29c-4.37,3.91-3.73,10.41-3.48,15.71,2.1,1.26,4.21,2.5,6.42,3.56l1.5,1.27c4.09,3.66,5.58,8.92,7.45,13.85a91.38,91.38,0,0,1,7.94,13.33c1.32,3.48,2.63,7,4.08,10.4a40.3,40.3,0,0,0,.26,4.78c-.34,4.9.17,10.1-2.23,14.6-1.8,3.23-3.49,6.52-5.28,9.75a28.65,28.65,0,0,0-5.15,6.25,61.2,61.2,0,0,0-3.2,6.18c11.2,1.81,22.55,2.31,33.87,2.65,3.85,0,7.77.1,11.53-.87,3.21-.93,5.24-3.77,7.08-6.37.09-5.33,0-10.67-.06-16-.15-6.4,1.88-12.61,1.79-19,.07-14.33,0-28.66.06-43,0-3.43,0-6.95-1.15-10.22-1-3-4.31-4.15-7.07-4.88-6.28-1.26-12.76-1.19-19.14-1.54-9.05.4-18-1.33-27.05-1.1C265.3,384.43,262.32,383.77,259.82,384.91ZM84.93,395.45c-5.26.92-10.19,3.25-14.9,5.71-7.06,4.87-8.63,14.15-9.89,22-4,7.63-4,16.91-2.69,25.26A39.33,39.33,0,0,0,76.13,476c1.83,1.91,4.27,3.07,6.57,4.32,10.43,5.35,21.64,9.48,33.35,10.75a4,4,0,0,0,3.29-.93c2.49,1.87,5.82,1.27,8.7,1.11,6.41-.85,13-2.25,18.55-5.65a53.78,53.78,0,0,0,16.54-17.48c3.68-5.93,5.09-12.93,6.19-19.72a65.43,65.43,0,0,0,.25-12.28,26.47,26.47,0,0,0-13-20.66c-5.83-3.87-13-3.85-19.6-5.64-6.17-.44-12.5-.69-18.62.38-6.82-.78-13.57.8-20.37,1-3.57.09-5.88-4.81-3.44-7.47,2.6-3.12,7.18-1.22,10.58-2.63,1-.21,2-.45,3-.7a39.68,39.68,0,0,0,9-1.31,27.83,27.83,0,0,0,0-6.12,65.45,65.45,0,0,0-13.35-.07C97.43,393,91,393.49,84.93,395.45ZM179.58,448c-1.15,7.22-2.25,14.59-5.38,21.28-1.68,3.84-4.52,7-6.44,10.69,9.84,2.53,20.25,1.54,30.13-.37-.28-4.3-2.21-8.27-2.44-12.56a42.79,42.79,0,0,0-.74-6.7c-1.45-2-3.81-2.92-5.71-4.35C185.48,453.76,183.17,450.1,179.58,448Z" transform="translate(-41.1 -3.32)"/>
  <path class="cls-3" d="M212.22,23A207.69,207.69,0,0,1,241,19.62c15,.2,30.26-.87,45.11,2.18a162.85,162.85,0,0,1,42.94,13.14c2.08,1.15,4.79,2.42,5,5.11.62,3-.56,5.87-2.25,8.26A87.44,87.44,0,0,0,300.15,36,192.06,192.06,0,0,0,271,33c-13-1.24-26.1.43-39,2-5.22.53-10.32,2.07-15.6,2.08-2.9-1.49-5.44-3.7-8.59-4.68-6.06-1.95-12.47-2.17-18.75-2.77C195.28,23.86,204.4,24.55,212.22,23Z" transform="translate(-41.1 -3.32)"/>
  <g>
    <path class="cls-4" d="M231.92,34.92c12.94-1.52,26-3.19,39-2a192.06,192.06,0,0,1,29.19,3,87.44,87.44,0,0,1,31.7,12.35c-2.85,3.44-6.72,7.26-11.62,6.33C314.36,53.3,309,50.4,303.12,49c-17.23-4.62-35.36-6.48-53.12-4.43-8.11.54-16.1,2.07-24.09,3.46a17.91,17.91,0,0,1-4.74.06C220.52,44,219.23,40,216.32,37,221.6,37,226.7,35.45,231.92,34.92Z" transform="translate(-41.1 -3.32)"/>
    <path class="cls-4" d="M64.87,216.19c4,3.55,9,5.8,13.71,8.22,6.65,3.36,14.15,4.38,21.51,4.82-3,3.58-6.12,7.37-10.49,9.26-3.27.69-6.22-1.61-8.89-3.16C73.89,230.53,67.64,224.22,64.87,216.19Z" transform="translate(-41.1 -3.32)"/>
  </g>
  <path class="cls-5" d="M189.89,42.83c5.68-4,13.73-2.12,18.73,2.11-1.61,1-3.25,1.91-4.94,2.74a145.57,145.57,0,0,0-62.41,54.73c-4.49.11-8.72-2.85-13.18-3.71a52.4,52.4,0,0,1,6.48-10.14C148.83,69,168.3,53.57,189.89,42.83Z" transform="translate(-41.1 -3.32)"/>
  <path class="cls-6" d="M344.33,47.19c8.92,2,16.39,7.61,23.52,13.05,5.74,4.3,9.63,10.43,13.81,16.13,4.6,6,7.33,13,11,19.54a48.29,48.29,0,0,1-8.49,1.75c-4.6-6-8-13-13.78-18.07-8.87-9.68-20.15-16.62-31.69-22.65A63.33,63.33,0,0,1,344.33,47.19Z" transform="translate(-41.1 -3.32)"/>
  <path class="cls-7" d="M235,57.2c24.26-4.13,49.71-3.39,73.11,4.67,3.71,1.34,7.22,3.38,11.17,4,4.36.83,9-1.37,13.16.67a85.43,85.43,0,0,1,31.62,22.54c-3.13,1.66-5.92-1.18-8.37-2.78-8.34-6.46-17.73-11.41-27.32-15.73-15.16-5.82-31-10.27-47.31-11.24-27.9-2.5-56.65,1-82.39,12.35a108.33,108.33,0,0,0-13.51,7.47c-3.29,2.29-7.49,1.5-11.24,1.4,9.25-9,20.34-15.94,31.72-21.93,2-.91,3.93-2.24,6.17-2.27,1.85,1,3.44,2.46,5.4,3.27C223.27,60.86,229.11,58.17,235,57.2Z" transform="translate(-41.1 -3.32)"/>
  <g>
    <path class="cls-8" d="M199.82,83.59c16.16-9.16,35-11.85,53.17-13.65,13.47-1,27,0,40.35,1.88,6.59,1.55,13.53,2.24,19.65,5.29-9.26-1.23-18.62-1.45-27.94-1.79-16.11-.49-32,2.82-47.66,6.11-7.1,1.44-14,3.93-19.84,8.35l-1.34.11C210.82,87.61,205.29,85.67,199.82,83.59Z" transform="translate(-41.1 -3.32)"/>
    <path class="cls-8" d="M240.45,377.58c4.47-1,9.13-.42,13.59-1.5-2.22,2.44-4.75,4.76-6,7.88-2,4.74-2.19,9.94-2.54,15-4.87,0-6.92-6.71-12-5.52-3.14,1.15-3.47,4.7-3.8,7.55-1.27-4.18,1.84-7.8,2.68-11.73C233.41,384.57,235.72,379.5,240.45,377.58Z" transform="translate(-41.1 -3.32)"/>
    <path class="cls-8" d="M175.48,399.59c2.62,5.37,4.69,11,7.66,16.22,4.1,7.29,10.27,13,15.78,19.24,4.47,4.89,10.26,9,12.44,15.56,2.83,8.3,2.4,18.09,8.65,24.95,3.29-.7,6.78-1.85,10.1-.68,4.56,1.56,8.89,4.15,13.84,4.23,7,.78,13.66-2.78,18.23-7.82-.23-.61-.67-1.83-.89-2.44l2.55,1.46c-2.81,6.68-7.09,13.25-13.51,16.91-6.45,2.73-13-1.78-17.06-6.49-2.4-2.16-4.35-6.15-8.11-5.58a4.57,4.57,0,0,0-4.26,5.69c.86,2.28,2.5,4.15,3.91,6.12-3.33-.12-7,.3-9.87-1.85-5.24-3.32-7.17-9.61-8.73-15.26-1.54-5.25-.07-10.94-2.07-16.07-.92-2.8-4-3.46-6.37-4.62-5.35-2.26-9.21-6.93-12.24-11.72-5.32-8.21-7.5-17.91-9.54-27.34A36,36,0,0,1,175.48,399.59Z" transform="translate(-41.1 -3.32)"/>
    <path class="cls-8" d="M168.62,447.2l.7,1.16c-1.1,6.79-2.51,13.79-6.19,19.72a53.78,53.78,0,0,1-16.54,17.48c-5.59,3.4-12.14,4.8-18.55,5.65-2.88.16-6.21.76-8.7-1.11-4.51-3.63-9.1-7.17-13.39-11.05-6.36-6.1-13-13-14.12-22.17,8.53,5,17.32,9.92,27,12.29,6.62,1.66,13.51,1.19,20.24.68,10.09-.87,19.14-6.6,26.05-13.73C167.55,453.78,167.91,450.31,168.62,447.2Z" transform="translate(-41.1 -3.32)"/>
  </g>
  <g>
    <path class="cls-9" d="M237.39,81.43c15.67-3.29,31.55-6.6,47.66-6.11,9.32.34,18.68.56,27.94,1.79a65.82,65.82,0,0,1,14,4.82c6.34,3.14,12.88,6,18.44,10.53-4.3,4.08-9.3,7.33-13.6,11.4a72.55,72.55,0,0,0-14.51,18.3c-3.66,8.78-4.19,19.4.59,27.88a35.76,35.76,0,0,0,12.62,13.4c12.53,8.85,28.08,11.35,41.48,18.47,9.6,5.19,19.57,11.26,24.7,21.32,5.71,11,8.13,24,16.79,33.33,2.28,3.24,2.56,7.41,4.13,11,4.08,9.32,6.2,19.38,7.62,29.42.93,7.15-3,13.72-7.28,19.06a94.88,94.88,0,0,1-12.79,13.18c-13.08,10.11-27.8,17.85-43,24.19-3.15.92-3.26,4.42-2.64,7.1,1.05,2.31,3.85,2.6,6.07,2.21,5.46-1,9.9-4.79,15.35-5.81.7,5-.56,10.13-2.14,14.9-1.42,4.35-5.67,7.47-6.09,12.15.35,3.87,4.75,4.21,7.74,4.67,3.32,15.84,5.25,32.2,3,48.33-5.15-2.49-8.29-7.48-11.35-12.09-7.42-11.45-12.44-24.32-20.76-35.21-5-8.14-13.66-14.22-23.32-15-7.39-.5-15.45.31-21.54,4.93-2.88,2.42-5.81,5.19-6.95,8.9a64.72,64.72,0,0,1-2.43,6.89,81.21,81.21,0,0,1-10.11-.2c-7.31-.76-14.69-.33-22-1.31-3.84-.54-7.41,1.13-11,2.24-4.46,1.08-9.12.53-13.59,1.5-4.73,1.92-7,7-8.12,11.67-.84,3.93-4,7.55-2.68,11.73a26.73,26.73,0,0,0,9.53,7c5.89,2.81,13.47.47,18.42,5.46,4.06,2.5.24,8.39,3.85,11.17a38.07,38.07,0,0,1,10.91,17.22c-.61,3.78-.34,8.42-3.3,11.27-5.44,2.05-11.55-1.14-17,1a25.24,25.24,0,0,0-2.48,2.78c.52,2.14.48,4.71,2.26,6.3,2.81,2.41,6.31,3.79,9.46,5.7.22.61.66,1.83.89,2.44-4.57,5-11.27,8.6-18.23,7.82-4.95-.08-9.28-2.67-13.84-4.23-3.32-1.17-6.81,0-10.1.68-6.25-6.86-5.82-16.65-8.65-24.95-2.18-6.55-8-10.67-12.44-15.56-5.51-6.2-11.68-11.95-15.78-19.24-3-5.2-5-10.85-7.66-16.22-1.82-4.67,0-9.9-1.51-14.6-1.53-4.21-8.55-4.17-9.57.37-1.79,7.44.45,15.14.68,22.68-4.91-2.09-9.5-5-14.73-6.25-1.74-.64-3.8-.74-5.26-1.94a52.88,52.88,0,0,1-6.92-10.36c2-3,3.85-6.27,7-8.27,4.71-3.22,10.53-5.38,13.49-10.6A21.94,21.94,0,0,0,160,348.05c.16-.33.48-1,.63-1.33a23.57,23.57,0,0,0,1.61-4.73c-.29-2.08-2.2-3.38-3.17-5.13-.25-.51-.75-1.52-1-2,1.33.05,2.67.13,4,.23,6.54,2,13.18,3.59,19.82,5.22a16.13,16.13,0,0,0,5.74.46c2.78-.87,5.1-4.68,2.83-7.18s-5.68-2.91-8.44-4.47c-9.49-5.24-19.57-9.42-28.55-15.55-9.8-6.28-19.57-12.93-27.45-21.57-3.16-3.22-3-7.94-2.59-12.1l.68-.38c6.38-3.28,9.73-10.07,11.56-16.69.85-3.3.07-6.7-.51-10,3.32-3.9,7.24-7.27,10.1-11.54,8.21-10.86,13-23.74,17.23-36.57.76-1.79,1.1-4,2.62-5.28,14.17-8.9,27.64-19,42.55-26.67,12-5.63,25.18-9.72,35-19.05C254.12,143.52,257,124.61,248,112c-7.41-10.59-19.2-16.61-30.49-22.18C223.36,85.36,230.29,82.87,237.39,81.43Zm-36,129c-7.63,2.12-14.31,6.65-20.35,11.64a6.52,6.52,0,0,0-1.08,9c2.08,1.5,5,1.77,6.9-.24a56.8,56.8,0,0,1,15-9.88,8.31,8.31,0,0,1,8.43.73,155.26,155.26,0,0,1,16.32,13.76c2.21,2.24,6.17,1.53,7.95-.87.35-2.3.5-5.06-1.43-6.74A162.38,162.38,0,0,0,220,216C214.74,212.15,208.11,208,201.39,210.42Zm164.94,2.78c-8.25,2.88-15.21,8.69-20.68,15.39-.73,2.32-.67,5.58,1.86,6.8,2,.35,4.53.8,6-.91A60.26,60.26,0,0,1,366.94,224a5.18,5.18,0,0,1,5.14,0,55.28,55.28,0,0,1,12.43,9.47c2.39,2.42,8.38,1.59,8.16-2.56.84-4.64-3.86-7.17-6.8-9.78C380.37,216.84,373.71,211.6,366.33,213.2ZM290,248a5.94,5.94,0,0,0-3.1,8.22c2.6,3.47,6.73,5.24,9.76,8.27.47,1.46-.38,2.83-1.29,3.9a54.29,54.29,0,0,1-13.92,12.06c-3.59,2.09-8.59,3.08-12.1.28-2.55-1.76-4.59-5.18-8.17-4.38-4.31,0-4.91,5.78-3,8.63a21,21,0,0,0,9.09,6.6c8.3,2.71,17.27-.29,24.13-5.18,3.33-2.27,5.87-5.48,9.07-7.9l1.36-.17c4.49,3.86,8.69,8.22,14.12,10.83,6.13,3.6,13.55,1.86,19.86-.28,3.46-1.49,7.69-4.38,6.86-8.74a3.68,3.68,0,0,0-3.75-3.86c-3.8-.75-6.16,2.95-9.39,4.11-3.76.84-8,.68-11.24-1.6-5.34-3.54-10.31-8-13.37-13.72,2.67-3,5.9-5.46,8.78-8.25,2.89-2.6,2.17-8.48-1.91-9.43C304.7,245.55,296.82,245,290,248Zm-99.63,1.4a20.39,20.39,0,0,0-13.85,9.1c-2.86,5.29-1.45,12.16,2.58,16.46,2.63,2.74,5.61,5.47,9.33,6.58,8.87,2.12,18.52,1.59,26.8-2.41,4.38-2.72,8.24-7.54,7.58-13s-5-9.58-9.34-12.5A38.13,38.13,0,0,0,190.33,249.35Zm188.86,2.21a21.46,21.46,0,0,0-19.57,11.06c-1.55,3.46-.95,7.67.83,10.93A17,17,0,0,0,375,280.17c6.79.57,14.24-.94,18.81-6.38,3.47-4.42,4.82-11.75.52-16.09C390.44,253.63,384.67,251.9,379.19,251.56Zm-76.72,52.15c-3.11.47-6.26.07-9.38.26-1.82.55-4.11,1.87-3.81,4.09-.7,3.86,3.44,6,6.69,6.25,4.23.35,8.91.57,12.69-1.67,2.59-1.4,2.31-4.7,1.72-7.13C308.93,302.42,305.15,303.51,302.47,303.71Zm-44.06,29.7c-2.89.17-6.41.15-8.24,2.8-1.94,2.35-1.12,5.78.46,8.09,3.72,6.33,10.79,9.58,17.58,11.5,5.32,1.3,11,2.93,16.42,1,4.78-1.7,9.69-3.35,13.95-6.18a6.63,6.63,0,0,0,1.82-8.95c-2.26-2.22-5.47-3-8.47-3.64-7.66-1.31-15.51-1.25-23.12-2.91C265.38,334.35,262,333.32,258.41,333.41Z" transform="translate(-41.1 -3.32)"/>
    <path class="cls-9" d="M334,398.61c6.25,2.42,10,8.28,14.78,12.65,8.44,8.58,17.29,18.58,29.88,20.36.47,1.85.92,3.71,1.47,5.55,1.86,5.21,4.79,10,6.14,15.45,1.56,6.74,3.12,14,.94,20.77-.75,2.77-3.31,4.37-5.4,6.08-2-3.39.08-8.25-3.2-11-2.66-.42-6.69-1.13-7.74,2.17-.76,3.16-.36,6.46-.44,9.68-5.92-.05-12.12-.33-17.32-3.47-.13-3.46-.25-7-1.68-10.21a39.62,39.62,0,0,0-6.44-.45c-3.22.65-5-2.47-6.34-4.83-3.11-5.7-2.44-12.46-1.92-18.68.1-2.15.67-4.54-.71-6.41l-1.14-1.24c-1.69-4.5-1.21-9.37-1.19-14.07C333.83,413.54,333.29,406.06,334,398.61Z" transform="translate(-41.1 -3.32)"/>
    <path class="cls-9" d="M118.38,410.16c6.12-1.07,12.45-.82,18.62-.38,6.56,1.79,13.77,1.77,19.6,5.64a26.47,26.47,0,0,1,13,20.66,65.43,65.43,0,0,1-.25,12.28l-.7-1.16c-.71,3.11-1.07,6.58-3.5,8.92-6.91,7.13-16,12.86-26.05,13.73-6.73.51-13.62,1-20.24-.68-9.68-2.37-18.47-7.29-27-12.29a48.09,48.09,0,0,1,10-32c3.73-5.64,9.14-9.75,14.24-14.05Z" transform="translate(-41.1 -3.32)"/>
  </g>
  <path class="cls-10" d="M111.75,89c.31-2.81,1.37-6.15,4.38-7.07s6.09.82,8.76,2.2c-2.58,4.33-5.73,8.31-7.83,12.91-1.39,2.38-2.27,5.65-5.27,6.43A75.22,75.22,0,0,1,111.75,89Z" transform="translate(-41.1 -3.32)"/>
  <path class="cls-11" d="M191.11,88.16c2.87-1.54,5.42-4,8.71-4.57,5.47,2.08,11,4,16.39,6.3-6,2.53-11.27,6.21-16.78,9.52-4.12,2.54-8.91,3.44-13.54,4.55-3.23.64-4.89,3.79-7.44,5.54-2,.63-4.11.13-6.08-.35l-.67-.44c2.94-.27,6.89.71,8.68-2.37,1.87-2.47,0-6.08-2.71-7-5-2.13-10-4.34-14.37-7.69l.24-2.29c3.35-.56,6.54.87,9.78,1.46C179.3,92.08,185.9,91.59,191.11,88.16Z" transform="translate(-41.1 -3.32)"/>
  <path class="cls-12" d="M399.13,84.28c3.54-1.21,7.46-2,11-.23a44.79,44.79,0,0,1-10,4.87C399.71,87.39,399.39,85.84,399.13,84.28Z" transform="translate(-41.1 -3.32)"/>
  <g>
    <path class="cls-13" d="M216.21,89.89l1.34-.11C228.84,95.35,240.63,101.37,248,112c9,12.65,6.08,31.56-5.32,41.76-9.83,9.33-23,13.42-35,19.05-14.91,7.69-28.38,17.77-42.55,26.67-.52-4.27,1.31-8.27,2.09-12.38,2.26-9.17,2.27-18.67,2.15-28.05-.18-5.12-.25-10.3-1.38-15.31-1.33-4.23-2.87-8.39-4.16-12.63-1.52-5.08-4.7-9.38-7.08-14a143.09,143.09,0,0,1,15.59-7.87c2,.48,4.09,1,6.08.35,2.55-1.75,4.21-4.9,7.44-5.54,4.63-1.11,9.42-2,13.54-4.55C204.94,96.1,210.26,92.42,216.21,89.89Zm-5.9,53.24c-3.92,1.09-8,2.32-11.22,4.92-2.78,2.62-.44,7.46,3.15,7.67,3.33,0,6.28-1.94,9.47-2.67,2.22-.86,5-.82,6.68-2.75,1.84-2,.9-5.19-.82-7C215.34,142.12,212.67,142.6,210.31,143.13Z" transform="translate(-41.1 -3.32)"/>
    <path class="cls-13" d="M345.47,92.46c3.5,2.1,6.61,4.82,10.19,6.8a14.8,14.8,0,0,0,15.45-2.08c2.56,2.07,4.66,4.95,4.73,8.36-3.18.95-6.48,1.54-9.55,2.81-2.54,1.1-4.75,4.49-2.73,7,1.59,2.88,5.24,2.45,8,3.34,5.18,3,10.33,6.13,15.68,8.87a8.66,8.66,0,0,1,2.19,3c4.54,8.78,7.85,18.1,11.84,27.13,4.58,10.55,6.17,22,9,33.08,2.19,7.88,2.46,16.11,3.32,24.2.21,7.17,1.47,14.45-.06,21.55-8.66-9.33-11.08-22.31-16.79-33.33-5.13-10.06-15.1-16.13-24.7-21.32-13.4-7.12-28.95-9.62-41.48-18.47A35.76,35.76,0,0,1,318,150c-4.78-8.48-4.25-19.1-.59-27.88a72.55,72.55,0,0,1,14.51-18.3C336.17,99.79,341.17,96.54,345.47,92.46ZM355.26,148c-3.48,1.58-3.55,7.18-.07,8.78,2.84,1.19,6.11.94,8.9,2.3,2.5,1.16,4.9,3.06,7.82,2.67,3.52.32,5.61-4.52,3.44-7.09C371.11,148.16,362.37,146.69,355.26,148Z" transform="translate(-41.1 -3.32)"/>
  </g>
  <path class="cls-14" d="M156.08,99.23c2.24,1.4,4.43,2.88,6.61,4.37-5.43,1.42-6.75,7.49-7.65,12.27a38.88,38.88,0,0,1-5.85-6.77A67.59,67.59,0,0,1,156.08,99.23Z" transform="translate(-41.1 -3.32)"/>
  <path class="cls-15" d="M155,115.87c.9-4.78,2.22-10.85,7.65-12.27,3,1.67,6.23,3,9,5.11l.67.44A143.09,143.09,0,0,0,156.78,117l-.75.07Z" transform="translate(-41.1 -3.32)"/>
  <path class="cls-16" d="M389.46,106.67c4.13-.51,8.29-1.16,12.46-.79,3.06,1.49,5.12,4.36,7.56,6.65,6.72,6.38,11.2,14.68,14.91,23.08,3.8,8,5.27,16.85,7.44,25.39,1.81,12.27,3.66,24.63,3.27,37.06.06,5-3.09,9.25-6.19,12.9-1,1.45-2.82,1.68-4.4,2.08-.69-5-1-10.17-2.5-15-1.93-5.67-1.8-11.77-3.67-17.45a79.8,79.8,0,0,1-2.77-12.32c-.73-4.58-3.14-8.61-4.74-12.9-2.53-6.55-4.43-13.34-7.52-19.67-3.73-7.75-8-15.24-12.41-22.61A8.81,8.81,0,0,1,389.46,106.67Z" transform="translate(-41.1 -3.32)"/>
  <g>
    <path class="cls-17" d="M127.94,110c1.95.23,4,.3,5.76,1.31,4.78,2.65,9.37,5.9,12.6,10.38,4.94,6.7,9.3,14.13,10.77,22.44,1.17,6.56,2.42,13.18,2.37,19.87A176.84,176.84,0,0,1,155,194c-2.14,7.56-5,14.9-7.59,22.31-1.65,5-4.79,9.18-7.2,13.76-1.21,2-2.24,4.4-4.27,5.79-6.64,2.75-14.06,5.56-21.26,3.38-2.81-.64-3.25-3.72-4-6,12.75-17.35,18.67-38.47,23.09-59.24,1.05-7,2.16-13.94,2.07-21-.11-9.54.8-19.37-2.33-28.57C132.22,119.4,129.48,114.93,127.94,110Z" transform="translate(-41.1 -3.32)"/>
    <path class="cls-17" d="M264.26,405.45c1.21-3.52,1.22-9.39,5.93-10,10.28-.6,20.58,0,30.84.74,3.41.37,7.82-.56,10.19,2.6,2.54,3.16,1.61,7.47,1.6,11.21-.5,5.83.34,11.72-.47,17.53a6.8,6.8,0,0,1-7.32,5.54c-8.46-.21-16.92-1.52-25.38-.46a91.38,91.38,0,0,0-7.94-13.33C269.84,414.37,268.35,409.11,264.26,405.45Z" transform="translate(-41.1 -3.32)"/>
  </g>
  <path class="cls-18" d="M424.05,111.92c3.64.45,5.41,4,7.49,6.52,7.48,9.93,11.13,22,14,33.93a102.91,102.91,0,0,1,3.12,31.7,10.83,10.83,0,0,1-1.12,4c-2-7.35-.93-15.13-2.93-22.48-1.81-7-2.66-14.27-5-21.14-2.55-7.18-5.24-14.36-9-21C428.54,119.51,425.72,116,424.05,111.92Z" transform="translate(-41.1 -3.32)"/>
  <path class="cls-19" d="M95.07,117.15a31,31,0,0,1,20.76-2.86c2.46.38,3.46,2.92,4.69,4.75-10.88,1.66-23.39,3.55-30.25,13.22-5.94,9-11.52,18.42-14.2,28.92-1.66,5.22-2.58,11.19-6.8,15.06-1.93,2.08-4.94,1.2-7.42,1.16A119.22,119.22,0,0,1,75.07,138C79.88,129.59,86.24,121.61,95.07,117.15Z" transform="translate(-41.1 -3.32)"/>
  <path class="cls-20" d="M371.52,118.72a39,39,0,0,1,9.2-2.73,107,107,0,0,1,6.48,11.6C381.85,124.85,376.7,121.75,371.52,118.72Z" transform="translate(-41.1 -3.32)"/>
  <path class="cls-21" d="M120.52,119c1.86,6.6,5.4,12.87,5.16,19.9,0,9.26.67,18.63-1.18,27.76-2.64,15.35-5.78,30.91-12.92,44.88-3.23,6.2-6.15,12.95-11.49,17.65-7.36-.44-14.86-1.46-21.51-4.82-4.74-2.42-9.68-4.67-13.71-8.22a36,36,0,0,1-4.11-18.75c2.7-.91,6.36-1.1,7.66-4.09,1.19-2.13,1-5.23-1.21-6.62a28.26,28.26,0,0,0-6.06-1.83c.23-2.5.45-5,.7-7.5,2.48,0,5.49.92,7.42-1.16,4.22-3.87,5.14-9.84,6.8-15.06,2.68-10.5,8.26-20,14.2-28.92C97.13,122.59,109.64,120.7,120.52,119Z" transform="translate(-41.1 -3.32)"/>
  <path class="cls-22" d="M210.31,143.13c2.36-.53,5-1,7.26.22,1.72,1.76,2.66,4.94.82,7-1.64,1.93-4.46,1.89-6.68,2.75-3.19.73-6.14,2.71-9.47,2.67-3.59-.21-5.93-5.05-3.15-7.67C202.3,145.45,206.39,144.22,210.31,143.13Z" transform="translate(-41.1 -3.32)"/>
  <path class="cls-23" d="M355.26,148c7.11-1.31,15.85.16,20.09,6.66,2.17,2.57.08,7.41-3.44,7.09-2.92.39-5.32-1.51-7.82-2.67-2.79-1.36-6.06-1.11-8.9-2.3C351.71,155.18,351.78,149.58,355.26,148Z" transform="translate(-41.1 -3.32)"/>
  <path class="cls-24" d="M431.83,161a15.06,15.06,0,0,1,1.9,6.09c.63,5.62,1.88,11.19,2,16.86-.05,11.66.89,23.67-2.87,34.91-1.48,3.88-3.91,8.4-8.39,9.2,0-10.08-2-20-2.42-30.06,1.54,4.87,1.81,10,2.5,15,1.58-.4,3.38-.63,4.4-2.08,3.1-3.65,6.25-7.87,6.19-12.9C435.49,185.63,433.64,173.27,431.83,161Z" transform="translate(-41.1 -3.32)"/>
  <path class="cls-25" d="M61.15,184.9a28.26,28.26,0,0,1,6.06,1.83c2.21,1.39,2.4,4.49,1.21,6.62-1.3,3-5,3.18-7.66,4.09C60.45,193.26,60.18,189,61.15,184.9Z" transform="translate(-41.1 -3.32)"/>
  <path class="cls-26" d="M201.39,210.42c6.72-2.4,13.35,1.73,18.59,5.58a162.38,162.38,0,0,1,13.15,11.85c1.93,1.68,1.78,4.44,1.43,6.74-1.78,2.4-5.74,3.11-7.95.87a155.26,155.26,0,0,0-16.32-13.76,8.31,8.31,0,0,0-8.43-.73,56.8,56.8,0,0,0-15,9.88c-1.87,2-4.82,1.74-6.9.24a6.52,6.52,0,0,1,1.08-9C187.08,217.07,193.76,212.54,201.39,210.42Z" transform="translate(-41.1 -3.32)"/>
  <path class="cls-27" d="M366.33,213.2c7.38-1.6,14,3.64,19.54,7.92,2.94,2.61,7.64,5.14,6.8,9.78.22,4.15-5.77,5-8.16,2.56A55.28,55.28,0,0,0,372.08,224a5.18,5.18,0,0,0-5.14,0,60.26,60.26,0,0,0-13.41,10.48c-1.49,1.71-4,1.26-6,.91-2.53-1.22-2.59-4.48-1.86-6.8C351.12,221.89,358.08,216.08,366.33,213.2Z" transform="translate(-41.1 -3.32)"/>
  <path class="cls-28" d="M99.13,245.26a132.67,132.67,0,0,0,11.56-12c.71,2.31,1.15,5.39,4,6,7.2,2.18,14.62-.63,21.26-3.38-5.59,10.06-17.3,17.05-28.94,15.36C103.48,250.85,100.87,248.09,99.13,245.26Z" transform="translate(-41.1 -3.32)"/>
  <path class="cls-29" d="M290,248c6.86-2.94,14.74-2.4,21.83-.61,4.08.95,4.8,6.83,1.91,9.43-2.88,2.79-6.11,5.23-8.78,8.25,3.06,5.7,8,10.18,13.37,13.72,3.25,2.28,7.48,2.44,11.24,1.6,3.23-1.16,5.59-4.86,9.39-4.11a3.68,3.68,0,0,1,3.75,3.86c.83,4.36-3.4,7.25-6.86,8.74-6.31,2.14-13.73,3.88-19.86.28-5.43-2.61-9.63-7-14.12-10.83l-1.36.17c-3.2,2.42-5.74,5.63-9.07,7.9-6.86,4.89-15.83,7.89-24.13,5.18a21,21,0,0,1-9.09-6.6c-1.95-2.85-1.35-8.65,3-8.63,3.58-.8,5.62,2.62,8.17,4.38,3.51,2.8,8.51,1.81,12.1-.28a54.29,54.29,0,0,0,13.92-12.06c.91-1.07,1.76-2.44,1.29-3.9-3-3-7.16-4.8-9.76-8.27A5.94,5.94,0,0,1,290,248Z" transform="translate(-41.1 -3.32)"/>
  <g>
    <path class="cls-30" d="M190.33,249.35a38.13,38.13,0,0,1,23.1,4.24c4.31,2.92,8.75,7,9.34,12.5s-3.2,10.27-7.58,13c-8.28,4-17.93,4.53-26.8,2.41-3.72-1.11-6.7-3.84-9.33-6.58-4-4.3-5.44-11.17-2.58-16.46A20.39,20.39,0,0,1,190.33,249.35Z" transform="translate(-41.1 -3.32)"/>
    <path class="cls-30" d="M379.19,251.56c5.48.34,11.25,2.07,15.12,6.14,4.3,4.34,2.95,11.67-.52,16.09-4.57,5.44-12,6.95-18.81,6.38a17,17,0,0,1-14.53-6.62c-1.78-3.26-2.38-7.47-.83-10.93A21.46,21.46,0,0,1,379.19,251.56Z" transform="translate(-41.1 -3.32)"/>
  </g>
  <path class="cls-31" d="M126.2,258.28c2.9-2,6-3.59,9-5.45.58,3.27,1.36,6.67.51,10-1.83,6.62-5.18,13.41-11.56,16.69a44.55,44.55,0,0,1-1-16.42C123.34,261.07,124.86,259.62,126.2,258.28Z" transform="translate(-41.1 -3.32)"/>
  <path class="cls-32" d="M113,262.09c4.3-1.6,8.85-2.4,13.22-3.81-1.34,1.34-2.86,2.79-3,4.79a44.55,44.55,0,0,0,1,16.42l-.68.38c-4,2.23-8.71,2.26-13.18,2.29C110.49,275.5,109.44,268.05,113,262.09Z" transform="translate(-41.1 -3.32)"/>
  <path class="cls-33" d="M110.3,282.16c4.47,0,9.16-.06,13.18-2.29-.37,4.16-.57,8.88,2.59,12.1,7.88,8.64,17.65,15.29,27.45,21.57,9,6.13,19.06,10.31,28.55,15.55-6.48-.14-12.57-2.59-18.69-4.47-18.56-6.71-37.58-15-50.95-30C109.13,291.3,110.28,286.32,110.3,282.16Z" transform="translate(-41.1 -3.32)"/>
  <path class="cls-34" d="M302.47,303.71c2.68-.2,6.46-1.29,7.91,1.8.59,2.43.87,5.73-1.72,7.13-3.78,2.24-8.46,2-12.69,1.67-3.25-.24-7.39-2.39-6.69-6.25-.3-2.22,2-3.54,3.81-4.09C296.21,303.78,299.36,304.18,302.47,303.71Z" transform="translate(-41.1 -3.32)"/>
  <path class="cls-35" d="M397.69,327.69c4.54-2.54,8.41-6.06,12.89-8.69.14,10.67-.08,21.34.62,32,.31,16.66.07,33.34.26,50a15.58,15.58,0,0,1-6.78,13.7c-3,2-6.55,2.61-10,3.15-.05-4.64.72-9.24.75-13.87.28-15.37-1.59-30.93-6.77-45.46-.59-2.23,1-4.3,1.54-6.39,2.65-6.4,1.28-13.42,1.46-20.12C393.22,330.05,395.62,329,397.69,327.69Zm-1,6.33c-.31,5.84.66,11.88-1.34,17.52-.67,2.64-2.3,5.35-1.25,8.12a138.94,138.94,0,0,1,5.73,51.89c4.35-.65,7.21-5.26,6.9-9.48-.16-24.46.05-48.94-.73-73.39C402.51,329.77,399.6,332,396.65,334Z" transform="translate(-41.1 -3.32)"/>
  <path class="cls-36" d="M145,329.12c5.77,1.74,11.46,3.79,17.09,5.94-1.33-.1-2.67-.18-4-.23.24.51.74,1.52,1,2-3-.11-6.21.13-9.11-.9C147.23,334.73,145.86,331.85,145,329.12Z" transform="translate(-41.1 -3.32)"/>
  <path class="cls-37" d="M258.41,333.41c3.54-.09,7,.94,10.4,1.67,7.61,1.66,15.46,1.6,23.12,2.91,3,.62,6.21,1.42,8.47,3.64a6.63,6.63,0,0,1-1.82,8.95c-4.26,2.83-9.17,4.48-13.95,6.18-5.38,2-11.1.34-16.42-1-6.79-1.92-13.86-5.17-17.58-11.5-1.58-2.31-2.4-5.74-.46-8.09C252,333.56,255.52,333.58,258.41,333.41Z" transform="translate(-41.1 -3.32)"/>
  <path class="cls-38" d="M139.75,349.74c6.14-4.38,14-1.44,20.92-3-.15.33-.47,1-.63,1.33-6.12.45-14-.88-18.15,4.78-4.91,8.11-6.29,17.9-5.92,27.25a28.81,28.81,0,0,0,1.86,8.72c-.52,3.42-1.3,6.79-1.84,10.21a23.11,23.11,0,0,1-8.45-.51,241.14,241.14,0,0,1,.11-25.08C129.64,364.84,131.69,354.76,139.75,349.74Z" transform="translate(-41.1 -3.32)"/>
  <path class="cls-39" d="M141.89,352.83c4.17-5.66,12-4.33,18.15-4.78a21.94,21.94,0,0,1-1.42,22.57c-3,5.22-8.78,7.38-13.49,10.6-3.11,2-5,5.25-7,8.27l-.34-.69a28.81,28.81,0,0,1-1.86-8.72C135.6,370.73,137,360.94,141.89,352.83Z" transform="translate(-41.1 -3.32)"/>
  <path class="cls-40" d="M308.09,375.62c.16-6,6.32-10,11.9-10.16,5.1,0,10.9-1,15.28,2.29,7.1,5.09,11.35,13,15.57,20.43,2.1,3.95,4.54,7.75,6.23,11.91-.05.43-.14,1.3-.19,1.73-5.32-4.25-9.24-10.11-15.17-13.59-3.56-2.13-7.79-2.33-11.74-3.21-2.6-2.07-4.7-4.83-7.81-6.21C317.87,376.38,312.85,376.28,308.09,375.62Z" transform="translate(-41.1 -3.32)"/>
  <path class="cls-41" d="M259.82,384.91c2.5-1.14,5.48-.48,8.17-.65,9.05-.23,18,1.5,27.05,1.1,6.38.35,12.86.28,19.14,1.54-16.73-.2-33.41-1.61-50.12-2a35.89,35.89,0,0,0-1.3,19.29c-2.21-1.06-4.32-2.3-6.42-3.56C256.09,395.32,255.45,388.82,259.82,384.91Z" transform="translate(-41.1 -3.32)"/>
  <path class="cls-42" d="M264.06,384.89c16.71.4,33.39,1.81,50.12,2,2.76.73,6,1.92,7.07,4.88,1.15,3.27,1.13,6.79,1.15,10.22-.11,14.33,0,28.66-.06,43,.09,6.4-1.94,12.61-1.79,19,0,5.33.15,10.67.06,16A51.52,51.52,0,0,1,309,481c-11-.16-22,.23-33-.78a8.42,8.42,0,0,1-4.65-1.8,28.65,28.65,0,0,1,5.15-6.25c6.15,5.26,15.55,5.58,22.51,1.8,6.2-3.46,8.08-11.39,7.22-18-.46-4.88-4.31-8.62-8.51-10.68s-9.27-2-14-2.28c-1.45-3.43-2.76-6.92-4.08-10.4,8.46-1.06,16.92.25,25.38.46a6.8,6.8,0,0,0,7.32-5.54c.81-5.81,0-11.7.47-17.53,0-3.74.94-8-1.6-11.21-2.37-3.16-6.78-2.23-10.19-2.6-10.26-.73-20.56-1.34-30.84-.74-4.71.59-4.72,6.46-5.93,10l-1.5-1.27A35.89,35.89,0,0,1,264.06,384.89Z" transform="translate(-41.1 -3.32)"/>
  <path class="cls-43" d="M330,385c3.95.88,8.18,1.08,11.74,3.21,5.93,3.48,9.85,9.34,15.17,13.59.05-.43.14-1.3.19-1.73,3,3.79,4.78,8.37,7.6,12.29,4.13,6.42,10,11.29,16.12,15.74-.29,3-.5,6-.71,9.05-.55-1.84-1-3.7-1.47-5.55-12.59-1.78-21.44-11.78-29.88-20.36C344,406.89,340.2,401,334,398.61c-.66,7.45-.12,14.93-.31,22.39,0,4.7-.5,9.57,1.19,14.07-2.77-.72-2.1-3.9-2.26-6.05.09-11.36,0-22.72.11-34.07C332.83,391.42,331.16,388.23,330,385Z" transform="translate(-41.1 -3.32)"/>
  <path class="cls-44" d="M137.83,388.8l.34.69a52.88,52.88,0,0,0,6.92,10.36A47.85,47.85,0,0,1,136,399C136.53,395.59,137.31,392.22,137.83,388.8Z" transform="translate(-41.1 -3.32)"/>
  <path class="cls-45" d="M84.93,395.45c6.07-2,12.5-2.47,18.84-2.61,1.42,2.52,2.91,5,4.39,7.5-1,.25-2,.49-3,.7-2.36-.07-4.71-.25-7.06-.46C94.08,398.05,89.79,395.71,84.93,395.45Z" transform="translate(-41.1 -3.32)"/>
  <path class="cls-46" d="M103.77,392.84a65.45,65.45,0,0,1,13.35.07,27.83,27.83,0,0,1,0,6.12,39.68,39.68,0,0,1-9,1.31C106.68,397.85,105.19,395.36,103.77,392.84Z" transform="translate(-41.1 -3.32)"/>
  <path class="cls-47" d="M70,401.16c4.71-2.46,9.64-4.79,14.9-5.71,4.86.26,9.15,2.6,13.16,5.13a15.47,15.47,0,0,0-4.28,2.28c-1.24,1.82-1.49,4.09-2.07,6.17-6.66.5-13.75-.38-19.9,2.82-3.82,1.62-6.39,5-9,8.08C62,421,61,422.08,60.14,423.19,61.4,415.31,63,406,70,401.16Z" transform="translate(-41.1 -3.32)"/>
  <path class="cls-48" d="M93.81,402.86a15.47,15.47,0,0,1,4.28-2.28c2.35.21,4.7.39,7.06.46-3.4,1.41-8-.49-10.58,2.63-2.44,2.66-.13,7.56,3.44,7.47,6.8-.18,13.55-1.76,20.37-1l-2.3.7c-7.28.2-14.62,1.82-21.86.33-.82-.73-1.65-1.45-2.48-2.16C92.32,407,92.57,404.68,93.81,402.86Z" transform="translate(-41.1 -3.32)"/>
  <path class="cls-49" d="M71.84,411.85c6.15-3.2,13.24-2.32,19.9-2.82.83.71,1.66,1.43,2.48,2.16-11.41,5.05-20.4,15.42-22.35,27.92l-2,.76c-4.75-5.56-5.94-12.94-7-19.94C65.45,416.83,68,413.47,71.84,411.85Z" transform="translate(-41.1 -3.32)"/>
  <path class="cls-50" d="M94.22,411.19c7.24,1.49,14.58-.13,21.86-.33-5.1,4.3-10.51,8.41-14.24,14.05a48.09,48.09,0,0,0-10,32c-7-4.71-15-8.3-20.36-15.16l.4-2.61C73.82,426.61,82.81,416.24,94.22,411.19Z" transform="translate(-41.1 -3.32)"/>
  <path class="cls-51" d="M60.14,423.19c.89-1.11,1.82-2.18,2.73-3.26,1,7,2.21,14.38,7,19.94l2-.76-.4,2.61c-1.8,11.57-1,23.79,4.66,34.24a39.33,39.33,0,0,1-18.68-27.51C56.09,440.1,56.13,430.82,60.14,423.19Z" transform="translate(-41.1 -3.32)"/>
  <path class="cls-52" d="M336,436.31c1.38,1.87.81,4.26.71,6.41-.52,6.22-1.19,13,1.92,18.68,1.35,2.36,3.12,5.48,6.34,4.83-3.51,3.37-2.57,8.56-4,12.84-4.63-.52-7.27-5.15-9-9-2.92-8.59-.22-17.84,3.18-25.88A13.89,13.89,0,0,0,336,436.31Z" transform="translate(-41.1 -3.32)"/>
  <path class="cls-53" d="M76.13,476c-5.66-10.45-6.46-22.67-4.66-34.24,5.33,6.86,13.32,10.45,20.36,15.16C93,466.06,99.59,473,106,479.05c4.29,3.88,8.88,7.42,13.39,11.05a4,4,0,0,1-3.29.93c-11.71-1.27-22.92-5.4-33.35-10.75C80.4,479,78,477.87,76.13,476Z" transform="translate(-41.1 -3.32)"/>
  <path class="cls-54" d="M272.36,441.79c2.32,6.46,2,14.13-1.68,20-5-1.26-8.9-4.76-13.4-7.06-2.77-1.47-5.32,1-7.71,2.08a25.24,25.24,0,0,1,2.48-2.78c5.46-2.15,11.57,1,17-1C272,450.21,271.75,445.57,272.36,441.79Z" transform="translate(-41.1 -3.32)"/>
  <path class="cls-55" d="M283.73,443c4.7.26,9.64.16,14,2.28s8.05,5.8,8.51,10.68c.86,6.58-1,14.51-7.22,18-7,3.78-16.36,3.46-22.51-1.8,1.79-3.23,3.48-6.52,5.28-9.75a7,7,0,0,0,8.11,4.48c4.86-.37,7.86-7.47,4.11-10.88-2.41-2.15-5.94-1.44-8.89-1.71-.39-2.17-.79-4.33-1.1-6.49A40.3,40.3,0,0,1,283.73,443Z" transform="translate(-41.1 -3.32)"/>
  <path class="cls-56" d="M179.58,448c3.59,2.11,5.9,5.77,9.42,8,1.9,1.43,4.26,2.39,5.71,4.35a42.79,42.79,0,0,1,.74,6.7c.23,4.29,2.16,8.26,2.44,12.56-9.88,1.91-20.29,2.9-30.13.37,1.92-3.7,4.76-6.85,6.44-10.69C177.33,462.58,178.43,455.21,179.58,448Z" transform="translate(-41.1 -3.32)"/>
  <path class="cls-57" d="M284,447.81c.31,2.16.71,4.32,1.1,6.49,3,.27,6.48-.44,8.89,1.71,3.75,3.41.75,10.51-4.11,10.88a7,7,0,0,1-8.11-4.48C284.16,457.91,283.65,452.71,284,447.81Z" transform="translate(-41.1 -3.32)"/>
  <path class="cls-58" d="M351.38,466.68c1.43,3.21,1.55,6.75,1.68,10.21,5.2,3.14,11.4,3.42,17.32,3.47-.15,1.13-.3,2.27-.44,3.42a50.19,50.19,0,0,1-18.76-.86C352.18,477.54,352.76,472.06,351.38,466.68Z" transform="translate(-41.1 -3.32)"/>
  <path class="cls-59" d="M268.13,484.59a61.2,61.2,0,0,1,3.2-6.18,8.42,8.42,0,0,0,4.65,1.8c11,1,22,.62,33,.78a51.52,51.52,0,0,0,11.62-1c-1.84,2.6-3.87,5.44-7.08,6.37-3.76,1-7.68.87-11.53.87C290.68,486.9,279.33,486.4,268.13,484.59Z" transform="translate(-41.1 -3.32)"/>
</svg>
