<svg id="Layer_1" data-name="Layer 1" xmlns="http://www.w3.org/2000/svg" viewBox="0 0 439.16 498.08">
  <defs>
    <style>
      .cls-1 {
        fill: #fafcfd;
      }

      .cls-2 {
        fill: #0a1f2d;
      }

      .cls-3 {
        fill: #f7efed;
      }

      .cls-4 {
        fill: #ee4a22;
      }

      .cls-5 {
        fill: #bb4026;
      }

      .cls-6 {
        fill: #0e1d2a;
      }

      .cls-7 {
        fill: #0c1f2a;
      }

      .cls-8 {
        fill: #09202e;
      }

      .cls-9 {
        fill: #09202d;
      }

      .cls-10 {
        fill: #fcffff;
      }

      .cls-11 {
        fill: #fdfdfe;
      }

      .cls-12 {
        fill: #f9fcfe;
      }

      .cls-13 {
        fill: #f8fdfb;
      }

      .cls-14 {
        fill: #c0bdbe;
      }

      .cls-15 {
        fill: #0a1d2d;
      }

      .cls-16 {
        fill: #c1bebf;
      }

      .cls-17 {
        fill: #c1bdbe;
      }

      .cls-18 {
        fill: #b54227;
      }

      .cls-19 {
        fill: #ea4a24;
      }

      .cls-20 {
        fill: #faeeec;
      }

      .cls-21 {
        fill: #c1bdbd;
      }

      .cls-22 {
        fill: #f7eeed;
      }

      .cls-23 {
        fill: #c0bdbd;
      }

      .cls-24 {
        fill: #ba4025;
      }

      .cls-25 {
        fill: #bfbdbe;
      }

      .cls-26 {
        fill: #bfbdbd;
      }

      .cls-27 {
        fill: #c1bdbf;
      }

      .cls-28 {
        fill: #bebec2;
      }

      .cls-29 {
        fill: #c1c0c3;
      }

      .cls-30 {
        fill: #c0bdc0;
      }
    </style>
  </defs>
  <path class="cls-1" d="M179.67,37.65C215.47,16.24,257.05,2.9,299,4.49c25.17,2,50.33,8.49,72.19,21.4,11.06,6.13,20.92,14.16,30.36,22.52,2.81,2.44,5,5.57,8.14,7.63,11.16.7,22.41.75,33.54,2.11,6.91,1.3,14.86,3.31,18.6,9.89a29.16,29.16,0,0,1,1.55,18.25c-2.64,12.75-9.43,24-16.19,34.92a11.3,11.3,0,0,0-1.74,3.74c9.34,25.16,12.46,52,16.23,78.44,3.58,10.17,6.95,20.52,8,31.31,2.48,12.57-1.7,25.7-9.24,35.8-10,13.56-23.75,23.78-38.27,32,2.14,7.32,4.45,14.76,4.15,22.49.12,4.3-1.19,8.5-1.1,12.79,1.48,4.81,4.48,9,6.17,13.78,4.22,9.4,6.25,19.58,7.85,29.71.53,8.22,1.93,16.48.72,24.72-.35,5.59-1.62,11.41.26,16.87,3.46,10.65,5.95,22.33,2.64,33.34-3.25,8.54-11,15.69-20.32,16.61-1.65,4.31-3.17,8.88-6.5,12.23s-7.5,6.43-12.21,7.8a116.37,116.37,0,0,1-16.22,3.23c-5.52.48-11.09.07-16.61.64-8.46,1.06-17.42.23-25.16-3.51-5.74-2.65-9.65-7.79-13.59-12.52-1.24-1.63-3.5-1-5.24-1.17-10.26.23-20.57-.35-30.8.71-2.39,3.83-4.36,8.13-8,11-8.71,6.41-19.47,9.4-30.14,10.22a84.67,84.67,0,0,1-25.28,0c-9.77-1.12-20-3.12-27.73-9.63-4.28-2.85-6.4-7.77-10.21-11.06-5.64.06-11.26,1-16.92.78-12.43-.31-25,.87-37.28-1.38a26.6,26.6,0,0,1-15.25-7.68c-1.56-1.44-2.87-3.24-4.76-4.24-3.52-.12-6.95.91-10.41,1.4-15.73,2.7-32.21,2.41-47.4-2.82C49.48,461.29,38.46,450,34,436c-4.29-11.16-3.71-24.71,3.55-34.53,8.32-11.83,21.63-19.06,35.28-23,4.36-1.05,6.35-5.51,9.47-8.29,8.79-8.56,18.66-16.54,30.37-20.66,5.39-2,11.1-2.88,16.7-4.1,2.2-5.41,5.35-10.33,8.25-15.37-2.85-5.77-4.67-12.38-3.37-18.81.6-4.27,2.73-8.09,3.71-12.25-.52-1.37-2-2.06-3-3-11.86-8.23-22.24-18.42-31.63-29.35-2.9-3.41-5.87-7.16-6.4-11.77-.75-7.67.42-15.34.6-23,2.18-32.64,10.32-64.57,20.8-95.45,1.87-6.31,5-12.13,6.94-18.41-8.22-5.48-17-10.25-24.25-17-6.23-5.68-11.63-12.65-14-20.82-2.58-9.75,1.22-22.53,11.74-25.66,11.18-3.12,22.9-2.58,34.35-3.84,9.18-.25,18.43,0,27.52-1.43C167.09,45.77,173.09,41.22,179.67,37.65Zm75.6-24.56c-31,6-59.87,20-86.35,36.79-3.3,1.78-5.89,5.45-9.91,5.43-8.68.24-17.37,0-26,.48-10.92,1.17-22.07.76-32.79,3.39-5.74,1.34-8.53,7.44-9.11,12.81-.86,7.54,3.26,14.49,7.8,20.14,8.75,10.43,20.95,16.93,32.43,23.84-17.49,43.19-29.59,89.22-29.77,136.06a13.06,13.06,0,0,0,3.29,9.14,176.2,176.2,0,0,0,39.69,36c-2.59,5.7-5.85,11.39-5.87,17.84-.46,5.48,1.86,10.64,4.82,15.1a162.16,162.16,0,0,0-11.32,20c-3.93,1.14-8.12,1-12.07,2.1-13.19,3.23-24.41,11.58-33.95,20.94-3.81,3.56-6.56,8.84-12.06,10-13.47,4-27,11.16-34.25,23.69-3.81,6.2-4,13.76-3.18,20.78C39.22,441.35,48,454,60.71,460.24c16,7.79,34.6,7.06,51.7,4.08,3.62-.44,7.21-2.22,10.87-1.71,2.44,2.91,4.39,6.35,7.69,8.41,6.66,4.74,15.13,5.32,23,5.4,14.95-.07,29.92.41,44.84-.77,2.4,5.09,5.59,10,10.37,13.15,10.37,7.3,23.55,8,35.79,8.55,13.15-.67,27.29-1.11,38.57-8.79,4.63-3,7.26-8.05,8.93-13.15,12.83-.92,25.7-.84,38.56-1,1.37.13,3.27-.25,4.06,1.25,3.13,4.79,6.51,9.77,11.79,12.41,6.36,3.75,13.94,3.69,21.08,3.49,12.62-.37,25.89.32,37.7-4.93a20.52,20.52,0,0,0,12-18.36c3.74-.56,7.7-.63,11.09-2.48A20.72,20.72,0,0,0,439.34,449a61.75,61.75,0,0,0-3.94-25.34c-2.36-6-.4-12.5-.18-18.7,1.06-20.57-2.38-41.72-12.18-60-1.27-2.71-3.42-5.39-2.84-8.56.56-4.46,1.48-8.9,1.21-13.42-.08-7.7-2.57-15.09-5.62-22.07,14.16-8.33,28.39-17.39,38.68-30.45,6.88-8.54,11.91-19.3,10.85-30.5-1.15-10.89-3.05-21.85-7.34-32-2.25-5.45-2.08-11.46-2.87-17.21-3.52-22.52-6.81-45.37-15.38-66.65,7.88-12.52,16.07-25.42,19.09-40.11,1-5.91.76-13.42-4.62-17.23-5.63-3.58-12.61-3.4-19-4.4-8.36-1.31-16.85-.67-25.26-1.32-3,.08-4.84-2.4-6.75-4.28a159.59,159.59,0,0,0-80.65-44.16A170.14,170.14,0,0,0,255.27,13.09Z" transform="translate(-31.25 -4.36)"/>
  <g>
    <path class="cls-2" d="M255.27,13.09a170.14,170.14,0,0,1,67.29-.46,159.59,159.59,0,0,1,80.65,44.16c1.91,1.88,3.78,4.36,6.75,4.28,8.41.65,16.9,0,25.26,1.32,6.37,1,13.35.82,19,4.4,5.38,3.81,5.64,11.32,4.62,17.23-3,14.69-11.21,27.59-19.09,40.11,8.57,21.28,11.86,44.13,15.38,66.65.79,5.75.62,11.76,2.87,17.21,4.29,10.13,6.19,21.09,7.34,32,1.06,11.2-4,22-10.85,30.5-10.29,13.06-24.52,22.12-38.68,30.45,3,7,5.54,14.37,5.62,22.07.27,4.52-.65,9-1.21,13.42-.58,3.17,1.57,5.85,2.84,8.56,9.8,18.29,13.24,39.44,12.18,60-.22,6.2-2.18,12.68.18,18.7A61.75,61.75,0,0,1,439.34,449a20.72,20.72,0,0,1-10.6,16.82c-3.39,1.85-7.35,1.92-11.09,2.48a20.52,20.52,0,0,1-12,18.36c-11.81,5.25-25.08,4.56-37.7,4.93-7.14.2-14.72.26-21.08-3.49-5.28-2.64-8.66-7.62-11.79-12.41-.79-1.5-2.69-1.12-4.06-1.25-12.86.11-25.73,0-38.56,1-1.67,5.1-4.3,10.15-8.93,13.15-11.28,7.68-25.42,8.12-38.57,8.79-12.24-.55-25.42-1.25-35.79-8.55-4.78-3.15-8-8.06-10.37-13.15-14.92,1.18-29.89.7-44.84.77-7.9-.08-16.37-.66-23-5.4-3.3-2.06-5.25-5.5-7.69-8.41-3.66-.51-7.25,1.27-10.87,1.71-17.1,3-35.71,3.71-51.7-4.08C48,454,39.22,441.35,36.63,427.6c-.85-7-.63-14.58,3.18-20.78,7.22-12.53,20.78-19.73,34.25-23.69,5.5-1.17,8.25-6.45,12.06-10,9.54-9.36,20.76-17.71,33.95-20.94,4-1.1,8.14-1,12.07-2.1a162.16,162.16,0,0,1,11.32-20c-3-4.46-5.28-9.62-4.82-15.1,0-6.45,3.28-12.14,5.87-17.84a176.2,176.2,0,0,1-39.69-36,13.06,13.06,0,0,1-3.29-9.14c.18-46.84,12.28-92.87,29.77-136.06-11.48-6.91-23.68-13.41-32.43-23.84-4.54-5.65-8.66-12.6-7.8-20.14.58-5.37,3.37-11.47,9.11-12.81C110.9,56.55,122.05,57,133,55.79c8.67-.46,17.36-.24,26-.48,4,0,6.61-3.65,9.91-5.43C195.4,33,224.29,19.13,255.27,13.09ZM218.52,36.14c-8.7,3.39-17.36,7-25.23,12.11C184.36,53,175.38,58,167.84,64.84c-2.34,2.33-5.86,1.63-8.82,1.77-11.27-.3-22.53.19-33.77.87-7.56.79-15.25.41-22.68,2.19-.23,3.3-.9,6.93,1,9.89C108,88.16,116.33,93.49,124,99c5.4,3.87,11.86,6,17.21,9.87,3.86,3,1.56,8.13.86,12.05-4.94,7.5-7.26,16.27-10.38,24.58-3.29,11.36-7,22.64-9.1,34.29-2.44,9.67-5.46,19.23-6.41,29.2-2.16,10.71-2.35,21.65-2.79,32.53-.55,4-1.38,8.25,0,12.17,1.88,3.6,5.1,6.24,7.71,9.29,9.44,10.75,21,19.43,33.1,26.92C168,297.93,183.3,304,199.28,305.72c2.36.68,5.52.87,6.51,3.59,1.74,2.83-.35,7.48-3.87,7.32-6.35.26-12.49-1.73-18.61-3.15A108.22,108.22,0,0,1,164,306.55c-3-1.49-6.08-2.82-9.18-4.07-3.89,4.93-6.2,11.71-4.1,17.87,2.4,5.42,8.46,7.56,12.28,11.77,1.16,2.33-1.36,4.2-2.26,6.14q-3.94,0-7.86-.41a9.18,9.18,0,0,0-3.1,3c-7.41,12.13-13.33,25.59-14.45,39.91-1.87,10.46,0,21.11,2.73,31.25a36.22,36.22,0,0,1,1.28,9.16c-3.91,8.82-8,18-7.81,27.89.08,4.72,1.59,10,5.8,12.64,4,2.79,9,3.12,13.64,3.33,16,.63,32.08.16,48.11-.47-.53-4.13-3.68-7-6.34-9.89-7.68-10.11-14.59-21-18.51-33.18A82.94,82.94,0,0,1,173.08,369c.78-2.31,1.53-4.8,3.35-6.52,1.55-1.58,4.06-1.29,6-.87,3.86,2.08,1.71,7,1.79,10.41-4,5.8-4,13.23-4.13,20-.77,23.7,11.27,45.91,27,62.91,3.64,3.44,2.37,8.68,2.46,13.12-.25,4.48,1.68,9.3,5.65,11.64a34.88,34.88,0,0,0,17.55,5.3c0-3.45.49-7.18-1.49-10.23.2-2-.14-4.06.58-5.93,1.63-2.26,5.22-3,7.37-1,2.37,2.22,2.89,5.64,3.91,8.59.09,3.11.16,6.23.24,9.35,6.37-.07,12.86.53,19.1-1.1.22-3.95.8-8-.55-11.84-.57-3.24.09-8.26,4.2-8.49,2.78-.65,4.38,1.92,5.83,3.78A82.78,82.78,0,0,1,273.52,482a14.44,14.44,0,0,0,8.07-9.42A37.6,37.6,0,0,0,278.94,460a190,190,0,0,1-7.17-20.85c-1.36-5-3.3-9.93-3.9-15.13-.18-2.8,1.93-6.3,5.12-5.74,3.4-.49,4.95,3.15,5.6,5.86a161.64,161.64,0,0,0,6.3,21c2.11,5.56,4,11.21,6.2,16.73.59,2.24,3.17,1.42,4.88,1.66,12.22-.3,24.47.32,36.66-.73-.09-5.36,0-10.72.13-16.07,1.11-6.19,2.2-12.39,3.64-18.51.64-2.53,1.51-5.49,4.09-6.68,2.38-.58,5.77-.69,6.75,2.12,1.36,4.08-.8,8.18-1.32,12.21a63.93,63.93,0,0,0-2.38,28.88c1.13,6.68,5.21,14.12,12.66,14.91.29-3.6.54-7.21.52-10.82.91-2.06,1.52-4.36,3.1-6,2.36-2.48,7.13-1,8.05,2.15-.06,5.11-.51,10.21-.21,15.32a105.17,105.17,0,0,0,18.18-.46c.11-4.66,0-9.32,0-14,1.11-2,2.88-3.81,5.17-4.23,2.31-.26,4.11,1.52,5.08,3.43.34,4.31.29,8.65.35,13a13.08,13.08,0,0,0,10.2-7.36c.2-8.37-2-16.49-5-24.23-2-4.36-.29-9.05.34-13.5,2.05-11.19,1.57-22.61,1.59-33.92,0-5.38-.38-10.73-.78-16.08-.38-2.79,1.72-5.33,4.29-6.15,3-.74,5.6,2,6.09,4.72,1.5,10.76,1.25,21.65,1.22,32.49-.21,9.05-1.73,18-2.73,27,.87,5.4,3.08,10.49,4.45,15.78,2.35-.15,4.8.09,7.07-.65,3.39-1.64,4.83-5.57,5.16-9.09.68-7-1.6-13.87-3.74-20.47-3-9.32.06-19.05-.23-28.56-.4-17.75-3.7-36-13.05-51.34-1.44-2.66-3.27-5.47-2.8-8.65.61-5.33,2.35-10.6,1.65-16a60.56,60.56,0,0,0-4.15-16.11l-1-.25c-5.72,2.24-10.88,6.23-17.09,7-2.91.62-4.66-2.28-5.3-4.68.05-3.08,2.54-5.23,5.25-6.19,19.16-8.15,38.23-17.87,53-32.85,4.57-4.54,8.72-9.67,11.2-15.66,1.9-4.51,1.56-9.5,1.52-14.29-.14-2.28.06-4.89-1.66-6.67,1.22-7.31-1.89-14.25-4.63-20.82-3.28-7.08-2.15-15.08-3.63-22.56-3.7-19.07-5.54-38.74-13-56.87-1.19-3.4-3.18-7.12-1.61-10.74,2.56-6.43,7.05-11.85,10.15-18,4.9-8.42,9.48-18,7.66-28-8.48-2.11-17.27-2.18-25.95-2.7-5.77-.35-11.63.57-17.34-.42-2.77-1.77-4.8-4.44-7.13-6.72-9-9.63-19.71-17.43-31-24.13a92.72,92.72,0,0,0-15.28-7.87c-6.6-2.65-13-5.88-19.95-7.6-9-2.24-18.09-4.25-27.36-4.46-11,0-22.05-.51-33,.52C252.36,24.57,234.78,28.73,218.52,36.14ZM113.81,366a6.72,6.72,0,0,0-3.11,2.58c-9.61,4-16.58,12.14-23.5,19.6-1,1.24-2.41,2.31-2.79,3.91a77.72,77.72,0,0,0-24.81,9.54c-5.29,3.79-10.64,8.65-11.73,15.41-2.24,13.58,5.87,28.13,18.56,33.46,12.92,5.7,27.57,5.37,41.25,3.12,4.31-.52,8.55-1.48,12.79-2.4.83-5.14.49-10.49,2.18-15.47s3.33-10.24,5.45-15.19c0-.32.06-1,.09-1.28a37.6,37.6,0,0,0-1.76-9.41c-2.78-9-2.26-18.61-2.05-27.94.06-6.8,2.76-13.16,3.57-19.86A42.17,42.17,0,0,0,113.81,366Z" transform="translate(-31.25 -4.36)"/>
    <path class="cls-2" d="M299.32,230c6.34-.72,13-1.05,19.17.73,3.83,1.34,4.07,6.27,2.64,9.46a34.14,34.14,0,0,1-7.93,10c-2.6,2.51-6.79,1.8-9.69.23a32.84,32.84,0,0,1-11-9.95c-1.69-2.45-1.83-6.3.45-8.43A17.15,17.15,0,0,1,299.32,230Z" transform="translate(-31.25 -4.36)"/>
  </g>
  <path class="cls-3" d="M218.52,36.14c16.26-7.41,33.84-11.57,51.45-14.21,11-1,22-.53,33-.52,9.27.21,18.39,2.22,27.36,4.46,6.94,1.72,13.35,4.95,19.95,7.6a92.72,92.72,0,0,1,15.28,7.87c-4.45,4.71-10,8.12-14.76,12.47-9.78,9.63-17.89,21.54-20.75,35.13-1.27,9.74-1.08,20,2.81,29.2a60.07,60.07,0,0,0,14.05,19.93c4.35,4.35,8.8,8.69,14.07,11.91a228.29,228.29,0,0,0,25.81,14c7.82,3.56,16.41,5.13,24.11,9,6.68,3.39,11.64,9.32,15.47,15.62A136.34,136.34,0,0,1,438,212c2.84,7.87,8.76,14,14.05,20.3,1.72,1.78,1.52,4.39,1.66,6.67,0,4.79.38,9.78-1.52,14.29-2.48,6-6.63,11.12-11.2,15.66-14.77,15-33.84,24.7-53,32.85-2.71,1-5.2,3.11-5.25,6.19.64,2.4,2.39,5.3,5.3,4.68,6.21-.8,11.37-4.79,17.09-7l1,.25A60.56,60.56,0,0,1,410.21,322c.7,5.42-1,10.69-1.65,16-.47,3.18,1.36,6,2.8,8.65C420.71,362,424,380.25,424.41,398c.29,9.51-2.81,19.24.23,28.56,2.14,6.6,4.42,13.42,3.74,20.47-.33,3.52-1.77,7.45-5.16,9.09-2.27.74-4.72.5-7.07.65-1.37-5.29-3.58-10.38-4.45-15.78,1-9,2.52-17.94,2.73-27,0-10.84.28-21.73-1.22-32.49-.49-2.75-3.13-5.46-6.09-4.72-2.57.82-4.67,3.36-4.29,6.15.4,5.35.82,10.7.78,16.08,0,11.31.46,22.73-1.59,33.92-.63,4.45-2.31,9.14-.34,13.5,3,7.74,5.18,15.86,5,24.23-4.73,2.51-8.82-1.46-10.55-5.62-1-1.91-2.77-3.69-5.08-3.43-2.29.42-4.06,2.28-5.17,4.23-.55,3.51-.71,7.06-1,10.6-4.6-.48-9.3-1.48-13.12-4.22-2.61-1.49-2.87-4.75-3.9-7.27-.92-3.18-5.69-4.63-8.05-2.15-1.58,1.68-2.19,4-3.1,6-4.24-2-6.34-6.38-8-10.47-2.84-7.11-3.3-14.94-2.76-22.5.52-4,2.68-8.13,1.32-12.21-1-2.81-4.37-2.7-6.75-2.12-2.58,1.19-3.45,4.15-4.09,6.68-1.44,6.12-2.53,12.32-3.64,18.51-.58,3.1-1.24,6.19-1.9,9.27a163.76,163.76,0,0,1-20.9.13c-6-.35-11.6-2.65-17-5.13a24.65,24.65,0,0,1-8.1-5.86,161.64,161.64,0,0,1-6.3-21c-.65-2.71-2.2-6.35-5.6-5.86-3.19-.56-5.3,2.94-5.12,5.74.6,5.2,2.54,10.1,3.9,15.13A190,190,0,0,0,278.94,460a37.6,37.6,0,0,1,2.65,12.61,26.69,26.69,0,0,1-6.25-.87,19.62,19.62,0,0,1-3.4-3.65c-1.45-1.86-3.05-4.43-5.83-3.78-4.11.23-4.77,5.25-4.2,8.49.06,1.73.09,3.47.14,5.22a24.32,24.32,0,0,1-18.93-1.63c-1-2.95-1.54-6.37-3.91-8.59-2.15-1.95-5.74-1.24-7.37,1-.72,1.87-.38,3.95-.58,5.93-.11,1.45-.23,2.9-.36,4.36-3.66-2.23-7.31-4.89-9.17-8.88-3.06-6.07-1-13.14-2.67-19.5-2-4.06-5.82-6.72-8.61-10.17a149,149,0,0,1-17.85-26.2c-3.82-6.56-6.78-13.76-7.45-21.39-.59-7-.66-14-.9-21-.08-3.43,2.07-8.33-1.79-10.41-2-.42-4.48-.71-6,.87-1.82,1.72-2.57,4.21-3.35,6.52a82.94,82.94,0,0,0,1.17,52.47c3.92,12.16,10.83,23.07,18.51,33.18-7.35,2.27-15.1,1.13-22.64,1-6.1-.36-12.66-.39-18-3.75-4.17-2.5-6.42-7.34-6.79-12.05-.4-7.39,5.58-13.44,5-20.86-.51-8.56-4.1-16.51-5.43-24.92a117,117,0,0,1-1.2-17.24l.28-.8c6.56-6.68,15-13.07,16.23-23.06,1-4.87-1.74-10.12.56-14.73.9-1.94,3.42-3.81,2.26-6.14-5.74-7.06-5.56-16.95-1.81-24.89l2.81-.68a108.22,108.22,0,0,0,19.29,6.93c6.12,1.42,12.26,3.41,18.61,3.15,3.52.16,5.61-4.49,3.87-7.32-1-2.72-4.15-2.91-6.51-3.59a58.09,58.09,0,0,1-11.89-4.11,211.3,211.3,0,0,1-33.84-22.17c-11.37-8.6-22-19-27.54-32.41a24.58,24.58,0,0,1-1.1-7.82c5.69-1.92,11.61-4,16-8.29a50.49,50.49,0,0,0,10.94-16.07c2.75-6.42,5.18-13,9.12-18.87a87.81,87.81,0,0,1,15-17,135.4,135.4,0,0,1,40.29-22.47c16.75-5.61,34.1-11.75,47.31-24,4.75-4.64,10-9.29,12.38-15.67,1.6-4.22,4.51-8.1,4.51-12.79.27-6.08.15-12.43-2.47-18A71.59,71.59,0,0,0,259.3,61.69C252.18,55.74,245.12,49.58,237,45,231,41.66,224.6,39.27,218.52,36.14ZM189.24,190.05c-2.36.7-4.75,2.41-5.13,5a28,28,0,0,0,11.65,28.17c7.9,4.62,17.38,5,26.29,4.41,15.2-.33,28.83-14.38,28.23-29.68-.57-4.37-4.7-8.09-9.21-7.47-12.72.38-25.36-1.21-38.07-.93C198.42,189.68,193.75,189.07,189.24,190.05Zm165.2.66a7.71,7.71,0,0,0-6.29,8.26c-.48,11.91,8.3,22.28,18.77,26.86,5.13,1.89,10.68,1.91,16.08,1.95,6.65.06,13.56-1,19.33-4.46,7.75-5,12.31-14.2,12.16-23.33,0-3.06-.38-6.49-2.62-8.8-2.17-1.81-5.22-1.56-7.86-1.67-9.67.14-19.37-.27-29,.7C368.15,190.75,361.27,190.07,354.44,190.71ZM299.32,230a17.15,17.15,0,0,0-6.34,2c-2.28,2.13-2.14,6-.45,8.43a32.84,32.84,0,0,0,11,9.95c2.9,1.57,7.09,2.28,9.69-.23a34.14,34.14,0,0,0,7.93-10c1.43-3.19,1.19-8.12-2.64-9.46C312.29,229,305.66,229.28,299.32,230Zm-10.86,34.74c-3.73.66-5.47,5.28-3.53,8.35,2.23,2.64,6,2.19,9.07,2.22,7.68-.23,15.37.1,23.05-.14,2.58-.32,5.95-.16,7.45-2.76,2.48-3.12-.44-8.64-4.47-8C309.51,264.63,298.94,264,288.46,264.74ZM266.37,313.5a8.14,8.14,0,0,0-5.11,2.93,5.56,5.56,0,0,0,1.17,7.09,72.74,72.74,0,0,0,20.29,12.7c6.46,2.46,13.83,3.42,20.46,1a58.78,58.78,0,0,0,19.9-12.14c3.06-2.31,2.38-7.7-1.32-9-8.38-3.79-17.84-2.59-26.76-2.82C285.47,313.41,275.86,312.24,266.37,313.5Z" transform="translate(-31.25 -4.36)"/>
  <g>
    <path class="cls-4" d="M193.29,48.25c7.87-5.1,16.53-8.72,25.23-12.11C224.6,39.27,231,41.66,237,45c8.13,4.56,15.19,10.72,22.31,16.67A71.59,71.59,0,0,1,278,86c2.62,5.61,2.74,12,2.47,18,0,4.69-2.91,8.57-4.51,12.79-2.4,6.38-7.63,11-12.38,15.67-13.21,12.2-30.56,18.34-47.31,24A135.4,135.4,0,0,0,176,178.93a87.81,87.81,0,0,0-15,17c-3.94,5.82-6.37,12.45-9.12,18.87a50.49,50.49,0,0,1-10.94,16.07c-4.4,4.27-10.32,6.37-16,8.29l-.64.19A48,48,0,0,0,126.63,226c1.25-31.39,9.45-61.89,13.57-92.91.51-4.09,1-8.18,1.83-12.23s3-9-.86-12.05c-5.35-3.91-11.81-6-17.21-9.87C116.33,93.49,108,88.16,103.6,79.56c-1.93-3-1.26-6.59-1-9.89,7.43-1.78,15.12-1.4,22.68-2.19,11.24-.68,22.5-1.17,33.77-.87,3-.14,6.48.56,8.82-1.77C175.38,58,184.36,53,193.29,48.25Zm15.09,87.28c-3.6.43-5.23,4.68-3.56,7.68,1.77,2.67,5.32,2.46,8.14,2.57,4.86-.09,9.78.48,14.6-.3a6.12,6.12,0,0,0,3.06-5.3,6.85,6.85,0,0,0-6.68-4.78C218.76,135.19,213.53,134.85,208.38,135.53Z" transform="translate(-31.25 -4.36)"/>
    <path class="cls-4" d="M365.58,41.34c11.25,6.7,22,14.5,31,24.13,2.33,2.28,4.36,5,7.13,6.72,5.71,1,11.57.07,17.34.42,8.68.52,17.47.59,25.95,2.7,1.82,10-2.76,19.59-7.66,28-3.1,6.16-7.59,11.58-10.15,18-1.57,3.62.42,7.34,1.61,10.74,7.44,18.13,9.28,37.8,13,56.87,1.48,7.48.35,15.48,3.63,22.56,2.74,6.57,5.85,13.51,4.63,20.82C446.71,226,440.79,219.89,438,212a136.34,136.34,0,0,0-11.56-23.39c-3.83-6.3-8.79-12.23-15.47-15.62-7.7-3.86-16.29-5.43-24.11-9A228.29,228.29,0,0,1,361,150c-5.27-3.22-9.72-7.56-14.07-11.91a60.07,60.07,0,0,1-14.05-19.93c-3.89-9.17-4.08-19.46-2.81-29.2,2.86-13.59,11-25.5,20.75-35.13C355.58,49.46,361.13,46.05,365.58,41.34Zm2.9,94.19c-4.51,1.47-4.13,8.78.62,9.55a69,69,0,0,0,16.37-.7c3.68-2.12,3.28-9.14-1.5-9.51C378.85,134.34,373.45,134,368.48,135.53Z" transform="translate(-31.25 -4.36)"/>
    <path class="cls-4" d="M87.2,388.2c6.92-7.46,13.89-15.6,23.5-19.6a55.28,55.28,0,0,0-.92,21c1.85,11.09,8.51,20.46,14.62,29.6l-.14.59c-3.78,4.76-9.57,7.11-15,9.43-6.1,2.6-12.76,3.28-19.26,4.23l-.55-1.17c-2.93-6.4-5.53-13.13-5.88-20.23a115.33,115.33,0,0,1,.84-19.92C84.79,390.51,86.21,389.44,87.2,388.2Z" transform="translate(-31.25 -4.36)"/>
  </g>
  <path class="cls-5" d="M131.65,145.45c3.12-8.31,5.44-17.08,10.38-24.58-.81,4-1.32,8.14-1.83,12.23-4.12,31-12.32,61.52-13.57,92.91a48,48,0,0,1-2.36,13.39,98.65,98.65,0,0,1-10.92,2.07c.44-10.88.63-21.82,2.79-32.53,1-10,4-19.53,6.41-29.2C124.68,168.09,128.36,156.81,131.65,145.45Z" transform="translate(-31.25 -4.36)"/>
  <path class="cls-6" d="M208.38,135.53c5.15-.68,10.38-.34,15.56-.13a6.85,6.85,0,0,1,6.68,4.78,6.12,6.12,0,0,1-3.06,5.3c-4.82.78-9.74.21-14.6.3-2.82-.11-6.37.1-8.14-2.57C203.15,140.21,204.78,136,208.38,135.53Z" transform="translate(-31.25 -4.36)"/>
  <path class="cls-7" d="M368.48,135.53c5-1.53,10.37-1.19,15.49-.66,4.78.37,5.18,7.39,1.5,9.51a69,69,0,0,1-16.37.7C364.35,144.31,364,137,368.48,135.53Z" transform="translate(-31.25 -4.36)"/>
  <path class="cls-8" d="M189.24,190.05c4.51-1,9.18-.37,13.76-.5,12.71-.28,25.35,1.31,38.07.93,4.51-.62,8.64,3.1,9.21,7.47.6,15.3-13,29.35-28.23,29.68-8.91.56-18.39.21-26.29-4.41a28,28,0,0,1-11.65-28.17C184.49,192.46,186.88,190.75,189.24,190.05Zm45.11,8.14c-4.18,2.3-5.52,8.6-3,12.46,4.4,4.39,10.58-1.65,10.15-6.65A5,5,0,0,0,234.35,198.19Zm-42,4.87c-4.55,1.94,1.63,9.52,4.3,5.46C199,206,195.22,201,192.33,203.06Z" transform="translate(-31.25 -4.36)"/>
  <path class="cls-9" d="M354.44,190.71c6.83-.64,13.71,0,20.55-.49,9.65-1,19.35-.56,29-.7,2.64.11,5.69-.14,7.86,1.67,2.24,2.31,2.58,5.74,2.62,8.8.15,9.13-4.41,18.37-12.16,23.33-5.77,3.48-12.68,4.52-19.33,4.46-5.4,0-10.95-.06-16.08-1.95-10.47-4.58-19.25-15-18.77-26.86A7.71,7.71,0,0,1,354.44,190.71Zm43.93,7.48c-4.33,2.39-4.8,7.95-3.76,12.28,1.26,2.51,4.49,2.84,6.9,2,3.63-2,4.7-6.54,4.25-10.42C405.9,198.54,401.19,196.24,398.37,198.19Zm-41.08,7.09c0,1.14,0,2.28,0,3.42,1.85,1,4.35,2.89,6.27,1.05,2.49-1.66.59-5.25-1.64-6.19C360.19,203.36,358.77,204.58,357.29,205.28Z" transform="translate(-31.25 -4.36)"/>
  <path class="cls-10" d="M234.35,198.19a5,5,0,0,1,7.16,5.81c.43,5-5.75,11-10.15,6.65C228.83,206.79,230.17,200.49,234.35,198.19Z" transform="translate(-31.25 -4.36)"/>
  <path class="cls-11" d="M398.37,198.19c2.82-1.95,7.53.35,7.39,3.88.45,3.88-.62,8.39-4.25,10.42-2.41.82-5.64.49-6.9-2C393.57,206.14,394,200.58,398.37,198.19Z" transform="translate(-31.25 -4.36)"/>
  <path class="cls-12" d="M192.33,203.06c2.89-2,6.71,3,4.3,5.46C194,212.58,187.78,205,192.33,203.06Z" transform="translate(-31.25 -4.36)"/>
  <path class="cls-13" d="M357.29,205.28c1.48-.7,2.9-1.92,4.64-1.72,2.23.94,4.13,4.53,1.64,6.19-1.92,1.84-4.42-.09-6.27-1.05C357.3,207.56,357.3,206.42,357.29,205.28Z" transform="translate(-31.25 -4.36)"/>
  <g>
    <path class="cls-14" d="M124.27,239.4l.64-.19A24.58,24.58,0,0,0,126,247c5.52,13.4,16.17,23.81,27.54,32.41a211.3,211.3,0,0,0,33.84,22.17,58.09,58.09,0,0,0,11.89,4.11c-16-1.71-31.29-7.79-45.11-15.87-12.12-7.49-23.66-16.17-33.1-26.92-2.61-3.05-5.83-5.69-7.71-9.29-1.39-3.92-.56-8.17,0-12.17A98.65,98.65,0,0,0,124.27,239.4Z" transform="translate(-31.25 -4.36)"/>
    <path class="cls-14" d="M139.32,392c.07-5.36,2.19-10.34,4.37-15.13a117,117,0,0,0,1.2,17.24c1.33,8.41,4.92,16.36,5.43,24.92.59,7.42-5.39,13.47-5,20.86.37,4.71,2.62,9.55,6.79,12.05,5.34,3.36,11.9,3.39,18,3.75,7.54.1,15.29,1.24,22.64-1,2.66,2.89,5.81,5.76,6.34,9.89-16,.63-32.08,1.1-48.11.47-4.69-.21-9.67-.54-13.64-3.33-4.21-2.67-5.72-7.92-5.8-12.64-.19-9.87,3.9-19.07,7.81-27.89C141.61,411.49,138.44,401.71,139.32,392Z" transform="translate(-31.25 -4.36)"/>
    <path class="cls-14" d="M124.4,419.18a4.56,4.56,0,0,1,3.79.12c0,.32-.07,1-.09,1.28a4.41,4.41,0,0,1-3.84-.81Z" transform="translate(-31.25 -4.36)"/>
  </g>
  <path class="cls-15" d="M288.46,264.74c10.48-.75,21.05-.11,31.57-.34,4-.63,7,4.89,4.47,8-1.5,2.6-4.87,2.44-7.45,2.76-7.68.24-15.37-.09-23.05.14-3.09,0-6.84.42-9.07-2.22C283,270,284.73,265.4,288.46,264.74Z" transform="translate(-31.25 -4.36)"/>
  <path class="cls-16" d="M150.74,320.35c-2.1-6.16.21-12.94,4.1-17.87,3.1,1.25,6.18,2.58,9.18,4.07l-2.81.68c-3.75,7.94-3.93,17.83,1.81,24.89C159.2,327.91,153.14,325.77,150.74,320.35Z" transform="translate(-31.25 -4.36)"/>
  <path class="cls-17" d="M266.37,313.5c9.49-1.26,19.1-.09,28.63-.18,8.92.23,18.38-1,26.76,2.82,3.7,1.27,4.38,6.66,1.32,9a58.78,58.78,0,0,1-19.9,12.14c-6.63,2.39-14,1.43-20.46-1a72.74,72.74,0,0,1-20.29-12.7,5.56,5.56,0,0,1-1.17-7.09A8.14,8.14,0,0,1,266.37,313.5Z" transform="translate(-31.25 -4.36)"/>
  <path class="cls-18" d="M149.8,340.82a9.18,9.18,0,0,1,3.1-3c-4,7.91-7.74,16.23-8.71,25.15-.52,4.33-.2,8.7-.22,13.05l-.28.8c-2.18,4.79-4.3,9.77-4.37,15.13-.88,9.73,2.29,19.51,0,29.16a36.22,36.22,0,0,0-1.28-9.16c-2.74-10.14-4.6-20.79-2.73-31.25C136.47,366.41,142.39,353,149.8,340.82Z" transform="translate(-31.25 -4.36)"/>
  <path class="cls-19" d="M152.9,337.85q3.91.39,7.86.41c-2.3,4.61.42,9.86-.56,14.73-1.19,10-9.67,16.38-16.23,23.06,0-4.35-.3-8.72.22-13.05C145.16,354.08,148.86,345.76,152.9,337.85Z" transform="translate(-31.25 -4.36)"/>
  <path class="cls-20" d="M113.81,366A42.17,42.17,0,0,1,128,362.09c-.81,6.7-3.51,13.06-3.57,19.86-.21,9.33-.73,18.9,2.05,27.94a37.6,37.6,0,0,1,1.76,9.41,4.56,4.56,0,0,0-3.79-.12c-6.11-9.14-12.77-18.51-14.62-29.6a55.28,55.28,0,0,1,.92-21A6.72,6.72,0,0,1,113.81,366Z" transform="translate(-31.25 -4.36)"/>
  <path class="cls-21" d="M180.12,392c.17-6.77.1-14.2,4.13-20,.24,7,.31,14,.9,21,.67,7.63,3.63,14.83,7.45,21.39a149,149,0,0,0,17.85,26.2c2.79,3.45,6.65,6.11,8.61,10.17,1.68,6.36-.39,13.43,2.67,19.5,1.86,4,5.51,6.65,9.17,8.88.13-1.46.25-2.91.36-4.36,2,3.05,1.46,6.78,1.49,10.23a34.88,34.88,0,0,1-17.55-5.3c-4-2.34-5.9-7.16-5.65-11.64-.09-4.44,1.18-9.68-2.46-13.12C191.39,437.92,179.35,415.71,180.12,392Z" transform="translate(-31.25 -4.36)"/>
  <path class="cls-22" d="M59.6,401.65a77.72,77.72,0,0,1,24.81-9.54A115.33,115.33,0,0,0,83.57,412c.35,7.1,3,13.83,5.88,20.23a30,30,0,0,1-12.79.18c-6-1.19-12.26-2.32-17.64-5.41-2.89-1.56-3-5.2-3.38-8.07C55,413,55.73,406.51,59.6,401.65Z" transform="translate(-31.25 -4.36)"/>
  <path class="cls-23" d="M47.87,417.06c1.09-6.76,6.44-11.62,11.73-15.41-3.87,4.86-4.6,11.32-4,17.31.34,2.87.49,6.51,3.38,8.07,5.38,3.09,11.62,4.22,17.64,5.41a30,30,0,0,0,12.79-.18l.55,1.17c2.09,4.2,4.36,8.47,7.92,11.63,3.24,2.87,6.73,5.47,9.76,8.58-13.68,2.25-28.33,2.58-41.25-3.12C53.74,445.19,45.63,430.64,47.87,417.06Z" transform="translate(-31.25 -4.36)"/>
  <path class="cls-24" d="M124.26,419.77a4.41,4.41,0,0,0,3.84.81c-2.12,4.95-3.78,10.07-5.45,15.19s-1.35,10.33-2.18,15.47c-4.24.92-8.48,1.88-12.79,2.4-3-3.11-6.52-5.71-9.76-8.58-3.56-3.16-5.83-7.43-7.92-11.63,6.5-.95,13.16-1.63,19.26-4.23C114.69,426.88,120.48,424.53,124.26,419.77Z" transform="translate(-31.25 -4.36)"/>
  <path class="cls-25" d="M343.54,464.76a63.93,63.93,0,0,1,2.38-28.88c-.54,7.56-.08,15.39,2.76,22.5,1.7,4.09,3.8,8.49,8,10.47,0,3.61-.23,7.22-.52,10.82C348.75,478.88,344.67,471.44,343.54,464.76Z" transform="translate(-31.25 -4.36)"/>
  <path class="cls-26" d="M284.89,445.15A24.65,24.65,0,0,0,293,451c5.37,2.48,11,4.78,17,5.13a163.76,163.76,0,0,0,20.9-.13c.66-3.08,1.32-6.17,1.9-9.27-.14,5.35-.22,10.71-.13,16.07-12.19,1.05-24.44.43-36.66.73-1.71-.24-4.29.58-4.88-1.66C288.89,456.36,287,450.71,284.89,445.15Z" transform="translate(-31.25 -4.36)"/>
  <path class="cls-27" d="M367.87,465c1,2.52,1.29,5.78,3.9,7.27,3.82,2.74,8.52,3.74,13.12,4.22.26-3.54.42-7.09,1-10.6,0,4.65.09,9.31,0,14a105.17,105.17,0,0,1-18.18.46C367.36,475.17,367.81,470.07,367.87,465Z" transform="translate(-31.25 -4.36)"/>
  <path class="cls-28" d="M396.11,465.05c1.73,4.16,5.82,8.13,10.55,5.62a13.08,13.08,0,0,1-10.2,7.36C396.4,473.7,396.45,469.36,396.11,465.05Z" transform="translate(-31.25 -4.36)"/>
  <path class="cls-29" d="M271.94,468.09a19.62,19.62,0,0,0,3.4,3.65,26.69,26.69,0,0,0,6.25.87,14.44,14.44,0,0,1-8.07,9.42A82.78,82.78,0,0,0,271.94,468.09Z" transform="translate(-31.25 -4.36)"/>
  <path class="cls-30" d="M261.91,472.8c1.35,3.82.77,7.89.55,11.84-6.24,1.63-12.73,1-19.1,1.1-.08-3.12-.15-6.24-.24-9.35A24.32,24.32,0,0,0,262.05,478C262,476.27,262,474.53,261.91,472.8Z" transform="translate(-31.25 -4.36)"/>
</svg>
