<svg id="Layer_1" data-name="Layer 1" xmlns="http://www.w3.org/2000/svg" viewBox="0 0 488.41 499.58">
  <defs>
    <style>
      .cls-1 {
        fill: #0a1f2d;
      }

      .cls-2 {
        fill: #fafcfd;
      }

      .cls-3 {
        fill: #f7efed;
      }

      .cls-4 {
        fill: #ee4a22;
      }

      .cls-5 {
        fill: #fbc1bc;
      }

      .cls-6 {
        fill: #fbc1bb;
      }

      .cls-7 {
        fill: #0d1f2d;
      }

      .cls-8 {
        fill: #0d1e2d;
      }

      .cls-9 {
        fill: #b84026;
      }

      .cls-10 {
        fill: #09202d;
      }

      .cls-11 {
        fill: #fdfefe;
      }

      .cls-12 {
        fill: #fcfeff;
      }

      .cls-13 {
        fill: #fbfdfe;
      }

      .cls-14 {
        fill: #f9fdfe;
      }

      .cls-15 {
        fill: #09202f;
      }

      .cls-16 {
        fill: #c0bcbe;
      }

      .cls-17 {
        fill: #fbc2bd;
      }

      .cls-18 {
        fill: #c0bdbf;
      }

      .cls-19 {
        fill: #fcfdfe;
      }

      .cls-20 {
        fill: #b94026;
      }

      .cls-21 {
        fill: #bfbdbf;
      }

      .cls-22 {
        fill: #ee4a23;
      }

      .cls-23 {
        fill: #c1bdbd;
      }

      .cls-24 {
        fill: #b84027;
      }

      .cls-25 {
        fill: #ec4924;
      }

      .cls-26 {
        fill: #f8eeed;
      }

      .cls-27 {
        fill: #c1bdbc;
      }

      .cls-28 {
        fill: #bfbdbe;
      }

      .cls-29 {
        fill: #b93f25;
      }

      .cls-30 {
        fill: #bfbcbe;
      }

      .cls-31 {
        fill: #bfbdbc;
      }

      .cls-32 {
        fill: #bec0c0;
      }

      .cls-33 {
        fill: #c0bdc3;
      }

      .cls-34 {
        fill: #c3bdbe;
      }
    </style>
  </defs>
  <g>
    <path class="cls-1" d="M0,0H.21L0,.21Z"/>
    <path class="cls-1" d="M207.69,32C236.85,22.61,267.3,16.6,298,16.48c37-.74,74.77,5.64,108,22.45,2.81,1.37,6,1.25,9.05.9,9.21-.86,17.64-5.51,26.92-5.94,7.38-.45,14.47,3.47,19.15,9,5.87,9.6,5.78,21.28,5.59,32.15.3,12.56-2,25-3.47,37.38-.55,4.94-2.95,10.15-.59,15,4.94,10.85,7.81,22.49,10.16,34.13,2.15,8,2.62,16.3,2.55,24.53.05,5.81-1.52,11.73.2,17.43,2.87,10.1,4.52,20.49,7.19,30.64,2.35,8.34-1.45,16.45-3.33,24.45-1.71,4.35-3,8.85-4.75,13.18-8.73,18.69-23.1,34.15-39.09,46.91-3.68,3.07-7.87,5.48-11.44,8.68,0,2.35,1.23,4.5,1.67,6.79,1.69,7.89-.57,16-4.49,22.8,6,7.83,11.11,16.56,13.89,26.1,5.31,15.72,6.78,32.5,6,49-.23,4.45-1.51,9.15.43,13.42A39.73,39.73,0,0,1,443.79,467a28.86,28.86,0,0,1-11.54,18.31c-7.8,5.77-17.66,7.93-27.19,8.36-7.67.13-15.41.28-23-1.12-6.69-1.25-13.91-1.78-19.5-6.07-3.75-2.38-5.77-6.4-8.1-10-4.36-.73-8.59,1.61-12.93,1.88-12.83.77-25.71,1.68-38.54.43-10,.12-19.89-1.21-29.83-1.88-1.94,2.52-3.12,5.61-5.48,7.82-4.44,4.51-10.55,6.81-16.59,8.27-9.87,2.32-20.09,1.91-30.15,1.76-10.49-.79-21.47-2.24-30.4-8.25-2.79-1.8-4.72-4.55-7.18-6.71-2.38-.67-4.9-.16-7.33-.2-10.37.17-20.73.06-31.1.06-7.27.07-14.94-2.12-20.06-7.51-5.12-6-6.26-14.57-4.71-22.15.51-2.52,1.29-5,1.62-7.53a260,260,0,0,1-27.23-5.25c-21.37-5.91-41.9-17.43-55.27-35.49-13.18-17.57-18-40.06-17.64-61.7a193,193,0,0,1,12.82-61.48c5.06-11.44,11.17-23,21.2-30.84A44.69,44.69,0,0,1,91,237c5.39.3,10.27,2.74,15.47,3.85.78-25.3,6.7-50,13.17-74.37,3.51-11.21,6.93-22.44,11.37-33.33,1.13-3.56,3.9-7.36,2-11.14-3.52-7.77-5.94-16-8.83-24-4.11-14.94-8.07-30.4-6.24-46,1.21-9.61,6.56-19.27,15.67-23.37,8.64-4,18.81-2.62,27.57.34,9.7,3.43,19.59,6.66,29.81,8.06C196.89,36.78,202.15,33.72,207.69,32Zm28.18,3.85c-7,2.39-14.54,3.28-21.29,6.47-2.69.93-5.59,1.07-8.24,2.14-3.93,1.27-7.37,3.74-11.35,4.9-5.05.57-10.07-.66-15-1.44-10.57-2-20.14-7.78-30.93-8.69a23.94,23.94,0,0,0,6.09,3.54c9.1,3.65,17.56,8.66,26.41,12.83,3.85,2.95,8.85,1.66,13.26,2.71s4,8.18.23,9.86c-3.8.27-7.6.24-11.4.28C178.07,66.75,173.1,63.69,168,61c-8.62-4.38-17.27-8.85-26.5-11.77-3.63-.63-9.18-.58-10.79,3.41-1.43,10.28.07,20.69,2.88,30.61,2.44,12.31,6.95,24,11.55,35.67.25,4.38.7,9-1.12,13.12s-4,8.23-5.22,12.62c-2.44,8.55-6,16.73-7.81,25.46a251.5,251.5,0,0,0-11.46,53,91.54,91.54,0,0,0-1.09,21.11,56.54,56.54,0,0,0,.29,15.21c2.71,5,6.76,9.09,10,13.72,4.19,6.37,9.87,11.51,15,17,10.48,9.39,21.41,18.47,33.83,25.21,9.44,4.66,18.85,10,29.43,11.56,1.84,1.16,4,1.82,5.58,3.44,2.17,3.25-.37,9.07-4.64,8.35-8.8-.35-16.54-5.22-24.68-8.08-6.78-2.19-12.39-6.72-18.65-9.95-2.39-1.87-4.95-4.64-8.22-4.34C151.89,322,147.62,330.16,152,337c3.27,3.2,7.47,6.51,12.25,6.55,2.06,1.8,5.13,3.26,5.14,6.43s-3.69,4.31-5.65,6.24A70.29,70.29,0,0,1,150,349.52c-3.88-1.64-5.37,3.81-7.48,6-5.52,6.27-7.65,14.47-10.84,22-2.53,6-2.18,12.58-2.92,18.92a64.71,64.71,0,0,0,4.81,24.41c1,3.45,3.06,6.54,3.74,10.09.68,3.79-1.21,7.32-2.59,10.72-2.74,6.2-4.17,13.32-2.49,20,.81,4,5.24,5.49,8.85,5.87a302.83,302.83,0,0,0,38.58-.05,48.67,48.67,0,0,0,1.25-10.14l-.58.23c-5.86-7.41-11.49-15.23-14.68-24.21-5.1-13.56-8.71-27.9-8.82-42.46-.14-3.65,4-5.55,7.13-5.06,2.48.36,3.43,2.87,4.18,4.92-.37,10.11,2.05,20,4.53,29.74,3.42,9.76,7.33,19.65,14.41,27.4,2.33,2.58,5.56,5.18,5.27,9.05-.48,5.1-2.71,10.76.13,15.56a22,22,0,0,0,16.46,8.33c.26-2.66,1.37-5.92-.35-8.25,1.48-2.42,2.25-5.65,5-7,1.9-.5,4.39-.7,5.47,1.33,3.19,4.8.12,10.92,1.8,16.16a170.27,170.27,0,0,0,22.92-.55,28.85,28.85,0,0,0-.21-7.54l-.77.55c-.1-3.15-1.9-7.35,1.06-9.69a7.12,7.12,0,0,1,9.18,2.18,56.9,56.9,0,0,0,2.28,10.71c6.73-1.5,8.7-10.68,5-15.92-1.78-5.94-6.91-9.92-9.6-15.34-.89-6.45-.15-13-.39-19.51.09-3.86-.28-7.75.31-11.57,1.46-3.95,7-4.27,9.84-1.69,1.69,8,.75,16.19.9,24.29-.91,6.51,5.43,10.45,7.54,16,2.15,3.12,1.5,8,4.6,10.31a452,452,0,0,0,46.55,2c10.94,0,22.32.07,32.72-3.71.54-4.34,2-8.46,3.26-12.62,2.61-5.59,7.09-10.12,9.09-16,2.57-5.87,2.95-12.34,4.59-18.46,2.37-2.64,7.95-3.23,9.52.56.93,5.34,0,10.83-1.2,16.05-.85,3.74-2.89,7.08-3.67,10.83-2.59,1.55-4,4.31-5.51,6.78-2,3.46-4.37,7-4.51,11.17s-.43,8.79,2.51,12.11c1.19,1.42,2.9,4,5,2.95.82-4.66,0-10,3.16-14,2.53-3,8.43-1.06,8.36,2.93.59,4.91-.52,9.78-.94,14.66,6.18,1.69,12.76,1.2,19.11,1,1.27-5.83-.74-12.64,3.63-17.46a19,19,0,0,1,5.37.27,18,18,0,0,1,2.58,3.48c.63,4.29-.07,8.57-.76,12.8a18.54,18.54,0,0,0,8.28-2.15c2.11-1,4.63-2,5.41-4.47,6-2.61,6.91-10.29,6.43-16.15.41-6.34-4.58-11.64-3.67-18,.88-7.31.59-14.67.63-22,0-9.91-2.05-19.66-4.39-29.24-1.62-6.61-5.18-12.46-8.37-18.39-1.44-2.44-2.84-5.05-5.15-6.78-3.54-.45-7.59,2.34-10.73-.37-2.25-1.49-1.71-4.52-1.36-6.78,3.26-2.76,7.94-3,11.14-5.86a15.06,15.06,0,0,0,3.55-14.9c-.52-.84-1.25-2.89-2.53-1.93a98.28,98.28,0,0,1-21.92,11.18c-3.73,1.76-8.54-2.91-6.55-6.62,1.06-2.37,3.74-3.22,5.88-4.32a175,175,0,0,0,43.14-26.76c5.82-4.14,10.25-9.8,15.45-14.63,12.75-13.49,21.18-30.72,24.89-48.85.87-5.5-1.1-10.82-2.31-16.1-2.17-7.92-3.1-16.16-5.95-23.88-1.73-5.7.53-11.85-1.35-17.52a34.21,34.21,0,0,0,.58-8.26c-1.47-15.69-5.92-30.89-10.88-45.78a32.39,32.39,0,0,1-3.18-10.74c1.88-3.81,2-8.13,2.67-12.26,2.53-17.39,4.23-35.1,2.19-52.63-.39-2.28-1.25-5.88-4.28-5.49-7.13,0-12.16,5.65-17.89,9-4.18,2.41-7.95,5.51-12.31,7.62-4.57,2.21-9.82,2-14.72,1.31-3.91-1.29-4.33-7.84-.59-9.54,4-1.09,8.73,0,12.14-2.93,2.4-2,6.22-2.7,7.55-5.7-5.77-.65-11.38,1.48-17.09,1.37-4.35-1.48-8.2-4.08-12.39-5.92-5.94-3-12.37-4.81-18.43-7.51-3.15-1.34-6.41-2.76-9.89-2.72a282.3,282.3,0,0,0-33.14-6.46c-13.32-1.82-26.8-1-40.2-1.16C273.71,28.11,254.68,32,235.87,35.84ZM75.28,250.05c-8,2.27-15.73,7.18-19.27,14.89-3.35,2.53-5.11,6.45-7,10.07a93.18,93.18,0,0,0-6.84,17.22c-1.68,6.61-4.2,13-5.35,19.73-3.88,17.22-3.93,35.12-2.07,52.6a88.46,88.46,0,0,0,6.32,16.69c2,7.28,7.44,12.89,12,18.67,3.52,4.61,8.25,8.08,13,11.39a87.25,87.25,0,0,0,21.52,11.25c4.65,1.66,9.34,3.51,14.31,3.87,3.77,1.8,8,2.15,12,2.94,3.66.55,7.39,1.35,11.1.79-2-6.35-4.35-12.58-5.9-19.06l-.73,0-.14-1c.45-6.39-.34-12.8,0-19.21.2-8.95,3.14-17.49,5.87-25.9a12,12,0,0,0-3.9-4.09,29.29,29.29,0,0,0-5.54-7.49c-.83-4.21-5.72-6.81-5.14-11.46.72-8.18,6.38-14.94,7.48-23.09a33.77,33.77,0,0,0,1.2-6c1.23-10.56,2.59-21.21,1.84-31.85-3.38-6.37-8.92-11.41-12-18-1-2.8-.65-5.86-1.4-8.71a22.79,22.79,0,0,0-9.65-4.3C89.89,248.47,82.29,247.56,75.28,250.05Zm56.19,45c-.61,13.29-1.61,26.91-7.22,39.18-3.44,6.48.17,14.77,5.68,18.75,3.36-4.29,6.7-8.65,9.8-13.12-.27-4-1.73-7.88-1.08-11.9a34.37,34.37,0,0,1,6.52-15.83c.65-1.14,2-2.25,1.42-3.7-2.4-2.61-5.32-4.69-7.82-7.21C136.43,299.07,134.41,296.43,131.47,295.06Z"/>
    <path class="cls-1" d="M404.37,137.39a23.65,23.65,0,0,1,22,5.27c6.61,6,12.5,13.53,13.61,22.66,1.44,5.42-.06,11.58-4.4,15.25-4.65,2-9.77,0-14.57-.28-7-.56-13.77-2.42-20.6-3.93-4.8-1.36-9.74-3.83-12.46-8.18a27.23,27.23,0,0,1,4.95-24.32C395.81,140.42,400.19,138.74,404.37,137.39Zm18.07,13c-3.28,3.7-2,9.65,1.12,13,1.84,2,5.29,2.64,7.27.45C434.65,158.42,429.88,147.78,422.44,150.37Zm-26.77,8.27c-.69,1.27-1.4,2.73-.93,4.22,1,3,6.4,2.51,6.53-.88C401.69,159,398.11,157.31,395.67,158.64Z"/>
  </g>
  <path class="cls-2" d="M251.3,16.16c10.83-2.25,21.9-2.86,32.81-4.63,8.3.09,16.6-1.23,24.9-.43,5.36.62,10.81-.2,16.12.85a83.88,83.88,0,0,0,11.81,1.64c20.42,2.9,40.71,7.62,59.75,15.7,4.58,1.66,8.66,4.48,13.31,5.94,11.95.69,22.67-6.75,34.62-5.92a28.49,28.49,0,0,1,21.53,12.42c4.57,9,5.64,19.32,5.38,29.27.31,14.57-1.53,29.1-3.91,43.45-.47,3.76-2.2,7.79-.42,11.46,1.35,3.3,2.92,6.51,3.95,9.94,4.26,14.05,8.05,28.39,8.83,43.12.95,7.93-1.46,15.94.28,23.81,2.7,10.68,4.94,21.47,7.51,32.18,1.56,5.15-.13,10.4-1,15.5-1.84,11-6.4,21.21-11.42,31-11.33,19-27.71,34.49-45.4,47.56a58.38,58.38,0,0,1,.43,18.56c-.59,3.17-2.26,6.06-2.64,9.27,3.31,6.18,7.34,12,10.19,18.43,6.26,16.44,8.44,34.18,8.35,51.69.09,6.11-2.05,12.47.35,18.35,3.41,9.94,3.57,21.13-.61,30.86a37.54,37.54,0,0,1-23.73,19.26c-18,5.11-37.35,3.44-55.21-1.41-6.74-1.54-11-7.26-15.24-12.2-5.27-.65-10.45,1.7-15.75,1.65-8,.05-16,1.09-24.06.42-8.33-.5-16.71-.06-25-1.16-3.8-.14-7.72-1-11.47-.28-2.29,2.71-4.08,5.89-6.95,8.07-5.51,4.75-12.91,6-19.78,7.5-8.47,1.82-17.17,1.54-25.78,1.46-11.81-.24-23.81-2.64-34.24-8.33-3.23-1.59-5-5.14-8.05-6.79-12.24-.12-24.5.29-36.75-.08-7.6-.69-15.86-2.19-21.46-7.82-4.94-4.41-7-11.07-7.74-17.47-.48-4.24.84-8.38.91-12.59A149.69,149.69,0,0,1,68.9,432.21,93.8,93.8,0,0,1,30.61,397.4C23,384.47,19,369.74,17.34,354.93c-2.21-11.81.18-23.72,1.36-35.49,1.85-12.42,5.31-24.54,9-36.52,1.52-5.2,4-10.05,6.4-14.88,4-7.35,8-14.93,14.48-20.45,6.74-6.13,14.33-11.81,23.32-14,5.59-1.29,11.36-2.42,17.11-1.69,4,.34,7.82,1.44,11.78,1.84,1.73.44,1.6-1.67,1.71-2.74,2-28.8,9.67-56.82,18.29-84.25,2.15-5.58,4.32-11.14,6.31-16.78.7-2.29,2.38-4.74,1.07-7.13a209.42,209.42,0,0,1-14.48-50.23c-2-12.24-1.37-25.32,4.54-36.45,3.88-5.35,8.91-10.26,15.24-12.55,7.11-2.88,15.14-2.65,22.48-.79,11.72,3,23,8,35,9.41,3.16,0,6.15-1.28,9.1-2.26C216.59,23.47,233.93,19.51,251.3,16.16ZM207.69,32c-5.54,1.73-10.8,4.79-16.69,5-10.22-1.4-20.11-4.63-29.81-8.06-8.76-3-18.93-4.38-27.57-.34C124.51,32.71,119.16,42.37,118,52c-1.83,15.61,2.13,31.07,6.24,46,2.89,8,5.31,16.21,8.83,24,1.93,3.78-.84,7.58-2,11.14-4.44,10.89-7.86,22.12-11.37,33.33-6.47,24.34-12.39,49.07-13.17,74.37-5.2-1.11-10.08-3.55-15.47-3.85a44.69,44.69,0,0,0-35.37,10.72c-10,7.86-16.14,19.4-21.2,30.84A193,193,0,0,0,21.65,340c-.35,21.64,4.46,44.13,17.64,61.7,13.37,18.06,33.9,29.58,55.27,35.49a260,260,0,0,0,27.23,5.25c-.33,2.55-1.11,5-1.62,7.53-1.55,7.58-.41,16.11,4.71,22.15,5.12,5.39,12.79,7.58,20.06,7.51,10.37,0,20.73.11,31.1-.06,2.43,0,5-.47,7.33.2,2.46,2.16,4.39,4.91,7.18,6.71,8.93,6,19.91,7.46,30.4,8.25,10.06.15,20.28.56,30.15-1.76,6-1.46,12.15-3.76,16.59-8.27,2.36-2.21,3.54-5.3,5.48-7.82,9.94.67,19.85,2,29.83,1.88,12.83,1.25,25.71.34,38.54-.43,4.34-.27,8.57-2.61,12.93-1.88,2.33,3.59,4.35,7.61,8.1,10,5.59,4.29,12.81,4.82,19.5,6.07,7.58,1.4,15.32,1.25,23,1.12,9.53-.43,19.39-2.59,27.19-8.36A28.86,28.86,0,0,0,443.79,467a39.73,39.73,0,0,0-2.17-21.55c-1.94-4.27-.66-9-.43-13.42.81-16.51-.66-33.29-6-49-2.78-9.54-7.86-18.27-13.89-26.1,3.92-6.84,6.18-14.91,4.49-22.8-.44-2.29-1.64-4.44-1.67-6.79,3.57-3.2,7.76-5.61,11.44-8.68,16-12.76,30.36-28.22,39.09-46.91,1.75-4.33,3-8.83,4.75-13.18,1.88-8,5.68-16.11,3.33-24.45-2.67-10.15-4.32-20.54-7.19-30.64-1.72-5.7-.15-11.62-.2-17.43.07-8.23-.4-16.55-2.55-24.53-2.35-11.64-5.22-23.28-10.16-34.13-2.36-4.81,0-10,.59-15C464.71,100,467,87.56,466.72,75c.19-10.87.28-22.55-5.59-32.15-4.68-5.49-11.77-9.41-19.15-9-9.28.43-17.71,5.08-26.92,5.94-3,.35-6.24.47-9.05-.9-33.23-16.81-71-23.19-108-22.45C267.3,16.6,236.85,22.61,207.69,32Z"/>
  <g>
    <path class="cls-3" d="M235.87,35.84C254.68,32,273.71,28.11,293,28.48c13.4.16,26.88-.66,40.2,1.16a282.3,282.3,0,0,1,33.14,6.46c-5.79,3.34-12.48,6.38-15.85,12.48-3.41,6.54-.26,14.08,2.87,20.08,9.62,16.14,25.69,26.59,40.46,37.53,5.36,4,11.26,7.25,16.1,11.9,4.31,4.12,9.72,6.83,14.12,10.85,9,8.3,18.52,16.25,25.92,26.09,6.23,9.49,9.39,20.54,12.9,31.22,1.88,5.67-.38,11.82,1.35,17.52,2.85,7.72,3.78,16,5.95,23.88,1.21,5.28,3.18,10.6,2.31,16.1-3.71,18.13-12.14,35.36-24.89,48.85-5.2,4.83-9.63,10.49-15.45,14.63A175,175,0,0,1,389,334c-2.14,1.1-4.82,1.95-5.88,4.32-2,3.71,2.82,8.38,6.55,6.62a98.28,98.28,0,0,0,21.92-11.18c1.28-1,2,1.09,2.53,1.93a15.06,15.06,0,0,1-3.55,14.9c-3.2,2.85-7.88,3.1-11.14,5.86-.35,2.26-.89,5.29,1.36,6.78,3.14,2.71,7.19-.08,10.73.37,2.31,1.73,3.71,4.34,5.15,6.78,3.19,5.93,6.75,11.78,8.37,18.39,2.34,9.58,4.42,19.33,4.39,29.24,0,7.34.25,14.7-.63,22-.91,6.35,4.08,11.65,3.67,18,.48,5.86-.38,13.54-6.43,16.15-3.18-.38-6.5-.45-9.49-1.7-1.58-1.1-2.38-2.94-3.44-4.48a18,18,0,0,0-2.58-3.48,19,19,0,0,0-5.37-.27c-2.18,1.37-4.37,3.15-5.16,5.71a55,55,0,0,0-.44,6c-5.27-.67-11.41-2.77-13.45-8.18-1.52-3.34-3.88-7.44-8.08-7.35-4,.43-5.1,4.9-7,7.74-5-8.1,2.59-16,3.28-24.15.78-3.75,2.82-7.09,3.67-10.83,1.23-5.22,2.13-10.71,1.2-16.05-1.57-3.79-7.15-3.2-9.52-.56-1.64,6.12-2,12.59-4.59,18.46-2,5.9-6.48,10.43-9.09,16-1.33,2.12-2.29,5.2-5.18,5.53-11.15,2.05-22.56.76-33.81.47-9.82-.23-19.51-1.91-29.12-3.78-6.17-1.25-13-2.83-17.11-8-3.84-5-8.26-10.51-7.88-17.22-.36-4.45,1.18-9.85-2.47-13.31-2.85-2.58-8.38-2.26-9.84,1.69-.59,3.82-.22,7.71-.31,11.57.24,6.49-.5,13.06.39,19.51,2.69,5.42,7.82,9.4,9.6,15.34a35.71,35.71,0,0,1,.91,8,20,20,0,0,1-8.15-2.77,7.12,7.12,0,0,0-9.18-2.18c-3,2.34-1.16,6.54-1.06,9.69.09,1.26.19,2.53.21,3.81-5.83,0-12.25.28-17.3-3.12-2.6-1.58-4-4.5-4.69-7.34a106.66,106.66,0,0,0-.16,14.19c-1.68-5.24,1.39-11.36-1.8-16.16-1.08-2-3.57-1.83-5.47-1.33-2.72,1.37-3.49,4.6-5,7a18.67,18.67,0,0,1-5-8.25c-1.95-5.6-.8-11.58-1.48-17.34-.31-3.38-3.43-5.31-5.62-7.5-7-6.73-13.74-14.06-18.16-22.81-3.91-8.44-7.95-16.86-10.17-25.93-.75-2.05-1.7-4.56-4.18-4.92-3.11-.49-7.27,1.41-7.13,5.06.11,14.56,3.72,28.9,8.82,42.46,3.19,9,8.82,16.8,14.68,24.21-3.77,2.06-8.2,1.54-12.32,1.75-5.29,0-11,.21-15.67-2.73-3-1.86-6-4.81-5.66-8.64-.15-5.6,3.21-10.27,5.21-15.26,1.73-3.84-1.78-7-3.39-10.17-2.68-5.12-5.45-10.33-6.54-16.06.84-6.5.28-13.05.43-19.57,0-3.23,1.22-6.66,3.94-8.58,3.25-2.16,7.13-3.32,10.11-5.91a27.47,27.47,0,0,0,5.94-7.13c1.6-2.74,1.22-6,1.39-9.06,2-1.93,5.6-3,5.65-6.24s-3.08-4.63-5.14-6.43c-1.13-4.43-2.52-8.79-3.56-13.24a9,9,0,0,1,3.94-9.61c6.26,3.23,11.87,7.76,18.65,9.95,8.14,2.86,15.88,7.73,24.68,8.08,4.27.72,6.81-5.1,4.64-8.35-1.53-1.62-3.74-2.28-5.58-3.44-17.92-13.18-37.76-24.5-52.11-41.86-6.06-8.21-13.82-15.1-19.12-23.88-3.82-6.35-3-14.06-2.78-21.14a30.74,30.74,0,0,0,9.45-6.62c4.34-4.62,9.84-8.5,12.3-14.55,4.73-11.24,5.24-23.88,10.89-34.78a110.59,110.59,0,0,1,16.14-29.33c4.24-5.43,7.66-11.53,12.58-16.41,8.93-8.42,17.27-17.55,27.1-25,6.14-3.88,11.9-8.33,18.29-11.81,10-5.5,19.41-11.87,29.2-17.67A54.6,54.6,0,0,0,284.6,69.6c3.26-4.14,3.86-9.92,2.5-14.89C284.31,48.23,278,44,271.44,41.82,260.15,37.64,248,34.53,235.87,35.84Zm-9.56,99.31c-13.33,2.54-25,12.4-30.26,24.83-2.28,5.12-2.28,11.85,2.06,15.9,2.85,4.18,8.45,3.58,12.84,3.1,8.45-1.14,17-1.06,25.42-2.78,8.33-1.31,17-3,24.1-7.74,3.46-2.24,3.23-6.85,3.39-10.47.43-7.79-5.07-14.51-11.18-18.68C244.82,134.68,235.21,133.57,226.31,135.15Zm178.06,2.24c-4.18,1.35-8.56,3-11.49,6.47a27.23,27.23,0,0,0-4.95,24.32c2.72,4.35,7.66,6.82,12.46,8.18,6.83,1.51,13.6,3.37,20.6,3.93,4.8.32,9.92,2.25,14.57.28,4.34-3.67,5.84-9.83,4.4-15.25-1.11-9.13-7-16.68-13.61-22.66A23.65,23.65,0,0,0,404.37,137.39Zm-85.95,34.05c-3.26,1.6-5.44,6.68-2.13,9.33,4,3.63,8,7.3,12.34,10.64,2.14,1.42,4.51,3.52,7.28,2.84,3.67-1.95,6.07-5.5,9.1-8.24,2.65-2.73,7-5.26,5.6-9.75-2.09-5.25-8.65-6-13.63-5.84C330.81,170.76,324.38,169.55,318.42,171.44Zm13,29.24c-13.7,7.25-28.62,11.87-43.52,16-4.42,1.22-9.07,1-13.53,2a6.14,6.14,0,0,0-3.83,2.8c-1.34,6.49,1.21,12.82,2.85,19a70.6,70.6,0,0,0,10.31,21.88c4.39,4.9,9,9.84,14.82,13,13.54,8,30.38,8.56,45.31,4.69a51.62,51.62,0,0,0,33.78-26.45c2.37-5,5.56-9.67,6.54-15.2.8-4.08,2.6-9.23-1.09-12.45-3.93-3.28-9.21-4.2-13.89-6-6.84-1.9-12.62-6.13-18.84-9.39-4.22-2.25-7.45-5.82-11.1-8.83C337.14,199.84,334,200,331.45,200.68ZM277.36,333.31c-6,1.46-5.86,9.9-2.58,13.91,3.69,4.54,6.66,10.2,12.26,12.69A40.71,40.71,0,0,0,303,364c8.8.51,17.27-3.59,23.8-9.24a6,6,0,0,0,2-6.42c-1.68-2.81-5.16-3.47-8.14-3.88A117.74,117.74,0,0,1,306.91,342c-6.48-1.41-12.38-4.59-18.82-6.16C284.53,335,281.1,332.67,277.36,333.31Z"/>
    <path class="cls-3" d="M75.28,250.05c7-2.49,14.61-1.58,21.7.06a22.79,22.79,0,0,1,9.65,4.3c.75,2.85.44,5.91,1.4,8.71,3.08,6.58,8.62,11.62,12,18,.75,10.64-.61,21.29-1.84,31.85a33.77,33.77,0,0,1-1.2,6c-3.73,5.22-8.59,9.46-13.08,14-5.26,4.94-11,10.13-18.38,11.44-11.88,2-24.71,1.67-35.47-4.36l-1.2-1.93c-.13-6.44-2.55-12.57-2.58-19a153.38,153.38,0,0,1,2.3-29.49c1.56-8.47,5.11-16.36,7.43-24.62C59.55,257.23,67.33,252.32,75.28,250.05Z"/>
  </g>
  <g>
    <path class="cls-4" d="M214.58,42.31c6.75-3.19,14.26-4.08,21.29-6.47,12.11-1.31,24.28,1.8,35.57,6C278,44,284.31,48.23,287.1,54.71c1.36,5,.76,10.75-2.5,14.89A54.6,54.6,0,0,1,269,84c-9.79,5.8-19.23,12.17-29.2,17.67-6.39,3.48-12.15,7.93-18.29,11.81-9.83,7.41-18.17,16.54-27.1,25-4.92,4.88-8.34,11-12.58,16.41a110.59,110.59,0,0,0-16.14,29.33c-5.65,10.9-6.16,23.54-10.89,34.78-2.46,6-8,9.93-12.3,14.55A30.74,30.74,0,0,1,133,240.1c-.06-9.5-.41-19,.53-28.51,1.5-22.76,2.18-46,9.13-67.87,1.93-7,6-14.05,3.71-21.55,5.92-12.61,13.26-24.71,23.25-34.52,6.3-7,14.18-12.33,21.61-18.06,1.25-.46,2.51-.91,3.75-1.43,3.78-1.68,4-8.7-.23-9.86s-9.41.24-13.26-2.71c-8.85-4.17-17.31-9.18-26.41-12.83A23.94,23.94,0,0,1,149,39.22c10.79.91,20.36,6.7,30.93,8.69,5,.78,10,2,15,1.44,4-1.16,7.42-3.63,11.35-4.9C209,43.38,211.89,43.24,214.58,42.31Zm-6.27,46.77c-6.34,1.3-11.53,8.29-9.28,14.73.56,2.17,3.07,2.21,4.88,2.1,3.16-.08,4.62-3.39,6.82-5.17,1.75-2.08,5.08-3.57,4.75-6.74C216,90.18,211.64,87.55,208.31,89.08Z"/>
    <path class="cls-4" d="M350.5,48.58c3.37-6.1,10.06-9.14,15.85-12.48,3.48,0,6.74,1.38,9.89,2.72,6.06,2.7,12.49,4.52,18.43,7.51,4.19,1.84,8,4.44,12.39,5.92,5.71.11,11.32-2,17.09-1.37-1.33,3-5.15,3.7-7.55,5.7-3.41,2.94-8.11,1.84-12.14,2.93-3.74,1.7-3.32,8.25.59,9.54,6.78,2.78,12.53,7.41,18.76,11.17,12.95,10.42,19,26.53,25.58,41.25a32.39,32.39,0,0,0,3.18,10.74c5,14.89,9.41,30.09,10.88,45.78a34.21,34.21,0,0,1-.58,8.26c-3.51-10.68-6.67-21.73-12.9-31.22-7.4-9.84-16.92-17.79-25.92-26.09-4.4-4-9.81-6.73-14.12-10.85-4.84-4.65-10.74-7.93-16.1-11.9C379.06,95.25,363,84.8,353.37,68.66,350.24,62.66,347.09,55.12,350.5,48.58Zm60.65,55.2c3.29,3.44,6.81,9.24,12.36,7.73,2.09-1.84,4-5.34,1.78-7.8-2.39-3-5-5.95-8.47-7.69C412.55,94.48,407.74,100.13,411.15,103.78Z"/>
  </g>
  <path class="cls-5" d="M130.71,52.65c1.61-4,7.16-4,10.79-3.41,9.23,2.92,17.88,7.39,26.5,11.77,5.1,2.68,10.07,5.74,15.62,7.43a41.94,41.94,0,0,0,7.65,1.15c-7.43,5.73-15.31,11-21.61,18.06-10,9.81-17.33,21.91-23.25,34.52-.42-1.09-.84-2.17-1.27-3.24-4.6-11.64-9.11-23.36-11.55-35.67C130.78,73.34,129.28,62.93,130.71,52.65Z"/>
  <g>
    <path class="cls-6" d="M432.08,60.12c5.73-3.38,10.76-9,17.89-9,3-.39,3.89,3.21,4.28,5.49,2,17.53.34,35.24-2.19,52.63-.66,4.13-.79,8.45-2.67,12.26-6.61-14.72-12.63-30.83-25.58-41.25-6.23-3.76-12-8.39-18.76-11.17,4.9.65,10.15.9,14.72-1.31C424.13,65.63,427.9,62.53,432.08,60.12Z"/>
    <path class="cls-6" d="M183.62,68.44c3.8,0,7.6,0,11.4-.28-1.24.52-2.5,1-3.75,1.43A41.94,41.94,0,0,1,183.62,68.44Z"/>
  </g>
  <path class="cls-7" d="M208.31,89.08c3.33-1.53,7.68,1.1,7.17,4.92.33,3.17-3,4.66-4.75,6.74-2.2,1.78-3.66,5.09-6.82,5.17-1.81.11-4.32.07-4.88-2.1C196.78,97.37,202,90.38,208.31,89.08Z"/>
  <path class="cls-8" d="M411.15,103.78c-3.41-3.65,1.4-9.3,5.67-7.76,3.43,1.74,6.08,4.73,8.47,7.69,2.24,2.46.31,6-1.78,7.8C418,113,414.44,107.22,411.15,103.78Z"/>
  <path class="cls-9" d="M145.14,118.93c.43,1.07.85,2.15,1.27,3.24,2.25,7.5-1.78,14.51-3.71,21.55-6.95,21.92-7.63,45.11-9.13,67.87-.94,9.47-.59,19-.53,28.51a88,88,0,0,1-14.6,4.13,91.54,91.54,0,0,1,1.09-21.11,251.5,251.5,0,0,1,11.46-53c1.78-8.73,5.37-16.91,7.81-25.46,1.26-4.39,3.43-8.43,5.22-12.62S145.39,123.31,145.14,118.93Z"/>
  <g>
    <path class="cls-10" d="M226.31,135.15c8.9-1.58,18.51-.47,26.37,4.16,6.11,4.17,11.61,10.89,11.18,18.68-.16,3.62.07,8.23-3.39,10.47-7.13,4.77-15.77,6.43-24.1,7.74-8.38,1.72-17,1.64-25.42,2.78-4.39.48-10,1.08-12.84-3.1-4.34-4-4.34-10.78-2.06-15.9C201.34,147.55,213,137.69,226.31,135.15ZM240,145c-4.66,6.67,2.42,17.76,10.5,15.5,5.57-4.71,3.05-14.89-3.7-17C244.49,143.19,241.27,142.47,240,145ZM201.8,162.77a7.86,7.86,0,0,0-.41,4.79c.84,2.24,4,3.72,5.88,1.72C210.66,166.1,205.62,160.39,201.8,162.77Z"/>
    <path class="cls-10" d="M318.42,171.44c6-1.89,12.39-.68,18.56-1,5-.21,11.54.59,13.63,5.84,1.41,4.49-2.95,7-5.6,9.75-3,2.74-5.43,6.29-9.1,8.24-2.77.68-5.14-1.42-7.28-2.84-4.29-3.34-8.31-7-12.34-10.64C313,178.12,315.16,173,318.42,171.44Z"/>
  </g>
  <path class="cls-11" d="M240,145c1.3-2.48,4.52-1.76,6.8-1.54,6.75,2.15,9.27,12.33,3.7,17C242.39,162.71,235.31,151.62,240,145Z"/>
  <path class="cls-12" d="M422.44,150.37c7.44-2.59,12.21,8,8.39,13.47-2,2.19-5.43,1.58-7.27-.45C420.4,160,419.16,154.07,422.44,150.37Z"/>
  <path class="cls-13" d="M395.67,158.64c2.44-1.33,6,.33,5.6,3.34-.13,3.39-5.49,3.88-6.53.88C394.27,161.37,395,159.91,395.67,158.64Z"/>
  <path class="cls-14" d="M201.8,162.77c3.82-2.38,8.86,3.33,5.47,6.51-1.87,2-5,.52-5.88-1.72A7.86,7.86,0,0,1,201.8,162.77Z"/>
  <path class="cls-15" d="M331.45,200.68c2.57-.65,5.69-.84,7.81,1,3.65,3,6.88,6.58,11.1,8.83,6.22,3.26,12,7.49,18.84,9.39,4.68,1.79,10,2.71,13.89,6,3.69,3.22,1.89,8.37,1.09,12.45-1,5.53-4.17,10.22-6.54,15.2A51.62,51.62,0,0,1,343.86,280c-14.93,3.87-31.77,3.28-45.31-4.69-5.83-3.2-10.43-8.14-14.82-13a70.6,70.6,0,0,1-10.31-21.88c-1.64-6.17-4.19-12.5-2.85-19a6.14,6.14,0,0,1,3.83-2.8c4.46-.94,9.11-.76,13.53-2C302.83,212.55,317.75,207.93,331.45,200.68ZM296.91,258c-.13.43-.4,1.3-.54,1.73,5.17,5.32,12.17,8.62,19.28,10.45,12,2.14,24.9,1.15,35.72-4.8,2.81-1.7,6.35-3.09,7.75-6.29a15.74,15.74,0,0,0-8.37-4.6,85.54,85.54,0,0,0-20.74-2C318.79,252.27,307.31,253.62,296.91,258Z"/>
  <path class="cls-16" d="M118.44,244.23A88,88,0,0,0,133,240.1c-.21,7.08-1,14.79,2.78,21.14,5.3,8.78,13.06,15.67,19.12,23.88,14.35,17.36,34.19,28.68,52.11,41.86-10.58-1.52-20-6.9-29.43-11.56-12.42-6.74-23.35-15.82-33.83-25.21-5.17-5.54-10.85-10.68-15-17-3.26-4.63-7.31-8.73-10-13.72A56.54,56.54,0,0,1,118.44,244.23Z"/>
  <path class="cls-17" d="M296.91,258c10.4-4.4,21.88-5.75,33.1-5.48a85.54,85.54,0,0,1,20.74,2,15.74,15.74,0,0,1,8.37,4.6c-1.4,3.2-4.94,4.59-7.75,6.29-10.82,6-23.73,6.94-35.72,4.8-7.11-1.83-14.11-5.13-19.28-10.45C296.51,259.32,296.78,258.45,296.91,258Z"/>
  <path class="cls-18" d="M49,275c1.89-3.62,3.65-7.54,7-10.07-2.32,8.26-5.87,16.15-7.43,24.62a153.38,153.38,0,0,0-2.3,29.49c0,6.44,2.45,12.57,2.58,19-5-4.78-7.44-11.34-10.54-17.36a15.08,15.08,0,0,1-1.5-8.74c1.15-6.74,3.67-13.12,5.35-19.73A93.18,93.18,0,0,1,49,275Z"/>
  <path class="cls-19" d="M131.47,295.06c2.94,1.37,5,4,7.3,6.17,2.5,2.52,5.42,4.6,7.82,7.21.57,1.45-.77,2.56-1.42,3.7A34.37,34.37,0,0,0,138.65,328c-.65,4,.81,7.92,1.08,11.9-3.1,4.47-6.44,8.83-9.8,13.12-5.51-4-9.12-12.27-5.68-18.75C129.86,322,130.86,308.35,131.47,295.06Z"/>
  <path class="cls-20" d="M34.75,364.56c-1.86-17.48-1.81-35.38,2.07-52.6a15.08,15.08,0,0,0,1.5,8.74c3.1,6,5.55,12.58,10.54,17.36l1.2,1.93a69.75,69.75,0,0,0,4.86,23.13c2.41,6.7,6.66,12.5,9.38,19.06-7.75.31-15.56.53-23.23-.93A88.46,88.46,0,0,1,34.75,364.56Z"/>
  <g>
    <path class="cls-21" d="M156.44,316.4c3.27-.3,5.83,2.47,8.22,4.34a9,9,0,0,0-3.94,9.61c1,4.45,2.43,8.81,3.56,13.24-4.78,0-9-3.35-12.25-6.55C147.62,330.16,151.89,322,156.44,316.4Z"/>
    <path class="cls-21" d="M118.35,411.15l.73,0c1.55,6.48,3.92,12.71,5.9,19.06-3.71.56-7.44-.24-11.1-.79-4-.79-8.25-1.14-12-2.94C109,423.49,114,417.28,118.35,411.15Z"/>
    <path class="cls-21" d="M368.8,450.8c1.55-2.47,2.92-5.23,5.51-6.78-.69,8.13-8.3,16.05-3.28,24.15,1.9-2.84,3-7.31,7-7.74,4.2-.09,6.56,4,8.08,7.35,2,5.41,8.18,7.51,13.45,8.18a55,55,0,0,1,.44-6c.79-2.56,3-4.34,5.16-5.71-4.37,4.82-2.36,11.63-3.63,17.46-6.35.16-12.93.65-19.11-1,.42-4.88,1.53-9.75.94-14.66.07-4-5.83-5.92-8.36-2.93-3.14,3.94-2.34,9.32-3.16,14-2.14,1.05-3.85-1.53-5-2.95-2.94-3.32-2.7-8-2.51-12.11S366.78,454.26,368.8,450.8Z"/>
  </g>
  <path class="cls-22" d="M103.91,332.91c4.49-4.52,9.35-8.76,13.08-14-1.1,8.15-6.76,14.91-7.48,23.09-.58,4.65,4.31,7.25,5.14,11.46-3.69,4.06-6.6,8.79-10.67,12.51-5.29,4.86-10.66,10.14-17.73,12.24-6.89,1.93-13.87,4-21.08,4l-.87-.1c-2.72-6.56-7-12.36-9.38-19.06A69.75,69.75,0,0,1,50.06,340c10.76,6,23.59,6.33,35.47,4.36C92.88,343,98.65,337.85,103.91,332.91Z"/>
  <path class="cls-23" d="M277.36,333.31c3.74-.64,7.17,1.69,10.73,2.51,6.44,1.57,12.34,4.75,18.82,6.16a117.74,117.74,0,0,0,13.72,2.49c3,.41,6.46,1.07,8.14,3.88a6,6,0,0,1-2,6.42c-6.53,5.65-15,9.75-23.8,9.24a40.71,40.71,0,0,1-15.92-4.1c-5.6-2.49-8.57-8.15-12.26-12.69C271.5,343.21,271.33,334.77,277.36,333.31Z"/>
  <path class="cls-24" d="M142.52,355.56c2.11-2.23,3.6-7.68,7.48-6-4.64,4.82-6.74,11.3-8.92,17.46-2.29,6.76-2.08,14-2.09,21a51.37,51.37,0,0,0,2.64,17.66c-.9,5.94-5.4,10.13-8.06,15.24a64.71,64.71,0,0,1-4.81-24.41c.74-6.34.39-12.93,2.92-18.92C134.87,370,137,361.83,142.52,355.56Z"/>
  <g>
    <path class="cls-25" d="M141.08,367c2.18-6.16,4.28-12.64,8.92-17.46a70.29,70.29,0,0,0,13.77,6.74c-.17,3,.21,6.32-1.39,9.06a27.47,27.47,0,0,1-5.94,7.13c-3,2.59-6.86,3.75-10.11,5.91-2.72,1.92-3.92,5.35-3.94,8.58-.15,6.52.41,13.07-.43,19.57l-.33-.85A51.37,51.37,0,0,1,139,388C139,381,138.79,373.74,141.08,367Z"/>
    <path class="cls-25" d="M120.19,361a12,12,0,0,1,3.9,4.09c-2.73,8.41-5.67,16.95-5.87,25.9-.35,6.41.44,12.82,0,19.21-9-1.07-18.4-1.43-26.82-5.24l-.79-.28c6.51-3.55,12.78-7.79,17.11-13.95A49.69,49.69,0,0,0,120.19,361Z"/>
  </g>
  <path class="cls-26" d="M104,366c4.07-3.72,7-8.45,10.67-12.51a29.29,29.29,0,0,1,5.54,7.49,49.69,49.69,0,0,1-12.48,29.73c-4.33,6.16-10.6,10.4-17.11,13.95-3.91-1.17-7.95-2.38-11.1-5.08-6.08-4.59-9.74-11.38-14.33-17.29,7.21-.09,14.19-2.12,21.08-4C93.32,376.13,98.69,370.85,104,366Z"/>
  <path class="cls-27" d="M41.07,381.25c7.67,1.46,15.48,1.24,23.23.93l.87.1c4.59,5.91,8.25,12.7,14.33,17.29,3.15,2.7,7.19,3.91,11.1,5.08l.79.28c-7.8,4.08-16.5,6.65-25.36,6.38-4.7-3.31-9.43-6.78-13-11.39C48.51,394.14,43.1,388.53,41.07,381.25Z"/>
  <path class="cls-28" d="M168.14,390.81c2.22,9.07,6.26,17.49,10.17,25.93,4.42,8.75,11.13,16.08,18.16,22.81,2.19,2.19,5.31,4.12,5.62,7.5.68,5.76-.47,11.74,1.48,17.34a18.67,18.67,0,0,0,5,8.25c1.72,2.33.61,5.59.35,8.25a22,22,0,0,1-16.46-8.33c-2.84-4.8-.61-10.46-.13-15.56.29-3.87-2.94-6.47-5.27-9.05-7.08-7.75-11-17.64-14.41-27.4C170.19,410.83,167.77,400.92,168.14,390.81Z"/>
  <path class="cls-29" d="M66,411.31c8.86.27,17.56-2.3,25.36-6.38,8.42,3.81,17.78,4.17,26.82,5.24l.14,1c-4.38,6.13-9.31,12.34-16.49,15.28-5-.36-9.66-2.21-14.31-3.87A87.25,87.25,0,0,1,66,411.31Z"/>
  <path class="cls-30" d="M141.63,405.66l.33.85c1.09,5.73,3.86,10.94,6.54,16.06,1.61,3.15,5.12,6.33,3.39,10.17-2,5-5.36,9.66-5.21,15.26-.36,3.83,2.69,6.78,5.66,8.64,4.65,2.94,10.38,2.75,15.67,2.73,4.12-.21,8.55.31,12.32-1.75l.58-.23a48.67,48.67,0,0,1-1.25,10.14,302.83,302.83,0,0,1-38.58.05c-3.61-.38-8-1.83-8.85-5.87-1.68-6.68-.25-13.8,2.49-20,1.38-3.4,3.27-6.93,2.59-10.72-.68-3.55-2.72-6.64-3.74-10.09C136.23,415.79,140.73,411.6,141.63,405.66Z"/>
  <path class="cls-31" d="M260.41,414.74c3.65,3.46,2.11,8.86,2.47,13.31-.38,6.71,4,12.2,7.88,17.22,4.13,5.18,10.94,6.76,17.11,8,9.61,1.87,19.3,3.55,29.12,3.78,11.25.29,22.66,1.58,33.81-.47,2.89-.33,3.85-3.41,5.18-5.53-1.27,4.16-2.72,8.28-3.26,12.62-10.4,3.78-21.78,3.73-32.72,3.71a452,452,0,0,1-46.55-2c-3.1-2.31-2.45-7.19-4.6-10.31-2.11-5.58-8.45-9.52-7.54-16C261.16,430.93,262.1,422.73,260.41,414.74Z"/>
  <path class="cls-32" d="M260.25,462.85c3.74,5.24,1.77,14.42-5,15.92A56.9,56.9,0,0,1,253,468.06a20,20,0,0,0,8.15,2.77A35.71,35.71,0,0,0,260.25,462.85Z"/>
  <path class="cls-33" d="M413.11,468c1.06,1.54,1.86,3.38,3.44,4.48,3,1.25,6.31,1.32,9.49,1.7-.78,2.46-3.3,3.43-5.41,4.47a18.54,18.54,0,0,1-8.28,2.15C413,476.54,413.74,472.26,413.11,468Z"/>
  <path class="cls-34" d="M221,468.92c.72,2.84,2.09,5.76,4.69,7.34,5,3.4,11.47,3.08,17.3,3.12,0-1.28-.12-2.55-.21-3.81l.77-.55a28.85,28.85,0,0,1,.21,7.54,170.27,170.27,0,0,1-22.92.55A106.66,106.66,0,0,1,221,468.92Z"/>
</svg>
