  0
SECTION
  2
HEADER
  9
$ACADVER
  1
AC1027
  9
$ACADMAINTVER
 70
   125
  9
$DWGCODEPAGE
  3
ANSI_1251
  9
$LASTSAVEDBY
  1
User
  9
$REQUIREDVERSIONS
160
                 0
  9
$INSBASE
 10
0.0
 20
0.0
 30
0.0
  9
$EXTMIN
 10
4.702258907183806
 20
21.35477202326157
 30
0.0
  9
$EXTMAX
 10
188.4406923778962
 20
226.8047679582931
 30
0.0
  9
$LIMMIN
 10
0.0
 20
0.0
  9
$LIMMAX
 10
12.0
 20
9.0
  9
$ORTHOMODE
 70
     0
  9
$REGENMODE
 70
     1
  9
$FILLMODE
 70
     0
  9
$QTEXTMODE
 70
     0
  9
$MIRRTEXT
 70
     0
  9
$LTSCALE
 40
1.0
  9
$ATTMODE
 70
     1
  9
$TEXTSIZE
 40
0.2
  9
$TRACEWID
 40
0.05
  9
$TEXTSTYLE
  7
Standard
  9
$CLAYER
  8
0
  9
$CELTYPE
  6
Continuous
  9
$CECOLOR
 62
   256
  9
$CELTSCALE
 40
1.0
  9
$DISPSILH
 70
     0
  9
$DIMSCALE
 40
1.0
  9
$DIMASZ
 40
0.18
  9
$DIMEXO
 40
0.0625
  9
$DIMDLI
 40
0.38
  9
$DIMRND
 40
0.0
  9
$DIMDLE
 40
0.0
  9
$DIMEXE
 40
0.18
  9
$DIMTP
 40
0.0
  9
$DIMTM
 40
0.0
  9
$DIMTXT
 40
0.18
  9
$DIMCEN
 40
0.09
  9
$DIMTSZ
 40
0.0
  9
$DIMTOL
 70
     0
  9
$DIMLIM
 70
     0
  9
$DIMTIH
 70
     1
  9
$DIMTOH
 70
     1
  9
$DIMSE1
 70
     0
  9
$DIMSE2
 70
     0
  9
$DIMTAD
 70
     0
  9
$DIMZIN
 70
     0
  9
$DIMBLK
  1

  9
$DIMASO
 70
     1
  9
$DIMSHO
 70
     1
  9
$DIMPOST
  1

  9
$DIMAPOST
  1

  9
$DIMALT
 70
     0
  9
$DIMALTD
 70
     2
  9
$DIMALTF
 40
25.4
  9
$DIMLFAC
 40
1.0
  9
$DIMTOFL
 70
     0
  9
$DIMTVP
 40
0.0
  9
$DIMTIX
 70
     0
  9
$DIMSOXD
 70
     0
  9
$DIMSAH
 70
     0
  9
$DIMBLK1
  1

  9
$DIMBLK2
  1

  9
$DIMSTYLE
  2
Standard
  9
$DIMCLRD
 70
     0
  9
$DIMCLRE
 70
     0
  9
$DIMCLRT
 70
     0
  9
$DIMTFAC
 40
1.0
  9
$DIMGAP
 40
0.09
  9
$DIMJUST
 70
     0
  9
$DIMSD1
 70
     0
  9
$DIMSD2
 70
     0
  9
$DIMTOLJ
 70
     1
  9
$DIMTZIN
 70
     0
  9
$DIMALTZ
 70
     0
  9
$DIMALTTZ
 70
     0
  9
$DIMUPT
 70
     0
  9
$DIMDEC
 70
     4
  9
$DIMTDEC
 70
     4
  9
$DIMALTU
 70
     2
  9
$DIMALTTD
 70
     2
  9
$DIMTXSTY
  7
Standard
  9
$DIMAUNIT
 70
     0
  9
$DIMADEC
 70
     0
  9
$DIMALTRND
 40
0.0
  9
$DIMAZIN
 70
     0
  9
$DIMDSEP
 70
    46
  9
$DIMATFIT
 70
     3
  9
$DIMFRAC
 70
     0
  9
$DIMLDRBLK
  1

  9
$DIMLUNIT
 70
     2
  9
$DIMLWD
 70
    -2
  9
$DIMLWE
 70
    -2
  9
$DIMTMOVE
 70
     0
  9
$DIMFXL
 40
1.0
  9
$DIMFXLON
 70
     0
  9
$DIMJOGANG
 40
0.7853981633974483
  9
$DIMTFILL
 70
     0
  9
$DIMTFILLCLR
 70
     0
  9
$DIMARCSYM
 70
     0
  9
$DIMLTYPE
  6

  9
$DIMLTEX1
  6

  9
$DIMLTEX2
  6

  9
$DIMTXTDIRECTION
 70
     0
  9
$LUNITS
 70
     2
  9
$LUPREC
 70
     4
  9
$SKETCHINC
 40
0.1
  9
$FILLETRAD
 40
10.0
  9
$AUNITS
 70
     0
  9
$AUPREC
 70
     0
  9
$MENU
  1
.
  9
$ELEVATION
 40
0.0
  9
$PELEVATION
 40
0.0
  9
$THICKNESS
 40
0.0
  9
$LIMCHECK
 70
     0
  9
$CHAMFERA
 40
0.0
  9
$CHAMFERB
 40
0.0
  9
$CHAMFERC
 40
0.0
  9
$CHAMFERD
 40
0.0
  9
$SKPOLY
 70
     0
  9
$TDCREATE
 40
2459614.382083334
  9
$TDUCREATE
 40
2459614.257083334
  9
$TDUPDATE
 40
2459628.532210648
  9
$TDUUPDATE
 40
2459628.407210648
  9
$TDINDWG
 40
0.0090393519
  9
$TDUSRTIMER
 40
0.0090393519
  9
$USRTIMER
 70
     1
  9
$ANGBASE
 50
0.0
  9
$ANGDIR
 70
     0
  9
$PDMODE
 70
     0
  9
$PDSIZE
 40
0.0
  9
$PLINEWID
 40
0.0
  9
$SPLFRAME
 70
     1
  9
$SPLINETYPE
 70
     6
  9
$SPLINESEGS
 70
     8
  9
$HANDSEED
  5
D4F
  9
$SURFTAB1
 70
     6
  9
$SURFTAB2
 70
     6
  9
$SURFTYPE
 70
     6
  9
$SURFU
 70
     6
  9
$SURFV
 70
     6
  9
$UCSBASE
  2

  9
$UCSNAME
  2

  9
$UCSORG
 10
0.0
 20
0.0
 30
0.0
  9
$UCSXDIR
 10
1.0
 20
0.0
 30
0.0
  9
$UCSYDIR
 10
0.0
 20
1.0
 30
0.0
  9
$UCSORTHOREF
  2

  9
$UCSORTHOVIEW
 70
     0
  9
$UCSORGTOP
 10
0.0
 20
0.0
 30
0.0
  9
$UCSORGBOTTOM
 10
0.0
 20
0.0
 30
0.0
  9
$UCSORGLEFT
 10
0.0
 20
0.0
 30
0.0
  9
$UCSORGRIGHT
 10
0.0
 20
0.0
 30
0.0
  9
$UCSORGFRONT
 10
0.0
 20
0.0
 30
0.0
  9
$UCSORGBACK
 10
0.0
 20
0.0
 30
0.0
  9
$PUCSBASE
  2

  9
$PUCSNAME
  2

  9
$PUCSORG
 10
0.0
 20
0.0
 30
0.0
  9
$PUCSXDIR
 10
1.0
 20
0.0
 30
0.0
  9
$PUCSYDIR
 10
0.0
 20
1.0
 30
0.0
  9
$PUCSORTHOREF
  2

  9
$PUCSORTHOVIEW
 70
     0
  9
$PUCSORGTOP
 10
0.0
 20
0.0
 30
0.0
  9
$PUCSORGBOTTOM
 10
0.0
 20
0.0
 30
0.0
  9
$PUCSORGLEFT
 10
0.0
 20
0.0
 30
0.0
  9
$PUCSORGRIGHT
 10
0.0
 20
0.0
 30
0.0
  9
$PUCSORGFRONT
 10
0.0
 20
0.0
 30
0.0
  9
$PUCSORGBACK
 10
0.0
 20
0.0
 30
0.0
  9
$USERI1
 70
     0
  9
$USERI2
 70
     0
  9
$USERI3
 70
     0
  9
$USERI4
 70
     0
  9
$USERI5
 70
     0
  9
$USERR1
 40
0.0
  9
$USERR2
 40
0.0
  9
$USERR3
 40
0.0
  9
$USERR4
 40
0.0
  9
$USERR5
 40
0.0
  9
$WORLDVIEW
 70
     1
  9
$SHADEDGE
 70
     3
  9
$SHADEDIF
 70
    70
  9
$TILEMODE
 70
     1
  9
$MAXACTVP
 70
    64
  9
$PINSBASE
 10
0.0
 20
0.0
 30
0.0
  9
$PLIMCHECK
 70
     0
  9
$PEXTMIN
 10
1.000000000000000E+20
 20
1.000000000000000E+20
 30
1.000000000000000E+20
  9
$PEXTMAX
 10
-1.000000000000000E+20
 20
-1.000000000000000E+20
 30
-1.000000000000000E+20
  9
$PLIMMIN
 10
0.0
 20
0.0
  9
$PLIMMAX
 10
12.0
 20
9.0
  9
$UNITMODE
 70
     0
  9
$VISRETAIN
 70
     1
  9
$PLINEGEN
 70
     0
  9
$PSLTSCALE
 70
     1
  9
$TREEDEPTH
 70
  3020
  9
$CMLSTYLE
  2
Standard
  9
$CMLJUST
 70
     0
  9
$CMLSCALE
 40
1.0
  9
$PROXYGRAPHICS
 70
     1
  9
$MEASUREMENT
 70
     0
  9
$CELWEIGHT
370
    -1
  9
$ENDCAPS
280
     0
  9
$JOINSTYLE
280
     0
  9
$LWDISPLAY
290
     0
  9
$INSUNITS
 70
     0
  9
$HYPERLINKBASE
  1

  9
$STYLESHEET
  1

  9
$XEDIT
290
     1
  9
$CEPSNTYPE
380
     0
  9
$PSTYLEMODE
290
     1
  9
$FINGERPRINTGUID
  2
{ABB33638-36CC-CE4B-B7F0-0CF5AED989A2}
  9
$VERSIONGUID
  2
{97C88006-9BF8-5547-9047-85C31184FD3E}
  9
$EXTNAMES
290
     1
  9
$PSVPSCALE
 40
0.0
  9
$OLESTARTUP
290
     0
  9
$SORTENTS
280
   127
  9
$INDEXCTL
280
     0
  9
$HIDETEXT
280
     0
  9
$XCLIPFRAME
280
     2
  9
$HALOGAP
280
     0
  9
$OBSCOLOR
 70
   257
  9
$OBSLTYPE
280
     0
  9
$INTERSECTIONDISPLAY
280
     0
  9
$INTERSECTIONCOLOR
 70
   257
  9
$DIMASSOC
280
     1
  9
$PROJECTNAME
  1

  9
$CAMERADISPLAY
290
     0
  9
$LENSLENGTH
 40
50.0
  9
$CAMERAHEIGHT
 40
0.0
  9
$STEPSPERSEC
 40
2.0
  9
$STEPSIZE
 40
6.0
  9
$3DDWFPREC
 40
2.0
  9
$PSOLWIDTH
 40
0.25
  9
$PSOLHEIGHT
 40
4.0
  9
$LOFTANG1
 40
1.570796326794896
  9
$LOFTANG2
 40
1.570796326794896
  9
$LOFTMAG1
 40
0.0
  9
$LOFTMAG2
 40
0.0
  9
$LOFTPARAM
 70
     7
  9
$LOFTNORMALS
280
     1
  9
$LATITUDE
 40
37.795
  9
$LONGITUDE
 40
-122.394
  9
$NORTHDIRECTION
 40
0.0
  9
$TIMEZONE
 70
 -8000
  9
$LIGHTGLYPHDISPLAY
280
     1
  9
$TILEMODELIGHTSYNCH
280
     1
  9
$CMATERIAL
347
11
  9
$SOLIDHIST
280
     0
  9
$SHOWHIST
280
     1
  9
$DWFFRAME
280
     2
  9
$DGNFRAME
280
     0
  9
$REALWORLDSCALE
290
     1
  9
$INTERFERECOLOR
 62
     1
  9
$INTERFEREOBJVS
345
33
  9
$INTERFEREVPVS
346
30
  9
$CSHADOW
280
     0
  9
$SHADOWPLANELOCATION
 40
0.0
  0
ENDSEC
  0
SECTION
  2
CLASSES
  0
CLASS
  1
ACDBDICTIONARYWDFLT
  2
AcDbDictionaryWithDefault
  3
ObjectDBX Classes
 90
        0
 91
        1
280
     0
281
     0
  0
CLASS
  1
MATERIAL
  2
AcDbMaterial
  3
ObjectDBX Classes
 90
     1153
 91
        3
280
     0
281
     0
  0
CLASS
  1
VISUALSTYLE
  2
AcDbVisualStyle
  3
ObjectDBX Classes
 90
     4095
 91
       24
280
     0
281
     0
  0
CLASS
  1
SCALE
  2
AcDbScale
  3
ObjectDBX Classes
 90
     1153
 91
       17
280
     0
281
     0
  0
CLASS
  1
TABLESTYLE
  2
AcDbTableStyle
  3
ObjectDBX Classes
 90
     4095
 91
        1
280
     0
281
     0
  0
CLASS
  1
MLEADERSTYLE
  2
AcDbMLeaderStyle
  3
ACDB_MLEADERSTYLE_CLASS
 90
     4095
 91
        1
280
     0
281
     0
  0
CLASS
  1
ACDBSECTIONVIEWSTYLE
  2
AcDbSectionViewStyle
  3
ObjectDBX Classes
 90
     1025
 91
        1
280
     0
281
     0
  0
CLASS
  1
ACDBDETAILVIEWSTYLE
  2
AcDbDetailViewStyle
  3
ObjectDBX Classes
 90
     1025
 91
        1
280
     0
281
     0
  0
CLASS
  1
DICTIONARYVAR
  2
AcDbDictionaryVar
  3
ObjectDBX Classes
 90
        0
 91
        9
280
     0
281
     0
  0
CLASS
  1
CELLSTYLEMAP
  2
AcDbCellStyleMap
  3
ObjectDBX Classes
 90
     1152
 91
        2
280
     0
281
     0
  0
CLASS
  1
SORTENTSTABLE
  2
AcDbSortentsTable
  3
ObjectDBX Classes
 90
        0
 91
        1
280
     0
281
     0
  0
ENDSEC
  0
SECTION
  2
TABLES
  0
TABLE
  2
VPORT
  5
8
330
0
100
AcDbSymbolTable
 70
     1
1001
ACAD
1000
DbSaveVer
1071
      207
  0
VPORT
  5
74
330
8
100
AcDbSymbolTableRecord
100
AcDbViewportTableRecord
  2
*Active
 70
     0
 10
0.0
 20
0.0
 11
1.0
 21
1.0
 12
-1.945331045387902
 22
79.30512663251906
 13
0.0
 23
0.0
 14
1.0
 24
1.0
 15
0.0
 25
0.0
 16
0.0
 26
0.0
 36
1.0
 17
0.0
 27
0.0
 37
0.0
 40
117.2870936550736
 41
1.643320363164721
 42
50.0
 43
0.0
 44
0.0
 50
0.0
 51
0.0
 71
     0
 72
   100
 73
     1
 74
     0
 75
     0
 76
     0
 77
     0
 78
     0
281
     0
 65
     1
110
0.0
120
0.0
130
0.0
111
1.0
121
0.0
131
0.0
112
0.0
122
1.0
132
0.0
 79
     0
146
0.0
348
2F
 60
     3
 61
     5
292
     1
282
     1
141
0.0
142
0.0
 63
   250
421
  3355443
1001
ACAD_NAV_VCDISPLAY
1070
     3
  0
ENDTAB
  0
TABLE
  2
LTYPE
  5
5
330
0
100
AcDbSymbolTable
 70
     2
  0
LTYPE
  5
5A
330
5
100
AcDbSymbolTableRecord
100
AcDbLinetypeTableRecord
  2
ByBlock
 70
     0
  3

 72
    65
 73
     0
 40
0.0
  0
LTYPE
  5
5B
330
5
100
AcDbSymbolTableRecord
100
AcDbLinetypeTableRecord
  2
ByLayer
 70
     0
  3

 72
    65
 73
     0
 40
0.0
  0
LTYPE
  5
5C
330
5
100
AcDbSymbolTableRecord
100
AcDbLinetypeTableRecord
  2
Continuous
 70
     0
  3
Solid line
 72
    65
 73
     0
 40
0.0
  0
ENDTAB
  0
TABLE
  2
LAYER
  5
2
330
0
100
AcDbSymbolTable
 70
     1
  0
LAYER
  5
54
102
{ACAD_XDICTIONARY
360
CE0
102
}
330
2
100
AcDbSymbolTableRecord
100
AcDbLayerTableRecord
  2
0
 70
     0
 62
     7
  6
Continuous
370
    -3
390
F
347
21
348
0
  0
ENDTAB
  0
TABLE
  2
STYLE
  5
3
330
0
100
AcDbSymbolTable
 70
     2
  0
STYLE
  5
55
330
3
100
AcDbSymbolTableRecord
100
AcDbTextStyleTableRecord
  2
Standard
 70
     0
 40
0.0
 41
1.0
 50
0.0
 71
     0
 42
0.2
  3
txt
  4

  0
STYLE
  5
59
330
3
100
AcDbSymbolTableRecord
100
AcDbTextStyleTableRecord
  2
Annotative
 70
     0
 40
0.0
 41
1.0
 50
0.0
 71
     0
 42
0.2
  3
txt
  4

1001
AcadAnnotative
1000
AnnotativeData
1002
{
1070
     1
1070
     1
1002
}
  0
ENDTAB
  0
TABLE
  2
VIEW
  5
6
330
0
100
AcDbSymbolTable
 70
     0
  0
ENDTAB
  0
TABLE
  2
UCS
  5
7
330
0
100
AcDbSymbolTable
 70
     0
  0
ENDTAB
  0
TABLE
  2
APPID
  5
9
330
0
100
AcDbSymbolTable
 70
     4
  0
APPID
  5
56
330
9
100
AcDbSymbolTableRecord
100
AcDbRegAppTableRecord
  2
ACAD
 70
     0
  0
APPID
  5
5D
330
9
100
AcDbSymbolTableRecord
100
AcDbRegAppTableRecord
  2
AcadAnnotative
 70
     0
  0
APPID
  5
CD9
330
9
100
AcDbSymbolTableRecord
100
AcDbRegAppTableRecord
  2
ACAD_EXEMPT_FROM_CAD_STANDARDS
 70
     0
  0
APPID
  5
CEC
330
9
100
AcDbSymbolTableRecord
100
AcDbRegAppTableRecord
  2
ACAD_NAV_VCDISPLAY
 70
     0
  0
ENDTAB
  0
TABLE
  2
DIMSTYLE
  5
A
330
0
100
AcDbSymbolTable
 70
     3
100
AcDbDimStyleTable
 71
     1
340
57
  0
DIMSTYLE
105
57
330
A
100
AcDbSymbolTableRecord
100
AcDbDimStyleTableRecord
  2
Standard
 70
     0
340
55
  0
DIMSTYLE
105
58
330
A
100
AcDbSymbolTableRecord
100
AcDbDimStyleTableRecord
  2
Annotative
 70
     0
340
55
1001
AcadAnnotative
1000
AnnotativeData
1002
{
1070
     1
1070
     1
1002
}
  0
ENDTAB
  0
TABLE
  2
BLOCK_RECORD
  5
1
330
0
100
AcDbSymbolTable
 70
     1
  0
BLOCK_RECORD
  5
6F
102
{ACAD_XDICTIONARY
360
D13
102
}
330
1
100
AcDbSymbolTableRecord
100
AcDbBlockTableRecord
  2
*Model_Space
340
72
 70
     0
280
     1
281
     0
  0
BLOCK_RECORD
  5
6B
330
1
100
AcDbSymbolTableRecord
100
AcDbBlockTableRecord
  2
*Paper_Space
340
6E
 70
     0
280
     1
281
     0
  0
ENDTAB
  0
ENDSEC
  0
SECTION
  2
BLOCKS
  0
BLOCK
  5
70
330
6F
100
AcDbEntity
  8
0
100
AcDbBlockBegin
  2
*Model_Space
 70
     0
 10
0.0
 20
0.0
 30
0.0
  3
*Model_Space
  1

  0
ENDBLK
  5
71
330
6F
100
AcDbEntity
  8
0
100
AcDbBlockEnd
  0
BLOCK
  5
6C
330
6B
100
AcDbEntity
 67
     1
  8
0
100
AcDbBlockBegin
  2
*Paper_Space
 70
     0
 10
0.0
 20
0.0
 30
0.0
  3
*Paper_Space
  1

  0
ENDBLK
  5
6D
330
6B
100
AcDbEntity
 67
     1
  8
0
100
AcDbBlockEnd
  0
ENDSEC
  0
SECTION
  2
ENTITIES
  0
LWPOLYLINE
  5
7D
330
6F
100
AcDbEntity
  8
0
 62
     7
420
 16777215
100
AcDbPolyline
 90
      291
 70
     1
 43
0.0
 10
97.50628000000007
 20
26.21251999999995
 10
97.94508
 20
26.35371999999993
 10
99.21668000000003
 20
26.91531999999998
 10
100.80508
 20
27.87931999999995
 10
102.22428
 20
29.06571999999994
 10
103.15508
 20
30.07772000000001
 10
103.4266799999999
 20
30.44211999999996
 10
104.40348
 20
31.76811999999995
 10
115.60548
 20
31.24251999999995
 10
115.60548
 20
35.75011999999996
 10
112.04228
 20
36.01251999999999
 10
111.41508
 20
36.05811999999995
 10
109.53988
 20
36.19931999999997
 10
107.66708
 20
36.35972000000001
 10
106.31508
 20
36.53131999999999
 10
105.37548
 20
36.75252
 10
104.73268
 20
37.05652000000001
 10
104.28388
 20
37.47971999999995
 10
103.91508
 20
38.06131999999993
 10
103.61708
 20
38.64091999999999
 10
103.51988
 20
38.83371999999994
 10
103.37228
 20
39.12251999999999
 10
102.45868
 20
40.79131999999995
 10
101.54268
 20
42.33652
 10
101.39708
 20
42.56011999999995
 10
101.23668
 20
42.80771999999998
 10
100.81788
 20
43.59092
 10
100.46868
 20
44.76252
 10
100.2622799999999
 20
46.53371999999992
 10
100.14508
 20
48.65371999999992
 10
100.11708
 20
49.35931999999993
 10
100.08868
 20
50.02091999999996
 10
99.97588
 20
52.00651999999992
 10
99.79388
 20
53.70811999999996
 10
99.52868000000009
 20
54.73652
 10
99.25548
 20
55.23371999999993
 10
99.13388000000001
 20
55.36811999999996
 10
98.90148000000001
 20
55.62411999999993
 10
97.78828000000004
 20
56.17291999999999
 10
96.63828000000009
 20
55.76291999999996
 10
96.39108
 20
55.53771999999996
 10
96.26948
 20
55.42932
 10
95.99828000000004
 20
54.99251999999996
 10
95.77228000000008
 20
53.98371999999993
 10
95.67068000000004
 20
52.11771999999992
 10
95.64668000000002
 20
49.78011999999992
 10
95.64668000000002
 20
48.99852
 10
95.64668000000002
 20
43.13291999999999
 10
97.35668000000003
 20
40.61372
 10
97.69947999999999
 20
40.10972000000001
 10
98.64347999999999
 20
38.53652000000002
 10
99.50068000000003
 20
36.72852000000001
 10
99.91708
 20
35.21851999999999
 10
99.95868000000005
 20
34.30931999999997
 10
99.88948000000004
 20
34.02691999999996
 10
99.82828000000004
 20
33.79052000000001
 10
99.47268000000004
 20
33.12411999999995
 10
98.82547999999999
 20
32.33652000000001
 10
98.19228000000004
 20
31.89131999999995
 10
97.82988000000001
 20
31.96531999999993
 10
97.80988
 20
32.02412000000001
 10
97.78828000000004
 20
32.08691999999999
 10
97.43268000000004
 20
32.87052
 10
96.87268000000004
 20
34.01851999999994
 10
96.74867999999996
 20
34.26371999999995
 10
96.60348
 20
34.55011999999993
 10
96.04387999999996
 20
35.34211999999993
 10
95.27988
 20
36.00211999999999
 10
94.51828000000004
 20
36.26851999999999
 10
93.81507999999996
 20
36.17131999999994
 10
93.23348000000001
 20
35.73252
 10
92.83628000000005
 20
34.97771999999995
 10
92.67987999999997
 20
33.93371999999999
 10
92.76068000000003
 20
32.94411999999994
 10
92.83148
 20
32.62532000000002
 10
92.90107999999996
 20
32.31252000000004
 10
93.03148
 20
31.14932000000001
 10
92.86668
 20
30.46132
 10
92.79068000000004
 20
30.38372000000001
 10
92.72987999999999
 20
30.32252
 10
92.31987999999999
 20
30.20091999999997
 10
91.36268000000004
 20
30.02972
 10
90.06268
 20
29.89091999999999
 10
88.93228000000004
 20
29.81492
 10
88.55668000000004
 20
29.79971999999995
 10
84.76788
 20
29.66092000000001
 10
84.53347999999996
 20
32.23652000000001
 10
84.50508000000004
 20
32.55571999999995
 10
84.37708000000005
 20
33.51052000000001
 10
84.15988
 20
34.41972000000002
 10
83.84947999999999
 20
35.06411999999995
 10
83.53268000000007
 20
35.43292000000003
 10
83.41107999999996
 20
35.53291999999999
 10
83.28787999999995
 20
35.63292000000001
 10
82.67548000000003
 20
36.04292000000001
 10
82.28708000000002
 20
36.25371999999999
 10
82.15868000000003
 20
36.25371999999999
 10
81.99668000000007
 20
36.25371999999999
 10
81.51068000000002
 20
35.97371999999993
 10
80.85947999999993
 20
35.23132000000001
 10
80.30788000000002
 20
34.19211999999996
 10
80.01508000000006
 20
33.31091999999995
 10
79.96508000000004
 20
33.00932
 10
79.92387999999997
 20
32.77691999999996
 10
79.59828000000005
 20
31.74651999999995
 10
79.20108000000005
 20
31.12531999999995
 10
79.12548000000002
 20
31.09531999999995
 10
78.92108
 20
31.01692
 10
78.20068000000005
 20
31.06252000000004
 10
76.99428000000004
 20
31.44011999999995
 10
75.72868000000008
 20
32.13052000000002
 10
74.87628000000005
 20
32.77691999999996
 10
74.63348
 20
33.03092000000001
 10
74.45948
 20
33.21292000000001
 10
73.98228000000004
 20
33.79252000000003
 10
73.62628000000005
 20
34.55852000000001
 10
73.47668000000004
 20
35.65492000000001
 10
73.44588
 20
36.96292000000001
 10
73.44588
 20
37.39932000000003
 10
73.44588
 20
37.85971999999996
 10
73.40868000000004
 20
39.23972
 10
73.18787999999995
 20
40.48972
 10
72.60387999999995
 20
41.68292000000002
 10
71.76828000000004
 20
42.93531999999998
 10
71.48428000000004
 20
43.34571999999992
 10
70.84628000000005
 20
44.25932
 10
69.08147999999996
 20
47.10411999999992
 10
67.35428000000005
 20
50.70691999999993
 10
66.04148000000005
 20
54.81252000000004
 10
65.13868000000001
 20
58.75131999999992
 10
64.88508
 20
60.07291999999999
 10
64.78508000000001
 20
60.59211999999998
 10
64.45947999999996
 20
62.14131999999999
 10
64.04267999999996
 20
63.91652
 10
63.68068000000004
 20
65.2121199999999
 10
63.48508000000004
 20
65.76092
 10
63.42228000000003
 20
65.83691999999999
 10
63.35708000000001
 20
65.91531999999995
 10
62.82547999999994
 20
66.23411999999996
 10
62.23508000000004
 20
66.39692
 10
62.03988000000004
 20
66.39692
 10
61.78988000000003
 20
66.39692
 10
61.04148000000003
 20
66.19291999999996
 10
60.46868000000003
 20
65.45291999999999
 10
60.25388000000003
 20
63.98371999999993
 10
60.28828000000004
 20
62.19291999999996
 10
60.32988000000003
 20
61.59851999999999
 10
60.41428
 20
60.33371999999992
 10
61.03508000000001
 20
56.55971999999992
 10
62.41348000000003
 20
51.43811999999993
 10
64.34428
 20
46.58572
 10
66.04148000000005
 20
43.35411999999992
 10
66.71668000000001
 20
42.34772000000001
 10
66.96587999999995
 20
41.97411999999991
 10
67.68228000000005
 20
40.82811999999992
 10
68.31148
 20
39.63492
 10
68.64987999999995
 20
38.65371999999993
 10
68.75428000000005
 20
37.99211999999994
 10
68.75588
 20
37.77052000000001
 10
68.75588
 20
37.59691999999996
 10
68.71068000000001
 20
37.07211999999997
 10
68.52587999999996
 20
36.52491999999997
 10
68.14668000000003
 20
36.11491999999997
 10
67.50428000000001
 20
35.82211999999997
 10
66.54068000000005
 20
35.62651999999999
 10
65.19267999999995
 20
35.51371999999995
 10
63.39828
 20
35.45931999999993
 10
61.67108000000003
 20
35.44852000000001
 10
61.09787999999996
 20
35.44852000000001
 10
60.06268000000003
 20
35.45092000000003
 10
56.95708
 20
35.53531999999992
 10
54.20547999999996
 20
35.82811999999992
 10
52.44988000000002
 20
36.40131999999994
 10
51.53828000000004
 20
37.05411999999999
 10
51.30228000000004
 20
37.32811999999999
 10
51.16708000000004
 20
37.48411999999996
 10
50.80707999999996
 20
37.98292000000001
 10
50.54868000000004
 20
38.61252000000003
 10
50.48588000000004
 20
39.39811999999992
 10
50.54868000000004
 20
40.23571999999995
 10
50.58147999999996
 20
40.51371999999995
 10
50.61148000000001
 20
40.77651999999999
 10
50.75508000000002
 20
41.55531999999992
 10
51.04987999999996
 20
42.85771999999993
 10
51.42788000000003
 20
44.25691999999997
 10
51.73147999999996
 20
45.25531999999996
 10
51.84428
 20
45.58291999999992
 10
52.07668000000004
 20
46.27291999999999
 10
52.57387999999996
 20
48.40851999999996
 10
52.48868000000004
 20
50.31411999999992
 10
51.56228
 20
51.39252
 10
50.21068000000004
 20
51.73092
 10
49.76107999999996
 20
51.73092
 10
49.52427999999996
 20
51.73092
 10
48.81707999999999
 20
51.69652
 10
48.21827999999996
 20
51.55091999999996
 10
47.84508000000004
 20
51.24492
 10
47.63228
 20
50.85652
 10
47.58228000000004
 20
50.71972
 10
47.52827999999996
 20
50.57852
 10
47.31988000000002
 20
50.17291999999996
 10
46.95948
 20
49.90132
 10
46.32547999999998
 20
49.84971999999999
 10
45.51588000000004
 20
49.92531999999992
 10
45.24947999999996
 20
49.96011999999993
 10
44.07108000000003
 20
50.11411999999992
 10
40.57268000000004
 20
50.86771999999992
 10
35.63548
 20
52.36052
 10
30.78548
 20
54.31371999999999
 10
27.44108000000002
 20
55.97371999999992
 10
26.37548
 20
56.60531999999999
 10
25.31228000000004
 20
57.23652
 10
22.42148
 20
59.62571999999992
 10
18.96268000000003
 20
63.59291999999999
 10
16.18507999999999
 20
68.24571999999992
 10
14.63347999999999
 20
72.01971999999995
 10
14.28388000000003
 20
73.31971999999992
 10
13.99708000000003
 20
74.37651999999999
 10
13.66108000000002
 20
77.68371999999998
 10
13.50427999999999
 20
83.60571999999992
 10
13.79788000000003
 20
89.86491999999996
 10
14.25347999999999
 20
93.91651999999998
 10
14.52868000000004
 20
95.24011999999999
 10
14.62228
 20
95.68932
 10
14.88947999999999
 20
97.03931999999996
 10
15.16268000000003
 20
98.53011999999992
 10
15.32347999999999
 20
99.55852000000005
 10
15.36228000000002
 20
99.95372000000001
 10
15.34268000000002
 20
99.97091999999996
 10
15.32107999999999
 20
99.98851999999999
 10
14.61547999999998
 20
100.1381199999999
 10
13.36787999999999
 20
100.32692
 10
13.07707999999999
 20
100.3637199999999
 10
10.95668000000003
 20
100.6353199999999
 10
10.54668000000003
 20
99.09652000000004
 10
10.11947999999999
 20
97.50372
 10
9.303479999999991
 20
92.59491999999996
 10
8.704280000000036
 20
85.37931999999996
 10
8.788680000000026
 20
78.45411999999992
 10
9.244279999999998
 20
74.19852
 10
9.591479999999988
 20
72.82692
 10
9.993479999999987
 20
71.23651999999998
 10
11.75347999999999
 20
66.60291999999995
 10
14.90668000000004
 20
61.14091999999999
 10
19.08388000000003
 20
56.40291999999998
 10
22.93148000000003
 20
53.24131999999998
 10
24.31627999999999
 20
52.34531999999996
 10
25.25588000000003
 20
51.73772
 10
28.25268000000004
 20
50.17692
 10
32.88147999999999
 20
48.26971999999996
 10
37.92108
 20
46.72011999999996
 10
41.79427999999997
 20
45.83931999999996
 10
43.09868000000004
 20
45.62852
 10
46.15428
 20
45.13571999999991
 10
46.15428
 20
40.73251999999999
 10
46.15428
 20
40.10571999999998
 10
46.17827999999996
 20
38.22211999999993
 10
46.32388000000004
 20
36.70092000000003
 10
46.68828
 20
35.66292000000001
 10
47.19148000000004
 20
34.85571999999993
 10
47.37628000000003
 20
34.59571999999994
 10
47.56507999999995
 20
34.32652000000002
 10
48.17268000000002
 20
33.54292000000001
 10
48.97347999999996
 20
32.72692000000001
 10
49.90428000000001
 20
32.11972
 10
51.08707999999996
 20
31.68531999999999
 10
52.64508000000002
 20
31.39251999999999
 10
54.70508000000004
 20
31.20572000000001
 10
57.38708000000004
 20
31.09772000000001
 10
59.95868000000005
 20
31.04091999999994
 10
60.81788000000003
 20
31.02811999999995
 10
62.08947999999995
 20
31.01052000000001
 10
65.90507999999998
 20
30.93692000000001
 10
68.69787999999998
 20
30.78692000000001
 10
70.04348
 20
30.49211999999994
 10
70.62948000000004
 20
30.11652000000001
 10
70.79828000000005
 20
29.96011999999993
 10
71.29547999999998
 20
29.50252000000001
 10
74.09268000000004
 20
27.63371999999995
 10
77.39348000000003
 20
26.27531999999999
 10
78.14428000000005
 20
26.07371999999995
 10
78.59547999999995
 20
25.95211999999995
 10
79.97388
 20
25.65252000000001
 10
81.90347999999996
 20
25.42691999999999
 10
84.49228000000003
 20
25.35532000000001
 10
87.35868000000003
 20
25.38372000000001
 10
88.31388000000002
 20
25.40292000000002
 10
89.58948000000004
 20
25.43091999999995
 10
94.27067999999996
 20
25.67211999999995
 10
97.13547999999995
 20
26.09531999999995
 10
97.50628000000007
 20
26.21251999999995
  0
LWPOLYLINE
  5
1A2
330
6F
100
AcDbEntity
  8
0
 62
     7
420
 16777215
100
AcDbPolyline
 90
      283
 70
     1
 43
0.0
 10
159.32068
 20
26.27091999999996
 10
159.88068
 20
26.41852
 10
161.53628
 20
26.96531999999993
 10
163.41988
 20
27.81811999999997
 10
165.05228
 20
28.87771999999995
 10
166.17388
 20
29.83411999999995
 10
166.51428
 20
30.18371999999999
 10
166.9114799999999
 20
30.59572
 10
167.96868
 20
31.96531999999993
 10
168.84948
 20
33.83571999999996
 10
169.23828
 20
36.06931999999996
 10
169.26228
 20
38.22411999999994
 10
169.22068
 20
38.93811999999994
 10
169.19068
 20
39.43691999999995
 10
169.10548
 20
40.99091999999997
 10
168.9558799999999
 20
43.89491999999999
 10
168.78868
 20
47.26492
 10
168.66508
 20
49.85211999999992
 10
168.62628
 20
50.71292
 10
168.53708
 20
52.62291999999996
 10
168.11388
 20
58.34371999999996
 10
167.25228
 20
63.94251999999992
 10
165.77868
 20
68.65371999999992
 10
164.07108
 20
72.40571999999992
 10
163.4370799999999
 20
73.61931999999995
 10
161.25828
 20
77.78811999999994
 10
161.8898799999999
 20
79.52651999999997
 10
162.04628
 20
79.96011999999992
 10
162.3154799999999
 20
81.33571999999995
 10
162.5478799999999
 20
83.62531999999992
 10
162.56268
 20
85.89771999999992
 10
162.44548
 20
87.23491999999998
 10
162.33268
 20
87.65771999999996
 10
162.2894799999999
 20
87.82052
 10
162.26788
 20
88.33491999999997
 10
162.63668
 20
89.04652
 10
163.67148
 20
90.08211999999996
 10
165.1150799999999
 20
91.31851999999996
 10
165.60348
 20
91.72251999999998
 10
166.4298799999999
 20
92.41252000000001
 10
168.84348
 20
94.56771999999997
 10
171.97068
 20
97.58571999999997
 10
174.76548
 20
100.5593199999999
 10
176.47788
 20
102.5621199999999
 10
177.00948
 20
103.25852
 10
177.77348
 20
104.2681199999999
 10
179.68108
 20
107.58812
 10
182.06988
 20
112.8397199999999
 10
183.78668
 20
118.02252
 10
184.4398799999999
 20
121.1149199999999
 10
184.4378799999999
 20
122.1437199999999
 10
184.4354799999999
 20
122.4037199999999
 10
184.2554799999999
 20
124.2569199999999
 10
183.91068
 20
126.3185199999999
 10
183.8278799999999
 20
126.6809199999999
 10
183.74348
 20
127.04572
 10
183.34148
 20
128.80372
 10
183.05108
 20
130.0709199999999
 10
183.02508
 20
130.1881199999999
 10
182.82788
 20
131.04772
 10
181.00668
 20
130.1881199999999
 10
180.75508
 20
130.0709199999999
 10
179.7178799999999
 20
129.40252
 10
179.17508
 20
128.80372
 10
179.17508
 20
128.71852
 10
179.1726799999999
 20
128.6365199999999
 10
179.2294799999999
 20
128.25012
 10
179.39228
 20
127.4193199999999
 10
179.63348
 20
126.3469199999999
 10
179.85428
 20
125.44852
 10
179.93268
 20
125.1493199999999
 10
180.0434799999999
 20
124.71932
 10
180.3514799999999
 20
123.4169199999999
 10
180.49428
 20
122.19292
 10
180.36228
 20
120.9713199999999
 10
180.0670799999999
 20
119.6737199999999
 10
179.96068
 20
119.2441199999999
 10
179.60508
 20
117.8313199999999
 10
178.19228
 20
113.67772
 10
175.74828
 20
108.7777199999999
 10
172.37628
 20
104.1293199999999
 10
169.01668
 20
100.4637199999999
 10
167.82788
 20
99.31572
 10
166.74428
 20
98.27412
 10
160.43628
 20
93.26531999999998
 10
153.14668
 20
88.67772
 10
151.57348
 20
87.84411999999994
 10
151.14548
 20
87.62092
 10
149.87388
 20
86.93092
 10
148.53508
 20
86.16491999999999
 10
147.5258799999999
 20
85.52011999999992
 10
146.8182800000001
 20
84.97091999999993
 10
146.38228
 20
84.49132
 10
146.1850800000001
 20
84.05292000000001
 10
146.20228
 20
83.63211999999995
 10
146.33868
 20
83.30011999999992
 10
146.40148
 20
83.19811999999997
 10
146.53228
 20
82.99211999999993
 10
147.1826800000001
 20
82.52771999999991
 10
148.44148
 20
82.44691999999998
 10
150.34508
 20
82.97851999999997
 10
152.39348
 20
83.83371999999996
 10
153.06148
 20
84.14652
 10
153.59148
 20
84.39571999999996
 10
155.19948
 20
85.12291999999995
 10
156.52988
 20
85.62651999999998
 10
157.30868
 20
85.73252
 10
157.69708
 20
85.59572000000001
 10
157.79708
 20
85.51371999999995
 10
157.91668
 20
85.41372
 10
158.26148
 20
84.73011999999995
 10
158.28548
 20
83.66931999999993
 10
158.24668
 20
83.37811999999992
 10
158.1854799999999
 20
82.92492000000001
 10
157.1570799999999
 20
80.91691999999993
 10
155.16268
 20
79.26131999999995
 10
154.6198799999999
 20
78.98132
 10
154.4114799999999
 20
78.87532
 10
153.41108
 20
78.17411999999992
 10
152.69708
 20
77.44091999999993
 10
152.63228
 20
77.31691999999998
 10
152.52988
 20
77.12811999999992
 10
152.4086800000001
 20
76.45771999999992
 10
152.87548
 20
75.84771999999995
 10
153.07068
 20
75.68932
 10
153.19868
 20
75.58531999999992
 10
154.15548
 20
75.16411999999998
 10
155.15828
 20
74.94931999999995
 10
155.49228
 20
74.94931999999995
 10
155.81788
 20
74.94931999999995
 10
156.80108
 20
74.70411999999992
 10
157.98148
 20
73.89931999999993
 10
159.13628
 20
72.44291999999996
 10
160.0798799999999
 20
70.80211999999992
 10
160.35988
 20
70.23571999999996
 10
160.85508
 20
69.23531999999993
 10
161.99668
 20
66.06051999999997
 10
163.1750799999999
 20
61.14291999999998
 10
163.86268
 20
55.64571999999996
 10
164.0578799999999
 20
51.20572
 10
164.03628
 20
49.72572
 10
164.02348
 20
48.91211999999992
 10
164.15988
 20
45.23132
 10
164.5742799999999
 20
41.93291999999996
 10
164.70068
 20
41.31011999999995
 10
164.85228
 20
40.55931999999994
 10
165.13428
 20
38.26291999999997
 10
164.96268
 20
35.99971999999993
 10
164.11428
 20
34.23972000000001
 10
162.95548
 20
33.03771999999995
 10
162.51948
 20
32.70532
 10
162.2154799999999
 20
32.47532000000001
 10
161.2522799999999
 20
31.85492000000002
 10
160.06268
 20
31.24931999999995
 10
159.11428
 20
30.95411999999993
 10
158.64108
 20
30.96291999999996
 10
158.56348
 20
31.04091999999994
 10
158.53708
 20
31.06692000000001
 10
158.31388
 20
31.80692000000002
 10
158.02708
 20
33.09572
 10
157.97068
 20
33.39371999999995
 10
157.89508
 20
33.79252000000003
 10
157.59348
 20
34.97532000000001
 10
157.13948
 20
35.97811999999996
 10
156.54068
 20
36.50771999999992
 10
155.92868
 20
36.65931999999994
 10
155.7266799999999
 20
36.65931999999994
 10
155.51828
 20
36.65931999999994
 10
154.8934799999999
 20
36.49652000000001
 10
154.2858799999999
 20
35.93692000000001
 10
153.84108
 20
34.88411999999993
 10
153.56108
 20
33.65132
 10
153.4938799999999
 20
33.23491999999995
 10
153.44148
 20
32.92051999999995
 10
153.14668
 20
31.48571999999995
 10
152.8770799999999
 20
30.55492000000001
 10
152.84068
 20
30.49211999999994
 10
152.76868
 20
30.37931999999995
 10
151.91628
 20
30.27052000000001
 10
150.09788
 20
30.26651999999995
 10
148.17868
 20
30.44411999999994
 10
147.15868
 20
30.63931999999994
 10
146.95268
 20
30.76532
 10
146.89868
 20
30.80011999999993
 10
146.67508
 20
31.74211999999994
 10
146.56228
 20
33.25011999999996
 10
146.56228
 20
33.75131999999993
 10
146.56228
 20
34.20491999999999
 10
146.47548
 20
35.56571999999999
 10
146.1806800000001
 20
36.70692000000001
 10
145.6114799999999
 20
37.30411999999996
 10
144.9350800000001
 20
37.47532000000001
 10
144.71108
 20
37.47532000000001
 10
144.50508
 20
37.47532000000001
 10
143.88668
 20
37.27571999999995
 10
143.18548
 20
36.70292000000001
 10
142.64108
 20
35.79811999999995
 10
142.34548
 20
34.90371999999993
 10
142.2894799999999
 20
34.59771999999996
 10
142.22228
 20
34.23972000000001
 10
141.94668
 20
33.17652000000001
 10
141.5558799999999
 20
32.45131999999995
 10
141.0698799999999
 20
32.38651999999996
 10
140.57508
 20
32.78131999999999
 10
140.44508
 20
32.93771999999993
 10
140.29508
 20
33.11771999999993
 10
139.8154799999999
 20
34.20491999999999
 10
139.63708
 20
35.72652000000002
 10
139.63708
 20
36.23211999999997
 10
139.63708
 20
36.57052000000002
 10
139.71108
 20
37.58371999999994
 10
140.0062800000001
 20
38.89492
 10
140.62068
 20
40.48972
 10
141.38668
 20
42.14371999999992
 10
141.6534799999999
 20
42.68811999999994
 10
142.05268
 20
43.50652
 10
143.1750799999999
 20
45.99771999999996
 10
144.19068
 20
48.69692
 10
144.75668
 20
50.97572
 10
144.93268
 20
52.50571999999996
 10
144.93268
 20
53.01371999999997
 10
144.93268
 20
53.37131999999993
 10
144.7586800000001
 20
54.44371999999996
 10
144.26828
 20
55.34411999999996
 10
143.50068
 20
55.67851999999996
 10
142.7210799999999
 20
55.52251999999999
 10
142.49788
 20
55.40291999999999
 10
142.31788
 20
55.30771999999996
 10
141.83388
 20
54.92531999999992
 10
141.3278799999999
 20
54.19851999999998
 10
140.89388
 20
53.05492
 10
140.54868
 20
51.76131999999996
 10
140.44868
 20
51.32531999999996
 10
140.4034799999999
 20
51.12972
 10
140.25588
 20
50.54211999999992
 10
140.0410799999999
 20
49.80571999999996
 10
139.77628
 20
49.05091999999996
 10
139.42868
 20
48.20691999999993
 10
138.97108
 20
47.20411999999992
 10
138.37228
 20
45.97572
 10
137.60388
 20
44.45491999999996
 10
136.87708
 20
43.03771999999996
 10
136.63388
 20
42.56651999999998
 10
136.4778799999999
 20
42.26931999999997
 10
136.0414799999999
 20
41.35571999999998
 10
135.51828
 20
40.16652000000001
 10
135.12348
 20
39.13532
 10
134.9434799999999
 20
38.57971999999993
 10
134.91108
 20
38.39771999999993
 10
134.8826800000001
 20
38.24811999999994
 10
134.73068
 20
37.80292
 10
134.40108
 20
37.32371999999994
 10
133.86508
 20
36.94131999999999
 10
133.06388
 20
36.64412
 10
131.94228
 20
36.41412000000001
 10
130.44268
 20
36.23411999999996
 10
128.50428
 20
36.09292000000002
 10
126.6814799999999
 20
35.99532000000002
 10
126.0762800000001
 20
35.96932000000001
 10
120.45548
 20
35.72411999999995
 10
120.5770800000001
 20
33.44291999999999
 10
120.69668
 20
31.16252
 10
125.5854799999999
 20
31.28211999999993
 10
126.10228
 20
31.29491999999999
 10
127.65628
 20
31.36411999999993
 10
129.68108
 20
31.49491999999995
 10
131.4298799999999
 20
31.65771999999995
 10
132.36708
 20
31.77411999999995
 10
132.67108
 20
31.83291999999995
 10
134.86708
 20
32.26252000000001
 10
136.4822800000001
 20
30.37492
 10
136.81628
 20
29.98211999999998
 10
137.94068
 20
28.89691999999999
 10
139.54228
 20
27.80292
 10
141.4778799999999
 20
26.98251999999999
 10
143.32428
 20
26.46652
 10
143.94948
 20
26.33211999999995
 10
144.82828
 20
26.14532
 10
147.5282800000001
 20
25.86972
 10
151.9250799999999
 20
25.70252000000002
 10
156.17628
 20
25.83492000000001
 10
158.56348
 20
26.07571999999996
 10
159.32068
 20
26.27091999999996
  0
LWPOLYLINE
  5
2BF
330
6F
100
AcDbEntity
  8
0
 62
     7
420
 16777215
100
AcDbPolyline
 90
       25
 70
     1
 43
0.0
 10
49.60268000000002
 20
57.00011999999996
 10
49.65868000000003
 20
57.10852
 10
49.76547999999996
 20
57.69491999999999
 10
49.89988
 20
58.99651999999999
 10
49.98868000000004
 20
60.72411999999992
 10
50.02387999999999
 20
62.19531999999996
 10
50.02387999999999
 20
62.68571999999998
 10
50.02387999999999
 20
67.58571999999997
 10
48.42668000000004
 20
68.06371999999999
 10
48.20507999999996
 20
68.13091999999996
 10
47.12227999999998
 20
68.33691999999999
 10
46.32147999999996
 20
68.34971999999992
 10
46.24107999999996
 20
68.31771999999997
 10
45.98508000000004
 20
68.22211999999992
 10
45.61147999999996
 20
66.74411999999994
 10
45.29068000000004
 20
63.44531999999996
 10
45.32347999999998
 20
59.68491999999996
 10
45.54868000000004
 20
57.42971999999992
 10
45.76828000000004
 20
56.72252
 10
45.81147999999997
 20
56.57491999999992
 10
46.41068000000003
 20
56.27292000000004
 10
47.59948
 20
56.19291999999997
 10
48.83228000000004
 20
56.44931999999992
 10
49.50268000000004
 20
56.81371999999999
 10
49.60268000000002
 20
57.00011999999996
  0
LWPOLYLINE
  5
2DA
330
6F
100
AcDbEntity
  8
0
 62
     7
420
 16777215
100
AcDbPolyline
 90
      185
 70
     1
 43
0.0
 10
53.68507999999996
 20
76.16492
 10
53.89948000000003
 20
76.52931999999998
 10
54.57868000000004
 20
77.60371999999994
 10
55.41868000000004
 20
78.81411999999992
 10
56.10428
 20
79.66931999999999
 10
56.45147999999996
 20
80.01251999999999
 10
56.54708
 20
80.04251999999999
 10
56.64268000000004
 20
80.07291999999997
 10
57.60388000000004
 20
79.95811999999995
 10
58.90148
 20
79.55411999999995
 10
59.16668000000004
 20
79.43932
 10
59.59388000000004
 20
79.25691999999995
 10
60.94827999999997
 20
78.85772
 10
62.45667999999996
 20
78.69291999999996
 10
63.63067999999995
 20
78.87971999999992
 10
64.40708000000005
 20
79.35251999999993
 10
64.72428000000005
 20
80.04932
 10
64.52228000000001
 20
80.90211999999992
 10
63.74107999999996
 20
81.84371999999994
 10
62.69507999999996
 20
82.60772000000001
 10
62.31988000000004
 20
82.81211999999992
 10
61.89427999999995
 20
83.04411999999997
 10
60.67507999999996
 20
83.83371999999996
 10
59.34868000000005
 20
84.91691999999998
 10
58.40868000000003
 20
85.99771999999996
 10
57.98588000000004
 20
86.74411999999994
 10
57.92108000000004
 20
87.01092
 10
57.85147999999995
 20
87.28251999999995
 10
57.95108000000004
 20
88.22211999999996
 10
58.34388000000004
 20
89.88411999999996
 10
58.93868000000002
 20
91.46852
 10
59.37268000000003
 20
92.28252000000001
 10
59.57427999999996
 20
92.44691999999998
 10
59.66347999999996
 20
92.52091999999995
 10
60.11948000000003
 20
92.51651999999999
 10
61.24788000000004
 20
92.15851999999996
 10
63.13987999999996
 20
91.30371999999995
 10
65.26427999999995
 20
90.24491999999996
 10
65.96787999999995
 20
89.88211999999995
 10
67.12867999999993
 20
89.28291999999997
 10
70.68108000000005
 20
87.60972
 10
74.76548000000002
 20
85.94771999999997
 10
77.92947999999999
 20
85.00131999999995
 10
79.46828000000005
 20
84.76931999999996
 10
79.88948
 20
84.87371999999995
 10
80.10148
 20
84.92772
 10
80.68787999999996
 20
85.32692
 10
81.19107999999995
 20
86.08651999999997
 10
81.32388
 20
86.95851999999996
 10
81.13708000000007
 20
87.59252
 10
81.00867999999996
 20
87.74651999999996
 10
80.94388
 20
87.82491999999992
 10
80.56148
 20
88.07211999999992
 10
79.69388000000002
 20
88.53652000000003
 10
78.53068
 20
89.07932
 10
77.52988000000001
 20
89.50492
 10
77.19588
 20
89.63691999999996
 10
75.10388
 20
90.46571999999995
 10
69.02107999999995
 20
93.43931999999997
 10
61.65348
 20
98.05492
 10
55.08667999999996
 20
103.48652
 10
50.65108000000003
 20
108.08532
 10
49.32068000000004
 20
109.73652
 10
49.13828000000004
 20
109.9625199999999
 10
48.57627999999996
 20
110.6177199999999
 10
48.04668000000003
 20
111.0301199999999
 10
47.52628
 20
111.06692
 10
46.98108
 20
110.88492
 10
46.80547999999999
 20
110.8109199999999
 10
46.49708000000003
 20
110.6853199999999
 10
45.60947999999998
 20
110.2097199999999
 10
45.01948000000004
 20
109.5501199999999
 10
44.96068000000003
 20
108.64932
 10
45.23827999999999
 20
107.6577199999999
 10
45.35988000000004
 20
107.33652
 10
45.46428000000004
 20
107.0629199999999
 10
45.71147999999996
 20
106.2101199999999
 10
45.88547999999993
 20
104.9581199999999
 10
45.90507999999998
 20
103.25852
 10
45.82427999999995
 20
101.4097199999999
 10
45.78988000000004
 20
100.79372
 10
45.76147999999998
 20
100.32932
 10
45.66387999999999
 20
98.93131999999996
 10
45.52708000000004
 20
97.32132
 10
45.39947999999996
 20
96.13651999999996
 10
45.32347999999998
 20
95.62651999999999
 10
45.29507999999996
 20
95.54811999999996
 10
45.26068000000003
 20
95.45931999999996
 10
45.62067999999996
 20
95.01411999999996
 10
46.82268000000004
 20
94.61531999999996
 10
47.20508000000004
 20
94.53251999999999
 10
47.49547999999996
 20
94.47211999999996
 10
48.74547999999997
 20
94.25491999999993
 10
49.45268000000001
 20
94.20492000000001
 10
49.47428000000003
 20
94.22491999999996
 10
49.49427999999996
 20
94.24411999999993
 10
49.56147999999998
 20
94.53251999999999
 10
49.69587999999999
 20
95.26411999999996
 10
49.85427999999998
 20
96.31011999999996
 10
49.98428000000004
 20
97.24771999999996
 10
50.02387999999999
 20
97.55812
 10
50.06267999999996
 20
97.87052
 10
50.19267999999996
 20
98.80812
 10
50.35547999999996
 20
99.85571999999992
 10
50.49428000000004
 20
100.59372
 10
50.56828
 20
100.8869199999999
 10
50.59227999999996
 20
100.9085199999999
 10
50.60947999999999
 20
100.9257199999999
 10
50.86548000000004
 20
100.77412
 10
51.49268000000002
 20
100.2881199999999
 10
52.37828000000003
 20
99.52652
 10
53.17068000000004
 20
98.80812
 10
53.43108000000004
 20
98.56492000000001
 10
56.10868000000003
 20
96.06051999999998
 10
54.69588
 20
93.25492
 10
54.49668000000004
 20
92.86131999999996
 10
53.94108000000002
 20
91.65771999999995
 10
53.51348
 20
90.36811999999995
 10
53.32427999999996
 20
88.99651999999996
 10
53.28347999999996
 20
87.61211999999996
 10
53.28347999999996
 20
87.14972000000001
 10
53.28347999999996
 20
86.66811999999994
 10
53.25268000000004
 20
85.22091999999998
 10
53.05988000000002
 20
83.99252
 10
52.54548
 20
82.96371999999992
 10
51.81148000000003
 20
81.96531999999992
 10
51.55788000000004
 20
81.63971999999995
 10
51.38668000000004
 20
81.42291999999995
 10
50.86347999999996
 20
80.78251999999997
 10
50.25388000000003
 20
80.07971999999995
 10
49.79387999999996
 20
79.60651999999997
 10
49.61148000000001
 20
79.43092
 10
49.55068
 20
79.43092
 10
49.41147999999996
 20
79.43092
 10
48.99508000000004
 20
79.79091999999993
 10
48.32228000000004
 20
80.67851999999993
 10
47.71268000000004
 20
81.81131999999992
 10
47.39987999999999
 20
82.62291999999995
 10
47.34787999999996
 20
82.90091999999996
 10
47.31107999999996
 20
83.09811999999995
 10
47.34787999999996
 20
84.50011999999995
 10
47.64948000000003
 20
86.16051999999998
 10
47.74508000000003
 20
86.48571999999996
 10
47.83388000000003
 20
86.79411999999997
 10
48.20268000000003
 20
88.17652
 10
48.39388000000004
 20
88.86651999999996
 10
48.39388000000004
 20
89.09652000000004
 10
48.39388000000004
 20
89.18971999999994
 10
47.75388000000003
 20
89.46972
 10
46.33228000000004
 20
89.94491999999997
 10
44.87148
 20
90.30531999999999
 10
44.17108000000004
 20
90.40291999999999
 10
44.12107999999999
 20
90.33371999999992
 10
44.10988000000004
 20
90.32052
 10
43.99948
 20
90.03411999999995
 10
43.72828
 20
89.29652
 10
43.34628000000003
 20
88.23092
 10
43.00548
 20
87.26931999999996
 10
42.89508
 20
86.94811999999997
 10
42.70828
 20
86.41651999999998
 10
42.10707999999999
 20
84.24211999999995
 10
41.96828
 20
82.79011999999992
 10
42.01147999999998
 20
82.61851999999997
 10
42.04588000000003
 20
82.47531999999997
 10
42.29388
 20
81.95691999999992
 10
42.87348
 20
80.93491999999995
 10
43.66107999999999
 20
79.68931999999995
 10
44.33988000000002
 20
78.68852
 10
44.57427999999995
 20
78.36091999999998
 10
44.80668000000004
 20
78.03531999999993
 10
45.49867999999996
 20
77.04571999999997
 10
46.31948
 20
75.83251999999993
 10
46.94427999999996
 20
74.85571999999992
 10
47.22827999999996
 20
74.37651999999999
 10
47.28708000000003
 20
74.25251999999997
 10
47.34388000000004
 20
74.12931999999995
 10
47.88828000000004
 20
73.50211999999998
 10
48.61108
 20
73.01371999999997
 10
48.75827999999996
 20
72.95931999999992
 10
49.10547999999996
 20
72.83371999999992
 10
50.18868000000004
 20
72.55812
 10
51.23868000000004
 20
72.79651999999996
 10
52.27828000000004
 20
73.91852
 10
53.34628000000003
 20
75.59572
 10
53.68507999999996
 20
76.16492
  0
LWPOLYLINE
  5
395
330
6F
100
AcDbEntity
  8
0
 62
     7
420
 16777215
100
AcDbPolyline
 90
       91
 70
     1
 43
0.0
 10
18.57827999999999
 20
107.6381199999999
 10
19.08827999999999
 20
108.7229199999999
 10
20.91108
 20
111.8397199999999
 10
23.48707999999999
 20
115.0621199999999
 10
26.29347999999999
 20
117.3041199999999
 10
28.53948
 20
118.3653199999999
 10
29.32947999999999
 20
118.5541199999999
 10
29.88067999999999
 20
118.68652
 10
31.59268000000003
 20
118.85132
 10
34.16228
 20
118.79932
 10
36.67948
 20
118.43252
 10
38.28348
 20
118.00052
 10
38.78427999999999
 20
117.77932
 10
39.02348
 20
117.6729199999999
 10
39.72827999999996
 20
117.31252
 10
40.32347999999998
 20
116.85492
 10
40.67067999999999
 20
116.29492
 10
40.84147999999999
 20
115.71292
 10
40.87867999999999
 20
115.5137199999999
 10
40.91988000000003
 20
115.2901199999999
 10
41.24107999999996
 20
114.44812
 10
41.62948
 20
114.05292
 10
41.75987999999999
 20
114.05292
 10
41.97068000000004
 20
114.05292
 10
42.60388000000004
 20
114.25052
 10
43.72828
 20
114.70852
 10
44.71548000000002
 20
115.2337199999999
 10
45.14107999999995
 20
115.5421199999999
 10
45.14347999999996
 20
115.62852
 10
45.17548
 20
117.02412
 10
45.47707999999996
 20
121.2013199999999
 10
46.17827999999996
 20
127.88372
 10
47.13107999999996
 20
134.73852
 10
47.90788000000004
 20
139.3221199999999
 10
48.22268000000004
 20
140.8369199999999
 10
48.49588
 20
142.1609199999999
 10
46.05427999999998
 20
142.1609199999999
 10
45.70068000000004
 20
142.1609199999999
 10
44.64148
 20
142.14132
 10
43.89107999999995
 20
141.99372
 10
43.55227999999999
 20
141.6009199999999
 10
43.41347999999999
 20
141.0301199999999
 10
43.38108
 20
140.8369199999999
 10
43.10547999999999
 20
139.2829199999999
 10
42.30227999999999
 20
134.6153199999999
 10
41.58388000000003
 20
130.17532
 10
41.18268000000004
 20
127.24092
 10
41.05668000000004
 20
125.9257199999999
 10
41.05668000000004
 20
125.52852
 10
41.05427999999998
 20
125.28132
 10
41.03708000000003
 20
124.53252
 10
40.96347999999998
 20
123.7841199999999
 10
40.78988000000004
 20
123.25492
 10
40.47068000000002
 20
122.92252
 10
39.96268000000004
 20
122.7621199999999
 10
39.22508000000004
 20
122.74012
 10
38.20947999999996
 20
122.8381199999999
 10
37.20868000000004
 20
122.97692
 10
36.87708000000004
 20
123.02412
 10
35.69427999999997
 20
123.2001199999999
 10
32.09388000000004
 20
123.3541199999999
 10
27.93387999999999
 20
122.7769199999999
 10
24.21228000000001
 20
121.24492
 10
21.54068000000004
 20
119.41972
 10
20.74668000000004
 20
118.70572
 10
20.10388000000003
 20
118.1309199999999
 10
18.40068000000003
 20
116.16052
 10
16.11347999999999
 20
112.9113199999999
 10
14.15108000000003
 20
109.3877199999999
 10
13.04868000000003
 20
106.87652
 10
12.77988000000003
 20
106.00852
 10
12.74268000000003
 20
105.89132
 10
12.66868000000004
 20
105.52852
 10
12.74268000000003
 20
105.24652
 10
13.04868000000003
 20
105.10972
 10
13.49147999999999
 20
105.0685199999999
 10
13.64107999999999
 20
105.0641199999999
 10
13.79788000000003
 20
105.0621199999999
 10
14.69147999999999
 20
104.9429199999999
 10
15.49227999999999
 20
104.73492
 10
15.60547999999998
 20
104.6849199999999
 10
15.71587999999999
 20
104.6369199999999
 10
16.26268000000003
 20
104.43092
 10
16.66427999999999
 20
104.3113199999999
 10
16.70547999999999
 20
104.30692
 10
16.74428
 20
104.30492
 10
16.93988000000005
 20
104.5629199999999
 10
17.37147999999999
 20
105.2749199999999
 10
17.93827999999999
 20
106.33572
 10
18.42228000000003
 20
107.3105199999999
 10
18.57827999999999
 20
107.6381199999999
  0
LWPOLYLINE
  5
3F2
330
6F
100
AcDbEntity
  8
0
 62
     7
420
 16777215
100
AcDbPolyline
 90
      110
 70
     1
 43
0.0
 10
122.76068
 20
107.2909199999999
 10
122.84708
 20
107.6381199999999
 10
122.97508
 20
108.7101199999999
 10
122.64348
 20
109.68692
 10
121.5838799999999
 20
110.4441199999999
 10
120.11948
 20
111.03652
 10
119.62228
 20
111.20372
 10
119.0558799999999
 20
111.39692
 10
117.39988
 20
112.0997199999999
 10
115.46228
 20
113.13292
 10
114.08828
 20
114.12692
 10
113.5678799999999
 20
114.7149199999999
 10
113.5678799999999
 20
114.91052
 10
113.5678799999999
 20
115.16852
 10
115.10148
 20
115.93932
 10
118.85388
 20
116.8741199999999
 10
123.5350800000001
 20
117.48212
 10
126.7922800000001
 20
117.61852
 10
127.8666800000001
 20
117.5277199999999
 10
128.59148
 20
117.46692
 10
130.76588
 20
117.18692
 10
133.2834799999999
 20
116.7093199999999
 10
135.19948
 20
116.14292
 10
136.08708
 20
115.7437199999999
 10
136.28668
 20
115.54412
 10
136.4170800000001
 20
115.4137199999999
 10
136.70348
 20
114.9057199999999
 10
136.4842800000001
 20
114.3853199999999
 10
136.36948
 20
114.2465199999999
 10
136.17628
 20
114.0165199999999
 10
135.39948
 20
113.4649199999999
 10
133.80388
 20
112.5821199999999
 10
131.8354799999999
 20
111.72252
 10
130.27108
 20
111.16052
 10
129.74148
 20
111.00652
 10
127.41708
 20
110.32932
 10
127.41708
 20
106.6097199999999
 10
129.8154799999999
 20
106.82652
 10
130.94148
 20
106.9285199999999
 10
134.25348
 20
108.0049199999999
 10
138.48068
 20
110.56372
 10
142.17428
 20
114.25052
 10
144.44668
 20
117.6037199999999
 10
145.01268
 20
118.8101199999999
 10
145.2322800000001
 20
119.27852
 10
145.85068
 20
120.7001199999999
 10
146.37148
 20
122.1781199999999
 10
146.64268
 20
123.48252
 10
146.72708
 20
124.5065199999999
 10
146.73148
 20
124.84772
 10
146.7662800000001
 20
127.2929199999999
 10
144.52668
 20
128.39372
 10
144.23388
 20
128.53852
 10
143.35068
 20
128.96412
 10
141.80548
 20
129.7041199999999
 10
140.09348
 20
130.51812
 10
138.83428
 20
131.11252
 10
138.41548
 20
131.30812
 10
137.97708
 20
131.5141199999999
 10
136.6882800000001
 20
132.1781199999999
 10
134.84548
 20
133.2001199999999
 10
133.1114799999999
 20
134.24852
 10
132.04388
 20
134.9469199999999
 10
131.70348
 20
135.1969199999999
 10
131.4170800000001
 20
135.40532
 10
130.5422800000001
 20
136.0041199999999
 10
129.48348
 20
136.6637199999999
 10
128.64348
 20
137.10852
 10
128.26588
 20
137.27132
 10
128.1398799999999
 20
137.27132
 10
127.96228
 20
137.27132
 10
127.4350800000001
 20
137.1153199999999
 10
126.04588
 20
136.68972
 10
124.17508
 20
136.0605199999999
 10
122.55828
 20
135.4853199999999
 10
122.0222800000001
 20
135.2881199999999
 10
120.90708
 20
134.87972
 10
117.55628
 20
133.6729199999999
 10
114.37708
 20
132.6097199999999
 10
111.68828
 20
131.8525199999999
 10
109.4398799999999
 20
131.3185199999999
 10
108.68868
 20
131.15372
 10
108.2962800000001
 20
131.0693199999999
 10
107.1310800000001
 20
130.77212
 10
105.74828
 20
130.36132
 10
104.68948
 20
129.9729199999999
 10
104.20348
 20
129.7429199999999
 10
104.10548
 20
129.6521199999999
 10
103.88228
 20
129.45252
 10
103.50068
 20
128.5325199999999
 10
103.37868
 20
126.82852
 10
103.69108
 20
124.6893199999999
 10
104.3898799999999
 20
122.26252
 10
105.41868
 20
119.69092
 10
106.73148
 20
117.1237199999999
 10
108.27428
 20
114.70852
 10
109.53548
 20
113.08532
 10
110.00228
 20
112.58572
 10
110.47708
 20
112.0781199999999
 10
111.99828
 20
110.63292
 10
113.94268
 20
109.14212
 10
116.01108
 20
108.0049199999999
 10
117.77348
 20
107.29532
 10
118.37428
 20
107.1021199999999
 10
118.86948
 20
106.9437199999999
 10
120.37948
 20
106.52932
 10
121.66668
 20
106.3641199999999
 10
122.40228
 20
106.61572
 10
122.71428
 20
107.11292
 10
122.76068
 20
107.2909199999999
  0
LWPOLYLINE
  5
462
330
6F
100
AcDbEntity
  8
0
 62
     7
420
 16777215
100
AcDbPolyline
 90
      153
 70
     1
 43
0.0
 10
180.76148
 20
135.03652
 10
180.90868
 20
135.1121199999999
 10
181.32148
 20
135.40532
 10
181.60788
 20
136.0041199999999
 10
181.69508
 20
137.2021199999999
 10
181.67108
 20
138.8253199999999
 10
181.6578799999999
 20
139.36372
 10
181.61428
 20
140.9849199999999
 10
181.33228
 20
145.84572
 10
180.65948
 20
151.3141199999999
 10
179.48988
 20
156.6201199999999
 10
178.17068
 20
161.12132
 10
177.68228
 20
162.60372
 10
176.24788
 20
166.9569199999999
 10
177.11148
 20
172.7857199999999
 10
177.2282799999999
 20
173.5885199999999
 10
177.78628
 20
178.5193199999999
 10
178.16828
 20
183.3609199999999
 10
178.19868
 20
184.1157199999999
 10
178.25708
 20
185.61572
 10
178.11828
 20
190.1253199999999
 10
177.28268
 20
194.61532
 10
175.62508
 20
197.7941199999999
 10
173.78868
 20
199.49372
 10
173.07708
 20
199.8693199999999
 10
172.66268
 20
200.08812
 10
171.31948
 20
200.55692
 10
169.32068
 20
200.77412
 10
166.76628
 20
200.52252
 10
164.18828
 20
200.00372
 10
163.3394799999999
 20
199.79772
 10
162.49548
 20
199.5937199999999
 10
159.94108
 20
199.06412
 10
157.4998799999999
 20
198.8753199999999
 10
155.30988
 20
199.25932
 10
153.31988
 20
199.9753199999999
 10
152.67348
 20
200.24652
 10
150.85068
 20
201.01252
 10
145.27108
 20
203.04652
 10
137.99068
 20
205.1141199999999
 10
130.27108
 20
206.57932
 10
123.73868
 20
207.3865199999999
 10
121.5558799999999
 20
207.57292
 10
118.34148
 20
207.8465199999999
 10
118.62628
 20
206.67492
 10
118.66508
 20
206.51412
 10
118.89348
 20
205.5265199999999
 10
119.10348
 20
204.56292
 10
119.13388
 20
204.4129199999999
 10
119.1534799999999
 20
204.31572
 10
119.2294799999999
 20
204.02252
 10
119.38788
 20
203.7185200000001
 10
119.68708
 20
203.48252
 10
120.20388
 20
203.2957200000001
 10
121.01548
 20
203.1393199999999
 10
122.20068
 20
202.99212
 10
123.83228
 20
202.8313199999999
 10
125.45108
 20
202.68812
 10
125.99148
 20
202.64012
 10
127.51508
 20
202.50812
 10
132.06388
 20
201.7897199999999
 10
138.57388
 20
200.30092
 10
145.10628
 20
198.29372
 10
149.73508
 20
196.5441199999999
 10
151.23868
 20
195.87132
 10
151.60348
 20
195.7085199999999
 10
152.7058799999999
 20
195.22092
 10
153.85388
 20
194.73252
 10
154.7634799999999
 20
194.38772
 10
155.52268
 20
194.1681199999999
 10
156.21268
 20
194.0553199999999
 10
156.92268
 20
194.0269199999999
 10
157.73428
 20
194.06412
 10
158.48508
 20
194.1269199999999
 10
158.73428
 20
194.1485199999999
 10
159.09708
 20
194.1809199999999
 10
160.19268
 20
194.25932
 10
161.07148
 20
194.2613199999999
 10
161.4558799999999
 20
194.1485199999999
 10
161.46868
 20
193.95772
 10
161.44268
 20
193.9121199999999
 10
161.3386799999999
 20
193.7449199999999
 10
160.58388
 20
193.24572
 10
159.02108
 20
192.4321199999999
 10
157.3394799999999
 20
191.7441199999999
 10
156.38668
 20
191.4529199999998
 10
156.12388
 20
191.4509199999999
 10
155.89828
 20
191.4509199999999
 10
155.22348
 20
191.2605199999998
 10
154.37268
 20
190.7765199999999
 10
153.73668
 20
190.12972
 10
153.48708
 20
189.62132
 10
153.48708
 20
189.45052
 10
153.48708
 20
189.2309199999998
 10
153.75228
 20
188.5713199999999
 10
154.46828
 20
187.86372
 10
155.52268
 20
187.40372
 10
156.4822800000001
 20
187.25852
 10
156.79868
 20
187.26932
 10
157.13348
 20
187.28252
 10
158.13548
 20
187.5105199999999
 10
160.0434799999999
 20
188.2913199999999
 10
163.01228
 20
189.85212
 10
166.4038799999999
 20
191.7725199999999
 10
167.52988
 20
192.42132
 10
168.08388
 20
192.74252
 10
169.78948
 20
193.6253199999999
 10
171.36068
 20
194.1897199999999
 10
172.38948
 20
194.1421199999999
 10
172.9226799999999
 20
193.69932
 10
173.02508
 20
193.51052
 10
173.12708
 20
193.31972
 10
173.2006799999999
 20
192.6141199999999
 10
173.32668
 20
190.8437199999999
 10
173.40068
 20
188.44972
 10
173.42428
 20
185.6809199999999
 10
173.39628
 20
182.77932
 10
173.31588
 20
179.9949199999999
 10
173.1854799999999
 20
177.5753199999999
 10
173.07068
 20
176.2149199999999
 10
173.00788
 20
175.76532
 10
172.9578799999999
 20
175.41572
 10
172.82788
 20
174.36372
 10
172.6450799999999
 20
172.6553199999999
 10
172.48068
 20
170.85652
 10
172.38268
 20
169.59972
 10
172.35668
 20
169.1793199999999
 10
172.3198799999999
 20
168.62972
 10
172.25868
 20
166.9741199999999
 10
172.38948
 20
165.2029199999999
 10
172.85988
 20
163.12852
 10
173.54988
 20
160.7913199999999
 10
173.7910799999999
 20
160.0141199999999
 10
174.16428
 20
158.79932
 10
175.2126799999999
 20
155.12532
 10
176.1434799999999
 20
151.08852
 10
176.7294799999999
 20
147.10852
 10
177.04828
 20
143.57132
 10
177.12668
 20
142.3909199999999
 10
177.1678799999999
 20
141.72692
 10
177.30428
 20
139.73252
 10
177.46068
 20
137.69932
 10
177.61268
 20
136.2125199999999
 10
177.77548
 20
135.1949199999999
 10
177.96668
 20
134.56772
 10
178.20268
 20
134.2549199999999
 10
178.5006799999999
 20
134.1769199999999
 10
178.78668
 20
134.2249199999999
 10
178.8798799999999
 20
134.25252
 10
178.9994799999999
 20
134.28972
 10
179.79388
 20
134.59572
 10
180.62268
 20
134.9669199999999
 10
180.76148
 20
135.03652
  0
LWPOLYLINE
  5
4FD
330
6F
100
AcDbEntity
  8
0
 62
     7
420
 16777215
100
AcDbPolyline
 90
       35
 70
     1
 43
0.0
 10
129.2922800000001
 20
140.5569199999999
 10
129.73268
 20
140.8305199999999
 10
130.94148
 20
141.83972
 10
132.44108
 20
143.4349199999999
 10
133.50428
 20
144.9925199999999
 10
133.88428
 20
145.89132
 10
133.85148
 20
146.1713199999999
 10
133.81508
 20
146.48132
 10
133.39148
 20
147.37372
 10
132.27228
 20
148.2049199999999
 10
130.36428
 20
148.7169199999999
 10
128.25068
 20
148.94052
 10
127.54548
 20
148.96852
 10
126.76428
 20
149.0029199999999
 10
124.41628
 20
148.94932
 10
122.29588
 20
148.5429199999999
 10
121.05868
 20
147.70532
 10
120.60548
 20
146.7249199999999
 10
120.57268
 20
146.38572
 10
120.55548
 20
146.2125199999999
 10
120.57508
 20
145.6809199999999
 10
120.7962800000001
 20
145.0709199999999
 10
121.31068
 20
144.42652
 10
121.97268
 20
143.80812
 10
122.20268
 20
143.61052
 10
122.57388
 20
143.2913199999999
 10
123.73428
 20
142.38412
 10
125.47068
 20
141.1149199999999
 10
126.95948
 20
140.12092
 10
127.5478799999999
 20
139.7169199999999
 10
127.74508
 20
139.7169199999999
 10
127.8770799999999
 20
139.7169199999999
 10
128.27668
 20
139.9649199999999
 10
129.10348
 20
140.4421199999999
 10
129.2922800000001
 20
140.5569199999999
  0
LWPOLYLINE
  5
522
330
6F
100
AcDbEntity
  8
0
 62
     7
420
 16777215
100
AcDbPolyline
 90
       31
 70
     1
 43
0.0
 10
167.3670799999999
 20
146.33572
 10
167.68868
 20
146.8481199999999
 10
168.0554799999999
 20
148.7581199999999
 10
167.69508
 20
151.7809199999999
 10
166.38668
 20
155.0081199999999
 10
164.85668
 20
157.35372
 10
164.24068
 20
158.03772
 10
163.4370799999999
 20
158.9253199999999
 10
160.25828
 20
160.8869199999999
 10
155.8894799999999
 20
161.6293199999999
 10
151.88548
 20
160.32052
 10
149.45708
 20
157.96372
 10
148.99708
 20
157.00852
 10
148.7562800000001
 20
156.5141199999999
 10
148.30948
 20
154.8953199999999
 10
148.05108
 20
152.5601199999999
 10
148.22868
 20
150.4509199999999
 10
148.60668
 20
149.2921199999999
 10
148.85388
 20
149.0121199999999
 10
149.27708
 20
148.53652
 10
151.0654799999999
 20
147.5621199999999
 10
154.6414799999999
 20
146.30132
 10
158.95148
 20
145.40532
 10
162.2634799999999
 20
145.05132
 10
163.3698799999999
 20
145.04052
 10
163.82548
 20
145.0381199999999
 10
165.20148
 20
145.0469199999999
 10
166.23428
 20
145.18572
 10
166.83388
 20
145.57652
 10
167.2438799999999
 20
146.1409199999999
 10
167.3670799999999
 20
146.33572
  0
LWPOLYLINE
  5
56F
330
6F
100
AcDbEntity
  8
0
 62
     7
420
 16777215
100
AcDbPolyline
 90
       47
 70
     1
 43
0.0
 10
84.60947999999993
 20
146.03652
 10
85.76828000000004
 20
146.1669199999999
 10
89.23588
 20
146.66372
 10
93.25268000000004
 20
147.4229199999999
 10
96.40388000000001
 20
148.2565199999999
 10
97.97508000000004
 20
148.82772
 10
98.43707999999999
 20
149.10772
 10
98.70428000000003
 20
149.27252
 10
99.40508000000004
 20
149.93852
 10
100.20148
 20
151.07812
 10
100.73988
 20
152.36932
 10
100.93708
 20
153.3349199999999
 10
100.93708
 20
153.65372
 10
100.93508
 20
154.0249199999999
 10
100.6182800000001
 20
155.13132
 10
99.80668000000004
 20
156.91972
 10
98.70428000000003
 20
158.64932
 10
97.84508000000002
 20
159.67372
 10
97.50828000000005
 20
159.9513199999999
 10
96.84868000000008
 20
160.49652
 10
94.43547999999999
 20
161.59652
 10
90.59868000000006
 20
162.35372
 10
86.53628000000002
 20
162.1893199999999
 10
83.65428000000004
 20
161.4749199999999
 10
82.77988
 20
161.0581199999999
 10
82.34148000000002
 20
160.8521199999999
 10
81.12628000000006
 20
160.02772
 10
79.28588000000002
 20
158.49532
 10
77.53428000000008
 20
156.71572
 10
76.45387999999996
 20
155.4093199999999
 10
76.14548
 20
154.9409199999999
 10
75.73108000000002
 20
154.3181199999999
 10
74.86548
 20
152.19772
 10
74.60268000000005
 20
149.59372
 10
75.32787999999995
 20
147.43652
 10
76.52988
 20
146.2341199999999
 10
77.01388
 20
146.02372
 10
77.14628000000004
 20
145.9669199999999
 10
77.54348
 20
145.7913199999999
 10
77.97707999999996
 20
145.6241199999999
 10
78.42428000000005
 20
145.5241199999999
 10
78.99068000000008
 20
145.4921199999999
 10
79.78268000000007
 20
145.5265199999999
 10
80.91107999999996
 20
145.63092
 10
82.48428000000004
 20
145.8001199999999
 10
84.07787999999994
 20
145.9781199999999
 10
84.60947999999993
 20
146.03652
  0
LWPOLYLINE
  5
5CC
330
6F
100
AcDbEntity
  8
0
 62
     7
420
 16777215
100
AcDbPolyline
 90
      162
 70
     1
 43
0.0
 10
50.82868000000004
 20
150.4093199999999
 10
50.95268000000004
 20
150.84972
 10
51.35388000000004
 20
152.15852
 10
52.08108000000002
 20
154.43932
 10
52.91428
 20
156.95252
 10
53.54148000000003
 20
158.7949199999999
 10
53.75588000000004
 20
159.4069199999999
 10
53.95388
 20
159.97532
 10
54.51987999999996
 20
161.68972
 10
55.14708
 20
163.73652
 10
55.57068000000004
 20
165.32252
 10
55.72667999999996
 20
165.99972
 10
55.72667999999996
 20
166.2253199999999
 10
55.72667999999996
 20
166.4725199999999
 10
55.55108000000004
 20
167.20852
 10
55.07788000000004
 20
169.0077199999999
 10
54.37508000000004
 20
171.36652
 10
53.73868000000004
 20
173.3677199999999
 10
53.51987999999996
 20
174.02932
 10
53.28347999999996
 20
174.73652
 10
52.61068000000004
 20
176.87212
 10
51.77067999999996
 20
179.70852
 10
51.09147999999996
 20
182.2149199999999
 10
50.75508000000002
 20
183.5953199999999
 10
50.66827999999996
 20
184.05972
 10
50.51427999999996
 20
184.87132
 10
50.20828
 20
187.3321199999999
 10
50.03668000000004
 20
190.4749199999999
 10
50.15627999999995
 20
193.0181199999998
 10
50.38147999999996
 20
194.2269199999998
 10
50.57068000000004
 20
194.48252
 10
50.74228000000001
 20
194.7169199999999
 10
51.69508000000003
 20
195.1013199999999
 10
53.68668000000003
 20
194.95372
 10
56.64508000000001
 20
194.01852
 10
59.67228000000003
 20
192.74252
 10
60.66388
 20
192.2757199999999
 10
61.81148000000003
 20
191.73772
 10
65.28828000000004
 20
190.1665199999999
 10
68.68068000000005
 20
188.77772
 10
71.09387999999995
 20
188.01572
 10
72.36548
 20
187.7813199999999
 10
72.79068000000005
 20
187.7813199999999
 10
73.07948
 20
187.7813199999999
 10
73.94948000000002
 20
187.92252
 10
74.80428000000005
 20
188.29812
 10
75.34508000000002
 20
188.84252
 10
75.56828000000004
 20
189.49372
 10
75.46668000000005
 20
190.18372
 10
75.03668000000004
 20
190.84972
 10
74.26828000000006
 20
191.4253199999999
 10
73.44387999999995
 20
191.7725199999999
 10
73.15948000000005
 20
191.84212
 10
72.91868000000005
 20
191.90252
 10
71.26508000000005
 20
192.40372
 10
69.47668
 20
193.02412
 10
69.16868000000005
 20
193.14132
 10
68.88668000000004
 20
193.2501199999999
 10
68.05787999999997
 20
193.6125199999999
 10
66.69268000000001
 20
194.2485199999999
 10
65.20147999999995
 20
194.9821199999999
 10
63.71068000000004
 20
195.7481199999999
 10
62.34988000000004
 20
196.48132
 10
61.24347999999996
 20
197.11092
 10
60.52067999999994
 20
197.57092
 10
60.30788000000004
 20
197.7941199999999
 10
60.30988000000004
 20
197.7941199999999
 10
60.32988000000003
 20
197.81572
 10
60.71827999999996
 20
197.7577199999999
 10
61.72268000000004
 20
197.5449199999999
 10
63.17068000000002
 20
197.1929199999999
 10
64.47868000000005
 20
196.8525200000001
 10
64.91508
 20
196.7329199999998
 10
66.09988000000004
 20
196.4121199999999
 10
69.67428000000005
 20
195.4985199999999
 10
72.61708000000004
 20
194.9729199999999
 10
74.62428000000004
 20
195.0837199999999
 10
76.09787999999993
 20
195.5569199999999
 10
76.57108000000005
 20
195.7549199999999
 10
77.68428000000007
 20
196.2229199999999
 10
81.11548
 20
197.4149199999999
 10
86.78588000000003
 20
199.1077199999999
 10
92.88147999999999
 20
200.64132
 10
97.23708000000003
 20
201.57252
 10
98.69987999999999
 20
201.82652
 10
99.20348000000004
 20
201.9153199999999
 10
103.05348
 20
202.41252
 10
107.5478799999999
 20
202.86372
 10
108.37428
 20
202.92692
 10
108.91508
 20
202.97052
 10
110.5358799999999
 20
203.09572
 10
112.1354799999999
 20
203.2481199999999
 10
113.23988
 20
203.42372
 10
113.92348
 20
203.66492
 10
114.25548
 20
204.0121199999999
 10
114.31148
 20
204.51092
 10
114.15988
 20
205.19932
 10
113.94708
 20
205.89132
 10
113.87548
 20
206.1193199999999
 10
113.8278799999999
 20
206.2729199999999
 10
113.68668
 20
206.7309199999999
 10
113.49588
 20
207.1781199999999
 10
113.20948
 20
207.47772
 10
112.73428
 20
207.64252
 10
111.97268
 20
207.6925199999999
 10
110.83548
 20
207.6449199999999
 10
109.22508
 20
207.51252
 10
107.59348
 20
207.3625199999999
 10
107.05068
 20
207.31252
 10
105.33628
 20
207.15852
 10
100.21068
 20
206.51852
 10
93.63708000000004
 20
205.36372
 10
86.91147999999996
 20
203.7685200000001
 10
81.42987999999997
 20
202.21092
 10
79.61787999999995
 20
201.6421199999999
 10
79.08147999999996
 20
201.47492
 10
77.46268000000005
 20
201.00652
 10
75.46868000000005
 20
200.4829199999998
 10
73.85628000000004
 20
200.13132
 10
73.10108000000003
 20
200.00132
 10
72.84947999999996
 20
200.00132
 10
72.57547999999998
 20
200.00132
 10
71.75787999999996
 20
200.14252
 10
69.92387999999995
 20
200.52412
 10
67.59948
 20
201.0885200000001
 10
65.68108000000005
 20
201.5965199999999
 10
65.04788000000004
 20
201.7765199999999
 10
63.83428000000002
 20
202.12132
 10
60.18427999999996
 20
203.11972
 10
57.20068000000004
 20
203.78812
 10
55.24068000000004
 20
203.9229199999999
 10
53.89347999999996
 20
203.75372
 10
53.45268000000004
 20
203.6605199999999
 10
52.92708000000004
 20
203.5521199999999
 10
51.40388000000001
 20
202.9897200000001
 10
49.56628000000004
 20
201.8765199999999
 10
47.96428000000004
 20
200.34412
 10
46.91628
 20
198.9229199999999
 10
46.63147999999996
 20
198.41292
 10
46.45147999999996
 20
198.0937199999999
 10
45.96347999999996
 20
197.10652
 10
45.56828
 20
195.87132
 10
45.35347999999999
 20
194.2765199999999
 10
45.24947999999996
 20
192.49252
 10
45.22787999999996
 20
191.89572
 10
45.18668000000004
 20
190.8757199999999
 10
45.30147999999999
 20
187.8009199999999
 10
45.90068000000004
 20
183.48652
 10
47.10947999999996
 20
178.5193199999999
 10
48.50668000000004
 20
173.9709199999999
 10
49.01427999999996
 20
172.4669199999999
 10
51.23428000000004
 20
165.9085199999999
 10
50.20828
 20
163.3021199999998
 10
49.90668000000002
 20
162.5401199999999
 10
49.00148000000001
 20
159.95372
 10
47.48668000000002
 20
155.4137199999999
 10
46.12148
 20
151.08652
 10
45.45988000000003
 20
148.85372
 10
45.35787999999995
 20
148.3713199999999
 10
45.07147999999996
 20
147.0481199999999
 10
49.87147999999996
 20
147.0481199999999
 10
50.82868000000004
 20
150.4093199999999
  0
LWPOLYLINE
  5
670
330
6F
100
AcDbEntity
  8
0
 62
     7
420
 16777215
100
AcDbPolyline
 90
       27
 70
     1
 43
0.0
 10
161.96388
 20
171.91132
 10
162.15068
 20
172.0869199999999
 10
162.6298799999999
 20
172.6993199999999
 10
162.77108
 20
173.45852
 10
162.35868
 20
174.36372
 10
161.6270799999999
 20
175.2901199999999
 10
161.3650799999999
 20
175.5809199999999
 10
161.1738799999999
 20
175.7913199999999
 10
160.57068
 20
176.3969199999999
 10
159.92628
 20
176.8829199999999
 10
159.32268
 20
177.1021199999999
 10
158.81948
 20
177.1281199999999
 10
158.65668
 20
177.1109199999999
 10
158.28548
 20
177.0741199999999
 10
157.2134799999999
 20
176.53372
 10
156.77508
 20
175.3701199999999
 10
157.32828
 20
173.88372
 10
158.4266799999999
 20
172.65772
 10
158.86068
 20
172.3385199999999
 10
159.09508
 20
172.1669199999999
 10
160.1434799999999
 20
171.4509199999999
 10
160.65108
 20
171.0797199999999
 10
160.82228
 20
171.0797199999999
 10
160.93108
 20
171.0797199999999
 10
161.2606799999999
 20
171.3253199999999
 10
161.83988
 20
171.7981199999999
 10
161.96388
 20
171.91132
  0
LWPOLYLINE
  5
68D
330
6F
100
AcDbEntity
  8
0
 62
     7
420
 16777215
100
AcDbPolyline
 90
       25
 70
     1
 43
0.0
 10
80.59428000000005
 20
175.5421199999999
 10
80.92228000000003
 20
175.8713199999999
 10
81.87268000000004
 20
176.90052
 10
82.46947999999994
 20
177.8269199999999
 10
82.46268000000005
 20
178.54972
 10
82.08948000000003
 20
179.1313199999999
 10
81.93787999999996
 20
179.2981199999999
 10
81.76828000000005
 20
179.4849199999998
 10
81.09547999999994
 20
179.89292
 10
80.11708000000004
 20
179.9709199999999
 10
78.99268000000005
 20
179.5281199999999
 10
78.01228000000005
 20
178.8321199999999
 10
77.71868000000004
 20
178.5649199999999
 10
77.39788
 20
178.27652
 10
76.52348
 20
177.3081199999999
 10
75.89628000000004
 20
176.1949199999999
 10
75.82668000000005
 20
175.20772
 10
76.14788
 20
174.5049199999999
 10
76.31268000000004
 20
174.3221199999999
 10
76.48428000000004
 20
174.1313199999999
 10
77.14628000000004
 20
173.6841199999998
 10
78.05548
 20
173.64932
 10
79.16228000000005
 20
174.2569199999999
 10
80.25388000000003
 20
175.2029199999999
 10
80.59428000000005
 20
175.5421199999999
  0
LWPOLYLINE
  5
D12
330
6F
100
AcDbEntity
  8
0
 62
     7
420
 16777215
100
AcDbPolyline
 90
       36
 70
     0
 43
0.0
 10
185.6703552140699
 20
138.9039092897483
 10
185.6565619452311
 20
139.4665074672328
 10
185.6111639201905
 20
141.154564306595
 10
185.3180950738516
 20
146.2061566763962
 10
184.6064379168614
 20
151.9903808102911
 10
183.3667608008742
 20
157.6142922137012
 10
181.990560408054
 20
162.3099814254676
 10
181.4813981932198
 20
163.8553992536214
 10
180.3436197779877
 20
167.3083949372066
 10
181.0690527005606
 20
172.2046471594081
 10
181.1957600963058
 20
173.075543540438
 10
181.7685463003661
 20
178.1370027070696
 10
182.161942009078
 20
183.1230358570669
 10
182.1955475604634
 20
183.9574263237029
 10
182.2594758839137
 20
185.5994209328743
 10
182.1069402822387
 20
190.5552894437817
 10
181.1058006874485
 20
195.9347973190907
 10
178.8511182357981
 20
200.2586297137009
 10
176.1202502125754
 20
202.786065616701
 10
174.9442440808999
 20
203.4067906069446
 10
174.2645338147304
 20
203.7656724176357
 10
172.2060133262794
 20
204.4841316232535
 10
169.3409084914597
 20
204.7954688106274
 10
166.1741719744192
 20
204.4835556773329
 10
163.3216717058465
 20
203.9095148940376
 10
162.396083777542
 20
203.6848788039919
 10
161.6193415649233
 20
203.497137222789
 10
159.3785661314613
 20
203.0325605435058
 10
157.6941152536339
 20
202.9022867741571
 10
156.3399815104963
 20
203.1397239236388
 10
154.7717268694396
 20
203.7039803673556
 10
154.2210128544139
 20
203.935034886036
 10
152.3113489928796
 20
204.7375386342456
 10
146.504089155384
 20
206.8545302661665
 10
138.9118396005559
 20
209.0106941005111
 10
130.8899447218837
 20
210.5332704485384
  0
LWPOLYLINE
  5
D16
330
6F
100
AcDbEntity
  8
0
 62
     7
420
 16777215
100
AcDbPolyline
 90
       21
 70
     0
 43
0.0
 10
39.64225909670393
 20
143.0481199999999
 10
39.43926735212427
 20
141.5169671253551
 10
39.16515348519038
 20
139.9713468451835
 10
38.35682779720886
 20
135.2739601653746
 10
37.62739667381314
 20
130.7657834005123
 10
37.20861174305998
 20
127.7027662001082
 10
37.14400943547128
 20
127.0284411608966
 10
36.07515412494399
 20
127.1874862527572
 10
31.90292799868468
 20
127.3659449860768
 10
26.88098189858581
 20
126.6691499646881
 10
22.30199130736559
 20
124.784204353728
 10
19.06421340164116
 20
122.5721994751802
 10
18.07621057071352
 20
121.6837435289809
 10
17.24588179383464
 20
120.9412528927798
 10
15.24436430854746
 20
118.6257350129009
 10
12.72136741034447
 20
115.0415615599273
 10
10.56447836298171
 20
111.1687454942487
 10
9.294837089361175
 20
108.2765800676197
 10
8.96306556655915
 20
107.2052345252382
 10
8.865841981308857
 20
106.898927960955
 10
8.388225448647062
 20
105.4147332066161
  0
LWPOLYLINE
  5
D17
330
6F
100
AcDbEntity
  8
0
 62
     7
420
 16777215
100
AcDbPolyline
 90
       61
 70
     0
 43
0.0
 10
6.68237202095282
 20
100.1295421217209
 10
6.205567259750607
 20
98.35179253454205
 10
5.330759995482106
 20
93.08922648204051
 10
4.702258907183806
 20
85.52078113370015
 10
4.791281156997962
 20
78.21631567856879
 10
5.297135660264729
 20
73.49130596807248
 10
5.713787258010017
 20
71.84534015163395
 10
6.17208062749148
 20
70.03223028047921
 10
8.128407535546697
 20
64.88175507527198
 10
11.64216317596718
 20
58.79519751216903
 10
16.29604744641435
 20
53.51651713455274
 10
20.56766969070991
 20
50.00649507208138
 10
22.14335533163392
 20
48.986987320588
 10
23.24156573689958
 20
48.27682044978661
 10
26.5635413857456
 20
46.5466617496001
 10
31.52886054566668
 20
44.50080608467577
 10
36.88833602009808
 20
42.85284926366242
 10
41.03094491294489
 20
41.91078329422643
 10
42.15427999999998
 20
41.72924462790386
 10
42.15428
 20
40.73251999999999
 10
42.15428
 20
40.08023791676015
 10
42.18071268930342
 20
38.00571235126064
 10
42.38845631065264
 20
35.83524808755003
 10
43.06031260995477
 20
33.92145325035003
 10
43.86103792366372
 20
32.63698291405054
 10
44.10863936501868
 20
32.28862590781523
 10
44.34526906328517
 20
31.95122805414285
 10
45.1544879731849
 20
30.9076073533572
 10
46.42345961301804
 20
29.61454933874188
 10
48.09908650028957
 20
28.52146742431212
 10
50.02083580642882
 20
27.81567785837795
 10
52.09381052671512
 20
27.42609698668359
 10
54.4438256906286
 20
27.21299852424719
 10
57.26243396430415
 20
27.09949751993811
 10
59.88472313109216
 20
27.0415779272045
 10
60.76040912165158
 20
27.02853232585539
 10
62.02322920648189
 20
27.01105384717268
 10
65.7592011521634
 20
26.9389898113193
 10
68.15907004782829
 20
26.81009395971885
 10
68.36267589897078
 20
26.76548708923965
 10
68.81517966384016
 20
26.34902344723601
 10
72.20191598363384
 20
24.08635619625985
 10
76.1084224939012
 20
22.47868580012948
 10
77.10696967868042
 20
22.21056231524467
 10
77.64968044579244
 20
22.06429807375509
 10
79.3152740555313
 20
21.70227555091873
 10
81.61537025348218
 20
21.43335883125778
 10
84.45678824985975
 20
21.35477202326157
 10
87.41868926837833
 20
21.38411823765103
 10
88.39796329512619
 20
21.40380213768617
 10
89.7363163315555
 20
21.43317959536878
 10
94.66676675529772
 20
21.68722228574873
 10
98.03622609061285
 20
22.1849726315688
 10
98.7216794523362
 20
22.4016261752418
 10
99.3696095331138
 20
22.61012145191864
 10
101.0701064487775
 20
23.36114305292274
 10
103.1387263467867
 20
24.61658852111764
 10
104.9908963458648
 20
26.16493582023427
 10
106.2388902887253
 20
27.52180074306927
 10
106.3510903184482
 20
27.67233715997304
 10
119.60548
 20
27.0504386403673
  0
LWPOLYLINE
  5
D18
330
6F
100
AcDbEntity
  8
0
 62
     7
420
 16777215
100
AcDbPolyline
 90
       73
 70
     0
 43
0.0
 10
125.6833070547201
 20
27.28331644551456
 10
126.2407862261068
 20
27.29712379484563
 10
127.8742033423429
 20
27.36986025845145
 10
129.9954554843997
 20
27.50689096774671
 10
131.8618708384205
 20
27.6806400640611
 10
132.9941021579841
 20
27.82126290400689
 10
133.344838152954
 20
27.88910262934976
 10
133.4390199504108
 20
27.77903727466956
 10
133.8966542239117
 20
27.24083744643237
 10
135.4057664172837
 20
25.78433748890186
 10
137.6148140555351
 20
24.27541009364281
 10
140.1536467146222
 20
23.19933119639382
 10
142.364754873274
 20
22.58140885569609
 10
143.1133046239267
 20
22.42049221064207
 10
144.2075534360679
 20
22.18789585412419
 10
147.2489033330362
 20
21.87745287945589
 10
151.9113212899784
 20
21.70015205103506
 10
156.4395790174432
 20
21.84118077777488
 10
159.2675112501832
 20
22.12643801706931
 10
160.3296828582038
 20
22.40025721660128
 10
161.0187051390695
 20
22.58186380348664
 10
162.9924942339591
 20
23.23375307449745
 10
165.3445894437006
 20
24.29866430558027
 10
167.4490534078368
 20
25.66468367362654
 10
168.910382563218
 20
26.9107742622559
 10
169.3870782686581
 20
27.4003536354106
 10
169.9436379124395
 20
27.97765115111544
 10
171.4016420924482
 20
29.86649198060814
 10
172.6978314411447
 20
32.61898126058311
 10
173.2344333756578
 20
35.70168208601645
 10
173.263576935042
 20
38.31828799274275
 10
173.2136899548984
 20
39.1745212577106
 10
173.1841013331828
 20
39.66648140810115
 10
173.0998431873388
 20
41.20330251891714
 10
172.9507780120641
 20
44.09692062718806
 10
172.7839479070551
 20
47.4594652078156
 10
172.6607802179935
 20
50.03761605846492
 10
172.6220765521097
 20
50.89627883147414
 10
172.5301895655796
 20
52.86381408116641
 10
172.0913395497257
 20
58.79617034462832
 10
171.1598862507675
 20
64.8488870695673
 10
169.5221860832655
 20
70.08472653016382
 10
167.666751720401
 20
74.16155349752606
 10
166.982439603737
 20
75.47146072904546
 10
165.6197213044377
 20
78.07881356450164
 10
165.6510153457189
 20
78.16494649889556
 10
165.9129647551913
 20
78.89116941415877
 10
166.2764184221562
 20
80.74840145084897
 10
166.5465614611276
 20
83.40984509125105
 10
166.5638196297653
 20
86.05967363257438
 10
166.4632908611108
 20
87.2066622797139
 10
167.6910362507865
 20
88.25818929536586
 10
168.1600972470068
 20
88.64619224883226
 10
169.0445312667385
 20
89.3846475654041
 10
171.5654646755176
 20
91.63568986015077
 10
174.8185850655604
 20
94.77521318361871
 10
177.744594916632
 20
97.88841731026337
 10
179.5901383910015
 20
100.0469401264672
 10
180.1940750438792
 20
100.8381016860308
 10
181.1157446007037
 20
102.0560566396564
 10
183.2436862438674
 20
105.7595407323925
 10
185.7996096853146
 20
111.3785492492648
 10
187.6541048338566
 20
116.9770333218784
 10
188.4406923778962
 20
120.7009208313523
 10
188.4378441114988
 20
122.1660690661657
 10
188.4336914912906
 20
122.6159362553872
 10
188.2234193194488
 20
124.7808050823729
 10
187.8364429786991
 20
127.0945824144194
 10
187.7261744017958
 20
127.5772072002856
 10
187.6416920917705
 20
127.94236296684
 10
187.2408314130096
 20
129.6953805620192
 10
186.9531228088209
 20
130.9508382920473
 10
186.927023071146
 20
131.0684878787971
  0
LINE
  5
D1F
330
6F
100
AcDbEntity
  8
0
  6
Continuous
 62
     7
420
 16777215
100
AcDbLine
 10
186.9531228088209
 20
130.9508382920473
 30
0.0
 11
185.6703552140699
 21
138.9039092897483
 31
0.0
  0
LINE
  5
D20
330
6F
100
AcDbEntity
  8
0
  6
Continuous
 62
     7
420
 16777215
100
AcDbLine
 10
119.60548
 20
27.0504386403673
 30
0.0
 11
125.6833070547201
 21
27.28331644551456
 31
0.0
  0
LINE
  5
D21
330
6F
100
AcDbEntity
  8
0
  6
Continuous
 62
     7
420
 16777215
100
AcDbLine
 10
6.68237202095282
 20
100.1295421217209
 30
0.0
 11
8.388225448647062
 21
105.4147332066161
 31
0.0
  0
LWPOLYLINE
  5
D34
330
6F
100
AcDbEntity
  8
0
 62
     7
420
 16777215
100
AcDbPolyline
 90
       48
 70
     0
 43
0.0
 10
99.61646514045241
 20
210.4753854473188
 10
92.82877003217823
 20
209.2829748487069
 10
85.90277054518017
 20
207.6402434371364
 10
80.28400988913681
 20
206.0436691526476
 10
78.42371126589487
 20
205.4597078629677
 10
77.93029027774251
 20
205.3059047510753
 10
76.39866329107302
 20
204.8627282743296
 10
74.53420409541275
 20
204.3731441043958
 10
73.09050913030237
 20
204.0583319301632
 10
72.83895785735237
 20
204.0150299366734
 10
72.50587444901114
 20
204.0725536368419
 10
70.80345223548739
 20
204.4267762740724
 10
68.58346532330211
 20
204.9658231735895
 10
66.74000277974974
 20
205.4539794351222
 10
66.14162727615158
 20
205.6240798625506
 10
64.90858371007504
 20
205.9744040837311
 10
61.14970049143235
 20
207.0025873729072
 10
57.77843770332289
 20
207.7578334003816
 10
55.12762100679378
 20
207.9401446711427
 10
53.22937439710702
 20
207.7017366201044
 10
52.63497506650285
 20
207.5760605365919
 10
51.82414866673192
 20
207.40883530498
 10
49.6590198261633
 20
206.6094206122703
 10
47.11843663357163
 20
205.0703603107936
 10
44.94983761270471
 20
202.9959775769757
 10
43.54704707869164
 20
201.0936436963083
 10
43.14318572943692
 20
200.3704369262246
 10
42.91386247391872
 20
199.9637703531056
 10
42.24497599947663
 20
198.6106459113654
 10
41.65112193798111
 20
196.7545514357598
 10
41.36906922643214
 20
194.6604282310191
 10
41.25369263669838
 20
192.6812759609715
 10
41.23080061431678
 20
192.0487778610943
 10
41.18366499942744
 20
190.8818281720843
 10
41.31178424414609
 20
187.4502858928072
 10
41.96644101754536
 20
182.7365823161155
 10
43.25097154985694
 20
177.4581904728838
 10
44.69914723458429
 20
172.7438458662322
 10
45.22431088405109
 20
171.1878054233674
 10
46.97628250983711
 20
166.0120658729721
 10
46.48764000045797
 20
164.7707424456371
 10
46.15780420388527
 20
163.937403994084
 10
45.21636928495096
 20
161.2474710794446
 10
43.68191271271654
 20
156.6485584586733
 10
42.29626865650415
 20
152.2565580484462
 10
41.57939529166839
 20
149.8372187966241
 10
41.44638440694797
 20
149.208155553594
 10
39.64225909670393
 20
143.0481199999999
  0
CIRCLE
  5
D37
330
6F
100
AcDbEntity
  8
0
  6
Continuous
 62
     7
420
 16777215
100
AcDbCircle
 10
115.4857903074471
 20
217.4971749872741
 30
0.0
 40
4.379536877933581
  0
LWPOLYLINE
  5
D38
330
6F
100
AcDbEntity
  8
0
  6
Continuous
 62
     7
420
 16777215
100
AcDbPolyline
 90
        8
 70
     0
 43
0.0
 10
99.61646514045241
 20
210.4753854473188
 10
101.1338204896131
 20
217.0662292701221
 42
-0.2658478517591217
 10
107.8743827151186
 20
224.3606705069735
 10
112.4802025001035
 20
225.8115311923571
 42
-0.1610057602355709
 10
118.7570777242873
 20
225.7229882383506
 10
123.8763708706476
 20
223.9501655757548
 42
-0.3014143786662775
 10
130.5819737545249
 20
215.1642903018065
 10
130.8899447218837
 20
210.5332704485384
  0
ENDSEC
  0
SECTION
  2
OBJECTS
  0
DICTIONARY
  5
C
330
0
100
AcDbDictionary
281
     1
  3
ACAD_CIP_PREVIOUS_PRODUCT_INFO
350
CD8
  3
ACAD_COLOR
350
62
  3
ACAD_DETAILVIEWSTYLE
350
69
  3
ACAD_GROUP
350
D
  3
ACAD_LAYOUT
350
61
  3
ACAD_MATERIAL
350
10
  3
ACAD_MLEADERSTYLE
350
65
  3
ACAD_MLINESTYLE
350
5E
  3
ACAD_PLOTSETTINGS
350
60
  3
ACAD_PLOTSTYLENAME
350
E
  3
ACAD_SCALELIST
350
42
  3
ACAD_SECTIONVIEWSTYLE
350
67
  3
ACAD_TABLESTYLE
350
63
  3
ACAD_VISUALSTYLE
350
29
  3
ACDB_RECOMPOSE_DATA
350
D4A
  3
AcDbVariableDictionary
350
CE2
  0
DICTIONARY
  5
CE0
330
54
100
AcDbDictionary
280
     1
281
     1
  3
ADSK_XREC_LAYER_RECONCILED
360
CE1
  0
DICTIONARY
  5
D13
330
6F
100
AcDbDictionary
280
     1
281
     1
  3
ACAD_SORTENTS
360
D14
  0
XRECORD
  5
CD8
102
{ACAD_REACTORS
330
C
102
}
330
C
100
AcDbXrecord
280
     1
300
ACD
300
2020
300
ACD_F_S
  0
DICTIONARY
  5
62
102
{ACAD_REACTORS
330
C
102
}
330
C
100
AcDbDictionary
281
     1
  0
DICTIONARY
  5
69
102
{ACAD_REACTORS
330
C
102
}
330
C
100
AcDbDictionary
281
     1
  3
Imperial24
350
6A
  0
DICTIONARY
  5
D
102
{ACAD_REACTORS
330
C
102
}
330
C
100
AcDbDictionary
281
     1
  0
DICTIONARY
  5
61
102
{ACAD_REACTORS
330
C
102
}
330
C
100
AcDbDictionary
281
     1
  3
Model
350
72
  3
1
350
6E
  0
DICTIONARY
  5
10
102
{ACAD_REACTORS
330
C
102
}
330
C
100
AcDbDictionary
281
     1
  3
ByBlock
350
19
  3
ByLayer
350
11
  3
Global
350
21
  0
DICTIONARY
  5
65
102
{ACAD_REACTORS
330
C
102
}
330
C
100
AcDbDictionary
281
     1
  3
Standard
350
66
  0
DICTIONARY
  5
5E
102
{ACAD_REACTORS
330
C
102
}
330
C
100
AcDbDictionary
281
     1
  3
Standard
350
5F
  0
DICTIONARY
  5
60
102
{ACAD_REACTORS
330
C
102
}
330
C
100
AcDbDictionary
281
     1
  0
ACDBDICTIONARYWDFLT
  5
E
102
{ACAD_REACTORS
330
C
102
}
330
C
100
AcDbDictionary
281
     1
  3
Normal
350
F
100
AcDbDictionaryWithDefault
340
F
  0
DICTIONARY
  5
42
102
{ACAD_REACTORS
330
C
102
}
330
C
100
AcDbDictionary
281
     1
  3
A0
350
43
  3
A1
350
44
  3
A2
350
45
  3
A3
350
46
  3
A4
350
47
  3
A5
350
48
  3
A6
350
49
  3
A7
350
4A
  3
A8
350
4B
  3
A9
350
4C
  3
B0
350
4D
  3
B1
350
4E
  3
B2
350
4F
  3
B3
350
50
  3
B4
350
51
  3
B5
350
52
  3
B6
350
53
  0
DICTIONARY
  5
67
102
{ACAD_REACTORS
330
C
102
}
330
C
100
AcDbDictionary
281
     1
  3
Imperial24
350
68
  0
DICTIONARY
  5
63
102
{ACAD_REACTORS
330
C
102
}
330
C
100
AcDbDictionary
281
     1
  3
Standard
350
64
  0
DICTIONARY
  5
29
102
{ACAD_REACTORS
330
C
102
}
330
C
100
AcDbDictionary
281
     1
  3
2dWireframe
350
2F
  3
Basic
350
2E
  3
Brighten
350
35
  3
ColorChange
350
39
  3
Conceptual
350
32
  3
Dim
350
34
  3
EdgeColorOff
350
41
  3
Facepattern
350
38
  3
Flat
350
2A
  3
FlatWithEdges
350
2B
  3
Gouraud
350
2C
  3
GouraudWithEdges
350
2D
  3
Hidden
350
31
  3
JitterOff
350
3F
  3
Linepattern
350
37
  3
OverhangOff
350
40
  3
Realistic
350
33
  3
Shaded
350
3E
  3
Shaded with edges
350
3D
  3
Shades of Gray
350
3A
  3
Sketchy
350
3B
  3
Thicken
350
36
  3
Wireframe
350
30
  3
X-Ray
350
3C
  0
XRECORD
  5
D4A
102
{ACAD_REACTORS
330
C
102
}
330
C
100
AcDbXrecord
280
     1
 90
        1
330
64
  0
DICTIONARY
  5
CE2
102
{ACAD_REACTORS
330
C
102
}
330
C
100
AcDbDictionary
281
     1
  3
CANNOSCALE
350
CE8
  3
CMLEADERSTYLE
350
CE4
  3
CTABLESTYLE
350
CE3
  3
CVIEWDETAILSTYLE
350
CE5
  3
CVIEWSECTIONSTYLE
350
CE6
  3
LAYEREVAL
350
CEA
  3
LAYERNOTIFY
350
CEB
  3
LIGHTINGUNITS
350
CE9
  3
MSLTSCALE
350
CE7
  0
XRECORD
  5
CE1
102
{ACAD_REACTORS
330
CE0
102
}
330
CE0
100
AcDbXrecord
280
     1
290
     1
  0
SORTENTSTABLE
  5
D14
102
{ACAD_REACTORS
330
D13
102
}
330
D13
100
AcDbSortentsTable
330
6F
331
1A2
  5
2DA
331
2BF
  5
462
331
2DA
  5
4FD
331
395
  5
522
331
3F2
  5
670
331
462
  5
68D
331
4FD
  5
D17
331
522
  5
D18
331
56F
  5
D19
331
5CC
  5
D1D
331
670
  5
D20
331
68D
  5
D21
331
D16
  5
56F
331
D17
  5
1A2
331
D18
  5
395
331
D1F
  5
D34
331
D20
  5
D35
331
D21
  5
D36
331
D34
  5
D1F
  0
ACDBDETAILVIEWSTYLE
  5
6A
102
{ACAD_XDICTIONARY
360
D4D
102
}
102
{ACAD_REACTORS
330
69
102
}
330
69
100
AcDbModelDocViewStyle
 70
     0
  3
Imperial24
290
     0
100
AcDbDetailViewStyle
 70
     0
 71
     0
 90
        3
 71
     1
340
55
 62
   256
 40
0.24
340
0
 62
   256
 40
0.24
300

 40
0.36
280
     3
 71
     2
340
5C
 90
       25
 62
   256
 71
     3
340
55
 62
   256
 40
0.24
 90
        1
 40
0.75
 90
        1
300
%<\AcVar ViewType \f "%tc1">% %<\AcVar ViewDetailId>%\P %<\AcVar ViewScale \f "%sn">%
 71
     4
340
5C
 90
       25
 62
   256
340
5C
 90
       25
 62
   256
280
     0
  0
LAYOUT
  5
72
102
{ACAD_REACTORS
330
61
102
}
330
61
100
AcDbPlotSettings
  1

  2
Microsoft Print to PDF
  4

  6

 40
0.0
 41
0.0
 42
0.0
 43
0.0
 44
0.0
 45
0.0
 46
0.0
 47
0.0
 48
0.0
 49
0.0
140
0.0
141
0.0
142
1.0
143
1.0
 70
  1712
 72
     0
 73
     0
 74
     0
  7

 75
     0
147
1.0
 76
     0
 77
     2
 78
   300
148
0.0
149
0.0
100
AcDbLayout
  1
Model
 70
     1
 71
     0
 10
0.0
 20
0.0
 11
12.0
 21
9.0
 12
0.0
 22
0.0
 32
0.0
 14
0.0
 24
0.0
 34
0.0
 15
0.0
 25
0.0
 35
0.0
146
0.0
 13
0.0
 23
0.0
 33
0.0
 16
1.0
 26
0.0
 36
0.0
 17
0.0
 27
1.0
 37
0.0
 76
     0
330
6F
331
74
  0
LAYOUT
  5
6E
102
{ACAD_REACTORS
330
61
102
}
330
61
100
AcDbPlotSettings
  1

  2
Microsoft Print to PDF
  4

  6

 40
0.0
 41
0.0
 42
0.0
 43
0.0
 44
0.0
 45
0.0
 46
0.0
 47
0.0
 48
0.0
 49
0.0
140
0.0
141
0.0
142
1.0
143
1.0
 70
   688
 72
     0
 73
     0
 74
     5
  7

 75
    16
147
1.0
 76
     0
 77
     2
 78
   300
148
0.0
149
0.0
100
AcDbLayout
  1
1
 70
     1
 71
     1
 10
0.0
 20
0.0
 11
12.0
 21
9.0
 12
0.0
 22
0.0
 32
0.0
 14
1.000000000000000E+20
 24
1.000000000000000E+20
 34
1.000000000000000E+20
 15
-1.000000000000000E+20
 25
-1.000000000000000E+20
 35
-1.000000000000000E+20
146
0.0
 13
0.0
 23
0.0
 33
0.0
 16
1.0
 26
0.0
 36
0.0
 17
0.0
 27
1.0
 37
0.0
 76
     0
330
6B
  0
MATERIAL
  5
19
102
{ACAD_XDICTIONARY
360
1A
102
}
102
{ACAD_REACTORS
330
10
102
}
330
10
100
AcDbMaterial
  1
ByBlock
 72
     0
 43
0.0208333333333333
 43
0.0
 43
0.0
 43
0.0
 43
0.0
 43
0.0208333333333333
 43
0.0
 43
0.0
 43
0.0
 43
0.0
 43
1.0
 43
0.0
 43
0.0
 43
0.0
 43
0.0
 43
1.0
 77
     0
 47
0.0208333333333333
 47
0.0
 47
0.0
 47
0.0
 47
0.0
 47
0.0208333333333333
 47
0.0
 47
0.0
 47
0.0
 47
0.0
 47
1.0
 47
0.0
 47
0.0
 47
0.0
 47
0.0
 47
1.0
171
     0
 49
0.0208333333333333
 49
0.0
 49
0.0
 49
0.0
 49
0.0
 49
0.0208333333333333
 49
0.0
 49
0.0
 49
0.0
 49
0.0
 49
1.0
 49
0.0
 49
0.0
 49
0.0
 49
0.0
 49
1.0
175
     0
142
0.0208333333333333
142
0.0
142
0.0
142
0.0
142
0.0
142
0.0208333333333333
142
0.0
142
0.0
142
0.0
142
0.0
142
1.0
142
0.0
142
0.0
142
0.0
142
0.0
142
1.0
179
     0
144
0.0208333333333333
144
0.0
144
0.0
144
0.0
144
0.0
144
0.0208333333333333
144
0.0
144
0.0
144
0.0
144
0.0
144
1.0
144
0.0
144
0.0
144
0.0
144
0.0
144
1.0
147
0.0208333333333333
147
0.0
147
0.0
147
0.0
147
0.0
147
0.0208333333333333
147
0.0
147
0.0
147
0.0
147
0.0
147
1.0
147
0.0
147
0.0
147
0.0
147
0.0
147
1.0
  0
MATERIAL
  5
11
102
{ACAD_XDICTIONARY
360
12
102
}
102
{ACAD_REACTORS
330
10
102
}
330
10
100
AcDbMaterial
  1
ByLayer
 72
     0
 43
0.0208333333333333
 43
0.0
 43
0.0
 43
0.0
 43
0.0
 43
0.0208333333333333
 43
0.0
 43
0.0
 43
0.0
 43
0.0
 43
1.0
 43
0.0
 43
0.0
 43
0.0
 43
0.0
 43
1.0
 77
     0
 47
0.0208333333333333
 47
0.0
 47
0.0
 47
0.0
 47
0.0
 47
0.0208333333333333
 47
0.0
 47
0.0
 47
0.0
 47
0.0
 47
1.0
 47
0.0
 47
0.0
 47
0.0
 47
0.0
 47
1.0
171
     0
 49
0.0208333333333333
 49
0.0
 49
0.0
 49
0.0
 49
0.0
 49
0.0208333333333333
 49
0.0
 49
0.0
 49
0.0
 49
0.0
 49
1.0
 49
0.0
 49
0.0
 49
0.0
 49
0.0
 49
1.0
175
     0
142
0.0208333333333333
142
0.0
142
0.0
142
0.0
142
0.0
142
0.0208333333333333
142
0.0
142
0.0
142
0.0
142
0.0
142
1.0
142
0.0
142
0.0
142
0.0
142
0.0
142
1.0
179
     0
144
0.0208333333333333
144
0.0
144
0.0
144
0.0
144
0.0
144
0.0208333333333333
144
0.0
144
0.0
144
0.0
144
0.0
144
1.0
144
0.0
144
0.0
144
0.0
144
0.0
144
1.0
147
0.0208333333333333
147
0.0
147
0.0
147
0.0
147
0.0
147
0.0208333333333333
147
0.0
147
0.0
147
0.0
147
0.0
147
1.0
147
0.0
147
0.0
147
0.0
147
0.0
147
1.0
  0
MATERIAL
  5
21
102
{ACAD_XDICTIONARY
360
22
102
}
102
{ACAD_REACTORS
330
10
102
}
330
10
100
AcDbMaterial
  1
Global
 72
     0
 43
0.0208333333333333
 43
0.0
 43
0.0
 43
0.0
 43
0.0
 43
0.0208333333333333
 43
0.0
 43
0.0
 43
0.0
 43
0.0
 43
1.0
 43
0.0
 43
0.0
 43
0.0
 43
0.0
 43
1.0
 77
     0
 47
0.0208333333333333
 47
0.0
 47
0.0
 47
0.0
 47
0.0
 47
0.0208333333333333
 47
0.0
 47
0.0
 47
0.0
 47
0.0
 47
1.0
 47
0.0
 47
0.0
 47
0.0
 47
0.0
 47
1.0
171
     0
 49
0.0208333333333333
 49
0.0
 49
0.0
 49
0.0
 49
0.0
 49
0.0208333333333333
 49
0.0
 49
0.0
 49
0.0
 49
0.0
 49
1.0
 49
0.0
 49
0.0
 49
0.0
 49
0.0
 49
1.0
175
     0
142
0.0208333333333333
142
0.0
142
0.0
142
0.0
142
0.0
142
0.0208333333333333
142
0.0
142
0.0
142
0.0
142
0.0
142
1.0
142
0.0
142
0.0
142
0.0
142
0.0
142
1.0
179
     0
144
0.0208333333333333
144
0.0
144
0.0
144
0.0
144
0.0
144
0.0208333333333333
144
0.0
144
0.0
144
0.0
144
0.0
144
1.0
144
0.0
144
0.0
144
0.0
144
0.0
144
1.0
147
0.0208333333333333
147
0.0
147
0.0
147
0.0
147
0.0
147
0.0208333333333333
147
0.0
147
0.0
147
0.0
147
0.0
147
1.0
147
0.0
147
0.0
147
0.0
147
0.0
147
1.0
  0
MLEADERSTYLE
  5
66
102
{ACAD_REACTORS
330
65
102
}
330
65
100
AcDbMLeaderStyle
179
     2
170
     2
171
     1
172
     0
 90
        2
 40
0.0
 41
0.0
173
     1
 91
-1056964608
340
5A
 92
       -2
290
     1
 42
0.09
291
     1
 43
0.36
  3
Standard
 44
0.18
300

342
55
174
     1
178
     6
175
     1
176
     0
 93
-1056964608
 45
0.18
292
     0
297
     0
 46
0.18
 94
-1056964608
 47
1.0
 49
1.0
140
1.0
293
     1
141
0.0
294
     1
177
     0
142
1.0
295
     0
296
     0
143
0.125
271
     0
272
     9
273
     9
298
     0
  0
MLINESTYLE
  5
5F
102
{ACAD_REACTORS
330
5E
102
}
330
5E
100
AcDbMlineStyle
  2
STANDARD
 70
     0
  3

 62
   256
 51
90.0
 52
90.0
 71
     2
 49
0.5
 62
   256
  6
BYLAYER
 49
-0.5
 62
   256
  6
BYLAYER
  0
ACDBPLACEHOLDER
  5
F
102
{ACAD_REACTORS
330
E
102
}
330
E
  0
SCALE
  5
43
102
{ACAD_REACTORS
330
42
102
}
330
42
100
AcDbScale
 70
     0
300
1:1
140
1.0
141
1.0
290
     1
  0
SCALE
  5
44
102
{ACAD_REACTORS
330
42
102
}
330
42
100
AcDbScale
 70
     0
300
1/128" = 1'-0"
140
0.0078125
141
12.0
290
     0
  0
SCALE
  5
45
102
{ACAD_REACTORS
330
42
102
}
330
42
100
AcDbScale
 70
     0
300
1/64" = 1'-0"
140
0.015625
141
12.0
290
     0
  0
SCALE
  5
46
102
{ACAD_REACTORS
330
42
102
}
330
42
100
AcDbScale
 70
     0
300
1/32" = 1'-0"
140
0.03125
141
12.0
290
     0
  0
SCALE
  5
47
102
{ACAD_REACTORS
330
42
102
}
330
42
100
AcDbScale
 70
     0
300
1/16" = 1'-0"
140
0.0625
141
12.0
290
     0
  0
SCALE
  5
48
102
{ACAD_REACTORS
330
42
102
}
330
42
100
AcDbScale
 70
     0
300
3/32" = 1'-0"
140
0.09375
141
12.0
290
     0
  0
SCALE
  5
49
102
{ACAD_REACTORS
330
42
102
}
330
42
100
AcDbScale
 70
     0
300
1/8" = 1'-0"
140
0.125
141
12.0
290
     0
  0
SCALE
  5
4A
102
{ACAD_REACTORS
330
42
102
}
330
42
100
AcDbScale
 70
     0
300
3/16" = 1'-0"
140
0.1875
141
12.0
290
     0
  0
SCALE
  5
4B
102
{ACAD_REACTORS
330
42
102
}
330
42
100
AcDbScale
 70
     0
300
1/4" = 1'-0"
140
0.25
141
12.0
290
     0
  0
SCALE
  5
4C
102
{ACAD_REACTORS
330
42
102
}
330
42
100
AcDbScale
 70
     0
300
3/8" = 1'-0"
140
0.375
141
12.0
290
     0
  0
SCALE
  5
4D
102
{ACAD_REACTORS
330
42
102
}
330
42
100
AcDbScale
 70
     0
300
1/2" = 1'-0"
140
0.5
141
12.0
290
     0
  0
SCALE
  5
4E
102
{ACAD_REACTORS
330
42
102
}
330
42
100
AcDbScale
 70
     0
300
3/4" = 1'-0"
140
0.75
141
12.0
290
     0
  0
SCALE
  5
4F
102
{ACAD_REACTORS
330
42
102
}
330
42
100
AcDbScale
 70
     0
300
1" = 1'-0"
140
1.0
141
12.0
290
     0
  0
SCALE
  5
50
102
{ACAD_REACTORS
330
42
102
}
330
42
100
AcDbScale
 70
     0
300
1-1/2" = 1'-0"
140
1.5
141
12.0
290
     0
  0
SCALE
  5
51
102
{ACAD_REACTORS
330
42
102
}
330
42
100
AcDbScale
 70
     0
300
3" = 1'-0"
140
3.0
141
12.0
290
     0
  0
SCALE
  5
52
102
{ACAD_REACTORS
330
42
102
}
330
42
100
AcDbScale
 70
     0
300
6" = 1'-0"
140
6.0
141
12.0
290
     0
  0
SCALE
  5
53
102
{ACAD_REACTORS
330
42
102
}
330
42
100
AcDbScale
 70
     0
300
1'-0" = 1'-0"
140
12.0
141
12.0
290
     0
  0
ACDBSECTIONVIEWSTYLE
  5
68
102
{ACAD_XDICTIONARY
360
D4B
102
}
102
{ACAD_REACTORS
330
67
102
}
330
67
100
AcDbModelDocViewStyle
 70
     0
  3
Imperial24
290
     0
100
AcDbSectionViewStyle
 70
     0
 71
     0
 90
       78
 71
     1
340
55
 62
   256
 40
0.24
340
0
340
0
 62
   256
 40
0.24
300
I, O, Q, S, X, Z
 40
0.48
 90
        3
 40
0.18
 90
        1
 71
     2
340
5C
 90
       25
 62
   256
340
5C
 90
       50
 62
   256
 40
0.24
 40
0.0
 40
0.24
 71
     3
340
55
 62
   256
 40
0.24
 90
        1
 40
0.75
 90
        1
300
%<\AcVar ViewType \f "%tc1">% %<\AcVar ViewSectionStartId>%-%<\AcVar ViewSectionEndId>%\P %<\AcVar ViewScale \f "%sn">%
 71
     4
 62
   256
 62
   257
300
ANSI31
 40
1.0
 90
        0
290
     0
290
     0
 90
        6
 40
0.0
 40
1.570796326794896
 40
0.2617993877991494
 40
1.308996938995747
 40
-0.2617993877991494
 40
1.832595714594044
  0
TABLESTYLE
  5
64
102
{ACAD_XDICTIONARY
360
CED
102
}
102
{ACAD_REACTORS
330
63
102
}
330
63
100
AcDbTableStyle
280
     0
  3
Standard
 70
     0
 71
     0
 40
0.06
 41
0.06
280
     0
281
     0
  7
Standard
140
0.18
170
     2
 62
     0
 63
     7
283
     0
 90
      512
 91
        0
  1

274
    -2
284
     1
 64
     0
275
    -2
285
     1
 65
     0
276
    -2
286
     1
 66
     0
277
    -2
287
     1
 67
     0
278
    -2
288
     1
 68
     0
279
    -2
289
     1
 69
     0
  7
Standard
140
0.25
170
     5
 62
     0
 63
     7
283
     0
 90
      512
 91
        0
  1

274
    -2
284
     1
 64
     0
275
    -2
285
     1
 65
     0
276
    -2
286
     1
 66
     0
277
    -2
287
     1
 67
     0
278
    -2
288
     1
 68
     0
279
    -2
289
     1
 69
     0
  7
Standard
140
0.18
170
     5
 62
     0
 63
     7
283
     0
 90
      512
 91
        0
  1

274
    -2
284
     1
 64
     0
275
    -2
285
     1
 65
     0
276
    -2
286
     1
 66
     0
277
    -2
287
     1
 67
     0
278
    -2
288
     1
 68
     0
279
    -2
289
     1
 69
     0
  0
VISUALSTYLE
  5
2F
102
{ACAD_REACTORS
330
29
102
}
330
29
100
AcDbVisualStyle
  2
2dWireframe
 70
     4
177
     3
291
     0
 70
    58
 90
        0
176
     1
 90
        2
176
     1
 90
        0
176
     1
 90
        0
176
     1
 40
0.6
176
     1
 40
30.0
176
     1
 62
     7
420
 16777215
176
     1
 90
        1
176
     1
 90
        4
176
     1
 62
     7
176
     1
 62
   257
176
     1
 90
        1
176
     1
 90
        1
176
     1
 40
1.0
176
     1
 90
        0
176
     1
 62
   257
176
     1
 40
1.0
176
     1
 90
        1
176
     1
 90
        6
176
     1
 90
        2
176
     1
 62
     7
176
     1
 90
        5
176
     1
 90
        0
176
     1
 90
        0
176
     1
290
     0
176
     1
 90
        1
176
     1
 40
0.0
176
     1
 90
        0
176
     1
290
     1
176
     1
290
     1
176
     1
290
     0
176
     1
290
     0
176
     1
290
     0
176
     1
290
     0
176
     1
290
     0
176
     1
290
     0
176
     1
290
     0
176
     1
 90
       50
176
     1
 40
0.0
176
     1
 40
1.0
176
     1
 90
        0
176
     1
 62
    18
176
     1
 90
       50
176
     1
 90
        3
176
     1
 62
     5
420
      255
176
     1
290
     0
176
     1
 90
       50
176
     1
 90
       50
176
     1
 90
       50
176
     1
290
     0
176
     1
 90
       50
176
     1
 62
   256
176
     0
 40
1.0
176
     0
 90
        2
176
     1
  1
strokes_ogs.tif
176
     1
290
     0
176
     1
 40
1.0
176
     1
 40
1.0
176
     1
1001
ACAD
1000
AcDbSavedByObjectVersion
1070
     0
  0
VISUALSTYLE
  5
2E
102
{ACAD_REACTORS
330
29
102
}
330
29
100
AcDbVisualStyle
  2
Basic
 70
     7
177
     3
291
     1
 70
    58
 90
        1
176
     1
 90
        0
176
     1
 90
        1
176
     1
 90
        0
176
     1
 40
0.6
176
     1
 40
30.0
176
     1
 62
     7
420
 16777215
176
     1
 90
        0
176
     1
 90
        4
176
     1
 62
     7
176
     1
 62
   257
176
     1
 90
        1
176
     1
 90
        1
176
     1
 40
1.0
176
     1
 90
        8
176
     1
 62
     7
176
     1
 40
1.0
176
     1
 90
        1
176
     1
 90
        6
176
     1
 90
        2
176
     1
 62
     7
176
     1
 90
        5
176
     1
 90
        0
176
     1
 90
        0
176
     1
290
     0
176
     1
 90
        1
176
     1
 40
0.0
176
     1
 90
        0
176
     1
290
     0
176
     1
290
     1
176
     1
290
     1
176
     1
290
     0
176
     1
290
     0
176
     1
290
     0
176
     1
290
     0
176
     1
290
     0
176
     1
290
     0
176
     1
 90
       50
176
     1
 40
0.0
176
     1
 40
1.0
176
     1
 90
        0
176
     1
 62
    18
176
     1
 90
       50
176
     1
 90
        3
176
     1
 62
     5
420
      255
176
     1
290
     0
176
     1
 90
       50
176
     1
 90
       50
176
     1
 90
       50
176
     1
290
     0
176
     1
 90
       50
176
     1
 62
   256
176
     0
 40
1.0
176
     0
 90
        2
176
     1
  1
strokes_ogs.tif
176
     1
290
     0
176
     1
 40
1.0
176
     1
 40
1.0
176
     1
1001
ACAD
1000
AcDbSavedByObjectVersion
1070
     0
  0
VISUALSTYLE
  5
35
102
{ACAD_REACTORS
330
29
102
}
330
29
100
AcDbVisualStyle
  2
Brighten
 70
    12
177
     3
291
     1
 70
    58
 90
        2
176
     1
 90
        2
176
     1
 90
        0
176
     1
 90
        0
176
     1
 40
0.6
176
     1
 40
30.0
176
     1
 62
     7
420
 16777215
176
     1
 90
        1
176
     1
 90
        4
176
     1
 62
     7
176
     1
 62
   257
176
     1
 90
        1
176
     1
 90
        1
176
     1
 40
1.0
176
     1
 90
        8
176
     1
 62
     7
176
     1
 40
1.0
176
     1
 90
        1
176
     1
 90
        6
176
     1
 90
        2
176
     1
 62
     7
176
     1
 90
        5
176
     1
 90
        0
176
     1
 90
        0
176
     1
290
     0
176
     1
 90
        1
176
     1
 40
50.0
176
     1
 90
        0
176
     1
290
     0
176
     1
290
     1
176
     1
290
     1
176
     1
290
     0
176
     1
290
     0
176
     1
290
     0
176
     1
290
     0
176
     1
290
     0
176
     1
290
     0
176
     1
 90
       50
176
     1
 40
0.0
176
     1
 40
1.0
176
     1
 90
        0
176
     1
 62
    18
176
     1
 90
       50
176
     1
 90
        3
176
     1
 62
     5
420
      255
176
     1
290
     0
176
     1
 90
       50
176
     1
 90
       50
176
     1
 90
       50
176
     1
290
     0
176
     1
 90
       50
176
     1
 62
   256
176
     0
 40
1.0
176
     0
 90
        2
176
     1
  1
strokes_ogs.tif
176
     1
290
     0
176
     1
 40
1.0
176
     1
 40
1.0
176
     1
1001
ACAD
1000
AcDbSavedByObjectVersion
1070
     0
  0
VISUALSTYLE
  5
39
102
{ACAD_REACTORS
330
29
102
}
330
29
100
AcDbVisualStyle
  2
ColorChange
 70
    16
177
     3
291
     1
 70
    58
 90
        2
176
     1
 90
        2
176
     1
 90
        3
176
     1
 90
        0
176
     1
 40
0.6
176
     1
 40
30.0
176
     1
 62
     8
420
  8421504
176
     1
 90
        1
176
     1
 90
        4
176
     1
 62
     7
176
     1
 62
   257
176
     1
 90
        1
176
     1
 90
        1
176
     1
 40
1.0
176
     1
 90
        8
176
     1
 62
     8
420
  8421504
176
     1
 40
1.0
176
     1
 90
        1
176
     1
 90
        6
176
     1
 90
        2
176
     1
 62
     7
176
     1
 90
        5
176
     1
 90
        0
176
     1
 90
        0
176
     1
290
     0
176
     1
 90
        1
176
     1
 40
0.0
176
     1
 90
        0
176
     1
290
     0
176
     1
290
     1
176
     1
290
     1
176
     1
290
     0
176
     1
290
     0
176
     1
290
     0
176
     1
290
     0
176
     1
290
     0
176
     1
290
     0
176
     1
 90
       50
176
     1
 40
0.0
176
     1
 40
1.0
176
     1
 90
        0
176
     1
 62
    18
176
     1
 90
       50
176
     1
 90
        3
176
     1
 62
     5
420
      255
176
     1
290
     0
176
     1
 90
       50
176
     1
 90
       50
176
     1
 90
       50
176
     1
290
     0
176
     1
 90
       50
176
     1
 62
   256
176
     0
 40
1.0
176
     0
 90
        2
176
     1
  1
strokes_ogs.tif
176
     1
290
     0
176
     1
 40
1.0
176
     1
 40
1.0
176
     1
1001
ACAD
1000
AcDbSavedByObjectVersion
1070
     0
  0
VISUALSTYLE
  5
32
102
{ACAD_REACTORS
330
29
102
}
330
29
100
AcDbVisualStyle
  2
Conceptual
 70
     9
177
     3
291
     0
 70
    58
 90
        3
176
     1
 90
        2
176
     1
 90
        0
176
     1
 90
        0
176
     1
 40
0.6
176
     1
 40
30.0
176
     1
 62
     7
420
 16777215
176
     1
 90
        2
176
     1
 90
        2
176
     1
 62
     7
176
     1
 62
   257
176
     1
 90
        1
176
     1
 90
        1
176
     1
 40
179.0
176
     1
 90
        8
176
     1
 62
     7
176
     1
 40
1.0
176
     1
 90
        1
176
     1
 90
        6
176
     1
 90
        2
176
     1
 62
     7
176
     1
 90
        3
176
     1
 90
        0
176
     1
 90
        0
176
     1
290
     0
176
     1
 90
        1
176
     1
 40
0.0
176
     1
 90
        0
176
     1
290
     0
176
     1
290
     1
176
     1
290
     1
176
     1
290
     0
176
     1
290
     0
176
     1
290
     0
176
     1
290
     0
176
     1
290
     0
176
     1
290
     0
176
     1
 90
       50
176
     1
 40
0.0
176
     1
 40
1.0
176
     1
 90
        0
176
     1
 62
    18
176
     1
 90
       50
176
     1
 90
        3
176
     1
 62
     5
420
      255
176
     1
290
     0
176
     1
 90
       50
176
     1
 90
       50
176
     1
 90
       50
176
     1
290
     0
176
     1
 90
       50
176
     1
 62
   256
176
     0
 40
1.0
176
     0
 90
        2
176
     1
  1
strokes_ogs.tif
176
     1
290
     0
176
     1
 40
1.0
176
     1
 40
1.0
176
     1
1001
ACAD
1000
AcDbSavedByObjectVersion
1070
     0
  0
VISUALSTYLE
  5
34
102
{ACAD_REACTORS
330
29
102
}
330
29
100
AcDbVisualStyle
  2
Dim
 70
    11
177
     3
291
     1
 70
    58
 90
        2
176
     1
 90
        2
176
     1
 90
        0
176
     1
 90
        0
176
     1
 40
0.6
176
     1
 40
30.0
176
     1
 62
     7
420
 16777215
176
     1
 90
        1
176
     1
 90
        4
176
     1
 62
     7
176
     1
 62
   257
176
     1
 90
        1
176
     1
 90
        1
176
     1
 40
1.0
176
     1
 90
        8
176
     1
 62
     7
176
     1
 40
1.0
176
     1
 90
        1
176
     1
 90
        6
176
     1
 90
        2
176
     1
 62
     7
176
     1
 90
        5
176
     1
 90
        0
176
     1
 90
        0
176
     1
290
     0
176
     1
 90
        1
176
     1
 40
-50.0
176
     1
 90
        0
176
     1
290
     0
176
     1
290
     1
176
     1
290
     1
176
     1
290
     0
176
     1
290
     0
176
     1
290
     0
176
     1
290
     0
176
     1
290
     0
176
     1
290
     0
176
     1
 90
       50
176
     1
 40
0.0
176
     1
 40
1.0
176
     1
 90
        0
176
     1
 62
    18
176
     1
 90
       50
176
     1
 90
        3
176
     1
 62
     5
420
      255
176
     1
290
     0
176
     1
 90
       50
176
     1
 90
       50
176
     1
 90
       50
176
     1
290
     0
176
     1
 90
       50
176
     1
 62
   256
176
     0
 40
1.0
176
     0
 90
        2
176
     1
  1
strokes_ogs.tif
176
     1
290
     0
176
     1
 40
1.0
176
     1
 40
1.0
176
     1
1001
ACAD
1000
AcDbSavedByObjectVersion
1070
     0
  0
VISUALSTYLE
  5
41
102
{ACAD_REACTORS
330
29
102
}
330
29
100
AcDbVisualStyle
  2
EdgeColorOff
 70
    22
177
     3
291
     1
 70
    58
 90
        2
176
     0
 90
        2
176
     0
 90
        0
176
     0
 90
        0
176
     0
 40
0.6
176
     0
 40
30.0
176
     0
 62
     7
420
 16777215
176
     0
 90
        1
176
     0
 90
        4
176
     0
 62
     7
176
     0
 62
   257
176
     0
 90
        1
176
     0
 90
        1
176
     0
 40
1.0
176
     0
 90
        8
176
     2
 62
     7
176
     0
 40
1.0
176
     0
 90
        1
176
     0
 90
        6
176
     0
 90
        2
176
     0
 62
     7
176
     0
 90
        5
176
     0
 90
        0
176
     0
 90
        0
176
     0
290
     0
176
     0
 90
        1
176
     0
 40
0.0
176
     0
 90
        0
176
     0
290
     0
176
     1
290
     1
176
     1
290
     1
176
     1
290
     0
176
     1
290
     0
176
     1
290
     0
176
     1
290
     0
176
     1
290
     0
176
     1
290
     0
176
     1
 90
       50
176
     0
 40
0.0
176
     0
 40
1.0
176
     0
 90
        0
176
     0
 62
    18
176
     0
 90
       50
176
     0
 90
        3
176
     0
 62
     5
420
      255
176
     0
290
     0
176
     1
 90
       50
176
     0
 90
       50
176
     0
 90
       50
176
     0
290
     0
176
     1
 90
       50
176
     0
 62
   256
176
     0
 40
1.0
176
     0
 90
        2
176
     0
  1
strokes_ogs.tif
176
     0
290
     0
176
     1
 40
1.0
176
     0
 40
1.0
176
     0
1001
ACAD
1000
AcDbSavedByObjectVersion
1070
     0
  0
VISUALSTYLE
  5
38
102
{ACAD_REACTORS
330
29
102
}
330
29
100
AcDbVisualStyle
  2
Facepattern
 70
    15
177
     3
291
     1
 70
    58
 90
        2
176
     1
 90
        2
176
     1
 90
        0
176
     1
 90
        0
176
     1
 40
0.6
176
     1
 40
30.0
176
     1
 62
     7
420
 16777215
176
     1
 90
        1
176
     1
 90
        4
176
     1
 62
     7
176
     1
 62
   257
176
     1
 90
        1
176
     1
 90
        1
176
     1
 40
1.0
176
     1
 90
        8
176
     1
 62
     7
176
     1
 40
1.0
176
     1
 90
        1
176
     1
 90
        6
176
     1
 90
        2
176
     1
 62
     7
176
     1
 90
        5
176
     1
 90
        0
176
     1
 90
        0
176
     1
290
     0
176
     1
 90
        1
176
     1
 40
0.0
176
     1
 90
        0
176
     1
290
     0
176
     1
290
     1
176
     1
290
     1
176
     1
290
     0
176
     1
290
     0
176
     1
290
     0
176
     1
290
     0
176
     1
290
     0
176
     1
290
     0
176
     1
 90
       50
176
     1
 40
0.0
176
     1
 40
1.0
176
     1
 90
        0
176
     1
 62
    18
176
     1
 90
       50
176
     1
 90
        3
176
     1
 62
     5
420
      255
176
     1
290
     0
176
     1
 90
       50
176
     1
 90
       50
176
     1
 90
       50
176
     1
290
     0
176
     1
 90
       50
176
     1
 62
   256
176
     0
 40
1.0
176
     0
 90
        2
176
     1
  1
strokes_ogs.tif
176
     1
290
     0
176
     1
 40
1.0
176
     1
 40
1.0
176
     1
1001
ACAD
1000
AcDbSavedByObjectVersion
1070
     0
  0
VISUALSTYLE
  5
2A
102
{ACAD_REACTORS
330
29
102
}
330
29
100
AcDbVisualStyle
  2
Flat
 70
     0
177
     3
291
     1
 70
    58
 90
        2
176
     1
 90
        1
176
     1
 90
        1
176
     1
 90
        2
176
     1
 40
0.6
176
     1
 40
30.0
176
     1
 62
     7
420
 16777215
176
     1
 90
        0
176
     1
 90
        0
176
     1
 62
     7
176
     1
 62
   257
176
     1
 90
        1
176
     1
 90
        1
176
     1
 40
1.0
176
     1
 90
        8
176
     1
 62
     7
176
     1
 40
1.0
176
     1
 90
        1
176
     1
 90
        6
176
     1
 90
        2
176
     1
 62
     7
176
     1
 90
        5
176
     1
 90
        0
176
     1
 90
        0
176
     1
290
     0
176
     1
 90
       13
176
     1
 40
0.0
176
     1
 90
        0
176
     1
290
     0
176
     1
290
     1
176
     1
290
     1
176
     1
290
     0
176
     1
290
     0
176
     1
290
     0
176
     1
290
     0
176
     1
290
     0
176
     1
290
     0
176
     1
 90
       50
176
     1
 40
0.0
176
     1
 40
1.0
176
     1
 90
        0
176
     1
 62
    18
176
     1
 90
       50
176
     1
 90
        3
176
     1
 62
     5
420
      255
176
     1
290
     0
176
     1
 90
       50
176
     1
 90
       50
176
     1
 90
       50
176
     1
290
     0
176
     1
 90
       50
176
     1
 62
   256
176
     0
 40
1.0
176
     0
 90
        2
176
     1
  1
strokes_ogs.tif
176
     1
290
     0
176
     1
 40
1.0
176
     1
 40
1.0
176
     1
1001
ACAD
1000
AcDbSavedByObjectVersion
1070
     0
  0
VISUALSTYLE
  5
2B
102
{ACAD_REACTORS
330
29
102
}
330
29
100
AcDbVisualStyle
  2
FlatWithEdges
 70
     1
177
     3
291
     1
 70
    58
 90
        2
176
     1
 90
        1
176
     1
 90
        1
176
     1
 90
        2
176
     1
 40
0.6
176
     1
 40
30.0
176
     1
 62
     7
420
 16777215
176
     1
 90
        1
176
     1
 90
        0
176
     1
 62
     7
176
     1
 62
   257
176
     1
 90
        1
176
     1
 90
        1
176
     1
 40
1.0
176
     1
 90
        0
176
     1
 62
   257
176
     1
 40
1.0
176
     1
 90
        1
176
     1
 90
        6
176
     1
 90
        2
176
     1
 62
     7
176
     1
 90
        5
176
     1
 90
        0
176
     1
 90
        0
176
     1
290
     0
176
     1
 90
       13
176
     1
 40
0.0
176
     1
 90
        0
176
     1
290
     0
176
     1
290
     1
176
     1
290
     1
176
     1
290
     0
176
     1
290
     0
176
     1
290
     0
176
     1
290
     0
176
     1
290
     0
176
     1
290
     0
176
     1
 90
       50
176
     1
 40
0.0
176
     1
 40
1.0
176
     1
 90
        0
176
     1
 62
    18
176
     1
 90
       50
176
     1
 90
        3
176
     1
 62
     5
420
      255
176
     1
290
     0
176
     1
 90
       50
176
     1
 90
       50
176
     1
 90
       50
176
     1
290
     0
176
     1
 90
       50
176
     1
 62
   256
176
     0
 40
1.0
176
     0
 90
        2
176
     1
  1
strokes_ogs.tif
176
     1
290
     0
176
     1
 40
1.0
176
     1
 40
1.0
176
     1
1001
ACAD
1000
AcDbSavedByObjectVersion
1070
     0
  0
VISUALSTYLE
  5
2C
102
{ACAD_REACTORS
330
29
102
}
330
29
100
AcDbVisualStyle
  2
Gouraud
 70
     2
177
     3
291
     1
 70
    58
 90
        2
176
     1
 90
        2
176
     1
 90
        1
176
     1
 90
        2
176
     1
 40
0.6
176
     1
 40
30.0
176
     1
 62
     7
420
 16777215
176
     1
 90
        0
176
     1
 90
        0
176
     1
 62
     7
176
     1
 62
   257
176
     1
 90
        1
176
     1
 90
        1
176
     1
 40
1.0
176
     1
 90
        0
176
     1
 62
     7
176
     1
 40
1.0
176
     1
 90
        1
176
     1
 90
        6
176
     1
 90
        2
176
     1
 62
     7
176
     1
 90
        5
176
     1
 90
        0
176
     1
 90
        0
176
     1
290
     0
176
     1
 90
       13
176
     1
 40
0.0
176
     1
 90
        0
176
     1
290
     0
176
     1
290
     1
176
     1
290
     1
176
     1
290
     0
176
     1
290
     0
176
     1
290
     0
176
     1
290
     0
176
     1
290
     0
176
     1
290
     0
176
     1
 90
       50
176
     1
 40
0.0
176
     1
 40
1.0
176
     1
 90
        0
176
     1
 62
    18
176
     1
 90
       50
176
     1
 90
        3
176
     1
 62
     5
420
      255
176
     1
290
     0
176
     1
 90
       50
176
     1
 90
       50
176
     1
 90
       50
176
     1
290
     0
176
     1
 90
       50
176
     1
 62
   256
176
     0
 40
1.0
176
     0
 90
        2
176
     1
  1
strokes_ogs.tif
176
     1
290
     0
176
     1
 40
1.0
176
     1
 40
1.0
176
     1
1001
ACAD
1000
AcDbSavedByObjectVersion
1070
     0
  0
VISUALSTYLE
  5
2D
102
{ACAD_REACTORS
330
29
102
}
330
29
100
AcDbVisualStyle
  2
GouraudWithEdges
 70
     3
177
     3
291
     1
 70
    58
 90
        2
176
     1
 90
        2
176
     1
 90
        1
176
     1
 90
        2
176
     1
 40
0.6
176
     1
 40
30.0
176
     1
 62
     7
420
 16777215
176
     1
 90
        1
176
     1
 90
        0
176
     1
 62
     7
176
     1
 62
   257
176
     1
 90
        1
176
     1
 90
        1
176
     1
 40
1.0
176
     1
 90
        0
176
     1
 62
   257
176
     1
 40
1.0
176
     1
 90
        1
176
     1
 90
        6
176
     1
 90
        2
176
     1
 62
     7
176
     1
 90
        5
176
     1
 90
        0
176
     1
 90
        0
176
     1
290
     0
176
     1
 90
       13
176
     1
 40
0.0
176
     1
 90
        0
176
     1
290
     0
176
     1
290
     1
176
     1
290
     1
176
     1
290
     0
176
     1
290
     0
176
     1
290
     0
176
     1
290
     0
176
     1
290
     0
176
     1
290
     0
176
     1
 90
       50
176
     1
 40
0.0
176
     1
 40
1.0
176
     1
 90
        0
176
     1
 62
    18
176
     1
 90
       50
176
     1
 90
        3
176
     1
 62
     5
420
      255
176
     1
290
     0
176
     1
 90
       50
176
     1
 90
       50
176
     1
 90
       50
176
     1
290
     0
176
     1
 90
       50
176
     1
 62
   256
176
     0
 40
1.0
176
     0
 90
        2
176
     1
  1
strokes_ogs.tif
176
     1
290
     0
176
     1
 40
1.0
176
     1
 40
1.0
176
     1
1001
ACAD
1000
AcDbSavedByObjectVersion
1070
     0
  0
VISUALSTYLE
  5
31
102
{ACAD_REACTORS
330
29
102
}
330
29
100
AcDbVisualStyle
  2
Hidden
 70
     6
177
     3
291
     0
 70
    58
 90
        1
176
     1
 90
        2
176
     1
 90
        2
176
     1
 90
        0
176
     1
 40
0.6
176
     1
 40
30.0
176
     1
 62
     7
420
 16777215
176
     1
 90
        2
176
     1
 90
        2
176
     1
 62
     7
176
     1
 62
   257
176
     1
 90
        2
176
     1
 90
        1
176
     1
 40
40.0
176
     1
 90
        0
176
     1
 62
   257
176
     1
 40
1.0
176
     1
 90
        1
176
     1
 90
        6
176
     1
 90
        2
176
     1
 62
     7
176
     1
 90
        3
176
     1
 90
        0
176
     1
 90
        0
176
     1
290
     0
176
     1
 90
        1
176
     1
 40
0.0
176
     1
 90
        0
176
     1
290
     0
176
     1
290
     1
176
     1
290
     1
176
     1
290
     0
176
     1
290
     0
176
     1
290
     0
176
     1
290
     0
176
     1
290
     0
176
     1
290
     0
176
     1
 90
       50
176
     1
 40
0.0
176
     1
 40
1.0
176
     1
 90
        0
176
     1
 62
    18
176
     1
 90
       50
176
     1
 90
        3
176
     1
 62
     5
420
      255
176
     1
290
     0
176
     1
 90
       50
176
     1
 90
       50
176
     1
 90
       50
176
     1
290
     0
176
     1
 90
       50
176
     1
 62
   256
176
     0
 40
1.0
176
     0
 90
        2
176
     1
  1
strokes_ogs.tif
176
     1
290
     0
176
     1
 40
1.0
176
     1
 40
1.0
176
     1
1001
ACAD
1000
AcDbSavedByObjectVersion
1070
     0
  0
VISUALSTYLE
  5
3F
102
{ACAD_REACTORS
330
29
102
}
330
29
100
AcDbVisualStyle
  2
JitterOff
 70
    20
177
     3
291
     1
 70
    58
 90
        2
176
     0
 90
        2
176
     0
 90
        0
176
     0
 90
        0
176
     0
 40
0.6
176
     0
 40
30.0
176
     0
 62
     7
420
 16777215
176
     0
 90
        1
176
     0
 90
        4
176
     0
 62
     7
176
     0
 62
   257
176
     0
 90
        1
176
     0
 90
        1
176
     0
 40
1.0
176
     0
 90
       10
176
     2
 62
     7
176
     0
 40
1.0
176
     0
 90
        1
176
     0
 90
        6
176
     0
 90
        2
176
     0
 62
     7
176
     0
 90
        5
176
     0
 90
        0
176
     0
 90
        0
176
     0
290
     0
176
     0
 90
        1
176
     0
 40
0.0
176
     0
 90
        0
176
     0
290
     0
176
     1
290
     1
176
     1
290
     1
176
     1
290
     0
176
     1
290
     0
176
     1
290
     0
176
     1
290
     0
176
     1
290
     0
176
     1
290
     0
176
     1
 90
       50
176
     0
 40
0.0
176
     0
 40
1.0
176
     0
 90
        0
176
     0
 62
    18
176
     0
 90
       50
176
     0
 90
        3
176
     0
 62
     5
420
      255
176
     0
290
     0
176
     1
 90
       50
176
     0
 90
       50
176
     0
 90
       50
176
     0
290
     0
176
     1
 90
       50
176
     0
 62
   256
176
     0
 40
1.0
176
     0
 90
        2
176
     0
  1
strokes_ogs.tif
176
     0
290
     0
176
     1
 40
1.0
176
     0
 40
1.0
176
     0
1001
ACAD
1000
AcDbSavedByObjectVersion
1070
     0
  0
VISUALSTYLE
  5
37
102
{ACAD_REACTORS
330
29
102
}
330
29
100
AcDbVisualStyle
  2
Linepattern
 70
    14
177
     3
291
     1
 70
    58
 90
        2
176
     1
 90
        2
176
     1
 90
        0
176
     1
 90
        0
176
     1
 40
0.6
176
     1
 40
30.0
176
     1
 62
     7
420
 16777215
176
     1
 90
        1
176
     1
 90
        4
176
     1
 62
     7
176
     1
 62
   257
176
     1
 90
        7
176
     1
 90
        7
176
     1
 40
1.0
176
     1
 90
        8
176
     1
 62
     7
176
     1
 40
1.0
176
     1
 90
        1
176
     1
 90
        6
176
     1
 90
        2
176
     1
 62
     7
176
     1
 90
        5
176
     1
 90
        0
176
     1
 90
        0
176
     1
290
     0
176
     1
 90
        1
176
     1
 40
0.0
176
     1
 90
        0
176
     1
290
     0
176
     1
290
     1
176
     1
290
     1
176
     1
290
     0
176
     1
290
     0
176
     1
290
     0
176
     1
290
     0
176
     1
290
     0
176
     1
290
     0
176
     1
 90
       50
176
     1
 40
0.0
176
     1
 40
1.0
176
     1
 90
        0
176
     1
 62
    18
176
     1
 90
       50
176
     1
 90
        3
176
     1
 62
     5
420
      255
176
     1
290
     0
176
     1
 90
       50
176
     1
 90
       50
176
     1
 90
       50
176
     1
290
     0
176
     1
 90
       50
176
     1
 62
   256
176
     0
 40
1.0
176
     0
 90
        2
176
     1
  1
strokes_ogs.tif
176
     1
290
     0
176
     1
 40
1.0
176
     1
 40
1.0
176
     1
1001
ACAD
1000
AcDbSavedByObjectVersion
1070
     0
  0
VISUALSTYLE
  5
40
102
{ACAD_REACTORS
330
29
102
}
330
29
100
AcDbVisualStyle
  2
OverhangOff
 70
    21
177
     3
291
     1
 70
    58
 90
        2
176
     0
 90
        2
176
     0
 90
        0
176
     0
 90
        0
176
     0
 40
0.6
176
     0
 40
30.0
176
     0
 62
     7
420
 16777215
176
     0
 90
        1
176
     0
 90
        4
176
     0
 62
     7
176
     0
 62
   257
176
     0
 90
        1
176
     0
 90
        1
176
     0
 40
1.0
176
     0
 90
        9
176
     2
 62
     7
176
     0
 40
1.0
176
     0
 90
        1
176
     0
 90
        6
176
     0
 90
        2
176
     0
 62
     7
176
     0
 90
        5
176
     0
 90
        0
176
     0
 90
        0
176
     0
290
     0
176
     0
 90
        1
176
     0
 40
0.0
176
     0
 90
        0
176
     0
290
     0
176
     1
290
     1
176
     1
290
     1
176
     1
290
     0
176
     1
290
     0
176
     1
290
     0
176
     1
290
     0
176
     1
290
     0
176
     1
290
     0
176
     1
 90
       50
176
     0
 40
0.0
176
     0
 40
1.0
176
     0
 90
        0
176
     0
 62
    18
176
     0
 90
       50
176
     0
 90
        3
176
     0
 62
     5
420
      255
176
     0
290
     0
176
     1
 90
       50
176
     0
 90
       50
176
     0
 90
       50
176
     0
290
     0
176
     1
 90
       50
176
     0
 62
   256
176
     0
 40
1.0
176
     0
 90
        2
176
     0
  1
strokes_ogs.tif
176
     0
290
     0
176
     1
 40
1.0
176
     0
 40
1.0
176
     0
1001
ACAD
1000
AcDbSavedByObjectVersion
1070
     0
  0
VISUALSTYLE
  5
33
102
{ACAD_REACTORS
330
29
102
}
330
29
100
AcDbVisualStyle
  2
Realistic
 70
     8
177
     3
291
     0
 70
    58
 90
        2
176
     1
 90
        3
176
     1
 90
        0
176
     1
 90
        2
176
     1
 40
0.6
176
     1
 40
30.0
176
     1
 62
     7
420
 16777215
176
     1
 90
        0
176
     1
 90
        0
176
     1
 62
     7
176
     1
 62
   257
176
     1
 90
        1
176
     1
 90
        1
176
     1
 40
1.0
176
     1
 90
        8
176
     1
 62
   257
176
     1
 40
1.0
176
     1
 90
        1
176
     1
 90
        6
176
     1
 90
        2
176
     1
 62
     7
176
     1
 90
        3
176
     1
 90
        0
176
     1
 90
        0
176
     1
290
     0
176
     1
 90
       13
176
     1
 40
0.0
176
     1
 90
        0
176
     1
290
     0
176
     1
290
     1
176
     1
290
     1
176
     1
290
     0
176
     1
290
     0
176
     1
290
     0
176
     1
290
     0
176
     1
290
     0
176
     1
290
     0
176
     1
 90
       50
176
     1
 40
0.0
176
     1
 40
1.0
176
     1
 90
        0
176
     1
 62
    18
176
     1
 90
       50
176
     1
 90
        3
176
     1
 62
     5
420
      255
176
     1
290
     0
176
     1
 90
       50
176
     1
 90
       50
176
     1
 90
       50
176
     1
290
     0
176
     1
 90
       50
176
     1
 62
   256
176
     0
 40
1.0
176
     0
 90
        2
176
     1
  1
strokes_ogs.tif
176
     1
290
     0
176
     1
 40
1.0
176
     1
 40
1.0
176
     1
1001
ACAD
1000
AcDbSavedByObjectVersion
1070
     0
  0
VISUALSTYLE
  5
3E
102
{ACAD_REACTORS
330
29
102
}
330
29
100
AcDbVisualStyle
  2
Shaded
 70
    27
177
     3
291
     0
 70
    58
 90
        2
176
     1
 90
        2
176
     1
 90
        1
176
     1
 90
        2
176
     1
 40
0.6
176
     1
 40
30.0
176
     1
 62
     7
420
 16777215
176
     1
 90
        0
176
     1
 90
        4
176
     1
 62
     7
176
     1
 62
   257
176
     1
 90
        1
176
     1
 90
        1
176
     1
 40
1.0
176
     1
 90
        8
176
     1
 62
   257
176
     1
 40
1.0
176
     1
 90
        1
176
     1
 90
        6
176
     1
 90
        2
176
     1
 62
     8
420
  7895160
176
     1
 90
        3
176
     1
 90
        0
176
     1
 90
        0
176
     1
290
     0
176
     1
 90
        5
176
     1
 40
0.0
176
     1
 90
        0
176
     1
290
     0
176
     1
290
     1
176
     1
290
     1
176
     1
290
     0
176
     1
290
     0
176
     1
290
     0
176
     1
290
     0
176
     1
290
     0
176
     1
290
     0
176
     1
 90
       50
176
     1
 40
0.0
176
     1
 40
1.0
176
     1
 90
        0
176
     1
 62
    18
176
     1
 90
       50
176
     1
 90
        3
176
     1
 62
     5
420
      255
176
     1
290
     0
176
     1
 90
       50
176
     1
 90
       50
176
     1
 90
       50
176
     1
290
     0
176
     1
 90
       50
176
     1
 62
   256
176
     0
 40
1.0
176
     0
 90
        2
176
     1
  1
strokes_ogs.tif
176
     1
290
     0
176
     1
 40
1.0
176
     1
 40
1.0
176
     1
1001
ACAD
1000
AcDbSavedByObjectVersion
1070
     0
  0
VISUALSTYLE
  5
3D
102
{ACAD_REACTORS
330
29
102
}
330
29
100
AcDbVisualStyle
  2
Shaded with edges
 70
    26
177
     3
291
     0
 70
    58
 90
        2
176
     1
 90
        2
176
     1
 90
        1
176
     1
 90
        2
176
     1
 40
0.6
176
     1
 40
30.0
176
     1
 62
     7
420
 16777215
176
     1
 90
        1
176
     1
 90
        2
176
     1
 62
     7
176
     1
 62
   257
176
     1
 90
        2
176
     1
 90
        1
176
     1
 40
1.0
176
     1
 90
        8
176
     1
 62
   257
176
     1
 40
1.0
176
     1
 90
        1
176
     1
 90
        6
176
     1
 90
        2
176
     1
 62
     7
176
     1
 90
        3
176
     1
 90
        0
176
     1
 90
        0
176
     1
290
     0
176
     1
 90
        5
176
     1
 40
0.0
176
     1
 90
        0
176
     1
290
     0
176
     1
290
     1
176
     1
290
     1
176
     1
290
     0
176
     1
290
     0
176
     1
290
     0
176
     1
290
     0
176
     1
290
     0
176
     1
290
     0
176
     1
 90
       50
176
     1
 40
0.0
176
     1
 40
1.0
176
     1
 90
        0
176
     1
 62
    18
176
     1
 90
       50
176
     1
 90
        3
176
     1
 62
     5
420
      255
176
     1
290
     0
176
     1
 90
       50
176
     1
 90
       50
176
     1
 90
       50
176
     1
290
     0
176
     1
 90
       50
176
     1
 62
   256
176
     0
 40
1.0
176
     0
 90
        2
176
     1
  1
strokes_ogs.tif
176
     1
290
     0
176
     1
 40
1.0
176
     1
 40
1.0
176
     1
1001
ACAD
1000
AcDbSavedByObjectVersion
1070
     0
  0
VISUALSTYLE
  5
3A
102
{ACAD_REACTORS
330
29
102
}
330
29
100
AcDbVisualStyle
  2
Shades of Gray
 70
    23
177
     3
291
     0
 70
    58
 90
        2
176
     1
 90
        2
176
     1
 90
        3
176
     1
 90
        0
176
     1
 40
0.6
176
     1
 40
30.0
176
     1
 62
     7
420
 16777215
176
     1
 90
        2
176
     1
 90
        2
176
     1
 62
     7
176
     1
 62
     7
176
     1
 90
        1
176
     1
 90
        1
176
     1
 40
40.0
176
     1
 90
        8
176
     1
 62
     7
176
     1
 40
1.0
176
     1
 90
        1
176
     1
 90
        6
176
     1
 90
        2
176
     1
 62
     7
176
     1
 90
        3
176
     1
 90
        0
176
     1
 90
        0
176
     1
290
     0
176
     1
 90
        1
176
     1
 40
0.0
176
     1
 90
        0
176
     1
290
     0
176
     1
290
     1
176
     1
290
     1
176
     1
290
     0
176
     1
290
     0
176
     1
290
     0
176
     1
290
     0
176
     1
290
     0
176
     1
290
     0
176
     1
 90
       50
176
     1
 40
0.0
176
     1
 40
1.0
176
     1
 90
        0
176
     1
 62
    18
176
     1
 90
       50
176
     1
 90
        3
176
     1
 62
     5
420
      255
176
     1
290
     0
176
     1
 90
       50
176
     1
 90
       50
176
     1
 90
       50
176
     1
290
     0
176
     1
 90
       50
176
     1
 62
   256
176
     0
 40
1.0
176
     0
 90
        2
176
     1
  1
strokes_ogs.tif
176
     1
290
     0
176
     1
 40
1.0
176
     1
 40
1.0
176
     1
1001
ACAD
1000
AcDbSavedByObjectVersion
1070
     0
  0
VISUALSTYLE
  5
3B
102
{ACAD_REACTORS
330
29
102
}
330
29
100
AcDbVisualStyle
  2
Sketchy
 70
    24
177
     3
291
     0
 70
    58
 90
        1
176
     1
 90
        2
176
     1
 90
        2
176
     1
 90
        0
176
     1
 40
0.6
176
     1
 40
30.0
176
     1
 62
     7
420
 16777215
176
     1
 90
        2
176
     1
 90
        2
176
     1
 62
     7
176
     1
 62
     7
176
     1
 90
        1
176
     1
 90
        1
176
     1
 40
40.0
176
     1
 90
       11
176
     1
 62
     7
176
     1
 40
1.0
176
     1
 90
        1
176
     1
 90
        6
176
     1
 90
        2
176
     1
 62
     7
176
     1
 90
        6
176
     1
 90
        0
176
     1
 90
        0
176
     1
290
     0
176
     1
 90
        1
176
     1
 40
0.0
176
     1
 90
        0
176
     1
290
     0
176
     1
290
     1
176
     1
290
     1
176
     1
290
     0
176
     1
290
     0
176
     1
290
     0
176
     1
290
     0
176
     1
290
     0
176
     1
290
     0
176
     1
 90
       50
176
     1
 40
0.0
176
     1
 40
1.0
176
     1
 90
        0
176
     1
 62
    18
176
     1
 90
       50
176
     1
 90
        3
176
     1
 62
     5
420
      255
176
     1
290
     0
176
     1
 90
       50
176
     1
 90
       50
176
     1
 90
       50
176
     1
290
     0
176
     1
 90
       50
176
     1
 62
   256
176
     0
 40
1.0
176
     0
 90
        2
176
     1
  1
strokes_ogs.tif
176
     1
290
     0
176
     1
 40
1.0
176
     1
 40
1.0
176
     1
1001
ACAD
1000
AcDbSavedByObjectVersion
1070
     0
  0
VISUALSTYLE
  5
36
102
{ACAD_REACTORS
330
29
102
}
330
29
100
AcDbVisualStyle
  2
Thicken
 70
    13
177
     3
291
     1
 70
    58
 90
        2
176
     1
 90
        2
176
     1
 90
        0
176
     1
 90
        0
176
     1
 40
0.6
176
     1
 40
30.0
176
     1
 62
     7
420
 16777215
176
     1
 90
        1
176
     1
 90
        4
176
     1
 62
     7
176
     1
 62
   257
176
     1
 90
        1
176
     1
 90
        1
176
     1
 40
1.0
176
     1
 90
       12
176
     1
 62
     7
176
     1
 40
1.0
176
     1
 90
        1
176
     1
 90
        6
176
     1
 90
        2
176
     1
 62
     7
176
     1
 90
        5
176
     1
 90
        0
176
     1
 90
        0
176
     1
290
     0
176
     1
 90
        1
176
     1
 40
0.0
176
     1
 90
        0
176
     1
290
     0
176
     1
290
     1
176
     1
290
     1
176
     1
290
     0
176
     1
290
     0
176
     1
290
     0
176
     1
290
     0
176
     1
290
     0
176
     1
290
     0
176
     1
 90
       50
176
     1
 40
0.0
176
     1
 40
1.0
176
     1
 90
        0
176
     1
 62
    18
176
     1
 90
       50
176
     1
 90
        3
176
     1
 62
     5
420
      255
176
     1
290
     0
176
     1
 90
       50
176
     1
 90
       50
176
     1
 90
       50
176
     1
290
     0
176
     1
 90
       50
176
     1
 62
   256
176
     0
 40
1.0
176
     0
 90
        2
176
     1
  1
strokes_ogs.tif
176
     1
290
     0
176
     1
 40
1.0
176
     1
 40
1.0
176
     1
1001
ACAD
1000
AcDbSavedByObjectVersion
1070
     0
  0
VISUALSTYLE
  5
30
102
{ACAD_REACTORS
330
29
102
}
330
29
100
AcDbVisualStyle
  2
Wireframe
 70
     5
177
     3
291
     0
 70
    58
 90
        0
176
     1
 90
        2
176
     1
 90
        0
176
     1
 90
        0
176
     1
 40
0.6
176
     1
 40
30.0
176
     1
 62
     7
420
 16777215
176
     1
 90
        1
176
     1
 90
        4
176
     1
 62
     7
176
     1
 62
   257
176
     1
 90
        1
176
     1
 90
        1
176
     1
 40
1.0
176
     1
 90
        0
176
     1
 62
   257
176
     1
 40
1.0
176
     1
 90
        1
176
     1
 90
        6
176
     1
 90
        2
176
     1
 62
     7
176
     1
 90
        3
176
     1
 90
        0
176
     1
 90
        0
176
     1
290
     0
176
     1
 90
        1
176
     1
 40
0.0
176
     1
 90
        0
176
     1
290
     0
176
     1
290
     1
176
     1
290
     1
176
     1
290
     0
176
     1
290
     0
176
     1
290
     0
176
     1
290
     0
176
     1
290
     0
176
     1
290
     0
176
     1
 90
       50
176
     1
 40
0.0
176
     1
 40
1.0
176
     1
 90
        0
176
     1
 62
    18
176
     1
 90
       50
176
     1
 90
        3
176
     1
 62
     5
420
      255
176
     1
290
     0
176
     1
 90
       50
176
     1
 90
       50
176
     1
 90
       50
176
     1
290
     0
176
     1
 90
       50
176
     1
 62
   256
176
     0
 40
1.0
176
     0
 90
        2
176
     1
  1
strokes_ogs.tif
176
     1
290
     0
176
     1
 40
1.0
176
     1
 40
1.0
176
     1
1001
ACAD
1000
AcDbSavedByObjectVersion
1070
     0
  0
VISUALSTYLE
  5
3C
102
{ACAD_REACTORS
330
29
102
}
330
29
100
AcDbVisualStyle
  2
X-Ray
 70
    25
177
     3
291
     0
 70
    58
 90
        2
176
     1
 90
        2
176
     1
 90
        1
176
     1
 90
        1
176
     1
 40
0.5
176
     1
 40
30.0
176
     1
 62
     7
420
 16777215
176
     1
 90
        1
176
     1
 90
        0
176
     1
 62
     7
176
     1
 62
   257
176
     1
 90
        1
176
     1
 90
        1
176
     1
 40
1.0
176
     1
 90
        8
176
     1
 62
     7
176
     1
 40
1.0
176
     1
 90
        1
176
     1
 90
        6
176
     1
 90
        2
176
     1
 62
     7
176
     1
 90
        3
176
     1
 90
        0
176
     1
 90
        0
176
     1
290
     0
176
     1
 90
       13
176
     1
 40
0.0
176
     1
 90
        0
176
     1
290
     0
176
     1
290
     1
176
     1
290
     1
176
     1
290
     0
176
     1
290
     0
176
     1
290
     0
176
     1
290
     0
176
     1
290
     0
176
     1
290
     0
176
     1
 90
       50
176
     1
 40
0.0
176
     1
 40
1.0
176
     1
 90
        0
176
     1
 62
    18
176
     1
 90
       50
176
     1
 90
        3
176
     1
 62
     5
420
      255
176
     1
290
     0
176
     1
 90
       50
176
     1
 90
       50
176
     1
 90
       50
176
     1
290
     0
176
     1
 90
       50
176
     1
 62
   256
176
     0
 40
1.0
176
     0
 90
        2
176
     1
  1
strokes_ogs.tif
176
     1
290
     0
176
     1
 40
1.0
176
     1
 40
1.0
176
     1
1001
ACAD
1000
AcDbSavedByObjectVersion
1070
     0
  0
DICTIONARYVAR
  5
CE8
102
{ACAD_REACTORS
330
CE2
102
}
330
CE2
100
DictionaryVariables
280
     0
  1
1:1
  0
DICTIONARYVAR
  5
CE4
102
{ACAD_REACTORS
330
CE2
102
}
330
CE2
100
DictionaryVariables
280
     0
  1
STANDARD
  0
DICTIONARYVAR
  5
CE3
102
{ACAD_REACTORS
330
CE2
102
}
330
CE2
100
DictionaryVariables
280
     0
  1
STANDARD
  0
DICTIONARYVAR
  5
CE5
102
{ACAD_REACTORS
330
CE2
102
}
330
CE2
100
DictionaryVariables
280
     0
  1
Imperial24
  0
DICTIONARYVAR
  5
CE6
102
{ACAD_REACTORS
330
CE2
102
}
330
CE2
100
DictionaryVariables
280
     0
  1
Imperial24
  0
DICTIONARYVAR
  5
CEA
102
{ACAD_REACTORS
330
CE2
102
}
330
CE2
100
DictionaryVariables
280
     0
  1
1
  0
DICTIONARYVAR
  5
CEB
102
{ACAD_REACTORS
330
CE2
102
}
330
CE2
100
DictionaryVariables
280
     0
  1
15
  0
DICTIONARYVAR
  5
CE9
102
{ACAD_REACTORS
330
CE2
102
}
330
CE2
100
DictionaryVariables
280
     0
  1
0
  0
DICTIONARYVAR
  5
CE7
102
{ACAD_REACTORS
330
CE2
102
}
330
CE2
100
DictionaryVariables
280
     0
  1
0
  0
DICTIONARY
  5
D4D
330
6A
100
AcDbDictionary
280
     1
281
     1
  3
ACAD_XREC_ROUNDTRIP
360
D4E
  0
DICTIONARY
  5
1A
330
19
100
AcDbDictionary
280
     1
281
     1
  3
BUMPTILE
360
1C
  3
DIFFUSETILE
360
1B
  3
OPACITYTILE
360
1F
  3
REFLECTIONTILE
360
1E
  3
REFRACTIONTILE
360
20
  3
SPECULARTILE
360
1D
  0
DICTIONARY
  5
12
330
11
100
AcDbDictionary
280
     1
281
     1
  3
BUMPTILE
360
14
  3
DIFFUSETILE
360
13
  3
OPACITYTILE
360
17
  3
REFLECTIONTILE
360
16
  3
REFRACTIONTILE
360
18
  3
SPECULARTILE
360
15
  0
DICTIONARY
  5
22
330
21
100
AcDbDictionary
280
     1
281
     1
  3
BUMPTILE
360
24
  3
DIFFUSETILE
360
23
  3
OPACITYTILE
360
27
  3
REFLECTIONTILE
360
26
  3
REFRACTIONTILE
360
28
  3
SPECULARTILE
360
25
  0
DICTIONARY
  5
D4B
330
68
100
AcDbDictionary
280
     1
281
     1
  3
ACAD_XREC_ROUNDTRIP
360
D4C
  0
DICTIONARY
  5
CED
330
64
100
AcDbDictionary
280
     1
281
     1
  3
ACAD_ROUNDTRIP_2008_TABLESTYLE_CELLSTYLEMAP
360
D49
  0
XRECORD
  5
D4E
102
{ACAD_REACTORS
330
D4D
102
}
330
D4D
100
AcDbXrecord
280
     1
102
DISPLAYNAME
  1
Imperial24
102
FLAGS
 90
        0
  0
XRECORD
  5
1C
102
{ACAD_REACTORS
330
1A
102
}
330
1A
100
AcDbXrecord
280
     1
270
     1
271
     1
  0
XRECORD
  5
1B
102
{ACAD_REACTORS
330
1A
102
}
330
1A
100
AcDbXrecord
280
     1
270
     1
271
     1
  0
XRECORD
  5
1F
102
{ACAD_REACTORS
330
1A
102
}
330
1A
100
AcDbXrecord
280
     1
270
     1
271
     1
  0
XRECORD
  5
1E
102
{ACAD_REACTORS
330
1A
102
}
330
1A
100
AcDbXrecord
280
     1
270
     1
271
     1
  0
XRECORD
  5
20
102
{ACAD_REACTORS
330
1A
102
}
330
1A
100
AcDbXrecord
280
     1
270
     1
271
     1
  0
XRECORD
  5
1D
102
{ACAD_REACTORS
330
1A
102
}
330
1A
100
AcDbXrecord
280
     1
270
     1
271
     1
  0
XRECORD
  5
14
102
{ACAD_REACTORS
330
12
102
}
330
12
100
AcDbXrecord
280
     1
270
     1
271
     1
  0
XRECORD
  5
13
102
{ACAD_REACTORS
330
12
102
}
330
12
100
AcDbXrecord
280
     1
270
     1
271
     1
  0
XRECORD
  5
17
102
{ACAD_REACTORS
330
12
102
}
330
12
100
AcDbXrecord
280
     1
270
     1
271
     1
  0
XRECORD
  5
16
102
{ACAD_REACTORS
330
12
102
}
330
12
100
AcDbXrecord
280
     1
270
     1
271
     1
  0
XRECORD
  5
18
102
{ACAD_REACTORS
330
12
102
}
330
12
100
AcDbXrecord
280
     1
270
     1
271
     1
  0
XRECORD
  5
15
102
{ACAD_REACTORS
330
12
102
}
330
12
100
AcDbXrecord
280
     1
270
     1
271
     1
  0
XRECORD
  5
24
102
{ACAD_REACTORS
330
22
102
}
330
22
100
AcDbXrecord
280
     1
270
     1
271
     1
  0
XRECORD
  5
23
102
{ACAD_REACTORS
330
22
102
}
330
22
100
AcDbXrecord
280
     1
270
     1
271
     1
  0
XRECORD
  5
27
102
{ACAD_REACTORS
330
22
102
}
330
22
100
AcDbXrecord
280
     1
270
     1
271
     1
  0
XRECORD
  5
26
102
{ACAD_REACTORS
330
22
102
}
330
22
100
AcDbXrecord
280
     1
270
     1
271
     1
  0
XRECORD
  5
28
102
{ACAD_REACTORS
330
22
102
}
330
22
100
AcDbXrecord
280
     1
270
     1
271
     1
  0
XRECORD
  5
25
102
{ACAD_REACTORS
330
22
102
}
330
22
100
AcDbXrecord
280
     1
270
     1
271
     1
  0
XRECORD
  5
D4C
102
{ACAD_REACTORS
330
D4B
102
}
330
D4B
100
AcDbXrecord
280
     1
102
DISPLAYNAME
  1
Imperial24
102
FLAGS
 90
        0
  0
CELLSTYLEMAP
  5
D49
102
{ACAD_REACTORS
330
CED
102
}
330
CED
100
AcDbCellStyleMap
 90
        3
300
CELLSTYLE
  1
TABLEFORMAT_BEGIN
 90
        5
170
     1
 91
        0
 92
    32768
 62
   257
 93
        1
300
CONTENTFORMAT
  1
CONTENTFORMAT_BEGIN
 90
        0
 91
        0
 92
      512
 93
        0
300

 40
0.0
140
1.0
 94
        5
 62
     0
340
55
144
0.25
309
CONTENTFORMAT_END
171
     1
301
MARGIN
  1
CELLMARGIN_BEGIN
 40
0.06
 40
0.06
 40
0.06
 40
0.06
 40
0.18
 40
0.18
309
CELLMARGIN_END
 94
        6
 95
        1
302
GRIDFORMAT
  1
GRIDFORMAT_BEGIN
 90
        0
 91
        1
 62
     0
 92
       -2
340
0
 93
        0
 40
0.045
309
GRIDFORMAT_END
 95
        2
302
GRIDFORMAT
  1
GRIDFORMAT_BEGIN
 90
        0
 91
        1
 62
     0
 92
       -2
340
0
 93
        0
 40
0.045
309
GRIDFORMAT_END
 95
        4
302
GRIDFORMAT
  1
GRIDFORMAT_BEGIN
 90
        0
 91
        1
 62
     0
 92
       -2
340
0
 93
        0
 40
0.045
309
GRIDFORMAT_END
 95
        8
302
GRIDFORMAT
  1
GRIDFORMAT_BEGIN
 90
        0
 91
        1
 62
     0
 92
       -2
340
0
 93
        0
 40
0.045
309
GRIDFORMAT_END
 95
       16
302
GRIDFORMAT
  1
GRIDFORMAT_BEGIN
 90
        0
 91
        1
 62
     0
 92
       -2
340
0
 93
        0
 40
0.045
309
GRIDFORMAT_END
 95
       32
302
GRIDFORMAT
  1
GRIDFORMAT_BEGIN
 90
        0
 91
        1
 62
     0
 92
       -2
340
0
 93
        0
 40
0.045
309
GRIDFORMAT_END
309
TABLEFORMAT_END
  1
CELLSTYLE_BEGIN
 90
        1
 91
        1
300
_TITLE
309
CELLSTYLE_END
300
CELLSTYLE
  1
TABLEFORMAT_BEGIN
 90
        5
170
     1
 91
        0
 92
        0
 62
   257
 93
        1
300
CONTENTFORMAT
  1
CONTENTFORMAT_BEGIN
 90
        0
 91
        0
 92
      512
 93
        0
300

 40
0.0
140
1.0
 94
        5
 62
     0
340
55
144
0.18
309
CONTENTFORMAT_END
171
     1
301
MARGIN
  1
CELLMARGIN_BEGIN
 40
0.06
 40
0.06
 40
0.06
 40
0.06
 40
0.18
 40
0.18
309
CELLMARGIN_END
 94
        6
 95
        1
302
GRIDFORMAT
  1
GRIDFORMAT_BEGIN
 90
        0
 91
        1
 62
     0
 92
       -2
340
0
 93
        0
 40
0.045
309
GRIDFORMAT_END
 95
        2
302
GRIDFORMAT
  1
GRIDFORMAT_BEGIN
 90
        0
 91
        1
 62
     0
 92
       -2
340
0
 93
        0
 40
0.045
309
GRIDFORMAT_END
 95
        4
302
GRIDFORMAT
  1
GRIDFORMAT_BEGIN
 90
        0
 91
        1
 62
     0
 92
       -2
340
0
 93
        0
 40
0.045
309
GRIDFORMAT_END
 95
        8
302
GRIDFORMAT
  1
GRIDFORMAT_BEGIN
 90
        0
 91
        1
 62
     0
 92
       -2
340
0
 93
        0
 40
0.045
309
GRIDFORMAT_END
 95
       16
302
GRIDFORMAT
  1
GRIDFORMAT_BEGIN
 90
        0
 91
        1
 62
     0
 92
       -2
340
0
 93
        0
 40
0.045
309
GRIDFORMAT_END
 95
       32
302
GRIDFORMAT
  1
GRIDFORMAT_BEGIN
 90
        0
 91
        1
 62
     0
 92
       -2
340
0
 93
        0
 40
0.045
309
GRIDFORMAT_END
309
TABLEFORMAT_END
  1
CELLSTYLE_BEGIN
 90
        2
 91
        1
300
_HEADER
309
CELLSTYLE_END
300
CELLSTYLE
  1
TABLEFORMAT_BEGIN
 90
        5
170
     1
 91
        0
 92
        0
 62
   257
 93
        1
300
CONTENTFORMAT
  1
CONTENTFORMAT_BEGIN
 90
        0
 91
        0
 92
      512
 93
        0
300

 40
0.0
140
1.0
 94
        2
 62
     0
340
55
144
0.18
309
CONTENTFORMAT_END
171
     1
301
MARGIN
  1
CELLMARGIN_BEGIN
 40
0.06
 40
0.06
 40
0.06
 40
0.06
 40
0.18
 40
0.18
309
CELLMARGIN_END
 94
        6
 95
        1
302
GRIDFORMAT
  1
GRIDFORMAT_BEGIN
 90
        0
 91
        1
 62
     0
 92
       -2
340
0
 93
        0
 40
0.045
309
GRIDFORMAT_END
 95
        2
302
GRIDFORMAT
  1
GRIDFORMAT_BEGIN
 90
        0
 91
        1
 62
     0
 92
       -2
340
0
 93
        0
 40
0.045
309
GRIDFORMAT_END
 95
        4
302
GRIDFORMAT
  1
GRIDFORMAT_BEGIN
 90
        0
 91
        1
 62
     0
 92
       -2
340
0
 93
        0
 40
0.045
309
GRIDFORMAT_END
 95
        8
302
GRIDFORMAT
  1
GRIDFORMAT_BEGIN
 90
        0
 91
        1
 62
     0
 92
       -2
340
0
 93
        0
 40
0.045
309
GRIDFORMAT_END
 95
       16
302
GRIDFORMAT
  1
GRIDFORMAT_BEGIN
 90
        0
 91
        1
 62
     0
 92
       -2
340
0
 93
        0
 40
0.045
309
GRIDFORMAT_END
 95
       32
302
GRIDFORMAT
  1
GRIDFORMAT_BEGIN
 90
        0
 91
        1
 62
     0
 92
       -2
340
0
 93
        0
 40
0.045
309
GRIDFORMAT_END
309
TABLEFORMAT_END
  1
CELLSTYLE_BEGIN
 90
        3
 91
        2
300
_DATA
309
CELLSTYLE_END
  0
ENDSEC
  0
EOF
